<svg xmlns="http://www.w3.org/2000/svg" version="1.1"><polyline points="183.5,4.5,202.5,12.5,214.0,20.5,222.0,28.5,228.0,36.5,232.5,45.0,234.5,53.0,235.5,61.0,234.5,69.5" stroke="black" stroke-width="2" fill="none" />
<polyline points="236.0,69.0,227.5,69.0" stroke="black" stroke-width="2" fill="none" />
<polyline points="226.5,62.5,234.0,61.5" stroke="black" stroke-width="2" fill="none" />
<polyline points="234.0,43.5,226.5,43.5" stroke="black" stroke-width="2" fill="none" />
<polyline points="227.0,28.5,219.0,29.0" stroke="black" stroke-width="2" fill="none" />
<polyline points="219.5,21.0,211.5,21.5" stroke="black" stroke-width="2" fill="none" />
<polyline points="204.0,13.5,196.5,14.0" stroke="black" stroke-width="2" fill="none" />
<polyline points="188.5,11.5,205.5,19.5,215.5,28.0,222.0,36.0,226.0,44.0,228.5,52.0,230.5,60.0" stroke="black" stroke-width="2" fill="none" />
<polyline points="218.0,78.5,210.0,79.0,202.0,79.5" stroke="black" stroke-width="2" fill="none" />
<polyline points="204.0,86.0,212.0,85.5,219.5,84.5" stroke="black" stroke-width="2" fill="none" />
<polyline points="224.0,89.5,232.0,88.0,234.5,95.0,229.5,89.5,232.5,92.5" stroke="black" stroke-width="2" fill="none" />
<polyline points="236.0,94.5,228.0,95.5" stroke="black" stroke-width="2" fill="none" />
<polyline points="220.5,109.0,212.5,109.5,205.0,110.0" stroke="black" stroke-width="2" fill="none" />
<polyline points="204.5,100.5,212.5,100.0,220.0,100.0" stroke="black" stroke-width="2" fill="none" />
<polyline points="220.0,92.0,213.0,92.5,205.0,92.5" stroke="black" stroke-width="2" fill="none" />
<polyline points="202.5,72.0,211.0,71.0,219.0,70.0" stroke="black" stroke-width="2" fill="none" />
<polyline points="212.5,63.0,204.5,63.5" stroke="black" stroke-width="2" fill="none" />
<polyline points="197.5,55.5,205.0,55.0,213.0,53.5" stroke="black" stroke-width="2" fill="none" />
<polyline points="212.0,38.5,204.5,38.5" stroke="black" stroke-width="2" fill="none" />
<polyline points="204.0,39.5,196.5,40.0,188.0,41.0,180.0,41.5,172.0,42.0,163.5,42.5,155.0,43.0,147.0,43.0,139.5,42.5,131.0,42.5,123.0,42.5,115.0,42.5,107.0,43.0,98.5,44.0,90.5,44.0" stroke="black" stroke-width="2" fill="none" />
<polyline points="91.5,43.5,100.0,36.5" stroke="black" stroke-width="2" fill="none" />
<polyline points="106.5,35.5,99.0,42.5,90.5,50.0" stroke="black" stroke-width="2" fill="none" />
<polyline points="93.0,48.5,101.0,48.5" stroke="black" stroke-width="2" fill="none" />
<polyline points="103.5,53.5,93.0,62.0,92.5,72.0,93.5,80.0,94.5,88.0,95.0,96.0,96.0,104.0,97.5,111.5,98.5,119.5,99.0,127.0,101.0,135.5,103.0,144.0,104.5,152.5,107.0,158.5,115.0,158.0,123.5,159.5,132.0,159.0,140.0,159.5,150.0,160.0,158.0,158.0" stroke="black" stroke-width="2" fill="none" />
<polyline points="156.0,154.5,164.0,146.5" stroke="black" stroke-width="2" fill="none" />
<polyline points="165.0,138.5,156.5,146.5,148.5,154.0,140.0,161.5,131.5,168.5" stroke="black" stroke-width="2" fill="none" />
<polyline points="131.5,163.5,139.5,163.0" stroke="black" stroke-width="2" fill="none" />
<polyline points="142.5,160.5,142.5,169.0,142.5,176.5,144.0,184.0,147.0,190.0,155.0,190.0,163.5,189.5,171.5,189.5,180.0,189.5" stroke="black" stroke-width="2" fill="none" />
<polyline points="180.0,192.5,172.0,192.5,164.0,192.5,156.0,192.5,148.0,192.5,137.5,191.0,129.5,191.0,120.5,189.5,112.5,188.5,104.0,188.0,95.5,187.5,87.5,187.0,79.5,187.0,71.5,187.0" stroke="black" stroke-width="2" fill="none" />
<polyline points="73.5,189.0,73.0,197.5" stroke="black" stroke-width="2" fill="none" />
<polyline points="74.0,202.5,66.0,210.5" stroke="black" stroke-width="2" fill="none" />
<polyline points="69.5,211.5,77.0,211.0" stroke="black" stroke-width="2" fill="none" />
<polyline points="84.0,210.5,75.5,218.0" stroke="black" stroke-width="2" fill="none" />
<polyline points="75.5,220.5,83.5,219.5,91.5,219.5,100.0,219.0,108.0,219.0,116.0,219.0,124.0,219.0,131.5,219.0,139.5,219.0,147.5,218.5,155.0,218.0,163.5,217.0,172.0,216.0,179.5,215.0" stroke="black" stroke-width="2" fill="none" />
<polyline points="172.5,204.0,180.5,196.5" stroke="black" stroke-width="2" fill="none" />
<polyline points="183.0,191.0,184.0,199.0,183.5,207.0,183.5,215.0,183.5,222.5,182.5,230.5,182.5,238.5,182.0,246.5,181.0,254.0" stroke="black" stroke-width="2" fill="none" />
<polyline points="163.5,204.0,171.5,197.0" stroke="black" stroke-width="2" fill="none" />
<polyline points="149.0,186.5,141.0,194.0" stroke="black" stroke-width="2" fill="none" />
<polyline points="138.5,185.5,130.5,193.0" stroke="black" stroke-width="2" fill="none" />
<polyline points="132.0,199.0,140.0,198.5,148.0,198.0,156.5,197.0,164.0,196.5,172.0,195.5,179.5,195.0,187.0,194.5" stroke="black" stroke-width="2" fill="none" />
<polyline points="137.0,176.5,129.0,184.0" stroke="black" stroke-width="2" fill="none" />
<polyline points="125.0,182.5,133.0,182.0,140.0,181.5,148.0,180.5" stroke="black" stroke-width="2" fill="none" />
<polyline points="139.0,170.0,131.5,177.5" stroke="black" stroke-width="2" fill="none" />
<polyline points="123.0,175.0,131.5,174.0,140.0,173.0,147.5,172.0" stroke="black" stroke-width="2" fill="none" />
<polyline points="133.0,162.0,140.5,154.0,148.5,146.0,156.5,138.5,164.5,131.5" stroke="black" stroke-width="2" fill="none" />
<polyline points="163.5,146.0,154.5,146.5,146.5,147.0" stroke="black" stroke-width="2" fill="none" />
<polyline points="147.5,152.5,155.5,152.0" stroke="black" stroke-width="2" fill="none" />
<polyline points="148.0,138.5,156.0,137.5,164.0,136.5" stroke="black" stroke-width="2" fill="none" />
<polyline points="172.5,114.5,164.5,122.5,156.0,130.0,148.0,137.0,140.0,144.5" stroke="black" stroke-width="2" fill="none" />
<polyline points="141.5,137.0,149.5,129.5,157.5,122.0,165.0,114.0,173.0,106.5" stroke="black" stroke-width="2" fill="none" />
<polyline points="165.5,107.5,157.0,115.0,148.5,122.5,140.0,130.0" stroke="black" stroke-width="2" fill="none" />
<polyline points="140.5,128.5,148.5,128.5,156.0,128.0,164.0,128.0" stroke="black" stroke-width="2" fill="none" />
<polyline points="162.0,112.5,170.5,112.0" stroke="black" stroke-width="2" fill="none" />
<polyline points="164.0,100.5,172.0,100.0,179.5,99.5" stroke="black" stroke-width="2" fill="none" />
<polyline points="180.5,91.5,172.5,91.5" stroke="black" stroke-width="2" fill="none" />
<polyline points="176.5,87.5,184.0,83.0" stroke="black" stroke-width="2" fill="none" />
<polyline points="179.5,73.5,171.5,81.5" stroke="black" stroke-width="2" fill="none" />
<polyline points="171.5,83.0,179.5,83.0" stroke="black" stroke-width="2" fill="none" />
<polyline points="166.5,85.5,158.0,92.5,150.0,99.5" stroke="black" stroke-width="2" fill="none" />
<polyline points="149.5,106.0,141.0,113.0,133.0,121.0,124.5,128.5" stroke="black" stroke-width="2" fill="none" />
<polyline points="132.5,130.5,141.0,123.0,149.5,115.5,157.0,108.0" stroke="black" stroke-width="2" fill="none" />
<polyline points="158.0,99.5,165.5,92.0" stroke="black" stroke-width="2" fill="none" />
<polyline points="157.0,84.0,148.5,91.0" stroke="black" stroke-width="2" fill="none" />
<polyline points="150.5,90.5,158.5,89.5,166.5,89.5" stroke="black" stroke-width="2" fill="none" />
<polyline points="164.0,75.5,171.5,75.0,179.0,75.0,187.0,75.0" stroke="black" stroke-width="2" fill="none" />
<polyline points="171.5,65.5,179.0,57.5,186.5,50.5,195.0,42.5" stroke="black" stroke-width="2" fill="none" />
<polyline points="192.0,44.0,200.0,46.0,208.5,50.5" stroke="black" stroke-width="2" fill="none" />
<polyline points="196.0,53.5,188.0,50.0" stroke="black" stroke-width="2" fill="none" />
<polyline points="189.0,55.5,181.0,56.0,172.0,56.0,164.0,56.0,156.5,56.0,148.5,55.5,140.5,55.5,132.0,56.0,124.5,56.5" stroke="black" stroke-width="2" fill="none" />
<polyline points="118.0,55.0,128.5,63.0" stroke="black" stroke-width="2" fill="none" />
<polyline points="124.5,65.0,132.5,57.5,140.5,50.0,148.5,42.0,157.0,34.5" stroke="black" stroke-width="2" fill="none" />
<polyline points="165.5,36.5,157.5,44.0,149.0,51.5,140.0,59.0,131.5,67.0,123.0,74.5" stroke="black" stroke-width="2" fill="none" />
<polyline points="122.0,78.0,130.0,77.0,138.0,76.5,146.5,76.0" stroke="black" stroke-width="2" fill="none" />
<polyline points="148.5,74.5,138.5,82.0,138.0,89.5,140.0,97.5,151.0,100.5,159.0,97.5" stroke="black" stroke-width="2" fill="none" />
<polyline points="164.5,83.0,156.0,84.5,147.5,85.0" stroke="black" stroke-width="2" fill="none" />
<polyline points="146.0,86.5,144.5,81.5,142.5,89.5,146.0,98.0" stroke="black" stroke-width="2" fill="none" />
<polyline points="140.5,98.5,132.5,106.0" stroke="black" stroke-width="2" fill="none" />
<polyline points="131.5,106.5,139.5,106.0" stroke="black" stroke-width="2" fill="none" />
<polyline points="139.5,107.5,132.0,114.5,124.5,122.0,116.5,129.0" stroke="black" stroke-width="2" fill="none" />
<polyline points="114.5,126.0,106.5,133.0" stroke="black" stroke-width="2" fill="none" />
<polyline points="106.5,133.0,115.0,132.5,123.5,132.0,131.5,131.5,139.0,131.0,147.5,130.0,155.0,129.0,163.0,128.5" stroke="black" stroke-width="2" fill="none" />
<polyline points="164.5,121.5,156.5,122.5,148.5,122.5,140.5,122.5,132.5,123.0" stroke="black" stroke-width="2" fill="none" />
<polyline points="133.0,114.5,140.5,114.0,148.5,113.0" stroke="black" stroke-width="2" fill="none" />
<polyline points="147.0,101.5,138.5,101.5,130.0,102.0" stroke="black" stroke-width="2" fill="none" />
<polyline points="131.0,98.5,138.5,91.0" stroke="black" stroke-width="2" fill="none" />
<polyline points="139.5,91.0,132.0,91.5,124.0,91.5,116.0,92.0,108.0,92.5,100.0,93.0" stroke="black" stroke-width="2" fill="none" />
<polyline points="99.5,98.0,107.0,90.5" stroke="black" stroke-width="2" fill="none" />
<polyline points="115.5,91.0,107.5,98.0,100.0,105.5" stroke="black" stroke-width="2" fill="none" />
<polyline points="97.5,107.0,106.0,106.5,114.5,105.5" stroke="black" stroke-width="2" fill="none" />
<polyline points="116.0,105.5,107.5,113.0,99.0,120.5" stroke="black" stroke-width="2" fill="none" />
<polyline points="99.0,118.5,107.0,118.0,115.0,117.0" stroke="black" stroke-width="2" fill="none" />
<polyline points="115.0,116.0,107.0,123.5" stroke="black" stroke-width="2" fill="none" />
<polyline points="106.5,118.5,114.5,118.0" stroke="black" stroke-width="2" fill="none" />
<polyline points="122.0,116.0,130.0,116.0,138.0,116.0,145.5,116.0,154.0,116.0,162.5,116.5,171.0,115.5" stroke="black" stroke-width="2" fill="none" />
<polyline points="173.0,104.5,164.0,105.0,155.5,106.0,147.0,107.5,138.5,108.0,129.5,108.0,120.5,108.5" stroke="black" stroke-width="2" fill="none" />
<polyline points="115.5,110.5,107.5,110.5" stroke="black" stroke-width="2" fill="none" />
<polyline points="115.0,110.0,107.0,110.0,98.5,110.5" stroke="black" stroke-width="2" fill="none" />
<polyline points="98.0,113.0,106.0,106.0,114.0,98.5,121.5,91.0,129.0,84.0,136.5,76.5" stroke="black" stroke-width="2" fill="none" />
<polyline points="133.5,74.5,141.5,66.5,149.0,58.5,156.5,50.5,164.5,43.0,172.5,35.5" stroke="black" stroke-width="2" fill="none" />
<polyline points="180.0,35.5,172.0,43.0,163.5,50.5,156.0,58.0,148.5,65.5" stroke="black" stroke-width="2" fill="none" />
<polyline points="155.0,68.5,163.5,61.0,171.5,53.5,180.0,45.5,188.0,38.0" stroke="black" stroke-width="2" fill="none" />
<polyline points="188.5,38.5,180.5,39.0,172.0,39.0,164.0,39.5,156.0,40.0,147.5,40.0,139.5,40.5,132.0,40.5,124.0,40.5" stroke="black" stroke-width="2" fill="none" />
<polyline points="125.5,34.0,117.5,41.5,109.0,50.0,101.0,58.5,93.0,66.0" stroke="black" stroke-width="2" fill="none" />
<polyline points="96.5,70.5,104.5,64.5,112.5,63.5,121.0,67.5" stroke="black" stroke-width="2" fill="none" />
<polyline points="123.5,70.0,131.5,69.0,139.5,68.5,147.0,68.0,155.0,67.5,163.0,67.0,171.0,67.0,179.0,67.0,187.0,67.0" stroke="black" stroke-width="2" fill="none" />
<polyline points="187.5,53.5,179.0,53.5,171.0,53.5,163.0,53.5,155.0,54.0,146.5,55.0,138.5,55.0,130.5,56.0,122.5,56.5,115.0,57.5,107.5,58.5,100.0,59.0,91.5,59.5,83.5,60.5,75.0,61.0,67.0,61.0,59.0,61.0" stroke="black" stroke-width="2" fill="none" />
<polyline points="53.0,61.5,61.0,50.5,69.0,34.5,77.5,27.5,85.5,23.0,93.5,20.0,101.5,17.5,109.0,15.5,117.0,14.0" stroke="black" stroke-width="2" fill="none" />
<polyline points="111.5,18.0,91.0,20.0,76.0,28.0,67.5,36.0,63.0,44.0,59.0,52.0,53.0,60.0,53.5,67.5,60.0,75.5,60.0,83.5,59.0,91.5,58.0,99.5,56.0,107.5,52.5,115.5,49.5,124.0,45.5,132.0,43.5,140.5,41.0,148.5,41.0,157.0,41.0,165.0,43.0,173.0,45.0,181.0,48.5,188.5,53.0,196.0,59.0,204.0,68.0,212.0,73.0,219.5,73.0,228.0,73.0,236.0,73.0,244.0,74.0,252.0,79.0,254.0,87.5,254.0,95.5,254.0,103.5,254.0,111.5,254.5,119.5,254.5,127.5,254.5,135.5,255.5,143.5,255.5,151.5,255.5,159.5,255.5,167.5,255.5,175.5,255.5" stroke="black" stroke-width="2" fill="none" />
<polyline points="187.0,202.0,179.5,203.5,172.0,204.5,164.5,205.5,157.5,206.5,149.5,207.0,141.0,208.0,133.0,208.5" stroke="black" stroke-width="2" fill="none" />
<polyline points="117.5,200.5,110.0,201.5,102.0,202.0,94.0,202.5,85.0,203.0,76.5,203.0,68.5,203.0,61.0,204.0" stroke="black" stroke-width="2" fill="none" />
<polyline points="60.0,202.0,68.0,200.5" stroke="black" stroke-width="2" fill="none" />
<polyline points="61.0,199.5,69.0,199.5,77.0,198.5,84.5,198.0,93.0,197.0,100.5,196.0,109.0,195.0,117.0,194.0" stroke="black" stroke-width="2" fill="none" />
<polyline points="114.5,195.0,107.0,202.5" stroke="black" stroke-width="2" fill="none" />
<polyline points="115.5,198.0,123.5,193.0" stroke="black" stroke-width="2" fill="none" />
<polyline points="119.5,196.0,116.0,203.5,118.5,208.0,127.0,210.0" stroke="black" stroke-width="2" fill="none" />
<polyline points="98.5,213.5,106.5,213.5,114.5,213.5,122.5,214.0,130.5,214.0,138.0,214.0,146.0,214.0,151.0,217.5,151.5,225.0" stroke="black" stroke-width="2" fill="none" />
<polyline points="179.0,247.5,171.0,248.5,163.5,249.0,155.5,249.5,147.5,250.0,139.5,250.5,131.5,251.0,123.0,251.0,114.5,251.5,106.5,252.0,98.5,253.0,90.0,253.5,81.5,254.0,73.5,254.5" stroke="black" stroke-width="2" fill="none" />
<polyline points="76.0,246.5,84.0,246.5,92.0,246.0,100.0,245.5,107.5,244.5,115.0,243.5,123.0,243.0,131.0,243.0,138.5,242.5,146.5,241.5,154.0,241.0,162.5,240.5,171.0,240.5,178.5,240.0" stroke="black" stroke-width="2" fill="none" />
<polyline points="146.5,164.5,138.5,164.0,130.5,164.5,122.5,164.5" stroke="black" stroke-width="2" fill="none" />
<polyline points="124.0,163.0,132.0,155.5" stroke="black" stroke-width="2" fill="none" />
<polyline points="125.0,159.0,123.0,167.0,123.5,174.5,123.5,182.5,126.5,196.0,130.0,204.0" stroke="black" stroke-width="2" fill="none" />
<polyline points="143.5,232.0,136.0,232.5,128.5,233.0,120.5,233.0,112.5,233.0,104.5,232.5,98.0,230.5,98.0,223.0,98.0,215.5" stroke="black" stroke-width="2" fill="none" />
<polyline points="77.0,229.5,85.0,228.5,93.0,228.0,101.0,228.0,109.0,228.5,117.0,228.0,125.0,228.5,133.0,227.5,141.0,227.0,148.5,226.5,157.0,225.5,165.0,225.0,172.0,224.5,180.0,223.5" stroke="black" stroke-width="2" fill="none" />
<polyline points="164.5,156.0,156.5,156.0,148.5,156.5,140.5,157.0,132.5,157.0,124.5,157.0,117.0,157.0,109.5,157.0" stroke="black" stroke-width="2" fill="none" />
<polyline points="107.5,151.0,115.5,150.0,124.0,149.0,132.5,148.5,141.0,148.5,149.0,148.0,157.0,147.0,165.0,147.0" stroke="black" stroke-width="2" fill="none" />
<polyline points="164.5,136.5,156.5,137.5,149.0,138.5,140.5,139.0,132.0,140.0,124.5,141.0,117.0,142.5,109.5,143.5" stroke="black" stroke-width="2" fill="none" />
<polyline points="106.0,141.5,114.0,142.0,122.0,141.0,130.0,141.0" stroke="black" stroke-width="2" fill="none" />
<polyline points="130.5,147.0,122.5,146.5,115.0,149.5,107.0,150.5" stroke="black" stroke-width="2" fill="none" />
<polyline points="106.5,149.0,114.0,148.5,123.0,150.5,130.5,149.5,138.5,148.0" stroke="black" stroke-width="2" fill="none" />
<polyline points="158.0,157.5,161.0,149.5,163.0,141.5,165.0,133.0,167.5,125.5,169.5,117.5,172.5,109.5,174.5,101.0,176.0,93.5,177.5,85.5,186.0,80.0,182.5,75.0,184.5,67.0,186.5,59.0,189.0,45.5,181.0,45.5" stroke="black" stroke-width="2" fill="none" />
<polyline points="180.5,47.5,192.0,51.5,200.5,59.5,202.5,67.5,203.0,75.5,203.5,83.0,204.0,91.0,204.0,99.0,204.0,107.0,205.0,115.5,212.0,115.5" stroke="black" stroke-width="2" fill="none" />
<polyline points="171.0,122.0,163.5,122.0,156.0,121.5,148.0,121.5,140.5,122.0,132.5,122.0,125.0,122.0,117.0,122.5,109.0,123.5,101.0,124.5" stroke="black" stroke-width="2" fill="none" />
<polyline points="100.0,130.5,108.0,129.5,115.5,128.5,123.0,128.5,131.0,128.5,135.0,129.5,138.5,137.5,138.5,145.0,134.0,146.0" stroke="black" stroke-width="2" fill="none" />
<polyline points="136.0,133.5,128.0,131.0,120.0,131.5,112.0,131.5,104.0,131.5" stroke="black" stroke-width="2" fill="none" />
<polyline points="101.5,137.0,109.5,140.5,118.0,141.0,126.0,140.5,134.0,139.0" stroke="black" stroke-width="2" fill="none" />
<polyline points="122.0,98.5,114.5,100.0,107.0,101.5,99.0,102.0" stroke="black" stroke-width="2" fill="none" />
<polyline points="83.0,109.5,75.0,117.0" stroke="black" stroke-width="2" fill="none" />
<polyline points="75.0,123.5,83.0,116.0" stroke="black" stroke-width="2" fill="none" />
<polyline points="84.0,122.5,76.5,129.5" stroke="black" stroke-width="2" fill="none" />
<polyline points="82.5,131.5,74.5,139.0" stroke="black" stroke-width="2" fill="none" />
<polyline points="67.5,141.5,75.0,141.0,83.0,140.0,91.0,139.5" stroke="black" stroke-width="2" fill="none" />
<polyline points="82.0,142.0,74.0,149.0,66.5,156.5" stroke="black" stroke-width="2" fill="none" />
<polyline points="66.5,152.0,75.0,152.0,83.0,151.0,91.0,149.5" stroke="black" stroke-width="2" fill="none" />
<polyline points="84.0,148.0,75.5,156.0" stroke="black" stroke-width="2" fill="none" />
<polyline points="51.5,155.0,43.0,162.5" stroke="black" stroke-width="2" fill="none" />
<polyline points="44.0,165.0,52.0,164.5" stroke="black" stroke-width="2" fill="none" />
<polyline points="49.0,163.5,41.0,171.0" stroke="black" stroke-width="2" fill="none" />
<polyline points="44.0,173.5,51.5,173.0,59.5,172.5" stroke="black" stroke-width="2" fill="none" />
<polyline points="61.0,178.5,53.0,186.0" stroke="black" stroke-width="2" fill="none" />
<polyline points="52.5,190.5,61.0,189.5,69.0,189.0" stroke="black" stroke-width="2" fill="none" />
<polyline points="74.0,189.5,82.5,188.5,90.5,188.0,98.0,187.5,106.0,187.0,114.5,186.5,122.5,185.5,130.5,185.0,138.5,184.5,146.5,184.0,154.5,183.5,162.5,183.5,170.5,183.0,178.5,183.5" stroke="black" stroke-width="2" fill="none" />
<polyline points="179.5,232.0,171.0,233.0,162.5,234.0,154.5,234.5,146.5,234.5,138.5,235.0,131.0,235.0,124.0,235.0,116.0,235.0,108.0,235.5,100.5,236.0,93.0,237.0,85.5,238.0,77.5,238.5" stroke="black" stroke-width="2" fill="none" />
<polyline points="69.0,215.0,77.5,214.5,86.0,214.0,94.0,213.5,102.0,212.5,110.0,211.5,117.5,211.5,125.0,210.5,132.5,209.5,140.5,208.5,148.5,207.5,156.0,207.0,164.5,206.5,172.5,206.5,180.5,207.0,188.0,207.0" stroke="black" stroke-width="2" fill="none" />
<polyline points="151.5,98.0,143.5,92.5" stroke="black" stroke-width="2" fill="none" />
<polyline points="139.5,96.5,147.0,105.0,154.5,106.5,162.5,104.0,171.0,97.0" stroke="black" stroke-width="2" fill="none" />
<polyline points="158.0,81.0,150.0,82.5" stroke="black" stroke-width="2" fill="none" />
<polyline points="150.0,79.5,144.0,87.5,148.5,96.0" stroke="black" stroke-width="2" fill="none" />
<polyline points="143.0,86.5,151.0,79.0,159.0,78.5,166.5,85.5,164.5,89.0,161.0,97.0" stroke="black" stroke-width="2" fill="none" />
<polyline points="163.0,96.5,167.0,88.5,169.0,78.5,161.0,73.5,153.0,72.5,144.5,74.5,136.5,84.5" stroke="black" stroke-width="2" fill="none" />
<polyline points="139.0,85.0,131.0,92.5" stroke="black" stroke-width="2" fill="none" />
<polyline points="126.5,94.0,127.5,101.5,123.5,109.5,121.0,117.5,119.5,119.5,127.5,103.0" stroke="black" stroke-width="2" fill="none" />
<polyline points="123.0,93.0,115.0,107.0,112.0,117.0,114.5,108.5,119.0,100.0,123.5,92.0" stroke="black" stroke-width="2" fill="none" />
<polyline points="123.5,86.5,131.0,86.0,139.0,85.5" stroke="black" stroke-width="2" fill="none" />
<polyline points="138.5,67.0,130.5,67.5" stroke="black" stroke-width="2" fill="none" />
<polyline points="139.0,64.0,147.0,61.0,155.5,60.5,163.5,61.5,172.0,61.5,180.0,60.5" stroke="black" stroke-width="2" fill="none" />
<polyline points="163.5,65.5,172.0,58.5,179.5,51.0,187.5,43.5,195.0,35.5" stroke="black" stroke-width="2" fill="none" />
<polyline points="196.5,33.5,188.5,33.5,180.5,33.5,172.5,34.0,164.5,34.5,156.0,34.5,147.0,34.5,138.5,35.0,130.5,35.5,122.0,35.5,114.0,35.0,106.0,35.0,97.5,35.0,89.0,35.5" stroke="black" stroke-width="2" fill="none" />
<polyline points="86.0,33.5,94.0,31.0,102.5,31.5,111.0,31.5,119.0,31.0,127.5,31.5,135.0,32.0,143.0,32.5,151.0,33.0,159.0,33.0,167.0,33.5,175.0,33.5,183.0,33.5,191.0,33.5,199.5,34.0,208.0,37.0,216.0,41.0,224.0,49.5" stroke="black" stroke-width="2" fill="none" />
<polyline points="230.5,72.0,222.5,61.5,214.5,46.5,206.5,41.0,198.5,37.5,190.5,40.5" stroke="black" stroke-width="2" fill="none" />
<polyline points="193.5,38.0,193.5,46.0,209.5,53.5,213.0,61.0,213.5,69.5,213.0,77.0,213.0,84.5,213.0,91.5,213.0,99.5,213.0,107.5" stroke="black" stroke-width="2" fill="none" />
<polyline points="159.5,100.5,170.0,98.5,173.0,90.5,172.0,82.0,163.0,74.0" stroke="black" stroke-width="2" fill="none" />
<polyline points="147.0,33.5,139.0,41.5,130.5,49.0,122.5,57.0,114.5,65.0" stroke="black" stroke-width="2" fill="none" />
<polyline points="114.5,66.5,122.5,74.0,124.0,81.5,117.5,89.5" stroke="black" stroke-width="2" fill="none" />
<polyline points="117.0,76.5,109.0,76.5" stroke="black" stroke-width="2" fill="none" />
<polyline points="108.0,72.5,106.0,80.5,106.0,87.5" stroke="black" stroke-width="2" fill="none" />
<polyline points="99.0,83.5,107.0,91.0,115.0,91.0,122.5,84.0" stroke="black" stroke-width="2" fill="none" />
<polyline points="114.0,75.0,106.5,73.0,110.5,73.5,109.5,81.0,102.0,82.0,102.0,74.5,115.0,72.5,107.0,71.5" stroke="black" stroke-width="2" fill="none" />
<polyline points="100.0,73.0,108.0,69.0,116.5,72.5,112.5,75.5,108.5,76.0,112.0,79.0,117.0,83.0" stroke="black" stroke-width="2" fill="none" />
<polyline points="128.5,71.0,120.5,60.0,112.5,57.5,105.0,57.5,97.0,61.5,89.5,67.0,83.5,76.0,75.5,79.0,67.5,79.0" stroke="black" stroke-width="2" fill="none" />
<polyline points="67.0,84.0,59.5,84.5" stroke="black" stroke-width="2" fill="none" />
<polyline points="59.5,77.0,67.0,77.0,75.0,76.5,83.0,75.5" stroke="black" stroke-width="2" fill="none" />
<polyline points="75.0,78.5,74.0,86.5,73.0,94.5,71.5,102.5,69.5,110.5,69.0,118.5,67.0,126.5,66.0,134.0,63.5,141.5,62.0,149.5,62.0,156.5,70.0,155.5,77.5,155.5,85.5,157.0" stroke="black" stroke-width="2" fill="none" />
<polyline points="82.5,131.5,74.0,132.5,66.5,133.0" stroke="black" stroke-width="2" fill="none" />
<polyline points="67.0,123.5,75.0,123.5,82.5,123.5" stroke="black" stroke-width="2" fill="none" />
<polyline points="82.5,107.5,74.5,107.0" stroke="black" stroke-width="2" fill="none" />
<polyline points="73.5,101.5,82.0,101.0" stroke="black" stroke-width="2" fill="none" />
<polyline points="82.5,93.0,74.0,94.0" stroke="black" stroke-width="2" fill="none" />
<polyline points="75.5,87.5,83.0,86.5" stroke="black" stroke-width="2" fill="none" />
<polyline points="65.5,102.5,57.5,102.5" stroke="black" stroke-width="2" fill="none" />
<polyline points="58.0,94.5,66.5,94.0" stroke="black" stroke-width="2" fill="none" />
<polyline points="67.0,110.5,59.0,111.5" stroke="black" stroke-width="2" fill="none" />
<polyline points="66.0,115.5,73.5,114.5,81.5,115.0" stroke="black" stroke-width="2" fill="none" />
<polyline points="60.5,126.5,52.5,127.5" stroke="black" stroke-width="2" fill="none" />
<polyline points="51.0,132.0,43.0,132.5" stroke="black" stroke-width="2" fill="none" />
<polyline points="42.0,138.5,50.5,118.0" stroke="black" stroke-width="2" fill="none" />
<polyline points="51.0,118.0,59.5,117.5" stroke="black" stroke-width="2" fill="none" />
<polyline points="58.5,114.0,50.5,133.5" stroke="black" stroke-width="2" fill="none" />
<polyline points="53.0,140.0,45.0,147.5" stroke="black" stroke-width="2" fill="none" />
<polyline points="44.0,147.5,52.5,147.0" stroke="black" stroke-width="2" fill="none" />
<polyline points="52.5,148.0,45.0,155.5" stroke="black" stroke-width="2" fill="none" />
<polyline points="44.0,156.5,52.0,156.0" stroke="black" stroke-width="2" fill="none" />
<polyline points="51.5,170.0,59.5,187.0,67.5,197.0" stroke="black" stroke-width="2" fill="none" />
<polyline points="66.5,193.5,58.5,201.5" stroke="black" stroke-width="2" fill="none" />
<polyline points="60.5,196.0,52.5,196.5" stroke="black" stroke-width="2" fill="none" />
<polyline points="52.5,194.5,60.5,187.0" stroke="black" stroke-width="2" fill="none" />
<polyline points="52.0,171.5,44.5,178.5" stroke="black" stroke-width="2" fill="none" />
<polyline points="44.0,179.0,52.0,195.0,60.5,205.5,68.5,212.0" stroke="black" stroke-width="2" fill="none" />
<polyline points="58.0,180.5,49.5,181.0,41.5,181.5" stroke="black" stroke-width="2" fill="none" />
<polyline points="43.0,139.0,51.5,139.0" stroke="black" stroke-width="2" fill="none" />
<polyline points="60.0,69.0,68.0,68.5,75.5,68.5,83.5,68.0,91.5,67.5,99.5,67.0" stroke="black" stroke-width="2" fill="none" />
<polyline points="101.0,66.0,108.5,58.5,116.0,51.5,124.5,44.0,132.0,36.0" stroke="black" stroke-width="2" fill="none" />
<polyline points="139.0,36.0,131.0,43.5,123.5,51.0,116.0,58.5" stroke="black" stroke-width="2" fill="none" />
<polyline points="117.0,57.5,126.5,65.5,128.0,73.5,131.0,76.5,138.5,74.0,146.5,71.5,154.0,71.5,162.5,72.0,170.5,75.0,179.0,78.5" stroke="black" stroke-width="2" fill="none" />
<polyline points="187.5,45.0,180.0,44.5,171.5,45.0,163.0,46.0,154.5,46.0,146.0,46.5,138.0,47.0,129.5,47.5,121.5,48.5,113.5,49.5,105.5,50.5,97.5,51.0,90.5,51.5,82.5,51.5,75.0,52.0,67.0,52.5,58.5,52.5" stroke="black" stroke-width="2" fill="none" />
<polyline points="68.0,49.5,76.0,49.5,84.0,51.0" stroke="black" stroke-width="2" fill="none" />
<polyline points="78.5,51.0,86.0,55.0,89.0,63.0,88.0,69.5,78.5,78.0,79.5,86.5,80.5,94.5,79.0,102.5,82.5,103.5,83.5,112.0,84.5,120.0,85.5,128.0,87.0,136.5,88.0,144.5,88.5,152.5" stroke="black" stroke-width="2" fill="none" />
<polyline points="75.5,69.0,74.5,69.0,82.0,61.5,76.5,58.5,68.5,61.5" stroke="black" stroke-width="2" fill="none" />
<polyline points="68.0,59.5,68.5,68.0,70.0,56.5,78.0,57.5" stroke="black" stroke-width="2" fill="none" />
<polyline points="72.0,58.0,75.0,66.0" stroke="black" stroke-width="2" fill="none" />
<polyline points="74.0,67.0,66.0,67.0,64.5,64.0,70.5,56.0" stroke="black" stroke-width="2" fill="none" />
<polyline points="67.0,37.0,75.5,36.5" stroke="black" stroke-width="2" fill="none" />
<polyline points="76.0,30.5,83.5,30.0" stroke="black" stroke-width="2" fill="none" />
<polyline points="87.0,31.5,88.5,39.0,90.0,47.0,91.0,55.0,91.0,57.5,100.0,56.5,107.5,54.5,115.5,55.0,123.0,58.0,131.0,66.0,139.5,70.0,147.5,69.0,155.5,68.0,163.5,69.0,171.0,70.5,179.0,74.5" stroke="black" stroke-width="2" fill="none" />
<polyline points="196.5,38.5,212.0,46.0,219.0,54.0,222.5,61.5,225.5,69.0" stroke="black" stroke-width="2" fill="none" />
<polyline points="230.0,66.5,227.0,58.5,224.0,50.5,217.0,42.5,202.0,34.5" stroke="black" stroke-width="2" fill="none" />
<polyline points="187.5,3.0,179.5,4.0,172.0,4.5,164.0,4.5,156.0,5.0,148.0,5.5,140.0,5.5" stroke="black" stroke-width="2" fill="none" />
<polyline points="132.5,11.5,124.5,11.5,117.0,12.0,109.5,12.0" stroke="black" stroke-width="2" fill="none" />
<polyline points="98.5,19.0,90.5,19.5,82.5,20.0" stroke="black" stroke-width="2" fill="none" />
<polyline points="85.5,15.5,69.5,23.5,71.0,17.0,79.0,13.0,87.0,9.5,95.0,7.0,103.0,5.5,110.5,3.0" stroke="black" stroke-width="2" fill="none" />
<polyline points="97.5,4.0,89.5,6.5,82.0,9.5,74.0,12.0,66.0,17.0,58.0,21.5,58.0,21.0,70.0,13.0,88.0,4.5" stroke="black" stroke-width="2" fill="none" />
<polyline points="87.5,8.0,70.5,16.0,61.5,23.5,65.5,26.5,62.5,29.5,70.0,23.5,77.5,20.0,85.5,16.0,93.0,14.0,101.0,12.0,109.0,10.0,117.0,8.0,125.5,6.5,133.5,5.0,141.5,3.0,149.0,3.0,159.0,6.0,167.5,6.0,175.0,3.0,183.0,4.5,190.5,6.5,199.0,10.5,207.5,14.5,215.5,20.5,224.0,29.5,232.5,43.0" stroke="black" stroke-width="2" fill="none" />
<polyline points="116.0,35.0,108.5,42.5,100.5,49.5,92.5,57.0" stroke="black" stroke-width="2" fill="none" />
<polyline points="105.0,64.5,96.0,73.0,96.0,81.0,99.0,89.0,110.0,88.0" stroke="black" stroke-width="2" fill="none" />
<polyline points="115.0,39.0,106.5,39.0,98.0,39.5,90.0,40.0" stroke="black" stroke-width="2" fill="none" />
<polyline points="95.0,23.5,80.0,31.5,72.0,39.5,68.0,47.5,62.0,55.0,70.0,53.0,73.5,39.0,81.5,31.0,89.5,27.0,98.0,23.5,106.5,20.5,114.5,18.5,122.0,16.5,129.5,14.0,137.5,12.0,145.5,10.0,153.5,9.5,161.0,9.5,168.5,10.0,176.5,10.0,184.5,12.5,192.5,14.5,201.0,18.0,209.0,23.0,217.5,29.5,225.5,40.5" stroke="black" stroke-width="2" fill="none" />
<polyline points="183.0,9.0,175.0,8.0,166.0,4.5,158.0,4.0,150.0,7.0,142.0,8.0,134.0,9.0,129.0,10.0,123.0,9.0,114.5,11.0,106.5,13.0,98.5,16.0,90.0,18.0,82.0,20.0,74.0,24.0,66.0,28.0,76.5,22.0" stroke="black" stroke-width="2" fill="none" />
<polyline points="67.0,22.5,58.5,23.5" stroke="black" stroke-width="2" fill="none" />
<polyline points="55.0,68.0,63.0,74.0,71.0,75.0,67.0,81.0,65.0,89.5,64.0,98.0,63.0,106.0,61.0,114.0,58.0,122.0,54.0,130.0,52.0,137.5,50.0,146.0,49.5,154.0,50.5,161.5,51.5,169.5,55.5,177.0,58.5,184.5,64.0,193.0,73.0,202.0,74.0,210.0" stroke="black" stroke-width="2" fill="none" />
</svg>