<svg xmlns="http://www.w3.org/2000/svg" version="1.1"><polyline points="57.5,2.5,58.5,10.5,56.5,18.5,57.0,26.5,57.0,34.5,57.5,42.5,56.5,50.5,57.5,59.0,57.5,67.0" stroke="black" stroke-width="2" fill="none" />
<polyline points="61.0,66.0,53.0,73.5" stroke="black" stroke-width="2" fill="none" />
<polyline points="44.0,73.0,52.0,65.5,60.5,58.0" stroke="black" stroke-width="2" fill="none" />
<polyline points="52.5,50.0,60.0,42.0" stroke="black" stroke-width="2" fill="none" />
<polyline points="51.0,26.5,59.5,19.5" stroke="black" stroke-width="2" fill="none" />
<polyline points="50.0,16.5,58.5,9.0" stroke="black" stroke-width="2" fill="none" />
<polyline points="52.5,9.0,60.5,1.5" stroke="black" stroke-width="2" fill="none" />
<polyline points="33.5,5.0,26.0,12.0" stroke="black" stroke-width="2" fill="none" />
<polyline points="27.0,19.0,34.5,11.5" stroke="black" stroke-width="2" fill="none" />
<polyline points="26.0,4.5,18.5,12.5,10.5,19.5,2.5,27.0" stroke="black" stroke-width="2" fill="none" />
<polyline points="2.0,29.0,10.0,28.5,18.0,28.5,26.5,28.0,35.0,27.5,43.0,27.0,51.0,27.0,59.5,26.5" stroke="black" stroke-width="2" fill="none" />
<polyline points="35.0,36.5,27.0,43.5" stroke="black" stroke-width="2" fill="none" />
<polyline points="20.5,43.5,13.0,50.5,4.5,58.0" stroke="black" stroke-width="2" fill="none" />
<polyline points="3.0,56.5,11.0,56.0" stroke="black" stroke-width="2" fill="none" />
<polyline points="4.5,61.5,13.0,60.5,21.5,60.0,29.5,59.0,38.0,58.0,46.0,57.5,54.0,57.5,61.5,57.0" stroke="black" stroke-width="2" fill="none" />
<polyline points="67.0,67.5,59.0,67.5,51.0,67.5,43.0,68.0,35.0,69.0,27.0,70.0" stroke="black" stroke-width="2" fill="none" />
<polyline points="25.5,71.0,24.5,79.5,13.0,79.5,18.0,87.0,9.5,89.5,13.0,97.0,16.5,97.0,19.5,104.5,14.0,106.5,15.0,114.5,22.5,112.5,30.5,101.0,37.0,97.5,45.0,89.5" stroke="black" stroke-width="2" fill="none" />
<polyline points="39.5,94.0,34.5,102.0,24.5,104.0" stroke="black" stroke-width="2" fill="none" />
<polyline points="34.5,103.0,42.0,103.0" stroke="black" stroke-width="2" fill="none" />
<polyline points="35.0,106.5,27.0,114.0,19.5,122.0,11.5,130.0,3.5,137.5" stroke="black" stroke-width="2" fill="none" />
<polyline points="5.0,137.5,12.5,137.0,20.5,137.0,28.5,136.5,36.5,136.0,44.0,135.5" stroke="black" stroke-width="2" fill="none" />
<polyline points="43.0,131.0,35.0,138.5,27.0,146.0,19.0,154.0,12.0,162.0,4.0,170.0" stroke="black" stroke-width="2" fill="none" />
<polyline points="3.0,166.5,11.5,166.0,20.0,165.5,28.0,165.0,36.5,164.5,44.0,164.0,52.0,163.0,59.5,162.0,67.5,161.0,75.5,160.5" stroke="black" stroke-width="2" fill="none" />
<polyline points="60.5,162.5,52.0,170.0" stroke="black" stroke-width="2" fill="none" />
<polyline points="48.5,169.5,58.5,172.5,59.5,181.0,59.5,189.0,67.5,193.5,69.5,191.5,68.5,199.5,72.5,211.0,72.5,220.0,72.5,228.0,72.5,235.5,71.5,243.5,71.0,251.5" stroke="black" stroke-width="2" fill="none" />
<polyline points="70.0,237.0,78.0,236.5" stroke="black" stroke-width="2" fill="none" />
<polyline points="74.5,241.0,66.5,241.5,58.5,242.5,51.0,243.0,43.0,243.5,35.5,244.0,28.0,244.0,20.5,244.5,12.5,245.0,4.5,245.0" stroke="black" stroke-width="2" fill="none" />
<polyline points="2.5,243.5,10.0,235.5,17.0,227.5,24.5,220.0" stroke="black" stroke-width="2" fill="none" />
<polyline points="20.0,221.5,12.0,228.5,3.5,235.0" stroke="black" stroke-width="2" fill="none" />
<polyline points="3.5,237.5,11.5,237.0,19.0,236.5,26.5,236.0,34.5,235.5,42.5,235.5,50.5,235.0,59.0,234.5" stroke="black" stroke-width="2" fill="none" />
<polyline points="62.5,232.5,65.5,236.5" stroke="black" stroke-width="2" fill="none" />
<polyline points="53.5,250.0,45.5,258.0" stroke="black" stroke-width="2" fill="none" />
<polyline points="34.5,253.0,27.0,260.5" stroke="black" stroke-width="2" fill="none" />
<polyline points="17.0,259.5,25.0,252.0,33.0,244.5" stroke="black" stroke-width="2" fill="none" />
<polyline points="24.5,246.0,17.0,253.5,10.0,260.5" stroke="black" stroke-width="2" fill="none" />
<polyline points="4.0,257.5,12.0,257.0,19.5,256.0,27.0,255.5" stroke="black" stroke-width="2" fill="none" />
<polyline points="24.5,237.0,17.0,244.5,9.5,252.0,2.0,259.0" stroke="black" stroke-width="2" fill="none" />
<polyline points="4.5,253.5,12.5,253.0,20.0,252.0,27.5,251.5,35.5,251.5,43.5,251.5,51.0,251.0,58.5,250.5,65.5,250.0,73.5,250.0,82.0,249.0,90.0,248.0" stroke="black" stroke-width="2" fill="none" />
<polyline points="84.5,240.0,92.0,232.0,100.0,224.0" stroke="black" stroke-width="2" fill="none" />
<polyline points="111.5,229.5,112.5,238.0,102.5,241.0,97.5,246.0" stroke="black" stroke-width="2" fill="none" />
<polyline points="100.5,254.0,105.0,247.5,107.0,239.5" stroke="black" stroke-width="2" fill="none" />
<polyline points="116.0,238.5,124.5,237.5,132.0,236.5,140.5,235.5,148.5,234.5,156.5,234.0,165.0,233.5,173.0,232.5,180.5,232.5,187.5,232.0" stroke="black" stroke-width="2" fill="none" />
<polyline points="191.0,233.0,190.0,241.0,187.0,249.5,189.0,255.0" stroke="black" stroke-width="2" fill="none" />
<polyline points="203.0,255.0,210.5,254.5" stroke="black" stroke-width="2" fill="none" />
<polyline points="227.0,254.0,234.5,254.0,242.5,253.5" stroke="black" stroke-width="2" fill="none" />
<polyline points="251.0,255.0,259.0,254.5" stroke="black" stroke-width="2" fill="none" />
<polyline points="252.5,235.0,244.0,235.5" stroke="black" stroke-width="2" fill="none" />
<polyline points="243.5,228.5,251.5,227.5" stroke="black" stroke-width="2" fill="none" />
<polyline points="246.5,219.5,254.0,216.5,257.0,216.0,252.0,217.0,252.0,225.0,255.5,228.5,254.5,232.0,253.5,240.0,254.0,249.5" stroke="black" stroke-width="2" fill="none" />
<polyline points="233.5,244.5,226.0,245.0" stroke="black" stroke-width="2" fill="none" />
<polyline points="227.5,244.5,219.5,235.5" stroke="black" stroke-width="2" fill="none" />
<polyline points="225.5,231.0,217.5,223.0" stroke="black" stroke-width="2" fill="none" />
<polyline points="212.5,222.0,220.0,222.0,228.0,221.0,230.5,233.0,234.5,241.0,235.0,249.0,241.0,250.0" stroke="black" stroke-width="2" fill="none" />
<polyline points="246.5,237.5,246.0,229.5,247.0,221.5,243.5,218.0,246.5,210.0,236.5,205.0" stroke="black" stroke-width="2" fill="none" />
<polyline points="222.5,203.0,224.5,202.0,223.0,210.0,229.0,218.0,232.5,225.5,234.5,234.0,236.5,235.0,245.0,229.0,253.0,219.0" stroke="black" stroke-width="2" fill="none" />
<polyline points="253.0,213.5,260.5,213.5" stroke="black" stroke-width="2" fill="none" />
<polyline points="254.0,189.5,246.0,191.0" stroke="black" stroke-width="2" fill="none" />
<polyline points="228.0,192.0,234.0,197.0,236.0,205.0,233.0,209.5,230.5,215.0,239.5,223.5,235.0,226.5,242.5,232.5,240.5,240.5,245.0,246.5,247.5,243.5,250.5,251.5,241.0,252.5,245.0,256.5,254.0,254.0" stroke="black" stroke-width="2" fill="none" />
<polyline points="245.0,239.0,237.0,241.0,229.5,246.5,221.5,246.5,221.5,239.0,210.5,233.0" stroke="black" stroke-width="2" fill="none" />
<polyline points="209.0,237.5,217.5,235.5,216.0,240.5,220.0,248.5,215.0,253.0" stroke="black" stroke-width="2" fill="none" />
<polyline points="212.0,251.0,207.0,247.0,196.0,248.0,195.0,240.5,193.0,232.5,194.0,226.5,196.5,226.0" stroke="black" stroke-width="2" fill="none" />
<polyline points="189.0,225.0,181.0,225.0,173.0,225.0,165.0,225.5,157.0,226.0,149.0,226.5,140.5,227.0,132.5,227.5,125.0,228.5,117.5,229.0" stroke="black" stroke-width="2" fill="none" />
<polyline points="123.0,227.0,130.5,219.0" stroke="black" stroke-width="2" fill="none" />
<polyline points="130.5,212.5,123.5,218.5,132.0,212.5,140.5,207.5,149.0,202.0,158.5,196.0,166.5,190.0,175.0,186.0,183.5,181.0" stroke="black" stroke-width="2" fill="none" />
<polyline points="189.5,192.0,188.5,200.0,184.5,208.0,181.5,216.5,179.0,225.0,181.0,233.0,175.5,244.0,173.5,252.0" stroke="black" stroke-width="2" fill="none" />
<polyline points="172.5,251.5,164.5,259.5" stroke="black" stroke-width="2" fill="none" />
<polyline points="156.0,259.5,163.5,252.5,171.5,245.0" stroke="black" stroke-width="2" fill="none" />
<polyline points="170.5,237.5,163.0,244.5,155.5,251.5" stroke="black" stroke-width="2" fill="none" />
<polyline points="147.0,249.5,139.0,257.5" stroke="black" stroke-width="2" fill="none" />
<polyline points="141.5,252.0,133.5,260.0" stroke="black" stroke-width="2" fill="none" />
<polyline points="124.0,260.0,132.0,252.0,140.0,244.5" stroke="black" stroke-width="2" fill="none" />
<polyline points="141.0,237.0,133.0,244.5,124.5,252.0" stroke="black" stroke-width="2" fill="none" />
<polyline points="121.0,252.0,129.5,251.5" stroke="black" stroke-width="2" fill="none" />
<polyline points="123.0,248.0,131.0,248.0,139.0,247.5,147.0,246.5,155.0,245.5,163.5,245.0,171.0,244.0,178.5,243.5,186.5,242.5" stroke="black" stroke-width="2" fill="none" />
<polyline points="195.5,239.0,203.5,236.5,211.5,243.0" stroke="black" stroke-width="2" fill="none" />
<polyline points="208.5,237.5,207.5,245.0,205.0,250.5,209.0,250.5" stroke="black" stroke-width="2" fill="none" />
<polyline points="196.0,249.5,187.5,251.0,179.0,251.5,171.0,251.5,162.5,252.0,154.0,252.5,145.5,253.0,137.0,253.5,129.0,254.0,121.0,254.5" stroke="black" stroke-width="2" fill="none" />
<polyline points="124.5,244.5,132.5,237.0,140.5,229.5" stroke="black" stroke-width="2" fill="none" />
<polyline points="146.0,233.0,145.0,230.0,144.5,222.0" stroke="black" stroke-width="2" fill="none" />
<polyline points="142.0,221.0,141.5,229.0,141.5,237.0,138.5,244.0,140.5,251.5" stroke="black" stroke-width="2" fill="none" />
<polyline points="130.0,241.0,122.0,242.0" stroke="black" stroke-width="2" fill="none" />
<polyline points="122.0,234.0,129.5,233.0" stroke="black" stroke-width="2" fill="none" />
<polyline points="130.5,228.5,138.5,217.5,147.0,210.5,155.0,203.5,163.5,197.5,171.5,191.5,176.5,187.5,171.5,195.5,167.5,203.5,166.5,211.5,163.5,219.5,162.5,227.5,163.0,235.5,160.0,238.0,157.0,248.0" stroke="black" stroke-width="2" fill="none" />
<polyline points="162.5,236.5,170.5,228.5" stroke="black" stroke-width="2" fill="none" />
<polyline points="161.5,240.0,169.5,232.0,173.5,224.0,175.5,216.0,175.5,208.0,180.5,198.0,184.0,190.0,175.0,192.5" stroke="black" stroke-width="2" fill="none" />
<polyline points="172.0,196.0,164.0,197.0,156.0,198.0" stroke="black" stroke-width="2" fill="none" />
<polyline points="157.0,206.5,165.0,203.5,163.5,210.5,156.5,210.5,155.5,218.5,154.5,226.5,154.5,234.5,155.5,242.5,152.5,250.5" stroke="black" stroke-width="2" fill="none" />
<polyline points="119.5,249.5,117.5,255.5,120.5,247.5,112.5,247.5,117.5,236.5,130.0,229.5,134.5,222.0,142.5,214.0,153.5,206.0,162.5,198.0,172.0,190.0,169.0,197.0,169.0,205.5" stroke="black" stroke-width="2" fill="none" />
<polyline points="168.5,210.5,176.5,209.5,176.5,205.0" stroke="black" stroke-width="2" fill="none" />
<polyline points="178.5,203.0,170.5,203.5,163.0,204.5,154.5,205.0,146.5,205.5,138.5,206.0" stroke="black" stroke-width="2" fill="none" />
<polyline points="147.5,211.5,139.0,219.0,130.5,226.0,123.0,233.5" stroke="black" stroke-width="2" fill="none" />
<polyline points="117.0,218.5,125.0,218.5,132.5,218.5,140.5,218.5,148.5,218.5,156.5,218.0,164.5,218.0,173.0,217.5,181.0,217.5,188.5,217.5" stroke="black" stroke-width="2" fill="none" />
<polyline points="188.5,218.5,201.5,214.5,207.5,208.5,215.5,208.5,221.5,217.0" stroke="black" stroke-width="2" fill="none" />
<polyline points="217.5,210.0,213.5,210.0,214.5,217.5,213.5,225.5,208.0,226.5,197.0,227.5,198.0,235.0,201.5,247.5" stroke="black" stroke-width="2" fill="none" />
<polyline points="194.5,257.0,188.0,257.0,179.5,253.0,182.0,245.0,187.0,240.0,189.5,232.0,194.0,223.5,199.0,215.5,203.5,207.5,211.5,199.5,222.5,191.5,224.0,193.5,216.0,200.5" stroke="black" stroke-width="2" fill="none" />
<polyline points="219.5,197.0,216.0,205.0,206.5,211.5,200.5,219.5,204.5,224.0,205.5,232.0,203.0,239.5,196.5,244.0,197.0,247.5,199.0,255.0" stroke="black" stroke-width="2" fill="none" />
<polyline points="205.5,231.5,213.5,230.5,225.5,223.5,227.5,232.0,227.0,224.0,233.0,217.5,241.0,216.5,241.5,213.5,245.5,207.5,253.5,210.5" stroke="black" stroke-width="2" fill="none" />
<polyline points="251.5,172.0,243.0,172.0,235.0,172.5,226.5,172.5,218.0,172.5,209.0,172.5" stroke="black" stroke-width="2" fill="none" />
<polyline points="210.0,166.5,218.0,166.5,226.0,165.5,234.0,165.0,242.5,165.0,250.5,165.0" stroke="black" stroke-width="2" fill="none" />
<polyline points="236.5,162.0,228.5,170.0" stroke="black" stroke-width="2" fill="none" />
<polyline points="227.5,163.0,235.5,161.0" stroke="black" stroke-width="2" fill="none" />
<polyline points="227.5,162.5,219.5,170.0" stroke="black" stroke-width="2" fill="none" />
<polyline points="220.5,169.0,228.0,168.5,235.5,168.5" stroke="black" stroke-width="2" fill="none" />
<polyline points="230.0,161.5,222.0,162.0" stroke="black" stroke-width="2" fill="none" />
<polyline points="218.5,161.0,226.5,153.0" stroke="black" stroke-width="2" fill="none" />
<polyline points="234.5,149.0,242.5,148.5" stroke="black" stroke-width="2" fill="none" />
<polyline points="239.5,149.5,242.0,150.5,239.0,158.5,242.0,158.5" stroke="black" stroke-width="2" fill="none" />
<polyline points="250.0,156.0,242.0,156.0,234.0,156.5,225.5,157.0,217.0,157.0,208.5,157.5" stroke="black" stroke-width="2" fill="none" />
<polyline points="209.0,149.0,217.0,149.0,225.0,149.0" stroke="black" stroke-width="2" fill="none" />
<polyline points="221.5,142.5,229.5,142.0" stroke="black" stroke-width="2" fill="none" />
<polyline points="234.5,142.0,243.0,141.0,251.5,140.0" stroke="black" stroke-width="2" fill="none" />
<polyline points="255.5,138.5,249.5,138.0,247.5,137.0,239.5,144.0,233.5,156.0,232.5,153.0,229.5,156.5,234.0,148.5,235.0,140.5,234.5,127.5,231.5,119.5,231.5,111.0,229.0,117.0,231.5,110.5" stroke="black" stroke-width="2" fill="none" />
<polyline points="226.5,114.0,234.5,108.0,242.5,111.5,249.0,108.5,243.0,121.0,246.0,130.0,241.0,137.5,240.0,140.0,231.0,142.0,224.5,148.0,227.5,155.5,236.0,166.0,239.5,175.0,245.0,173.0,246.5,161.5,255.5,152.5,255.0,160.5,251.0,168.5,254.0,173.0,250.5,175.0" stroke="black" stroke-width="2" fill="none" />
<polyline points="250.0,162.0,245.0,174.0,247.5,168.0,246.5,164.5,248.5,157.0,252.5,157.5,256.5,150.5,256.0,142.5,248.5,144.5" stroke="black" stroke-width="2" fill="none" />
<polyline points="251.0,144.5,250.5,152.5,246.0,160.5,242.5,168.5,236.0,167.0" stroke="black" stroke-width="2" fill="none" />
<polyline points="236.5,174.0,228.5,174.0,220.0,176.0,212.0,174.5,208.0,181.5,200.0,187.5,192.0,188.5,192.5,196.5,188.5,191.5,185.5,188.5,181.5,202.5,177.5,215.5,169.5,231.5,163.5,237.0,165.0,229.0,167.0,221.5,169.0,213.5,170.5,205.5,173.5,198.0,178.5,195.0,179.5,196.5" stroke="black" stroke-width="2" fill="none" />
<polyline points="187.5,209.0,179.5,210.0,172.0,211.0,163.5,212.0,155.5,212.0,147.0,212.5,139.0,212.5,130.5,213.5,122.5,214.0" stroke="black" stroke-width="2" fill="none" />
<polyline points="106.5,212.0,106.5,220.0,114.5,225.0,117.5,233.0,119.5,241.0,107.5,243.0,105.0,245.0,99.0,253.0,88.0,252.0,92.0,253.0,98.5,248.0,104.0,246.0,111.5,240.0,114.5,243.5,116.5,249.0" stroke="black" stroke-width="2" fill="none" />
<polyline points="158.5,231.5,157.0,224.5,157.0,217.5" stroke="black" stroke-width="2" fill="none" />
<polyline points="152.5,211.0,161.5,209.5,160.5,217.0,160.5,224.5,159.0,232.5,160.0,240.5" stroke="black" stroke-width="2" fill="none" />
<polyline points="150.0,252.5,150.0,244.5,151.0,236.5,149.0,229.5,152.0,221.5,150.5,211.5" stroke="black" stroke-width="2" fill="none" />
<polyline points="149.0,215.0,145.0,214.5,139.5,223.0,139.5,231.0,139.5,239.5,135.5,239.5,136.0,247.5,137.0,249.0" stroke="black" stroke-width="2" fill="none" />
<polyline points="184.5,210.5,186.5,200.5,192.5,200.0,201.5,188.0,210.0,185.0,218.5,187.5,227.5,181.5,236.0,181.0" stroke="black" stroke-width="2" fill="none" />
<polyline points="236.0,186.5,233.0,185.0,225.5,189.0,217.5,193.0,209.5,200.5,201.5,209.0,198.5,219.0,192.5,228.0,186.0,221.0,192.0,214.0,197.5,206.5,203.5,199.5,212.5,192.0,211.5,187.0,203.5,195.5" stroke="black" stroke-width="2" fill="none" />
<polyline points="202.5,188.5,198.5,196.5,196.0,205.5,189.5,213.5,189.0,221.5,184.5,229.5,180.0,237.5,178.0,245.5,175.0,253.5,182.5,246.0,185.5,236.0" stroke="black" stroke-width="2" fill="none" />
<polyline points="204.5,225.0,216.5,221.0,223.0,229.0,229.0,237.0,227.0,245.0,228.0,251.5,231.0,254.5,236.5,254.5,243.5,244.5,246.0,256.0,254.5,248.0,256.0,243.5" stroke="black" stroke-width="2" fill="none" />
<polyline points="231.5,177.5,223.5,179.5,221.5,184.5,211.5,187.5,205.5,196.0,199.0,201.0,191.0,204.5,187.5,209.5,183.0,217.5,183.0,225.0,177.5,229.0,174.0,238.0,173.0,246.0,169.0,249.0,171.5,251.5" stroke="black" stroke-width="2" fill="none" />
<polyline points="148.0,247.5,142.5,244.0,135.5,239.0,128.5,235.0,118.5,239.0,112.5,234.0,104.5,236.0,103.5,242.0,91.5,251.5,79.5,256.5,80.5,248.5,87.0,240.0,96.0,232.0,96.5,224.0,87.5,221.5,92.0,219.5,90.0,213.0,82.0,211.0,83.0,202.5,84.0,194.5" stroke="black" stroke-width="2" fill="none" />
<polyline points="82.5,196.5,80.5,205.0,81.5,202.5,90.5,196.5" stroke="black" stroke-width="2" fill="none" />
<polyline points="90.0,198.5,91.5,206.5,99.0,208.5,97.0,216.0,95.0,220.5,99.0,207.0" stroke="black" stroke-width="2" fill="none" />
<polyline points="88.0,196.5,87.0,205.0,86.5,212.5,80.5,220.5,83.5,222.5,80.5,231.0,84.5,238.5,77.0,246.0,75.0,254.0" stroke="black" stroke-width="2" fill="none" />
<polyline points="60.0,224.5,51.5,224.5,43.5,225.5,35.5,226.0,27.0,226.5,19.0,227.5,11.0,228.5,3.0,230.0" stroke="black" stroke-width="2" fill="none" />
<polyline points="1.5,232.5,10.0,232.5" stroke="black" stroke-width="2" fill="none" />
<polyline points="11.5,225.0,3.0,225.5" stroke="black" stroke-width="2" fill="none" />
<polyline points="2.5,227.0,10.5,219.0,19.0,211.5" stroke="black" stroke-width="2" fill="none" />
<polyline points="19.5,202.0,11.0,209.5,3.0,217.5" stroke="black" stroke-width="2" fill="none" />
<polyline points="4.0,215.0,11.5,214.5,19.5,213.5,27.5,212.5,35.0,211.5,42.5,211.0,50.5,209.5,58.0,209.0" stroke="black" stroke-width="2" fill="none" />
<polyline points="64.5,205.0,72.0,201.0,75.5,192.0" stroke="black" stroke-width="2" fill="none" />
<polyline points="74.5,182.5,84.5,193.5,77.5,201.5,78.5,209.5,75.0,217.5,75.0,224.5,76.0,232.5,75.0,240.5" stroke="black" stroke-width="2" fill="none" />
<polyline points="58.5,217.5,50.5,218.0,42.0,218.5,34.0,219.5,26.5,220.0,18.5,220.5,10.5,220.5,2.5,221.0" stroke="black" stroke-width="2" fill="none" />
<polyline points="3.5,210.5,11.5,202.5,20.0,194.5" stroke="black" stroke-width="2" fill="none" />
<polyline points="21.0,189.5,13.0,197.0,5.0,203.5" stroke="black" stroke-width="2" fill="none" />
<polyline points="3.5,205.5,10.5,205.0,18.5,204.5,26.5,203.5,34.5,203.0,42.5,201.5,50.5,201.5" stroke="black" stroke-width="2" fill="none" />
<polyline points="51.0,182.5,59.0,182.5" stroke="black" stroke-width="2" fill="none" />
<polyline points="56.0,172.0,64.0,172.0,65.5,184.0,65.5,192.0,64.5,200.0,63.5,208.0,65.5,209.0,63.5,217.0,64.0,225.0,64.0,231.0,62.0,239.5" stroke="black" stroke-width="2" fill="none" />
<polyline points="67.0,239.5,67.0,231.0,69.0,223.0,68.5,214.5,69.5,206.5,72.0,197.0,75.5,189.0,81.0,188.0,73.5,174.0,71.5,179.0" stroke="black" stroke-width="2" fill="none" />
<polyline points="58.5,170.0,51.5,171.5,44.0,172.5,36.0,173.5,28.0,174.0,20.0,174.5,11.5,174.5,4.0,175.0" stroke="black" stroke-width="2" fill="none" />
<polyline points="4.5,177.0,12.0,169.0,20.0,161.0,27.5,153.5,35.5,146.0,43.5,138.5,51.5,130.5" stroke="black" stroke-width="2" fill="none" />
<polyline points="52.5,131.0,44.5,131.0,36.5,131.5,28.5,131.5,20.0,131.5,12.0,132.5,4.0,133.0" stroke="black" stroke-width="2" fill="none" />
<polyline points="4.5,129.0,12.5,122.0,21.0,114.5" stroke="black" stroke-width="2" fill="none" />
<polyline points="25.0,121.5,33.0,121.0" stroke="black" stroke-width="2" fill="none" />
<polyline points="36.0,117.0,27.5,124.5,19.0,131.0,11.0,138.0,3.0,145.5" stroke="black" stroke-width="2" fill="none" />
<polyline points="4.5,144.0,12.5,143.5,20.0,143.0,28.0,143.0,35.5,143.0,43.5,142.5" stroke="black" stroke-width="2" fill="none" />
<polyline points="52.5,137.5,44.5,145.5,36.0,153.0,28.5,161.0" stroke="black" stroke-width="2" fill="none" />
<polyline points="27.5,160.0,35.5,160.0,44.0,163.5,52.0,166.0,49.5,171.0,51.5,179.5,53.0,187.5,54.0,195.0,60.0,199.0,59.5,208.0,58.5,216.0,57.5,224.0,59.5,228.5,57.5,236.5,63.0,241.0,67.0,249.0" stroke="black" stroke-width="2" fill="none" />
<polyline points="48.5,225.5,40.5,220.5" stroke="black" stroke-width="2" fill="none" />
<polyline points="37.0,223.5,46.0,235.5" stroke="black" stroke-width="2" fill="none" />
<polyline points="26.5,229.0,18.5,236.5,10.0,243.5,2.5,251.0" stroke="black" stroke-width="2" fill="none" />
<polyline points="5.5,248.0,13.5,248.0,21.0,247.5" stroke="black" stroke-width="2" fill="none" />
<polyline points="20.0,241.0,12.0,242.0,4.0,242.5" stroke="black" stroke-width="2" fill="none" />
<polyline points="18.5,231.0,27.0,234.0,29.0,241.0,31.0,249.0" stroke="black" stroke-width="2" fill="none" />
<polyline points="44.0,193.0,35.0,194.0,26.5,194.5,18.0,195.5,9.0,196.0,0.5,196.5" stroke="black" stroke-width="2" fill="none" />
<polyline points="3.0,196.0,5.0,204.0,7.5,212.0,9.0,220.0,16.0,225.5,20.0,233.0,23.0,241.5,24.5,249.0,33.5,255.5,41.5,256.5" stroke="black" stroke-width="2" fill="none" />
<polyline points="45.0,188.0,36.5,188.5,28.0,189.0,20.0,189.5,12.0,190.0,4.0,191.0" stroke="black" stroke-width="2" fill="none" />
<polyline points="2.5,192.0,10.5,191.5" stroke="black" stroke-width="2" fill="none" />
<polyline points="8.0,192.5,11.5,188.0,7.5,193.0,11.0,201.0,16.0,203.0,11.5,213.5,11.5,221.5,12.5,230.0,15.0,238.0,24.5,243.0,23.5,250.5,29.5,242.5" stroke="black" stroke-width="2" fill="none" />
<polyline points="52.0,237.0,51.0,223.0,46.5,215.0,42.0,203.5,40.0,195.5,39.5,187.0,36.5,179.0,25.5,171.0" stroke="black" stroke-width="2" fill="none" />
<polyline points="24.5,170.5,17.0,178.0,9.5,186.0,2.0,194.0" stroke="black" stroke-width="2" fill="none" />
<polyline points="9.0,195.0,6.0,201.0,8.5,209.0,9.5,219.0,20.0,218.5,26.5,222.0,34.5,220.0,35.5,229.5" stroke="black" stroke-width="2" fill="none" />
<polyline points="5.0,187.0,13.5,179.5,21.5,172.5" stroke="black" stroke-width="2" fill="none" />
<polyline points="21.5,178.5,23.5,186.5,25.5,194.5,29.5,194.5,32.5,201.0,41.5,205.0,45.5,212.0" stroke="black" stroke-width="2" fill="none" />
<polyline points="43.5,179.0,35.5,180.0,27.5,181.5,19.5,182.5,12.0,183.5,3.5,184.0" stroke="black" stroke-width="2" fill="none" />
<polyline points="5.0,164.0,6.5,171.5,16.0,174.5,19.0,182.5,22.0,190.5,20.5,199.0,24.5,207.0,16.0,211.0,16.5,219.0,19.0,219.0,21.0,231.5,27.0,237.0,33.0,240.0,32.5,252.0,33.5,247.0,41.5,252.0" stroke="black" stroke-width="2" fill="none" />
<polyline points="50.0,250.0,53.0,242.0,50.5,234.0,44.5,225.0,42.5,217.0,39.0,209.0,34.0,203.5,32.5,201.5,31.0,193.5,29.5,186.0,27.0,178.0,26.0,170.0,24.5,162.0,18.5,161.5" stroke="black" stroke-width="2" fill="none" />
<polyline points="18.5,160.5,26.5,164.0,34.5,169.0,37.5,169.0,41.0,177.0,43.5,185.0,43.0,193.0,45.5,201.0,49.5,210.5,43.0,213.5,44.5,221.5,49.5,229.0,48.5,237.0,46.5,243.5,55.5,244.5,64.0,241.0,74.0,242.0,81.5,245.0,85.5,243.0,92.5,236.0,99.5,235.5,107.5,226.0,105.5,229.0,97.0,237.0,95.0,245.5,84.5,250.5" stroke="black" stroke-width="2" fill="none" />
<polyline points="44.0,249.5,35.5,241.0,33.5,237.5,30.5,228.5,27.5,220.0,25.5,212.0,27.5,210.5,24.5,201.5,28.0,192.5,27.0,187.5,25.5,179.0,20.5,175.0,12.5,169.0,4.5,158.0" stroke="black" stroke-width="2" fill="none" />
<polyline points="4.5,158.5,12.0,158.0,20.5,157.5,28.5,156.5,36.5,155.0,44.5,154.5,53.0,153.5,61.0,153.5,69.5,152.5,78.0,152.0" stroke="black" stroke-width="2" fill="none" />
<polyline points="82.0,145.0,90.0,137.0,98.0,130.0,107.0,123.0,115.0,115.5,123.0,108.0,130.5,100.5" stroke="black" stroke-width="2" fill="none" />
<polyline points="123.5,99.0,115.5,106.5,107.5,114.0,99.5,121.5,91.0,129.0,83.0,137.0,75.5,144.5" stroke="black" stroke-width="2" fill="none" />
<polyline points="82.0,143.5,90.0,143.0,98.5,143.5,106.5,143.5,113.5,143.5,121.0,143.0,129.0,143.0,137.5,142.5,146.0,141.5,154.5,141.0,162.5,140.0,170.5,140.0" stroke="black" stroke-width="2" fill="none" />
<polyline points="187.0,136.5,194.5,129.5,202.0,122.5" stroke="black" stroke-width="2" fill="none" />
<polyline points="203.0,114.5,194.5,122.0,186.5,129.0,178.5,136.5,170.5,144.0" stroke="black" stroke-width="2" fill="none" />
<polyline points="163.0,145.5,171.0,138.5,178.5,131.0,186.5,123.5,194.5,116.0" stroke="black" stroke-width="2" fill="none" />
<polyline points="196.0,108.5,187.5,115.5,179.5,123.0,171.0,131.0,163.5,138.5,155.5,146.5" stroke="black" stroke-width="2" fill="none" />
<polyline points="138.5,152.0,146.0,144.5,154.5,137.5,163.5,130.5,172.0,123.5,180.5,116.0,188.5,109.0" stroke="black" stroke-width="2" fill="none" />
<polyline points="179.0,107.5,171.0,115.0,163.0,122.0,154.5,129.0,146.0,136.0,138.0,143.5,130.0,150.5" stroke="black" stroke-width="2" fill="none" />
<polyline points="124.0,151.5,132.0,144.5,140.0,137.5,148.0,130.0,156.0,122.5,163.5,115.0,171.0,107.5,179.0,100.0" stroke="black" stroke-width="2" fill="none" />
<polyline points="170.5,101.0,163.0,108.5,155.0,116.0,147.0,123.5,139.0,130.5,131.0,138.0,123.0,145.5,115.5,153.5" stroke="black" stroke-width="2" fill="none" />
<polyline points="106.5,153.0,114.5,146.0,122.5,138.5,130.5,130.5,138.5,123.0,146.0,115.5,154.0,108.0,162.0,100.0" stroke="black" stroke-width="2" fill="none" />
<polyline points="163.0,94.5,181.0,102.5,190.0,110.5,196.0,118.5" stroke="black" stroke-width="2" fill="none" />
<polyline points="188.5,95.5,196.5,94.0,204.0,93.0" stroke="black" stroke-width="2" fill="none" />
<polyline points="220.0,92.5,228.5,92.5" stroke="black" stroke-width="2" fill="none" />
<polyline points="226.5,83.5,218.0,83.5" stroke="black" stroke-width="2" fill="none" />
<polyline points="210.5,77.0,218.5,77.0,227.0,77.0,235.0,76.5" stroke="black" stroke-width="2" fill="none" />
<polyline points="225.5,61.0,214.0,69.5,216.0,68.5,224.0,63.0,232.5,61.5,240.5,59.0,249.5,56.5" stroke="black" stroke-width="2" fill="none" />
<polyline points="245.0,57.5,253.0,50.0,261.0,42.5" stroke="black" stroke-width="2" fill="none" />
<polyline points="259.0,50.0,251.5,50.0,243.5,51.0,236.5,51.5,229.0,51.5,221.0,51.5,212.5,52.5,204.0,53.0,196.0,53.5,187.5,54.0,179.5,54.0" stroke="black" stroke-width="2" fill="none" />
<polyline points="171.5,52.0,163.5,52.5,156.0,53.0" stroke="black" stroke-width="2" fill="none" />
<polyline points="156.0,43.5,164.0,43.0,172.0,42.5,180.5,42.5,188.5,42.5,196.0,42.0,203.5,41.5,211.0,41.0,219.0,40.0,226.5,40.0,234.5,40.0,242.5,39.5,250.5,39.0,259.0,38.5" stroke="black" stroke-width="2" fill="none" />
<polyline points="262.0,33.0,254.0,41.0,245.5,48.5,237.0,56.0" stroke="black" stroke-width="2" fill="none" />
<polyline points="229.0,58.5,237.0,50.0,245.5,42.5,253.0,35.0,261.0,27.5" stroke="black" stroke-width="2" fill="none" />
<polyline points="261.0,21.5,252.5,28.5,245.0,36.0,237.0,43.0,228.5,50.0" stroke="black" stroke-width="2" fill="none" />
<polyline points="228.5,42.0,236.5,34.5,244.5,27.0,251.5,19.0,259.5,11.5" stroke="black" stroke-width="2" fill="none" />
<polyline points="261.0,8.5,253.5,9.0" stroke="black" stroke-width="2" fill="none" />
<polyline points="252.0,4.5,244.0,12.0,236.0,19.0,227.5,26.5,219.0,34.0,211.0,42.0,203.0,49.5" stroke="black" stroke-width="2" fill="none" />
<polyline points="202.0,42.0,210.5,34.5,218.5,26.5,226.5,19.0,234.5,11.5,242.0,3.5" stroke="black" stroke-width="2" fill="none" />
<polyline points="237.5,1.5,229.5,9.0,221.0,16.5,213.0,24.0,205.0,32.0" stroke="black" stroke-width="2" fill="none" />
<polyline points="202.5,24.5,210.0,17.5,218.0,10.5,226.0,3.0" stroke="black" stroke-width="2" fill="none" />
<polyline points="218.5,3.5,210.5,11.0,202.5,18.0" stroke="black" stroke-width="2" fill="none" />
<polyline points="202.0,21.5,203.5,29.5,202.5,37.0,201.5,44.5,201.0,52.5,200.0,60.5,199.0,68.5" stroke="black" stroke-width="2" fill="none" />
<polyline points="203.5,70.0,211.0,69.5,219.0,69.0,227.0,68.5,234.5,67.5,243.0,67.0,251.0,66.5" stroke="black" stroke-width="2" fill="none" />
<polyline points="259.5,57.5,251.5,58.0,243.5,58.5,235.0,59.0,227.0,60.0,219.5,60.5,211.5,61.0,204.0,62.0,196.5,62.5" stroke="black" stroke-width="2" fill="none" />
<polyline points="203.0,59.0,211.0,51.5" stroke="black" stroke-width="2" fill="none" />
<polyline points="219.5,42.0,227.5,34.0,235.5,26.0,243.5,18.0,251.5,10.0,259.5,2.5" stroke="black" stroke-width="2" fill="none" />
<polyline points="262.0,18.0,254.5,18.5" stroke="black" stroke-width="2" fill="none" />
<polyline points="253.0,25.0,261.0,25.0" stroke="black" stroke-width="2" fill="none" />
<polyline points="260.0,32.0,252.5,32.5,245.0,32.5,236.5,33.5,228.0,34.5,220.0,35.5,213.0,36.0,205.0,36.5,196.5,36.5,188.0,37.0,179.5,37.5,171.5,38.5,164.0,39.0" stroke="black" stroke-width="2" fill="none" />
<polyline points="164.0,29.0,172.5,28.5,180.5,28.0,188.0,27.5,195.5,27.0,203.5,27.0,211.5,26.0,220.0,25.0,228.5,24.5,237.0,24.0,245.5,23.5,253.0,23.0,260.5,22.5" stroke="black" stroke-width="2" fill="none" />
<polyline points="260.5,15.0,253.0,16.0,245.0,16.0,237.0,17.0,229.5,17.5,221.5,18.0,213.5,19.0,205.5,20.0,197.5,19.5,189.0,19.5,181.5,19.5,173.5,20.5,165.0,20.5" stroke="black" stroke-width="2" fill="none" />
<polyline points="165.5,12.5,173.5,12.0,181.5,11.5,189.5,11.5,197.0,11.5,205.0,11.5,213.0,11.0,221.5,10.5,230.0,10.0,238.0,10.0,246.5,9.5,254.0,9.0,261.5,8.5" stroke="black" stroke-width="2" fill="none" />
<polyline points="261.0,-0.5,253.0,-0.5,245.5,0.0,237.0,0.5,229.5,0.5,221.5,1.0,213.5,1.5,205.0,2.0,197.0,3.0,189.0,3.5,181.5,4.5,173.5,5.0,165.5,5.5" stroke="black" stroke-width="2" fill="none" />
<polyline points="166.0,2.0,164.0,10.0,164.0,18.0,166.5,26.0,163.0,28.0,161.5,36.0,159.5,44.0,159.5,52.5,159.5,58.5,167.0,61.0,175.0,63.5,183.5,66.5,191.0,70.5,199.0,74.0,207.0,80.5,215.0,90.0" stroke="black" stroke-width="2" fill="none" />
<polyline points="225.0,108.5,233.0,108.0,241.0,107.5" stroke="black" stroke-width="2" fill="none" />
<polyline points="244.5,106.5,251.0,110.5,248.0,118.5,255.5,128.5,258.5,137.0,251.5,138.0,248.5,146.0,240.5,147.0,236.0,155.0,233.5,161.5,241.0,156.0,247.0,156.0" stroke="black" stroke-width="2" fill="none" />
<polyline points="244.0,133.0,236.5,134.0" stroke="black" stroke-width="2" fill="none" />
<polyline points="241.5,130.5,249.5,130.5" stroke="black" stroke-width="2" fill="none" />
<polyline points="253.5,132.5,261.0,132.0" stroke="black" stroke-width="2" fill="none" />
<polyline points="251.5,124.5,244.0,125.5,236.0,126.0" stroke="black" stroke-width="2" fill="none" />
<polyline points="229.5,125.5,221.5,126.0" stroke="black" stroke-width="2" fill="none" />
<polyline points="226.5,125.0,234.5,127.0,242.5,128.5,245.0,119.0,253.0,109.5" stroke="black" stroke-width="2" fill="none" />
<polyline points="256.0,111.0,253.0,119.0,257.5,121.5" stroke="black" stroke-width="2" fill="none" />
<polyline points="253.5,116.5,245.5,116.5,237.5,117.0,228.5,117.5,220.5,118.0" stroke="black" stroke-width="2" fill="none" />
<polyline points="221.0,110.5,221.0,120.5,224.0,121.5,225.5,124.5,227.5,128.0,220.5,138.0,220.5,147.0" stroke="black" stroke-width="2" fill="none" />
<polyline points="219.5,133.0,227.5,132.0" stroke="black" stroke-width="2" fill="none" />
<polyline points="204.0,122.5,197.0,123.0,189.0,123.5,180.5,123.5,172.0,124.0,163.5,124.5,155.5,125.5,148.0,126.0,139.5,126.0,131.5,126.5,123.5,126.5,115.0,127.0,106.5,127.5,98.5,127.5,90.5,128.0,82.0,129.0,73.5,129.5,65.5,130.0" stroke="black" stroke-width="2" fill="none" />
<polyline points="67.5,135.0,75.5,127.5,83.5,120.0,91.5,112.5,99.5,105.0,107.5,98.0" stroke="black" stroke-width="2" fill="none" />
<polyline points="106.5,92.5,114.5,92.0,122.5,92.0,130.0,91.0,138.0,90.5,146.0,90.0,153.5,89.5,161.5,89.5,169.5,89.0" stroke="black" stroke-width="2" fill="none" />
<polyline points="155.0,99.0,147.5,106.5,139.5,114.0,131.5,122.0,123.5,129.5,115.0,137.5,107.0,145.0" stroke="black" stroke-width="2" fill="none" />
<polyline points="99.5,144.5,107.5,137.5,115.5,130.0,123.0,122.5,131.0,115.0,139.5,107.0,148.0,100.0" stroke="black" stroke-width="2" fill="none" />
<polyline points="139.5,99.5,131.5,107.0,123.5,114.5,115.5,122.0,107.5,130.0,99.5,137.5,91.5,145.0" stroke="black" stroke-width="2" fill="none" />
<polyline points="94.0,147.5,101.5,147.0,108.5,146.5,116.0,146.0,123.0,146.0,131.0,146.0,138.5,145.5,146.0,145.5,154.0,145.5,162.0,146.0" stroke="black" stroke-width="2" fill="none" />
<polyline points="188.0,132.5,180.0,133.0,172.0,133.0,164.0,133.5,156.0,134.0,148.0,134.0,139.5,135.0,131.0,135.5,122.5,136.0,114.5,136.5" stroke="black" stroke-width="2" fill="none" />
<polyline points="114.5,104.0,122.0,103.5,129.5,103.0,137.5,102.5,145.0,101.5,153.5,101.5,161.5,101.0,170.0,100.0" stroke="black" stroke-width="2" fill="none" />
<polyline points="185.5,108.0,177.0,108.0,168.5,108.5,161.0,109.0,153.5,110.0,145.5,110.0,138.0,110.5,130.5,110.5,122.5,111.0,114.5,111.0,106.5,111.0,99.5,111.0,92.0,111.5" stroke="black" stroke-width="2" fill="none" />
<polyline points="93.5,105.5,85.0,113.5,77.0,120.5,68.5,128.0" stroke="black" stroke-width="2" fill="none" />
<polyline points="73.0,121.5,81.0,121.0,89.5,120.0,98.0,119.5,105.5,120.0,113.5,120.0,122.0,120.0,130.0,119.5,138.0,119.5,146.5,118.5,155.0,118.0,162.5,117.5,170.0,117.0,178.0,116.0,186.5,115.0,194.5,114.0" stroke="black" stroke-width="2" fill="none" />
<polyline points="210.5,93.0,202.0,94.0,193.5,95.0,185.0,96.0,177.0,96.0,169.0,96.0,161.0,96.5,153.0,97.0,145.0,97.0,137.5,97.0,130.0,97.5,122.5,98.0,115.5,99.0,108.0,99.5,100.5,100.0,92.5,100.5" stroke="black" stroke-width="2" fill="none" />
<polyline points="103.0,93.5,84.0,101.5,72.5,109.5,65.5,117.5,61.0,126.0,59.0,134.0,71.0,142.0" stroke="black" stroke-width="2" fill="none" />
<polyline points="68.0,142.0,76.0,142.0,84.0,141.0,92.0,140.5,100.0,140.0,108.0,140.0,115.5,139.5,124.0,139.0,132.5,138.5,140.0,138.5,148.5,138.5,156.5,137.0,164.0,136.0,172.0,135.5,180.5,135.0,188.5,134.0" stroke="black" stroke-width="2" fill="none" />
<polyline points="211.5,101.0,203.0,101.5,195.0,102.0,186.5,102.5,179.0,103.5,171.0,104.0,163.0,104.5,155.5,105.0,147.5,105.0,139.0,105.5,130.5,106.0,122.5,106.5,114.5,107.0,106.5,107.5,98.5,108.0,90.5,108.0,83.5,108.5,75.5,109.0" stroke="black" stroke-width="2" fill="none" />
<polyline points="65.0,115.5,73.0,115.5,81.5,115.5,90.0,115.5,98.5,115.5,106.5,116.0,115.0,115.0,123.0,114.0,131.5,113.0,140.0,112.5,148.0,112.0,156.5,111.5,164.5,111.0,172.0,110.5,179.5,110.0,187.5,110.0,195.5,109.0,204.0,108.0,212.5,107.5" stroke="black" stroke-width="2" fill="none" />
<polyline points="197.5,125.0,189.5,126.0,181.5,127.0,173.5,126.5,165.0,126.5,157.5,126.5,149.5,127.5,141.0,127.5,133.0,128.5,125.0,129.0,116.5,129.5,108.5,130.5,100.5,131.0,91.5,130.5,83.0,131.0,74.5,131.0,66.5,131.0,58.0,132.0" stroke="black" stroke-width="2" fill="none" />
<polyline points="57.5,131.0,65.5,139.0,74.0,142.5,82.0,147.0,90.0,149.5,98.0,151.5,106.0,153.0,114.0,154.0,122.5,154.0,130.5,154.0,138.5,153.0,146.5,153.0,154.0,151.0,162.0,149.0,170.5,146.5,178.5,143.0,186.5,139.0,195.0,134.0,203.0,127.0,210.5,116.5" stroke="black" stroke-width="2" fill="none" />
<polyline points="206.0,117.0,197.5,117.5,189.0,118.0,181.0,118.5,173.0,118.5,165.5,118.5,157.5,118.5,149.5,119.0,141.5,119.5,133.5,120.5,125.5,120.5,117.0,120.5,109.0,120.5,101.0,121.0,92.0,122.5,83.5,123.5,75.0,124.5,67.0,124.5,59.0,125.0" stroke="black" stroke-width="2" fill="none" />
<polyline points="59.0,126.0,67.0,114.0,75.5,107.5,83.5,103.0,91.0,99.0,98.5,96.0,106.5,94.5,115.0,91.5,123.0,91.0,131.5,90.0,139.5,90.0,147.5,91.0,155.5,93.5,164.0,95.5,172.0,98.0,180.0,102.0,188.0,107.5,196.0,116.0" stroke="black" stroke-width="2" fill="none" />
<polyline points="213.0,95.5,204.5,84.0,196.0,78.5,188.0,74.5,179.5,70.5" stroke="black" stroke-width="2" fill="none" />
<polyline points="182.0,68.5,198.0,76.5,207.0,84.5,211.5,92.5,214.5,100.0,214.0,108.5,210.5,116.5,204.5,124.5,195.5,132.5,181.5,141.0" stroke="black" stroke-width="2" fill="none" />
<polyline points="195.0,186.0,188.5,188.0,172.5,188.5,161.0,196.5,147.0,204.5" stroke="black" stroke-width="2" fill="none" />
<polyline points="108.0,136.5,100.5,137.0,92.5,137.5,84.5,138.0,76.0,139.0,68.0,139.5" stroke="black" stroke-width="2" fill="none" />
<polyline points="76.0,136.0,83.5,128.5,91.5,120.5,99.5,113.0,108.0,105.5,116.5,98.0" stroke="black" stroke-width="2" fill="none" />
<polyline points="77.0,64.5,62.0,72.5,51.5,80.0" stroke="black" stroke-width="2" fill="none" />
<polyline points="44.0,79.5,52.5,79.0,60.5,78.5" stroke="black" stroke-width="2" fill="none" />
<polyline points="35.0,73.0,46.0,80.5,46.5,88.5,41.5,96.0,39.5,104.0,39.5,112.5,41.5,120.5,47.0,129.0,54.5,137.0,68.0,144.5" stroke="black" stroke-width="2" fill="none" />
<polyline points="60.5,145.0,52.5,153.0,45.0,160.5" stroke="black" stroke-width="2" fill="none" />
<polyline points="41.0,161.5,41.0,169.5,44.0,177.5,44.5,185.5,45.0,194.0,45.5,202.5,52.5,207.0,54.0,215.0,50.0,226.0,52.0,234.0,60.0,244.0,61.0,252.0,71.5,253.0,82.5,241.0,87.0,228.5,96.5,218.0,103.5,212.0,113.5,222.5" stroke="black" stroke-width="2" fill="none" />
<polyline points="88.5,153.0,80.5,150.0,72.5,147.0,64.5,143.0,56.5,138.0,48.5,130.5,40.5,117.5" stroke="black" stroke-width="2" fill="none" />
<polyline points="44.0,115.0,36.0,122.5,28.0,130.0,20.5,138.0,12.0,146.0,4.0,153.5" stroke="black" stroke-width="2" fill="none" />
<polyline points="1.5,153.5,10.0,153.0,19.0,152.5,27.5,152.0,35.0,152.0,43.5,151.0,51.5,151.0" stroke="black" stroke-width="2" fill="none" />
<polyline points="53.0,146.5,45.0,154.5,37.0,161.5" stroke="black" stroke-width="2" fill="none" />
<polyline points="45.5,165.5,48.5,173.5,49.0,181.5,50.0,190.0,51.5,198.0,51.5,206.0,52.0,214.0,49.5,222.5" stroke="black" stroke-width="2" fill="none" />
<polyline points="57.0,210.5,59.0,202.5,61.0,194.5,62.5,186.5,61.5,178.5,64.0,170.5,55.5,168.5" stroke="black" stroke-width="2" fill="none" />
<polyline points="51.5,162.0,59.5,154.5" stroke="black" stroke-width="2" fill="none" />
<polyline points="51.0,161.5,42.5,162.0,34.0,162.5,26.0,163.0" stroke="black" stroke-width="2" fill="none" />
<polyline points="20.0,158.0,20.0,166.0,29.5,172.0,32.0,179.5,34.0,187.5,35.0,195.5,37.0,203.5,33.5,212.0,35.5,220.0,38.5,228.0,41.5,236.0,43.5,244.0,56.0,248.0,52.0,252.0,58.0,255.0" stroke="black" stroke-width="2" fill="none" />
<polyline points="2.5,162.0,10.5,154.0,19.0,147.0,27.0,139.5,35.0,131.0,43.0,124.0" stroke="black" stroke-width="2" fill="none" />
<polyline points="42.0,127.0,34.5,127.5,27.0,128.0,18.5,128.5" stroke="black" stroke-width="2" fill="none" />
<polyline points="4.0,126.5,12.0,126.0,20.5,125.0,28.0,124.5,36.0,123.5,44.0,123.0" stroke="black" stroke-width="2" fill="none" />
<polyline points="11.0,115.5,3.0,123.0" stroke="black" stroke-width="2" fill="none" />
<polyline points="5.5,119.5,13.5,119.0,21.5,118.5,29.5,118.0,37.0,118.0,45.0,117.5" stroke="black" stroke-width="2" fill="none" />
<polyline points="58.0,137.5,50.0,137.5,42.5,137.5,35.0,138.5,28.0,139.5,21.0,140.0,14.0,140.0,6.0,140.0" stroke="black" stroke-width="2" fill="none" />
<polyline points="1.5,148.5,10.0,148.0,17.5,148.5,25.5,148.0,34.0,148.0,42.5,148.0,50.5,147.5,59.5,147.0,67.5,147.0" stroke="black" stroke-width="2" fill="none" />
<polyline points="44.0,108.5,36.0,108.5,27.5,109.0,19.5,109.5,12.0,110.0,4.0,110.0" stroke="black" stroke-width="2" fill="none" />
<polyline points="7.5,101.5,9.5,109.5,11.5,115.5,6.0,120.5" stroke="black" stroke-width="2" fill="none" />
<polyline points="3.5,100.5,11.5,100.0" stroke="black" stroke-width="2" fill="none" />
<polyline points="15.5,95.0,23.5,100.5" stroke="black" stroke-width="2" fill="none" />
<polyline points="11.0,93.0,3.5,93.5" stroke="black" stroke-width="2" fill="none" />
<polyline points="6.5,94.0,14.5,105.0,17.0,110.5,18.0,118.5,18.5,127.0" stroke="black" stroke-width="2" fill="none" />
<polyline points="32.0,98.0,24.0,95.0,17.0,89.0,15.5,80.0,7.5,83.0" stroke="black" stroke-width="2" fill="none" />
<polyline points="7.0,81.0,17.5,78.0,20.5,85.0,31.0,89.0" stroke="black" stroke-width="2" fill="none" />
<polyline points="9.0,87.0,1.0,87.5" stroke="black" stroke-width="2" fill="none" />
<polyline points="4.0,78.5,11.5,77.5" stroke="black" stroke-width="2" fill="none" />
<polyline points="3.5,72.5,13.5,74.5,6.5,82.5,5.5,89.5,7.5,97.5,8.5,106.0,5.5,113.5,4.5,121.5,9.5,122.5" stroke="black" stroke-width="2" fill="none" />
<polyline points="2.5,159.5,2.5,167.5,4.5,170.5,9.5,178.5,12.5,186.5,14.5,194.0,16.5,201.5,18.5,209.5,22.0,217.0,26.5,225.5,34.0,229.5,38.5,237.0,40.5,248.0,44.0,256.0,46.0,254.0" stroke="black" stroke-width="2" fill="none" />
<polyline points="21.0,69.0,13.5,69.5,5.0,70.0" stroke="black" stroke-width="2" fill="none" />
<polyline points="5.5,68.5,13.5,61.0,22.0,53.5" stroke="black" stroke-width="2" fill="none" />
<polyline points="20.0,59.0,12.5,66.5" stroke="black" stroke-width="2" fill="none" />
<polyline points="5.0,65.0,13.5,65.0,20.5,64.5" stroke="black" stroke-width="2" fill="none" />
<polyline points="12.0,49.0,4.5,49.5" stroke="black" stroke-width="2" fill="none" />
<polyline points="4.0,49.5,12.0,41.5,20.0,34.5" stroke="black" stroke-width="2" fill="none" />
<polyline points="20.0,25.5,11.5,33.0,4.0,40.5" stroke="black" stroke-width="2" fill="none" />
<polyline points="5.5,40.0,13.5,40.0,21.0,40.0" stroke="black" stroke-width="2" fill="none" />
<polyline points="5.0,36.5,13.0,36.0,20.5,35.5,28.0,35.0,36.0,34.0,43.0,34.0,50.5,33.5,58.5,33.0" stroke="black" stroke-width="2" fill="none" />
<polyline points="59.0,50.5,51.5,50.5,43.0,50.5,35.0,51.0,26.5,51.5,18.0,52.0,9.5,52.0,2.0,52.5" stroke="black" stroke-width="2" fill="none" />
<polyline points="3.5,45.0,11.5,44.0,20.0,43.5,28.5,42.5,36.5,42.0,44.0,42.0,52.0,41.5,59.5,41.5" stroke="black" stroke-width="2" fill="none" />
<polyline points="58.0,17.0,50.5,18.0,42.5,18.5,34.0,19.5,26.0,20.0,18.0,20.0,10.5,20.5,2.5,21.0" stroke="black" stroke-width="2" fill="none" />
<polyline points="2.5,24.0,10.0,23.5" stroke="black" stroke-width="2" fill="none" />
<polyline points="3.5,18.0,11.5,10.5,19.5,3.0" stroke="black" stroke-width="2" fill="none" />
<polyline points="12.5,5.0,4.5,12.0" stroke="black" stroke-width="2" fill="none" />
<polyline points="1.0,13.0,9.5,12.5,18.0,12.0,26.0,11.5,34.0,11.0,42.5,10.5,51.0,10.5,59.0,10.5,67.5,10.5" stroke="black" stroke-width="2" fill="none" />
<polyline points="19.0,18.0,11.5,26.0,3.5,33.5" stroke="black" stroke-width="2" fill="none" />
<polyline points="3.5,32.5,11.0,31.5" stroke="black" stroke-width="2" fill="none" />
<polyline points="10.0,17.5,2.0,18.0" stroke="black" stroke-width="2" fill="none" />
<polyline points="1.5,9.0,9.5,8.5" stroke="black" stroke-width="2" fill="none" />
<polyline points="2.5,6.0,10.5,5.5,19.0,5.0,27.0,4.5,35.5,4.0,44.0,4.0,52.5,3.5,60.5,3.5,68.0,3.0" stroke="black" stroke-width="2" fill="none" />
<polyline points="18.5,19.5,17.0,27.5,19.0,36.0,21.0,38.0" stroke="black" stroke-width="2" fill="none" />
<polyline points="2.0,67.0,10.0,67.0,17.5,67.0,23.5,69.0,23.5,72.0,31.5,72.5,39.5,75.5,48.0,82.5,56.0,77.0,64.0,72.0,72.0,68.5,80.0,65.5,88.5,62.5,96.5,60.5,104.5,58.5,112.5,57.5,120.5,56.5,128.5,56.5,136.5,56.5,145.0,56.5,153.5,57.5" stroke="black" stroke-width="2" fill="none" />
<polyline points="175.0,62.5,193.0,71.0,204.5,79.0,212.5,87.0,217.0,95.0,219.0,103.0,219.0,111.5,218.0,119.5,217.5,128.0,216.0,136.0,215.5,144.0,214.0,152.0,213.0,160.0,212.0,167.5,214.0,175.0,207.5,187.0,196.5,191.5,185.5,193.5,181.0,201.5,172.5,204.0,170.5,212.0,170.0,220.0,173.0,232.0,169.0,240.0,163.5,241.0,160.0,249.0,158.0,252.0,166.5,245.0,174.5,238.0,177.5,226.0,185.5,227.0,190.5,211.0,198.5,199.0,207.0,196.5,215.0,186.5,222.5,178.5" stroke="black" stroke-width="2" fill="none" />
<polyline points="252.0,130.0,251.0,122.0,251.0,114.0" stroke="black" stroke-width="2" fill="none" />
<polyline points="249.5,55.5,255.5,48.0" stroke="black" stroke-width="2" fill="none" />
<polyline points="212.5,1.5,204.5,9.5" stroke="black" stroke-width="2" fill="none" />
<polyline points="131.5,14.0,123.5,14.5" stroke="black" stroke-width="2" fill="none" />
<polyline points="123.0,6.0,131.5,5.5,140.0,5.0" stroke="black" stroke-width="2" fill="none" />
</svg>