<svg xmlns="http://www.w3.org/2000/svg" version="1.1"><polyline points="146.5,15.0,146.5,23.0,147.0,30.5" stroke="black" stroke-width="2" fill="none" />
<polyline points="146.5,41.0,154.5,34.5,162.5,27.5" stroke="black" stroke-width="2" fill="none" />
<polyline points="171.0,26.5,163.0,34.0,154.5,42.0,146.5,50.0" stroke="black" stroke-width="2" fill="none" />
<polyline points="149.0,50.5,157.0,50.0,165.5,49.0,173.0,48.5" stroke="black" stroke-width="2" fill="none" />
<polyline points="157.0,58.0,165.0,50.5,173.5,43.5,182.0,35.5,190.0,28.0" stroke="black" stroke-width="2" fill="none" />
<polyline points="192.5,31.5,184.5,50.0,177.0,58.0,185.0,50.0,190.5,42.0,193.5,34.0,196.0,26.0" stroke="black" stroke-width="2" fill="none" />
<polyline points="198.0,26.5,198.0,35.0,194.0,42.5,189.0,50.5,180.0,58.5,176.0,66.5,183.5,62.5,191.5,57.0,199.0,47.0" stroke="black" stroke-width="2" fill="none" />
<polyline points="205.5,43.5,197.5,51.0,189.0,59.0,180.0,67.0,171.5,74.5,163.0,82.0,154.5,89.5,147.0,97.0,139.0,104.5,131.5,112.0,123.0,119.5,115.5,127.0" stroke="black" stroke-width="2" fill="none" />
<polyline points="115.0,127.5,123.0,127.0,131.0,127.0" stroke="black" stroke-width="2" fill="none" />
<polyline points="126.0,127.0,130.0,135.0" stroke="black" stroke-width="2" fill="none" />
<polyline points="124.0,131.0,132.0,138.0,140.5,141.5,148.5,144.0,157.0,143.0,166.0,144.0" stroke="black" stroke-width="2" fill="none" />
<polyline points="172.0,146.5,164.5,153.5,156.0,161.5,148.0,169.5,140.0,177.5,131.5,185.0" stroke="black" stroke-width="2" fill="none" />
<polyline points="131.5,188.5,139.0,187.5,147.5,187.0,155.5,186.5,163.5,186.0" stroke="black" stroke-width="2" fill="none" />
<polyline points="157.0,187.5,165.0,189.5,173.0,189.5,181.0,190.0,188.5,190.5,196.0,190.5,204.5,190.5,213.0,189.5,212.0,196.0,210.0,204.0" stroke="black" stroke-width="2" fill="none" />
<polyline points="205.0,205.0,213.0,197.0" stroke="black" stroke-width="2" fill="none" />
<polyline points="212.0,198.0,214.0,206.0" stroke="black" stroke-width="2" fill="none" />
<polyline points="211.0,212.0,203.5,212.0,195.5,212.5,187.5,213.0,179.5,213.5,171.5,214.0,163.0,214.5,155.5,215.5,147.5,216.0,139.5,216.0,132.0,216.5,124.5,217.5,117.0,217.5,109.0,218.5,101.0,219.0,93.0,220.0,85.0,220.5,77.0,221.0" stroke="black" stroke-width="2" fill="none" />
<polyline points="80.0,218.0,72.0,218.0" stroke="black" stroke-width="2" fill="none" />
<polyline points="69.0,215.0,73.5,206.0,70.5,214.5,70.5,205.5,78.0,190.5,86.0,190.5,94.5,190.5,103.0,190.5,111.0,190.0,119.0,190.0,127.0,190.0" stroke="black" stroke-width="2" fill="none" />
<polyline points="131.5,192.5,140.0,185.0,148.0,178.0,156.0,171.0,164.0,163.0" stroke="black" stroke-width="2" fill="none" />
<polyline points="163.0,168.5,155.0,169.0,147.0,169.0,139.0,170.0,131.0,170.5" stroke="black" stroke-width="2" fill="none" />
<polyline points="130.5,174.0,138.0,173.5,146.0,173.0,154.5,173.0,162.5,173.0" stroke="black" stroke-width="2" fill="none" />
<polyline points="162.0,170.5,170.0,152.5" stroke="black" stroke-width="2" fill="none" />
<polyline points="171.0,137.0,162.5,137.5" stroke="black" stroke-width="2" fill="none" />
<polyline points="169.0,131.0,177.5,130.0" stroke="black" stroke-width="2" fill="none" />
<polyline points="181.5,131.5,173.5,139.5,165.0,147.5,156.5,155.0,148.0,163.0,139.5,170.0,131.0,176.5" stroke="black" stroke-width="2" fill="none" />
<polyline points="131.5,177.0,139.5,177.0,147.0,176.5,155.0,176.0" stroke="black" stroke-width="2" fill="none" />
<polyline points="165.0,171.0,157.0,178.5,149.0,185.5,141.0,192.5,133.0,200.0" stroke="black" stroke-width="2" fill="none" />
<polyline points="140.5,201.5,149.0,201.0,157.0,200.0" stroke="black" stroke-width="2" fill="none" />
<polyline points="154.5,196.0,146.5,203.5,138.0,211.0" stroke="black" stroke-width="2" fill="none" />
<polyline points="139.0,208.5,147.5,208.5,155.5,208.0" stroke="black" stroke-width="2" fill="none" />
<polyline points="165.0,202.5,172.5,195.0" stroke="black" stroke-width="2" fill="none" />
<polyline points="180.5,196.0,172.5,203.5" stroke="black" stroke-width="2" fill="none" />
<polyline points="179.5,201.5,187.5,194.5" stroke="black" stroke-width="2" fill="none" />
<polyline points="193.5,193.0,185.5,201.0" stroke="black" stroke-width="2" fill="none" />
<polyline points="195.0,205.0,202.5,197.0" stroke="black" stroke-width="2" fill="none" />
<polyline points="214.0,194.5,216.0,202.5,217.5,210.5,219.5,217.5,218.0,225.5" stroke="black" stroke-width="2" fill="none" />
<polyline points="218.5,204.0,211.0,204.5,203.5,204.5,195.5,204.5,188.5,205.0,181.0,205.5,173.0,206.0,164.5,206.5,156.5,207.0,148.5,207.5,140.5,208.0,132.5,208.5,124.5,210.0,116.5,211.0,108.5,211.5,101.0,212.0,93.5,212.5,85.5,213.0,77.0,213.5" stroke="black" stroke-width="2" fill="none" />
<polyline points="74.5,211.5,82.0,204.0,89.5,196.5" stroke="black" stroke-width="2" fill="none" />
<polyline points="92.0,201.0,100.0,193.5" stroke="black" stroke-width="2" fill="none" />
<polyline points="109.0,195.5,100.5,203.0" stroke="black" stroke-width="2" fill="none" />
<polyline points="113.5,204.0,121.5,197.0" stroke="black" stroke-width="2" fill="none" />
<polyline points="113.5,196.5,105.5,204.5" stroke="black" stroke-width="2" fill="none" />
<polyline points="128.5,214.0,120.5,214.0,112.5,214.0,104.0,214.0,95.5,214.0,87.5,214.0,79.5,211.5,79.5,213.5,80.5,205.5,81.5,197.5" stroke="black" stroke-width="2" fill="none" />
<polyline points="74.5,197.5,82.5,196.5,90.0,195.5,98.5,194.5,107.0,194.5,115.0,194.0,123.0,194.0,131.0,193.5,139.0,193.5,146.5,193.5,154.5,193.0,162.0,192.5,170.0,192.0,178.5,192.0,186.5,192.0,195.0,191.5,203.0,191.0,212.0,190.5,220.5,190.0" stroke="black" stroke-width="2" fill="none" />
<polyline points="163.5,196.0,155.5,203.5,147.5,210.5" stroke="black" stroke-width="2" fill="none" />
<polyline points="147.5,216.5,155.5,216.5,164.0,215.5,172.0,215.0,180.5,215.5,188.5,215.5,196.5,215.0,204.5,215.0,212.5,215.0" stroke="black" stroke-width="2" fill="none" />
<polyline points="219.5,196.5,211.5,196.5,203.0,197.0,195.5,197.5,187.5,198.0,179.0,199.0,171.0,199.5,163.5,200.0,155.5,200.0,148.0,200.5,140.5,200.5,132.5,201.5,124.5,202.5,116.5,203.5,108.5,203.5,100.5,203.5,92.5,204.0,84.5,204.0,76.0,204.5" stroke="black" stroke-width="2" fill="none" />
<polyline points="78.0,191.0,74.0,199.0,70.5,207.0,67.5,215.0,67.0,222.5,68.5,230.5,75.0,231.0,83.0,231.0,91.5,231.0,99.5,231.0,107.5,231.5,115.5,231.5,124.0,231.0,132.5,231.0,140.5,231.0,148.5,230.5,156.0,231.5,163.5,232.0,171.5,232.0,179.5,232.0,187.5,232.0,195.5,232.0,203.5,232.0,212.0,232.0,220.5,230.5" stroke="black" stroke-width="2" fill="none" />
<polyline points="204.0,228.5,196.0,228.0,187.5,228.0,179.5,227.5,171.5,227.5,164.0,227.5" stroke="black" stroke-width="2" fill="none" />
<polyline points="145.5,226.5,153.5,226.5,161.5,226.5,169.5,225.0,177.5,225.0,185.5,225.0,193.5,224.5,202.0,224.0,210.0,224.0,218.0,225.0" stroke="black" stroke-width="2" fill="none" />
<polyline points="154.5,188.5,146.5,196.0,139.0,203.0,131.5,210.0" stroke="black" stroke-width="2" fill="none" />
<polyline points="141.0,193.5,149.0,193.0,157.0,192.0" stroke="black" stroke-width="2" fill="none" />
<polyline points="156.0,184.0,148.0,184.5,139.5,185.5" stroke="black" stroke-width="2" fill="none" />
<polyline points="132.5,180.0,140.5,179.5,149.0,179.0,157.0,178.5,164.5,178.0" stroke="black" stroke-width="2" fill="none" />
<polyline points="133.5,165.5,141.0,159.0,149.0,152.0,157.0,144.5,165.0,137.0,172.5,129.5,180.5,122.0,188.0,115.0" stroke="black" stroke-width="2" fill="none" />
<polyline points="186.5,120.5,178.0,121.0,170.5,121.5,162.0,122.0,154.0,122.0,146.0,123.0,138.0,123.0,130.0,122.5,122.5,123.0,115.0,123.5,107.0,124.0" stroke="black" stroke-width="2" fill="none" />
<polyline points="106.0,125.0,114.0,117.5,122.0,110.5,130.0,102.5,138.5,95.5,146.5,88.5,155.0,80.5,163.5,72.5,171.5,65.5,179.5,58.0,187.5,50.0,195.5,42.0,203.5,34.0" stroke="black" stroke-width="2" fill="none" />
<polyline points="204.5,34.0,202.5,42.0,198.0,50.0,191.5,58.0,178.0,66.0,178.5,69.0,186.5,65.0,194.5,59.0,202.5,48.0" stroke="black" stroke-width="2" fill="none" />
<polyline points="210.5,50.5,202.0,58.0,194.0,65.0,185.5,72.5,177.5,81.0,169.0,89.0,161.0,97.0,153.5,105.0,146.0,112.5,138.0,120.0,130.5,127.0,122.5,134.5,114.5,141.5" stroke="black" stroke-width="2" fill="none" />
<polyline points="115.0,141.0,123.0,140.5,131.5,140.5,139.5,140.0,148.0,139.5,156.0,138.5,164.5,138.0,173.0,137.0,181.0,136.5" stroke="black" stroke-width="2" fill="none" />
<polyline points="146.5,129.0,138.0,129.5" stroke="black" stroke-width="2" fill="none" />
<polyline points="147.0,134.0,138.5,134.5,130.0,135.5,121.5,135.5,113.0,136.0" stroke="black" stroke-width="2" fill="none" />
<polyline points="115.0,134.0,123.0,126.5,131.0,119.0,139.0,111.5,146.5,104.0,154.0,97.0,161.5,89.5,169.5,82.0,177.5,74.0,186.0,66.5,194.0,59.0,202.5,51.0,210.5,43.5" stroke="black" stroke-width="2" fill="none" />
<polyline points="209.0,42.0,207.0,50.0,202.0,57.5,193.0,65.5" stroke="black" stroke-width="2" fill="none" />
<polyline points="211.0,59.0,203.0,67.0,194.5,74.5,186.5,81.5,178.5,89.0,170.5,97.0,163.0,104.5,155.5,112.0,148.0,119.5,140.5,127.0,133.0,135.0,124.5,142.5" stroke="black" stroke-width="2" fill="none" />
<polyline points="124.5,146.0,132.0,146.0,140.0,145.5,147.5,145.0,155.5,145.0,163.5,144.5,171.5,143.5" stroke="black" stroke-width="2" fill="none" />
<polyline points="130.0,159.5,138.0,151.5,146.0,143.5,154.0,135.5,162.0,127.5,170.5,120.5,178.0,113.5,185.5,107.0,193.0,99.5" stroke="black" stroke-width="2" fill="none" />
<polyline points="192.5,100.5,184.5,103.0,176.0,104.5,168.0,104.5,159.5,105.0,151.5,103.0,143.5,98.5,135.5,91.5,127.5,85.0,119.0,76.0,111.0,66.0,103.0,61.0" stroke="black" stroke-width="2" fill="none" />
<polyline points="101.5,60.0,103.5,53.0,97.0,61.5,93.0,69.0,86.5,77.0,79.5,85.0,84.0,88.0,92.0,78.5,100.0,65.5,106.5,73.5,107.5,77.5,117.5,92.0,126.5,105.5,134.5,110.5,142.5,117.0,150.0,120.0,158.0,120.5,166.0,120.5,173.5,117.5,181.5,114.5" stroke="black" stroke-width="2" fill="none" />
<polyline points="178.0,130.0,171.0,130.5,163.0,130.5,155.0,130.0,147.0,130.0,139.5,130.5,131.5,131.0,124.0,131.5,116.0,132.0,107.5,133.0" stroke="black" stroke-width="2" fill="none" />
<polyline points="106.0,131.5,114.0,127.5,128.5,130.5,136.5,136.5,144.5,139.5,153.0,140.5,163.5,137.5" stroke="black" stroke-width="2" fill="none" />
<polyline points="125.5,149.5,134.0,142.0,142.0,134.5,150.0,127.0,157.5,119.5,165.0,112.0,173.0,104.0,180.5,97.0,188.0,90.5,196.0,83.5,204.0,76.5,212.0,69.5" stroke="black" stroke-width="2" fill="none" />
<polyline points="203.5,83.0,195.5,90.5,187.5,98.5,179.0,106.5,171.0,114.0,163.0,121.5,155.0,129.0,147.0,136.0,139.0,143.0,131.0,150.5,122.5,157.5" stroke="black" stroke-width="2" fill="none" />
<polyline points="124.0,158.0,132.0,157.5,139.5,157.0,147.5,156.5,156.0,156.5,164.0,156.5,171.0,155.5" stroke="black" stroke-width="2" fill="none" />
<polyline points="162.0,160.5,154.5,161.0,147.0,161.5,139.0,162.5,131.0,163.0" stroke="black" stroke-width="2" fill="none" />
<polyline points="123.5,165.0,131.5,165.0,139.5,164.5,148.0,164.5,156.5,164.5,164.5,164.5" stroke="black" stroke-width="2" fill="none" />
<polyline points="162.5,151.5,154.5,152.5,147.5,153.0,140.0,154.0,132.5,154.5,124.5,154.5" stroke="black" stroke-width="2" fill="none" />
<polyline points="123.0,154.0,122.5,148.0,123.0,146.0,129.5,141.0" stroke="black" stroke-width="2" fill="none" />
<polyline points="117.5,151.5,125.5,151.0,133.0,150.0,140.5,149.0,148.0,148.0,156.0,146.5,164.0,146.5,172.5,146.0" stroke="black" stroke-width="2" fill="none" />
<polyline points="187.0,112.0,178.5,112.5,171.0,113.0,162.5,113.5,155.0,114.0,147.0,115.0,139.5,115.5,131.0,116.0,123.0,116.5,115.0,117.0,107.0,117.0,99.0,118.0" stroke="black" stroke-width="2" fill="none" />
<polyline points="99.5,112.5,107.5,106.0,115.0,99.0,123.0,92.0,131.0,84.5" stroke="black" stroke-width="2" fill="none" />
<polyline points="133.5,79.0,141.5,86.0,149.5,90.0,157.5,94.0,165.5,96.5,174.0,96.5,182.0,95.5,190.5,92.5" stroke="black" stroke-width="2" fill="none" />
<polyline points="197.0,95.5,189.5,96.0,181.0,97.0,173.0,97.5,164.5,98.5,157.0,98.5,149.0,98.5,141.0,98.5,133.0,99.0,124.5,100.0,116.5,101.0,108.0,101.5,99.5,101.5,92.0,102.0" stroke="black" stroke-width="2" fill="none" />
<polyline points="91.0,103.0,99.0,103.0" stroke="black" stroke-width="2" fill="none" />
<polyline points="98.5,106.0,106.0,105.5,114.0,105.5,122.5,105.0" stroke="black" stroke-width="2" fill="none" />
<polyline points="118.5,107.5,121.5,115.5,129.5,124.0,140.0,132.0" stroke="black" stroke-width="2" fill="none" />
<polyline points="131.5,132.0,121.0,135.0,113.0,139.0" stroke="black" stroke-width="2" fill="none" />
<polyline points="105.5,122.0,113.0,121.5,121.5,120.5" stroke="black" stroke-width="2" fill="none" />
<polyline points="126.5,117.5,136.5,125.5" stroke="black" stroke-width="2" fill="none" />
<polyline points="123.5,112.5,116.0,114.0,108.0,114.5" stroke="black" stroke-width="2" fill="none" />
<polyline points="105.5,119.0,113.5,111.5,121.5,104.0,129.0,96.0,137.5,88.5,145.5,80.5,153.5,72.5,161.5,65.5,169.5,58.0,178.0,50.5,186.5,42.5,195.0,34.5" stroke="black" stroke-width="2" fill="none" />
<polyline points="188.5,35.0,180.5,42.0,172.5,49.5,164.5,57.0,156.5,64.5,148.5,72.5" stroke="black" stroke-width="2" fill="none" />
<polyline points="155.0,72.0,162.5,72.0,170.5,71.5" stroke="black" stroke-width="2" fill="none" />
<polyline points="163.0,75.0,171.0,76.0,179.0,73.5,187.0,70.5,195.0,67.0,202.5,61.5,210.5,49.0,207.5,54.5,200.0,63.0,186.0,70.5" stroke="black" stroke-width="2" fill="none" />
<polyline points="179.0,64.0,171.5,65.0,164.0,65.5,156.5,66.0" stroke="black" stroke-width="2" fill="none" />
<polyline points="155.0,64.0,162.5,63.0,170.0,62.0,178.0,61.5,186.5,61.0,195.0,60.5,203.0,59.5,211.5,59.0" stroke="black" stroke-width="2" fill="none" />
<polyline points="210.0,60.5,202.0,61.5,194.0,62.0,186.5,62.5,178.5,63.5,171.5,64.0,164.0,65.0,156.5,65.5,148.5,65.5,140.5,66.5,132.5,66.5,124.5,66.5,116.0,67.0,108.0,67.5,100.0,67.5,91.5,67.5,83.0,68.0,75.5,68.0,67.5,68.0" stroke="black" stroke-width="2" fill="none" />
<polyline points="68.5,63.0,77.0,60.0,85.0,50.0,82.0,54.0,75.0,62.0,69.0,70.0,74.0,78.5,77.5,86.5,81.5,95.0,87.5,103.0,101.5,109.0,105.5,109.0,115.5,109.0,120.5,111.0,125.0,114.5,133.0,121.5,141.0,128.0,149.0,130.5,157.0,131.0,165.0,130.5,173.5,126.5,179.5,130.0,187.5,117.5,195.5,104.5,203.5,88.0,199.0,84.5,191.0,91.5" stroke="black" stroke-width="2" fill="none" />
<polyline points="188.5,96.5,197.5,91.5,189.5,96.5,182.0,100.0,173.5,100.5,165.5,100.5,157.5,99.5,149.5,96.5,141.5,91.0,133.0,84.5,125.0,75.5,117.0,66.5,109.0,59.5" stroke="black" stroke-width="2" fill="none" />
<polyline points="107.0,58.0,111.0,66.0,109.0,67.0,113.5,75.0,118.0,83.5,125.5,90.5,132.0,98.5,142.0,106.5" stroke="black" stroke-width="2" fill="none" />
<polyline points="138.5,116.0,129.5,107.5" stroke="black" stroke-width="2" fill="none" />
<polyline points="126.5,109.5,134.5,116.5,143.0,122.0,151.5,124.0,159.5,124.0,167.5,122.5,175.0,120.5" stroke="black" stroke-width="2" fill="none" />
<polyline points="184.0,101.5,190.0,102.5,182.0,106.5,174.0,110.0,165.5,111.0,157.5,110.0,150.0,109.0,142.5,104.0,134.5,98.0,127.0,88.5,119.5,79.5,111.5,69.5" stroke="black" stroke-width="2" fill="none" />
<polyline points="112.0,65.5,118.5,73.5,125.5,81.5,133.0,89.5,143.0,97.5" stroke="black" stroke-width="2" fill="none" />
<polyline points="139.0,83.5,131.0,91.0,124.0,98.0,116.5,106.0,109.0,113.5" stroke="black" stroke-width="2" fill="none" />
<polyline points="99.5,106.5,108.0,99.5,116.0,92.0,124.5,84.5,132.0,76.5" stroke="black" stroke-width="2" fill="none" />
<polyline points="135.5,75.0,151.5,83.0" stroke="black" stroke-width="2" fill="none" />
<polyline points="159.5,73.0,167.5,72.5,175.5,71.5,183.5,68.0,192.0,65.5,200.0,58.0,207.5,45.5,203.0,46.5,198.0,54.5,189.0,62.5" stroke="black" stroke-width="2" fill="none" />
<polyline points="180.0,56.5,171.5,57.5,163.0,58.0,155.5,58.5" stroke="black" stroke-width="2" fill="none" />
<polyline points="150.5,55.0,158.5,54.0,165.5,53.5,173.0,53.0,180.5,52.5,188.5,51.5,196.0,51.0,204.0,50.5,212.0,49.5,219.0,49.0" stroke="black" stroke-width="2" fill="none" />
<polyline points="211.5,51.5,209.5,59.5,202.0,67.5,184.5,75.5" stroke="black" stroke-width="2" fill="none" />
<polyline points="205.0,86.0,197.0,86.5,188.5,86.5,181.0,87.0,173.0,88.0,164.5,88.5,157.0,89.5,149.0,90.0,140.5,90.5,132.5,90.5,124.5,91.5,116.5,91.5,108.5,92.5,100.5,93.5,93.0,94.5,85.5,95.0" stroke="black" stroke-width="2" fill="none" />
<polyline points="84.5,97.5,91.5,90.5,98.5,83.5,105.5,76.0,113.5,68.5,121.5,61.0" stroke="black" stroke-width="2" fill="none" />
<polyline points="116.0,59.5,108.0,67.0,99.5,74.5,91.5,81.5,83.5,89.0" stroke="black" stroke-width="2" fill="none" />
<polyline points="75.5,84.5,83.5,84.0,91.5,83.0,99.0,83.0,106.5,82.5,114.0,82.5,122.5,82.0,130.5,82.0,139.0,81.5,147.0,81.5,155.0,81.5,163.0,81.0,171.0,80.0,179.0,80.0,187.0,79.5,195.0,79.0,203.5,79.0" stroke="black" stroke-width="2" fill="none" />
<polyline points="210.0,70.5,202.0,71.0,194.5,71.0,186.0,71.5,178.5,72.0,171.0,72.5,163.0,73.5,155.0,74.0,147.0,74.0,138.5,74.0,130.5,74.0,123.0,74.0,115.0,74.0,107.5,74.5,99.5,75.0,91.5,75.5,84.0,76.0,76.0,76.5" stroke="black" stroke-width="2" fill="none" />
<polyline points="85.0,79.0,92.5,71.0,100.0,63.5,108.0,56.5,116.5,49.0,124.0,41.5,132.0,34.0,140.0,26.0,148.0,18.5" stroke="black" stroke-width="2" fill="none" />
<polyline points="147.0,14.5,152.5,23.0,152.0,31.0" stroke="black" stroke-width="2" fill="none" />
<polyline points="156.5,20.0,148.5,27.5,140.5,35.0,132.5,42.0" stroke="black" stroke-width="2" fill="none" />
<polyline points="137.0,45.0,150.5,53.5,154.5,61.5,145.0,63.5,144.0,67.0,152.0,65.0" stroke="black" stroke-width="2" fill="none" />
<polyline points="138.5,59.5,130.0,67.0,122.5,74.5,114.5,82.0,107.0,90.0,99.0,97.5,91.5,105.0" stroke="black" stroke-width="2" fill="none" />
<polyline points="91.0,105.0,99.0,106.0,101.5,117.5,105.0,125.5,110.5,134.0,114.5,141.5,117.5,149.5,121.5,157.5,124.5,165.0,127.0,173.0,128.5,181.0,130.5,188.5,134.5,198.5,134.5,206.0,134.0,212.5,142.0,212.0,149.5,212.5,158.0,212.5,166.0,212.5,174.0,212.5,182.0,212.5,190.0,212.5,198.0,212.5,205.5,214.0,213.5,213.5" stroke="black" stroke-width="2" fill="none" />
<polyline points="156.5,213.5,153.5,205.5,154.5,197.5,157.5,189.0,161.0,180.5,163.0,172.5,165.0,164.0,168.5,156.0,171.5,147.5,175.5,139.5,180.5,131.5,174.5,144.0,167.5,143.0,168.5,141.0,171.5,134.0,179.0,125.5,184.0,123.5,188.5,116.0,192.5,108.5,197.5,100.5,201.5,93.0,205.5,85.5,208.0,77.5,197.0,84.0,189.0,85.5,181.0,87.0,173.0,86.5,165.0,85.5,156.5,85.0,148.5,82.0,140.5,78.0,132.5,72.0" stroke="black" stroke-width="2" fill="none" />
<polyline points="129.0,69.0,137.0,72.0,145.0,74.0,153.0,76.5,161.0,77.5,169.0,78.0,177.0,77.0,185.0,75.0,193.0,72.0,200.5,68.0,208.5,61.0,202.5,75.0" stroke="black" stroke-width="2" fill="none" />
<polyline points="204.5,72.5,196.5,76.5,188.5,78.5,180.5,80.5,172.0,80.0,163.5,80.0,155.5,79.0,147.0,79.0,139.0,74.0" stroke="black" stroke-width="2" fill="none" />
<polyline points="142.0,74.0,133.0,65.0" stroke="black" stroke-width="2" fill="none" />
<polyline points="131.0,61.0,123.5,68.5,115.5,76.0,107.5,83.0,99.5,90.0,91.5,97.0" stroke="black" stroke-width="2" fill="none" />
<polyline points="94.0,92.5,86.0,99.5" stroke="black" stroke-width="2" fill="none" />
<polyline points="90.5,110.0,98.5,109.5,107.0,109.0,115.5,108.5,124.0,107.5,132.5,107.0,141.0,107.0,149.5,106.5,157.5,106.5,166.0,106.5,174.5,106.0,182.5,105.0,189.5,104.5,197.0,104.0" stroke="black" stroke-width="2" fill="none" />
<polyline points="193.0,102.5,184.0,113.5,175.5,125.0,172.5,134.0" stroke="black" stroke-width="2" fill="none" />
<polyline points="121.0,158.5,129.0,184.0" stroke="black" stroke-width="2" fill="none" />
<polyline points="100.5,124.0,108.5,121.0,119.0,121.5,130.5,124.5,139.0,130.5,147.0,133.0,155.5,133.0,164.0,132.0,172.0,129.0,180.0,125.0" stroke="black" stroke-width="2" fill="none" />
<polyline points="156.5,50.5,165.0,42.5,173.5,34.0,182.5,26.5" stroke="black" stroke-width="2" fill="none" />
<polyline points="186.5,22.0,183.5,30.0,181.0,37.5,178.5,45.5,170.5,53.5,174.0,55.5,182.0,48.0" stroke="black" stroke-width="2" fill="none" />
<polyline points="163.5,36.5,156.0,37.5,148.5,38.5,141.0,39.5,133.5,40.0,125.0,41.0,117.5,42.0,109.5,42.5,101.5,43.0,93.5,43.0" stroke="black" stroke-width="2" fill="none" />
<polyline points="100.5,45.5,92.0,53.5,86.5,61.5,80.5,69.5,77.5,76.5,77.0,73.0,85.0,63.0,93.0,52.5,101.0,45.5" stroke="black" stroke-width="2" fill="none" />
<polyline points="100.0,49.0,93.0,57.0,87.0,65.0,81.0,73.0,78.0,76.5,86.0,66.5,93.5,55.0,101.5,48.0,113.5,48.0,121.5,46.0,130.0,45.5,137.5,45.0,145.5,50.0" stroke="black" stroke-width="2" fill="none" />
<polyline points="139.0,42.0,147.5,34.0,155.5,26.0,163.5,18.5" stroke="black" stroke-width="2" fill="none" />
<polyline points="161.5,18.0,165.5,19.0,167.5,27.0,166.5,34.5,162.0,42.5" stroke="black" stroke-width="2" fill="none" />
<polyline points="147.0,31.5,139.5,32.0,132.0,32.0,124.5,32.5,117.0,32.5,109.0,33.0" stroke="black" stroke-width="2" fill="none" />
<polyline points="110.0,27.0,101.5,34.5,92.5,42.0,84.0,49.5,76.0,57.5" stroke="black" stroke-width="2" fill="none" />
<polyline points="83.0,58.5,91.0,58.0,99.0,57.5" stroke="black" stroke-width="2" fill="none" />
<polyline points="105.5,58.0,111.5,55.5,116.5,58.5,123.5,67.0,132.5,69.0,143.0,77.0,152.0,81.0,160.0,82.5,168.5,83.5,176.5,84.5,184.5,83.5,193.0,81.5,201.0,77.5,209.0,72.5,205.0,70.5" stroke="black" stroke-width="2" fill="none" />
<polyline points="211.0,38.5,204.0,38.5,196.5,39.5,188.5,39.5,180.0,39.5,171.5,39.5,163.5,40.0,155.5,40.0,147.5,40.5,139.5,41.0,132.0,41.5,123.5,42.0,115.0,42.5,107.5,43.5,99.5,44.0,91.5,44.5,83.5,45.0,75.5,45.5" stroke="black" stroke-width="2" fill="none" />
<polyline points="74.0,45.0,82.0,47.0" stroke="black" stroke-width="2" fill="none" />
<polyline points="84.0,49.5,92.0,49.0,99.5,48.0,108.0,47.5" stroke="black" stroke-width="2" fill="none" />
<polyline points="114.0,47.5,106.0,55.5,103.5,63.5,107.5,71.5,101.5,79.0,106.5,79.0,112.5,88.0,113.5,91.0,117.0,99.0,121.0,103.0,127.0,110.0,136.0,118.0" stroke="black" stroke-width="2" fill="none" />
<polyline points="115.5,97.0,107.5,97.5,99.0,98.0" stroke="black" stroke-width="2" fill="none" />
<polyline points="99.5,91.0,107.5,90.5" stroke="black" stroke-width="2" fill="none" />
<polyline points="100.5,83.5,94.0,91.0,85.0,93.0,92.5,84.5,99.5,73.5" stroke="black" stroke-width="2" fill="none" />
<polyline points="97.0,77.0,91.0,85.0,82.0,93.0,90.0,94.0,98.5,84.0,107.5,95.0" stroke="black" stroke-width="2" fill="none" />
<polyline points="99.5,109.0,92.0,109.5" stroke="black" stroke-width="2" fill="none" />
<polyline points="75.5,80.5,83.5,72.5,91.5,64.5,99.5,56.0,107.0,48.5,114.5,41.5,122.5,34.5,130.5,27.0,138.5,19.5" stroke="black" stroke-width="2" fill="none" />
<polyline points="141.5,20.0,133.5,16.0" stroke="black" stroke-width="2" fill="none" />
<polyline points="137.5,14.0,143.5,22.5,143.5,31.0" stroke="black" stroke-width="2" fill="none" />
<polyline points="130.5,21.5,123.0,29.0,115.5,36.5,108.0,43.5,100.0,50.5,92.0,58.0,83.5,65.5,74.5,73.0" stroke="black" stroke-width="2" fill="none" />
<polyline points="75.0,64.5,82.5,57.0,90.5,49.5,98.5,42.0,106.0,34.5,114.0,27.0,122.0,19.0" stroke="black" stroke-width="2" fill="none" />
<polyline points="122.0,16.0,130.0,19.0,133.5,16.0,136.5,24.0" stroke="black" stroke-width="2" fill="none" />
<polyline points="143.5,14.5,151.5,21.5,159.5,22.5,159.5,31.0,157.5,39.0,166.5,40.5" stroke="black" stroke-width="2" fill="none" />
<polyline points="173.0,49.0,170.5,47.0,175.0,38.5,178.0,30.5,179.0,23.0,178.5,19.0" stroke="black" stroke-width="2" fill="none" />
<polyline points="181.0,19.5,182.0,27.5,180.0,35.5,177.0,43.5,169.5,51.5,175.5,48.5" stroke="black" stroke-width="2" fill="none" />
<polyline points="168.5,36.5,170.5,28.5,170.5,20.0,170.5,16.5" stroke="black" stroke-width="2" fill="none" />
<polyline points="172.0,18.0,174.0,26.0,173.0,34.0,170.0,42.0,170.0,47.0" stroke="black" stroke-width="2" fill="none" />
<polyline points="140.0,58.0,132.0,59.0,124.0,59.5,116.5,59.5,108.5,59.5,100.5,59.5,92.0,59.0,84.0,58.5,76.0,58.0,68.0,58.5" stroke="black" stroke-width="2" fill="none" />
<polyline points="69.0,53.5,77.0,50.0,83.0,56.0,76.0,64.0,79.0,61.0" stroke="black" stroke-width="2" fill="none" />
<polyline points="69.5,53.0,77.5,53.0,85.0,52.5,92.5,52.0,101.0,51.5,109.0,51.5,116.5,51.5,124.5,51.5,133.0,51.0,140.5,50.5" stroke="black" stroke-width="2" fill="none" />
<polyline points="140.0,54.0,132.0,52.0,124.5,54.0,116.5,52.0" stroke="black" stroke-width="2" fill="none" />
<polyline points="113.5,59.5,116.5,67.5,123.0,75.0,131.0,83.0,137.5,91.5,151.5,99.5" stroke="black" stroke-width="2" fill="none" />
<polyline points="184.0,109.5,175.5,112.5,167.0,114.0,158.5,114.5,150.5,113.0,142.0,109.0,134.0,103.0,125.5,94.5,117.0,85.5,110.0,75.5,102.0,63.5" stroke="black" stroke-width="2" fill="none" />
<polyline points="100.0,65.0,95.0,73.5,89.5,81.0,79.0,83.5,87.5,75.5,95.0,63.0,103.0,53.0,115.5,49.0,117.5,63.0,125.5,72.0,133.5,76.0,141.5,82.5,149.5,87.5,157.5,91.0,165.5,93.0,174.0,93.0,182.0,92.0,190.0,89.5,198.5,85.5" stroke="black" stroke-width="2" fill="none" />
<polyline points="149.0,91.5,136.0,83.0,126.5,75.0,119.5,67.5,113.5,59.5" stroke="black" stroke-width="2" fill="none" />
<polyline points="101.5,66.0,104.5,74.0,111.5,77.0,118.0,85.0,125.0,93.0,132.0,101.5,144.5,109.0" stroke="black" stroke-width="2" fill="none" />
<polyline points="145.0,85.5,135.0,77.5,129.0,69.5,135.0,61.0,134.5,53.5" stroke="black" stroke-width="2" fill="none" />
<polyline points="138.0,61.0,129.5,65.0,121.0,62.5,121.5,55.5,115.5,53.5,121.5,45.5" stroke="black" stroke-width="2" fill="none" />
<polyline points="121.0,41.0,113.0,44.0,105.0,49.5,97.0,58.5,89.0,71.5,80.5,80.0,78.5,82.5,86.5,74.0,91.5,66.5,96.5,58.5,104.0,51.0,116.0,43.0" stroke="black" stroke-width="2" fill="none" />
<polyline points="99.0,26.5,91.0,34.0,83.0,42.0,75.5,49.0" stroke="black" stroke-width="2" fill="none" />
<polyline points="80.0,49.0,72.0,50.0,68.0,60.5,70.0,58.5,69.0,50.5" stroke="black" stroke-width="2" fill="none" />
<polyline points="71.0,43.0,79.5,41.0,83.5,33.0,87.0,37.0,93.0,31.0,93.0,34.0,101.0,34.5" stroke="black" stroke-width="2" fill="none" />
<polyline points="100.0,24.0,107.5,26.5,114.5,21.5,124.5,19.5" stroke="black" stroke-width="2" fill="none" />
<polyline points="126.0,16.0,128.5,24.5,137.0,28.5" stroke="black" stroke-width="2" fill="none" />
<polyline points="126.5,23.5,118.5,19.0,110.5,19.0" stroke="black" stroke-width="2" fill="none" />
<polyline points="111.0,19.0,120.0,27.0" stroke="black" stroke-width="2" fill="none" />
<polyline points="115.0,26.5,107.5,23.5,99.5,23.5" stroke="black" stroke-width="2" fill="none" />
<polyline points="99.5,22.0,107.5,21.5,116.0,21.0,124.0,21.0,132.0,21.0,140.0,20.0,148.0,20.0,156.0,19.5,163.5,19.0,171.0,18.5,179.5,17.5,187.0,17.0,195.5,16.5" stroke="black" stroke-width="2" fill="none" />
<polyline points="189.5,21.5,189.5,29.5,187.5,37.5,183.5,46.0,176.5,54.0,177.0,61.5,185.0,55.0,192.5,45.0" stroke="black" stroke-width="2" fill="none" />
<polyline points="202.5,33.5,195.0,45.5,187.5,56.5,179.5,62.5,176.0,64.5,188.0,56.5,195.0,48.5,199.0,40.5,203.0,32.5" stroke="black" stroke-width="2" fill="none" />
<polyline points="217.5,15.0,226.0,14.5,234.0,14.5,242.0,14.0,251.0,13.5,260.0,13.0" stroke="black" stroke-width="2" fill="none" />
<polyline points="258.0,21.0,250.5,21.5,242.5,21.5" stroke="black" stroke-width="2" fill="none" />
<polyline points="262.5,-0.5,253.5,0.0,245.0,1.0,236.5,2.5,228.0,3.5,219.5,4.5,211.0,5.0,202.5,5.0,194.0,5.5,185.5,6.0,177.5,6.5" stroke="black" stroke-width="2" fill="none" />
<polyline points="172.0,12.0,164.0,12.5,155.5,13.0,148.0,13.5,140.5,14.0,133.0,14.0,124.5,14.5" stroke="black" stroke-width="2" fill="none" />
<polyline points="127.0,16.5,135.0,24.5" stroke="black" stroke-width="2" fill="none" />
<polyline points="152.5,14.5,161.5,17.5,161.5,25.5,160.5,33.5" stroke="black" stroke-width="2" fill="none" />
<polyline points="155.5,31.0,155.5,22.5,154.5,14.5" stroke="black" stroke-width="2" fill="none" />
<polyline points="127.5,26.5,115.5,18.5" stroke="black" stroke-width="2" fill="none" />
<polyline points="108.0,23.5,104.5,29.5,96.0,28.0,88.0,28.0" stroke="black" stroke-width="2" fill="none" />
<polyline points="85.0,30.0,93.0,30.0,101.0,29.0,109.0,28.5,116.5,28.0,124.0,27.5,132.0,27.0,139.5,26.5,147.0,26.0,154.5,25.0,162.0,24.5,170.5,24.0,178.5,24.0,186.5,24.0,194.0,23.0,201.5,22.5" stroke="black" stroke-width="2" fill="none" />
<polyline points="210.0,30.0,203.0,30.5,196.0,31.5,188.0,31.5,179.5,31.5,171.5,32.0,164.0,32.5,156.0,33.0,148.0,33.5,139.5,34.0,131.0,34.5,123.0,35.0,115.0,35.5,107.0,36.0,99.0,37.0,91.5,38.0,83.5,38.5,75.0,39.0" stroke="black" stroke-width="2" fill="none" />
<polyline points="68.0,7.0,59.5,7.0" stroke="black" stroke-width="2" fill="none" />
<polyline points="45.5,5.5,38.0,6.0,30.0,6.0,22.0,6.5" stroke="black" stroke-width="2" fill="none" />
<polyline points="13.5,6.5,6.0,7.5" stroke="black" stroke-width="2" fill="none" />
</svg>