<svg xmlns="http://www.w3.org/2000/svg" version="1.1"><polyline points="84.0,17.0,89.0,25.0,84.0,30.5,83.5,38.5,87.5,46.5,91.0,54.5,95.0,62.5,95.0,70.5" stroke="black" stroke-width="2" fill="none" />
<polyline points="99.5,69.5,91.5,77.0" stroke="black" stroke-width="2" fill="none" />
<polyline points="82.5,79.0,90.5,78.0,98.0,77.0,105.5,76.5" stroke="black" stroke-width="2" fill="none" />
<polyline points="105.5,76.5,114.0,75.5,106.0,77.5,105.5,85.5,109.5,93.5,114.0,101.0,118.0,109.5,125.5,113.5,129.0,121.5,131.0,129.5,136.0,137.5,145.0,145.5,157.0,148.0,165.0,155.0,173.0,161.0,181.0,165.5,188.5,169.5,196.0,173.0" stroke="black" stroke-width="2" fill="none" />
<polyline points="194.5,176.0,202.0,175.5,210.5,175.0,218.5,175.0,227.0,174.5,235.5,174.0,243.0,173.5,251.5,173.5,260.0,173.5" stroke="black" stroke-width="2" fill="none" />
<polyline points="260.0,170.5,252.0,178.0,244.0,186.0,235.5,194.0,227.5,201.5,220.0,209.0,211.5,216.0,203.5,223.0,195.0,230.5,186.5,238.5,178.0,246.0,170.0,253.0" stroke="black" stroke-width="2" fill="none" />
<polyline points="202.5,255.0,209.5,248.5,217.5,241.5,225.5,235.0,233.5,228.0,242.0,221.5,250.5,214.0,259.0,206.5" stroke="black" stroke-width="2" fill="none" />
<polyline points="258.5,212.5,250.5,219.5,242.5,227.0,235.0,233.5,227.0,240.0,219.0,247.5,210.5,255.0" stroke="black" stroke-width="2" fill="none" />
<polyline points="252.5,257.5,260.5,250.0" stroke="black" stroke-width="2" fill="none" />
<polyline points="259.5,241.0,251.5,249.0,243.0,256.5" stroke="black" stroke-width="2" fill="none" />
<polyline points="235.0,257.5,243.0,250.0,251.0,242.0,259.0,234.5" stroke="black" stroke-width="2" fill="none" />
<polyline points="259.0,225.5,251.0,233.0,243.5,241.0,235.5,249.0,227.5,256.5" stroke="black" stroke-width="2" fill="none" />
<polyline points="217.5,255.5,225.5,248.0,233.5,241.0,242.0,233.5,250.5,226.0,258.5,219.0" stroke="black" stroke-width="2" fill="none" />
<polyline points="259.5,196.0,251.5,203.5,243.5,210.5,235.5,218.0,227.0,225.0,219.0,232.5,211.0,240.0,202.5,248.0,194.5,256.0" stroke="black" stroke-width="2" fill="none" />
<polyline points="189.5,257.0,197.5,250.0,205.5,242.0,214.0,234.0,222.0,225.5,230.0,218.0,237.5,210.0,244.5,201.5,252.0,194.0,259.5,186.0" stroke="black" stroke-width="2" fill="none" />
<polyline points="259.0,178.0,251.0,185.5,243.5,193.0,236.0,200.5,228.5,208.0,220.5,215.5,212.5,223.5,205.0,232.0,197.0,240.0,189.5,247.5,181.5,255.0" stroke="black" stroke-width="2" fill="none" />
<polyline points="162.5,253.0,170.5,245.0,178.5,237.5,186.5,230.0,194.5,222.5,202.0,215.5,209.5,208.5,217.5,201.0,226.0,193.5,234.0,185.5,242.0,178.0,250.5,170.0,258.5,163.0" stroke="black" stroke-width="2" fill="none" />
<polyline points="257.5,154.5,250.0,162.0,242.5,170.5,234.5,178.5,226.0,186.0,218.0,194.0,210.0,201.0,202.0,208.5,194.0,216.0,186.0,224.0,178.5,231.0,170.0,238.5,162.0,246.5,154.0,254.0" stroke="black" stroke-width="2" fill="none" />
<polyline points="146.5,251.0,154.5,243.5,162.5,236.5,170.5,229.5,178.5,222.0,186.5,214.5,194.5,207.0,202.5,199.5,210.5,192.0,218.5,185.0,226.5,177.0,235.0,169.5,243.0,162.0,251.0,154.5,259.5,147.0" stroke="black" stroke-width="2" fill="none" />
<polyline points="259.5,139.0,251.5,146.5,243.5,154.0,235.5,161.5,227.0,169.0,219.0,177.0,210.5,184.0,202.5,191.0,194.5,198.0,186.5,205.0,179.0,212.0,171.0,219.5,163.5,227.5,156.0,235.5,148.5,243.5,140.5,252.0" stroke="black" stroke-width="2" fill="none" />
<polyline points="132.0,250.0,140.5,242.5,148.5,235.0,157.0,227.5,165.0,220.0,173.0,212.0,180.5,204.5,188.5,197.0,196.5,189.5,205.0,182.5,213.0,176.0,221.0,169.0,229.0,162.0,237.0,154.5,244.5,147.0,252.5,139.5,260.5,132.0" stroke="black" stroke-width="2" fill="none" />
<polyline points="259.5,124.5,251.5,132.0,244.0,140.0,236.5,147.0,229.0,154.5,221.5,161.5,213.5,168.5,205.5,175.0,198.0,182.0,189.5,189.5,182.0,197.5,174.0,204.5,165.5,212.0,157.0,219.5,148.5,227.5,140.0,235.0,132.0,242.5,123.5,249.5" stroke="black" stroke-width="2" fill="none" />
<polyline points="115.5,249.5,124.0,242.0,132.0,234.5,140.0,227.0,148.5,220.0,156.5,212.0,164.5,205.0,172.5,198.0,180.0,191.0,188.0,182.5,195.5,174.5,204.0,167.0,212.0,160.0,220.0,152.5,228.5,145.5,236.5,138.0,245.0,131.0,254.0,124.5,262.0,117.5" stroke="black" stroke-width="2" fill="none" />
<polyline points="262.5,108.5,254.0,116.0,245.5,123.0,237.0,130.0,228.5,137.5,220.0,145.0,211.5,152.5,203.5,160.0,195.5,167.5,187.5,175.0,179.5,182.0,171.5,190.0,163.5,197.5,155.0,205.0,147.5,212.0,139.5,219.0,131.0,226.5,123.0,234.0,115.0,241.5,106.5,248.5" stroke="black" stroke-width="2" fill="none" />
<polyline points="99.5,254.0,108.0,247.5,116.0,240.5,124.5,233.5,132.0,226.5,139.0,219.0,146.5,212.0,154.5,204.5,163.0,197.5" stroke="black" stroke-width="2" fill="none" />
<polyline points="171.0,194.5,179.0,194.5,187.5,194.5,195.5,194.0,203.0,193.5,211.0,193.0,219.5,192.5,228.0,191.5,236.5,191.0,244.5,190.0,252.5,189.5,260.5,189.0" stroke="black" stroke-width="2" fill="none" />
<polyline points="259.5,161.5,251.5,162.0,243.0,162.5,234.5,163.5" stroke="black" stroke-width="2" fill="none" />
<polyline points="228.0,170.5,236.5,170.0,244.0,169.5,251.5,169.0,259.0,168.5" stroke="black" stroke-width="2" fill="none" />
<polyline points="259.0,152.0,251.0,152.0,243.5,152.5" stroke="black" stroke-width="2" fill="none" />
<polyline points="212.0,143.0,220.0,136.5,228.0,129.0,236.5,122.5,244.5,115.5,253.0,108.5,261.0,101.5" stroke="black" stroke-width="2" fill="none" />
<polyline points="260.0,94.0,252.0,101.0,243.5,108.0,235.0,115.0,227.5,122.0,220.0,129.5,211.5,136.0" stroke="black" stroke-width="2" fill="none" />
<polyline points="212.5,141.0,220.5,140.5,228.5,141.0,236.0,141.0,244.0,141.5,251.5,141.0,260.0,140.5" stroke="black" stroke-width="2" fill="none" />
<polyline points="236.0,90.5,228.0,98.0,220.0,105.5,212.0,113.5,204.0,121.0,195.5,128.5" stroke="black" stroke-width="2" fill="none" />
<polyline points="192.5,126.5,200.5,135.0,208.5,143.5,219.0,151.5,233.0,160.0" stroke="black" stroke-width="2" fill="none" />
<polyline points="204.0,153.0,195.5,161.0,187.0,169.0,178.5,176.5,170.5,185.0" stroke="black" stroke-width="2" fill="none" />
<polyline points="172.5,184.5,181.0,184.0,188.5,183.5,196.0,183.0,203.5,182.5,212.0,182.0,220.0,182.0,228.0,181.5,236.5,181.5,244.0,181.5,252.0,181.5,260.5,181.0" stroke="black" stroke-width="2" fill="none" />
<polyline points="196.0,155.0,188.5,162.5,181.5,170.5,173.5,178.5" stroke="black" stroke-width="2" fill="none" />
<polyline points="173.5,177.0,181.0,176.5,189.0,175.0" stroke="black" stroke-width="2" fill="none" />
<polyline points="187.0,156.5,179.0,163.5,171.0,171.5,163.0,179.0" stroke="black" stroke-width="2" fill="none" />
<polyline points="163.0,180.5,171.0,180.0,179.5,180.0,187.5,179.5,195.5,179.5,203.5,179.5,211.5,180.0,220.0,179.5,228.0,179.0,236.5,178.0,244.5,177.5,252.5,177.0,260.5,177.0" stroke="black" stroke-width="2" fill="none" />
<polyline points="204.5,135.0,212.0,128.0,220.0,121.0,227.5,113.5,235.5,106.5,243.5,99.5,251.5,91.5,260.0,84.0" stroke="black" stroke-width="2" fill="none" />
<polyline points="258.5,75.5,251.0,83.0,243.5,91.0,236.0,98.5,228.0,106.0,220.5,113.5,212.0,121.0,204.0,128.0" stroke="black" stroke-width="2" fill="none" />
<polyline points="204.0,133.0,212.5,132.5,220.5,132.0,229.0,131.5,237.0,131.5,245.0,131.5,253.5,131.0,261.5,131.0" stroke="black" stroke-width="2" fill="none" />
<polyline points="204.0,115.0,196.0,123.0" stroke="black" stroke-width="2" fill="none" />
<polyline points="195.0,116.0,187.0,124.0" stroke="black" stroke-width="2" fill="none" />
<polyline points="185.5,129.0,186.5,137.0,194.5,145.5,203.5,152.0,216.5,160.0" stroke="black" stroke-width="2" fill="none" />
<polyline points="178.5,149.0,187.0,148.5,194.5,148.0,202.5,147.5,210.0,147.0,218.0,146.0,225.5,145.5,233.5,145.0,242.0,144.0,250.5,143.0,258.5,142.5" stroke="black" stroke-width="2" fill="none" />
<polyline points="258.0,73.0,250.5,73.5,242.5,74.0,234.5,74.5,227.0,75.0,219.0,75.5,211.0,76.0,203.0,76.0,194.5,76.5" stroke="black" stroke-width="2" fill="none" />
<polyline points="203.0,69.0,211.0,68.5,218.5,68.5,226.5,68.0,235.0,67.5,243.5,67.5,252.0,67.5,260.0,67.0" stroke="black" stroke-width="2" fill="none" />
<polyline points="259.5,29.5,251.0,30.0,243.0,31.0" stroke="black" stroke-width="2" fill="none" />
<polyline points="244.5,23.5,252.5,23.0,260.0,22.0" stroke="black" stroke-width="2" fill="none" />
<polyline points="258.0,13.5,250.0,14.5,242.5,15.0" stroke="black" stroke-width="2" fill="none" />
<polyline points="243.5,5.5,251.5,5.0,259.5,5.0" stroke="black" stroke-width="2" fill="none" />
<polyline points="259.5,37.0,251.5,37.0,243.5,37.5,235.5,38.0" stroke="black" stroke-width="2" fill="none" />
<polyline points="227.0,46.5,235.5,46.0,244.5,45.5,253.0,44.5,260.5,43.5" stroke="black" stroke-width="2" fill="none" />
<polyline points="261.0,51.5,252.5,52.0,244.0,52.5,236.0,53.5,228.0,54.5,220.0,54.5" stroke="black" stroke-width="2" fill="none" />
<polyline points="213.0,63.0,220.5,63.0,228.0,62.0,236.0,61.0,243.0,60.5,251.0,59.5,259.5,59.0" stroke="black" stroke-width="2" fill="none" />
<polyline points="261.0,79.5,253.0,80.0,245.0,81.0,237.5,81.5,228.5,82.0,219.5,82.5,211.0,82.5,203.5,83.0,196.0,83.0,188.5,83.5,180.5,84.0,173.0,84.5" stroke="black" stroke-width="2" fill="none" />
<polyline points="163.5,98.0,155.5,106.0,147.0,114.0,139.0,122.0" stroke="black" stroke-width="2" fill="none" />
<polyline points="138.5,115.5,147.0,108.0,155.0,100.0" stroke="black" stroke-width="2" fill="none" />
<polyline points="154.5,93.0,147.0,100.0,138.5,107.5,130.5,114.5,122.0,121.5,114.0,128.5,106.5,135.5,99.5,143.0,92.0,150.5,84.0,158.0,76.0,165.5" stroke="black" stroke-width="2" fill="none" />
<polyline points="77.0,167.0,68.5,175.5,60.5,184.5,53.0,191.5,62.5,183.5,69.0,175.5,74.0,168.0" stroke="black" stroke-width="2" fill="none" />
<polyline points="78.5,170.0,77.0,178.5,71.0,186.5,66.0,186.5,56.5,194.0,53.5,195.5,62.0,189.5,67.0,190.0" stroke="black" stroke-width="2" fill="none" />
<polyline points="69.0,189.5,61.0,197.0,53.0,203.5,45.0,211.0,36.5,219.0,27.5,226.0,19.0,233.5,10.0,240.0,1.5,247.0" stroke="black" stroke-width="2" fill="none" />
<polyline points="5.5,246.0,13.5,245.5,21.5,245.5,29.0,245.5,36.0,245.0,43.5,245.0,51.5,243.5,59.0,242.0,66.5,241.0,73.5,240.0,81.5,239.0,89.5,239.5,98.0,239.5,107.0,239.0,115.5,238.5,123.5,238.0,131.5,237.5,139.5,237.0,147.0,236.5,154.5,235.5,162.5,234.5,171.0,234.0,179.0,234.0,187.0,233.5,195.0,233.0,202.5,232.5,210.5,232.0,218.5,231.5,226.0,231.0,234.0,230.5,241.5,230.0,250.0,229.0,258.0,228.5" stroke="black" stroke-width="2" fill="none" />
<polyline points="259.0,211.5,250.5,212.0,242.5,212.5,234.5,213.0,227.0,213.5,219.0,214.0,210.5,215.0,202.5,216.0,194.5,217.5,187.0,218.0" stroke="black" stroke-width="2" fill="none" />
<polyline points="188.5,211.0,196.5,210.0,203.5,209.5,211.0,209.0,218.5,208.0,226.0,207.0,234.0,206.0,242.5,205.0,251.0,204.0,259.5,203.5" stroke="black" stroke-width="2" fill="none" />
<polyline points="259.0,194.5,251.0,195.0,243.0,196.0,235.0,197.5,228.0,198.5,220.0,199.0,212.0,199.5,203.5,200.0,195.0,200.5,186.5,201.0,178.5,201.5" stroke="black" stroke-width="2" fill="none" />
<polyline points="179.0,216.0,170.5,216.5" stroke="black" stroke-width="2" fill="none" />
<polyline points="164.5,187.5,156.5,195.0,148.0,203.0,140.0,210.5,132.0,218.5,123.5,225.5,116.0,232.5,107.5,239.5,99.5,246.5,91.0,253.5" stroke="black" stroke-width="2" fill="none" />
<polyline points="85.0,256.5,93.5,249.5,101.5,242.5,109.5,235.0,117.0,227.5,124.5,220.0,132.5,213.0,141.0,205.5" stroke="black" stroke-width="2" fill="none" />
<polyline points="141.0,196.5,133.0,204.0,125.0,212.0,117.0,219.0,109.0,226.5,101.0,234.0,93.0,241.5,85.0,248.5,77.0,256.0" stroke="black" stroke-width="2" fill="none" />
<polyline points="68.0,255.0,76.0,247.0,83.5,239.5,92.0,232.0,100.5,225.0,108.5,218.0,116.5,211.0,124.5,204.0" stroke="black" stroke-width="2" fill="none" />
<polyline points="122.5,201.5,115.0,202.5,107.5,203.5,99.5,204.0,91.5,204.5,83.0,205.5,75.5,205.5,67.5,206.0,59.5,206.0,51.0,205.0,43.5,204.5,35.5,205.5,28.0,206.0,20.0,206.5,12.0,207.0,4.0,207.0" stroke="black" stroke-width="2" fill="none" />
<polyline points="5.0,209.5,13.0,202.5,20.5,195.0,28.5,187.5,36.5,180.0,44.5,172.5" stroke="black" stroke-width="2" fill="none" />
<polyline points="44.5,172.5,36.0,173.5,28.0,174.0,20.0,174.5,12.0,175.0,3.5,175.0" stroke="black" stroke-width="2" fill="none" />
<polyline points="3.5,175.5,11.5,167.5,19.5,160.0,27.0,152.0,35.0,144.5,43.5,137.0,51.5,129.5,60.0,122.0" stroke="black" stroke-width="2" fill="none" />
<polyline points="65.5,123.0,58.0,130.0,50.0,137.5,42.0,145.0,34.5,152.5,26.5,160.5,18.5,168.5,10.5,176.5,2.5,184.5" stroke="black" stroke-width="2" fill="none" />
<polyline points="3.5,185.0,11.5,184.5,18.5,184.0,26.0,184.0" stroke="black" stroke-width="2" fill="none" />
<polyline points="26.5,197.0,19.0,204.5,11.0,212.0,3.0,219.0" stroke="black" stroke-width="2" fill="none" />
<polyline points="3.0,221.0,11.0,220.5,19.0,220.0,27.0,220.5,34.5,221.0,42.5,220.5,50.5,220.0,58.5,220.0,66.5,219.0,74.0,217.5,81.5,217.0,90.0,216.5,98.0,216.5,106.5,216.5,116.0,216.0,124.0,215.5,132.0,215.0,139.5,214.0,147.5,213.5,155.0,213.0,163.0,212.5,171.0,212.5,179.5,212.5,187.5,212.0,195.0,211.5,203.0,211.0,211.5,210.5,220.0,209.5,228.5,209.0,236.5,208.0,244.5,207.5,252.5,207.0,260.5,206.5" stroke="black" stroke-width="2" fill="none" />
<polyline points="172.5,163.5,164.5,170.5" stroke="black" stroke-width="2" fill="none" />
<polyline points="162.0,169.0,170.0,168.5" stroke="black" stroke-width="2" fill="none" />
<polyline points="161.5,171.0,169.5,170.5,178.0,170.5,186.5,170.0,195.0,169.5,203.0,169.5,211.5,169.5,219.5,170.0,227.0,170.5,235.0,170.5,242.5,170.0,251.0,169.5,259.0,169.0" stroke="black" stroke-width="2" fill="none" />
<polyline points="260.0,182.0,252.0,182.5,243.5,184.0,236.0,185.0,228.5,186.0,220.5,186.5,212.5,186.5,204.0,186.5,195.5,187.0,187.0,187.0,179.0,187.5,171.0,187.5,163.0,187.5,155.5,187.5,148.0,188.0,139.5,188.5" stroke="black" stroke-width="2" fill="none" />
<polyline points="141.0,181.0,148.5,180.5" stroke="black" stroke-width="2" fill="none" />
<polyline points="147.5,172.5,155.5,172.0" stroke="black" stroke-width="2" fill="none" />
<polyline points="150.5,172.5,154.5,180.5,159.0,188.5,164.0,197.0,170.5,205.0,178.5,213.0" stroke="black" stroke-width="2" fill="none" />
<polyline points="167.0,211.5,159.0,203.5,151.0,193.5" stroke="black" stroke-width="2" fill="none" />
<polyline points="132.0,187.5,124.0,188.0" stroke="black" stroke-width="2" fill="none" />
<polyline points="116.5,188.0,108.0,195.0,100.0,202.0,91.5,210.0,83.5,217.5,75.5,225.0,67.5,233.0,59.5,240.5,52.0,248.0,44.5,255.5" stroke="black" stroke-width="2" fill="none" />
<polyline points="19.5,250.0,27.5,242.0,35.5,234.5,43.5,227.5,51.0,220.0,59.0,212.0,67.0,203.5,75.0,195.5,83.5,188.0,91.5,180.0,99.5,173.0,107.5,165.5,116.0,158.5,124.5,152.0,132.5,145.5,140.5,138.5,148.0,131.0,156.0,124.0,164.0,116.5,172.0,109.0" stroke="black" stroke-width="2" fill="none" />
<polyline points="163.0,108.0,155.0,115.0,147.0,122.5,139.0,130.0,131.0,137.0,123.0,145.0,114.5,153.0,106.5,160.5,98.5,168.5" stroke="black" stroke-width="2" fill="none" />
<polyline points="93.0,170.0,101.0,162.5,108.5,154.0,116.0,146.0,123.5,138.5,131.5,131.0" stroke="black" stroke-width="2" fill="none" />
<polyline points="132.0,135.5,124.5,136.0,116.5,136.0,108.5,137.0" stroke="black" stroke-width="2" fill="none" />
<polyline points="109.0,130.0,117.0,129.5,124.5,129.5,133.0,129.5" stroke="black" stroke-width="2" fill="none" />
<polyline points="129.5,124.5,137.5,138.0,145.5,145.0" stroke="black" stroke-width="2" fill="none" />
<polyline points="148.0,141.5,140.0,149.0,132.0,156.0,123.5,163.5,115.5,170.5" stroke="black" stroke-width="2" fill="none" />
<polyline points="115.5,172.5,107.5,173.0,99.5,173.5,91.0,174.5" stroke="black" stroke-width="2" fill="none" />
<polyline points="91.0,171.5,90.0,179.5,85.0,187.5,77.0,194.5,85.0,185.5" stroke="black" stroke-width="2" fill="none" />
<polyline points="82.5,182.5,74.5,191.0,66.5,196.0,74.5,191.0,82.0,183.0" stroke="black" stroke-width="2" fill="none" />
<polyline points="85.0,181.5,76.5,189.0,68.5,196.5,60.5,204.0,52.0,211.5,44.0,219.0,35.5,225.5,27.5,232.5,19.0,239.5,11.0,246.5,2.5,253.5" stroke="black" stroke-width="2" fill="none" />
<polyline points="4.5,255.0,12.5,255.0,21.0,254.0,29.0,252.5,37.0,252.0,45.0,251.5,53.0,250.5,60.0,249.5,67.5,249.0,75.0,249.0,82.5,248.5,91.0,248.0,99.5,248.0,107.5,247.5,115.5,247.0,123.5,246.5,131.5,245.5,139.5,244.5,147.0,244.0,155.0,243.5,163.0,243.0,171.0,242.5,178.5,242.5,186.5,242.0,195.0,241.5,203.5,241.5,212.0,241.5,220.0,241.0,228.0,241.0,236.5,241.0,245.0,240.5,253.0,240.0,261.0,238.5" stroke="black" stroke-width="2" fill="none" />
<polyline points="260.5,243.5,252.5,244.0,245.0,244.5,237.0,245.0,229.0,245.0,221.5,245.0,213.5,245.0,205.0,245.5,197.0,245.5,189.0,245.5,180.5,246.0,172.5,246.5,164.0,247.0,156.0,247.5,148.0,248.0,140.0,248.5,132.5,249.0,124.5,249.5,116.5,250.5,109.0,251.5,101.0,252.0,92.5,252.5,84.5,253.5,76.5,253.5,69.0,254.0,61.0,254.5,53.0,255.5,45.5,255.5,37.5,256.0,29.5,256.5,21.5,256.5,13.5,256.5,5.5,257.5" stroke="black" stroke-width="2" fill="none" />
<polyline points="4.0,251.0,12.0,250.5,20.0,250.0,28.5,249.0,37.0,248.0,44.5,247.0,52.5,246.5,60.0,245.5,67.5,244.5,75.5,244.0,83.5,243.0,91.5,243.0,99.5,242.5,107.5,242.0,115.0,242.0,123.0,241.5,130.5,241.0,138.5,240.0,146.5,239.5,154.5,238.5,162.5,238.0,170.0,237.5,178.5,237.0,186.5,237.0,195.0,236.5,203.5,236.0,211.0,235.5,219.5,235.5,228.0,235.5,236.5,235.0,244.5,234.0,252.5,233.5,260.5,233.0" stroke="black" stroke-width="2" fill="none" />
<polyline points="259.0,225.0,251.0,225.0,243.0,225.5,235.0,225.5,226.5,226.0,218.5,226.5,210.5,227.0,203.0,227.5,195.0,228.0,186.5,229.0,178.5,230.0,170.5,231.5,163.0,232.0,154.5,232.5,147.0,233.5,139.0,234.0,131.0,234.0,122.5,234.0,114.5,234.0,106.5,234.5,98.5,235.0,91.0,236.0,83.5,236.5,75.0,237.0,66.5,237.0,58.5,237.5,51.0,238.0,43.5,239.0,35.5,239.5,27.5,240.0,19.5,240.5,11.5,242.0,3.5,242.5" stroke="black" stroke-width="2" fill="none" />
<polyline points="2.5,240.5,10.5,233.5,19.0,226.0,27.0,218.0,36.0,210.5,44.5,202.0,52.5,194.0,60.5,186.5,68.5,179.0" stroke="black" stroke-width="2" fill="none" />
<polyline points="70.0,173.5,78.0,173.0" stroke="black" stroke-width="2" fill="none" />
<polyline points="83.5,168.5,91.5,168.0,99.5,167.5" stroke="black" stroke-width="2" fill="none" />
<polyline points="105.5,168.0,113.5,168.5,122.0,168.5" stroke="black" stroke-width="2" fill="none" />
<polyline points="123.0,171.0,131.5,163.5,140.5,156.5,148.5,149.0" stroke="black" stroke-width="2" fill="none" />
<polyline points="153.5,147.5,145.0,155.0,137.5,162.5,130.0,170.0" stroke="black" stroke-width="2" fill="none" />
<polyline points="132.0,173.5,135.0,171.5,134.5,179.0,138.5,187.0,142.0,193.5,147.0,201.0,152.5,209.5" stroke="black" stroke-width="2" fill="none" />
<polyline points="125.0,195.5,117.0,202.5,108.5,209.5,100.0,216.5,92.0,224.0,83.5,231.5,75.0,238.5,67.0,246.5,59.0,254.0" stroke="black" stroke-width="2" fill="none" />
<polyline points="51.0,257.0,59.5,249.5,67.5,242.0,76.0,234.5,84.0,227.0,92.5,218.5,101.0,211.0,109.0,203.0,117.5,196.0" stroke="black" stroke-width="2" fill="none" />
<polyline points="115.5,192.0,107.5,192.0" stroke="black" stroke-width="2" fill="none" />
<polyline points="106.5,201.5,115.0,201.0" stroke="black" stroke-width="2" fill="none" />
<polyline points="122.0,198.0,130.0,209.0,138.0,218.0" stroke="black" stroke-width="2" fill="none" />
<polyline points="131.0,179.5,123.5,180.0" stroke="black" stroke-width="2" fill="none" />
<polyline points="125.5,176.0,129.5,184.0,133.5,192.0,138.5,200.0,144.5,208.0,154.5,216.0" stroke="black" stroke-width="2" fill="none" />
<polyline points="132.0,209.0,124.0,209.5,116.0,210.5,107.5,211.0,99.0,212.0,91.0,212.5,83.0,213.0,75.5,213.5,67.5,214.0,60.0,214.0,52.0,214.5,43.5,215.0,36.0,215.0,28.5,215.5,20.5,216.0,12.5,216.5,4.0,217.0" stroke="black" stroke-width="2" fill="none" />
<polyline points="5.5,212.0,13.5,211.0,21.0,210.0,28.0,209.5,35.5,209.5,43.5,209.5,50.5,209.5,58.0,210.0,66.0,210.5,74.5,210.0,82.5,209.5,90.5,209.0,98.5,208.0,106.5,207.0,115.0,206.5,123.5,205.5,132.0,204.5,140.5,204.0,149.0,203.5,157.5,203.0,165.5,203.0,173.0,202.5,181.0,201.0,189.0,200.0,197.0,199.5,204.5,199.5,213.0,199.0,220.5,199.0,228.5,199.0,236.5,199.0,244.0,198.5,252.0,198.0,260.0,197.5" stroke="black" stroke-width="2" fill="none" />
<polyline points="259.5,220.0,251.5,220.5,244.0,221.0,235.5,221.5,227.0,222.0,218.5,223.0,210.0,224.0,202.0,225.0,194.5,226.0,187.0,227.0,179.5,227.5,172.5,228.0,164.5,229.0,156.5,229.0,147.5,229.0,139.0,229.0,130.5,229.0,122.0,229.0,114.0,229.5,106.0,230.0,98.5,230.5,91.0,231.0,83.5,231.5,75.0,232.0,67.0,232.5,58.5,233.0,51.0,234.0,43.0,234.5,34.5,235.5,27.0,236.5,19.0,237.5,10.5,238.5,2.0,239.0" stroke="black" stroke-width="2" fill="none" />
<polyline points="1.5,235.0,10.0,234.5,18.5,233.5,26.0,232.5,34.0,231.5,42.5,231.0,51.0,230.5,59.5,229.0,68.0,228.5,76.5,228.0,84.5,228.0,92.5,227.0,100.5,227.0,108.0,226.5,115.5,226.0,123.5,225.5,131.5,225.0,139.0,224.0,146.5,223.5,154.5,223.5,162.5,223.5,170.5,223.0,179.0,222.5,187.5,222.0,196.0,221.5,204.0,221.0,212.0,220.5,219.0,219.5,227.0,218.0,235.0,217.0,243.0,216.5,250.5,216.0,258.5,216.0" stroke="black" stroke-width="2" fill="none" />
<polyline points="258.5,212.0,250.5,212.5,242.5,212.5,234.5,213.0,226.0,214.0,217.5,215.0,209.5,215.5,202.0,216.0,194.0,217.0,186.5,217.5,178.5,218.0,171.0,218.5,162.5,219.0,154.5,219.5,146.5,220.0,139.5,221.0,132.5,222.0,125.0,223.0,117.0,223.5,109.0,224.5,100.5,224.5,93.0,224.5,85.0,225.0,77.0,225.5,68.5,226.0,60.5,226.5,51.5,227.0,43.0,227.0,35.0,228.0,26.5,228.5,18.0,229.0,9.5,229.5,1.0,230.0" stroke="black" stroke-width="2" fill="none" />
<polyline points="1.5,226.0,9.5,225.5,18.0,226.0,26.5,225.5,35.0,225.0,43.5,225.0,52.0,224.5,60.0,224.0,67.5,223.5,75.0,222.5,83.0,221.5,91.0,221.0,99.0,220.5,107.5,220.0,116.0,219.0,124.5,218.5,132.5,218.0,139.5,217.0,147.5,216.0,155.0,215.5,162.5,214.5,171.0,214.0,179.5,214.0,187.5,213.5,195.5,212.5,203.5,212.0,211.5,211.5,219.5,211.5,228.0,211.0,236.0,210.5,244.0,210.0,252.0,209.5,259.5,209.5" stroke="black" stroke-width="2" fill="none" />
<polyline points="260.5,191.0,252.5,191.0,244.5,191.5,236.5,192.0,228.0,193.0,220.0,193.5,211.5,194.0,203.5,193.5,195.5,193.5,187.5,193.5,179.5,194.0,171.0,194.0,163.0,194.5,155.0,195.0,146.5,195.0,138.5,195.5,130.0,196.0,122.0,196.5,114.0,197.0,107.0,197.5,99.0,198.0,90.5,198.5,82.5,198.5,75.0,199.5,67.0,200.0,59.0,200.5,51.0,201.5,43.5,202.0,36.0,202.5,28.0,202.5,20.0,203.0,12.0,203.0,4.0,204.0" stroke="black" stroke-width="2" fill="none" />
<polyline points="4.5,201.5,12.0,200.5,20.0,200.0" stroke="black" stroke-width="2" fill="none" />
<polyline points="30.0,199.0,38.0,199.0" stroke="black" stroke-width="2" fill="none" />
<polyline points="36.0,195.5,28.0,203.0,20.0,210.5,12.5,217.5,4.0,224.5" stroke="black" stroke-width="2" fill="none" />
<polyline points="3.0,198.0,10.5,191.0,18.5,183.5,27.0,176.5,35.0,168.5,42.5,161.0,50.5,153.5,58.5,145.5,66.0,137.5,74.0,129.5,82.0,121.5,90.0,113.5,98.0,105.5,106.0,98.0" stroke="black" stroke-width="2" fill="none" />
<polyline points="107.0,91.5,99.5,99.0,91.0,106.5,83.0,114.0,75.5,121.5,67.0,129.0,59.5,137.0,52.0,144.0,44.5,151.5,36.5,159.0,28.5,166.5,20.5,174.0,12.0,182.0,4.0,189.5" stroke="black" stroke-width="2" fill="none" />
<polyline points="2.5,190.0,10.0,189.5,18.0,189.5,26.0,189.5,34.5,189.0,42.0,188.5,50.0,188.5,58.0,187.5,66.0,186.5,74.5,186.0,82.5,186.0,90.5,185.0,98.0,184.0,105.5,183.5,113.5,183.0" stroke="black" stroke-width="2" fill="none" />
<polyline points="112.0,181.0,120.0,195.5,128.0,195.0,136.0,209.0" stroke="black" stroke-width="2" fill="none" />
<polyline points="164.5,202.0,156.5,190.0,148.5,189.5,140.0,173.5" stroke="black" stroke-width="2" fill="none" />
<polyline points="137.0,173.0,142.0,181.0,146.0,189.0,151.0,197.0,157.0,205.0,165.0,213.5" stroke="black" stroke-width="2" fill="none" />
<polyline points="177.0,208.5,169.5,200.0,164.0,191.5,156.0,178.5,148.0,171.5" stroke="black" stroke-width="2" fill="none" />
<polyline points="147.0,171.0,149.0,179.0,152.0,187.0,156.0,193.0,161.0,200.5,167.0,209.0" stroke="black" stroke-width="2" fill="none" />
<polyline points="150.0,205.5,142.0,192.0,134.5,176.0" stroke="black" stroke-width="2" fill="none" />
<polyline points="120.5,176.0,128.5,182.0,136.5,191.0,141.5,205.0,150.0,212.5" stroke="black" stroke-width="2" fill="none" />
<polyline points="183.0,210.5,174.5,198.5,166.5,184.5,158.5,166.5,150.5,166.5,142.5,168.0,134.5,169.5,126.5,171.0,118.5,173.0,110.0,176.0" stroke="black" stroke-width="2" fill="none" />
<polyline points="113.0,176.5,105.0,185.0,97.5,193.0,90.0,201.0,83.0,209.0,76.0,217.0,68.5,224.5,61.0,231.5,53.5,239.0,45.5,247.0,37.5,254.5" stroke="black" stroke-width="2" fill="none" />
<polyline points="28.0,256.0,36.0,248.5,44.0,240.5,51.5,232.5,59.0,224.5,66.5,217.0,74.5,209.5,82.5,202.0,90.5,195.0,99.5,187.0,107.5,179.0" stroke="black" stroke-width="2" fill="none" />
<polyline points="107.0,186.0,99.0,186.5" stroke="black" stroke-width="2" fill="none" />
<polyline points="97.5,178.0,106.0,177.5" stroke="black" stroke-width="2" fill="none" />
<polyline points="114.5,176.5,107.0,177.0,99.0,178.0,91.0,179.0,82.5,180.0,75.0,179.5,67.5,179.5,59.5,179.0,51.5,178.5,43.5,178.5,35.5,179.0,27.5,180.0,19.5,180.5,11.5,180.5,3.0,181.0" stroke="black" stroke-width="2" fill="none" />
<polyline points="3.5,178.5,11.5,178.0,19.0,177.5,27.0,176.5,35.5,176.0" stroke="black" stroke-width="2" fill="none" />
<polyline points="42.5,185.0,51.0,177.5" stroke="black" stroke-width="2" fill="none" />
<polyline points="52.0,173.5,59.5,173.0" stroke="black" stroke-width="2" fill="none" />
<polyline points="59.0,178.5,51.0,186.0,43.0,194.0,34.5,201.5,26.5,209.5,18.5,218.0,10.5,226.0,3.0,233.5" stroke="black" stroke-width="2" fill="none" />
<polyline points="11.5,253.5,19.5,246.0,27.5,238.5,35.5,231.5,43.0,224.5,51.5,217.5,60.0,210.0,68.0,203.5,76.0,196.5,84.0,189.5" stroke="black" stroke-width="2" fill="none" />
<polyline points="82.5,191.5,90.5,191.5,99.0,191.0" stroke="black" stroke-width="2" fill="none" />
<polyline points="99.5,201.0,91.5,201.5,84.0,201.5,76.0,201.5" stroke="black" stroke-width="2" fill="none" />
<polyline points="66.5,198.5,58.0,199.0,50.0,200.0,42.0,200.5" stroke="black" stroke-width="2" fill="none" />
<polyline points="53.5,181.5,45.5,189.5,37.5,194.0,44.5,189.0,53.5,181.0" stroke="black" stroke-width="2" fill="none" />
<polyline points="52.0,168.0,59.5,160.5,67.5,153.0,75.5,145.5,83.0,138.0,91.0,130.5,99.0,123.0,107.0,115.0,115.0,107.0" stroke="black" stroke-width="2" fill="none" />
<polyline points="116.5,100.5,108.5,108.5,100.0,116.0,92.0,123.5,84.5,130.5,76.0,138.0,68.5,145.5,60.5,152.5,52.5,159.5" stroke="black" stroke-width="2" fill="none" />
<polyline points="50.5,167.0,49.5,175.0,42.0,183.5,29.0,192.0,27.0,193.0,35.0,188.5,43.0,182.5,51.5,172.5" stroke="black" stroke-width="2" fill="none" />
<polyline points="49.5,166.0,41.5,169.0,30.5,184.0,22.5,190.0,28.0,187.0,35.0,179.0,41.0,174.5,45.0,166.5" stroke="black" stroke-width="2" fill="none" />
<polyline points="44.0,161.0,52.0,160.5,60.0,160.0,68.0,159.5,75.5,159.0,84.0,158.5,92.0,158.5,100.5,158.5" stroke="black" stroke-width="2" fill="none" />
<polyline points="107.5,161.5,115.0,161.0,122.5,160.0,130.5,159.5,138.5,159.0,146.5,159.0,155.0,159.0,163.0,159.0" stroke="black" stroke-width="2" fill="none" />
<polyline points="164.5,155.5,156.5,163.0" stroke="black" stroke-width="2" fill="none" />
<polyline points="159.0,166.5,163.0,174.5,167.0,182.5,169.0,186.5,173.0,194.5,178.0,202.5,183.5,210.5" stroke="black" stroke-width="2" fill="none" />
<polyline points="146.5,162.0,154.5,154.5" stroke="black" stroke-width="2" fill="none" />
<polyline points="154.5,150.0,146.0,150.0,138.0,150.5,130.0,151.0,122.5,151.5,115.0,152.0,107.5,152.5" stroke="black" stroke-width="2" fill="none" />
<polyline points="116.5,147.0,124.5,146.5,133.0,146.0,141.0,145.5" stroke="black" stroke-width="2" fill="none" />
<polyline points="149.5,137.0,157.5,133.0,165.0,131.0,172.5,129.0,180.5,126.5,188.0,126.0,196.0,129.0,203.5,138.0,211.5,146.0,220.0,151.0,228.5,156.0" stroke="black" stroke-width="2" fill="none" />
<polyline points="258.5,181.0,250.0,181.5,241.5,182.0,233.5,182.5,226.0,183.0,218.5,184.0,210.5,184.5,203.0,185.0,195.0,185.0,187.0,185.5,178.5,186.0,170.0,186.5,162.0,187.0,154.0,187.5,146.0,188.0,138.0,188.0,130.0,188.5,122.5,188.5,115.0,189.0,108.0,189.5,100.5,190.0,92.5,190.5,84.5,191.0,76.0,192.0,68.0,192.5,60.5,193.0,53.0,193.5,45.0,194.0,36.5,194.5,28.0,195.0,20.0,195.5,12.0,196.0,4.5,196.5" stroke="black" stroke-width="2" fill="none" />
<polyline points="3.5,193.5,11.5,193.0,19.5,192.5" stroke="black" stroke-width="2" fill="none" />
<polyline points="28.5,170.0,21.0,170.5,13.5,171.0,5.5,171.0" stroke="black" stroke-width="2" fill="none" />
<polyline points="3.5,168.5,11.0,159.5,18.5,152.0,26.5,144.5,34.5,137.0,42.5,129.5,50.5,121.5" stroke="black" stroke-width="2" fill="none" />
<polyline points="52.0,115.0,44.0,122.5,35.5,130.5,27.5,137.5,19.5,145.5,12.0,153.0,4.5,161.0" stroke="black" stroke-width="2" fill="none" />
<polyline points="5.5,157.5,13.0,157.5,20.5,157.0,28.5,156.0,36.0,155.0,44.5,154.5,52.5,154.0,60.5,154.0,69.0,153.5,77.5,152.5,86.0,152.5,94.0,152.0,101.5,151.0,108.5,150.5,116.0,149.5,123.5,148.5,131.0,148.0,139.0,147.5,147.0,146.5,155.5,146.0,164.0,146.0,172.0,145.5,179.5,145.0,187.0,144.5,195.0,144.0,202.5,144.0,211.0,143.5,219.5,144.0,227.5,143.5,235.5,143.0,243.5,142.5,251.5,142.0,259.5,142.0" stroke="black" stroke-width="2" fill="none" />
<polyline points="259.0,93.5,251.0,95.0,243.0,95.5,235.0,95.5,227.5,96.0,219.5,96.0,211.5,96.5,203.5,97.0,195.5,97.5,188.0,97.5,180.5,98.0,172.5,98.5,164.0,98.5,156.0,99.0,148.0,99.5,140.0,99.5,132.0,100.0,124.0,100.5" stroke="black" stroke-width="2" fill="none" />
<polyline points="124.0,98.0,131.5,90.5" stroke="black" stroke-width="2" fill="none" />
<polyline points="124.0,90.0,132.0,82.0" stroke="black" stroke-width="2" fill="none" />
<polyline points="133.5,79.0,141.5,89.5" stroke="black" stroke-width="2" fill="none" />
<polyline points="148.5,93.0,140.5,100.5,132.5,108.0,125.0,115.0,117.0,122.0,108.5,129.5,100.5,136.5,92.5,143.5,84.0,151.0,75.5,159.0,67.5,166.0" stroke="black" stroke-width="2" fill="none" />
<polyline points="65.0,168.0,64.0,176.5,59.0,183.5,53.5,191.0,49.5,194.0,57.5,184.0,65.5,171.0,77.0,177.0,89.0,181.0" stroke="black" stroke-width="2" fill="none" />
<polyline points="88.5,171.0,80.5,181.0,72.5,191.0,64.5,196.0,69.5,194.5,77.5,186.5,82.5,178.5,87.0,170.0" stroke="black" stroke-width="2" fill="none" />
<polyline points="84.5,169.0,92.5,161.0,100.0,153.0,108.0,145.5,115.5,138.0,123.5,130.5,131.5,122.5" stroke="black" stroke-width="2" fill="none" />
<polyline points="148.0,122.5,155.5,122.0,163.5,121.0,171.5,120.0,179.5,119.0" stroke="black" stroke-width="2" fill="none" />
<polyline points="181.5,115.5,173.5,123.0,164.5,130.5" stroke="black" stroke-width="2" fill="none" />
<polyline points="164.0,129.0,156.0,130.0,148.0,130.5" stroke="black" stroke-width="2" fill="none" />
<polyline points="156.0,130.0,164.5,122.5,173.0,115.5,181.0,108.0" stroke="black" stroke-width="2" fill="none" />
<polyline points="188.5,116.0,180.5,123.0,173.0,131.0" stroke="black" stroke-width="2" fill="none" />
<polyline points="174.5,132.5,176.5,140.5,184.5,148.0,195.5,156.5,208.0,164.5" stroke="black" stroke-width="2" fill="none" />
<polyline points="215.0,159.5,207.0,154.5,199.0,150.5,191.5,143.5,183.5,135.0" stroke="black" stroke-width="2" fill="none" />
<polyline points="182.5,133.0,190.5,139.0,198.5,145.5,205.0,148.5,213.0,153.5,221.0,157.5,229.5,161.5" stroke="black" stroke-width="2" fill="none" />
<polyline points="258.0,150.5,250.0,151.5,242.5,152.0,234.0,152.5,226.5,153.0,218.5,153.0,211.0,153.0,203.0,153.5,195.0,153.5,187.0,153.5,180.0,154.0,172.5,154.5,165.0,155.0,156.5,155.5,148.0,155.5,140.0,155.5,132.0,155.5,124.5,155.5,116.5,156.0,108.5,156.5,101.0,157.0,92.5,157.5,84.5,157.5,77.0,158.5,69.0,159.0,61.0,160.0,52.5,161.0,44.0,161.5,36.5,162.5,29.0,163.0,21.5,163.5,13.0,164.5,4.5,165.0" stroke="black" stroke-width="2" fill="none" />
<polyline points="4.5,152.5,13.0,145.5,20.5,138.0,28.5,131.0,36.5,124.0,44.0,116.5" stroke="black" stroke-width="2" fill="none" />
<polyline points="37.0,115.0,29.0,122.5,20.5,130.0,12.5,138.0,4.0,145.5" stroke="black" stroke-width="2" fill="none" />
<polyline points="4.5,149.0,12.5,148.5,21.0,147.5,29.0,147.0,37.0,146.5,45.0,146.0,53.5,146.0,62.0,145.5,69.5,145.5,77.0,146.0,85.0,145.5,93.0,144.5,101.0,144.0,108.5,143.0,115.5,141.0,123.0,140.0,130.5,139.5,138.0,139.5,146.5,139.0,155.5,138.5,163.5,138.0" stroke="black" stroke-width="2" fill="none" />
<polyline points="162.0,137.5,169.0,145.5,179.5,153.5,194.5,162.0" stroke="black" stroke-width="2" fill="none" />
<polyline points="203.5,163.5,195.5,158.5,188.0,153.5,180.0,147.0,171.5,138.0" stroke="black" stroke-width="2" fill="none" />
<polyline points="170.0,137.0,178.0,139.5,186.0,147.0,193.0,152.5,200.5,156.5,208.5,160.5,216.5,164.5" stroke="black" stroke-width="2" fill="none" />
<polyline points="193.5,169.0,185.0,163.5,177.0,160.5,169.5,149.5,161.5,140.0" stroke="black" stroke-width="2" fill="none" />
<polyline points="159.5,138.5,167.5,142.5,175.5,149.0,184.5,155.0,193.0,159.5,201.0,163.5,208.5,166.5" stroke="black" stroke-width="2" fill="none" />
<polyline points="193.5,169.0,182.0,160.5,172.0,152.5,165.0,144.5,160.5,137.0" stroke="black" stroke-width="2" fill="none" />
<polyline points="159.5,131.5,149.0,139.5,156.0,147.5,166.5,155.5,177.5,163.5,194.0,172.0" stroke="black" stroke-width="2" fill="none" />
<polyline points="207.0,158.5,193.0,150.5,182.0,142.5,175.0,134.0" stroke="black" stroke-width="2" fill="none" />
<polyline points="185.5,132.0,192.5,140.0,203.5,148.0,217.0,156.0" stroke="black" stroke-width="2" fill="none" />
<polyline points="172.0,113.5,164.5,114.5,157.0,115.0,149.0,116.0" stroke="black" stroke-width="2" fill="none" />
<polyline points="148.0,107.5,156.0,107.0" stroke="black" stroke-width="2" fill="none" />
<polyline points="155.0,98.0,147.0,98.0" stroke="black" stroke-width="2" fill="none" />
<polyline points="150.0,86.0,142.0,93.0,134.0,100.0" stroke="black" stroke-width="2" fill="none" />
<polyline points="124.5,95.0,132.5,94.5,140.5,94.0,149.0,94.0,157.0,94.0,165.0,93.5,172.5,93.0,180.5,91.5,188.0,90.5,196.0,90.0,204.0,89.5,212.5,89.0,220.0,88.5,227.5,88.0,235.0,87.5,242.5,87.0,250.5,85.5,258.0,85.0" stroke="black" stroke-width="2" fill="none" />
<polyline points="156.5,84.0,149.0,84.5,140.5,84.5,132.5,85.0,124.0,85.0,116.5,86.0" stroke="black" stroke-width="2" fill="none" />
<polyline points="123.0,82.5,131.0,74.5" stroke="black" stroke-width="2" fill="none" />
<polyline points="130.0,66.0,122.5,73.0" stroke="black" stroke-width="2" fill="none" />
<polyline points="124.0,74.0,116.0,74.0" stroke="black" stroke-width="2" fill="none" />
<polyline points="115.0,73.0,123.0,66.0" stroke="black" stroke-width="2" fill="none" />
<polyline points="123.5,60.5,115.5,68.0" stroke="black" stroke-width="2" fill="none" />
<polyline points="116.5,62.5,124.5,61.5" stroke="black" stroke-width="2" fill="none" />
<polyline points="118.5,58.5,125.5,66.5,134.0,74.5,134.5,81.5,141.5,89.0,144.5,97.0,145.0,105.5" stroke="black" stroke-width="2" fill="none" />
<polyline points="124.0,107.5,116.5,115.0,108.5,122.0,100.5,129.5,92.5,136.5,85.0,144.0,77.0,151.5,68.5,159.5" stroke="black" stroke-width="2" fill="none" />
<polyline points="60.5,166.5,51.5,179.5,44.0,189.0,36.0,193.5,40.5,190.5,49.0,182.0,55.0,174.0,60.0,166.0" stroke="black" stroke-width="2" fill="none" />
<polyline points="50.5,152.0,59.0,152.0,67.5,152.5,76.0,152.5,84.5,152.0,92.5,152.0,101.0,151.5" stroke="black" stroke-width="2" fill="none" />
<polyline points="100.5,126.5,92.0,127.0,84.0,128.0,76.0,128.5" stroke="black" stroke-width="2" fill="none" />
<polyline points="84.5,120.0,92.5,119.5,100.5,119.0,108.0,118.5,115.0,118.0,122.5,117.5" stroke="black" stroke-width="2" fill="none" />
<polyline points="107.0,105.5,99.0,106.0" stroke="black" stroke-width="2" fill="none" />
<polyline points="98.5,98.5,106.5,98.0" stroke="black" stroke-width="2" fill="none" />
<polyline points="107.0,91.0,115.0,106.0" stroke="black" stroke-width="2" fill="none" />
<polyline points="108.5,86.0,100.5,93.0,93.0,100.0,84.5,107.0" stroke="black" stroke-width="2" fill="none" />
<polyline points="84.0,114.0,91.5,114.0,99.5,113.0,107.5,112.0,115.5,111.5" stroke="black" stroke-width="2" fill="none" />
<polyline points="99.5,134.0,92.5,136.0,85.0,137.0,77.0,137.5,69.0,138.5" stroke="black" stroke-width="2" fill="none" />
<polyline points="61.0,146.0,69.5,145.5,77.5,144.5,85.5,143.5,93.0,143.0,100.5,142.0" stroke="black" stroke-width="2" fill="none" />
<polyline points="119.0,172.0,112.0,180.0,114.5,188.0,119.0,196.0,124.0,204.5,130.0,212.5" stroke="black" stroke-width="2" fill="none" />
<polyline points="139.0,212.5,134.0,204.5,129.5,196.5,125.5,190.5,122.5,182.5,120.5,174.5" stroke="black" stroke-width="2" fill="none" />
<polyline points="156.5,131.0,148.0,131.5,140.0,132.0,132.5,133.0,124.5,133.0,117.0,134.0,109.5,134.5,101.5,135.5,93.5,136.5,85.0,137.0,77.5,137.5,69.5,138.0,61.5,139.0,53.0,139.5,45.0,140.0,37.0,141.0,29.5,141.5,21.0,141.5,12.5,141.0,4.0,141.0" stroke="black" stroke-width="2" fill="none" />
<polyline points="3.5,139.0,12.5,131.5,20.5,124.0,28.5,116.0,36.5,108.5" stroke="black" stroke-width="2" fill="none" />
<polyline points="25.5,107.0,18.0,114.5,10.5,122.0,3.0,129.5" stroke="black" stroke-width="2" fill="none" />
<polyline points="3.0,126.0,11.0,125.5,19.5,124.5,27.0,124.0,35.0,123.5,42.5,122.5,50.5,122.5,58.5,121.5,66.5,121.0,74.5,120.0,82.5,119.0,91.0,119.0,99.5,119.5,108.0,119.5,116.5,119.0,124.5,119.0,133.0,118.5,141.5,118.5,149.0,118.0,156.5,117.5,164.5,117.0,172.5,116.5,181.0,116.0,189.0,115.5,197.5,115.0,205.5,114.5,213.0,114.0,220.5,113.5,228.0,113.0,235.5,112.0,243.0,111.5,251.5,111.0,260.5,110.5" stroke="black" stroke-width="2" fill="none" />
<polyline points="156.5,125.5,148.5,125.5,140.5,126.0,132.5,127.0,124.5,127.0,116.0,127.5,107.5,128.0,99.0,128.5,91.5,128.0,84.0,128.5,75.5,129.0,67.5,129.5,60.0,130.5,52.5,131.5,44.5,132.0,36.5,132.5,28.0,132.5,19.5,132.5,11.0,133.0,3.5,133.5" stroke="black" stroke-width="2" fill="none" />
<polyline points="4.5,121.5,12.5,114.0,21.0,106.0,28.5,98.5" stroke="black" stroke-width="2" fill="none" />
<polyline points="20.5,98.5,12.0,106.5,4.0,114.0" stroke="black" stroke-width="2" fill="none" />
<polyline points="3.0,117.0,11.0,116.5,19.0,116.0,26.5,115.5,34.5,115.0,42.0,114.5,50.0,113.5,57.5,113.0,65.5,112.5,74.0,112.0,82.0,111.5,90.0,111.0,98.0,110.0,106.5,109.5,115.0,109.0,123.5,108.5,132.0,108.5,140.5,108.5,149.0,108.5,156.5,108.5,164.5,108.0,172.0,107.0,180.5,107.0,188.5,106.5,197.0,106.5,204.5,106.0,212.5,105.5,221.0,105.0,228.5,104.5,236.0,104.0,244.0,103.5,252.0,103.5,260.0,102.5" stroke="black" stroke-width="2" fill="none" />
<polyline points="260.5,94.0,252.5,93.5,244.5,94.0,236.5,94.5,228.0,95.5,220.0,96.0,211.5,96.0,203.5,96.5,196.0,97.5,188.0,98.0,180.0,98.5,172.5,99.0,165.0,100.0,156.5,100.0,148.5,100.5,140.5,101.5,132.0,101.5,124.0,101.5,115.5,102.0,108.0,102.5,100.0,103.0,92.0,103.5,84.0,104.0,76.5,104.5,68.0,105.0,60.0,105.5,52.0,106.0,44.5,107.0,36.5,107.0,29.0,107.0,21.0,107.5,12.5,108.5,4.5,109.0" stroke="black" stroke-width="2" fill="none" />
<polyline points="3.5,105.0,11.0,97.0,19.5,89.5" stroke="black" stroke-width="2" fill="none" />
<polyline points="10.5,90.5,2.5,98.0" stroke="black" stroke-width="2" fill="none" />
<polyline points="4.5,100.0,13.0,100.0,20.5,99.5,29.0,98.5,38.0,98.0,46.5,97.0,54.0,96.5,62.0,96.0,70.0,95.5,78.0,95.0,86.0,94.0,94.0,94.0,101.0,93.5,108.5,93.5,116.5,93.5" stroke="black" stroke-width="2" fill="none" />
<polyline points="117.0,78.0,124.5,77.0,132.0,76.5,140.0,76.0" stroke="black" stroke-width="2" fill="none" />
<polyline points="145.5,79.5,152.5,88.0,158.5,96.5,166.5,105.0,178.5,113.0" stroke="black" stroke-width="2" fill="none" />
<polyline points="132.5,67.0,123.5,67.5,115.5,68.0,107.0,68.5,98.5,69.5,91.0,70.0,83.0,71.0" stroke="black" stroke-width="2" fill="none" />
<polyline points="82.5,65.0,91.0,64.0,99.0,63.0" stroke="black" stroke-width="2" fill="none" />
<polyline points="102.0,72.5,110.0,62.5,115.0,59.0,107.5,67.0,103.0,75.0,101.0,83.0,99.5,91.5,98.5,93.0" stroke="black" stroke-width="2" fill="none" />
<polyline points="87.5,96.5,83.5,104.5,80.0,112.5,76.0,121.0,68.5,129.5,57.0,137.5,55.0,141.5,63.0,134.5,71.0,128.0,79.0,114.0" stroke="black" stroke-width="2" fill="none" />
<polyline points="117.5,87.0,109.5,87.5,101.5,87.5,93.5,87.5,85.5,88.5,77.5,88.5,69.5,89.0,61.5,89.0,53.5,89.5,45.0,90.5,37.0,90.5,29.5,90.5,21.5,91.0,13.5,91.5,5.5,92.5" stroke="black" stroke-width="2" fill="none" />
<polyline points="4.0,85.5,12.0,85.0,20.0,84.5,27.5,83.5,35.5,83.0,43.5,83.0,51.5,83.0,59.5,83.0,68.0,83.0,76.5,82.5,84.5,82.0,92.5,82.0,101.0,81.0,109.0,79.5" stroke="black" stroke-width="2" fill="none" />
<polyline points="114.0,74.0,116.0,81.5,118.5,89.0,119.5,97.0,120.5,105.5" stroke="black" stroke-width="2" fill="none" />
<polyline points="117.0,54.5,125.0,63.5,133.5,72.0,141.0,80.0,148.5,84.0,156.0,95.0,164.0,103.5,172.0,108.0,179.5,113.0" stroke="black" stroke-width="2" fill="none" />
<polyline points="133.5,51.0,125.5,42.5" stroke="black" stroke-width="2" fill="none" />
<polyline points="124.0,43.0,132.5,33.5,125.5,41.0,129.5,49.5" stroke="black" stroke-width="2" fill="none" />
<polyline points="132.5,45.0,131.5,37.0" stroke="black" stroke-width="2" fill="none" />
<polyline points="91.0,54.0,83.5,54.5" stroke="black" stroke-width="2" fill="none" />
<polyline points="80.5,53.0,84.0,61.0,87.0,69.0,88.0,77.0" stroke="black" stroke-width="2" fill="none" />
<polyline points="84.5,42.5,76.5,42.5" stroke="black" stroke-width="2" fill="none" />
<polyline points="84.5,40.5,93.0,59.0" stroke="black" stroke-width="2" fill="none" />
<polyline points="76.0,74.0,67.5,74.0,60.0,74.5,53.0,75.0,45.0,75.0,36.5,75.0,28.0,75.0,19.5,75.0,11.5,76.0,4.0,76.5" stroke="black" stroke-width="2" fill="none" />
<polyline points="4.0,67.5,12.0,67.5,20.5,67.5,28.5,68.0,36.0,67.5,44.0,67.5,52.5,67.5,61.0,67.5" stroke="black" stroke-width="2" fill="none" />
<polyline points="43.0,59.5,35.5,59.0,27.5,59.5,20.0,59.5,12.0,59.0,4.0,59.0" stroke="black" stroke-width="2" fill="none" />
<polyline points="4.0,51.0,12.0,50.5,19.5,50.5,27.0,50.0,34.5,50.5" stroke="black" stroke-width="2" fill="none" />
<polyline points="28.0,43.5,20.0,43.5,12.0,43.0,4.5,43.0" stroke="black" stroke-width="2" fill="none" />
<polyline points="3.0,37.0,11.5,36.0,20.0,35.0" stroke="black" stroke-width="2" fill="none" />
<polyline points="19.5,29.0,11.0,29.5,3.0,30.0" stroke="black" stroke-width="2" fill="none" />
<polyline points="4.0,23.5,11.5,22.5,19.5,22.0" stroke="black" stroke-width="2" fill="none" />
<polyline points="20.0,12.5,12.5,13.0,4.5,13.5" stroke="black" stroke-width="2" fill="none" />
<polyline points="2.0,3.5,10.0,3.0,18.0,2.0" stroke="black" stroke-width="2" fill="none" />
<polyline points="85.5,18.0,93.5,28.0" stroke="black" stroke-width="2" fill="none" />
<polyline points="89.0,29.0,81.5,35.0" stroke="black" stroke-width="2" fill="none" />
</svg>