<svg xmlns="http://www.w3.org/2000/svg" version="1.1"><polyline points="114.5,123.0,124.5,133.0,128.0,134.0,135.5,135.5,143.5,135.0,151.0,136.0,159.0,135.5,169.0,135.5,177.5,135.5,185.5,135.0,193.5,136.0,201.5,136.5,209.5,137.5" stroke="black" stroke-width="2" fill="none" />
<polyline points="206.5,140.5,214.0,140.0,221.5,140.0,229.0,139.5,236.5,139.0,244.0,138.5,252.0,138.0,260.0,137.5" stroke="black" stroke-width="2" fill="none" />
<polyline points="259.0,158.0,251.0,159.0" stroke="black" stroke-width="2" fill="none" />
<polyline points="258.5,149.0,250.5,149.5,242.0,150.0,234.0,150.0" stroke="black" stroke-width="2" fill="none" />
<polyline points="224.5,153.0,232.0,155.0,240.0,157.0,248.0,159.5,255.5,155.0" stroke="black" stroke-width="2" fill="none" />
<polyline points="259.5,126.5,252.0,127.0,244.5,128.0,236.5,129.0,228.0,129.0,220.0,129.5,211.0,130.0,202.5,131.0,194.5,131.5,186.0,132.5,178.0,133.5,170.0,134.0,161.5,134.5,153.5,134.5" stroke="black" stroke-width="2" fill="none" />
<polyline points="151.0,137.5,159.0,139.5,167.5,139.5,175.5,140.5,183.0,141.0,191.0,143.0,199.0,144.5,207.0,146.0,215.0,147.0,223.0,149.5,218.5,153.5,224.5,155.5,221.0,151.5,226.0,158.0,237.5,157.0,247.5,162.5" stroke="black" stroke-width="2" fill="none" />
<polyline points="241.5,181.5,233.5,182.5,225.0,183.5,217.0,184.0,209.0,184.5,201.0,185.0,193.5,185.5,186.0,186.5,178.5,187.5,170.5,188.0,163.0,188.0,155.0,188.0,147.5,188.0,139.0,189.0" stroke="black" stroke-width="2" fill="none" />
<polyline points="146.0,174.0,154.5,173.5" stroke="black" stroke-width="2" fill="none" />
<polyline points="154.0,179.5,173.0,187.5" stroke="black" stroke-width="2" fill="none" />
<polyline points="190.5,182.5,198.0,182.5,205.5,181.5,213.0,180.0,221.0,179.5" stroke="black" stroke-width="2" fill="none" />
<polyline points="209.5,176.0,217.5,179.5,225.5,184.5,233.5,186.5,241.0,184.5,247.0,190.0" stroke="black" stroke-width="2" fill="none" />
<polyline points="254.5,194.0,246.5,189.5,238.0,188.5" stroke="black" stroke-width="2" fill="none" />
<polyline points="238.5,184.5,246.5,182.5" stroke="black" stroke-width="2" fill="none" />
<polyline points="259.5,190.5,251.5,191.0,243.5,191.5,235.0,192.5,227.0,192.5,218.5,193.0,210.5,193.5,202.0,194.5,194.0,195.0,185.5,196.0,177.5,197.0,169.5,198.0,162.0,199.5,154.0,200.0" stroke="black" stroke-width="2" fill="none" />
<polyline points="145.5,206.0,154.0,205.5,162.0,205.0,170.0,205.0,178.5,205.0,187.5,204.5,196.0,203.5,204.5,202.0,213.5,201.5,222.5,200.5,231.0,200.0,238.0,200.0,245.5,199.0,253.0,199.0,260.5,198.0" stroke="black" stroke-width="2" fill="none" />
<polyline points="253.0,236.0,244.5,244.0" stroke="black" stroke-width="2" fill="none" />
<polyline points="244.5,236.5,236.5,244.0" stroke="black" stroke-width="2" fill="none" />
<polyline points="236.5,236.0,228.0,243.0" stroke="black" stroke-width="2" fill="none" />
<polyline points="227.5,236.5,236.0,228.5" stroke="black" stroke-width="2" fill="none" />
<polyline points="177.5,250.5,169.5,258.0" stroke="black" stroke-width="2" fill="none" />
<polyline points="163.0,258.5,171.0,251.0" stroke="black" stroke-width="2" fill="none" />
<polyline points="172.5,243.5,164.5,250.5,156.5,257.5" stroke="black" stroke-width="2" fill="none" />
<polyline points="149.5,257.5,157.5,250.0,165.5,242.0" stroke="black" stroke-width="2" fill="none" />
<polyline points="163.0,236.0,155.0,243.5,147.0,251.0,139.0,258.5" stroke="black" stroke-width="2" fill="none" />
<polyline points="129.5,256.5,137.0,249.0,145.5,241.5,153.5,233.5" stroke="black" stroke-width="2" fill="none" />
<polyline points="154.5,227.0,146.5,234.5,139.5,242.0,132.0,249.5,124.5,257.0" stroke="black" stroke-width="2" fill="none" />
<polyline points="115.0,258.0,123.5,250.5,131.0,243.0,139.0,235.5,146.5,228.0" stroke="black" stroke-width="2" fill="none" />
<polyline points="147.5,226.5,155.5,234.5,164.5,240.0,173.5,248.0,182.5,256.5" stroke="black" stroke-width="2" fill="none" />
<polyline points="156.0,224.0,164.0,223.0,171.5,222.5,179.0,221.5,187.0,220.5,195.0,220.0,203.0,219.0,210.5,218.5,218.5,217.5,226.0,217.5,233.5,216.5,241.5,216.5,250.0,216.5,258.0,216.0" stroke="black" stroke-width="2" fill="none" />
<polyline points="259.0,207.5,250.5,207.5,242.5,208.0,234.5,209.0,227.0,209.5,219.5,210.0,212.0,210.0,204.5,210.5,197.0,211.0,189.5,212.0,181.5,213.5,174.0,214.5,165.5,215.0" stroke="black" stroke-width="2" fill="none" />
<polyline points="136.5,228.0,129.0,235.5,121.5,243.0,114.0,250.0,107.0,257.0" stroke="black" stroke-width="2" fill="none" />
<polyline points="98.0,258.0,106.0,250.5,114.0,242.5,122.0,234.5,130.5,227.0" stroke="black" stroke-width="2" fill="none" />
<polyline points="121.0,227.0,113.0,235.0,105.5,242.5,98.0,250.5,90.5,258.0" stroke="black" stroke-width="2" fill="none" />
<polyline points="82.0,258.5,90.0,251.0,97.5,243.5,105.5,236.5,113.0,229.5" stroke="black" stroke-width="2" fill="none" />
<polyline points="114.5,219.5,106.5,227.0,98.5,234.5,90.5,241.5,83.0,249.0,75.5,256.5" stroke="black" stroke-width="2" fill="none" />
<polyline points="66.5,257.0,75.0,249.0,83.0,241.0,91.0,233.0,99.5,225.5,107.5,218.5" stroke="black" stroke-width="2" fill="none" />
<polyline points="107.5,211.5,100.0,219.0,92.5,226.0,85.0,233.5,77.0,241.0,69.5,249.0,60.5,257.0" stroke="black" stroke-width="2" fill="none" />
<polyline points="52.5,258.0,60.5,250.0,69.0,243.0,77.0,235.0,84.5,228.0,92.5,220.5,101.0,212.5,109.0,205.0" stroke="black" stroke-width="2" fill="none" />
<polyline points="101.5,203.5,93.5,212.0,85.0,220.0,76.5,227.5,69.0,235.0,61.0,242.5,53.0,250.0,45.0,256.5" stroke="black" stroke-width="2" fill="none" />
<polyline points="36.0,258.0,44.0,250.0,51.5,242.5,59.5,234.5,68.0,226.0,76.5,218.0,84.5,210.0,93.0,202.5" stroke="black" stroke-width="2" fill="none" />
<polyline points="88.5,197.5,102.5,205.0,108.5,213.0,113.5,221.0" stroke="black" stroke-width="2" fill="none" />
<polyline points="92.0,193.0,83.5,200.5,75.5,209.0,67.5,216.5,60.0,224.0,52.0,231.5,44.0,239.5,36.0,247.5,28.0,255.0" stroke="black" stroke-width="2" fill="none" />
<polyline points="19.0,257.5,26.5,250.0,33.5,242.5,41.5,234.5,49.5,227.0,57.0,220.0,65.5,212.5,74.0,204.5,82.0,197.5" stroke="black" stroke-width="2" fill="none" />
<polyline points="75.0,195.5,67.5,202.5,59.5,210.0,51.5,217.5,43.0,225.0,35.0,233.0,27.5,240.5,20.5,248.5,13.0,257.0" stroke="black" stroke-width="2" fill="none" />
<polyline points="4.5,259.5,12.0,259.0,20.0,258.5,28.0,258.0,36.0,257.5,43.5,257.5,52.0,256.5,60.0,256.0,68.0,255.5,75.5,254.0,83.0,254.0,91.0,253.0,99.5,252.0,108.0,251.5,117.0,250.5,125.0,249.5,133.0,249.5,140.5,248.5,148.0,248.0,156.0,248.0,163.5,247.5,172.0,247.0" stroke="black" stroke-width="2" fill="none" />
<polyline points="164.0,178.5,156.0,179.0,148.5,180.0,141.0,180.0,132.5,180.5,124.0,180.0,115.5,180.0,107.5,180.0,99.5,180.0" stroke="black" stroke-width="2" fill="none" />
<polyline points="101.0,184.0,109.0,186.5" stroke="black" stroke-width="2" fill="none" />
<polyline points="101.5,186.5,109.5,186.5,117.5,186.5" stroke="black" stroke-width="2" fill="none" />
<polyline points="122.5,175.0,114.0,174.0" stroke="black" stroke-width="2" fill="none" />
<polyline points="113.0,172.0,121.0,171.5,125.0,167.5,133.5,173.5,141.5,176.0,149.5,178.5,157.0,181.5,165.0,186.0,173.0,189.0,180.5,191.0,189.0,192.5" stroke="black" stroke-width="2" fill="none" />
<polyline points="185.5,169.5,194.0,171.0,201.5,172.5,209.5,171.5,222.0,181.5" stroke="black" stroke-width="2" fill="none" />
<polyline points="226.0,165.0,233.5,165.0" stroke="black" stroke-width="2" fill="none" />
<polyline points="225.0,145.0,233.5,146.0,241.5,146.5,249.5,146.5" stroke="black" stroke-width="2" fill="none" />
<polyline points="257.5,113.5,250.0,113.5,242.0,114.5,234.5,114.5,226.5,115.0,219.0,115.5,211.0,115.5,203.5,115.0,196.0,116.0,188.5,117.0,180.5,118.0,173.5,118.5,166.0,118.5" stroke="black" stroke-width="2" fill="none" />
<polyline points="155.0,124.0,147.5,132.0" stroke="black" stroke-width="2" fill="none" />
<polyline points="144.5,124.0,137.0,131.0" stroke="black" stroke-width="2" fill="none" />
<polyline points="137.5,118.5,146.0,117.5" stroke="black" stroke-width="2" fill="none" />
<polyline points="147.0,156.5,155.0,156.5" stroke="black" stroke-width="2" fill="none" />
<polyline points="154.5,156.5,159.5,164.5,153.5,164.5" stroke="black" stroke-width="2" fill="none" />
<polyline points="162.5,164.0,154.5,165.0,146.0,166.0,138.0,166.5" stroke="black" stroke-width="2" fill="none" />
<polyline points="130.5,170.5,122.5,171.0,114.0,171.5,106.5,172.0" stroke="black" stroke-width="2" fill="none" />
<polyline points="115.5,165.0,107.5,165.0,99.5,165.5,91.5,165.5" stroke="black" stroke-width="2" fill="none" />
<polyline points="91.0,157.0,82.5,157.5" stroke="black" stroke-width="2" fill="none" />
<polyline points="85.0,156.0,92.5,158.0,105.5,163.0,115.5,165.0,123.0,168.0,130.5,166.0,139.0,163.0,146.0,170.0,154.0,170.5,162.0,171.5,170.0,169.5" stroke="black" stroke-width="2" fill="none" />
<polyline points="184.0,167.0,192.0,168.0,199.5,169.5,207.5,170.0,215.5,170.0,220.5,167.5,228.5,170.0,236.5,169.5,239.0,174.0" stroke="black" stroke-width="2" fill="none" />
<polyline points="260.5,221.0,252.5,221.0,244.5,221.5,236.0,222.0,228.0,223.0,220.0,223.5,212.0,223.5,204.0,223.5,196.0,224.0,187.5,224.5,179.5,225.0,171.5,224.5,164.0,225.0,156.0,225.5,147.5,226.5,140.0,228.0,132.5,229.0,125.0,230.5,117.0,231.0,109.5,232.0,101.5,232.5,93.0,233.0,85.0,233.5,77.0,234.0,68.5,234.0,60.0,234.5,52.0,235.0,43.0,235.0,35.5,235.0,28.0,235.5,20.0,235.5,12.0,236.0,4.0,236.0" stroke="black" stroke-width="2" fill="none" />
<polyline points="2.5,239.0,10.5,231.5,18.5,224.0,27.0,216.0,35.5,208.5,44.5,201.0,52.5,193.0" stroke="black" stroke-width="2" fill="none" />
<polyline points="57.0,195.0,49.0,202.5,41.5,209.5,33.5,216.5,26.0,224.5,18.5,232.5,10.5,240.0,3.0,247.5" stroke="black" stroke-width="2" fill="none" />
<polyline points="2.0,245.0,10.0,244.0,18.5,243.5,27.0,242.5,36.0,242.5,44.5,241.5,53.0,241.5,61.5,241.0,70.0,240.5,78.5,240.0,86.5,239.5,94.0,239.0,101.5,239.0,109.0,238.5,116.5,238.0,124.0,237.5,132.0,237.0,140.0,236.5,148.0,236.0,155.0,236.0,163.0,235.0,171.0,234.5,180.0,233.5,188.0,233.0,196.0,233.0,204.5,233.0,212.5,232.5,220.5,232.5,228.5,232.5,237.0,232.5,245.5,232.5,253.0,231.5,260.5,230.5" stroke="black" stroke-width="2" fill="none" />
<polyline points="259.5,239.0,251.0,240.0,243.5,240.0,235.5,241.0,228.5,241.5,220.5,242.0,212.5,242.0,205.0,243.0,197.0,243.0,188.5,244.0,180.5,244.5,173.0,244.5,165.0,245.0,157.0,245.5,148.5,246.0,140.0,246.5,131.5,246.5,123.0,247.0,115.0,247.5,106.5,248.0,98.5,248.5,90.0,249.0,82.0,249.0,74.5,250.0,67.0,250.5,59.5,251.0,51.5,251.5,44.0,252.0,36.0,252.0,28.0,252.5,20.0,253.5,12.0,254.0,3.5,255.0" stroke="black" stroke-width="2" fill="none" />
<polyline points="1.5,256.0,10.0,248.0,19.0,240.0,28.0,232.0,36.5,225.0,45.0,218.0,53.5,210.0,62.0,203.0,71.0,195.0" stroke="black" stroke-width="2" fill="none" />
<polyline points="67.5,196.5,59.5,197.0,52.5,197.0,45.0,197.5,37.5,198.0,29.0,198.0,21.5,198.5,13.5,199.0,5.5,199.5" stroke="black" stroke-width="2" fill="none" />
<polyline points="5.0,199.5,13.5,191.5,21.5,184.5,29.5,178.0,37.5,171.0,45.5,163.5,53.5,156.0" stroke="black" stroke-width="2" fill="none" />
<polyline points="52.5,161.5,44.5,169.0,36.5,177.0,28.5,184.5,20.5,192.0,12.0,199.5,3.5,207.5" stroke="black" stroke-width="2" fill="none" />
<polyline points="3.0,208.0,11.0,208.0,19.0,207.5,26.5,207.0" stroke="black" stroke-width="2" fill="none" />
<polyline points="27.0,193.5,19.5,194.0,11.0,194.0,3.0,194.5" stroke="black" stroke-width="2" fill="none" />
<polyline points="3.0,192.5,11.0,185.5,19.0,178.0,27.5,170.5,35.5,162.5,43.5,154.5" stroke="black" stroke-width="2" fill="none" />
<polyline points="44.5,151.5,36.5,152.0,28.0,153.5,19.5,154.0" stroke="black" stroke-width="2" fill="none" />
<polyline points="11.5,153.0,3.5,153.5" stroke="black" stroke-width="2" fill="none" />
<polyline points="2.5,153.0,10.5,145.5,19.0,138.0,27.5,130.5,35.5,123.0,43.0,115.5" stroke="black" stroke-width="2" fill="none" />
<polyline points="35.5,117.0,27.5,124.0,19.5,131.0,11.5,138.5,4.0,145.5" stroke="black" stroke-width="2" fill="none" />
<polyline points="5.5,142.5,13.0,142.0,20.5,142.0,27.5,141.5,35.0,140.5,42.5,140.0" stroke="black" stroke-width="2" fill="none" />
<polyline points="42.0,137.5,50.0,130.0,57.5,122.5,65.0,115.0" stroke="black" stroke-width="2" fill="none" />
<polyline points="57.5,115.5,49.5,122.5,41.5,130.0,33.5,137.5,25.5,144.5,17.5,152.5,9.5,159.5,1.5,167.0" stroke="black" stroke-width="2" fill="none" />
<polyline points="4.0,167.5,12.5,167.0,20.5,166.0,28.5,165.0,36.5,164.0,44.5,163.5,52.0,162.5,59.5,162.0" stroke="black" stroke-width="2" fill="none" />
<polyline points="67.5,169.0,59.5,170.0,51.5,170.5,43.5,171.0,35.5,171.5,27.5,172.0,19.5,172.5,11.5,173.5,4.0,173.5" stroke="black" stroke-width="2" fill="none" />
<polyline points="4.0,170.0,12.0,169.5,20.5,169.0,28.5,168.5,36.5,168.0,44.5,167.5" stroke="black" stroke-width="2" fill="none" />
<polyline points="46.5,167.0,54.5,164.5" stroke="black" stroke-width="2" fill="none" />
<polyline points="52.0,158.5,45.0,159.0,37.0,159.0,29.0,160.0,21.0,160.5,12.5,161.5,4.5,162.0" stroke="black" stroke-width="2" fill="none" />
<polyline points="4.0,160.0,11.5,152.5,19.0,145.5,27.5,138.0,36.0,130.5,43.5,123.5,51.0,116.0" stroke="black" stroke-width="2" fill="none" />
<polyline points="67.0,123.0,59.0,130.0,51.0,137.0" stroke="black" stroke-width="2" fill="none" />
<polyline points="50.0,134.5,38.5,137.5,40.5,135.5,43.0,147.0,50.5,153.0" stroke="black" stroke-width="2" fill="none" />
<polyline points="51.5,147.5,44.0,147.5,36.5,148.0,29.0,148.5,21.5,149.0,13.0,149.0,5.0,149.0" stroke="black" stroke-width="2" fill="none" />
<polyline points="4.5,158.5,12.5,158.0,20.0,158.0,28.0,157.5,36.5,156.5,44.0,156.0,52.0,155.5,60.0,154.5" stroke="black" stroke-width="2" fill="none" />
<polyline points="73.0,153.0,81.0,155.0,89.0,155.0,97.0,161.0,105.0,160.0,113.0,159.0,120.5,157.5,128.5,157.5,136.0,157.5,144.0,158.5,146.0,161.5,141.0,166.5,146.5,166.5,152.5,154.0,156.5,164.5,164.0,160.5,169.5,164.0,177.5,166.0,186.0,164.0,194.5,163.5,202.5,162.5,210.5,163.0,218.0,163.0,226.0,160.0,233.5,159.0,241.5,159.0,243.5,163.5,251.5,162.0,254.0,159.0" stroke="black" stroke-width="2" fill="none" />
<polyline points="258.5,109.5,250.5,110.0,242.5,110.5,234.5,110.5,226.5,111.0,218.5,112.0,210.5,113.0,202.5,114.0,194.5,114.5,186.5,115.0,179.0,115.5,171.5,116.0,163.5,116.5,156.0,117.0,148.0,117.0,140.0,117.0,132.5,116.5,124.5,117.5,116.5,118.0,108.5,118.5,100.5,119.0,92.0,120.5,83.5,121.0,76.0,121.0,68.5,121.5,60.5,122.0,52.0,122.5,44.0,122.5,36.0,123.5,27.0,124.5,19.0,125.0,11.0,125.0,3.0,125.5" stroke="black" stroke-width="2" fill="none" />
<polyline points="3.5,124.0,11.5,116.5" stroke="black" stroke-width="2" fill="none" />
<polyline points="12.0,109.5,4.0,117.0" stroke="black" stroke-width="2" fill="none" />
<polyline points="4.0,118.0,12.5,117.5,20.5,116.5,28.5,116.0,36.0,116.0,43.5,116.0,51.5,115.5,59.5,115.0,67.5,115.0,76.0,115.0,84.5,114.5,92.0,114.0" stroke="black" stroke-width="2" fill="none" />
<polyline points="88.0,118.0,96.0,119.5,104.0,120.0,112.5,120.0,120.5,123.5,128.5,122.0,136.0,121.0,144.0,123.0,151.5,121.0,154.0,123.5,163.0,128.5,171.5,128.5,179.5,128.5,187.5,128.5" stroke="black" stroke-width="2" fill="none" />
<polyline points="210.0,124.5,218.5,124.5,226.5,125.0,235.0,125.0" stroke="black" stroke-width="2" fill="none" />
<polyline points="222.5,126.5,214.0,127.0" stroke="black" stroke-width="2" fill="none" />
<polyline points="212.5,63.5,220.5,63.0,228.5,62.0,236.5,61.5,244.5,61.0,253.0,60.5,261.0,60.0" stroke="black" stroke-width="2" fill="none" />
<polyline points="251.5,19.5,260.0,12.5" stroke="black" stroke-width="2" fill="none" />
<polyline points="259.5,5.0,251.0,13.0,243.5,20.0" stroke="black" stroke-width="2" fill="none" />
<polyline points="236.5,19.5,245.0,12.5,253.5,5.5" stroke="black" stroke-width="2" fill="none" />
<polyline points="244.5,2.5,236.5,10.0,228.5,18.0" stroke="black" stroke-width="2" fill="none" />
<polyline points="219.5,19.5,227.5,12.0,235.0,5.0" stroke="black" stroke-width="2" fill="none" />
<polyline points="230.0,5.5,222.0,13.0,213.0,20.0" stroke="black" stroke-width="2" fill="none" />
<polyline points="203.5,18.5,211.5,11.0,219.5,2.5" stroke="black" stroke-width="2" fill="none" />
<polyline points="209.0,5.0,201.0,12.0,193.5,19.5" stroke="black" stroke-width="2" fill="none" />
<polyline points="187.0,18.0,195.0,11.0,203.0,4.0" stroke="black" stroke-width="2" fill="none" />
<polyline points="196.5,3.5,189.0,11.0,181.0,18.0" stroke="black" stroke-width="2" fill="none" />
<polyline points="172.0,18.0,180.0,10.0,188.5,2.5" stroke="black" stroke-width="2" fill="none" />
<polyline points="180.0,2.0,171.5,10.0" stroke="black" stroke-width="2" fill="none" />
<polyline points="189.0,54.5,197.0,54.0,205.5,53.5,213.5,53.0,221.0,52.0,229.0,51.5,236.5,50.0,244.0,49.0,251.5,47.5,260.0,46.5" stroke="black" stroke-width="2" fill="none" />
<polyline points="260.5,36.0,252.0,36.5,244.5,36.5,237.0,36.5,229.5,36.5,221.5,37.5,213.5,39.0,205.5,40.0,197.5,40.5,189.5,41.0,181.0,41.5,173.0,42.0,165.0,42.5,156.5,43.0,148.5,43.5,140.0,43.5,131.5,43.5,123.0,43.0,114.5,43.5,106.5,44.0" stroke="black" stroke-width="2" fill="none" />
<polyline points="98.0,38.0,106.0,37.5,114.5,37.0,122.5,36.5,131.0,36.5,139.0,36.0,147.0,35.5,156.0,35.0,164.0,35.0,172.0,34.5,180.0,34.0,187.5,33.0,195.0,32.0,202.5,31.0,210.5,30.0,218.5,29.0,226.0,28.5,233.5,28.0,241.0,27.5,249.0,27.0,257.5,25.5" stroke="black" stroke-width="2" fill="none" />
<polyline points="259.5,12.0,251.0,12.0,243.5,12.5,235.5,13.5,227.5,13.5,220.0,14.0,211.5,14.5,204.0,14.5,195.5,15.0,187.5,15.0,179.0,15.0,171.5,15.0,163.0,16.0,155.0,17.0,147.0,18.0,139.5,19.0,131.5,19.0,123.0,20.0,114.0,20.5,106.0,21.0,98.0,21.5,90.0,22.5" stroke="black" stroke-width="2" fill="none" />
<polyline points="67.0,6.5,75.0,5.5,82.5,5.0,90.5,4.5,98.5,3.5,107.0,2.5,115.0,2.5,123.0,2.5,131.5,2.0,139.0,1.5,147.0,1.0,154.5,1.0,163.0,0.0,171.0,0.0,179.0,-0.5,187.0,-0.5,194.5,-1.5,202.0,-2.5,209.5,-3.5,217.0,-3.5,224.5,-4.0,233.0,-4.5,241.5,-5.0,250.0,-6.0,259.0,-7.0" stroke="black" stroke-width="2" fill="none" />
<polyline points="99.0,123.0,91.0,130.5" stroke="black" stroke-width="2" fill="none" />
<polyline points="90.5,123.0,82.5,130.5" stroke="black" stroke-width="2" fill="none" />
<polyline points="81.5,123.5,73.5,131.5" stroke="black" stroke-width="2" fill="none" />
<polyline points="68.5,131.0,76.5,124.0" stroke="black" stroke-width="2" fill="none" />
<polyline points="75.5,141.0,67.5,141.0" stroke="black" stroke-width="2" fill="none" />
<polyline points="77.0,135.5,69.0,137.0,61.0,139.5,53.0,139.5" stroke="black" stroke-width="2" fill="none" />
<polyline points="48.0,139.5,56.0,140.0,63.5,141.5,71.5,141.5,77.5,138.0" stroke="black" stroke-width="2" fill="none" />
<polyline points="76.0,129.0,67.0,129.0,58.5,129.5,50.0,130.0,42.0,130.5,34.0,131.5,26.5,131.5,18.5,132.0,11.0,132.0,3.5,132.0" stroke="black" stroke-width="2" fill="none" />
<polyline points="2.0,130.5,10.5,122.5,18.5,115.5" stroke="black" stroke-width="2" fill="none" />
<polyline points="26.0,115.0,18.5,122.5,10.5,130.0,2.5,138.0" stroke="black" stroke-width="2" fill="none" />
<polyline points="1.0,134.5,4.0,132.0,11.5,142.0,14.5,145.0,15.0,145.0" stroke="black" stroke-width="2" fill="none" />
<polyline points="14.0,138.0,22.0,150.0" stroke="black" stroke-width="2" fill="none" />
<polyline points="35.0,148.0,26.5,156.0,19.0,163.0,11.0,171.0,3.0,178.5" stroke="black" stroke-width="2" fill="none" />
<polyline points="4.0,178.5,12.0,178.0,20.0,176.5,28.0,175.5" stroke="black" stroke-width="2" fill="none" />
<polyline points="28.5,177.5,36.5,174.5,44.5,174.0,46.5,168.0,40.5,176.0,32.5,181.5,33.5,187.5,41.5,184.5" stroke="black" stroke-width="2" fill="none" />
<polyline points="44.0,189.0,35.5,196.0,27.0,203.0,18.5,210.0,10.5,217.0,2.5,224.0" stroke="black" stroke-width="2" fill="none" />
<polyline points="3.5,224.5,11.5,224.5,20.0,224.0,28.0,223.5,35.0,223.0,43.0,223.0,51.0,223.0,59.0,223.0,67.0,223.5,75.5,223.0,84.0,223.0,92.0,222.0,99.5,221.5,107.0,220.5,115.0,219.5" stroke="black" stroke-width="2" fill="none" />
<polyline points="99.0,206.0,91.0,206.5,82.5,207.0,74.5,207.5,67.0,208.0,59.5,208.0,52.0,209.0,44.0,209.5" stroke="black" stroke-width="2" fill="none" />
<polyline points="43.5,196.0,35.5,203.5,27.5,211.5,20.0,219.0,12.5,226.0,4.5,233.0" stroke="black" stroke-width="2" fill="none" />
<polyline points="4.5,232.0,12.5,231.5,20.5,231.0,28.5,231.0,37.0,230.5,45.5,230.0,53.5,230.5,61.5,230.5,70.0,230.5,78.0,230.0,85.5,230.0,94.0,229.5,101.5,228.5,109.5,227.0,117.0,226.0,124.5,225.5,132.0,225.0" stroke="black" stroke-width="2" fill="none" />
<polyline points="108.0,213.0,100.0,214.0,92.0,214.5,84.5,215.0,77.0,214.5,69.0,215.0,60.5,216.0,52.5,216.5,44.5,217.0,36.5,218.0,28.5,218.5,20.0,219.0,12.0,219.5" stroke="black" stroke-width="2" fill="none" />
<polyline points="3.0,218.5,11.0,210.5,19.0,202.5,27.0,195.0,35.0,187.5" stroke="black" stroke-width="2" fill="none" />
<polyline points="32.5,191.5,41.0,191.5,49.0,191.0,57.0,191.5,65.0,192.5,72.5,190.5,74.5,194.0,82.0,195.0,90.0,196.0,98.0,199.0,106.0,206.0,114.0,219.5,122.0,223.5,130.0,226.5,138.5,226.5,146.0,228.0,154.5,232.5,162.5,238.5,170.5,242.0,178.5,250.5" stroke="black" stroke-width="2" fill="none" />
<polyline points="173.5,240.0,165.5,239.5,157.5,240.5,149.5,242.0,141.5,242.5,133.0,243.0,125.0,243.5,116.5,244.0,108.5,244.5,100.5,245.0,92.5,246.0,84.5,246.5,76.0,246.5,68.0,246.5,59.5,246.5,51.0,247.0,43.0,247.5,35.0,247.5,27.5,248.5,19.5,249.5,11.5,250.5,4.0,251.0" stroke="black" stroke-width="2" fill="none" />
<polyline points="2.0,240.5,10.5,240.5,18.5,240.0,27.0,239.5,35.5,239.0,44.0,238.0,52.0,238.5,60.5,238.0,69.5,238.0,78.0,238.0,86.5,237.5,94.0,237.5,101.5,236.5,109.0,235.0,117.0,234.5,124.5,233.5,132.0,233.0,140.0,232.5,148.5,232.0,157.0,231.5" stroke="black" stroke-width="2" fill="none" />
<polyline points="122.0,214.0,113.5,215.0,105.5,216.0,97.5,217.0,90.0,218.5,82.0,219.0,74.0,219.5,66.0,219.5,58.0,219.5,50.0,219.0,42.0,219.0,34.0,219.0,26.0,219.5,18.0,219.5,10.5,219.5,2.0,219.5" stroke="black" stroke-width="2" fill="none" />
<polyline points="3.5,212.0,11.5,212.0,19.5,211.5,27.0,211.5,34.5,211.5,42.5,211.5,50.0,211.5,58.0,211.0,65.5,211.0,73.5,210.5,81.5,209.5,89.5,209.5,98.0,209.0,106.0,208.5,114.0,207.5" stroke="black" stroke-width="2" fill="none" />
<polyline points="106.5,199.5,98.5,200.0,90.5,200.5,82.0,201.0,74.0,201.5,66.5,201.5,59.0,202.0,51.5,202.5,44.0,202.5,36.0,202.5,28.0,202.5,19.5,202.5,11.5,203.0,3.0,203.5" stroke="black" stroke-width="2" fill="none" />
<polyline points="4.5,197.0,12.5,196.5,20.5,196.0,28.0,196.0,35.5,195.5,43.0,195.0,51.0,194.5,59.0,193.5,67.0,193.0,75.0,192.5,83.0,192.0,91.5,191.0,99.0,191.0" stroke="black" stroke-width="2" fill="none" />
<polyline points="90.0,184.5,81.5,185.5,74.0,185.5,66.0,186.0,58.5,186.5,50.5,187.5,43.5,188.5,35.0,189.0,27.0,189.5,19.5,190.0,11.5,190.0,3.5,191.0" stroke="black" stroke-width="2" fill="none" />
<polyline points="3.5,188.0,11.5,187.5,19.5,186.0,27.0,185.0" stroke="black" stroke-width="2" fill="none" />
<polyline points="30.5,179.5,39.0,182.5,47.0,177.0" stroke="black" stroke-width="2" fill="none" />
<polyline points="74.5,175.0,67.5,176.5,60.0,177.5,52.0,178.5,44.5,179.5,36.0,180.5,28.0,181.0,20.5,181.0,12.5,181.0,5.0,182.0" stroke="black" stroke-width="2" fill="none" />
<polyline points="3.5,185.5,12.0,177.5,19.5,170.0,27.5,162.0,35.0,154.0,43.5,146.0" stroke="black" stroke-width="2" fill="none" />
<polyline points="46.5,147.0,54.0,148.5,63.0,149.0,71.0,150.0,73.0,148.0,81.0,148.0,89.0,148.0,97.0,147.0,105.0,147.0,113.5,147.5,121.0,147.5" stroke="black" stroke-width="2" fill="none" />
<polyline points="118.0,145.0,110.0,144.0,102.0,143.0,94.5,143.5,86.5,140.5" stroke="black" stroke-width="2" fill="none" />
<polyline points="82.5,126.0,74.5,126.0,67.5,126.5,60.0,127.0,52.5,127.0,45.0,127.5,37.5,128.5" stroke="black" stroke-width="2" fill="none" />
<polyline points="34.5,137.5,42.5,139.5,50.5,134.5,58.5,134.5,66.5,132.5,74.5,129.5,82.5,129.5,90.5,129.5,98.0,128.5,105.5,127.5,113.0,128.5,121.5,127.5,129.5,127.5,137.5,127.5,146.0,127.5,153.5,128.5,162.0,126.5,170.5,126.0,178.5,127.0,186.5,127.0,195.5,127.0,195.0,128.5" stroke="black" stroke-width="2" fill="none" />
<polyline points="259.0,215.5,251.5,215.5,244.0,215.5,235.5,217.0,227.0,217.5,218.5,218.0,209.5,218.5,201.5,218.5,193.5,219.0,185.0,220.0,177.5,220.5,170.0,220.5,162.0,221.5,154.5,221.5,146.5,222.0,139.0,222.5,131.0,222.5,123.5,222.0,116.0,223.0,108.5,224.0,100.5,225.0,93.5,225.5,86.0,225.5,77.5,226.0,68.5,226.5,60.5,226.5,52.5,226.5,44.5,227.5,36.0,227.0,28.0,227.5,20.5,227.5,13.0,227.5,5.0,228.0" stroke="black" stroke-width="2" fill="none" />
<polyline points="82.0,184.0,90.0,185.0,97.0,189.0,105.0,190.0,112.5,191.5" stroke="black" stroke-width="2" fill="none" />
<polyline points="26.5,126.5,18.0,127.0,10.0,127.5,2.0,128.0" stroke="black" stroke-width="2" fill="none" />
<polyline points="4.0,122.0,12.5,122.0,20.5,121.5,28.0,121.0,36.0,120.5,44.0,119.5" stroke="black" stroke-width="2" fill="none" />
<polyline points="33.0,122.0,25.0,124.0" stroke="black" stroke-width="2" fill="none" />
<polyline points="18.5,110.0,10.5,110.5,2.5,111.5" stroke="black" stroke-width="2" fill="none" />
<polyline points="2.0,105.0,9.5,106.0,17.5,109.5,26.0,110.5,34.5,113.0,42.5,113.0,50.5,113.0,58.5,115.0,66.5,115.0,74.5,115.0,76.0,119.5,84.5,118.5,92.5,115.0,100.5,114.5,108.5,114.5,116.5,114.5,124.5,114.5,132.5,115.0,140.5,115.5,148.5,116.0,156.0,116.0,164.0,114.5,172.0,114.5,179.5,114.5,187.5,114.5,195.5,114.5,203.5,115.5,211.5,115.0,219.5,115.0,227.5,115.0,235.5,115.0,243.5,115.0,251.5,115.0" stroke="black" stroke-width="2" fill="none" />
<polyline points="90.5,35.0,82.0,35.5,73.5,36.0,65.5,36.5,57.5,37.0" stroke="black" stroke-width="2" fill="none" />
<polyline points="44.5,35.5,36.5,36.0,28.5,36.5,20.5,37.0,12.5,37.5,4.5,38.0" stroke="black" stroke-width="2" fill="none" />
<polyline points="6.0,31.5,14.0,31.0,22.0,30.5,29.5,29.5,36.5,29.0,44.0,28.5,51.5,27.5,59.0,26.0,66.5,25.0,74.0,24.5,82.0,24.0,90.0,23.0,98.5,22.5,107.0,21.5,116.0,21.5,124.5,20.5,133.0,20.5,141.5,20.0,150.0,19.5,158.5,19.0,166.5,18.5,174.0,18.0,181.5,18.0,189.0,17.5,196.5,17.0,204.0,16.5,212.0,16.0,220.0,15.5,228.0,15.0,235.0,15.0,243.0,14.0,251.0,13.5,260.0,12.5" stroke="black" stroke-width="2" fill="none" />
<polyline points="82.0,15.5,74.5,16.0,66.5,16.5,58.5,17.5,51.0,18.5,43.5,19.0,36.0,19.5,29.0,20.0,21.5,21.0,14.0,21.5,6.0,22.0" stroke="black" stroke-width="2" fill="none" />
<polyline points="6.0,15.0,14.0,15.0,21.0,14.0,28.5,13.0,36.0,11.5,43.5,11.0,51.5,9.5,59.5,9.0,68.0,8.5,76.0,7.5,84.0,7.0,92.0,7.0,100.0,6.5,108.0,6.5,115.5,6.0,123.0,6.0,132.0,6.0,140.0,5.5,148.5,5.0,157.0,5.0,165.0,4.5,173.0,4.0,181.5,3.5,189.5,3.0,197.0,2.0,205.0,1.5,212.5,0.0,220.0,-1.0,227.5,-2.5,236.0,-3.5,244.0,-4.0,251.5,-4.5,259.5,-4.0" stroke="black" stroke-width="2" fill="none" />
<polyline points="26.5,48.5,18.5,47.5,10.5,47.5,2.5,47.5" stroke="black" stroke-width="2" fill="none" />
<polyline points="9.0,130.0,17.0,127.5,24.5,127.5,24.5,133.0,28.0,135.0,37.0,141.0,42.5,148.5,50.5,151.5,56.0,157.0,52.5,161.0,55.5,167.0" stroke="black" stroke-width="2" fill="none" />
<polyline points="18.5,148.0,19.0,136.5,11.5,133.5" stroke="black" stroke-width="2" fill="none" />
</svg>