<svg xmlns="http://www.w3.org/2000/svg" version="1.1"><polyline points="42.0,79.0,56.5,87.0,69.5,95.5,84.0,104.0,98.0,112.0,111.5,120.0,131.5,129.0,151.0,137.5" stroke="black" stroke-width="2" fill="none" />
<polyline points="148.0,133.5,139.5,141.0,131.5,148.0" stroke="black" stroke-width="2" fill="none" />
<polyline points="123.5,146.0,131.5,139.0,139.5,131.0" stroke="black" stroke-width="2" fill="none" />
<polyline points="131.0,129.0,123.0,136.5,115.0,144.5" stroke="black" stroke-width="2" fill="none" />
<polyline points="121.5,144.5,130.0,144.0,138.0,143.5,146.5,143.0,155.0,142.0" stroke="black" stroke-width="2" fill="none" />
<polyline points="158.0,139.0,149.5,146.5,141.5,153.5" stroke="black" stroke-width="2" fill="none" />
<polyline points="147.5,155.5,155.0,148.0,163.0,141.0" stroke="black" stroke-width="2" fill="none" />
<polyline points="170.5,137.5,162.5,145.0,154.5,153.0" stroke="black" stroke-width="2" fill="none" />
<polyline points="149.0,153.0,157.0,152.5,165.0,152.5,173.0,152.5,181.5,152.0,189.5,151.5" stroke="black" stroke-width="2" fill="none" />
<polyline points="185.5,145.0,178.0,152.5,169.5,161.0" stroke="black" stroke-width="2" fill="none" />
<polyline points="180.0,161.5,188.5,153.5,196.5,146.0" stroke="black" stroke-width="2" fill="none" />
<polyline points="206.0,148.0,198.0,155.5,189.5,163.0" stroke="black" stroke-width="2" fill="none" />
<polyline points="182.0,161.5,190.0,163.5,198.0,162.5" stroke="black" stroke-width="2" fill="none" />
<polyline points="211.0,162.5,219.0,155.0,227.0,147.5" stroke="black" stroke-width="2" fill="none" />
<polyline points="234.0,147.5,226.0,155.5,218.0,163.0" stroke="black" stroke-width="2" fill="none" />
<polyline points="219.0,160.5,227.0,160.0" stroke="black" stroke-width="2" fill="none" />
<polyline points="227.5,169.5,235.5,162.0,243.5,154.5,251.5,147.5" stroke="black" stroke-width="2" fill="none" />
<polyline points="243.0,147.5,235.0,155.0,227.0,162.0,219.0,170.0" stroke="black" stroke-width="2" fill="none" />
<polyline points="221.5,175.0,229.5,176.0,237.5,176.0,245.5,177.5,253.5,177.5" stroke="black" stroke-width="2" fill="none" />
<polyline points="253.0,179.0,261.5,171.5" stroke="black" stroke-width="2" fill="none" />
<polyline points="259.5,162.0,252.0,170.0,244.5,177.5" stroke="black" stroke-width="2" fill="none" />
<polyline points="237.0,177.5,245.0,170.0,253.0,162.5,261.5,155.0" stroke="black" stroke-width="2" fill="none" />
<polyline points="261.5,147.5,253.5,155.0,245.5,163.0,237.0,170.5" stroke="black" stroke-width="2" fill="none" />
<polyline points="240.5,170.5,248.5,169.5,257.5,169.0" stroke="black" stroke-width="2" fill="none" />
<polyline points="260.0,174.5,252.5,174.5,244.5,175.0,236.0,175.5,228.0,176.5,219.5,177.5,211.5,178.0,204.0,178.5,196.0,179.0,188.0,179.5,180.0,179.5,172.5,179.5,164.0,180.0,156.0,180.0,147.5,181.0,139.0,181.5,131.0,182.5,123.0,183.0,115.0,183.0,107.5,183.5,100.0,184.0,91.5,184.5,83.5,185.5,76.0,186.0,68.0,186.5,60.0,187.0,52.0,187.5,44.0,188.5,36.0,188.5,27.5,189.0,19.5,189.5,11.0,189.5,3.0,189.5" stroke="black" stroke-width="2" fill="none" />
<polyline points="5.5,189.5,14.0,182.0,22.0,175.0,29.5,167.5,37.0,160.5,44.5,153.0,52.5,145.5,60.5,138.0,68.5,131.0,76.0,123.5,83.5,116.0,91.0,108.0" stroke="black" stroke-width="2" fill="none" />
<polyline points="84.0,106.5,75.5,114.5,67.0,122.5,59.0,130.0,50.0,138.0" stroke="black" stroke-width="2" fill="none" />
<polyline points="43.0,138.5,51.0,131.0,59.0,123.0,67.5,116.0,75.0,108.5" stroke="black" stroke-width="2" fill="none" />
<polyline points="75.0,100.5,67.5,108.0,59.5,115.5,52.0,122.5,44.0,129.5,36.0,137.0,28.0,144.0,19.5,151.5,11.0,159.0,2.0,166.0" stroke="black" stroke-width="2" fill="none" />
<polyline points="3.5,167.0,12.0,166.5,20.0,166.0,28.5,165.0,37.0,164.5,45.0,163.5,53.0,162.5,61.5,162.0,69.0,161.5,77.0,160.5,85.0,160.0,93.0,159.5,101.0,159.5,109.0,159.5,117.5,159.0,125.5,158.5,133.5,159.0,141.5,158.5,149.0,158.5,156.5,158.5,164.5,158.0,172.5,157.5,181.0,156.5,189.5,155.5,197.0,154.5,205.0,154.0,212.5,152.5,220.0,151.5,227.5,150.0,235.0,149.0,243.0,148.0,251.0,147.5,259.0,147.5" stroke="black" stroke-width="2" fill="none" />
<polyline points="259.0,157.0,251.0,157.5,243.0,158.0,235.0,158.0,227.0,158.5,219.5,159.0,212.0,160.0,204.0,161.5,196.0,162.0,187.5,163.0,179.0,163.5,171.0,163.5,163.5,163.5,155.5,164.5,147.5,165.5,140.0,167.0,132.0,167.5,123.5,167.5,115.5,168.0,106.5,168.5,98.0,169.0,90.0,170.0,82.0,171.0,73.5,171.0,65.5,171.0,58.0,171.0,50.5,170.5,43.0,170.5,35.0,171.0,26.5,171.0,18.0,171.0,9.5,171.5,1.0,172.5" stroke="black" stroke-width="2" fill="none" />
<polyline points="2.0,170.0,10.5,169.5,19.0,168.5,27.0,167.5" stroke="black" stroke-width="2" fill="none" />
<polyline points="32.5,164.0,40.5,164.0,48.5,163.0,56.0,163.0,64.0,165.5" stroke="black" stroke-width="2" fill="none" />
<polyline points="68.5,162.0,76.5,154.0,84.0,146.0,92.0,138.5,100.5,131.0,108.5,123.5" stroke="black" stroke-width="2" fill="none" />
<polyline points="116.0,122.0,108.0,129.5,99.5,136.5,91.5,144.5,83.0,152.5,74.5,160.5" stroke="black" stroke-width="2" fill="none" />
<polyline points="82.0,158.5,90.0,162.0" stroke="black" stroke-width="2" fill="none" />
<polyline points="91.0,161.5,99.0,154.0,107.5,146.5,116.0,138.5,124.5,130.5,132.5,123.0" stroke="black" stroke-width="2" fill="none" />
<polyline points="131.0,117.5,139.0,117.0,147.0,116.0,155.0,115.0,163.0,114.5,171.0,113.5,178.5,113.5,186.5,113.0,194.5,112.5,202.5,111.5,210.5,111.0,219.0,110.5,227.0,110.5,235.5,110.5,244.0,110.0,252.5,109.5,260.0,109.0" stroke="black" stroke-width="2" fill="none" />
<polyline points="259.0,104.5,251.5,104.5,243.5,105.5,235.5,106.5,228.0,108.0,220.0,108.5,211.5,108.5,203.5,109.0,194.5,109.5,186.0,110.0,178.0,111.0,170.0,112.0" stroke="black" stroke-width="2" fill="none" />
<polyline points="163.5,108.0,156.0,108.5,148.0,109.0" stroke="black" stroke-width="2" fill="none" />
<polyline points="145.0,105.0,132.5,113.0,121.5,121.0,127.5,126.0,135.5,129.5,144.0,133.5,152.0,137.0,160.5,139.5,168.0,141.5,176.0,143.5,184.0,145.5,192.0,144.5,199.5,142.5,207.5,138.5" stroke="black" stroke-width="2" fill="none" />
<polyline points="213.5,149.0,205.5,156.5,197.5,164.5" stroke="black" stroke-width="2" fill="none" />
<polyline points="202.5,163.5,210.5,156.5,218.0,149.5" stroke="black" stroke-width="2" fill="none" />
<polyline points="244.5,139.5,252.5,138.0" stroke="black" stroke-width="2" fill="none" />
<polyline points="203.5,101.5,195.5,102.5" stroke="black" stroke-width="2" fill="none" />
<polyline points="182.5,138.5,190.5,136.5,198.5,132.5,192.5,135.0,191.5,139.5,188.5,139.5,192.5,147.0,200.5,149.5" stroke="black" stroke-width="2" fill="none" />
<polyline points="178.5,146.0,170.0,153.5,162.0,160.5" stroke="black" stroke-width="2" fill="none" />
<polyline points="155.0,161.5,163.0,154.0,171.0,147.0,179.0,139.0" stroke="black" stroke-width="2" fill="none" />
<polyline points="146.0,140.0,138.0,147.5,130.0,155.0,122.0,163.0,114.0,170.0" stroke="black" stroke-width="2" fill="none" />
<polyline points="122.5,169.5,130.5,162.0" stroke="black" stroke-width="2" fill="none" />
<polyline points="138.0,161.0,146.0,162.0,154.0,165.0,162.0,165.5,169.5,165.5,177.5,165.5,185.5,167.5,191.5,173.5,199.5,174.0" stroke="black" stroke-width="2" fill="none" />
<polyline points="191.5,178.5,199.5,178.5,207.5,177.0,215.5,177.0,223.5,174.0,231.0,174.5" stroke="black" stroke-width="2" fill="none" />
<polyline points="225.5,200.0,217.5,200.5,209.5,201.5,201.5,201.5,194.0,202.0,187.0,202.0,179.0,202.5,171.5,202.5,164.0,202.5,155.0,203.5,147.0,204.5,138.5,205.5,131.0,206.5,123.0,207.0,114.5,207.5,106.0,207.5,97.5,208.0,88.5,208.5,80.5,209.5,73.0,210.0,66.0,210.5,58.5,211.0,51.0,211.5,43.5,211.5,35.5,212.0,27.0,212.0,18.5,212.5,10.5,213.0,2.0,213.5" stroke="black" stroke-width="2" fill="none" />
<polyline points="1.5,213.0,9.5,215.0,16.5,217.0,14.5,225.0,17.0,230.5,10.0,231.5,4.5,236.5,3.5,244.5,10.0,238.5,17.5,246.5" stroke="black" stroke-width="2" fill="none" />
<polyline points="19.0,243.0,11.0,251.0,2.5,259.0" stroke="black" stroke-width="2" fill="none" />
<polyline points="4.0,253.5,12.0,253.0,20.0,253.0,28.0,252.5,36.5,252.5,44.0,252.0,52.0,251.0,59.5,250.5,67.5,249.5,75.5,248.5,83.0,248.0,91.0,248.0,98.5,248.0,106.5,248.0,114.0,247.0,122.5,246.5,130.5,246.0,138.5,246.0,147.0,245.5,155.0,244.5,163.5,243.5,171.0,243.0,179.0,242.0,187.0,241.5,195.0,241.0,203.5,240.0,211.0,240.0,219.5,240.0,227.5,240.0,235.0,240.0,243.0,240.0,251.0,239.0,259.5,238.5" stroke="black" stroke-width="2" fill="none" />
<polyline points="261.5,234.5,253.5,242.0,245.0,250.0,237.0,258.0" stroke="black" stroke-width="2" fill="none" />
<polyline points="253.0,260.0,261.0,252.5" stroke="black" stroke-width="2" fill="none" />
<polyline points="260.0,243.0,252.5,250.5,244.5,258.0" stroke="black" stroke-width="2" fill="none" />
<polyline points="229.5,259.0,237.5,251.0,245.5,243.5,253.0,236.5,260.5,229.0" stroke="black" stroke-width="2" fill="none" />
<polyline points="261.0,221.0,253.0,228.5,244.5,236.0,236.5,243.0,229.0,249.5,221.0,256.5" stroke="black" stroke-width="2" fill="none" />
<polyline points="228.5,254.5,220.5,254.5,212.5,255.0" stroke="black" stroke-width="2" fill="none" />
<polyline points="211.5,257.5,219.5,250.0,227.5,243.0,235.5,235.5,243.5,228.0,251.5,220.5" stroke="black" stroke-width="2" fill="none" />
<polyline points="241.5,219.5,233.5,227.5,225.5,235.0,218.0,242.5,211.0,250.0" stroke="black" stroke-width="2" fill="none" />
<polyline points="195.0,257.0,202.5,249.5,210.5,242.0,218.0,234.5,225.5,226.5,233.5,219.0" stroke="black" stroke-width="2" fill="none" />
<polyline points="238.0,216.5,231.0,220.5,230.0,234.5,237.5,241.5,243.0,240.0,239.0,238.5,238.0,253.0,233.0,253.0" stroke="black" stroke-width="2" fill="none" />
<polyline points="235.0,241.5,239.0,233.5" stroke="black" stroke-width="2" fill="none" />
<polyline points="226.5,219.5,218.5,227.0,210.0,234.5,202.0,242.0,194.0,249.0,186.5,256.5" stroke="black" stroke-width="2" fill="none" />
<polyline points="177.5,257.0,185.5,249.5,193.5,241.5,201.5,234.0,209.5,226.5,217.5,219.0" stroke="black" stroke-width="2" fill="none" />
<polyline points="210.0,221.5,202.5,228.5,195.0,236.0,187.0,243.5,179.0,251.0,171.0,258.5" stroke="black" stroke-width="2" fill="none" />
<polyline points="171.0,253.5,163.0,261.0" stroke="black" stroke-width="2" fill="none" />
<polyline points="155.5,256.0,163.0,256.0,171.5,256.0,179.5,256.0" stroke="black" stroke-width="2" fill="none" />
<polyline points="185.0,246.0,186.5,243.0,194.5,241.5" stroke="black" stroke-width="2" fill="none" />
<polyline points="199.5,245.5,195.5,245.5,197.0,238.5,203.0,233.5,202.0,232.5" stroke="black" stroke-width="2" fill="none" />
<polyline points="205.0,221.0,197.0,228.0,189.0,235.5,181.5,242.5" stroke="black" stroke-width="2" fill="none" />
<polyline points="173.0,242.0,181.0,235.0,189.0,227.5,196.5,220.0" stroke="black" stroke-width="2" fill="none" />
<polyline points="192.5,218.5,193.5,215.5,201.5,220.5,206.5,224.0,213.0,225.5,213.5,236.0,212.5,246.0,212.5,251.0,203.5,252.0,211.0,246.5,219.0,239.5,226.5,233.5,229.5,230.0,236.5,228.0,244.5,230.0,252.0,228.0,254.0,231.0,253.5,237.0" stroke="black" stroke-width="2" fill="none" />
<polyline points="261.5,228.5,253.5,229.5,246.0,230.0,238.0,231.0,229.5,231.5,221.0,232.5,212.5,233.0,204.5,233.5,196.5,234.0,188.5,235.0,180.0,235.5,171.5,236.0,163.0,236.0,155.0,237.0,147.0,237.5,139.0,237.5,131.0,237.5,123.0,237.5,115.5,237.5,107.5,238.5,99.5,239.0,91.5,239.5,83.5,240.0,75.5,241.0,67.5,241.0,59.0,242.0,51.0,243.0,42.5,244.0,35.0,244.5,27.5,245.0,19.5,246.0,11.0,246.0,3.5,246.5" stroke="black" stroke-width="2" fill="none" />
<polyline points="1.0,248.0,9.0,241.0,17.5,234.0,26.5,226.5,35.0,219.0,43.5,212.0,51.5,205.0" stroke="black" stroke-width="2" fill="none" />
<polyline points="44.5,204.5,36.5,212.0,28.0,219.0,19.5,226.0,11.0,233.5,2.5,241.5" stroke="black" stroke-width="2" fill="none" />
<polyline points="1.0,237.5,9.5,237.0,18.5,236.0,27.0,236.0,35.5,235.5,44.5,235.5,52.5,235.0,60.5,234.5,69.0,234.0,77.0,233.0,85.0,232.5,93.0,232.0,101.0,231.5,108.5,230.5,116.0,229.5,124.0,228.5,132.0,228.0,140.0,228.0,148.0,228.0,156.0,228.5,164.5,228.0,172.0,227.5,180.0,226.5,188.0,226.0,196.0,225.5,204.0,225.0,212.0,224.0,220.5,223.5,228.5,223.0,236.5,223.0,244.5,223.0,252.5,222.0,260.5,221.5" stroke="black" stroke-width="2" fill="none" />
<polyline points="260.5,215.0,251.5,216.0,243.0,216.5,235.5,217.5,227.5,217.5,219.5,217.5,212.0,217.0,204.0,217.5,196.0,217.5,187.5,218.0,179.0,218.0,171.0,218.0,163.0,218.5,155.0,219.0,148.0,219.0,140.5,220.0,132.5,221.0,125.0,222.5,117.0,223.0,109.0,224.0,101.0,225.0,93.0,225.5,85.0,226.0,77.0,226.5,69.0,227.5,61.0,227.5,52.0,227.5,44.0,228.0,35.5,227.5,27.5,228.0,19.0,228.0,11.0,228.5,3.0,228.5" stroke="black" stroke-width="2" fill="none" />
<polyline points="2.0,231.0,10.0,232.0,9.0,243.0,12.0,245.0" stroke="black" stroke-width="2" fill="none" />
<polyline points="19.0,252.0,11.0,259.5" stroke="black" stroke-width="2" fill="none" />
<polyline points="20.0,256.0,28.0,249.5,36.0,242.0,43.5,235.0,51.0,227.5,59.0,219.5,67.5,211.5" stroke="black" stroke-width="2" fill="none" />
<polyline points="69.5,210.0,78.0,209.0,76.0,217.0,64.5,229.5,68.0,239.5,65.5,247.5,66.5,245.5,70.5,240.5,76.5,236.5,79.5,239.5,87.5,236.0,89.5,233.0,96.0,235.5,99.0,239.5,109.5,233.5,118.5,231.5,126.5,234.0" stroke="black" stroke-width="2" fill="none" />
<polyline points="124.5,234.0,132.5,226.5,140.5,219.0,148.5,212.0" stroke="black" stroke-width="2" fill="none" />
<polyline points="155.5,211.5,147.5,219.0,139.5,226.5,131.0,234.0,123.5,242.0,115.5,249.5,108.0,256.5" stroke="black" stroke-width="2" fill="none" />
<polyline points="108.5,250.5,100.5,258.5" stroke="black" stroke-width="2" fill="none" />
<polyline points="116.0,260.0,124.0,252.5,132.5,245.0,141.0,237.5" stroke="black" stroke-width="2" fill="none" />
<polyline points="146.0,227.5,154.5,220.0,162.5,212.5" stroke="black" stroke-width="2" fill="none" />
<polyline points="161.5,217.5,153.5,221.5,145.5,223.0,138.0,227.5,130.0,228.5,125.0,226.5,123.5,232.0,120.0,223.5,118.0,227.5,110.5,230.5,102.0,225.5,94.0,227.5" stroke="black" stroke-width="2" fill="none" />
<polyline points="97.5,227.5,110.0,234.5,108.0,243.0,117.0,250.5,124.5,249.0,128.5,241.0,132.5,252.0,137.5,251.0,142.5,254.0" stroke="black" stroke-width="2" fill="none" />
<polyline points="147.0,257.0,155.0,249.5,162.5,241.0,170.5,233.0,178.5,225.5,187.0,218.5" stroke="black" stroke-width="2" fill="none" />
<polyline points="186.5,209.5,178.5,217.0,170.5,225.0,163.0,233.0,156.0,240.5,148.5,248.0,140.5,256.0" stroke="black" stroke-width="2" fill="none" />
<polyline points="132.0,257.0,139.0,249.5,146.5,242.0,154.0,234.5,161.5,227.0,169.5,219.0" stroke="black" stroke-width="2" fill="none" />
<polyline points="166.5,216.5,167.5,224.0,167.5,233.0,163.5,241.0,163.5,249.0,159.0,250.0,167.5,251.0" stroke="black" stroke-width="2" fill="none" />
<polyline points="162.0,251.5,154.0,259.0" stroke="black" stroke-width="2" fill="none" />
<polyline points="124.5,258.0,132.5,250.5,140.0,242.5,148.0,235.0,155.5,227.5,163.5,220.0" stroke="black" stroke-width="2" fill="none" />
<polyline points="163.0,226.5,171.0,224.5,179.0,222.0" stroke="black" stroke-width="2" fill="none" />
<polyline points="177.0,228.5,169.0,227.5" stroke="black" stroke-width="2" fill="none" />
<polyline points="183.5,234.5,175.5,231.5,174.5,233.5,166.5,231.5,157.5,227.0,150.0,228.0" stroke="black" stroke-width="2" fill="none" />
<polyline points="149.5,225.5,157.0,223.5,158.0,223.0,151.0,232.5,159.0,233.5,153.0,235.5,161.0,228.5,163.0,220.5,170.5,215.5,185.5,218.5,191.5,211.5,199.5,213.5" stroke="black" stroke-width="2" fill="none" />
<polyline points="195.5,199.5,188.0,200.0" stroke="black" stroke-width="2" fill="none" />
<polyline points="187.5,205.5,179.5,206.0" stroke="black" stroke-width="2" fill="none" />
<polyline points="178.0,206.5,185.0,197.5,180.5,205.5,171.5,213.5,174.0,222.0,179.5,219.0,181.5,226.0,182.0,233.0,181.0,244.0,177.5,252.0,178.5,250.5,187.5,255.5,191.5,250.0,195.5,253.0,203.0,254.5,203.5,242.5,211.5,239.5,215.5,244.0,223.0,246.0,231.0,248.0,239.0,248.0,247.0,249.0,255.5,251.0" stroke="black" stroke-width="2" fill="none" />
<polyline points="258.0,207.0,250.0,208.0,242.5,208.5,234.5,209.0,227.0,208.5,219.0,208.5,212.0,209.0,204.0,209.0,196.0,209.0,188.0,209.5,179.5,210.0,171.5,211.5,164.0,212.0,156.0,212.5,148.0,213.5,139.5,214.0,131.5,214.5,123.5,214.5,115.0,215.5,107.0,215.5,99.0,216.0,91.0,216.5,83.0,216.5,75.0,217.5,67.0,217.5,59.5,218.0,51.5,218.5,43.0,218.5,35.0,219.0,27.0,219.0,19.0,219.5,11.0,220.0,3.0,220.5" stroke="black" stroke-width="2" fill="none" />
<polyline points="1.5,222.5,5.0,218.5" stroke="black" stroke-width="2" fill="none" />
<polyline points="9.5,217.5,2.0,214.5" stroke="black" stroke-width="2" fill="none" />
<polyline points="2.5,213.0,10.0,205.5,17.5,198.0,25.5,190.0,33.0,183.0,41.5,175.5,49.5,168.0,58.0,160.0,66.5,152.5,75.0,145.0,84.0,137.5,92.5,130.0,101.0,122.5,109.5,114.5" stroke="black" stroke-width="2" fill="none" />
<polyline points="101.0,115.0,92.5,122.0,84.0,129.5,75.5,137.0,67.5,144.5,59.5,151.5,51.5,159.5,44.0,168.0,36.0,175.5,28.0,183.5,19.5,191.0,11.5,198.5,4.0,206.0" stroke="black" stroke-width="2" fill="none" />
<polyline points="2.0,206.5,10.0,206.0,18.0,205.0,26.0,204.5,34.0,203.5,42.0,203.0,50.0,202.0,58.5,201.0,67.0,200.5,75.0,200.0,83.0,199.5,91.0,199.0,99.5,199.0,108.0,198.5,116.0,198.0,124.0,197.5" stroke="black" stroke-width="2" fill="none" />
<polyline points="130.0,196.0,138.0,189.0,146.5,181.5" stroke="black" stroke-width="2" fill="none" />
<polyline points="144.0,188.0,152.0,190.0,160.0,190.0,168.0,189.0" stroke="black" stroke-width="2" fill="none" />
<polyline points="147.0,189.5,139.5,197.0" stroke="black" stroke-width="2" fill="none" />
<polyline points="131.0,187.0,123.0,194.5" stroke="black" stroke-width="2" fill="none" />
<polyline points="125.0,191.0,133.0,193.5,141.0,193.5,149.0,192.5,157.0,193.0,165.0,192.5,173.0,191.5,181.0,191.5,189.5,191.5,197.5,191.5,205.5,191.5,213.0,191.5,221.0,191.0,229.5,191.0,237.5,191.0,245.5,191.0,253.5,190.5" stroke="black" stroke-width="2" fill="none" />
<polyline points="259.5,165.0,251.5,166.0,243.5,166.0,235.5,166.5,226.5,167.5,218.5,168.0,211.0,168.5,203.0,169.5,195.0,170.5,187.0,171.0,179.0,171.0,171.5,172.0,163.0,172.5,155.0,173.0,147.0,173.5,139.0,174.5,131.0,175.5,123.0,176.5,115.0,177.0,107.0,177.5,99.5,178.0,91.5,178.5,84.0,179.0,76.0,179.5,68.0,179.5,60.5,179.5,53.0,179.0,45.0,179.0,36.5,179.0,28.0,179.0,20.0,179.0,11.5,179.5,4.0,180.0" stroke="black" stroke-width="2" fill="none" />
<polyline points="3.0,176.5,10.5,169.0,18.0,161.5,25.5,154.0,34.0,146.5" stroke="black" stroke-width="2" fill="none" />
<polyline points="35.0,139.0,46.5,139.5,42.0,147.5,30.0,153.5,38.0,150.5,46.0,146.5,51.5,136.0" stroke="black" stroke-width="2" fill="none" />
<polyline points="43.5,128.0,52.0,128.0,59.5,127.5,67.5,127.0,75.5,126.5,83.5,126.0,92.0,126.0,100.5,126.0,108.5,126.5,116.5,127.0" stroke="black" stroke-width="2" fill="none" />
<polyline points="123.0,124.0,115.5,131.5,108.0,139.0,100.5,147.0,93.0,154.5,85.5,162.0" stroke="black" stroke-width="2" fill="none" />
<polyline points="88.0,155.0,89.0,159.5,99.0,164.0,107.0,165.0,114.5,166.0,122.5,165.0" stroke="black" stroke-width="2" fill="none" />
<polyline points="122.5,156.5,114.5,163.5,107.0,170.5" stroke="black" stroke-width="2" fill="none" />
<polyline points="97.5,169.5,105.5,161.5,113.5,154.0" stroke="black" stroke-width="2" fill="none" />
<polyline points="107.5,156.0,99.0,164.0" stroke="black" stroke-width="2" fill="none" />
<polyline points="97.0,160.5,105.5,160.0,113.5,159.5" stroke="black" stroke-width="2" fill="none" />
<polyline points="105.5,188.0,97.5,195.5" stroke="black" stroke-width="2" fill="none" />
<polyline points="92.5,194.0,100.5,186.5" stroke="black" stroke-width="2" fill="none" />
<polyline points="91.5,187.5,83.0,195.0" stroke="black" stroke-width="2" fill="none" />
<polyline points="75.0,194.0,83.0,186.5" stroke="black" stroke-width="2" fill="none" />
<polyline points="76.0,190.0,68.0,197.5" stroke="black" stroke-width="2" fill="none" />
<polyline points="71.0,202.5,60.5,203.5,56.5,211.5,54.5,221.5,61.0,228.5,58.5,236.5,57.0,241.5,58.0,244.5,55.0,251.5,61.0,255.5,61.0,255.5,63.0,251.5,70.5,253.5,83.0,253.0,93.0,253.5,99.5,247.5,100.0,250.0,106.5,251.5,114.5,245.5,121.5,240.5,129.5,242.5,134.5,233.5,139.5,234.0,143.0,233.5,148.5,241.5,156.5,243.5,165.0,240.0,173.0,237.0,181.0,228.0,189.5,228.0,192.5,231.0,196.5,230.0,202.5,229.0,209.5,224.0,217.5,222.5,218.5,226.5,227.0,222.0,229.5,224.0,241.5,222.0,250.0,225.0" stroke="black" stroke-width="2" fill="none" />
<polyline points="227.5,215.0,223.5,223.0" stroke="black" stroke-width="2" fill="none" />
<polyline points="184.5,204.5,184.5,207.5,182.5,215.0,186.0,214.5,193.5,215.5,199.5,226.5,203.0,228.0,188.0,232.0,189.0,237.0,186.5,245.0,182.5,254.0" stroke="black" stroke-width="2" fill="none" />
<polyline points="152.0,250.0,150.0,247.5,146.0,245.5,150.0,236.5,147.0,230.0,147.0,227.0,135.0,223.0" stroke="black" stroke-width="2" fill="none" />
<polyline points="140.5,212.0,132.5,219.5,124.0,227.5,116.0,235.0,108.0,242.0,99.5,249.0,91.0,256.5" stroke="black" stroke-width="2" fill="none" />
<polyline points="91.5,256.5,83.5,257.0" stroke="black" stroke-width="2" fill="none" />
<polyline points="81.5,256.0,90.0,248.0,97.5,241.0,105.5,233.5,113.5,226.0,122.0,218.0,130.0,210.5" stroke="black" stroke-width="2" fill="none" />
<polyline points="124.5,211.5,116.5,219.0,108.5,227.0,100.5,235.0,92.5,243.0,84.5,251.0,77.0,258.5" stroke="black" stroke-width="2" fill="none" />
<polyline points="75.5,248.5,83.5,240.5,91.0,232.5,98.5,225.0,106.5,217.5,114.5,210.5" stroke="black" stroke-width="2" fill="none" />
<polyline points="120.0,214.0,117.0,222.0,111.5,223.0,108.0,227.0,99.5,233.0,95.0,238.0,97.0,239.0,101.0,245.0,106.0,249.0,113.0,255.0,119.0,255.0" stroke="black" stroke-width="2" fill="none" />
<polyline points="120.0,251.5,123.5,243.5" stroke="black" stroke-width="2" fill="none" />
<polyline points="111.5,247.5,109.5,239.5" stroke="black" stroke-width="2" fill="none" />
<polyline points="99.5,231.5,101.0,227.5" stroke="black" stroke-width="2" fill="none" />
<polyline points="99.0,220.5,107.5,220.5,115.5,218.5,124.0,223.5" stroke="black" stroke-width="2" fill="none" />
<polyline points="107.5,212.5,99.5,219.5,92.0,227.0,84.0,234.5,75.5,241.5,67.5,248.5" stroke="black" stroke-width="2" fill="none" />
<polyline points="51.0,256.0,59.0,248.5,67.5,240.5,76.0,233.0,85.0,225.5,93.5,218.5,101.5,211.0" stroke="black" stroke-width="2" fill="none" />
<polyline points="101.5,210.5,117.0,212.5,133.0,211.5,137.5,219.0,127.5,222.5,129.5,230.5,132.5,231.5,127.0,239.5,132.0,237.0,130.5,241.0,129.0,249.0,124.5,255.5,129.0,251.5,138.0,244.5,140.0,239.5,148.0,237.5,153.5,246.0,161.5,246.0,169.5,243.5,176.5,250.5,184.5,250.5,190.5,237.5,193.5,238.0,201.5,235.0,204.5,239.0,212.0,237.5,220.0,232.0,228.0,229.0,235.5,226.5,242.0,222.5,230.0,228.5,217.5,232.5,219.0,238.5,204.0,242.0,194.0,250.0,199.0,256.0,211.0,248.5,221.0,248.5,230.0,254.5,238.0,249.5,243.5,242.0,251.0,245.5,255.5,241.0" stroke="black" stroke-width="2" fill="none" />
<polyline points="223.0,179.0,215.0,179.0,207.5,179.5,200.0,179.5,192.0,179.5" stroke="black" stroke-width="2" fill="none" />
<polyline points="139.5,134.5,131.0,134.5,123.0,135.5,115.0,136.0,107.0,136.0,99.0,136.5,91.5,137.5,84.0,138.0,75.5,138.0,68.0,138.5" stroke="black" stroke-width="2" fill="none" />
<polyline points="60.5,145.5,68.5,145.0,76.5,144.5" stroke="black" stroke-width="2" fill="none" />
<polyline points="82.0,141.5,90.0,140.5,98.0,141.5,106.0,144.0,114.0,145.5,122.0,146.5,130.0,148.0,138.0,152.0,146.5,153.0,154.5,156.5,163.0,159.5,171.0,160.5,179.0,162.5,186.5,161.0,194.5,159.5,202.5,160.5,210.5,161.0,218.0,162.0,226.0,162.5,233.5,164.5" stroke="black" stroke-width="2" fill="none" />
<polyline points="116.5,190.5,108.5,190.0,100.5,189.5,92.5,189.5,84.5,190.0,76.0,191.0,68.0,191.5,60.0,193.0,52.0,194.0,43.5,195.0,35.5,195.5,27.0,196.5,18.5,197.0,9.5,197.5,1.5,198.0" stroke="black" stroke-width="2" fill="none" />
<polyline points="2.5,198.0,10.0,199.0,18.5,199.0" stroke="black" stroke-width="2" fill="none" />
<polyline points="25.5,202.5,18.0,210.5,10.5,218.0,3.0,225.5" stroke="black" stroke-width="2" fill="none" />
<polyline points="0.5,226.0,8.5,228.0,21.5,234.0,30.0,232.0,38.0,227.0,42.5,224.5,48.5,227.5,53.5,225.5,59.0,215.5,61.0,211.0,68.0,209.0,76.0,208.0" stroke="black" stroke-width="2" fill="none" />
<polyline points="74.0,211.5,66.0,219.0,58.0,226.5,50.5,235.0,43.0,243.0,35.0,251.0,27.5,258.5" stroke="black" stroke-width="2" fill="none" />
<polyline points="36.0,256.0,44.0,249.0,52.0,241.5,60.0,234.0,68.0,226.5,76.0,219.5,84.5,212.0" stroke="black" stroke-width="2" fill="none" />
<polyline points="90.0,210.5,82.0,218.5,74.5,226.0,67.0,233.5,60.0,241.0,52.5,249.0,44.5,256.5" stroke="black" stroke-width="2" fill="none" />
<polyline points="48.5,246.0,57.0,249.0" stroke="black" stroke-width="2" fill="none" />
<polyline points="61.0,232.0,53.0,236.0,52.0,231.0" stroke="black" stroke-width="2" fill="none" />
<polyline points="49.0,232.0,56.5,228.0,68.0,235.0,72.0,225.0,79.5,223.0,87.0,223.0,95.0,222.0,105.0,212.0" stroke="black" stroke-width="2" fill="none" />
<polyline points="101.0,206.0,95.0,214.0,86.0,216.0,77.0,222.5,77.5,227.0,71.5,235.5,77.5,240.5,76.5,249.0,68.5,251.0" stroke="black" stroke-width="2" fill="none" />
<polyline points="77.0,257.5,76.5,252.0,81.5,244.0,89.5,237.5,92.0,230.5,96.0,229.5,95.0,230.0,87.0,232.0,79.0,230.0" stroke="black" stroke-width="2" fill="none" />
<polyline points="82.5,216.0,74.5,216.0" stroke="black" stroke-width="2" fill="none" />
<polyline points="58.5,210.0,51.0,217.5,43.0,225.5,35.5,233.5,28.0,241.0" stroke="black" stroke-width="2" fill="none" />
<polyline points="28.5,247.5,36.5,247.0" stroke="black" stroke-width="2" fill="none" />
<polyline points="36.0,247.0,37.0,241.0,26.0,246.5,23.5,254.5,30.5,255.0,38.5,253.0,46.5,249.5,55.0,252.5" stroke="black" stroke-width="2" fill="none" />
<polyline points="87.0,251.0,89.0,243.0,81.0,234.5,73.0,232.5,64.5,230.0,61.5,226.0,50.5,221.5,43.0,220.5,35.0,222.5,31.5,223.5,39.5,215.5,32.5,212.5,25.0,210.5,16.5,210.5" stroke="black" stroke-width="2" fill="none" />
<polyline points="25.0,213.0,32.5,214.0" stroke="black" stroke-width="2" fill="none" />
<polyline points="32.0,206.5,40.0,208.5,47.5,208.5" stroke="black" stroke-width="2" fill="none" />
<polyline points="58.5,204.0,51.0,211.0,43.0,218.0,34.5,225.5,26.5,233.5" stroke="black" stroke-width="2" fill="none" />
<polyline points="39.0,223.5,39.0,231.0,47.0,231.5,46.5,238.5,43.0,250.5" stroke="black" stroke-width="2" fill="none" />
<polyline points="12.0,251.5,4.5,252.0" stroke="black" stroke-width="2" fill="none" />
<polyline points="2.5,234.5,10.5,236.5,18.5,239.5,21.0,240.0,17.5,244.5,20.5,245.5,16.0,255.0,4.0,255.0,13.0,255.0,21.5,249.5,25.5,255.5,28.0,243.5,36.0,239.0,41.0,242.5,49.0,238.5,52.0,242.5,60.0,238.5" stroke="black" stroke-width="2" fill="none" />
<polyline points="43.0,256.0,39.0,253.5,36.5,240.5,36.5,237.5,28.5,226.0,24.5,224.5,19.5,219.0,28.0,220.0,31.0,212.0,26.0,207.5,17.5,208.5,9.0,205.5,1.0,206.5" stroke="black" stroke-width="2" fill="none" />
<polyline points="1.0,211.5,9.0,209.5,12.0,204.5,10.0,203.5,8.0,209.0,13.0,212.0,11.5,221.0,18.5,218.5,20.5,212.5,27.5,219.5,29.5,223.5,38.0,215.5,46.0,212.5,54.5,212.5,55.5,217.0,63.5,219.0,70.5,213.0,78.0,211.5,81.5,207.5,89.5,210.0,91.0,213.0,98.0,214.0,100.5,218.0,108.5,217.5,117.5,208.0,126.0,209.5,127.0,213.5,133.0,210.5,141.5,209.5,149.5,212.5,157.5,212.5,165.0,213.5,173.0,213.0,176.0,216.5,183.5,221.0,191.5,222.0,199.5,222.0,206.0,215.5,214.0,215.5,222.0,215.5,230.0,215.0,238.0,217.5,246.0,216.5,254.0,218.5,250.5,227.5,251.0,236.0,249.0,244.5,245.0,253.5,245.0,252.5,251.0,251.5" stroke="black" stroke-width="2" fill="none" />
<polyline points="260.5,142.0,252.5,142.0,244.5,142.5,236.0,143.0,228.0,143.5,220.0,144.0,212.0,144.0,204.5,144.5,196.0,145.0,187.5,145.5,179.0,145.5,171.0,145.5,162.5,146.0,154.5,146.5,146.5,147.5,138.5,148.0,130.5,148.5,123.0,148.5,115.0,149.5,107.0,150.0,99.0,151.0,91.0,152.0,83.0,152.5,75.0,152.5,66.5,152.5,58.5,152.5,51.0,152.5,43.0,153.0,35.5,153.5,28.0,154.5,20.5,155.0,12.5,156.0,4.5,156.5" stroke="black" stroke-width="2" fill="none" />
<polyline points="5.0,156.5,13.0,149.0" stroke="black" stroke-width="2" fill="none" />
<polyline points="14.5,146.0,22.5,147.0,30.5,145.5,38.5,143.5" stroke="black" stroke-width="2" fill="none" />
<polyline points="44.0,150.0,36.0,157.0,28.0,164.0,20.0,171.5,12.0,179.0,3.5,187.0" stroke="black" stroke-width="2" fill="none" />
<polyline points="0.5,182.5,9.0,179.5,17.0,177.5,25.5,176.5,33.5,176.0" stroke="black" stroke-width="2" fill="none" />
<polyline points="43.5,185.0,51.5,184.5" stroke="black" stroke-width="2" fill="none" />
<polyline points="54.0,177.5,62.0,179.5,70.5,181.5,78.5,182.5,80.0,189.5,88.0,189.5,96.0,188.5" stroke="black" stroke-width="2" fill="none" />
<polyline points="84.0,172.0,75.5,179.5,67.5,186.0,60.0,193.5" stroke="black" stroke-width="2" fill="none" />
<polyline points="52.0,195.5,60.0,187.5,68.5,179.5,76.0,172.0" stroke="black" stroke-width="2" fill="none" />
<polyline points="68.5,174.0,60.5,181.5,52.5,189.0,44.5,196.0" stroke="black" stroke-width="2" fill="none" />
<polyline points="33.5,195.0,41.5,187.5,49.5,180.0,58.0,172.0" stroke="black" stroke-width="2" fill="none" />
<polyline points="60.0,174.0,51.5,174.0,44.0,174.0,35.0,174.5,26.5,175.5,18.0,176.0,10.0,176.0,2.0,176.5" stroke="black" stroke-width="2" fill="none" />
<polyline points="5.0,163.0,13.0,155.5" stroke="black" stroke-width="2" fill="none" />
<polyline points="18.0,155.5,26.0,154.0" stroke="black" stroke-width="2" fill="none" />
<polyline points="20.5,144.5,29.0,138.0,37.0,130.5,45.5,123.5,53.0,116.5,60.5,109.5,68.5,102.0" stroke="black" stroke-width="2" fill="none" />
<polyline points="69.0,90.0,60.5,98.0,52.0,106.0,43.5,113.5,35.0,120.5,26.5,128.5,19.0,136.0" stroke="black" stroke-width="2" fill="none" />
<polyline points="11.0,136.5,19.0,129.5,27.0,122.5,34.5,114.5,42.5,106.5,50.5,99.0,58.5,91.5" stroke="black" stroke-width="2" fill="none" />
<polyline points="51.5,93.5,43.5,101.5,35.5,109.0,28.0,116.5,20.0,123.5,12.0,130.5,3.5,137.5" stroke="black" stroke-width="2" fill="none" />
<polyline points="3.5,134.0,11.5,133.0,19.0,132.0,26.5,131.0,34.0,130.5,41.5,130.5,49.5,129.5,58.5,128.5,67.0,128.5,75.0,128.5,83.5,128.0,91.5,127.5,99.5,127.5,107.5,127.0,115.5,126.5,123.5,126.5,131.5,126.0,139.5,125.5,147.0,125.0,154.5,124.0,162.5,123.5,170.5,123.0,178.5,122.5,186.5,122.5,195.0,122.5,203.0,121.5,211.0,120.5,218.5,119.5,226.5,118.5,234.5,118.0,242.5,117.5,250.5,116.5,258.5,116.0" stroke="black" stroke-width="2" fill="none" />
<polyline points="259.0,133.5,250.5,134.5,242.5,135.5,234.5,136.0,227.0,136.0,218.5,136.0,210.5,136.5,202.5,137.0,194.5,137.5,186.5,137.5,179.0,138.0,171.0,139.0,162.5,140.0,155.0,140.0,146.5,141.0,138.5,141.0,131.0,140.5,123.5,141.0,115.0,141.0,106.5,142.0,98.0,142.5,90.0,143.0,81.5,143.5,73.5,144.5,66.0,145.5,58.5,146.0,51.0,147.0,43.5,147.5,35.5,148.5,27.5,148.5,19.0,149.0,11.0,149.5,2.5,150.5" stroke="black" stroke-width="2" fill="none" />
<polyline points="1.5,150.5,9.5,152.5,17.5,151.0,25.5,151.0,33.5,146.5" stroke="black" stroke-width="2" fill="none" />
<polyline points="54.5,154.5,61.5,154.5,69.5,153.5,76.5,153.0,84.0,152.5,91.0,152.5" stroke="black" stroke-width="2" fill="none" />
<polyline points="85.0,142.5,93.0,144.5,101.0,146.5,108.5,147.5,110.5,156.5,118.5,152.5,126.5,155.5,134.5,156.5,142.5,159.5,151.0,159.5,159.0,162.5,167.0,163.0,175.0,163.5,183.5,165.5,191.5,166.0,203.5,165.0,214.5,168.0,222.0,168.0,229.5,170.0" stroke="black" stroke-width="2" fill="none" />
<polyline points="260.0,126.0,251.5,126.5,243.0,127.0,235.5,127.0,227.5,127.5,219.0,128.0,210.5,128.5,202.0,129.0,194.0,130.0,185.5,131.0,177.5,131.5,169.5,132.0,162.0,132.0,154.0,132.5,146.0,133.5,138.0,134.0,130.0,134.5,122.0,134.5,114.0,134.5,106.0,134.5,97.5,134.5,89.5,135.0,81.0,135.5,73.5,136.0,66.0,136.5,58.0,137.0,50.0,138.0,42.5,139.0,34.5,140.0,26.5,141.5,18.5,142.5,10.0,143.5,2.5,143.5" stroke="black" stroke-width="2" fill="none" />
<polyline points="2.0,132.0,10.5,134.0,18.5,135.0,26.5,136.0,35.0,136.5,43.0,134.5,51.0,133.0" stroke="black" stroke-width="2" fill="none" />
<polyline points="28.0,120.5,35.5,120.0,43.5,120.0,51.0,120.0,59.0,120.0,67.0,119.5,75.5,118.0,83.5,117.0,92.0,116.5,100.5,116.0" stroke="black" stroke-width="2" fill="none" />
<polyline points="90.5,116.0,82.5,123.5,74.5,131.0,66.5,138.5,58.5,146.5,50.5,153.5,42.5,160.5,35.0,167.5,27.5,175.0,19.5,183.0,11.5,190.5,3.5,198.0" stroke="black" stroke-width="2" fill="none" />
<polyline points="2.0,201.0,10.0,202.5,18.0,203.5,26.0,203.5,34.5,204.0,42.5,206.0,50.5,204.0,58.5,203.5,66.5,204.5,74.5,204.5,82.0,205.5,90.0,205.5,98.5,206.5,106.0,208.5,114.0,208.5,118.5,216.0,127.0,216.5,130.0,219.5,135.0,217.5,143.5,213.0,149.5,214.5,158.5,215.5" stroke="black" stroke-width="2" fill="none" />
<polyline points="108.0,182.0,100.0,182.0,92.0,182.0,83.0,174.0,75.0,172.0,67.5,170.0,59.0,168.5,51.5,164.5" stroke="black" stroke-width="2" fill="none" />
<polyline points="51.5,161.0,61.0,169.5,68.0,173.5" stroke="black" stroke-width="2" fill="none" />
<polyline points="52.5,175.5,61.0,176.5,69.0,176.5,77.0,176.5,85.0,176.0" stroke="black" stroke-width="2" fill="none" />
<polyline points="32.5,206.0,25.0,213.0,17.5,220.0,10.0,227.0,2.5,234.0" stroke="black" stroke-width="2" fill="none" />
<polyline points="1.0,195.5,9.0,195.5,17.0,197.0,25.5,199.0,34.0,198.5,42.5,198.5,46.0,194.5,54.5,193.0,62.5,193.0,70.0,193.5,78.0,195.5,86.0,196.5,94.0,195.5,101.5,195.5,109.5,195.5,117.5,194.5,118.5,186.5,126.5,187.5,134.5,190.5,140.0,187.5,148.0,186.5,156.0,187.0,164.0,184.5" stroke="black" stroke-width="2" fill="none" />
<polyline points="98.0,160.0,89.5,156.5,81.5,156.5,77.0,159.5,69.0,158.5,61.0,156.5,53.5,156.5,45.5,157.5,37.5,159.0,30.0,161.0,22.0,164.0,21.5,164.5,32.5,165.5,25.0,167.5,17.0,168.5" stroke="black" stroke-width="2" fill="none" />
<polyline points="4.0,161.0,12.0,160.5,20.0,160.0,28.0,160.0,36.0,159.5" stroke="black" stroke-width="2" fill="none" />
<polyline points="5.5,128.5,13.5,121.0,21.0,114.5,28.0,107.5,36.0,100.5,44.0,93.5,52.5,86.0" stroke="black" stroke-width="2" fill="none" />
<polyline points="42.0,85.5,34.5,92.5,26.5,99.5,19.0,106.5,11.5,113.5,4.0,121.0" stroke="black" stroke-width="2" fill="none" />
<polyline points="2.5,123.5,10.5,122.5,18.5,122.0" stroke="black" stroke-width="2" fill="none" />
<polyline points="28.0,127.0,19.5,127.5,11.0,128.0,3.5,128.0" stroke="black" stroke-width="2" fill="none" />
<polyline points="2.5,125.5,10.5,125.0,18.5,124.5,27.0,123.5,36.0,123.0,44.5,122.5,52.5,122.0,60.5,121.5,69.0,121.5,76.5,121.0,84.5,120.5,92.5,120.0,100.5,119.5,108.0,119.0,115.5,118.5,123.5,118.0,131.5,118.0,139.0,118.0,147.0,118.0,155.0,118.0,163.5,117.5,171.5,117.5,179.5,117.0,188.0,116.5,196.0,115.5,204.0,114.5,211.5,113.5,219.5,111.5,228.0,110.5,236.5,109.5,244.0,109.0,252.0,108.5,259.5,107.5" stroke="black" stroke-width="2" fill="none" />
<polyline points="249.0,40.5,241.5,40.5,234.0,40.5,226.0,40.0,218.0,40.0" stroke="black" stroke-width="2" fill="none" />
<polyline points="108.0,15.0,100.0,12.5,92.5,11.5" stroke="black" stroke-width="2" fill="none" />
<polyline points="66.5,34.5,59.0,35.0,51.5,35.5,44.0,36.5,36.5,37.0,28.5,37.5,20.5,38.0,12.5,38.5" stroke="black" stroke-width="2" fill="none" />
<polyline points="19.5,66.5,27.0,65.5,35.0,64.0,43.0,65.0,50.5,64.5,59.0,64.5" stroke="black" stroke-width="2" fill="none" />
<polyline points="36.5,82.5,28.5,90.0,20.0,97.0,12.0,104.0,4.0,111.0" stroke="black" stroke-width="2" fill="none" />
<polyline points="4.0,113.0,11.5,112.5,19.0,111.0,26.5,110.0,34.5,109.5,42.5,108.5,50.5,108.0,59.0,108.0,67.5,107.5,76.0,107.5,83.5,107.0" stroke="black" stroke-width="2" fill="none" />
<polyline points="60.0,96.5,52.0,97.0,44.5,97.5" stroke="black" stroke-width="2" fill="none" />
<polyline points="45.0,88.0,37.5,88.0" stroke="black" stroke-width="2" fill="none" />
<polyline points="26.0,84.0,18.0,92.0,10.5,99.0,2.5,106.5" stroke="black" stroke-width="2" fill="none" />
<polyline points="3.5,108.0,11.5,107.5,19.5,107.0,27.5,106.5,36.0,106.0,44.0,106.0,52.5,105.5,60.5,105.5,68.5,105.5,76.5,105.0,84.5,104.5,92.0,104.0,100.0,103.5" stroke="black" stroke-width="2" fill="none" />
<polyline points="20.0,82.5,11.5,90.0,3.5,98.5" stroke="black" stroke-width="2" fill="none" />
<polyline points="4.0,100.0,11.5,99.5,19.0,99.5,27.0,99.0,35.0,98.5,43.5,97.5,51.0,97.5,59.0,97.5,67.5,96.5,76.0,95.5,84.5,94.5" stroke="black" stroke-width="2" fill="none" />
<polyline points="19.5,75.0,11.5,82.5,3.5,90.0" stroke="black" stroke-width="2" fill="none" />
<polyline points="3.0,91.5,11.5,90.5,19.0,90.5,27.0,90.0,34.5,89.5,42.5,89.0,51.0,88.5,59.5,88.0,67.5,88.0" stroke="black" stroke-width="2" fill="none" />
<polyline points="26.5,95.5,19.0,96.0,11.0,96.0" stroke="black" stroke-width="2" fill="none" />
<polyline points="13.0,90.0,21.0,89.0,28.5,89.0" stroke="black" stroke-width="2" fill="none" />
<polyline points="11.0,75.5,3.0,83.5" stroke="black" stroke-width="2" fill="none" />
<polyline points="2.0,83.5,10.0,83.0,18.0,82.5,26.5,82.5,34.5,82.5,43.0,82.0,51.5,82.0,60.0,81.5" stroke="black" stroke-width="2" fill="none" />
<polyline points="108.0,110.5,99.5,111.0,91.5,111.5,83.5,112.0,75.5,112.5,67.5,113.0,59.0,114.0,51.5,114.5,43.0,115.0,34.5,115.5,25.5,116.0,17.5,116.0,9.5,116.5,1.5,117.0" stroke="black" stroke-width="2" fill="none" />
<polyline points="6.0,104.0,14.0,104.0,22.0,104.0,29.5,103.0,37.5,102.5,45.5,102.0,53.0,101.5,61.0,100.5,69.0,100.0,77.0,100.0" stroke="black" stroke-width="2" fill="none" />
<polyline points="35.5,75.0,27.0,75.5,19.0,76.0,10.5,75.5,2.0,75.5" stroke="black" stroke-width="2" fill="none" />
<polyline points="2.5,69.0,10.5,72.0,18.5,75.0,26.5,77.0,34.5,78.0,42.5,79.0,50.5,83.0,58.5,88.0,66.5,92.0,74.5,97.0,82.5,102.0,90.5,107.0,98.0,110.5,106.5,115.5,114.5,121.0,123.0,122.0,131.0,116.0,139.0,112.0,147.0,106.0,155.0,103.5,163.0,106.5,171.0,105.5,178.5,104.5,186.0,100.5,194.0,98.5,201.5,99.5,209.5,101.0,218.0,104.0,226.0,107.0,234.5,104.0,243.0,103.0,251.0,106.0" stroke="black" stroke-width="2" fill="none" />
<polyline points="94.5,241.5,93.0,249.5,102.0,256.5" stroke="black" stroke-width="2" fill="none" />
</svg>