<svg xmlns="http://www.w3.org/2000/svg" version="1.1"><polyline points="9.5,1.5,9.5,9.0,9.5,17.0,10.5,24.5,10.5,32.5,10.5,40.5,12.0,49.0,12.0,57.0,12.5,65.0,12.5,73.0,13.5,81.0,16.5,86.0,24.5,84.5,32.5,85.5,45.0,89.0,53.5,90.0,61.0,91.5,69.0,91.5,77.0,92.5,85.0,92.5,93.0,93.5,101.0,91.5,109.0,90.5,117.0,91.0,124.5,91.5,132.5,92.5,140.0,93.5,147.5,93.5,155.0,94.5,163.0,95.0,171.0,96.0,179.0,96.0,187.5,96.5,195.5,101.5,203.5,102.5,211.5,102.5,219.5,103.0,228.0,104.0,236.0,104.5,244.0,104.5" stroke="black" stroke-width="2" fill="none" />
<polyline points="251.0,100.0,258.5,99.5" stroke="black" stroke-width="2" fill="none" />
<polyline points="259.0,92.0,250.5,92.0" stroke="black" stroke-width="2" fill="none" />
<polyline points="251.5,83.5,259.0,83.0" stroke="black" stroke-width="2" fill="none" />
<polyline points="260.0,76.0,252.5,76.5" stroke="black" stroke-width="2" fill="none" />
<polyline points="253.0,67.0,261.0,67.0" stroke="black" stroke-width="2" fill="none" />
<polyline points="260.0,60.0,252.0,61.0" stroke="black" stroke-width="2" fill="none" />
<polyline points="251.5,53.5,259.5,53.0" stroke="black" stroke-width="2" fill="none" />
<polyline points="260.5,45.0,252.5,46.0" stroke="black" stroke-width="2" fill="none" />
<polyline points="253.0,38.0,261.0,37.5" stroke="black" stroke-width="2" fill="none" />
<polyline points="261.0,28.5,253.0,29.0" stroke="black" stroke-width="2" fill="none" />
<polyline points="252.5,0.5,252.0,8.5,252.0,16.5,252.5,25.0,251.5,33.0,251.0,41.5,251.5,49.5,250.5,58.0,250.0,66.0,249.0,74.0,248.5,82.0,248.5,90.0,248.0,98.5" stroke="black" stroke-width="2" fill="none" />
<polyline points="252.5,122.0,244.0,129.5" stroke="black" stroke-width="2" fill="none" />
<polyline points="243.5,124.0,235.5,131.5" stroke="black" stroke-width="2" fill="none" />
<polyline points="235.5,138.5,227.0,146.5,219.0,153.5,211.5,161.0" stroke="black" stroke-width="2" fill="none" />
<polyline points="219.5,161.0,227.5,153.0,235.5,145.0" stroke="black" stroke-width="2" fill="none" />
<polyline points="244.5,148.0,236.5,155.5,228.5,163.5" stroke="black" stroke-width="2" fill="none" />
<polyline points="226.0,166.5,218.0,167.5,209.5,168.5,202.0,169.5,193.5,170.0,186.0,170.5,178.0,171.0,171.0,171.0,163.0,171.5,155.0,171.5,147.0,172.0,139.0,172.0,130.5,172.5,122.5,172.5,114.0,173.5,106.5,174.0,98.5,174.5,90.5,175.0,83.0,175.0,74.5,176.0,66.5,176.0,58.5,176.5,50.0,177.0,42.5,178.0,34.5,179.0,26.0,179.5,18.0,180.0,9.5,181.0,1.0,181.0" stroke="black" stroke-width="2" fill="none" />
<polyline points="1.5,180.5,9.5,181.5,17.5,184.0,25.5,185.0,33.5,185.5,41.5,186.5,49.5,188.0,57.0,188.5,65.0,189.5,73.0,190.0,81.5,192.5,89.5,193.5,97.5,194.5,105.5,197.0,113.5,198.0,122.0,198.5,130.0,200.0,138.0,201.5,146.5,203.0,154.5,204.0,162.5,205.5,170.5,206.5,178.5,208.0,186.5,208.5,194.5,203.5,202.0,196.0,210.0,190.0,217.5,183.0,225.5,176.0,234.0,170.0,242.0,163.0,248.0,158.0,238.0,166.0,229.0,174.5,219.0,182.5,210.0,191.0,200.0,198.5,189.5,206.5" stroke="black" stroke-width="2" fill="none" />
<polyline points="189.0,204.5,181.0,211.5" stroke="black" stroke-width="2" fill="none" />
<polyline points="186.0,212.0,193.5,204.5" stroke="black" stroke-width="2" fill="none" />
<polyline points="181.0,203.0,173.0,211.0" stroke="black" stroke-width="2" fill="none" />
<polyline points="173.0,218.5,164.5,226.5,156.5,234.5,148.5,242.5,141.0,250.0,133.0,257.5" stroke="black" stroke-width="2" fill="none" />
<polyline points="156.5,257.0,163.5,249.5,171.0,242.0,178.5,234.5,186.5,227.5" stroke="black" stroke-width="2" fill="none" />
<polyline points="181.0,225.5,173.0,233.5,165.5,241.0,157.5,248.5,149.0,255.5" stroke="black" stroke-width="2" fill="none" />
<polyline points="181.0,255.5,189.0,248.0,196.5,240.5,204.0,232.5,211.5,225.0" stroke="black" stroke-width="2" fill="none" />
<polyline points="205.5,227.5,197.5,235.0,189.5,242.5,181.0,250.5,172.5,258.5" stroke="black" stroke-width="2" fill="none" />
<polyline points="203.5,259.0,212.0,251.5,220.0,243.5,227.5,235.0,235.0,227.5" stroke="black" stroke-width="2" fill="none" />
<polyline points="237.5,236.5,229.5,244.0,221.0,251.5,212.0,259.5" stroke="black" stroke-width="2" fill="none" />
<polyline points="235.5,257.0,244.0,250.0,252.5,242.0,260.5,234.5" stroke="black" stroke-width="2" fill="none" />
<polyline points="259.5,243.5,251.5,250.5,244.0,258.5" stroke="black" stroke-width="2" fill="none" />
<polyline points="252.0,258.5,259.5,251.0" stroke="black" stroke-width="2" fill="none" />
<polyline points="250.5,235.5,243.0,243.5,235.5,251.0,228.0,258.0" stroke="black" stroke-width="2" fill="none" />
<polyline points="220.5,257.5,228.5,250.5,237.0,243.0,245.0,235.5" stroke="black" stroke-width="2" fill="none" />
<polyline points="224.5,225.5,216.5,233.0,210.0,240.5,202.5,248.0,195.0,255.5" stroke="black" stroke-width="2" fill="none" />
<polyline points="188.0,257.5,195.5,250.0,203.5,243.0,211.5,235.5,219.5,228.5" stroke="black" stroke-width="2" fill="none" />
<polyline points="194.0,227.5,186.5,235.0,178.5,243.0,171.0,250.5,163.5,258.0" stroke="black" stroke-width="2" fill="none" />
<polyline points="142.0,257.0,149.5,249.5,158.0,241.5,165.5,234.0,173.0,227.0,180.5,219.5" stroke="black" stroke-width="2" fill="none" />
<polyline points="163.0,219.5,155.0,227.0,147.0,234.5,139.0,242.5,131.5,249.5,124.0,257.0" stroke="black" stroke-width="2" fill="none" />
<polyline points="115.0,257.5,122.5,249.5,130.5,241.5,138.0,234.0,145.5,227.0,154.0,219.5" stroke="black" stroke-width="2" fill="none" />
<polyline points="148.0,220.0,140.0,227.5,132.0,235.0,123.0,242.0,114.5,249.0,106.0,256.0" stroke="black" stroke-width="2" fill="none" />
<polyline points="108.0,257.0,115.5,256.5,123.5,256.0,131.5,255.0,139.5,254.5,147.5,254.5,156.0,253.5,164.0,253.0,172.0,253.0,179.5,252.5,188.0,251.5,196.0,251.0,204.0,250.5,212.5,250.0,220.5,249.0,228.0,248.5,235.5,248.5,243.5,248.5,251.5,248.5,259.0,248.5" stroke="black" stroke-width="2" fill="none" />
<polyline points="237.5,168.5,245.5,161.0,254.0,153.5,262.0,146.0" stroke="black" stroke-width="2" fill="none" />
<polyline points="251.5,147.0,243.5,154.0,235.0,161.5" stroke="black" stroke-width="2" fill="none" />
<polyline points="235.5,169.5,228.0,170.0,220.5,170.5,212.5,171.0,204.5,171.5,196.5,172.5" stroke="black" stroke-width="2" fill="none" />
<polyline points="204.5,179.0,196.5,186.5" stroke="black" stroke-width="2" fill="none" />
<polyline points="179.5,178.5,171.5,186.5" stroke="black" stroke-width="2" fill="none" />
<polyline points="165.0,187.5,173.0,180.0" stroke="black" stroke-width="2" fill="none" />
<polyline points="173.0,179.0,181.0,182.0,189.0,181.5,197.0,175.0" stroke="black" stroke-width="2" fill="none" />
<polyline points="203.0,161.0,211.0,153.5,219.0,146.5,227.0,139.0" stroke="black" stroke-width="2" fill="none" />
<polyline points="221.0,139.5,213.0,146.5,204.5,154.0,196.0,161.5" stroke="black" stroke-width="2" fill="none" />
<polyline points="196.0,153.0,204.0,145.5,212.0,138.0" stroke="black" stroke-width="2" fill="none" />
<polyline points="203.0,140.0,195.0,147.5,187.0,154.5" stroke="black" stroke-width="2" fill="none" />
<polyline points="186.5,150.0,194.5,151.0,202.5,152.0,210.0,153.0,218.0,154.0,226.0,155.0,233.5,155.0,241.5,156.5" stroke="black" stroke-width="2" fill="none" />
<polyline points="235.0,160.0,227.0,157.0" stroke="black" stroke-width="2" fill="none" />
<polyline points="252.0,131.0,260.5,123.5" stroke="black" stroke-width="2" fill="none" />
<polyline points="194.0,140.0,186.5,148.0" stroke="black" stroke-width="2" fill="none" />
<polyline points="184.5,148.0,192.5,149.0,201.0,150.0,209.0,150.5,216.5,151.5,224.5,152.5,232.5,153.5,240.5,154.0,248.0,156.0,256.0,157.5" stroke="black" stroke-width="2" fill="none" />
<polyline points="259.5,143.0,251.5,143.0,243.0,143.5,234.5,144.0,226.5,144.5,218.5,145.5,210.5,146.0,202.5,146.5,195.0,147.5,187.0,148.5,178.5,149.5,170.5,150.0" stroke="black" stroke-width="2" fill="none" />
<polyline points="163.5,155.0,155.5,163.0,147.5,170.5" stroke="black" stroke-width="2" fill="none" />
<polyline points="154.0,170.0,162.5,162.5" stroke="black" stroke-width="2" fill="none" />
<polyline points="165.5,172.0,173.5,164.5" stroke="black" stroke-width="2" fill="none" />
<polyline points="179.5,162.0,168.0,170.0,155.0,177.5" stroke="black" stroke-width="2" fill="none" />
<polyline points="154.0,181.5,146.0,189.0" stroke="black" stroke-width="2" fill="none" />
<polyline points="148.5,195.5,140.5,203.5" stroke="black" stroke-width="2" fill="none" />
<polyline points="145.5,204.5,153.0,197.0" stroke="black" stroke-width="2" fill="none" />
<polyline points="154.5,202.0,162.5,195.0" stroke="black" stroke-width="2" fill="none" />
<polyline points="156.5,187.0,164.5,179.5,172.5,172.0" stroke="black" stroke-width="2" fill="none" />
<polyline points="179.0,171.0,170.5,171.5,162.5,172.0,154.5,172.5" stroke="black" stroke-width="2" fill="none" />
<polyline points="148.0,180.0,140.0,187.5" stroke="black" stroke-width="2" fill="none" />
<polyline points="139.0,178.5,131.0,186.5" stroke="black" stroke-width="2" fill="none" />
<polyline points="124.0,186.0,132.0,178.5" stroke="black" stroke-width="2" fill="none" />
<polyline points="132.0,172.0,140.0,164.5,147.5,156.5" stroke="black" stroke-width="2" fill="none" />
<polyline points="154.0,156.5,146.0,163.5,138.5,170.5" stroke="black" stroke-width="2" fill="none" />
<polyline points="131.0,163.0,139.0,156.0" stroke="black" stroke-width="2" fill="none" />
<polyline points="132.0,154.0,123.5,161.5" stroke="black" stroke-width="2" fill="none" />
<polyline points="124.5,155.5,116.5,163.0" stroke="black" stroke-width="2" fill="none" />
<polyline points="109.0,163.0,117.0,155.5" stroke="black" stroke-width="2" fill="none" />
<polyline points="106.0,154.0,98.5,161.0" stroke="black" stroke-width="2" fill="none" />
<polyline points="100.0,161.0,108.5,161.0,116.5,160.5,124.5,160.5,132.5,160.0" stroke="black" stroke-width="2" fill="none" />
<polyline points="146.0,148.0,154.5,140.5" stroke="black" stroke-width="2" fill="none" />
<polyline points="147.0,139.0,155.0,131.5" stroke="black" stroke-width="2" fill="none" />
<polyline points="147.0,134.0,139.0,141.5" stroke="black" stroke-width="2" fill="none" />
<polyline points="131.5,139.0,139.5,131.5" stroke="black" stroke-width="2" fill="none" />
<polyline points="133.0,132.5,125.0,140.0" stroke="black" stroke-width="2" fill="none" />
<polyline points="122.0,131.0,114.5,138.5" stroke="black" stroke-width="2" fill="none" />
<polyline points="114.0,139.0,122.0,138.5,130.5,138.5,138.5,138.5,147.0,138.5,155.5,138.5,163.5,138.5,171.5,138.0,179.5,138.0,187.5,137.5,196.0,137.0,204.0,136.5,212.5,136.5,220.5,136.5,228.0,136.0,236.0,135.5,244.0,135.0,252.5,134.5,261.0,133.5" stroke="black" stroke-width="2" fill="none" />
<polyline points="180.5,131.0,172.5,138.5" stroke="black" stroke-width="2" fill="none" />
<polyline points="171.0,137.0,178.5,138.0,176.0,146.0" stroke="black" stroke-width="2" fill="none" />
<polyline points="163.5,141.0,155.0,141.5,146.5,142.0,138.5,142.5,131.0,143.0,123.0,143.0,114.5,144.0,107.0,144.5,99.0,145.5,91.5,146.5,83.5,147.5,75.5,148.0,67.5,148.5,59.5,149.5,51.0,150.0,43.0,151.0,34.5,151.5" stroke="black" stroke-width="2" fill="none" />
<polyline points="39.0,151.5,47.0,150.0,55.0,150.5" stroke="black" stroke-width="2" fill="none" />
<polyline points="58.0,153.0,66.5,152.0,75.0,151.0" stroke="black" stroke-width="2" fill="none" />
<polyline points="76.5,151.0,84.5,150.0" stroke="black" stroke-width="2" fill="none" />
<polyline points="76.0,156.0,84.0,148.5,92.0,141.5" stroke="black" stroke-width="2" fill="none" />
<polyline points="96.5,143.0,104.5,144.0,113.0,145.5,121.0,146.5,129.5,147.5,138.0,148.0,145.5,148.0,153.5,149.0,161.5,150.0,169.5,151.0" stroke="black" stroke-width="2" fill="none" />
<polyline points="165.0,144.0,166.0,136.0" stroke="black" stroke-width="2" fill="none" />
<polyline points="172.0,132.5,183.5,138.5,182.0,146.0,181.0,154.5,182.0,160.5,179.0,168.5,173.0,177.0,174.0,185.5,182.5,187.0,190.5,188.0,198.5,185.0,204.5,174.0,203.5,182.0" stroke="black" stroke-width="2" fill="none" />
<polyline points="195.5,202.5,187.0,203.0,178.5,203.0,170.0,203.5,161.5,204.5,153.5,205.0,145.5,206.0" stroke="black" stroke-width="2" fill="none" />
<polyline points="139.0,196.5,131.0,204.0" stroke="black" stroke-width="2" fill="none" />
<polyline points="124.5,202.5,132.5,195.0" stroke="black" stroke-width="2" fill="none" />
<polyline points="123.5,181.0,116.0,188.5" stroke="black" stroke-width="2" fill="none" />
<polyline points="106.5,186.0,114.5,178.5" stroke="black" stroke-width="2" fill="none" />
<polyline points="101.5,165.5,109.5,164.5,117.5,164.0,125.0,163.5,133.0,163.5,141.0,163.0,148.5,162.5,156.0,162.5,164.0,162.5,171.5,162.5,179.0,162.0,187.0,161.0,195.0,160.5,202.5,160.0,210.0,159.0,218.0,158.0,226.0,158.0,234.0,157.5,242.5,157.0,251.0,157.0,259.5,156.5" stroke="black" stroke-width="2" fill="none" />
<polyline points="259.5,110.0,251.0,110.5,243.5,111.0,235.5,112.0,227.5,113.0,219.0,113.5,211.0,114.5,203.0,115.5,195.0,115.5,187.0,116.0,178.5,116.5,170.5,117.5" stroke="black" stroke-width="2" fill="none" />
<polyline points="170.5,109.0,179.0,108.0,187.0,108.0,194.5,107.5,202.5,107.0,211.0,106.5,219.5,106.0,228.0,105.0,236.5,104.5,244.5,103.5,252.5,102.5,260.5,102.0" stroke="black" stroke-width="2" fill="none" />
<polyline points="196.0,98.5,187.5,99.0,179.5,99.0,171.5,99.0,163.0,99.0,154.5,99.5,146.5,99.5,138.0,99.5,129.5,100.0,121.5,100.5" stroke="black" stroke-width="2" fill="none" />
<polyline points="120.0,109.5,118.0,117.5,116.0,125.5,115.0,133.5,116.0,139.0,119.0,139.5,126.5,141.0,134.5,142.0,142.5,143.0,151.0,144.5,158.0,145.5,159.0,138.5" stroke="black" stroke-width="2" fill="none" />
<polyline points="173.0,131.0,181.0,128.0" stroke="black" stroke-width="2" fill="none" />
<polyline points="179.5,107.5,175.5,116.5,164.5,118.5,156.5,117.0,148.5,117.0,141.5,131.5,128.5,129.5,120.5,131.0,118.5,126.0" stroke="black" stroke-width="2" fill="none" />
<polyline points="118.0,124.0,126.0,124.0,133.5,123.5,141.0,122.5,149.0,121.5,156.5,121.0,164.5,121.0,171.5,120.5,179.5,120.0,187.0,119.5,195.0,119.5,203.0,118.5,211.0,117.5,219.0,116.5,227.0,116.0,234.5,115.5,242.5,115.5,251.0,115.5,258.5,115.5" stroke="black" stroke-width="2" fill="none" />
<polyline points="259.5,124.5,252.0,125.0,244.5,125.5,236.5,126.5,228.5,126.5,220.5,126.5,212.0,127.0,203.0,127.0,194.5,127.5,187.0,128.0,179.0,129.0,171.5,129.5,164.0,130.5,156.0,131.0,148.0,131.5,139.5,131.5,131.5,131.5,124.0,131.5,116.0,132.0" stroke="black" stroke-width="2" fill="none" />
<polyline points="125.0,121.5,133.0,121.5,129.5,127.0" stroke="black" stroke-width="2" fill="none" />
<polyline points="134.5,122.0,136.5,130.0" stroke="black" stroke-width="2" fill="none" />
<polyline points="132.5,110.0,124.0,110.5,116.0,111.0" stroke="black" stroke-width="2" fill="none" />
<polyline points="116.5,113.0,125.0,112.0,133.0,115.0,141.5,116.5,152.0,118.0,155.5,125.5,155.5,130.5,153.0,133.5,161.0,134.0" stroke="black" stroke-width="2" fill="none" />
<polyline points="164.5,113.5,156.5,114.5,148.5,114.5,139.5,115.0,131.0,115.5,123.5,116.0,115.5,116.5" stroke="black" stroke-width="2" fill="none" />
<polyline points="115.5,118.0,123.5,117.0,131.5,117.0,139.5,119.0,144.0,124.0,140.0,132.0,140.5,133.5,147.5,120.5,156.0,123.5,160.5,122.5,173.5,125.5" stroke="black" stroke-width="2" fill="none" />
<polyline points="174.5,107.5,172.5,115.5,171.0,123.5,169.0,132.0,167.5,140.5,170.5,146.0,183.5,143.0,192.0,142.0,200.5,143.0,208.5,144.0,216.5,144.0,224.5,145.0,232.5,145.5,240.5,146.5,248.5,147.0,256.5,148.0" stroke="black" stroke-width="2" fill="none" />
<polyline points="154.5,223.5,146.5,223.5" stroke="black" stroke-width="2" fill="none" />
<polyline points="138.0,220.0,130.0,227.5,122.0,235.0,114.5,242.5,107.5,249.5,100.5,257.0" stroke="black" stroke-width="2" fill="none" />
<polyline points="91.0,257.0,99.0,249.0,107.0,242.0,115.5,234.5,124.0,227.0,132.5,219.5" stroke="black" stroke-width="2" fill="none" />
<polyline points="125.5,221.0,117.5,228.5,109.5,236.0,101.5,243.0,93.5,251.0,86.0,258.5" stroke="black" stroke-width="2" fill="none" />
<polyline points="76.5,256.0,84.0,248.0,91.5,240.5,99.0,233.5,106.5,226.0,114.0,218.5" stroke="black" stroke-width="2" fill="none" />
<polyline points="107.0,220.0,99.0,227.5,91.5,235.0,84.5,242.0,76.5,249.5,68.5,257.0" stroke="black" stroke-width="2" fill="none" />
<polyline points="59.0,256.5,67.5,248.5,75.0,240.5,83.0,232.5,91.0,225.5,99.0,217.5" stroke="black" stroke-width="2" fill="none" />
<polyline points="90.5,220.5,82.5,228.0,74.0,235.5,66.5,242.5,59.0,250.0,51.0,257.5" stroke="black" stroke-width="2" fill="none" />
<polyline points="45.0,254.5,53.0,247.5,61.5,240.0,69.5,233.0,77.0,225.5,85.5,217.5" stroke="black" stroke-width="2" fill="none" />
<polyline points="85.0,215.0,76.5,215.0,68.5,215.0,60.0,215.5,52.0,216.0" stroke="black" stroke-width="2" fill="none" />
<polyline points="51.0,225.5,59.0,225.0,67.0,225.0,75.5,224.5,84.5,224.0" stroke="black" stroke-width="2" fill="none" />
<polyline points="89.0,223.0,97.0,230.0,105.5,245.0" stroke="black" stroke-width="2" fill="none" />
<polyline points="107.0,248.0,114.5,248.0,122.5,247.5,130.5,247.0,138.0,246.5,146.5,245.5,154.5,245.5,163.0,245.0,171.0,245.0,179.0,244.5,187.0,244.5,195.0,244.0,202.0,244.0,210.0,243.5,217.5,243.0,226.0,242.5,233.5,241.5,242.0,240.5,250.0,239.5,258.5,239.0" stroke="black" stroke-width="2" fill="none" />
<polyline points="259.0,230.0,251.0,231.0,243.0,231.5,235.5,232.0,227.5,232.5,220.0,233.0,212.0,234.5,204.5,235.5,196.5,236.5,188.5,237.0,180.5,237.0,172.0,237.0,163.5,237.5,155.5,238.0,147.0,238.5,138.5,239.0,130.5,239.5,122.5,239.5,114.5,240.0,106.5,240.0" stroke="black" stroke-width="2" fill="none" />
<polyline points="97.0,232.5,105.5,232.0,114.0,232.0,122.5,231.5,131.0,231.5,139.5,231.0,147.5,230.5,156.0,229.5,164.5,228.5,172.5,228.0,180.5,227.0,188.5,226.5,196.5,226.0,204.5,225.5,212.5,225.0" stroke="black" stroke-width="2" fill="none" />
<polyline points="202.5,190.0,195.0,191.0,187.0,192.0,179.0,192.5,171.0,193.0,163.5,194.0,155.5,195.0,147.0,195.5,139.0,196.0,131.0,196.0,123.0,196.5,115.0,196.5,107.0,197.0,99.5,197.0" stroke="black" stroke-width="2" fill="none" />
<polyline points="91.5,188.5,82.5,196.0" stroke="black" stroke-width="2" fill="none" />
<polyline points="82.5,188.5,75.0,196.0" stroke="black" stroke-width="2" fill="none" />
<polyline points="74.0,205.0,65.5,212.5,58.0,219.5,50.5,226.5,43.0,234.0,34.5,241.5,26.5,248.5,19.0,255.5" stroke="black" stroke-width="2" fill="none" />
<polyline points="26.0,258.5,34.5,251.0,42.5,243.5,51.0,235.5,59.5,227.5,67.5,219.0,75.5,211.5" stroke="black" stroke-width="2" fill="none" />
<polyline points="76.5,207.0,84.5,216.5,92.5,220.0,100.5,222.0,108.5,223.0,116.5,225.0,124.5,226.0,132.5,227.0" stroke="black" stroke-width="2" fill="none" />
<polyline points="100.5,246.0,92.0,246.5,83.5,247.5,74.5,248.5,66.0,249.5,57.5,250.0,49.0,251.0" stroke="black" stroke-width="2" fill="none" />
<polyline points="49.0,241.5,57.0,241.0,65.0,240.5,73.0,240.0,81.5,239.5,90.0,238.5" stroke="black" stroke-width="2" fill="none" />
<polyline points="90.5,232.5,82.0,233.0,74.0,234.0,65.5,234.0,57.0,234.0,48.5,235.0" stroke="black" stroke-width="2" fill="none" />
<polyline points="35.5,256.5,43.0,249.0,51.5,241.5,60.0,234.0,68.5,226.5,77.0,219.0,85.0,211.5" stroke="black" stroke-width="2" fill="none" />
<polyline points="89.5,220.0,94.5,228.0,99.5,236.0,103.5,244.0,107.0,252.0" stroke="black" stroke-width="2" fill="none" />
<polyline points="98.5,253.5,90.5,254.5,83.0,255.5,75.0,256.5,67.5,257.0,59.5,257.5,52.0,258.0,44.0,259.0,36.5,259.5" stroke="black" stroke-width="2" fill="none" />
<polyline points="11.0,255.5,19.0,248.0,27.0,240.5,35.0,233.0,42.5,226.0,50.5,218.5,59.0,211.0,67.0,203.0" stroke="black" stroke-width="2" fill="none" />
<polyline points="59.0,204.0,51.0,211.5,42.5,218.5,34.5,226.0,26.0,233.5,18.5,241.5,10.5,248.5,2.5,255.5" stroke="black" stroke-width="2" fill="none" />
<polyline points="4.5,255.0,12.5,254.0,20.0,253.0,27.5,252.0,35.0,251.0,42.5,250.5,50.5,249.5,59.0,248.0,67.0,247.5,74.5,247.0,82.5,246.5,90.5,246.5,99.0,247.0,107.0,247.0,116.0,247.0,124.5,246.5,132.5,246.0,141.0,245.0,149.0,245.0,157.0,244.5,165.0,244.0,173.0,243.5,181.0,242.5,188.5,242.0,196.5,241.5,205.0,241.5,212.5,241.0,220.5,240.5,228.5,240.5,236.5,240.0,245.0,239.5,253.0,239.0,260.5,238.0" stroke="black" stroke-width="2" fill="none" />
<polyline points="124.5,169.0,116.5,169.5,108.5,169.5,100.5,169.5,92.0,169.5,83.5,170.0,75.0,170.0,66.5,171.0,58.5,172.0,50.5,172.5" stroke="black" stroke-width="2" fill="none" />
<polyline points="50.0,171.5,58.0,167.0,66.5,167.5,74.0,169.0,82.0,170.0,89.5,171.0,97.0,172.0,105.0,173.5,113.0,174.5,120.5,175.5,129.0,176.5,136.5,178.5,145.0,179.5,153.5,177.5,161.5,173.0,169.5,168.0,178.0,162.5,165.0,168.0" stroke="black" stroke-width="2" fill="none" />
<polyline points="99.5,154.5,91.0,162.0" stroke="black" stroke-width="2" fill="none" />
<polyline points="94.5,179.0,102.5,181.0,110.5,181.5,118.5,183.5,127.0,184.0,135.5,186.0,143.0,187.5,151.0,188.5,159.0,189.5,167.0,190.5,175.0,191.5" stroke="black" stroke-width="2" fill="none" />
<polyline points="260.5,214.0,252.5,214.0,244.5,214.5,236.5,215.5,229.0,216.5,220.5,217.5,212.0,218.0,204.0,218.5,196.0,219.0,188.5,219.5,180.5,219.5,172.0,219.5,164.0,220.0,155.5,220.5,147.5,221.0,139.5,221.0,131.5,221.5,123.5,221.5,115.0,221.5,106.5,221.5,98.5,221.5,90.0,221.5,82.0,222.0,74.0,222.5,66.0,223.5,58.5,224.5,51.0,226.0,43.5,226.5,35.5,227.0,27.5,227.5,19.5,227.5,11.5,228.5,3.5,229.0" stroke="black" stroke-width="2" fill="none" />
<polyline points="4.0,231.0,12.5,223.5,20.5,216.5,29.0,209.5,36.5,202.5,44.5,194.5" stroke="black" stroke-width="2" fill="none" />
<polyline points="51.0,193.5,43.5,201.0,36.0,209.0,28.5,217.0,21.0,224.5,13.5,232.5,5.0,240.0" stroke="black" stroke-width="2" fill="none" />
<polyline points="3.5,238.0,11.5,237.0,20.0,236.0,27.5,234.5,35.0,233.5,42.5,233.0,50.0,233.0,58.0,232.5,65.5,232.5,73.5,232.0,81.5,231.5,89.5,231.0,98.0,230.5,106.5,230.5,114.5,230.5,123.0,230.0,131.5,230.0,139.5,230.0,147.5,230.0,156.0,229.5,164.0,229.0,172.5,228.0,180.5,227.5,188.5,227.0,196.0,226.5,204.0,226.5,212.5,226.0,220.5,225.5,228.0,225.5,235.5,225.0,243.5,224.0,252.0,223.5,260.0,223.0" stroke="black" stroke-width="2" fill="none" />
<polyline points="261.5,231.0,253.5,231.5,245.5,232.0,237.0,232.5,228.5,232.5,220.5,233.0,213.0,233.5,205.0,233.5,197.0,234.0,189.0,234.5,180.5,235.0,172.0,235.0,164.0,236.0,156.0,236.5,148.0,237.0,140.0,237.5,131.5,237.5,123.0,238.0,114.5,238.0,106.0,238.5,97.5,239.5,89.5,240.0,81.5,241.0,74.0,241.0,66.5,241.0,59.0,241.0,51.0,241.5,43.5,242.0,35.0,242.5,27.5,243.5,19.5,244.0,11.5,245.0,3.5,245.5" stroke="black" stroke-width="2" fill="none" />
<polyline points="3.0,248.5,11.5,241.0,19.5,234.0,27.5,226.0,35.5,218.5,43.0,210.0,51.5,202.0,59.5,194.0" stroke="black" stroke-width="2" fill="none" />
<polyline points="58.0,195.5,73.0,203.5,80.0,211.5,86.0,219.5,91.0,227.5,96.0,235.5,100.0,243.0,105.0,251.0" stroke="black" stroke-width="2" fill="none" />
<polyline points="99.5,239.5,91.5,226.5" stroke="black" stroke-width="2" fill="none" />
<polyline points="67.0,208.0,59.0,208.5,50.5,209.5,42.5,209.5" stroke="black" stroke-width="2" fill="none" />
<polyline points="36.0,196.0,28.0,203.5,20.5,211.5,12.5,219.5,4.0,227.0" stroke="black" stroke-width="2" fill="none" />
<polyline points="2.5,221.0,11.0,220.5,19.5,220.0,28.0,219.0,36.5,219.0,45.0,218.0,52.5,217.5,60.5,216.5,68.5,216.0,76.5,215.5,84.0,215.0,92.0,214.5,99.5,214.5,107.5,214.5,116.0,214.5,124.0,214.0,132.0,213.5,139.5,212.5,147.0,212.0,155.0,211.0,162.5,210.5,171.0,210.0,180.0,210.0,188.5,209.5,196.5,209.5,204.5,209.5" stroke="black" stroke-width="2" fill="none" />
<polyline points="93.0,132.5,85.5,140.0,77.0,147.5,69.0,154.5" stroke="black" stroke-width="2" fill="none" />
<polyline points="70.5,161.0,78.5,161.5,86.5,157.5,82.5,152.5,69.5,160.0,77.5,155.0,85.0,150.5,93.0,150.0,101.0,150.0,109.5,152.5,117.5,153.5,125.5,153.5,133.5,155.5,142.0,156.5,150.5,156.5,158.5,157.5,167.0,158.5,175.0,160.5,182.0,165.5,190.0,168.5,198.0,169.5,200.0,173.5,189.0,181.5" stroke="black" stroke-width="2" fill="none" />
<polyline points="92.0,125.5,84.0,133.0,76.0,140.5,67.5,148.0,59.5,155.5,52.0,162.0" stroke="black" stroke-width="2" fill="none" />
<polyline points="44.0,164.0,36.0,171.0" stroke="black" stroke-width="2" fill="none" />
<polyline points="34.5,178.5,27.0,186.0" stroke="black" stroke-width="2" fill="none" />
<polyline points="28.0,178.5,20.0,186.0,12.0,193.5,4.5,201.0" stroke="black" stroke-width="2" fill="none" />
<polyline points="2.5,198.0,10.0,197.0,17.5,196.5,25.5,195.5,33.5,195.0,41.5,194.5,50.0,194.0,59.0,194.5,67.5,194.5" stroke="black" stroke-width="2" fill="none" />
<polyline points="45.0,180.0,37.0,187.5" stroke="black" stroke-width="2" fill="none" />
<polyline points="27.5,194.0,20.0,202.0,12.0,210.0,4.0,218.0" stroke="black" stroke-width="2" fill="none" />
<polyline points="3.0,213.5,11.0,212.5,19.5,212.0,27.5,212.0,35.5,211.0,43.5,210.5,52.0,210.0,60.5,209.5,69.0,208.5,77.5,207.5,86.0,207.0,94.0,207.0,101.5,206.5,109.0,205.5,117.0,204.5,124.5,204.0,132.5,204.0,139.5,203.5,147.5,203.0,155.0,202.5" stroke="black" stroke-width="2" fill="none" />
<polyline points="83.5,143.5,75.5,144.0,67.5,145.0,59.5,145.0" stroke="black" stroke-width="2" fill="none" />
<polyline points="59.0,137.5,67.5,130.0,75.5,122.5,84.0,115.0,91.5,107.5" stroke="black" stroke-width="2" fill="none" />
<polyline points="84.5,109.5,76.0,117.5,67.5,125.0,59.0,132.0" stroke="black" stroke-width="2" fill="none" />
<polyline points="61.0,131.5,69.0,131.0,76.5,129.5,84.0,128.5" stroke="black" stroke-width="2" fill="none" />
<polyline points="90.5,116.0,82.5,124.0,74.0,131.5,66.0,139.0,58.5,146.0,51.0,153.0" stroke="black" stroke-width="2" fill="none" />
<polyline points="50.0,139.5,58.0,139.5,66.0,138.5,74.5,138.0,82.5,137.5,90.5,136.5,99.0,136.5" stroke="black" stroke-width="2" fill="none" />
<polyline points="83.0,136.0,75.0,136.5,67.0,137.0,59.0,137.0" stroke="black" stroke-width="2" fill="none" />
<polyline points="52.0,130.5,60.0,123.0,68.0,116.0,76.0,109.0,84.0,102.0" stroke="black" stroke-width="2" fill="none" />
<polyline points="86.5,106.5,88.0,98.5" stroke="black" stroke-width="2" fill="none" />
<polyline points="98.0,92.0,105.5,91.0,113.5,91.5,122.0,91.5,130.5,92.0" stroke="black" stroke-width="2" fill="none" />
<polyline points="114.5,94.5,107.0,95.0,99.0,95.5,91.0,96.0,83.0,96.0,75.5,97.0,68.0,97.5,60.0,98.5,52.0,100.0,44.0,100.5,36.5,100.5,29.0,100.5,21.5,100.5,14.0,101.0,5.5,101.5" stroke="black" stroke-width="2" fill="none" />
<polyline points="12.5,101.0,4.5,108.5" stroke="black" stroke-width="2" fill="none" />
<polyline points="5.0,110.5,13.0,110.0,20.5,109.5,28.0,109.0,36.0,109.0,43.5,108.0,51.5,107.5,59.0,106.5,67.0,105.5,75.0,104.5,83.5,104.0,91.5,104.0,99.5,103.0,107.5,102.5" stroke="black" stroke-width="2" fill="none" />
<polyline points="102.0,101.0,110.5,99.0,119.0,99.0,127.0,100.5,135.5,100.0,143.5,101.0,152.0,101.0,160.5,102.0,168.5,102.5,176.0,102.5,184.0,103.0" stroke="black" stroke-width="2" fill="none" />
<polyline points="107.5,109.5,99.0,110.0,90.5,111.0,82.0,112.0,74.5,112.0,67.0,112.5,59.5,113.5,52.0,114.5,44.0,115.5,36.0,116.0,27.5,117.0,19.5,117.5,11.5,118.0,4.0,119.0" stroke="black" stroke-width="2" fill="none" />
<polyline points="2.0,119.5,9.5,120.5,17.5,122.0,26.0,123.0,34.0,123.5,42.5,124.0,50.5,125.0" stroke="black" stroke-width="2" fill="none" />
<polyline points="52.5,121.5,44.5,129.0" stroke="black" stroke-width="2" fill="none" />
<polyline points="44.0,125.0,36.5,132.0" stroke="black" stroke-width="2" fill="none" />
<polyline points="28.5,129.0,37.0,121.5" stroke="black" stroke-width="2" fill="none" />
<polyline points="27.0,123.5,19.0,131.0" stroke="black" stroke-width="2" fill="none" />
<polyline points="12.5,129.5,20.5,122.0" stroke="black" stroke-width="2" fill="none" />
<polyline points="13.0,126.0,4.5,133.5" stroke="black" stroke-width="2" fill="none" />
<polyline points="3.0,131.5,11.0,129.5,18.5,130.0,26.0,131.5,34.0,132.5,42.0,133.0,50.0,134.5,58.0,136.0,58.0,142.0,36.0,150.0,14.0,158.0,5.0,162.0,12.5,159.0,20.5,156.5,28.5,153.5,37.0,150.5,45.0,148.0,53.0,144.5" stroke="black" stroke-width="2" fill="none" />
<polyline points="60.5,123.0,68.0,122.5,76.5,121.5,84.5,120.5" stroke="black" stroke-width="2" fill="none" />
<polyline points="100.5,127.5,92.5,128.0,84.0,128.0,76.0,128.5,67.5,129.0,59.0,129.5,50.5,130.0,42.0,130.5,34.0,131.5,26.5,132.0,18.5,132.5,10.0,133.0,2.0,133.5" stroke="black" stroke-width="2" fill="none" />
<polyline points="3.0,140.5,11.0,140.0" stroke="black" stroke-width="2" fill="none" />
<polyline points="2.0,125.0,10.0,124.5,18.0,124.0,26.0,123.0,34.0,122.5,41.5,121.5,49.5,121.0,57.5,120.5,65.5,120.0,74.0,119.0,82.0,119.0,89.5,118.0,97.5,118.5" stroke="black" stroke-width="2" fill="none" />
<polyline points="90.0,135.5,81.0,139.0,72.5,145.0,70.5,154.0,62.5,158.0,54.0,161.0,46.0,163.5,38.5,166.5,31.0,167.0,23.0,165.0" stroke="black" stroke-width="2" fill="none" />
<polyline points="21.5,160.5,29.5,160.0,37.0,161.0,45.0,159.0,53.0,156.5,56.0,153.0" stroke="black" stroke-width="2" fill="none" />
<polyline points="59.0,162.0,51.0,163.0,44.0,163.5,36.5,164.5,29.5,165.5,22.0,166.0,14.0,166.5,6.5,166.5" stroke="black" stroke-width="2" fill="none" />
<polyline points="11.5,165.5,3.0,173.0" stroke="black" stroke-width="2" fill="none" />
<polyline points="3.0,174.0,11.0,173.5,18.5,174.0,26.5,173.5,34.5,172.5,42.5,171.5" stroke="black" stroke-width="2" fill="none" />
<polyline points="52.0,171.0,60.0,172.0,68.0,173.0,76.0,173.5,84.0,174.5,92.0,175.5,100.0,176.5,108.0,178.5,115.5,179.5,123.0,181.0,131.0,182.5" stroke="black" stroke-width="2" fill="none" />
<polyline points="91.5,199.0,83.5,199.5,75.5,200.0,67.0,200.0,59.0,200.5,51.0,201.0,42.5,201.5,34.0,202.0,26.0,202.5,18.5,203.5,11.0,205.0,3.5,205.5" stroke="black" stroke-width="2" fill="none" />
<polyline points="4.5,210.5,12.5,203.5,20.5,196.0" stroke="black" stroke-width="2" fill="none" />
<polyline points="10.5,202.5,19.0,202.0,26.5,201.5,34.5,200.5,42.5,199.5" stroke="black" stroke-width="2" fill="none" />
<polyline points="11.0,187.5,3.0,195.0" stroke="black" stroke-width="2" fill="none" />
<polyline points="2.5,189.0,10.5,188.5,19.0,188.0,26.5,187.5,34.5,187.0,42.5,186.5,50.5,185.5,58.5,186.0,67.0,185.5,76.0,184.5,84.0,184.0,91.5,183.5,99.5,183.0,107.5,182.0,115.5,181.5,123.5,181.5,132.0,180.5,140.0,180.0,148.0,180.0,155.5,179.5,164.0,178.5,172.0,178.0,180.0,177.5,188.5,177.0,196.5,176.0,204.0,175.5,211.5,175.5,219.5,175.5" stroke="black" stroke-width="2" fill="none" />
<polyline points="258.0,142.5,250.5,143.0,242.5,143.5,235.0,144.0,227.0,144.0,219.0,144.0,211.0,143.5,203.5,144.0,195.0,144.5,186.5,145.0,179.0,146.0,171.0,147.0,163.0,147.5,155.0,148.0,147.5,149.0,139.5,150.0,131.0,150.5,123.0,151.0,115.0,151.0,107.0,151.5,99.0,151.5,91.0,152.0,83.5,152.0,75.5,153.0,67.5,153.5,59.5,154.0,51.5,155.0,43.5,155.0,35.5,156.0,27.5,156.5,20.0,156.5,12.5,156.5,4.5,156.5" stroke="black" stroke-width="2" fill="none" />
<polyline points="11.0,173.0,3.0,180.0" stroke="black" stroke-width="2" fill="none" />
<polyline points="4.0,175.5,12.0,177.0,19.5,178.0,27.0,179.0,34.5,180.5,42.5,181.5,50.0,182.5,57.5,183.0,65.5,184.0,73.0,186.0,80.5,186.5,89.0,187.5,97.0,189.5,105.5,191.0,114.0,192.0,122.0,193.0,130.0,194.0,138.5,195.0,146.5,195.5,155.0,197.5,162.5,198.0,170.5,199.0,178.5,200.0,186.5,201.0,194.5,197.5,202.5,192.5,210.5,186.5,218.0,179.0,226.0,173.0,234.0,166.5,238.0,162.5,229.0,170.5,219.0,178.5,209.0,186.5,199.5,194.5" stroke="black" stroke-width="2" fill="none" />
<polyline points="86.5,148.0,83.5,140.5,75.5,146.5,90.5,135.0,93.0,127.0,95.0,119.5,88.0,114.5,84.0,114.5,77.0,114.0,83.0,103.0,85.0,98.0,76.5,104.5,73.5,102.5" stroke="black" stroke-width="2" fill="none" />
<polyline points="68.5,104.0,76.5,95.5,76.5,95.5,68.0,103.0,67.0,111.0,78.5,109.0,80.5,112.5,82.0,102.0,81.0,99.0,72.5,103.0,75.5,104.0,72.5,113.0,86.5,112.5,85.0,122.0,86.5,132.5,81.5,140.5,73.0,148.5,80.0,150.0,65.0,158.5,43.0,160.5" stroke="black" stroke-width="2" fill="none" />
<polyline points="35.0,162.5,27.0,169.5" stroke="black" stroke-width="2" fill="none" />
<polyline points="26.5,157.0,35.0,156.0,43.0,155.0,51.0,155.0,59.0,153.0" stroke="black" stroke-width="2" fill="none" />
<polyline points="59.5,110.5,51.0,109.5,42.5,109.0,34.5,108.0" stroke="black" stroke-width="2" fill="none" />
<polyline points="42.5,87.0,34.5,89.0,26.5,88.0,18.5,87.0" stroke="black" stroke-width="2" fill="none" />
<polyline points="12.0,84.5,4.0,84.5" stroke="black" stroke-width="2" fill="none" />
<polyline points="3.5,79.5,12.0,78.5" stroke="black" stroke-width="2" fill="none" />
<polyline points="11.0,68.5,3.0,68.5" stroke="black" stroke-width="2" fill="none" />
<polyline points="4.5,59.5,12.0,59.5" stroke="black" stroke-width="2" fill="none" />
<polyline points="11.0,50.5,2.5,51.0" stroke="black" stroke-width="2" fill="none" />
<polyline points="3.0,44.0,10.5,43.5" stroke="black" stroke-width="2" fill="none" />
<polyline points="4.5,92.5,13.0,92.0,21.0,91.5,29.0,91.5,36.5,91.5,44.5,92.0,52.5,92.0,60.5,91.5,68.5,91.5,76.5,91.5,85.0,90.5" stroke="black" stroke-width="2" fill="none" />
<polyline points="107.5,96.0,103.5,104.0,102.5,112.5,100.5,121.0,98.0,129.0,97.0,137.5,85.5,143.5,90.0,152.0,89.5,160.0,89.5,163.0,97.0,164.0,105.5,165.0,114.0,166.0,122.0,167.5,130.5,168.0,136.5,165.0,143.0,167.0,151.5,171.0,159.5,168.5,161.0,169.5,169.0,164.0,181.0,162.0" stroke="black" stroke-width="2" fill="none" />
<polyline points="249.5,230.0,241.0,229.0,233.5,227.5,225.5,226.5,217.0,225.5,209.0,225.0,201.0,223.5,193.0,222.5,185.0,221.5,177.5,220.5,169.5,218.0,162.0,217.0,153.5,216.0,145.5,214.5,137.5,212.5,129.5,211.5,121.5,210.5,113.5,209.5,105.5,207.5,97.5,206.5,89.5,205.5,82.0,203.0,73.5,202.5,65.5,198.5,57.5,194.5,49.5,192.0,41.5,191.5,33.5,189.5,25.5,189.0,17.0,187.0,9.0,186.0,0.5,185.0" stroke="black" stroke-width="2" fill="none" />
<polyline points="57.0,126.0,57.0,118.0,61.5,112.0,65.0,104.5" stroke="black" stroke-width="2" fill="none" />
</svg>