<svg xmlns="http://www.w3.org/2000/svg" version="1.1"><polyline points="32.0,144.0,22.0,152.0,18.0,160.0,14.0,168.0,11.0,176.0,10.0,184.5,11.5,191.5,18.5,194.5,26.5,195.5,34.0,192.5,38.0,197.0,46.0,199.0,53.5,188.0,61.5,187.0,69.5,186.0,77.5,185.0,85.5,185.0,94.0,184.5,102.0,183.5,110.5,183.5,118.5,182.5,126.5,182.5,134.5,183.5,142.0,187.5,150.0,187.0,156.0,185.5,164.5,187.0,172.5,186.0,181.0,175.0,186.0,169.0,193.0,172.0,200.5,177.0,208.5,162.0,216.5,153.0,224.5,149.5,232.5,149.5,240.5,154.5" stroke="black" stroke-width="2" fill="none" />
<polyline points="235.0,156.0,242.0,148.5,250.0,141.0" stroke="black" stroke-width="2" fill="none" />
<polyline points="241.0,138.0,233.0,145.5" stroke="black" stroke-width="2" fill="none" />
<polyline points="227.5,146.5,235.5,139.0" stroke="black" stroke-width="2" fill="none" />
<polyline points="227.5,125.5,235.0,125.0,243.0,125.0,250.5,124.5,258.5,123.5" stroke="black" stroke-width="2" fill="none" />
<polyline points="260.5,140.0,252.0,148.0,244.0,156.0,236.0,164.0,227.5,171.5,220.0,178.5,212.0,185.5" stroke="black" stroke-width="2" fill="none" />
<polyline points="211.0,180.5,219.0,180.5,227.0,180.5,235.0,179.5,243.5,179.0" stroke="black" stroke-width="2" fill="none" />
<polyline points="242.5,176.5,234.0,176.5,225.5,177.0" stroke="black" stroke-width="2" fill="none" />
<polyline points="227.0,168.5,235.0,168.0,243.0,167.0,251.0,166.5,259.0,166.5" stroke="black" stroke-width="2" fill="none" />
<polyline points="259.0,163.5,251.5,171.0" stroke="black" stroke-width="2" fill="none" />
<polyline points="249.5,173.5,241.5,176.5,233.5,185.5,238.5,181.5,244.0,173.5" stroke="black" stroke-width="2" fill="none" />
<polyline points="245.0,160.0,253.5,160.0,261.5,160.0" stroke="black" stroke-width="2" fill="none" />
<polyline points="261.0,156.5,253.0,164.0,245.0,171.5,236.5,179.0,227.5,186.0" stroke="black" stroke-width="2" fill="none" />
<polyline points="226.5,190.0,235.0,189.5" stroke="black" stroke-width="2" fill="none" />
<polyline points="233.5,189.5,242.0,190.5,249.5,190.0" stroke="black" stroke-width="2" fill="none" />
<polyline points="257.5,203.0,250.0,211.0,242.5,218.5,234.5,226.0,226.5,232.5,218.5,240.0,210.5,247.5,202.5,254.5" stroke="black" stroke-width="2" fill="none" />
<polyline points="219.5,256.0,227.0,249.0,234.0,242.0,241.5,234.5,249.0,227.0,257.0,219.0" stroke="black" stroke-width="2" fill="none" />
<polyline points="258.0,210.0,250.0,217.0,242.0,225.0,234.0,232.5,226.0,240.0,218.5,247.5,210.0,255.0" stroke="black" stroke-width="2" fill="none" />
<polyline points="236.0,257.5,243.5,250.5,251.0,243.5,259.0,236.0" stroke="black" stroke-width="2" fill="none" />
<polyline points="258.5,229.0,250.0,236.0,242.5,243.0,235.0,250.0,227.0,257.5" stroke="black" stroke-width="2" fill="none" />
<polyline points="252.0,259.0,260.5,251.5" stroke="black" stroke-width="2" fill="none" />
<polyline points="260.0,243.5,252.0,251.5,244.0,259.0" stroke="black" stroke-width="2" fill="none" />
<polyline points="241.0,212.0,233.0,219.0,225.5,226.5,218.0,233.5,210.5,241.5,203.0,249.0,195.0,256.5" stroke="black" stroke-width="2" fill="none" />
<polyline points="188.0,257.0,195.5,250.0,203.5,242.0,210.5,233.5,218.0,225.5,226.5,217.5,234.0,210.0" stroke="black" stroke-width="2" fill="none" />
<polyline points="228.0,210.5,220.0,218.0,211.5,225.5,203.5,233.0,196.0,241.0,188.5,249.0,180.0,256.0" stroke="black" stroke-width="2" fill="none" />
<polyline points="170.0,255.0,178.5,247.0,187.0,240.0,195.5,232.5,204.0,224.5,212.5,217.0,220.5,209.0" stroke="black" stroke-width="2" fill="none" />
<polyline points="211.0,211.0,203.0,219.0,195.0,227.0,187.0,235.0,178.5,242.5,170.5,250.0,163.0,257.5" stroke="black" stroke-width="2" fill="none" />
<polyline points="153.5,256.5,161.5,248.5,169.5,241.0,177.5,233.5,186.0,226.0,194.0,218.0,202.0,211.0" stroke="black" stroke-width="2" fill="none" />
<polyline points="194.5,212.5,187.0,220.0,179.0,228.0,171.5,235.5,163.5,243.0,155.0,250.0,147.0,257.5" stroke="black" stroke-width="2" fill="none" />
<polyline points="138.5,256.5,146.5,249.0,154.5,241.0,163.0,233.0,171.5,225.0,180.0,217.5,188.0,210.0" stroke="black" stroke-width="2" fill="none" />
<polyline points="180.0,212.5,171.5,219.5,163.5,226.0,155.5,233.0,147.0,240.5,139.0,248.0,131.0,255.5" stroke="black" stroke-width="2" fill="none" />
<polyline points="125.0,256.0,133.0,248.0,141.5,240.5,149.5,233.5,157.5,226.0,165.5,218.5,173.5,211.0" stroke="black" stroke-width="2" fill="none" />
<polyline points="179.5,202.5,187.5,196.0,195.0,188.5" stroke="black" stroke-width="2" fill="none" />
<polyline points="194.0,183.0,185.5,183.5" stroke="black" stroke-width="2" fill="none" />
<polyline points="179.5,184.0,187.0,176.5,195.5,169.0,203.0,161.0,211.0,153.5,218.5,146.0" stroke="black" stroke-width="2" fill="none" />
<polyline points="219.5,138.5,211.5,146.0,203.5,154.0,195.0,161.5,187.5,169.5" stroke="black" stroke-width="2" fill="none" />
<polyline points="187.0,163.0,195.5,155.5,203.5,147.5,211.5,140.0" stroke="black" stroke-width="2" fill="none" />
<polyline points="215.0,125.5,222.5,126.0" stroke="black" stroke-width="2" fill="none" />
<polyline points="196.5,138.0,188.5,145.5,180.0,152.5,172.0,160.5" stroke="black" stroke-width="2" fill="none" />
<polyline points="171.0,166.5,179.0,167.0,187.0,170.0" stroke="black" stroke-width="2" fill="none" />
<polyline points="196.0,171.0,203.5,170.0" stroke="black" stroke-width="2" fill="none" />
<polyline points="210.0,168.5,210.0,166.0,218.5,159.5,216.5,162.5,214.0,167.5,219.0,175.5,212.0,176.5,207.0,180.5" stroke="black" stroke-width="2" fill="none" />
<polyline points="208.0,180.5,216.0,187.5,223.5,189.5,231.5,190.0,239.0,191.0" stroke="black" stroke-width="2" fill="none" />
<polyline points="220.5,186.5,229.0,178.5,236.5,170.5,244.5,162.5,252.5,155.0,261.0,147.0" stroke="black" stroke-width="2" fill="none" />
<polyline points="259.5,154.5,251.0,155.0,242.5,155.5,234.0,156.0,226.0,156.5" stroke="black" stroke-width="2" fill="none" />
<polyline points="220.5,153.5,212.5,154.5,204.0,155.0,195.5,156.0,187.5,156.0,179.0,156.0,170.5,156.5,162.0,157.0,153.5,157.0,146.0,157.5,138.0,157.5" stroke="black" stroke-width="2" fill="none" />
<polyline points="139.0,148.5,131.0,156.0,123.0,163.5,115.5,171.0,108.0,178.5" stroke="black" stroke-width="2" fill="none" />
<polyline points="99.0,177.5,108.0,170.5,116.5,163.0,124.5,156.0,132.5,148.5" stroke="black" stroke-width="2" fill="none" />
<polyline points="131.0,151.5,123.0,151.5,115.0,151.5,106.5,152.5,98.5,153.5,90.5,154.0,83.0,155.0,75.0,155.0,67.5,156.5,59.5,157.0,52.5,157.5,45.0,158.0,37.5,158.5" stroke="black" stroke-width="2" fill="none" />
<polyline points="35.0,165.5,43.0,165.5,51.5,165.0,59.5,164.0,68.0,163.5,76.0,162.5,83.5,161.5,90.5,161.5,98.0,161.0,106.0,160.5,113.5,160.0,121.5,159.0,129.5,158.0,138.0,157.5,146.0,157.0,154.0,156.5,162.5,156.5,171.5,157.0,180.5,157.0,188.5,157.0,196.5,156.5,204.5,156.0,212.5,155.0" stroke="black" stroke-width="2" fill="none" />
<polyline points="211.0,164.0,203.0,171.5,195.5,179.5,188.0,187.5,180.0,194.5" stroke="black" stroke-width="2" fill="none" />
<polyline points="180.0,196.0,187.5,195.5,195.5,195.0" stroke="black" stroke-width="2" fill="none" />
<polyline points="209.5,205.0,217.5,204.0,225.5,203.0,234.0,202.5,242.0,202.0,250.0,201.5,258.5,201.5" stroke="black" stroke-width="2" fill="none" />
<polyline points="234.5,185.5,226.5,186.0,218.5,186.5" stroke="black" stroke-width="2" fill="none" />
<polyline points="217.5,171.5,213.0,175.0,205.0,178.0" stroke="black" stroke-width="2" fill="none" />
<polyline points="203.0,161.0,211.5,160.5" stroke="black" stroke-width="2" fill="none" />
<polyline points="217.5,164.0,228.5,154.0,224.0,150.0,212.5,158.0,207.5,165.5,204.5,173.0,195.5,181.0,197.0,189.0,189.0,196.5,194.0,200.5,194.0,198.5,200.0,203.0,185.0,208.5,192.5,206.5,200.5,202.5,208.5,202.5" stroke="black" stroke-width="2" fill="none" />
<polyline points="196.5,219.5,204.0,219.0,211.5,218.0,219.5,217.5,227.5,216.5,235.5,215.5,243.5,215.5,251.5,214.5,259.5,213.5" stroke="black" stroke-width="2" fill="none" />
<polyline points="258.0,164.5,250.0,164.0,242.5,164.0,234.5,164.0,227.0,164.5,218.5,165.0" stroke="black" stroke-width="2" fill="none" />
<polyline points="232.5,155.0,240.5,162.5" stroke="black" stroke-width="2" fill="none" />
<polyline points="196.5,148.5,188.5,155.5,180.5,162.5" stroke="black" stroke-width="2" fill="none" />
<polyline points="186.5,160.5,194.5,160.0" stroke="black" stroke-width="2" fill="none" />
<polyline points="195.5,169.0,188.0,169.0,180.0,169.5,172.0,170.5,164.0,171.5,156.0,172.5,148.0,174.0,140.0,175.0,132.0,175.5,123.5,176.0,115.5,176.5,107.5,177.0,100.0,178.0,92.0,178.5,84.0,179.0,76.0,180.0,68.5,180.5,60.0,181.0,52.5,181.5,44.5,182.0,37.0,182.0,29.0,182.5,20.5,183.0" stroke="black" stroke-width="2" fill="none" />
<polyline points="15.0,181.5,23.5,181.5,31.0,181.5" stroke="black" stroke-width="2" fill="none" />
<polyline points="36.5,178.5,28.5,186.0,21.0,193.5" stroke="black" stroke-width="2" fill="none" />
<polyline points="21.0,190.5,29.0,190.0,37.0,190.0,45.0,190.0,52.5,189.5,60.0,189.0" stroke="black" stroke-width="2" fill="none" />
<polyline points="60.0,188.0,68.5,180.5,76.5,172.5,84.5,165.0" stroke="black" stroke-width="2" fill="none" />
<polyline points="92.0,169.5,100.0,169.0,107.5,168.5,116.0,167.5,124.0,166.5" stroke="black" stroke-width="2" fill="none" />
<polyline points="127.0,165.0,135.0,155.5,142.5,152.0,150.0,150.0,158.0,152.5" stroke="black" stroke-width="2" fill="none" />
<polyline points="165.5,153.5,173.5,146.0,181.5,137.5" stroke="black" stroke-width="2" fill="none" />
<polyline points="187.0,139.5,178.5,147.0,170.5,155.0,162.5,162.0,154.0,169.5,146.5,177.0,138.0,184.0" stroke="black" stroke-width="2" fill="none" />
<polyline points="139.0,188.0,147.5,187.0,155.5,186.5" stroke="black" stroke-width="2" fill="none" />
<polyline points="149.0,185.5,157.0,178.5,165.5,171.0" stroke="black" stroke-width="2" fill="none" />
<polyline points="160.0,177.5,168.0,169.5,168.0,169.0,159.0,181.0,156.0,189.5,164.0,191.5,172.0,191.5" stroke="black" stroke-width="2" fill="none" />
<polyline points="172.5,186.5,181.0,179.0" stroke="black" stroke-width="2" fill="none" />
<polyline points="172.5,178.5,164.5,185.5" stroke="black" stroke-width="2" fill="none" />
<polyline points="164.5,191.5,173.0,191.0,181.0,190.0,189.0,189.5,196.0,188.0" stroke="black" stroke-width="2" fill="none" />
<polyline points="196.0,197.0,188.0,198.0,179.5,199.0,171.5,199.5,163.5,200.0" stroke="black" stroke-width="2" fill="none" />
<polyline points="157.5,193.0,166.0,198.5,174.0,200.5,182.0,201.5,190.0,197.5" stroke="black" stroke-width="2" fill="none" />
<polyline points="172.0,186.5,178.5,178.5,183.0,177.0,176.0,167.0" stroke="black" stroke-width="2" fill="none" />
<polyline points="157.5,164.0,149.0,171.5,141.0,178.5" stroke="black" stroke-width="2" fill="none" />
<polyline points="139.5,179.5,147.5,179.0,155.0,178.5" stroke="black" stroke-width="2" fill="none" />
<polyline points="157.5,174.5,165.5,167.0,168.5,164.0,157.5,172.5,159.0,176.5,155.0,184.5,158.0,193.5" stroke="black" stroke-width="2" fill="none" />
<polyline points="158.5,219.5,150.5,226.5,141.5,233.5,132.5,241.0,123.5,248.0,115.0,255.5" stroke="black" stroke-width="2" fill="none" />
<polyline points="106.5,256.0,114.5,248.0,122.5,241.0,130.5,233.5,138.5,226.5,146.5,219.5" stroke="black" stroke-width="2" fill="none" />
<polyline points="140.0,218.5,132.0,225.5,124.0,233.0,116.0,241.0,108.0,248.5,100.0,256.0" stroke="black" stroke-width="2" fill="none" />
<polyline points="90.0,258.5,98.5,250.5,106.5,242.5,114.0,235.0,121.5,227.0,129.5,219.5" stroke="black" stroke-width="2" fill="none" />
<polyline points="123.0,220.5,115.0,228.0,107.5,236.0,99.5,243.5,91.0,251.0,83.0,258.0" stroke="black" stroke-width="2" fill="none" />
<polyline points="76.5,255.5,85.0,248.5,93.0,241.5,100.5,234.0,107.5,226.5,115.5,219.0" stroke="black" stroke-width="2" fill="none" />
<polyline points="109.0,219.5,101.0,227.0,92.5,235.0,84.0,242.0,76.0,249.5,67.5,256.5" stroke="black" stroke-width="2" fill="none" />
<polyline points="60.0,257.5,68.0,250.0,76.0,242.0,84.0,234.5,92.0,226.5,100.5,219.0" stroke="black" stroke-width="2" fill="none" />
<polyline points="91.5,219.5,83.5,227.0,75.5,235.0,67.5,242.5,60.0,250.5,52.5,258.5" stroke="black" stroke-width="2" fill="none" />
<polyline points="43.5,259.5,52.0,251.5,60.5,244.0,69.0,236.5,77.0,228.5" stroke="black" stroke-width="2" fill="none" />
<polyline points="69.5,229.0,61.5,236.5,53.5,244.0,45.0,252.0,36.5,259.5" stroke="black" stroke-width="2" fill="none" />
<polyline points="28.0,259.0,36.0,251.5,44.0,243.5,52.0,236.0,59.5,229.0" stroke="black" stroke-width="2" fill="none" />
<polyline points="59.5,233.0,67.5,233.0,76.0,233.0,84.0,232.5,91.5,232.5,99.5,231.5,107.0,231.0,114.5,230.0,122.0,229.5,130.0,229.0,137.5,228.0,146.0,227.5,154.5,227.5,162.5,227.0,170.5,226.0,178.5,225.0,187.0,224.5,195.0,224.5,203.0,224.0,211.0,224.0,218.5,223.5,226.5,222.5,234.5,221.5,242.5,221.0,250.5,220.0,258.5,220.0" stroke="black" stroke-width="2" fill="none" />
<polyline points="261.0,236.5,253.0,237.5,244.5,238.0,235.5,238.5,227.5,239.0,219.0,239.5,211.0,239.5,202.5,240.0,194.5,240.5,186.5,241.0" stroke="black" stroke-width="2" fill="none" />
<polyline points="121.5,211.5,129.0,211.5,137.5,211.5,145.5,211.5,153.5,211.0,162.0,211.0,170.5,211.0,178.5,211.0,187.5,211.0,196.0,211.0,204.5,211.5,212.0,210.5,220.0,209.5,227.5,208.5,236.0,207.5,244.0,207.0,252.5,206.0,260.5,205.0" stroke="black" stroke-width="2" fill="none" />
<polyline points="172.5,137.0,164.5,145.0" stroke="black" stroke-width="2" fill="none" />
<polyline points="154.0,154.5,146.0,154.5,137.5,161.0,129.5,168.0,129.0,172.5,129.5,165.5,131.0,166.5,138.0,158.5,150.0,150.5" stroke="black" stroke-width="2" fill="none" />
<polyline points="146.5,150.0,131.5,157.5,126.5,165.5,125.5,174.0,135.0,185.0" stroke="black" stroke-width="2" fill="none" />
<polyline points="131.0,177.5,139.5,170.5,147.5,163.0" stroke="black" stroke-width="2" fill="none" />
<polyline points="143.0,165.5,134.5,168.0" stroke="black" stroke-width="2" fill="none" />
<polyline points="130.5,171.5,123.0,179.5" stroke="black" stroke-width="2" fill="none" />
<polyline points="124.0,173.0,116.0,180.5" stroke="black" stroke-width="2" fill="none" />
<polyline points="125.5,175.5,117.0,176.0,108.5,176.0,100.5,176.5,92.0,177.0,83.0,177.0,75.0,178.0" stroke="black" stroke-width="2" fill="none" />
<polyline points="84.5,184.0,92.0,176.5,99.5,169.0,108.0,161.0,116.0,153.5" stroke="black" stroke-width="2" fill="none" />
<polyline points="107.5,156.0,99.0,163.5,91.0,170.5,83.0,177.5,75.0,185.0" stroke="black" stroke-width="2" fill="none" />
<polyline points="68.5,185.0,76.0,177.0,84.0,169.5,92.0,162.0,100.0,155.0" stroke="black" stroke-width="2" fill="none" />
<polyline points="91.0,126.0,98.5,125.0,106.5,124.5,115.5,124.0,124.0,123.5,132.5,123.5,140.5,122.5,148.5,122.0,156.5,121.5,164.5,120.0,172.5,119.5,180.0,119.0,188.0,119.0,196.5,118.5,205.0,117.5,213.5,117.0" stroke="black" stroke-width="2" fill="none" />
<polyline points="187.5,109.0,195.5,108.5,203.0,107.5,210.5,106.0,218.5,105.0,227.0,104.0,235.0,104.0,243.5,104.0,251.5,104.0,259.5,104.0" stroke="black" stroke-width="2" fill="none" />
<polyline points="243.0,98.0,234.5,99.0,226.5,100.0,218.5,100.0,210.5,99.5,202.5,100.0,194.5,100.5,186.5,101.0" stroke="black" stroke-width="2" fill="none" />
<polyline points="172.5,102.0,164.5,102.5,156.5,103.0" stroke="black" stroke-width="2" fill="none" />
<polyline points="147.5,110.5,155.5,110.0,163.0,109.5,170.5,109.5" stroke="black" stroke-width="2" fill="none" />
<polyline points="123.0,111.0,115.0,111.5" stroke="black" stroke-width="2" fill="none" />
<polyline points="99.0,119.0,107.0,117.5,115.0,117.0,123.0,116.0,131.0,115.0,139.5,114.0,147.5,113.0,155.5,112.0,164.0,111.5,172.0,111.0,180.5,111.0,188.5,110.5,197.0,110.0,205.5,109.5,213.5,108.5,222.0,108.5,229.5,108.0,237.5,108.0,245.0,107.5,253.0,107.0,260.5,106.5" stroke="black" stroke-width="2" fill="none" />
<polyline points="262.0,215.5,253.0,216.0,244.5,216.5,236.5,217.0,228.0,218.0,220.0,219.0,211.5,220.0,203.5,220.5,195.5,220.5,187.5,221.5,179.5,222.5,171.5,223.0,163.5,224.0,155.5,224.5,147.5,224.5,139.5,225.0,131.5,225.5,122.5,226.0,114.0,226.0" stroke="black" stroke-width="2" fill="none" />
<polyline points="120.5,191.0,113.0,191.5,105.0,190.0" stroke="black" stroke-width="2" fill="none" />
<polyline points="60.0,180.0,52.0,187.5,44.0,195.0" stroke="black" stroke-width="2" fill="none" />
<polyline points="43.0,198.5,51.0,198.0" stroke="black" stroke-width="2" fill="none" />
<polyline points="37.0,194.5,44.5,187.5,52.0,181.0,60.0,174.0" stroke="black" stroke-width="2" fill="none" />
<polyline points="52.5,172.5,44.5,180.5,36.5,187.5,28.5,195.0" stroke="black" stroke-width="2" fill="none" />
<polyline points="36.0,193.0,44.0,192.5,52.5,192.5" stroke="black" stroke-width="2" fill="none" />
<polyline points="27.0,189.0,19.0,189.0,11.0,189.0,3.0,189.0" stroke="black" stroke-width="2" fill="none" />
<polyline points="1.5,182.5,9.5,182.0" stroke="black" stroke-width="2" fill="none" />
<polyline points="12.0,177.0,20.0,175.0,21.0,171.5" stroke="black" stroke-width="2" fill="none" />
<polyline points="17.5,171.0,26.0,171.0,34.0,170.0" stroke="black" stroke-width="2" fill="none" />
<polyline points="29.0,173.5,36.5,173.5,44.0,172.5,52.0,172.0,59.5,172.0,67.5,171.5,75.5,171.0,83.5,170.5,91.5,169.5,99.0,169.0,107.0,168.0,115.5,167.5,123.5,167.0,132.0,167.0,140.5,167.0,149.0,167.5,156.5,167.0,164.5,166.5,172.0,166.0,180.0,165.5,188.0,165.0,196.0,164.5,204.0,164.0,212.0,163.0,219.5,162.0,227.5,161.0,235.0,160.5,243.0,160.0,251.0,159.0,259.0,158.5" stroke="black" stroke-width="2" fill="none" />
<polyline points="260.5,121.5,252.5,122.0,245.0,122.5,237.0,123.5,229.5,124.0,221.0,124.5,212.0,124.5,203.5,125.0,195.5,125.5,187.5,125.5,179.5,126.5,171.0,127.0,163.0,127.5,155.0,128.5,146.5,129.0,139.0,129.5,131.0,129.0,123.0,129.0,115.0,130.0,107.0,130.5,99.5,131.5,92.0,132.0,84.5,133.0,76.5,134.0,68.5,134.5" stroke="black" stroke-width="2" fill="none" />
<polyline points="51.5,143.5,59.5,143.0,67.0,142.5,75.0,141.5,83.0,140.5,91.5,140.0,99.5,139.5,108.0,139.0,116.0,138.0,124.0,137.0,131.5,136.5,139.0,136.0,147.0,136.0,154.5,135.5,162.5,134.5,170.5,134.0,178.5,133.0,186.5,132.5,194.5,132.5,203.0,132.5,211.0,132.5,219.0,132.0,227.0,131.5,235.5,131.0,244.0,130.5,252.0,130.5,260.0,129.5" stroke="black" stroke-width="2" fill="none" />
<polyline points="259.5,209.0,251.0,209.0,243.0,209.0,235.0,209.5,227.5,210.5,219.5,211.0,211.0,211.0,203.0,211.5,195.5,212.0,187.5,212.0,179.5,212.5,171.0,213.5,163.0,213.5,155.0,214.0,147.0,215.0,139.0,215.5,130.5,216.5,122.5,217.5,114.5,218.5,106.5,219.5,98.5,220.5,90.5,221.0,82.0,221.0,74.0,221.0,67.0,221.0,59.0,221.5" stroke="black" stroke-width="2" fill="none" />
<polyline points="52.5,228.0,44.5,235.5,37.0,243.5,29.5,251.0,21.5,258.5" stroke="black" stroke-width="2" fill="none" />
<polyline points="12.0,258.5,19.5,251.5,28.0,244.5,36.0,237.5,44.5,230.5" stroke="black" stroke-width="2" fill="none" />
<polyline points="35.5,227.5,27.5,235.5,19.5,243.0,12.0,250.0,4.0,257.0" stroke="black" stroke-width="2" fill="none" />
<polyline points="5.0,258.0,13.5,257.5,21.5,257.0,29.0,256.5,36.0,256.0,43.5,255.5,51.0,254.5,59.0,254.0,66.5,253.0,74.5,252.5,82.5,252.0,90.5,251.5,98.5,251.0,107.0,250.5,115.0,250.5,123.5,250.0,131.5,249.5,140.5,249.0,149.0,248.5,157.0,247.5,165.0,247.5,173.0,247.0,180.5,247.0,188.0,246.0,196.0,245.5,203.5,244.5,211.5,244.0,219.0,243.5,227.0,242.5,235.0,242.0,242.5,241.0,251.0,240.5,259.0,240.0" stroke="black" stroke-width="2" fill="none" />
<polyline points="261.0,135.5,252.0,136.0,244.0,136.5,236.0,137.0,228.0,137.0,220.0,137.5,212.0,138.5,204.0,138.5,196.5,139.0,188.5,139.5,180.5,140.5,172.0,141.0,163.5,141.5,155.0,142.0,146.5,142.5,138.0,143.0,130.0,143.5,122.5,144.0,115.5,145.5,107.5,146.5,99.5,147.5,91.5,148.0,83.5,149.0,75.5,149.5,67.5,150.0,59.5,150.0,51.5,150.5" stroke="black" stroke-width="2" fill="none" />
<polyline points="40.0,146.0,32.5,150.0,25.0,154.0,24.5,154.0,37.5,146.0,38.0,141.5,30.0,143.5,22.5,149.0,14.5,165.5" stroke="black" stroke-width="2" fill="none" />
<polyline points="12.0,174.0,4.0,175.0" stroke="black" stroke-width="2" fill="none" />
<polyline points="5.0,165.5,13.0,165.0" stroke="black" stroke-width="2" fill="none" />
<polyline points="28.0,165.0,36.0,161.0" stroke="black" stroke-width="2" fill="none" />
<polyline points="50.0,165.5,52.5,173.0,53.5,181.0,52.5,189.5,45.5,197.5,51.0,199.0" stroke="black" stroke-width="2" fill="none" />
<polyline points="28.5,226.0,20.5,233.5,13.0,241.0,5.5,248.5" stroke="black" stroke-width="2" fill="none" />
<polyline points="5.0,248.0,13.0,247.5,20.5,247.0,28.0,247.0,35.5,246.5,43.5,246.0,50.5,245.5,58.0,245.0,66.0,244.5,74.5,244.0,82.5,243.5,90.5,243.0,98.5,243.0,106.0,242.5,114.0,241.5,122.5,241.0,130.5,240.5,138.5,240.5,147.0,240.5,156.0,239.5,164.5,239.0,172.0,238.5,180.0,238.5,188.0,238.0,196.0,238.0,204.0,237.5,211.5,237.0,219.5,236.5,227.5,236.0,235.0,235.0,243.0,234.0,251.0,234.0,259.0,234.0" stroke="black" stroke-width="2" fill="none" />
<polyline points="21.0,225.5,13.0,233.0,4.5,240.5" stroke="black" stroke-width="2" fill="none" />
<polyline points="5.0,241.5,13.0,241.0,21.0,240.0,29.0,239.5,37.0,239.5,44.5,239.0,52.0,239.0,60.0,238.0,67.5,237.5,74.5,237.0,82.5,236.0,90.5,235.5,98.5,235.0,106.5,234.5,114.5,235.0,122.5,235.0,130.5,234.0,139.0,233.0,147.0,232.5,155.0,232.0,163.5,231.5,171.5,231.0,179.5,231.0" stroke="black" stroke-width="2" fill="none" />
<polyline points="12.5,226.5,4.0,234.0" stroke="black" stroke-width="2" fill="none" />
<polyline points="2.0,237.0,10.0,236.0,18.5,235.5,26.5,235.0,34.5,234.5,42.5,234.0,50.5,234.5,59.0,235.0,67.5,235.0,75.5,235.5,84.0,235.0,91.5,234.5,99.5,234.0,107.5,233.0,115.5,232.5,123.0,231.5,131.5,231.5,140.0,231.0,148.5,230.5,156.0,230.0,164.5,229.0,172.5,228.5,180.5,228.5,188.0,228.0,195.5,227.5,203.0,227.0,211.0,226.0,218.5,224.5,226.0,223.5,234.0,222.5,242.0,222.0,250.0,221.0,258.0,221.0" stroke="black" stroke-width="2" fill="none" />
<polyline points="259.5,237.0,251.5,237.0,243.5,237.5,235.5,238.0,227.5,239.0,219.0,239.5,211.0,240.0,203.0,240.5,195.0,241.0,187.0,241.5,179.0,242.5,171.0,243.5,163.5,244.0,155.5,244.0,147.5,244.5,140.0,245.0,132.0,245.5,123.5,245.5,115.0,245.5,106.5,245.5,98.5,245.5,90.0,246.0,81.5,246.5,74.0,247.0,66.0,248.0,58.5,248.5,51.0,249.0,44.0,249.5,36.5,249.5,28.5,250.0,21.0,250.0,13.5,250.0,5.5,250.5" stroke="black" stroke-width="2" fill="none" />
<polyline points="5.5,244.5,13.0,244.0,21.0,243.5,29.0,243.5,36.5,243.0,44.0,242.5,51.5,241.5,59.5,241.0,67.5,240.5,75.5,240.0,83.5,240.0,91.5,239.5,99.0,238.5,106.5,237.0,114.5,236.0,123.0,235.0,131.0,235.0,139.5,235.0,147.5,235.0,155.5,235.0,164.0,235.0,172.0,234.0,180.0,233.5,188.0,233.0,196.5,233.0,205.0,232.5,213.0,232.5,220.0,232.0,227.5,231.5,235.0,231.5,243.0,231.0,251.0,230.5,259.5,230.5" stroke="black" stroke-width="2" fill="none" />
<polyline points="259.0,215.0,251.0,215.0,242.5,215.5,234.5,216.0,226.5,216.5,218.5,217.0,211.5,218.5,203.5,219.5,195.5,219.5,188.0,219.5,180.5,220.0,173.0,220.5,165.0,220.5,157.0,221.0,149.0,221.0,141.0,221.5,133.0,222.5,124.5,223.0,116.0,224.0,108.0,225.0,99.5,226.0,91.5,226.5,83.5,227.0,75.0,227.5,66.5,227.5,58.5,227.0,51.0,226.5,43.0,227.0,34.5,227.0,26.5,227.5,18.5,228.0,10.5,229.0,2.0,230.0" stroke="black" stroke-width="2" fill="none" />
<polyline points="3.0,226.5,11.0,225.5,19.0,224.5,27.0,223.5,34.5,222.0,41.5,222.5,49.0,221.5,57.0,221.5,65.0,221.5,73.0,218.5,81.0,216.5,89.0,215.5,97.0,214.5,104.5,215.0,112.5,213.5,120.5,211.0,129.0,211.5,137.0,210.5,145.0,211.0,153.0,208.5,161.5,207.5,169.5,207.5,177.5,210.5,185.5,204.5,198.5,209.5,207.0,207.5,215.0,206.0,222.5,204.0,230.0,203.0,237.5,205.5,245.5,203.5,253.5,199.5" stroke="black" stroke-width="2" fill="none" />
</svg>