<svg xmlns="http://www.w3.org/2000/svg" version="1.1"><polyline points="25.5,2.5,13.5,5.0,8.0,4.0,16.0,2.0,22.5,3.0,29.5,9.5,38.5,10.5,46.5,12.0,54.5,12.0,55.0,15.5,62.0,23.5,70.0,23.0,78.0,19.5" stroke="black" stroke-width="2" fill="none" />
<polyline points="76.5,41.0,68.5,41.5,60.5,42.0,52.5,42.5,45.0,43.0,36.5,43.0,28.5,43.0,20.0,43.0,12.0,44.0,4.5,44.5" stroke="black" stroke-width="2" fill="none" />
<polyline points="3.0,50.5,11.5,43.0,19.5,36.0" stroke="black" stroke-width="2" fill="none" />
<polyline points="13.0,35.0,5.0,43.0" stroke="black" stroke-width="2" fill="none" />
<polyline points="1.5,37.0,9.5,36.5,18.0,35.5,26.5,35.0,35.0,34.5,44.0,34.5,52.0,34.0,60.0,34.0,68.0,33.0" stroke="black" stroke-width="2" fill="none" />
<polyline points="61.0,26.0,52.0,26.0,43.5,26.5,35.0,27.0,26.5,27.0,18.5,27.0,10.0,27.0,2.0,27.5" stroke="black" stroke-width="2" fill="none" />
<polyline points="3.5,31.0,11.5,30.5,14.5,26.5,22.0,28.0,29.5,27.5" stroke="black" stroke-width="2" fill="none" />
<polyline points="30.0,33.0,21.5,40.5,13.0,49.0,4.0,57.0" stroke="black" stroke-width="2" fill="none" />
<polyline points="4.0,53.0,12.0,53.0,20.5,52.5,29.0,52.0,37.5,52.0,45.5,51.5,53.5,51.5,61.0,51.0,68.5,50.5,76.5,50.5,84.5,49.5,92.5,49.0" stroke="black" stroke-width="2" fill="none" />
<polyline points="95.0,51.0,100.5,53.0" stroke="black" stroke-width="2" fill="none" />
<polyline points="103.5,57.0,94.5,47.0,86.5,42.0" stroke="black" stroke-width="2" fill="none" />
<polyline points="79.5,53.0,87.5,49.0,96.5,52.0,99.0,60.0" stroke="black" stroke-width="2" fill="none" />
<polyline points="93.0,64.5,88.0,60.5,85.5,65.0,77.5,66.5,73.0,64.5,64.5,63.5" stroke="black" stroke-width="2" fill="none" />
<polyline points="62.0,70.0,66.0,66.0,70.5,71.0,84.5,74.5,89.0,82.5,97.0,91.0" stroke="black" stroke-width="2" fill="none" />
<polyline points="93.0,97.5,85.0,98.0,77.5,98.5,69.5,99.5,62.0,100.0,53.5,100.5,45.5,101.5,37.5,102.0,29.5,102.5,21.5,102.5,13.5,103.0,5.5,103.5" stroke="black" stroke-width="2" fill="none" />
<polyline points="4.0,103.0,12.5,96.0,21.0,88.5,29.0,81.5,37.0,74.0" stroke="black" stroke-width="2" fill="none" />
<polyline points="45.5,76.5,37.5,84.5" stroke="black" stroke-width="2" fill="none" />
<polyline points="44.0,84.0,36.5,92.0,28.5,99.0,20.5,106.0,12.0,113.5,3.5,120.5" stroke="black" stroke-width="2" fill="none" />
<polyline points="4.0,124.5,11.5,124.0,19.0,124.0,27.0,124.0,34.5,123.5,42.5,123.5,51.0,123.0,59.5,122.5" stroke="black" stroke-width="2" fill="none" />
<polyline points="70.0,120.0,62.0,118.5,54.0,122.0,46.0,123.5,37.0,125.0,29.0,127.0,21.0,130.0,12.5,133.0,27.5,127.5" stroke="black" stroke-width="2" fill="none" />
<polyline points="26.0,121.5,18.5,129.0" stroke="black" stroke-width="2" fill="none" />
<polyline points="18.0,123.5,10.0,131.0,2.5,138.5" stroke="black" stroke-width="2" fill="none" />
<polyline points="4.0,142.0,12.0,141.5,20.0,141.0,28.0,140.5,36.5,140.0,44.0,140.0,52.5,139.5,60.0,139.0,67.5,139.0,75.5,138.5,83.5,137.5,91.5,137.5,99.0,136.5,107.0,135.5,115.0,135.0,123.0,134.0,131.0,134.0" stroke="black" stroke-width="2" fill="none" />
<polyline points="129.5,130.5,138.5,138.5,148.5,134.5" stroke="black" stroke-width="2" fill="none" />
<polyline points="149.5,133.5,157.0,133.0,165.0,133.0" stroke="black" stroke-width="2" fill="none" />
<polyline points="165.0,125.0,157.0,125.5" stroke="black" stroke-width="2" fill="none" />
<polyline points="161.0,121.0,169.0,124.0,177.5,129.0" stroke="black" stroke-width="2" fill="none" />
<polyline points="183.5,145.0,196.0,153.0,196.5,161.5,187.5,169.5,173.0,177.5,154.0,186.0,138.0,194.5,129.0,202.5,123.0,211.0,112.5,219.5,107.0,227.5,102.5,235.5,97.0,243.5,85.0,251.0" stroke="black" stroke-width="2" fill="none" />
<polyline points="77.0,257.5,85.0,250.0,93.0,242.5,100.5,234.5,108.5,227.5" stroke="black" stroke-width="2" fill="none" />
<polyline points="98.5,244.0,90.5,251.5,83.0,259.0" stroke="black" stroke-width="2" fill="none" />
<polyline points="69.0,254.0,77.0,246.0,84.5,239.0,92.0,231.5,99.5,224.5,107.0,217.5,115.0,210.0,122.0,202.5,130.0,195.0,138.0,188.0,146.0,181.0" stroke="black" stroke-width="2" fill="none" />
<polyline points="138.5,180.0,130.5,187.5,122.5,194.5,114.5,202.5,107.0,210.0,99.0,217.5,91.0,225.0,84.0,232.0,76.5,239.5,68.5,246.5,60.5,254.0" stroke="black" stroke-width="2" fill="none" />
<polyline points="53.0,257.0,61.0,248.5,69.0,240.5,76.5,232.5,84.0,224.0,91.5,216.5,99.0,209.0,107.0,201.5,114.5,194.0,122.0,186.5,130.0,179.0" stroke="black" stroke-width="2" fill="none" />
<polyline points="131.0,170.5,139.0,162.5" stroke="black" stroke-width="2" fill="none" />
<polyline points="129.0,164.0,120.5,171.0,113.0,178.5,105.5,185.5,97.5,192.5,90.5,200.0,83.0,208.0,75.5,216.0,68.0,224.0,60.5,231.5,52.5,238.5,45.0,246.5,37.0,253.5" stroke="black" stroke-width="2" fill="none" />
<polyline points="46.0,255.5,54.0,248.0,61.5,240.5,69.0,233.0,76.5,226.0,84.0,218.5,91.5,210.5,98.5,203.0,106.0,195.5,113.0,188.0,120.5,180.0" stroke="black" stroke-width="2" fill="none" />
<polyline points="124.5,192.0,116.0,192.5" stroke="black" stroke-width="2" fill="none" />
<polyline points="131.5,193.0,140.0,193.0" stroke="black" stroke-width="2" fill="none" />
<polyline points="155.0,185.5,163.0,178.0,170.5,170.5" stroke="black" stroke-width="2" fill="none" />
<polyline points="170.5,178.0,178.5,170.0,187.0,162.5,195.0,155.0" stroke="black" stroke-width="2" fill="none" />
<polyline points="188.5,157.0,180.5,164.0" stroke="black" stroke-width="2" fill="none" />
<polyline points="180.5,165.5,172.5,171.5,164.5,172.5,157.0,173.5,149.0,175.5,141.5,177.5,133.5,179.5,124.5,178.5,116.0,180.0,108.0,181.0,100.0,183.0,92.0,185.0,84.0,185.0,76.0,185.0,66.5,185.5,54.0,186.5,60.0,182.5" stroke="black" stroke-width="2" fill="none" />
<polyline points="73.5,171.0,65.5,178.5,58.0,187.0,50.0,194.5,42.0,202.5,34.0,209.5,26.5,216.5,18.0,224.0,10.5,231.5,3.0,239.0" stroke="black" stroke-width="2" fill="none" />
<polyline points="5.0,237.0,13.0,237.0,20.0,236.0,28.0,235.5,36.0,235.0,44.5,235.0,52.0,234.0,60.0,234.0,68.0,234.0,76.0,233.5,84.0,233.5,92.0,232.5,100.0,231.5,108.0,230.5" stroke="black" stroke-width="2" fill="none" />
<polyline points="110.0,251.5,101.5,259.0" stroke="black" stroke-width="2" fill="none" />
<polyline points="131.0,257.0,139.5,249.5,147.5,242.5,155.5,235.5,163.5,228.0,171.5,221.0" stroke="black" stroke-width="2" fill="none" />
<polyline points="172.0,226.5,180.0,225.5,188.0,224.5,196.0,223.5,204.0,223.0,212.0,223.0,220.0,222.5,228.0,222.0,235.5,221.5,244.0,221.5,252.0,221.0,260.5,221.0" stroke="black" stroke-width="2" fill="none" />
<polyline points="258.5,220.0,251.0,227.5,243.0,235.0,235.0,242.0,227.0,250.0,219.0,258.0" stroke="black" stroke-width="2" fill="none" />
<polyline points="249.5,259.5,258.0,252.0" stroke="black" stroke-width="2" fill="none" />
<polyline points="260.0,244.0,252.0,252.0,244.0,259.5" stroke="black" stroke-width="2" fill="none" />
<polyline points="236.5,257.5,245.0,250.0,253.5,242.5,261.5,235.0" stroke="black" stroke-width="2" fill="none" />
<polyline points="260.5,228.0,252.5,235.5,244.5,242.5,236.5,250.0,228.0,258.0" stroke="black" stroke-width="2" fill="none" />
<polyline points="212.0,256.5,219.5,249.0,227.5,241.5,235.5,234.5,243.5,227.0,251.0,219.5,259.0,212.0" stroke="black" stroke-width="2" fill="none" />
<polyline points="260.0,204.0,252.0,211.5,244.5,219.0,236.5,226.0,228.5,233.0,220.5,240.0,213.0,247.5,205.0,255.0" stroke="black" stroke-width="2" fill="none" />
<polyline points="197.0,255.0,205.0,248.0,212.5,241.0,220.5,234.0,228.0,226.5,236.0,218.5,243.5,211.0,251.5,203.0,259.5,195.5" stroke="black" stroke-width="2" fill="none" />
<polyline points="257.5,187.5,249.5,195.0,242.0,202.5,234.0,210.0,226.5,217.0,219.0,224.0,211.5,231.5,204.5,238.5,196.5,246.0,188.5,253.5" stroke="black" stroke-width="2" fill="none" />
<polyline points="179.0,253.5,186.5,245.5,195.0,238.5,203.5,231.0,212.0,223.5,220.5,216.5,228.5,209.0,236.5,201.5,244.5,194.5,252.0,187.5,260.5,180.5" stroke="black" stroke-width="2" fill="none" />
<polyline points="260.0,172.0,252.0,179.5,244.0,186.5,235.5,194.0,227.5,201.5,219.0,208.5,210.5,216.0,202.5,224.0,194.0,231.5,186.0,239.0,177.5,246.5,169.5,254.0" stroke="black" stroke-width="2" fill="none" />
<polyline points="161.5,254.0,169.5,246.5,177.5,239.0,185.5,231.5,194.0,224.0,202.5,216.0,210.5,208.0,218.5,200.5,226.5,193.0,235.0,185.0,243.5,177.5,251.5,170.5" stroke="black" stroke-width="2" fill="none" />
<polyline points="252.0,165.5,260.0,164.5" stroke="black" stroke-width="2" fill="none" />
<polyline points="255.5,163.5,238.5,171.5,227.5,179.5,216.5,187.5,200.5,195.5,191.5,203.5,173.5,211.5,166.5,220.0,160.0,228.0,151.0,236.0,139.0,244.0,129.0,252.0,113.5,256.5,121.5,255.5,130.0,249.5,138.0,244.0,145.5,237.5,153.5,233.5,161.0,224.5,169.0,215.0,177.0,209.0,185.0,207.0,193.5,200.0,201.5,194.5,209.5,191.5,217.5,185.5,226.0,180.0,234.0,174.0,242.0,169.5,249.5,166.0" stroke="black" stroke-width="2" fill="none" />
<polyline points="252.5,177.5,260.5,177.5" stroke="black" stroke-width="2" fill="none" />
<polyline points="260.0,184.0,252.0,184.5,244.0,185.0,236.0,186.0" stroke="black" stroke-width="2" fill="none" />
<polyline points="233.5,177.0,226.0,184.5,218.0,193.0,210.5,201.0,202.0,209.0,193.5,217.5,185.5,225.0,177.5,233.5,169.0,241.5,161.0,249.0,153.0,256.5" stroke="black" stroke-width="2" fill="none" />
<polyline points="145.5,257.0,154.0,248.5,163.0,240.5,171.5,232.5,179.0,224.5,187.5,216.5,195.5,209.0,203.5,201.5,212.0,193.5" stroke="black" stroke-width="2" fill="none" />
<polyline points="211.5,189.5,219.0,189.0,227.5,187.5,235.5,186.5,243.0,185.5,250.5,184.5,259.0,184.0" stroke="black" stroke-width="2" fill="none" />
<polyline points="258.5,201.0,250.5,201.0,242.0,201.5,234.0,202.5" stroke="black" stroke-width="2" fill="none" />
<polyline points="220.5,193.0,228.5,192.5,236.5,192.5,244.0,192.0,252.0,191.5,259.5,191.0" stroke="black" stroke-width="2" fill="none" />
<polyline points="260.5,170.0,253.0,171.0,245.5,171.5,237.5,172.5" stroke="black" stroke-width="2" fill="none" />
<polyline points="257.5,180.0,249.5,180.5,241.5,180.5,234.0,181.0,226.5,182.0,218.0,182.5" stroke="black" stroke-width="2" fill="none" />
<polyline points="211.5,200.5,219.5,200.0,226.5,200.0" stroke="black" stroke-width="2" fill="none" />
<polyline points="204.0,208.0,212.0,207.5,220.0,207.0,228.5,206.5,237.0,206.5,245.5,205.5,253.0,205.0,261.0,205.0" stroke="black" stroke-width="2" fill="none" />
<polyline points="261.0,193.0,253.5,193.0,246.0,193.0,238.0,193.5,230.0,194.0,221.5,195.5,213.5,196.5,205.5,197.5,197.5,198.5" stroke="black" stroke-width="2" fill="none" />
<polyline points="188.0,210.0,180.0,218.0,171.5,226.0,163.5,234.0,155.5,242.0,147.5,250.0,139.0,258.0" stroke="black" stroke-width="2" fill="none" />
<polyline points="131.5,258.0,139.5,257.0,148.0,256.5,156.0,256.0,164.0,255.5,172.5,254.5,180.0,254.0,187.0,254.0,194.5,254.0,202.0,253.5,210.0,253.0,218.0,252.5,226.5,251.0,234.5,250.0,243.0,250.0,251.5,249.0,259.0,248.5" stroke="black" stroke-width="2" fill="none" />
<polyline points="260.0,213.0,252.0,213.5,244.0,213.5,236.0,213.0,228.0,213.5,220.0,214.0,212.0,215.0,204.5,216.0,197.0,216.5,189.0,217.0" stroke="black" stroke-width="2" fill="none" />
<polyline points="180.5,205.5,188.5,204.5,196.0,204.0,203.5,203.5,211.0,202.5,219.0,201.5,227.0,201.5,235.5,201.5,243.5,201.5,252.0,201.5,260.0,201.0" stroke="black" stroke-width="2" fill="none" />
<polyline points="261.0,229.0,253.5,229.5,245.5,229.5,237.0,230.0,229.0,231.0,221.0,231.0,213.0,231.0,205.0,231.0,197.0,232.0,188.0,233.0,179.5,234.0,171.0,235.0,162.0,236.0" stroke="black" stroke-width="2" fill="none" />
<polyline points="155.5,243.0,163.5,242.5,172.5,241.5,181.0,240.5,189.5,240.0,197.5,239.5,205.5,239.5,213.0,239.0,221.0,239.0,229.0,238.5,236.5,237.5,244.5,237.5,253.0,236.5,261.0,235.5" stroke="black" stroke-width="2" fill="none" />
<polyline points="260.5,241.5,253.5,242.5,245.5,243.0,237.5,243.5,229.5,244.5,221.5,245.0,213.5,245.0,205.0,245.5,196.0,246.0,188.0,246.5,179.5,247.0,172.0,248.0,164.0,248.5,156.0,249.0,148.0,249.5" stroke="black" stroke-width="2" fill="none" />
<polyline points="140.5,237.0,149.0,237.0,157.0,236.5,165.0,236.5,172.5,236.0,180.5,235.5,188.5,234.5,196.5,233.5,204.5,233.0,212.5,232.5,220.5,232.5,228.5,231.5,236.5,231.5,244.5,231.0,252.5,230.5,260.0,230.0" stroke="black" stroke-width="2" fill="none" />
<polyline points="258.0,222.0,250.0,222.5,242.0,223.0,234.0,223.0,226.0,223.5,218.0,224.0,210.0,224.5,202.0,225.0,195.0,225.5,187.5,226.5,180.0,227.5,172.5,228.0,164.5,229.0,156.5,229.5,149.0,230.5,141.0,230.5" stroke="black" stroke-width="2" fill="none" />
<polyline points="141.0,221.5,149.0,221.0,156.5,220.5,164.5,220.5,172.5,219.5,180.0,219.0,188.0,219.0,195.5,219.0,203.5,219.0,211.5,218.5,219.0,218.0,227.5,217.5,236.0,217.0,244.0,216.5,252.5,216.0,260.5,215.0" stroke="black" stroke-width="2" fill="none" />
<polyline points="257.0,237.5,249.0,238.0,241.5,238.0,234.0,238.0,226.5,238.0,218.5,238.0,210.0,238.5,202.5,239.0,195.0,240.0,187.0,241.5,179.5,243.0,171.5,244.0,163.5,245.0,156.0,245.5,147.5,245.5,139.5,246.0,131.0,247.0" stroke="black" stroke-width="2" fill="none" />
<polyline points="116.0,237.0,108.0,238.0,100.5,239.0,93.0,239.5,85.0,240.0,77.0,240.5,69.0,241.0,60.5,241.5,52.0,243.0,44.0,244.0,36.0,244.5,28.0,245.0,20.0,246.0,12.0,246.5,4.0,247.5" stroke="black" stroke-width="2" fill="none" />
<polyline points="4.5,247.0,12.5,239.5,20.5,232.0,28.0,224.5,35.5,217.0,43.0,209.5,51.0,202.0,58.5,194.5,66.5,187.0,74.5,179.5,83.0,172.0" stroke="black" stroke-width="2" fill="none" />
<polyline points="82.0,179.0,73.5,186.0,66.0,194.0,58.5,201.5,51.5,209.0,44.0,216.5,37.0,224.0,29.0,232.0,21.5,239.5,13.5,246.5,5.5,254.0" stroke="black" stroke-width="2" fill="none" />
<polyline points="4.0,255.5,12.0,255.0,20.5,253.5,28.5,252.0,35.5,251.5,43.5,250.0,51.5,250.0,60.0,249.0,68.0,248.0,76.0,248.0,84.0,247.0,92.0,246.5,100.0,246.0,108.5,245.5,117.0,245.5,125.5,244.5,133.0,244.0,141.0,244.0,148.5,243.5,156.0,243.0,164.0,243.0,172.0,242.0,179.5,241.5,187.0,241.5,195.0,241.0,202.5,241.0,211.0,241.0,219.5,240.5,228.0,240.5,236.0,240.0,244.5,239.5,252.0,238.5,260.5,237.5" stroke="black" stroke-width="2" fill="none" />
<polyline points="259.0,198.0,250.5,198.5,242.5,199.0,234.5,199.5,226.5,200.0,219.0,200.0,211.5,200.5,204.0,201.0,196.5,201.5,188.5,202.0,180.5,202.5,172.5,202.5,164.5,203.5,156.5,203.5,148.5,204.0,140.5,204.5,132.5,205.5,124.5,206.5,116.5,207.0,109.0,207.5,101.0,207.5,93.0,208.0,84.5,208.0,76.5,209.0,69.0,209.5,61.5,210.0,53.5,210.0,46.0,210.0,37.5,210.5,29.0,211.5,21.0,212.0,12.0,212.5,4.0,213.5" stroke="black" stroke-width="2" fill="none" />
<polyline points="3.5,215.5,11.5,208.5,19.0,201.0,27.0,193.0,35.5,185.0,43.5,177.0,51.5,169.0,60.0,161.5,68.0,154.0" stroke="black" stroke-width="2" fill="none" />
<polyline points="65.0,148.0,73.0,146.0,73.0,148.0,70.5,155.0,60.5,161.5,57.0,155.5,62.5,160.5,70.5,154.5,70.0,149.0,79.5,150.0,85.0,157.5,89.5,161.5,97.0,167.5" stroke="black" stroke-width="2" fill="none" />
<polyline points="99.5,177.5,91.5,185.5,83.5,193.0,75.5,201.0,67.0,209.0,59.0,217.0,50.5,224.5,42.0,232.0,34.0,240.0,25.5,247.5,18.0,255.0" stroke="black" stroke-width="2" fill="none" />
<polyline points="28.0,256.0,35.5,248.0,43.5,240.0,51.5,232.0,59.5,224.0,67.5,216.5,75.0,208.5,83.0,200.5,91.0,193.0,99.0,185.5" stroke="black" stroke-width="2" fill="none" />
<polyline points="101.0,183.0,109.5,182.0,117.5,181.0,125.5,179.5,133.5,175.5" stroke="black" stroke-width="2" fill="none" />
<polyline points="121.5,165.5,113.5,173.0,105.5,180.5" stroke="black" stroke-width="2" fill="none" />
<polyline points="107.0,172.0,114.5,164.5" stroke="black" stroke-width="2" fill="none" />
<polyline points="113.0,152.0,105.0,149.5" stroke="black" stroke-width="2" fill="none" />
<polyline points="108.5,149.5,100.5,150.5" stroke="black" stroke-width="2" fill="none" />
<polyline points="96.5,139.0,104.0,132.5" stroke="black" stroke-width="2" fill="none" />
<polyline points="91.5,118.0,84.0,118.5" stroke="black" stroke-width="2" fill="none" />
<polyline points="92.5,117.0,100.5,118.0,108.5,122.0" stroke="black" stroke-width="2" fill="none" />
<polyline points="115.5,126.0,107.0,126.5,99.0,126.5,91.0,126.5,83.0,127.0,75.0,128.0,67.0,128.5,59.5,129.0,51.5,129.5,44.0,129.5,35.5,130.0,27.5,131.0,19.0,131.5,10.5,132.5,2.0,132.5" stroke="black" stroke-width="2" fill="none" />
<polyline points="4.5,128.5,13.5,121.5,21.5,114.0,29.5,106.5,37.5,99.5" stroke="black" stroke-width="2" fill="none" />
<polyline points="44.0,91.5,52.0,84.5" stroke="black" stroke-width="2" fill="none" />
<polyline points="64.0,72.5,72.5,75.5" stroke="black" stroke-width="2" fill="none" />
<polyline points="65.0,72.0,73.0,71.0,81.0,71.0,89.0,75.0,96.5,77.0" stroke="black" stroke-width="2" fill="none" />
<polyline points="93.0,82.0,85.0,82.0,77.0,82.5,69.0,83.0,61.0,82.5,53.0,82.5,45.0,82.0,36.5,82.0,29.0,82.5,20.5,83.0,12.0,83.5,4.0,84.0" stroke="black" stroke-width="2" fill="none" />
<polyline points="4.5,89.5,12.5,82.0,20.5,74.5,28.5,66.5,36.5,59.5" stroke="black" stroke-width="2" fill="none" />
<polyline points="44.5,60.5,36.5,68.5,29.0,75.5,21.0,82.5,12.5,89.5,4.0,96.0" stroke="black" stroke-width="2" fill="none" />
<polyline points="4.0,93.5,12.0,93.0,20.0,92.0,28.0,91.5,36.0,91.0,44.5,91.0,52.5,91.0,61.0,90.5,69.0,90.5,77.0,90.5,84.5,90.0,93.0,89.5,101.0,89.0" stroke="black" stroke-width="2" fill="none" />
<polyline points="105.5,76.5,113.5,80.5" stroke="black" stroke-width="2" fill="none" />
<polyline points="107.0,81.5,106.0,76.0,106.0,68.0" stroke="black" stroke-width="2" fill="none" />
<polyline points="92.0,74.0,84.0,74.5,76.0,75.0,67.5,75.5,59.0,75.5,51.0,76.0,42.5,76.5,34.5,76.5,26.0,76.5,18.0,76.0,10.0,76.5,2.0,77.0" stroke="black" stroke-width="2" fill="none" />
<polyline points="2.0,81.5,10.0,74.0,18.0,66.0,26.0,58.5,34.0,51.0" stroke="black" stroke-width="2" fill="none" />
<polyline points="35.0,45.0,27.5,52.5,20.0,60.0,12.0,67.5,4.5,75.0" stroke="black" stroke-width="2" fill="none" />
<polyline points="0.5,71.5,9.0,71.0,17.5,70.0,26.0,69.5,35.0,69.5,43.0,68.5,51.0,68.0,59.0,67.5,67.0,67.0,74.5,67.0" stroke="black" stroke-width="2" fill="none" />
<polyline points="84.0,58.5,76.0,58.5,68.0,59.5,60.0,60.0,52.5,60.5,44.5,61.0,36.5,61.5,28.5,61.5,20.5,61.5,12.5,62.0,4.5,62.5" stroke="black" stroke-width="2" fill="none" />
<polyline points="3.0,66.5,11.0,59.0,19.0,52.0,26.5,45.5,34.5,38.5" stroke="black" stroke-width="2" fill="none" />
<polyline points="37.0,22.0,29.0,22.5,21.0,23.0" stroke="black" stroke-width="2" fill="none" />
<polyline points="26.0,16.0,34.5,15.0" stroke="black" stroke-width="2" fill="none" />
<polyline points="29.0,6.5,37.0,7.0,45.0,9.5" stroke="black" stroke-width="2" fill="none" />
<polyline points="29.0,6.5,20.5,7.0" stroke="black" stroke-width="2" fill="none" />
<polyline points="10.5,19.5,3.0,20.5" stroke="black" stroke-width="2" fill="none" />
<polyline points="3.0,19.5,11.0,23.0,19.0,23.0,27.0,22.0,34.5,17.5" stroke="black" stroke-width="2" fill="none" />
<polyline points="52.0,29.0,59.5,30.5,67.5,29.5,75.0,29.5,76.5,31.0,75.5,39.0,82.5,41.0,87.0,48.0,86.0,57.0,87.0,63.0,95.5,65.0,96.5,77.0" stroke="black" stroke-width="2" fill="none" />
<polyline points="86.5,71.5,85.5,79.5,89.5,82.5,97.5,90.5" stroke="black" stroke-width="2" fill="none" />
<polyline points="88.5,97.5,87.5,105.5,87.5,110.0,81.5,118.0,87.5,105.0,91.5,101.5" stroke="black" stroke-width="2" fill="none" />
<polyline points="100.0,105.5,91.0,106.0,82.5,107.0,75.5,107.5,68.0,107.5,60.0,108.0,51.0,108.0,43.0,108.5,35.0,108.5,27.5,108.5,19.5,109.0,11.0,108.5,3.0,109.0" stroke="black" stroke-width="2" fill="none" />
<polyline points="3.5,113.5,12.0,105.5,20.5,97.5,29.0,89.5" stroke="black" stroke-width="2" fill="none" />
<polyline points="1.0,115.5,9.5,115.5,18.0,115.5,27.0,115.0,35.0,114.5,43.0,114.5,51.5,115.0,59.5,115.0,67.0,115.0,74.5,115.0" stroke="black" stroke-width="2" fill="none" />
<polyline points="66.5,108.0,74.5,115.0,82.0,115.0,90.0,112.0,87.0,120.0,90.0,132.0,72.0,137.0,63.5,146.0,69.5,140.0,75.5,140.0,81.5,136.5,89.5,133.0,97.5,129.0,105.5,128.0,104.5,132.0,94.0,143.5,100.0,152.5,106.0,160.5" stroke="black" stroke-width="2" fill="none" />
<polyline points="94.0,156.5,86.5,145.5,86.5,144.5" stroke="black" stroke-width="2" fill="none" />
<polyline points="80.5,149.5,82.0,157.5,77.0,160.5,82.5,167.0,83.5,175.0,83.5,172.5" stroke="black" stroke-width="2" fill="none" />
<polyline points="80.5,176.5,84.0,170.0,76.0,168.0" stroke="black" stroke-width="2" fill="none" />
<polyline points="76.0,163.5,67.5,171.5,59.0,179.0,50.5,186.0,42.5,193.5,35.0,201.5,26.5,208.5,19.0,216.0,11.0,224.0,3.0,232.0" stroke="black" stroke-width="2" fill="none" />
<polyline points="4.5,233.0,12.5,232.5,20.0,232.5" stroke="black" stroke-width="2" fill="none" />
<polyline points="30.0,227.0,37.5,226.5,45.5,226.0,53.5,225.5,61.0,224.0,69.0,223.5,76.5,223.0,84.0,222.0,92.0,221.5,100.0,221.5,108.0,220.5" stroke="black" stroke-width="2" fill="none" />
<polyline points="100.0,238.5,91.5,239.5,83.0,240.0,75.0,240.0,67.5,240.5,60.0,240.5,52.0,241.0,44.5,241.5" stroke="black" stroke-width="2" fill="none" />
<polyline points="37.5,234.5,45.5,234.0,53.0,233.5,60.5,233.0,68.0,232.5,76.0,232.0,84.0,231.5,92.0,230.5,100.5,229.5,108.5,229.0" stroke="black" stroke-width="2" fill="none" />
<polyline points="92.0,248.5,84.0,248.5,76.0,248.5,68.0,248.5,60.0,248.5,52.0,249.5" stroke="black" stroke-width="2" fill="none" />
<polyline points="67.5,259.0,76.0,259.0,84.0,258.5" stroke="black" stroke-width="2" fill="none" />
<polyline points="113.5,212.0,105.5,212.5,97.5,213.0,90.0,214.0,82.5,214.5,75.0,215.0,67.0,215.0,59.0,216.0,51.0,216.5,43.0,217.5,35.5,218.5,27.5,218.5" stroke="black" stroke-width="2" fill="none" />
<polyline points="26.5,219.5,34.5,231.5,42.5,239.5,50.0,246.5,58.0,250.5,66.5,254.5,74.0,256.5,82.0,251.5,90.0,248.5,98.5,240.5,106.5,230.0,114.5,218.0,122.5,211.0,130.5,201.0,138.0,194.0,146.5,190.5,154.5,186.0,163.0,183.0,171.0,179.0,179.0,177.0,187.5,172.0,195.5,166.0" stroke="black" stroke-width="2" fill="none" />
<polyline points="187.5,162.5,178.5,162.5,170.0,163.0,162.0,163.5,154.0,164.5,146.0,165.5,138.5,166.5,131.0,167.5,123.5,168.0,116.0,168.5,108.0,169.0,100.0,169.5,92.0,170.0,83.5,170.0,75.5,170.5,67.0,171.0,59.0,171.5,51.0,172.5,43.0,173.0,35.0,174.0,26.5,174.5,18.5,174.5,11.0,175.5,3.0,175.5" stroke="black" stroke-width="2" fill="none" />
<polyline points="5.0,178.5,12.5,170.5,20.5,163.5,28.5,156.0,37.0,148.5" stroke="black" stroke-width="2" fill="none" />
<polyline points="44.0,148.0,36.0,155.5,28.0,162.5,20.0,169.5,11.5,176.5,3.5,184.0" stroke="black" stroke-width="2" fill="none" />
<polyline points="3.5,185.0,12.0,184.5,20.0,184.5" stroke="black" stroke-width="2" fill="none" />
<polyline points="16.5,190.0,11.5,193.0,19.5,191.5" stroke="black" stroke-width="2" fill="none" />
<polyline points="19.0,192.0,19.5,200.0,20.5,208.0,23.5,215.5,29.5,226.5,33.0,234.5,40.0,239.0,52.0,247.0,66.0,255.0" stroke="black" stroke-width="2" fill="none" />
<polyline points="43.0,255.0,35.5,256.0,28.0,257.0,20.5,258.0,13.0,259.0,5.0,259.0" stroke="black" stroke-width="2" fill="none" />
<polyline points="12.0,255.5,20.0,248.5,27.5,241.0,35.5,233.5,43.5,226.0,51.5,218.5,58.5,210.5,66.0,202.0,74.0,194.0,82.0,186.0" stroke="black" stroke-width="2" fill="none" />
<polyline points="66.5,163.0,58.5,170.5,51.0,178.0,43.0,185.5,35.5,193.0,28.0,200.5,19.5,209.0,11.5,216.5,3.5,224.5" stroke="black" stroke-width="2" fill="none" />
<polyline points="4.5,226.0,13.0,225.0,21.0,223.5" stroke="black" stroke-width="2" fill="none" />
<polyline points="6.0,229.5,13.5,229.5,21.0,229.0,29.0,228.5,37.0,228.0,45.0,227.5,53.0,227.5,60.5,227.0,68.0,226.5,76.0,226.0,83.5,226.0,91.5,225.5,100.5,224.5,109.0,223.5,117.5,223.0" stroke="black" stroke-width="2" fill="none" />
<polyline points="122.5,204.0,114.0,204.5,106.0,205.5,98.0,206.0,90.5,206.5,83.0,207.0,75.0,206.5,67.5,206.5,59.5,207.0,51.0,207.5,43.0,207.5,35.0,207.5,27.0,208.0" stroke="black" stroke-width="2" fill="none" />
<polyline points="28.5,201.5,36.0,201.0,43.5,200.5,51.5,200.0,59.0,199.5,67.0,198.5,75.5,198.0,84.0,198.0,92.0,197.5,100.0,197.0,108.0,197.0,116.0,196.0,124.0,195.5,132.0,195.0" stroke="black" stroke-width="2" fill="none" />
<polyline points="139.0,194.5,147.0,187.0,154.5,179.5,162.5,172.0" stroke="black" stroke-width="2" fill="none" />
<polyline points="154.5,178.0,147.0,179.0,139.0,180.5,131.5,182.0,123.5,183.0,115.5,184.0,108.0,184.5,99.5,184.5,91.5,185.0,83.0,186.0,75.0,186.5,67.5,187.0,60.0,187.5,52.0,187.5,44.5,187.5,36.5,187.5,28.5,187.5,21.0,187.5,13.5,187.5,5.5,187.5" stroke="black" stroke-width="2" fill="none" />
<polyline points="4.5,192.5,12.5,184.5,20.5,177.5,29.0,169.5,37.5,162.0,45.5,154.5,53.5,147.0,61.5,139.5" stroke="black" stroke-width="2" fill="none" />
<polyline points="60.0,147.0,52.0,154.0,43.5,161.5,35.0,169.5,27.0,177.0,18.5,185.0,11.0,193.0,3.5,200.5" stroke="black" stroke-width="2" fill="none" />
<polyline points="4.5,202.0,12.0,201.5" stroke="black" stroke-width="2" fill="none" />
<polyline points="5.5,200.0,13.5,199.0,21.5,198.5,29.0,197.5,36.5,196.5,43.5,195.5,51.5,194.5,59.0,194.0,67.0,193.0,74.5,192.0,82.5,191.5,90.5,191.5,98.5,191.5,106.5,191.5,115.0,191.5,123.0,191.0,131.5,191.0,139.0,190.5" stroke="black" stroke-width="2" fill="none" />
<polyline points="131.5,197.5,124.0,198.5,116.5,199.0,108.5,200.0,100.5,200.5,93.0,201.5,85.0,201.5,77.5,202.5,69.0,202.0,61.0,202.0,52.5,202.5,44.0,203.0,36.5,202.5,29.0,203.0,21.5,203.0,13.5,203.0,5.5,203.0" stroke="black" stroke-width="2" fill="none" />
<polyline points="1.5,208.0,9.5,200.5,18.0,193.5,26.0,185.5,34.0,177.5,42.0,170.0,50.5,162.0,58.5,154.0,66.5,146.5" stroke="black" stroke-width="2" fill="none" />
<polyline points="71.0,160.0,79.0,161.5,80.0,165.5,88.0,165.5" stroke="black" stroke-width="2" fill="none" />
<polyline points="88.0,158.5,96.5,166.5" stroke="black" stroke-width="2" fill="none" />
<polyline points="85.0,189.5,76.5,190.5,69.0,191.0,61.0,192.0,52.5,192.5,44.5,194.0,36.0,194.5,27.0,195.0,18.5,196.0" stroke="black" stroke-width="2" fill="none" />
<polyline points="13.0,192.5,5.0,193.0" stroke="black" stroke-width="2" fill="none" />
<polyline points="4.5,181.0,12.5,180.5,20.5,180.0,28.0,179.5,35.5,179.5,43.0,179.0,51.0,178.5,59.0,177.5,67.5,176.5,75.5,176.0,84.0,175.5,92.5,175.0,100.5,174.5,108.5,174.5,116.5,174.5,125.0,174.5,133.0,173.5,141.0,172.5,149.5,171.0,157.5,169.5,166.0,169.0,173.5,168.5" stroke="black" stroke-width="2" fill="none" />
<polyline points="181.0,165.5,182.0,168.5" stroke="black" stroke-width="2" fill="none" />
<polyline points="196.0,154.0,188.0,154.5,180.5,155.0,173.0,155.0,165.0,155.0,157.5,155.5,148.5,156.5,140.0,157.5,131.5,158.5,123.0,159.0,115.0,159.0,107.5,159.5,100.0,159.5,92.0,160.0,84.5,160.5,76.0,161.0,67.5,161.0,59.0,161.5,51.0,162.0,43.0,163.0,34.5,163.0,26.5,164.0,18.5,165.0,10.5,165.0,3.0,165.5" stroke="black" stroke-width="2" fill="none" />
<polyline points="2.5,169.0,10.5,162.0,18.0,155.5,26.0,148.0" stroke="black" stroke-width="2" fill="none" />
<polyline points="19.5,146.5,11.5,153.5,3.0,162.0" stroke="black" stroke-width="2" fill="none" />
<polyline points="3.5,158.0,11.5,157.5,20.5,157.5,29.0,157.0,37.0,157.0,45.5,156.0,53.0,156.0,61.0,155.0,69.0,154.5,77.5,154.0,85.5,153.5,93.5,153.0,101.0,152.5,108.5,152.0,116.0,151.5,124.0,151.0,132.0,150.5,140.0,149.5,148.5,148.5,156.5,148.0,164.5,147.5,172.5,147.5,180.0,147.0,187.5,146.5,195.0,146.0" stroke="black" stroke-width="2" fill="none" />
<polyline points="194.5,136.5,186.5,137.5,179.0,138.0,172.0,138.5,164.0,139.5,156.0,140.5,148.0,140.5,140.0,141.0,132.5,142.0,125.0,142.5,117.0,143.0,109.5,144.5,101.5,145.0,93.5,145.5,86.0,146.0,78.0,146.5,69.5,147.0,61.5,147.5,53.5,148.5,45.0,149.5,37.0,149.5,29.0,150.0,20.5,150.0,12.5,150.0,5.0,150.5" stroke="black" stroke-width="2" fill="none" />
<polyline points="3.5,156.5,11.5,154.0" stroke="black" stroke-width="2" fill="none" />
<polyline points="9.5,146.0,17.5,144.0,25.5,144.0,33.5,141.0,41.5,138.0,49.5,135.0,57.5,132.0,66.0,129.0,73.0,129.0,81.5,127.0" stroke="black" stroke-width="2" fill="none" />
<polyline points="88.0,129.5,80.0,130.5,77.0,135.5,68.5,137.0,66.5,133.5,61.0,136.5,58.5,142.5,54.0,139.5,46.5,142.5,40.5,147.0,36.0,145.0,28.0,148.0,23.0,151.5,13.0,148.5,17.0,148.5,31.0,141.0,50.0,137.5" stroke="black" stroke-width="2" fill="none" />
<polyline points="53.5,156.5,61.5,153.0,55.5,161.0,49.5,169.0,47.5,174.5,49.5,182.5,46.5,185.5,54.5,182.0,63.0,181.5,71.0,181.5,79.0,182.0,87.0,179.5" stroke="black" stroke-width="2" fill="none" />
<polyline points="115.5,214.0,108.0,215.0,100.0,215.5,92.0,216.0,84.0,216.5,76.0,217.5,67.5,218.0,59.5,218.5,51.5,219.5,44.0,219.5,35.5,220.0,27.5,220.5,20.0,221.0,12.5,221.5,4.0,222.0" stroke="black" stroke-width="2" fill="none" />
<polyline points="4.5,217.0,12.0,217.0" stroke="black" stroke-width="2" fill="none" />
<polyline points="4.5,242.5,12.5,242.0,20.0,241.5,27.5,240.5" stroke="black" stroke-width="2" fill="none" />
<polyline points="30.5,243.0,38.5,248.5,46.0,250.5" stroke="black" stroke-width="2" fill="none" />
<polyline points="35.0,247.5,26.5,248.5,18.0,249.5,10.0,250.5,2.0,251.0" stroke="black" stroke-width="2" fill="none" />
<polyline points="29.5,244.5,43.5,252.5,50.0,254.0,58.0,256.0" stroke="black" stroke-width="2" fill="none" />
<polyline points="38.0,186.0,46.0,183.0" stroke="black" stroke-width="2" fill="none" />
<polyline points="44.5,178.5,36.5,177.0" stroke="black" stroke-width="2" fill="none" />
<polyline points="19.5,178.0,12.0,179.0,4.0,179.5" stroke="black" stroke-width="2" fill="none" />
<polyline points="3.0,170.5,11.0,170.0,18.5,169.5" stroke="black" stroke-width="2" fill="none" />
<polyline points="73.0,115.5,65.0,108.0" stroke="black" stroke-width="2" fill="none" />
<polyline points="105.0,104.0,109.0,112.0" stroke="black" stroke-width="2" fill="none" />
<polyline points="110.0,109.0,118.0,116.0,131.0,118.0,137.0,126.5,142.5,134.0,144.5,142.0" stroke="black" stroke-width="2" fill="none" />
<polyline points="138.5,140.5,146.5,140.5,154.5,140.5,162.5,140.5" stroke="black" stroke-width="2" fill="none" />
<polyline points="164.5,142.5,172.5,143.5,181.0,145.0,189.5,147.5,198.0,153.5" stroke="black" stroke-width="2" fill="none" />
<polyline points="160.0,120.0,168.0,109.0,176.0,105.5,184.0,102.5,192.0,102.5,200.5,101.5,208.5,99.5,216.0,97.5,224.0,96.5,232.0,93.5,240.0,89.5,247.5,87.5,255.5,86.5" stroke="black" stroke-width="2" fill="none" />
<polyline points="257.5,77.0,249.5,77.5" stroke="black" stroke-width="2" fill="none" />
<polyline points="246.0,83.5,238.0,83.0" stroke="black" stroke-width="2" fill="none" />
<polyline points="256.0,55.5,248.0,51.0,240.0,52.5,232.0,49.5,224.5,47.0,216.5,44.0,208.5,41.0" stroke="black" stroke-width="2" fill="none" />
<polyline points="207.5,40.0,227.5,48.0" stroke="black" stroke-width="2" fill="none" />
<polyline points="193.5,92.0,185.5,92.0,177.5,90.5,169.5,87.5" stroke="black" stroke-width="2" fill="none" />
<polyline points="170.5,106.5,161.5,114.0,160.5,122.0,177.0,130.0,163.5,139.0,166.0,138.0,174.0,134.0" stroke="black" stroke-width="2" fill="none" />
<polyline points="136.5,135.0,128.5,129.0" stroke="black" stroke-width="2" fill="none" />
<polyline points="136.0,124.0,128.5,114.0" stroke="black" stroke-width="2" fill="none" />
<polyline points="143.0,106.0,135.0,104.0,127.0,95.0" stroke="black" stroke-width="2" fill="none" />
<polyline points="126.5,95.0,131.5,103.0" stroke="black" stroke-width="2" fill="none" />
<polyline points="144.5,141.5,138.5,147.0,131.0,149.0,123.0,143.0" stroke="black" stroke-width="2" fill="none" />
<polyline points="139.0,219.5,139.0,227.5,137.5,224.5" stroke="black" stroke-width="2" fill="none" />
<polyline points="255.5,128.0,254.5,136.0,256.5,128.0" stroke="black" stroke-width="2" fill="none" />
<polyline points="65.5,39.0,57.5,38.5" stroke="black" stroke-width="2" fill="none" />
<polyline points="54.0,36.0,62.0,37.0,68.0,39.5,70.5,35.5,76.0,46.0,76.0,44.0" stroke="black" stroke-width="2" fill="none" />
<polyline points="67.0,16.0,59.0,17.0,51.0,19.0,47.5,15.0,39.5,17.5,31.5,20.5,24.0,21.5,25.0,16.0,16.5,17.0,8.5,18.0" stroke="black" stroke-width="2" fill="none" />
<polyline points="3.5,15.0,11.5,14.0,19.0,13.5,21.0,20.0,23.5,24.0,31.5,23.5,39.5,24.0,47.5,24.0,55.0,22.0,58.0,21.0,66.0,20.0,74.0,20.0" stroke="black" stroke-width="2" fill="none" />
<polyline points="77.0,34.0,72.0,26.0,63.5,26.5,53.5,26.5,45.0,26.5,36.5,28.5,30.0,29.5,22.5,30.5,15.0,31.5,6.5,26.5,2.5,33.5" stroke="black" stroke-width="2" fill="none" />
<polyline points="2.0,11.0,10.5,11.0,18.5,7.0,26.5,3.0,34.5,4.5,42.5,4.5,50.5,6.5,59.0,10.0,66.5,11.0,74.5,12.0" stroke="black" stroke-width="2" fill="none" />
<polyline points="20.5,12.0,10.5,8.0,3.0,9.0" stroke="black" stroke-width="2" fill="none" />
</svg>