<svg xmlns="http://www.w3.org/2000/svg" version="1.1"><polyline points="147.5,2.5,153.5,10.5,158.5,18.0,157.5,26.0,153.5,34.0,151.5,42.0,146.5,50.0,152.5,60.0,155.5,68.0,145.5,73.0,153.0,69.0" stroke="black" stroke-width="2" fill="none" />
<polyline points="156.5,69.0,164.5,68.5,172.5,67.5,180.5,67.5" stroke="black" stroke-width="2" fill="none" />
<polyline points="178.5,66.5,171.0,74.0,164.0,82.0" stroke="black" stroke-width="2" fill="none" />
<polyline points="163.0,82.0,157.5,89.5,153.5,97.5,154.5,105.5,156.0,113.5,163.0,125.0,165.5,133.0,168.5,140.5,171.5,148.5,171.5,156.0,172.5,164.0,172.0,172.0,170.5,180.0,177.5,177.5,186.0,175.0,193.5,174.0,201.5,173.5" stroke="black" stroke-width="2" fill="none" />
<polyline points="203.5,181.0,195.5,182.0,187.5,183.0,179.5,183.0" stroke="black" stroke-width="2" fill="none" />
<polyline points="182.0,182.5,190.0,181.5,197.5,182.5,205.5,181.5" stroke="black" stroke-width="2" fill="none" />
<polyline points="213.0,196.5,221.0,193.5,229.0,188.0,233.0,186.0,223.0,194.0,217.5,200.5,218.5,208.5,221.5,216.5,225.5,224.5" stroke="black" stroke-width="2" fill="none" />
<polyline points="224.5,226.0,232.0,231.0,239.5,230.0,247.5,228.0" stroke="black" stroke-width="2" fill="none" />
<polyline points="245.5,211.0,253.0,210.5" stroke="black" stroke-width="2" fill="none" />
<polyline points="245.0,205.0,237.5,205.5" stroke="black" stroke-width="2" fill="none" />
<polyline points="235.5,206.0,243.5,210.0" stroke="black" stroke-width="2" fill="none" />
<polyline points="245.0,207.5,237.0,203.5" stroke="black" stroke-width="2" fill="none" />
<polyline points="232.5,195.0,232.5,203.0,236.5,211.0,247.5,218.5,242.0,226.0" stroke="black" stroke-width="2" fill="none" />
<polyline points="233.5,236.0,226.0,237.0" stroke="black" stroke-width="2" fill="none" />
<polyline points="229.0,233.5,221.0,229.5" stroke="black" stroke-width="2" fill="none" />
<polyline points="218.0,228.5,226.0,228.0,234.5,228.0" stroke="black" stroke-width="2" fill="none" />
<polyline points="241.0,226.0,233.0,227.0,225.5,221.0" stroke="black" stroke-width="2" fill="none" />
<polyline points="226.5,219.5,218.0,219.5" stroke="black" stroke-width="2" fill="none" />
<polyline points="217.5,220.5,219.0,222.5,221.0,230.5,233.5,238.5,235.5,246.0,230.5,253.5" stroke="black" stroke-width="2" fill="none" />
<polyline points="219.0,251.5,211.0,251.5" stroke="black" stroke-width="2" fill="none" />
<polyline points="205.0,244.5,197.0,245.0" stroke="black" stroke-width="2" fill="none" />
<polyline points="194.5,238.0,202.0,248.0,210.0,251.0,218.0,253.0,226.0,251.5" stroke="black" stroke-width="2" fill="none" />
<polyline points="227.5,230.5,222.5,222.5,219.5,212.5" stroke="black" stroke-width="2" fill="none" />
<polyline points="219.0,211.5,211.0,212.0" stroke="black" stroke-width="2" fill="none" />
<polyline points="218.5,200.5,226.5,198.5,236.0,188.0,237.0,196.0,237.0,204.0,246.5,212.0,250.5,220.0,248.0,228.0" stroke="black" stroke-width="2" fill="none" />
<polyline points="225.5,235.5,217.5,230.5" stroke="black" stroke-width="2" fill="none" />
<polyline points="195.0,229.0,187.0,230.0" stroke="black" stroke-width="2" fill="none" />
<polyline points="187.0,224.0,195.0,223.0" stroke="black" stroke-width="2" fill="none" />
<polyline points="190.0,220.5,192.0,228.5,193.5,236.5,197.5,244.5" stroke="black" stroke-width="2" fill="none" />
<polyline points="191.5,238.5,199.5,250.5,207.5,253.0,215.5,255.0,223.5,255.5,231.5,251.0" stroke="black" stroke-width="2" fill="none" />
<polyline points="225.5,196.5,218.0,197.0" stroke="black" stroke-width="2" fill="none" />
<polyline points="215.0,195.5,214.5,203.5,212.5,212.0,215.0,220.0,215.5,227.5,224.5,235.5,231.5,243.0,227.5,251.5" stroke="black" stroke-width="2" fill="none" />
<polyline points="194.5,213.5,186.5,214.0" stroke="black" stroke-width="2" fill="none" />
<polyline points="186.0,213.5,194.0,211.0,202.5,211.0" stroke="black" stroke-width="2" fill="none" />
<polyline points="185.5,204.5,177.0,205.0" stroke="black" stroke-width="2" fill="none" />
<polyline points="179.0,198.0,187.0,197.5" stroke="black" stroke-width="2" fill="none" />
<polyline points="184.5,199.5,192.5,200.0,200.5,199.5" stroke="black" stroke-width="2" fill="none" />
<polyline points="199.5,196.0,191.5,197.0,183.5,198.0" stroke="black" stroke-width="2" fill="none" />
<polyline points="180.0,191.0,182.5,194.0,185.0,203.0,187.0,215.5,188.0,223.5,190.5,231.0,192.5,239.5,197.0,247.5,213.0,256.0" stroke="black" stroke-width="2" fill="none" />
<polyline points="180.5,244.5,172.0,245.0,163.5,245.5" stroke="black" stroke-width="2" fill="none" />
<polyline points="168.5,242.5,160.0,241.5,152.0,240.5,144.0,242.5" stroke="black" stroke-width="2" fill="none" />
<polyline points="142.5,240.0,151.0,238.0,159.0,238.0,167.0,240.0,175.0,241.5" stroke="black" stroke-width="2" fill="none" />
<polyline points="178.5,244.0,170.5,248.0,162.5,252.5,154.5,253.5,146.5,254.5,139.0,252.0,131.0,251.5,122.5,255.5,114.5,255.5,106.5,255.0,98.5,255.0,90.5,256.0" stroke="black" stroke-width="2" fill="none" />
<polyline points="91.5,255.0,99.0,254.5,107.0,254.0,114.5,253.0,122.5,252.0,130.5,251.0" stroke="black" stroke-width="2" fill="none" />
<polyline points="123.0,246.0,115.5,246.5" stroke="black" stroke-width="2" fill="none" />
<polyline points="112.0,251.0,120.5,252.0" stroke="black" stroke-width="2" fill="none" />
<polyline points="123.0,249.5,115.0,249.0,107.0,249.0" stroke="black" stroke-width="2" fill="none" />
<polyline points="69.5,253.0,61.5,253.5" stroke="black" stroke-width="2" fill="none" />
<polyline points="51.0,237.0,43.5,237.5" stroke="black" stroke-width="2" fill="none" />
<polyline points="42.5,228.5,35.0,229.0" stroke="black" stroke-width="2" fill="none" />
<polyline points="36.5,223.0,29.0,223.5" stroke="black" stroke-width="2" fill="none" />
<polyline points="25.0,220.0,31.0,228.0,37.0,236.0,44.0,244.0,53.0,251.5" stroke="black" stroke-width="2" fill="none" />
<polyline points="29.5,213.5,21.5,214.5" stroke="black" stroke-width="2" fill="none" />
<polyline points="19.5,217.5,27.5,221.0,35.5,233.0,44.0,242.0,52.0,250.5,60.5,254.5,68.5,256.5" stroke="black" stroke-width="2" fill="none" />
<polyline points="53.5,247.5,47.0,239.5,39.0,231.5,34.0,224.0,28.0,215.5,24.0,211.5,18.0,214.5,9.5,212.5,1.5,209.5" stroke="black" stroke-width="2" fill="none" />
<polyline points="2.0,204.0,10.0,208.0,18.5,208.5,26.5,211.5,34.5,222.0,42.5,234.5,51.0,242.5,59.0,249.5,67.5,252.5,75.5,255.0,83.5,255.0,91.5,255.0,99.0,252.5,107.0,249.5,114.5,245.0,122.5,246.0,130.5,247.5,138.5,247.5,147.0,249.0,155.0,249.0,163.5,247.0,171.5,244.0,168.0,244.5" stroke="black" stroke-width="2" fill="none" />
<polyline points="176.0,245.0,184.0,237.0,184.5,229.0,183.5,221.0" stroke="black" stroke-width="2" fill="none" />
<polyline points="182.5,212.0,190.5,210.0,198.5,209.0" stroke="black" stroke-width="2" fill="none" />
<polyline points="198.5,185.0,190.5,184.0,183.0,185.0" stroke="black" stroke-width="2" fill="none" />
<polyline points="176.0,181.5,183.5,179.5,191.5,178.5,199.5,177.0" stroke="black" stroke-width="2" fill="none" />
<polyline points="180.0,174.0,172.5,174.5" stroke="black" stroke-width="2" fill="none" />
<polyline points="172.0,167.5,180.5,166.5" stroke="black" stroke-width="2" fill="none" />
<polyline points="177.0,162.0,185.5,158.5,193.5,157.5,201.0,157.0,209.0,157.0" stroke="black" stroke-width="2" fill="none" />
<polyline points="216.5,146.0,208.5,142.0,201.0,138.5,193.0,134.5,185.5,135.0,177.5,135.0" stroke="black" stroke-width="2" fill="none" />
<polyline points="180.5,134.0,172.0,135.0" stroke="black" stroke-width="2" fill="none" />
<polyline points="174.0,131.5,182.0,130.0,190.0,131.0,198.5,134.0,207.0,139.0,215.0,142.0" stroke="black" stroke-width="2" fill="none" />
<polyline points="207.5,160.0,199.5,161.0,191.5,160.5,183.0,161.5,174.5,166.5" stroke="black" stroke-width="2" fill="none" />
<polyline points="172.5,158.0,180.0,157.5" stroke="black" stroke-width="2" fill="none" />
<polyline points="175.0,145.0,182.5,144.5,190.5,147.0" stroke="black" stroke-width="2" fill="none" />
<polyline points="179.0,141.5,171.0,142.5" stroke="black" stroke-width="2" fill="none" />
<polyline points="174.0,139.0,172.5,130.5,166.5,123.0,165.5,110.5,162.0,102.5,163.0,91.5,165.0,83.5,171.5,73.5,168.5,65.5,172.5,66.5" stroke="black" stroke-width="2" fill="none" />
<polyline points="164.0,68.0,156.0,75.0" stroke="black" stroke-width="2" fill="none" />
<polyline points="156.5,76.0,164.5,76.0,172.5,75.5,180.5,76.0,189.0,76.5,197.5,76.0,205.5,75.5" stroke="black" stroke-width="2" fill="none" />
<polyline points="203.0,76.0,195.0,83.5" stroke="black" stroke-width="2" fill="none" />
<polyline points="197.0,81.0,205.0,90.0" stroke="black" stroke-width="2" fill="none" />
<polyline points="201.5,101.0,209.5,102.0,218.0,105.5,226.0,107.0,234.5,108.5,242.5,107.5" stroke="black" stroke-width="2" fill="none" />
<polyline points="235.5,101.0,243.5,100.5,251.5,100.0" stroke="black" stroke-width="2" fill="none" />
<polyline points="253.0,97.0,242.5,97.0,234.5,102.0,226.5,103.0,218.5,101.5,210.5,98.0,202.5,98.0,205.5,91.0,198.5,83.0,191.5,83.0,183.5,85.0,175.5,82.5" stroke="black" stroke-width="2" fill="none" />
<polyline points="176.5,81.5,184.5,83.5,193.0,83.5" stroke="black" stroke-width="2" fill="none" />
<polyline points="190.0,84.5,197.5,77.0" stroke="black" stroke-width="2" fill="none" />
<polyline points="194.0,69.0,202.5,69.0" stroke="black" stroke-width="2" fill="none" />
<polyline points="207.0,63.5,215.0,64.0,223.5,62.5,231.5,62.5" stroke="black" stroke-width="2" fill="none" />
<polyline points="233.5,53.0,225.0,53.5" stroke="black" stroke-width="2" fill="none" />
<polyline points="222.5,59.5,214.5,61.5,206.0,61.5" stroke="black" stroke-width="2" fill="none" />
<polyline points="197.5,51.5,205.0,43.5" stroke="black" stroke-width="2" fill="none" />
<polyline points="202.5,44.0,195.0,44.0,187.0,44.0" stroke="black" stroke-width="2" fill="none" />
<polyline points="189.5,46.5,197.5,44.5" stroke="black" stroke-width="2" fill="none" />
<polyline points="195.5,51.5,187.0,52.0" stroke="black" stroke-width="2" fill="none" />
<polyline points="188.0,54.5,189.0,62.5,188.0,74.0,191.5,86.0" stroke="black" stroke-width="2" fill="none" />
<polyline points="203.0,82.5,204.0,76.5,207.0,73.0,199.0,67.0,191.0,65.5,182.5,73.5,177.5,71.0,181.5,67.0,183.5,57.0,186.5,49.0,197.0,46.5,199.0,41.5,190.5,42.5,182.5,53.5" stroke="black" stroke-width="2" fill="none" />
<polyline points="164.5,61.0,156.5,68.0" stroke="black" stroke-width="2" fill="none" />
<polyline points="155.0,73.0,146.0,81.0,153.0,75.0" stroke="black" stroke-width="2" fill="none" />
<polyline points="153.5,76.5,145.0,84.5,148.0,92.5,144.0,97.5,137.0,102.5,148.0,92.0,152.5,86.0,157.5,76.5,162.5,80.5" stroke="black" stroke-width="2" fill="none" />
<polyline points="162.0,81.0,158.0,89.0,156.0,97.5,160.5,105.5,162.5,114.0,169.0,114.5,177.0,115.5,185.0,118.0,193.0,120.0,201.0,122.5" stroke="black" stroke-width="2" fill="none" />
<polyline points="202.0,125.5,194.0,122.0,186.0,119.5,178.0,118.0,170.0,117.0,165.0,102.5,157.5,94.5" stroke="black" stroke-width="2" fill="none" />
<polyline points="162.0,99.5,154.0,99.5,146.0,100.0" stroke="black" stroke-width="2" fill="none" />
<polyline points="153.0,100.5,161.5,86.5,154.5,86.5,145.5,91.5,142.0,99.0,144.0,100.5,152.5,94.5,160.5,81.0,169.5,80.0,177.0,75.5,185.0,77.5,195.0,78.5,203.0,76.0,198.0,79.0,206.0,87.0" stroke="black" stroke-width="2" fill="none" />
<polyline points="210.0,103.0,220.0,104.0" stroke="black" stroke-width="2" fill="none" />
<polyline points="200.0,111.5,191.0,103.5,178.5,95.0,178.0,85.5,175.5,77.5,163.5,71.5,164.0,63.5,169.0,57.0,166.0,55.0,161.0,47.0,165.0,37.5,165.5,29.5,167.5,21.5,165.5,14.0,156.0,6.0,155.0,4.0,147.0,3.0" stroke="black" stroke-width="2" fill="none" />
<polyline points="151.0,2.5,157.0,10.0,162.0,18.5,161.0,27.0,156.5,35.0,157.5,43.0,158.5,51.0,159.5,59.0,157.5,67.0,144.5,78.0,136.5,82.0,140.5,87.0,131.5,94.5,128.5,97.5,136.5,89.0,146.0,75.5,153.5,71.0,166.5,72.0,171.5,85.0,179.5,93.5,187.5,98.5,195.5,106.5,203.0,109.5" stroke="black" stroke-width="2" fill="none" />
<polyline points="194.5,131.5,209.5,139.5" stroke="black" stroke-width="2" fill="none" />
<polyline points="195.0,144.5,187.0,142.5,178.5,139.0,167.5,132.0,167.5,123.5,159.0,119.5" stroke="black" stroke-width="2" fill="none" />
<polyline points="165.0,125.5,173.0,125.0" stroke="black" stroke-width="2" fill="none" />
<polyline points="176.0,143.0,176.0,151.0,176.0,159.0,176.5,166.0,175.5,174.0,182.0,182.0,180.5,190.5,180.0,198.5,180.5,206.5,184.0,215.0,184.0,222.5,183.0,231.0,181.0,239.5" stroke="black" stroke-width="2" fill="none" />
<polyline points="225.5,188.5,233.5,188.0" stroke="black" stroke-width="2" fill="none" />
<polyline points="226.0,183.5,225.5,184.5,232.0,176.5" stroke="black" stroke-width="2" fill="none" />
<polyline points="229.0,175.5,220.0,183.5,225.0,179.5" stroke="black" stroke-width="2" fill="none" />
<polyline points="243.0,165.5,245.0,157.5,249.5,150.0,253.5,142.0,256.5,137.0,248.5,151.5" stroke="black" stroke-width="2" fill="none" />
<polyline points="242.5,160.5,243.5,150.0,252.0,135.0,256.5,129.0,251.5,137.0,247.0,144.5,243.5,152.5,240.5,160.5,238.5,168.0" stroke="black" stroke-width="2" fill="none" />
<polyline points="250.0,132.5,258.5,131.5" stroke="black" stroke-width="2" fill="none" />
<polyline points="244.0,102.5,248.5,102.5,253.5,101.0,240.5,102.0,241.5,97.0,244.5,95.5" stroke="black" stroke-width="2" fill="none" />
<polyline points="252.5,60.5,260.0,60.5" stroke="black" stroke-width="2" fill="none" />
<polyline points="260.0,52.0,252.5,52.5" stroke="black" stroke-width="2" fill="none" />
<polyline points="253.0,44.5,245.0,45.0" stroke="black" stroke-width="2" fill="none" />
<polyline points="245.0,38.0,253.5,37.5" stroke="black" stroke-width="2" fill="none" />
<polyline points="241.5,37.5,253.5,54.5" stroke="black" stroke-width="2" fill="none" />
<polyline points="243.0,21.0,235.0,22.0,227.0,23.0" stroke="black" stroke-width="2" fill="none" />
<polyline points="225.5,27.5,233.5,30.5,241.5,46.5" stroke="black" stroke-width="2" fill="none" />
<polyline points="233.5,39.0,225.5,30.0" stroke="black" stroke-width="2" fill="none" />
<polyline points="228.5,15.5,236.5,14.5" stroke="black" stroke-width="2" fill="none" />
<polyline points="235.5,4.5,228.0,5.0" stroke="black" stroke-width="2" fill="none" />
<polyline points="226.0,3.0,229.0,11.0,229.5,19.0,233.0,19.5,226.0,30.5,233.0,38.5,238.0,47.0,239.5,55.0,239.5,63.0,238.5,71.0,237.0,78.5,231.5,81.5" stroke="black" stroke-width="2" fill="none" />
<polyline points="252.0,87.0,252.0,79.0,253.0,71.0,250.0,62.5,249.0,54.5,246.5,46.5,241.5,38.0,239.5,30.0,236.0,22.0,227.0,12.0,223.0,11.0,215.0,15.0" stroke="black" stroke-width="2" fill="none" />
<polyline points="220.0,11.0,223.0,19.0,226.0,29.5,234.0,37.5,239.0,45.5,241.0,53.0,241.0,61.0,239.5,69.0,239.5,77.0,230.5,84.0,238.5,78.0" stroke="black" stroke-width="2" fill="none" />
<polyline points="223.0,49.0,215.0,46.0,207.0,45.5" stroke="black" stroke-width="2" fill="none" />
<polyline points="217.0,44.0,230.0,52.0,233.5,60.0" stroke="black" stroke-width="2" fill="none" />
<polyline points="234.0,55.5,226.0,47.5,218.0,44.5,210.0,42.0,198.0,52.0,189.5,53.0,184.0,57.0,174.0,62.0,165.0,59.0,153.0,62.0,154.0,59.5,152.0,51.5,154.0,43.0,141.5,52.5,133.5,54.5,125.5,55.5,118.0,58.5,110.0,60.5,102.0,63.5,94.0,65.5,85.5,69.5,77.5,75.0,69.5,81.0,62.0,89.0,54.0,101.0,46.0,110.0,37.5,123.0,29.0,139.5" stroke="black" stroke-width="2" fill="none" />
<polyline points="35.5,130.5,43.5,130.5" stroke="black" stroke-width="2" fill="none" />
<polyline points="42.5,124.0,34.5,124.5" stroke="black" stroke-width="2" fill="none" />
<polyline points="42.0,119.0,50.0,118.5" stroke="black" stroke-width="2" fill="none" />
<polyline points="60.0,92.5,68.0,92.5" stroke="black" stroke-width="2" fill="none" />
<polyline points="67.5,88.0,75.5,87.0" stroke="black" stroke-width="2" fill="none" />
<polyline points="75.0,80.0,83.5,79.0" stroke="black" stroke-width="2" fill="none" />
<polyline points="105.5,63.0,114.0,62.0,122.5,62.0" stroke="black" stroke-width="2" fill="none" />
<polyline points="126.0,65.5,113.0,73.5,100.5,81.0,90.0,88.5,79.0,96.5,67.5,105.0,60.0,112.5,57.0,120.5,53.5,128.0,50.5,136.0,46.5,144.0,43.5,152.0,42.5,160.0,41.5,168.5,41.5,176.5" stroke="black" stroke-width="2" fill="none" />
<polyline points="26.0,171.0,18.5,178.5" stroke="black" stroke-width="2" fill="none" />
<polyline points="12.5,174.0,20.5,173.0,29.0,173.0" stroke="black" stroke-width="2" fill="none" />
<polyline points="40.0,174.0,40.0,166.5,39.5,159.0,41.0,151.0,44.0,143.0,49.0,135.0,52.0,126.5,54.5,118.5,58.5,110.5,66.0,102.0,77.0,94.5,87.5,87.0,97.5,79.0,109.5,71.0,124.0,66.0,115.5,71.0,107.5,75.5,99.5,80.5,91.5,88.0,84.0,94.0,76.0,98.5,67.5,104.5,59.5,114.0,52.0,134.0,44.0,150.5" stroke="black" stroke-width="2" fill="none" />
<polyline points="41.0,155.0,49.0,137.0,56.5,117.0,64.5,105.0,72.5,98.5,80.5,92.0,88.0,86.0,95.5,80.0,103.5,74.0,111.5,69.5,119.5,65.5,129.5,62.5,126.0,70.5,122.0,78.5,120.5,87.0,118.5,95.0,116.5,103.0,116.5,111.0,119.5,111.5,120.0,115.5" stroke="black" stroke-width="2" fill="none" />
<polyline points="121.5,109.0,114.0,109.5" stroke="black" stroke-width="2" fill="none" />
<polyline points="128.5,116.0,128.0,119.0,127.5,127.0,131.5,134.5,132.0,143.0,135.5,146.0" stroke="black" stroke-width="2" fill="none" />
<polyline points="131.5,141.0,139.5,141.0" stroke="black" stroke-width="2" fill="none" />
<polyline points="136.5,140.5,135.0,133.0,132.0,125.0,132.5,117.0" stroke="black" stroke-width="2" fill="none" />
<polyline points="143.5,109.5,144.0,104.5,146.0,102.5,146.5,106.5,150.5,110.0" stroke="black" stroke-width="2" fill="none" />
<polyline points="147.5,92.0,155.5,91.5" stroke="black" stroke-width="2" fill="none" />
<polyline points="153.5,82.5,161.5,75.0" stroke="black" stroke-width="2" fill="none" />
<polyline points="157.5,77.0,150.5,85.0,138.0,91.0,132.5,97.5,140.5,90.0,148.5,83.0" stroke="black" stroke-width="2" fill="none" />
<polyline points="155.5,84.5,147.0,85.0,138.5,85.5" stroke="black" stroke-width="2" fill="none" />
<polyline points="137.5,80.5,130.0,84.0" stroke="black" stroke-width="2" fill="none" />
<polyline points="129.5,82.5,137.5,78.0" stroke="black" stroke-width="2" fill="none" />
<polyline points="137.5,76.5,145.5,76.0" stroke="black" stroke-width="2" fill="none" />
<polyline points="132.5,77.5,125.0,78.0" stroke="black" stroke-width="2" fill="none" />
<polyline points="119.5,82.5,127.0,67.5,130.5,67.5,126.5,76.0,124.5,84.0,121.0,91.5,120.0,99.5,119.0,107.5" stroke="black" stroke-width="2" fill="none" />
<polyline points="142.0,71.5,140.0,64.0" stroke="black" stroke-width="2" fill="none" />
<polyline points="138.0,62.0,137.0,70.0,134.0,78.0,126.0,76.0,134.0,64.0,136.0,61.0" stroke="black" stroke-width="2" fill="none" />
<polyline points="148.0,54.5,156.0,54.0" stroke="black" stroke-width="2" fill="none" />
<polyline points="150.5,48.0,158.0,47.5,166.0,47.0,174.0,46.5" stroke="black" stroke-width="2" fill="none" />
<polyline points="169.0,55.5,165.0,41.0,157.0,40.5" stroke="black" stroke-width="2" fill="none" />
<polyline points="156.5,44.5,155.5,52.5" stroke="black" stroke-width="2" fill="none" />
<polyline points="157.5,62.5,165.0,62.5" stroke="black" stroke-width="2" fill="none" />
<polyline points="149.5,53.0,141.0,56.5,133.0,58.5,125.0,60.0,116.5,63.0,109.0,65.0,100.5,68.0,93.0,71.0,85.0,74.5,77.0,80.0,68.5,86.5,60.5,97.5,53.0,106.5,45.0,120.5,36.5,135.5,28.5,152.5" stroke="black" stroke-width="2" fill="none" />
<polyline points="27.0,151.5,35.5,150.5" stroke="black" stroke-width="2" fill="none" />
<polyline points="12.0,157.5,4.0,158.0" stroke="black" stroke-width="2" fill="none" />
<polyline points="6.5,156.0,11.5,164.0" stroke="black" stroke-width="2" fill="none" />
<polyline points="20.0,170.0,12.0,165.5,4.0,151.5" stroke="black" stroke-width="2" fill="none" />
<polyline points="2.0,154.5,9.5,166.5,17.5,177.5" stroke="black" stroke-width="2" fill="none" />
<polyline points="17.5,177.0,11.0,169.0,6.5,161.0,5.5,153.0,3.0,145.0" stroke="black" stroke-width="2" fill="none" />
<polyline points="24.0,174.0,27.0,166.0,29.0,158.0,30.5,150.0,33.0,141.5,37.5,134.0,40.5,126.0,45.5,118.0,51.0,110.0,57.5,102.5,63.5,94.5,70.0,86.5,79.5,79.0,91.0,71.0,113.0,63.0" stroke="black" stroke-width="2" fill="none" />
<polyline points="112.0,60.0,90.0,68.0,77.5,76.0,67.5,83.5,60.5,91.5,55.5,99.0,48.5,107.0,43.0,114.5,37.5,122.5,34.5,131.0,30.5,138.5,25.5,146.5,25.0,154.5,24.0,162.5,17.5,172.5" stroke="black" stroke-width="2" fill="none" />
<polyline points="3.5,75.5,3.5,67.5,3.0,59.5,3.0,51.5" stroke="black" stroke-width="2" fill="none" />
<polyline points="151.0,6.0,159.0,17.0" stroke="black" stroke-width="2" fill="none" />
<polyline points="155.0,15.0,163.0,14.5,171.0,13.0,178.5,12.0" stroke="black" stroke-width="2" fill="none" />
<polyline points="184.5,2.5,177.0,3.5,169.0,4.5,161.0,4.5,153.0,5.0" stroke="black" stroke-width="2" fill="none" />
<polyline points="157.5,6.5,165.5,12.5,175.0,10.5,183.0,8.5,192.5,3.0" stroke="black" stroke-width="2" fill="none" />
<polyline points="195.0,5.0,203.0,4.0,211.5,3.5" stroke="black" stroke-width="2" fill="none" />
<polyline points="209.5,2.5,203.0,10.5,192.0,14.5,189.0,22.5,185.0,31.0,182.0,38.5,183.0,28.0,190.5,10.5,198.0,5.5,200.0,12.5,208.0,3.5" stroke="black" stroke-width="2" fill="none" />
<polyline points="198.5,3.5,197.5,11.5,187.5,13.5,184.5,22.0,179.5,30.0,177.5,38.0" stroke="black" stroke-width="2" fill="none" />
<polyline points="154.5,11.5,162.5,4.0" stroke="black" stroke-width="2" fill="none" />
<polyline points="162.0,3.5,166.0,4.5,173.0,12.0,172.0,20.5,169.0,29.0,169.5,37.5,169.0,46.0,170.5,47.0,168.5,49.0" stroke="black" stroke-width="2" fill="none" />
<polyline points="168.5,81.5,165.5,89.5,173.5,94.0,181.5,100.5,190.0,106.5,198.0,112.5,205.5,114.5" stroke="black" stroke-width="2" fill="none" />
<polyline points="193.5,134.5,209.5,142.5" stroke="black" stroke-width="2" fill="none" />
<polyline points="189.5,107.5,178.5,99.5,170.0,91.5,169.0,83.0" stroke="black" stroke-width="2" fill="none" />
<polyline points="217.5,47.0,229.5,55.0" stroke="black" stroke-width="2" fill="none" />
<polyline points="238.5,16.5,230.5,2.5" stroke="black" stroke-width="2" fill="none" />
<polyline points="231.0,3.5,234.0,11.0,238.5,19.0,243.5,26.5,245.5,34.5,250.5,42.5,252.5,50.5,255.5,58.5,255.5,69.0,256.5,77.0,255.5,85.0" stroke="black" stroke-width="2" fill="none" />
<polyline points="250.0,42.5,238.0,25.5,229.0,12.5,223.0,7.0,215.5,9.0,213.5,13.5,219.5,5.5" stroke="black" stroke-width="2" fill="none" />
<polyline points="171.5,7.5,170.5,10.5,162.0,6.0" stroke="black" stroke-width="2" fill="none" />
<polyline points="161.0,3.5,168.5,3.0,176.0,5.0,184.0,4.5" stroke="black" stroke-width="2" fill="none" />
</svg>