<svg xmlns="http://www.w3.org/2000/svg" version="1.1"><polyline points="16.5,82.0,23.5,89.5,31.5,98.0" stroke="black" stroke-width="2" fill="none" />
<polyline points="27.5,99.5,19.0,107.0,11.0,114.5,3.5,121.5" stroke="black" stroke-width="2" fill="none" />
<polyline points="3.0,124.0,10.5,123.5,18.5,123.0,27.0,123.0,36.0,123.0,44.0,123.0,52.5,122.0,60.5,121.5" stroke="black" stroke-width="2" fill="none" />
<polyline points="67.0,116.5,66.5,114.5,67.5,113.5,55.5,117.0,56.0,117.0,60.5,108.0,66.5,105.5,70.5,108.5" stroke="black" stroke-width="2" fill="none" />
<polyline points="59.5,113.0,51.0,113.5,42.5,114.0,34.5,114.5,26.0,115.0,18.5,116.0,10.5,116.0,2.5,116.5" stroke="black" stroke-width="2" fill="none" />
<polyline points="3.5,115.0,11.5,107.5,20.0,100.0" stroke="black" stroke-width="2" fill="none" />
<polyline points="18.0,91.5,10.5,99.0,2.5,106.5" stroke="black" stroke-width="2" fill="none" />
<polyline points="3.5,109.0,11.5,108.0,19.5,108.0,27.5,107.5,35.5,107.5,43.5,107.0,51.5,106.5,59.5,105.5,68.0,105.0" stroke="black" stroke-width="2" fill="none" />
<polyline points="58.5,100.5,50.5,99.0,43.0,101.5,35.0,99.0,26.5,90.5,18.5,81.5,11.0,80.5,3.0,80.5" stroke="black" stroke-width="2" fill="none" />
<polyline points="1.0,83.5,9.0,83.0,17.5,82.5" stroke="black" stroke-width="2" fill="none" />
<polyline points="20.0,82.5,12.0,90.0,3.5,97.5" stroke="black" stroke-width="2" fill="none" />
<polyline points="4.0,93.5,12.0,93.0,20.0,92.0,27.5,91.5" stroke="black" stroke-width="2" fill="none" />
<polyline points="12.0,85.0,3.5,92.0" stroke="black" stroke-width="2" fill="none" />
<polyline points="4.5,103.0,12.5,102.0,20.0,101.5,28.0,101.0,36.0,100.0,44.0,99.5" stroke="black" stroke-width="2" fill="none" />
<polyline points="28.0,109.0,20.0,117.0,12.0,124.0,4.0,131.0" stroke="black" stroke-width="2" fill="none" />
<polyline points="3.5,133.5,11.5,133.0,20.0,132.5,28.5,132.0,37.0,131.0,45.5,130.0,53.0,130.0,61.0,130.0" stroke="black" stroke-width="2" fill="none" />
<polyline points="58.5,144.5,50.0,145.5,41.5,146.0,34.0,147.0,26.0,148.5,18.0,149.5,9.5,150.0,1.5,150.5" stroke="black" stroke-width="2" fill="none" />
<polyline points="4.5,154.0,12.0,147.0" stroke="black" stroke-width="2" fill="none" />
<polyline points="13.0,156.5,5.0,163.5" stroke="black" stroke-width="2" fill="none" />
<polyline points="4.5,165.5,12.5,164.5,20.5,164.0,28.5,163.0,35.5,162.5,43.0,162.5,51.0,162.0,59.0,162.5,66.5,162.5" stroke="black" stroke-width="2" fill="none" />
<polyline points="62.5,159.5,70.5,157.5" stroke="black" stroke-width="2" fill="none" />
<polyline points="59.0,154.5,51.0,155.0,43.5,155.5,35.0,156.0,27.0,156.5,19.0,157.0,10.5,158.0,2.5,158.5" stroke="black" stroke-width="2" fill="none" />
<polyline points="3.0,166.0,11.0,162.5,19.0,165.0,29.0,173.5,37.0,180.5,38.5,186.5,48.5,191.0,55.0,194.5,57.5,207.5,61.5,206.5,66.0,209.5,73.5,208.5,82.0,202.0,86.0,194.0,93.5,189.0,101.0,188.5,109.0,188.0,113.5,195.0,121.5,192.5,126.5,198.0,131.5,199.0,131.5,195.0,139.5,193.0,139.5,195.5,147.5,201.5,151.0,194.5,151.0,205.5,159.5,206.5,167.5,206.5,172.0,201.5" stroke="black" stroke-width="2" fill="none" />
<polyline points="180.0,195.5,172.0,203.0,163.5,210.0,155.0,217.5,146.5,225.0,138.0,232.5,130.0,240.5,123.0,248.5,115.0,256.5" stroke="black" stroke-width="2" fill="none" />
<polyline points="138.0,255.5,146.5,248.0,154.5,241.5,162.5,234.0,170.5,226.0,179.0,218.5,187.5,211.0,195.0,203.5,202.5,195.5" stroke="black" stroke-width="2" fill="none" />
<polyline points="203.5,187.0,195.5,194.5,187.5,202.5,179.5,210.0,171.0,217.0,163.0,224.0,155.0,232.0,147.0,240.0,139.0,248.0,131.5,255.5" stroke="black" stroke-width="2" fill="none" />
<polyline points="145.5,256.0,153.5,249.0,162.0,242.0,170.5,235.0,178.5,227.5,187.0,220.0,195.5,213.0,204.0,205.5,212.0,198.0" stroke="black" stroke-width="2" fill="none" />
<polyline points="210.5,200.5,203.0,200.5,195.0,201.0" stroke="black" stroke-width="2" fill="none" />
<polyline points="186.0,208.5,194.5,208.0,202.5,207.5,210.5,207.5,219.0,207.5,227.0,207.5" stroke="black" stroke-width="2" fill="none" />
<polyline points="226.5,208.5,234.5,209.0,246.5,212.0,254.5,210.0" stroke="black" stroke-width="2" fill="none" />
<polyline points="260.0,212.0,252.5,219.5,244.0,226.0,235.5,233.5,227.0,241.0,219.0,248.5,211.0,256.0" stroke="black" stroke-width="2" fill="none" />
<polyline points="203.0,256.0,211.0,248.0,219.5,240.5,227.5,233.5,235.0,226.0,243.0,218.5,251.5,210.5,259.5,203.0" stroke="black" stroke-width="2" fill="none" />
<polyline points="259.5,196.0,251.5,203.0,244.0,210.5,235.5,217.5,227.0,224.0,219.0,231.5,211.0,239.5,203.0,247.0,195.0,254.5" stroke="black" stroke-width="2" fill="none" />
<polyline points="188.5,253.0,196.0,245.5,204.0,238.0,211.5,230.5,219.0,223.5,227.5,216.0,236.0,208.5,244.0,201.5,252.0,194.5,259.5,187.0" stroke="black" stroke-width="2" fill="none" />
<polyline points="257.5,179.5,249.5,187.0,242.5,195.0,234.5,203.0,226.5,210.5,218.5,218.5,210.5,225.5,202.5,233.0,194.5,240.0,187.0,247.0,179.0,254.5" stroke="black" stroke-width="2" fill="none" />
<polyline points="185.0,256.5,193.0,256.5,201.5,256.0,209.5,255.5,218.0,256.0,226.5,255.5,234.5,256.0,243.0,255.5,252.0,255.0,260.5,254.5" stroke="black" stroke-width="2" fill="none" />
<polyline points="259.0,251.5,251.0,259.0" stroke="black" stroke-width="2" fill="none" />
<polyline points="243.0,257.5,251.0,250.0,259.5,242.5" stroke="black" stroke-width="2" fill="none" />
<polyline points="259.0,234.5,251.5,242.0,243.5,249.5,235.5,257.5" stroke="black" stroke-width="2" fill="none" />
<polyline points="228.0,258.5,236.0,250.5,243.5,242.5,251.5,234.5,259.0,226.5" stroke="black" stroke-width="2" fill="none" />
<polyline points="261.0,220.5,252.5,227.5,244.5,234.5,237.0,241.5,229.0,249.0,221.5,256.0" stroke="black" stroke-width="2" fill="none" />
<polyline points="204.5,250.5,212.5,250.0,221.0,249.5,228.5,249.5,236.0,248.5,243.5,248.0,251.5,248.0,260.0,247.0" stroke="black" stroke-width="2" fill="none" />
<polyline points="259.5,238.5,252.0,238.5,244.5,239.0,236.5,238.5,229.0,238.5,221.0,239.0,213.0,239.0" stroke="black" stroke-width="2" fill="none" />
<polyline points="213.0,233.0,221.0,232.5,229.0,232.0,236.5,231.5,244.0,231.0,251.5,230.5,259.5,230.0" stroke="black" stroke-width="2" fill="none" />
<polyline points="251.5,222.0,243.0,223.0,235.0,223.5,226.5,224.0,218.5,224.5,210.5,224.5" stroke="black" stroke-width="2" fill="none" />
<polyline points="196.0,219.0,204.0,218.5,212.5,218.0,220.5,217.5,228.5,217.0,236.5,216.5,244.5,216.0" stroke="black" stroke-width="2" fill="none" />
<polyline points="258.0,223.0,250.0,223.5,242.5,224.0,234.0,224.5,225.5,224.5,217.5,225.0,210.0,225.5,202.0,226.0,194.0,226.0,186.0,226.5,177.5,226.5,169.0,226.0,161.0,227.0,153.5,227.0,146.0,227.5,138.5,228.5,131.5,229.5,124.0,229.5,116.5,230.0,108.5,229.5,101.0,229.5,93.0,230.0,85.0,230.0,77.0,230.5,69.0,231.0,61.0,232.0,52.5,233.0,44.0,234.5,35.5,235.0,27.0,235.5,18.0,236.0,9.5,236.0,1.5,236.5" stroke="black" stroke-width="2" fill="none" />
<polyline points="2.0,235.5,10.5,235.0,18.5,233.5,27.0,232.5,36.0,231.5,45.0,230.5,52.5,230.0,60.5,229.5,69.0,229.0,77.5,228.5" stroke="black" stroke-width="2" fill="none" />
<polyline points="84.0,225.5,92.0,225.0,100.0,225.0,108.5,224.0,116.5,223.5,124.5,223.0,132.5,222.5,140.0,222.5" stroke="black" stroke-width="2" fill="none" />
<polyline points="146.0,226.5,154.5,225.5,162.5,225.5,171.0,225.0,179.5,224.0,187.5,224.0,195.5,223.5" stroke="black" stroke-width="2" fill="none" />
<polyline points="195.5,232.5,187.5,234.0,179.0,235.0,170.5,235.5" stroke="black" stroke-width="2" fill="none" />
<polyline points="168.5,228.0,160.5,227.5,152.0,228.5,136.0,228.0,134.0,223.5,125.5,225.5,122.5,229.5" stroke="black" stroke-width="2" fill="none" />
<polyline points="124.5,231.0,116.0,232.0,108.5,232.5,100.5,233.0" stroke="black" stroke-width="2" fill="none" />
<polyline points="109.5,217.5,117.5,216.5,125.0,216.0" stroke="black" stroke-width="2" fill="none" />
<polyline points="124.0,203.5,115.5,211.5,108.0,218.5,100.0,226.0,92.0,234.0,84.5,241.5,76.0,248.5,67.5,255.5" stroke="black" stroke-width="2" fill="none" />
<polyline points="75.0,256.0,82.5,248.0,90.0,240.5,98.5,233.5,106.5,226.0,114.5,218.5,122.5,211.5,130.5,204.5" stroke="black" stroke-width="2" fill="none" />
<polyline points="139.0,204.5,131.0,212.5,123.5,219.5,115.5,227.5,108.0,235.5,100.5,243.0,92.5,250.5,84.5,257.5" stroke="black" stroke-width="2" fill="none" />
<polyline points="91.5,257.5,100.0,257.0,108.0,256.5,116.0,255.5,123.5,255.5,131.5,255.0,139.5,254.5,147.5,254.0,155.5,254.0" stroke="black" stroke-width="2" fill="none" />
<polyline points="164.0,256.5,172.0,249.0,180.0,241.5,188.5,233.5,197.5,226.0,205.5,218.5,213.5,211.0,221.0,203.5" stroke="black" stroke-width="2" fill="none" />
<polyline points="221.0,197.0,212.5,204.0,204.0,211.0,195.5,218.5,186.5,226.0,178.5,233.5,170.0,241.5,162.5,249.0,154.5,257.0" stroke="black" stroke-width="2" fill="none" />
<polyline points="163.5,259.5,171.5,259.0" stroke="black" stroke-width="2" fill="none" />
<polyline points="171.5,255.5,179.0,247.5,187.0,240.0,194.5,233.0,202.0,225.5,209.5,218.5,217.5,211.0,226.0,203.5,234.0,196.5" stroke="black" stroke-width="2" fill="none" />
<polyline points="231.5,201.5,240.0,204.0,242.0,202.0" stroke="black" stroke-width="2" fill="none" />
<polyline points="242.5,188.5,251.0,180.5" stroke="black" stroke-width="2" fill="none" />
<polyline points="251.5,171.5,243.0,179.0,235.5,186.0" stroke="black" stroke-width="2" fill="none" />
<polyline points="234.5,180.5,243.0,173.5" stroke="black" stroke-width="2" fill="none" />
<polyline points="233.0,171.5,225.5,179.0" stroke="black" stroke-width="2" fill="none" />
<polyline points="228.5,182.0,236.5,181.0,240.0,188.0,247.0,189.0,255.5,184.5" stroke="black" stroke-width="2" fill="none" />
<polyline points="260.5,158.5,251.5,158.5,243.0,159.5,235.0,160.0,227.5,160.5,219.5,161.0,211.0,161.5,203.5,162.0,195.5,162.5,187.0,163.0,179.0,163.0,171.0,163.5,163.0,164.0,155.0,165.0,147.0,166.0" stroke="black" stroke-width="2" fill="none" />
<polyline points="141.0,172.5,148.5,172.0,156.5,172.0,164.5,171.5,172.5,171.5,180.5,171.0,188.5,171.0,196.0,170.5,204.0,169.5,211.5,168.5,219.5,168.0,227.0,167.5,235.5,167.0,243.0,167.0,251.0,166.5,258.5,166.5" stroke="black" stroke-width="2" fill="none" />
<polyline points="259.0,140.0,251.5,140.0,243.5,140.5,236.0,140.5,228.0,140.5,220.0,141.0" stroke="black" stroke-width="2" fill="none" />
<polyline points="220.5,132.0,228.5,131.5" stroke="black" stroke-width="2" fill="none" />
<polyline points="226.5,130.5,234.5,131.5,242.5,130.0,250.5,129.5" stroke="black" stroke-width="2" fill="none" />
<polyline points="250.0,124.5,258.5,117.0" stroke="black" stroke-width="2" fill="none" />
<polyline points="250.5,116.5,242.0,124.0" stroke="black" stroke-width="2" fill="none" />
<polyline points="236.0,135.5,243.5,134.5,251.0,133.5,259.0,133.0" stroke="black" stroke-width="2" fill="none" />
<polyline points="253.0,111.0,261.0,110.0" stroke="black" stroke-width="2" fill="none" />
<polyline points="259.5,124.0,251.5,123.5,243.5,124.0,235.5,125.0,227.5,125.5,219.5,125.5,211.5,126.0" stroke="black" stroke-width="2" fill="none" />
<polyline points="217.0,126.0,214.0,128.0,217.5,131.0" stroke="black" stroke-width="2" fill="none" />
<polyline points="220.0,126.5,220.5,134.5,226.5,133.5,234.5,133.5,242.5,134.5" stroke="black" stroke-width="2" fill="none" />
<polyline points="260.0,142.0,251.0,142.0,243.0,143.0,234.5,143.0,226.0,143.0,218.0,142.5,210.0,143.5,202.0,145.0,194.0,145.5,186.5,146.0,179.0,146.5,171.5,146.5,164.0,146.5,156.0,147.0,148.0,148.0,140.5,148.5" stroke="black" stroke-width="2" fill="none" />
<polyline points="141.5,147.0,149.5,153.0,157.5,150.0,165.0,150.5" stroke="black" stroke-width="2" fill="none" />
<polyline points="156.5,153.5,164.5,153.5,172.5,154.5,180.5,157.0,188.5,160.5,194.0,170.0,197.0,172.0,206.0,169.5" stroke="black" stroke-width="2" fill="none" />
<polyline points="210.5,178.0,202.5,176.5,195.0,175.5,187.0,171.5,179.5,170.5,167.5,172.5,164.5,169.5,156.5,167.5,148.0,166.5,139.5,170.5,138.0,173.0,130.0,178.0,122.0,177.0,114.0,175.0,106.0,174.5,98.5,175.0,90.5,173.0,82.5,171.5,74.5,171.5,66.5,170.0,59.0,168.5,50.5,168.0,42.5,166.0,34.0,165.5,26.0,165.5,17.5,162.5" stroke="black" stroke-width="2" fill="none" />
<polyline points="13.0,166.0,5.0,173.5" stroke="black" stroke-width="2" fill="none" />
<polyline points="4.0,173.0,12.0,172.5,19.5,172.0,27.0,172.0,34.5,171.5,42.5,171.0,50.5,170.5,58.5,171.0,67.0,171.0,75.5,171.0,83.5,170.5,91.5,170.0,99.0,170.0,107.0,169.0,115.0,168.5" stroke="black" stroke-width="2" fill="none" />
<polyline points="104.5,165.0,112.5,165.0,126.0,164.0,134.0,159.5,139.0,162.5" stroke="black" stroke-width="2" fill="none" />
<polyline points="146.5,156.5,155.0,155.5,163.0,155.0,170.5,154.5,179.0,154.0,187.0,154.0,195.5,154.0,204.0,153.5,212.0,153.5,220.5,153.5,228.5,153.0,236.5,152.5,244.0,151.5,251.5,150.5,259.0,150.0" stroke="black" stroke-width="2" fill="none" />
<polyline points="259.5,174.0,251.0,174.5,242.5,174.5,235.0,175.0,227.5,175.0,220.0,175.5,212.0,176.0,204.0,177.0,196.0,177.0,188.0,177.5,179.0,178.0,170.5,178.5,162.0,179.0,154.0,180.0,146.0,180.0,138.0,180.5,130.0,182.0,122.5,183.0,114.5,183.5,106.5,183.5,99.0,183.5,91.0,184.0,83.5,184.0,75.5,185.0,67.0,186.0,59.0,187.0,50.5,187.5,42.0,188.0,34.5,188.0,26.0,189.0,18.0,189.5,9.5,189.5,1.5,190.0" stroke="black" stroke-width="2" fill="none" />
<polyline points="2.5,194.0,10.0,186.0,18.0,177.5" stroke="black" stroke-width="2" fill="none" />
<polyline points="14.0,174.5,22.0,173.5" stroke="black" stroke-width="2" fill="none" />
<polyline points="18.0,171.5,10.0,179.5,2.5,187.5" stroke="black" stroke-width="2" fill="none" />
<polyline points="3.0,185.5,11.0,185.5,19.0,183.0,20.0,190.0,28.5,185.0,36.0,186.0,40.0,189.5,48.0,189.5,55.5,186.5,56.0,184.5,66.0,178.5,74.0,176.5,76.0,179.5,84.0,177.5,92.0,177.5" stroke="black" stroke-width="2" fill="none" />
<polyline points="83.5,179.5,83.5,181.0,82.5,183.0,74.5,181.0,66.5,179.5" stroke="black" stroke-width="2" fill="none" />
<polyline points="60.5,178.5,52.0,186.5" stroke="black" stroke-width="2" fill="none" />
<polyline points="52.5,181.0,44.0,189.0" stroke="black" stroke-width="2" fill="none" />
<polyline points="42.5,197.0,35.0,204.5,27.0,212.0,19.5,219.5,12.0,226.0,4.0,233.5" stroke="black" stroke-width="2" fill="none" />
<polyline points="5.5,231.5,13.0,231.5,20.5,231.0,28.0,230.0,35.5,229.0,43.0,227.5,50.5,227.0,58.5,225.5,66.5,224.5,74.5,224.0,82.5,223.5,90.5,223.5,98.5,223.0,107.0,222.5,115.0,222.0,123.5,221.0,131.5,221.5,140.0,222.5,148.5,222.5,156.0,221.5,164.5,221.5,172.0,220.5,180.0,219.5,187.5,218.5,195.0,218.5,202.5,217.0,210.5,216.0,218.5,215.5,226.5,215.0,235.0,215.0,243.5,214.5,251.0,214.0,259.5,213.0" stroke="black" stroke-width="2" fill="none" />
<polyline points="260.0,237.5,251.5,238.0,243.5,239.0,236.0,239.5,228.0,240.0,219.5,240.5,210.5,241.5,202.5,241.5,194.5,242.5,187.0,242.5,179.5,242.5,172.0,242.5,164.0,243.0,156.0,243.5,148.0,244.0,140.0,245.0,132.0,246.0,124.0,247.0,115.5,248.0,107.0,248.0,99.0,248.5,91.5,249.5,84.0,250.5,75.5,250.5,67.5,251.0,60.0,251.0,52.0,251.0,44.5,251.0,36.5,251.0,27.5,251.0,19.0,250.5,11.0,250.5,3.0,251.0" stroke="black" stroke-width="2" fill="none" />
<polyline points="3.5,249.0,11.5,241.5,20.0,234.0,28.0,226.5,36.0,218.5,44.0,211.0,52.0,203.0" stroke="black" stroke-width="2" fill="none" />
<polyline points="52.5,196.0,61.0,188.5" stroke="black" stroke-width="2" fill="none" />
<polyline points="60.0,192.5,72.0,195.5,68.0,204.5,76.5,204.5" stroke="black" stroke-width="2" fill="none" />
<polyline points="75.0,203.5,67.0,211.5,59.0,219.0,50.5,226.5,42.5,234.5,35.0,242.0,27.0,249.5,18.5,256.5" stroke="black" stroke-width="2" fill="none" />
<polyline points="27.0,255.5,35.0,248.5,43.0,241.0,50.5,233.5,58.0,226.0,66.0,219.0,74.0,212.0,81.5,205.0,89.0,198.0" stroke="black" stroke-width="2" fill="none" />
<polyline points="90.0,198.0,97.0,206.0" stroke="black" stroke-width="2" fill="none" />
<polyline points="92.0,203.0,84.0,210.5,75.5,218.5,67.0,226.5,58.5,234.5,50.5,241.5,42.5,249.5,35.5,256.5" stroke="black" stroke-width="2" fill="none" />
<polyline points="51.5,255.0,60.0,247.5,68.5,240.5,77.0,233.0,85.5,225.0,94.0,217.5,102.0,209.5,109.5,202.0,117.5,194.0" stroke="black" stroke-width="2" fill="none" />
<polyline points="115.5,195.5,122.5,194.5" stroke="black" stroke-width="2" fill="none" />
<polyline points="126.0,193.5,118.0,201.0,109.5,208.5,101.0,216.5,92.5,224.0,83.5,231.5,76.0,239.5,68.0,247.0,59.5,254.5" stroke="black" stroke-width="2" fill="none" />
<polyline points="44.5,256.5,52.5,249.0,61.0,241.0,69.0,233.5,77.0,225.5,85.0,217.5,93.0,210.0,101.5,202.0" stroke="black" stroke-width="2" fill="none" />
<polyline points="101.0,212.5,92.5,213.0,84.5,213.5,76.5,214.0,68.5,214.5,60.5,215.0,52.5,215.5,44.0,216.0,36.5,216.0,29.0,216.5,20.5,216.5,12.5,217.5,5.0,217.5" stroke="black" stroke-width="2" fill="none" />
<polyline points="4.0,217.5,11.0,210.0,18.5,202.5,26.0,195.0" stroke="black" stroke-width="2" fill="none" />
<polyline points="24.0,192.5,32.0,190.5,40.0,192.0,47.5,193.5,61.0,199.5,69.0,198.0,77.5,201.0" stroke="black" stroke-width="2" fill="none" />
<polyline points="73.0,195.0,65.0,202.0,57.5,210.5,50.0,218.5,42.0,226.0,34.0,234.0,26.0,241.5,17.5,249.0,9.5,256.5" stroke="black" stroke-width="2" fill="none" />
<polyline points="10.5,250.5,19.0,249.5,27.5,249.0,36.0,248.0,44.5,247.0,53.0,246.5,60.5,246.5,68.5,246.5,76.0,246.0" stroke="black" stroke-width="2" fill="none" />
<polyline points="73.0,247.5,81.0,247.5,89.0,250.5" stroke="black" stroke-width="2" fill="none" />
<polyline points="92.0,249.5,100.0,248.5,108.0,248.0,116.0,247.5,124.0,247.0,132.0,246.5,140.0,246.0,148.0,245.5,156.0,244.5,163.5,244.0" stroke="black" stroke-width="2" fill="none" />
<polyline points="167.5,244.0,162.5,244.0,163.5,246.5,162.5,244.5,164.0,246.5,176.0,245.5,183.5,242.5,191.5,243.0,200.0,243.0,205.0,234.5" stroke="black" stroke-width="2" fill="none" />
<polyline points="189.5,232.0,181.0,233.0,173.0,233.5,164.5,234.0,156.5,234.5,148.5,235.0,140.5,235.5,133.0,236.5,125.0,237.5,117.5,238.0,109.5,238.5,101.5,239.0,93.5,239.5,85.0,240.5,77.0,241.0,69.0,241.0,61.0,241.5,52.0,241.5,44.0,242.0" stroke="black" stroke-width="2" fill="none" />
<polyline points="36.5,239.0,28.5,239.5,20.0,240.0,12.0,240.5,4.0,241.0" stroke="black" stroke-width="2" fill="none" />
<polyline points="5.0,241.5,12.5,234.0,20.5,227.0,28.5,220.0,36.5,212.0,44.5,204.5" stroke="black" stroke-width="2" fill="none" />
<polyline points="34.5,198.5,26.5,205.5,18.5,212.5,11.0,220.0,3.0,227.5" stroke="black" stroke-width="2" fill="none" />
<polyline points="5.0,228.0,13.5,227.0,21.0,226.5,29.0,225.5,37.5,225.0,45.5,224.5,53.0,223.5,60.5,222.5,68.0,222.0,75.5,221.5" stroke="black" stroke-width="2" fill="none" />
<polyline points="70.0,227.5,78.0,225.0,87.0,228.0,94.0,228.0" stroke="black" stroke-width="2" fill="none" />
<polyline points="93.5,210.5,86.0,211.0" stroke="black" stroke-width="2" fill="none" />
<polyline points="95.0,193.5,103.0,192.0,103.5,191.0,93.5,193.5,95.5,197.5,95.5,200.5,103.5,198.5,111.0,198.0,112.0,202.0,120.0,201.0,123.0,205.0,117.5,203.5,117.0,211.5,121.5,204.5" stroke="black" stroke-width="2" fill="none" />
<polyline points="114.5,206.0,111.0,209.5,112.5,201.0" stroke="black" stroke-width="2" fill="none" />
<polyline points="109.5,188.5,117.5,180.0" stroke="black" stroke-width="2" fill="none" />
<polyline points="119.0,187.0,126.0,195.0,139.0,202.0,141.5,205.0" stroke="black" stroke-width="2" fill="none" />
<polyline points="148.0,196.0,156.5,188.5" stroke="black" stroke-width="2" fill="none" />
<polyline points="158.0,184.5,166.0,181.5" stroke="black" stroke-width="2" fill="none" />
<polyline points="172.5,191.5,175.5,195.5,163.5,196.0,163.5,196.0,167.0,194.0,175.0,194.5,183.0,189.0,185.5,196.0" stroke="black" stroke-width="2" fill="none" />
<polyline points="195.0,187.0,187.5,194.5,180.0,202.0,172.5,209.5,165.0,217.0,156.5,225.0,148.5,232.5,140.5,239.5,132.0,247.0,124.0,254.0" stroke="black" stroke-width="2" fill="none" />
<polyline points="105.0,257.5,113.5,249.5,121.5,242.0,129.5,234.5,137.0,226.5,145.5,219.0,153.5,211.5,162.0,204.5" stroke="black" stroke-width="2" fill="none" />
<polyline points="156.5,205.0,148.5,212.5,140.0,220.0,131.5,228.0,123.0,235.0,115.0,242.5,106.5,250.0,98.5,257.0" stroke="black" stroke-width="2" fill="none" />
<polyline points="92.0,254.5,100.5,248.0,108.5,241.0,116.5,234.0,124.5,226.0,132.0,218.5,140.0,210.5,148.0,203.0,156.0,195.5" stroke="black" stroke-width="2" fill="none" />
<polyline points="151.5,189.0,159.0,187.5,158.0,190.0,165.0,184.0,173.0,185.0,185.0,179.0,193.5,183.5,204.0,186.5,206.5,187.5,214.5,184.5" stroke="black" stroke-width="2" fill="none" />
<polyline points="211.0,189.5,219.0,191.5,226.5,194.0,234.0,194.0,238.5,189.0,240.5,192.0,248.0,195.0" stroke="black" stroke-width="2" fill="none" />
<polyline points="258.5,206.5,250.5,207.5,243.0,208.5,234.5,208.5,227.0,208.5,219.0,208.5,211.0,209.0,203.0,209.5,195.5,210.0,188.0,210.0,180.0,210.5,172.0,210.5,164.5,210.5,156.0,211.5,148.5,212.5,141.0,213.0,133.0,214.0,125.5,214.5,118.0,214.5,110.0,215.0,102.0,215.5,93.5,215.5,86.0,216.0,78.0,216.5,69.5,217.5,61.5,218.5,53.5,219.5,45.5,220.0,37.5,220.5,29.0,221.0,20.5,221.5,12.5,222.0,4.5,223.0" stroke="black" stroke-width="2" fill="none" />
<polyline points="5.0,212.0,13.0,212.0,20.5,211.5,28.5,211.5,36.5,211.5,44.5,211.5,52.0,210.5,60.0,210.5,68.0,210.5,76.0,210.0,84.0,210.0,92.0,209.5,100.5,209.0,108.5,208.5,116.5,208.0,124.5,207.5,132.5,207.0,140.5,206.5,148.5,206.0,156.5,205.5,164.5,205.0,172.0,205.0,179.5,204.5,187.0,204.0,195.0,202.5,202.5,202.5,210.5,201.5,218.0,200.5,225.5,200.0,233.5,199.5,241.0,198.5,249.5,198.0,257.5,198.0" stroke="black" stroke-width="2" fill="none" />
<polyline points="260.0,228.5,252.0,229.5,243.5,230.0,235.5,230.5,227.0,231.5,219.0,232.5,211.0,233.0,202.5,233.5,194.0,234.0,186.0,235.0,178.0,236.0,169.5,237.0,161.0,238.0,153.5,238.5,146.0,238.5,138.5,239.0,131.0,239.0,123.0,239.0,115.5,239.0,107.5,239.5,100.0,239.5,92.0,239.5,84.0,240.0,76.0,240.5,68.0,240.5,60.0,241.0,52.0,241.0,44.0,241.5,36.5,241.5,29.0,242.0,21.0,242.5,13.0,242.5,4.5,242.5" stroke="black" stroke-width="2" fill="none" />
<polyline points="0.5,255.0,9.0,254.5,17.5,255.0,26.0,255.0,34.0,255.5,42.5,255.5,51.0,255.0,60.0,254.5,68.5,254.0,76.5,254.0,85.0,254.0" stroke="black" stroke-width="2" fill="none" />
<polyline points="86.0,253.5,77.5,251.5" stroke="black" stroke-width="2" fill="none" />
<polyline points="86.5,231.5,78.5,229.5,70.0,228.5" stroke="black" stroke-width="2" fill="none" />
<polyline points="60.0,196.5,68.5,189.5" stroke="black" stroke-width="2" fill="none" />
<polyline points="74.5,188.5,66.0,196.0,58.5,203.5,51.0,211.0,43.5,218.5,36.0,226.5,28.0,234.0,19.5,241.5,11.0,249.0,2.5,256.5" stroke="black" stroke-width="2" fill="none" />
<polyline points="33.5,239.0,33.5,235.0" stroke="black" stroke-width="2" fill="none" />
<polyline points="29.0,203.0,21.0,203.5" stroke="black" stroke-width="2" fill="none" />
<polyline points="20.5,196.0,12.5,203.5,4.0,210.5" stroke="black" stroke-width="2" fill="none" />
<polyline points="4.5,207.5,12.0,207.5,20.0,207.0,28.0,207.0,35.5,206.5,43.0,206.0" stroke="black" stroke-width="2" fill="none" />
<polyline points="55.0,201.0,47.0,201.0,39.0,198.5,36.5,203.5,28.5,201.5" stroke="black" stroke-width="2" fill="none" />
<polyline points="19.5,187.0,11.0,194.5,3.5,202.0" stroke="black" stroke-width="2" fill="none" />
<polyline points="4.5,204.0,12.5,203.5,20.5,203.0,28.5,202.5,36.0,202.5,44.0,202.5,51.5,202.0,58.5,202.0,66.0,201.0,73.5,200.0,81.0,199.5,89.0,199.5,97.5,199.0,105.5,198.5,114.0,199.0,122.5,198.5,130.5,199.0,139.0,198.5,148.0,198.0,156.5,197.5,164.5,196.5,172.5,196.0,180.5,196.0,188.5,195.0,196.5,194.0,205.0,193.5,213.0,192.5,221.0,192.0,229.0,191.5,237.0,191.0,245.0,190.5,253.5,190.0,261.5,189.5" stroke="black" stroke-width="2" fill="none" />
<polyline points="259.5,184.0,252.0,184.5,244.0,185.0,236.0,185.5,228.0,186.0,220.0,186.5,212.0,187.0,204.0,186.5,195.0,187.5,187.0,188.0,178.5,188.5,170.5,189.5,162.5,190.5,154.5,190.0,146.0,189.5,138.0,189.0,130.0,189.5,122.0,190.0,114.0,190.0,106.0,190.0,97.5,190.0,89.0,190.0,81.0,190.5,73.0,191.5,65.5,192.5,58.5,193.0,51.0,194.0,43.5,194.5,35.5,195.0,28.0,195.0,20.0,195.5,11.0,196.5,3.0,197.5" stroke="black" stroke-width="2" fill="none" />
<polyline points="5.0,199.5,12.5,199.0" stroke="black" stroke-width="2" fill="none" />
<polyline points="3.5,194.5,6.0,191.5,13.5,191.5,12.5,197.5,20.0,194.0,27.5,195.5,35.5,194.5,43.5,195.5,51.5,190.5,59.5,190.5,67.5,194.5,68.5,190.5,76.5,189.0" stroke="black" stroke-width="2" fill="none" />
<polyline points="80.0,177.0,79.0,185.0,85.0,184.5,82.5,192.5,89.0,195.5,91.5,201.5,99.5,211.0" stroke="black" stroke-width="2" fill="none" />
<polyline points="101.5,186.0,109.5,178.5" stroke="black" stroke-width="2" fill="none" />
<polyline points="129.0,166.0,137.0,167.0,147.5,170.0,155.5,170.5" stroke="black" stroke-width="2" fill="none" />
<polyline points="151.5,173.0,143.5,176.5" stroke="black" stroke-width="2" fill="none" />
<polyline points="133.0,179.5,140.5,180.5,149.0,180.0,152.0,184.0,162.5,186.0,159.0,191.5,157.0,200.0,176.5,209.0,179.5,210.5" stroke="black" stroke-width="2" fill="none" />
<polyline points="181.5,186.0,189.0,178.0" stroke="black" stroke-width="2" fill="none" />
<polyline points="182.5,174.5,174.5,172.5" stroke="black" stroke-width="2" fill="none" />
<polyline points="189.0,152.0,197.0,153.5,205.5,155.0" stroke="black" stroke-width="2" fill="none" />
<polyline points="226.0,161.0,234.5,160.5,246.0,161.5,254.5,162.5" stroke="black" stroke-width="2" fill="none" />
<polyline points="259.5,165.5,251.5,165.5,243.5,166.0,235.5,166.5,227.5,167.0,219.5,167.5,211.5,168.0,203.5,168.0,196.0,168.5,188.0,168.5,180.5,169.0,172.5,169.5,164.5,170.5,156.0,171.0,148.0,172.0,140.5,172.5,132.5,173.0,124.0,174.0,116.0,174.5,107.5,175.5,99.5,177.0,91.0,178.0,82.5,178.5,74.5,179.5,66.5,179.5,58.5,179.0,50.0,179.0,41.0,179.0,33.0,179.5,25.5,180.0,17.5,180.5,9.5,181.0,1.5,181.5" stroke="black" stroke-width="2" fill="none" />
<polyline points="4.0,179.5,12.0,172.0" stroke="black" stroke-width="2" fill="none" />
<polyline points="13.0,172.5,21.0,170.5" stroke="black" stroke-width="2" fill="none" />
<polyline points="13.0,158.5,21.5,157.5,30.0,153.0,38.0,152.5,40.0,152.0,41.5,155.5,54.0,153.5,62.5,154.5,70.5,156.5,79.0,156.5,87.0,159.0,95.0,160.0" stroke="black" stroke-width="2" fill="none" />
<polyline points="88.5,160.0,80.5,159.0,74.5,160.5,75.5,162.5,72.5,148.5,64.5,147.5,56.5,147.5,48.5,150.0,41.0,150.0" stroke="black" stroke-width="2" fill="none" />
<polyline points="35.0,146.0,43.5,145.0,51.5,144.0" stroke="black" stroke-width="2" fill="none" />
<polyline points="56.5,151.0,64.5,151.0,77.0,151.0,84.5,151.0,92.0,152.0,99.5,153.0,107.5,154.5,115.5,155.5,123.0,156.5,131.0,157.5,139.0,158.0,149.0,161.5,155.5,158.5,163.5,161.5,176.0,160.5,184.5,161.5,192.5,162.5,200.0,163.5,208.5,164.5,216.5,165.5,224.5,165.5,232.5,164.5,241.0,162.0,249.0,161.0" stroke="black" stroke-width="2" fill="none" />
<polyline points="249.5,170.0,246.5,167.0,238.5,170.0,230.5,167.5" stroke="black" stroke-width="2" fill="none" />
<polyline points="228.5,173.0,220.0,180.0" stroke="black" stroke-width="2" fill="none" />
<polyline points="220.5,173.0,228.5,174.0,236.5,175.0,244.5,176.0,252.5,174.0,255.0,176.5" stroke="black" stroke-width="2" fill="none" />
<polyline points="255.5,201.5,251.5,205.5,248.5,204.5,242.5,211.5,237.5,210.0,248.0,206.0,248.5,199.5,250.5,193.5,239.5,181.5,226.5,185.0" stroke="black" stroke-width="2" fill="none" />
<polyline points="211.0,194.0,211.0,194.0,216.0,194.0,220.0,200.0,229.0,198.0,237.0,197.0,245.0,196.0,253.5,192.0,256.5,194.0" stroke="black" stroke-width="2" fill="none" />
<polyline points="220.0,193.0,212.0,192.0,204.0,189.5,196.0,187.0" stroke="black" stroke-width="2" fill="none" />
<polyline points="199.5,179.5,195.5,187.5,201.0,180.0,208.5,181.0,216.5,181.0,228.5,177.0,236.5,177.0,244.5,181.5,252.5,182.0" stroke="black" stroke-width="2" fill="none" />
<polyline points="254.0,153.5,246.0,153.5,238.0,152.0,231.0,144.0,223.0,142.5,215.0,141.5,206.5,141.0,192.5,144.0,184.5,141.0,176.0,139.0" stroke="black" stroke-width="2" fill="none" />
<polyline points="173.0,128.5,174.0,129.5,177.0,132.5,178.5,140.0,182.0,137.5,187.0,133.5,195.0,133.5,203.5,136.5,211.5,138.0,219.5,139.0" stroke="black" stroke-width="2" fill="none" />
<polyline points="224.5,124.0,223.5,132.0,224.5,138.0,233.0,139.5,241.5,141.0,249.5,142.0" stroke="black" stroke-width="2" fill="none" />
<polyline points="261.0,115.0,253.5,115.5,246.0,115.5,238.0,116.0,230.0,116.5,221.5,116.5,214.0,117.0" stroke="black" stroke-width="2" fill="none" />
<polyline points="187.0,117.0,179.5,117.0" stroke="black" stroke-width="2" fill="none" />
<polyline points="175.0,116.5,180.0,124.5,181.0,132.5,195.0,144.0" stroke="black" stroke-width="2" fill="none" />
<polyline points="185.0,123.0,177.0,123.5" stroke="black" stroke-width="2" fill="none" />
<polyline points="183.5,113.5,191.0,113.5,199.0,114.5,207.0,114.0,215.0,114.0,223.0,113.0,231.0,115.5,239.0,113.5,247.0,110.5,255.0,108.0" stroke="black" stroke-width="2" fill="none" />
<polyline points="247.5,149.5,240.0,148.0,232.5,149.0,224.5,148.5,216.5,148.0,208.5,148.0,200.5,147.0,192.5,147.5,184.5,146.5,176.0,146.0,168.0,142.5,160.0,140.0,152.0,137.0,144.5,134.5" stroke="black" stroke-width="2" fill="none" />
<polyline points="145.0,136.0,153.0,140.0,161.0,143.0" stroke="black" stroke-width="2" fill="none" />
<polyline points="141.0,150.5,149.0,155.5,159.0,165.0,154.0,177.5,147.5,185.5,151.5,195.0,151.0,201.0,155.5,204.5,149.0,210.5,146.0,211.5" stroke="black" stroke-width="2" fill="none" />
<polyline points="145.5,226.0,137.5,233.0,129.5,233.0" stroke="black" stroke-width="2" fill="none" />
<polyline points="131.5,196.0,139.5,188.5" stroke="black" stroke-width="2" fill="none" />
<polyline points="144.5,192.0,146.0,200.0,140.5,207.5,143.5,208.5,143.0,215.0" stroke="black" stroke-width="2" fill="none" />
<polyline points="182.0,246.0,186.0,240.5,194.5,236.5,199.5,238.5,208.0,241.5" stroke="black" stroke-width="2" fill="none" />
<polyline points="159.0,160.5,146.0,152.5,134.0,152.5" stroke="black" stroke-width="2" fill="none" />
<polyline points="129.0,138.0,135.0,148.0,143.0,155.5,140.0,162.5,138.0,171.0,141.0,176.5,140.0,184.5,133.5,188.5,139.5,193.0,135.5,197.5,125.5,204.5,128.5,204.0,128.5,216.0,138.5,217.0,145.5,207.5,150.0,215.5,151.0,209.5,159.5,209.0,163.5,212.0,176.5,207.5,180.0,213.5,187.0,213.5,196.5,225.0,204.0,222.0,205.5,226.0" stroke="black" stroke-width="2" fill="none" />
<polyline points="148.5,138.0,140.0,125.0,143.0,116.5,148.0,108.5,146.5,101.0,150.5,95.0,142.5,97.5,134.5,94.5" stroke="black" stroke-width="2" fill="none" />
<polyline points="135.5,88.5,137.5,93.0,146.5,100.0,142.5,108.0,136.5,111.0,141.5,119.5,148.0,112.5,153.0,116.0,160.5,115.0,168.5,114.5,177.5,113.5,177.5,118.0,189.5,124.0,197.5,125.0,205.0,124.5,213.0,124.5,220.5,128.5,230.5,125.5,238.5,124.5,246.5,126.0,254.5,126.0" stroke="black" stroke-width="2" fill="none" />
<polyline points="256.0,157.5,248.0,157.5,240.0,156.0,232.0,155.0,224.0,154.0,216.0,154.5,208.0,153.5,200.5,152.5,192.5,151.0,184.5,151.0,176.5,150.0,168.5,148.5,160.5,147.5,152.5,146.5,144.5,145.5,136.5,145.5,128.5,145.0,121.0,144.0,113.0,143.5,99.5,141.5,91.0,141.5,82.5,140.5,74.5,139.5,66.5,138.5,58.0,142.5,66.5,138.5,77.5,127.5,80.5,119.5" stroke="black" stroke-width="2" fill="none" />
<polyline points="67.5,136.5,59.0,137.5,50.5,139.0,42.5,139.5,34.5,140.0,27.0,140.5,18.5,141.0,10.5,142.0,3.0,142.0" stroke="black" stroke-width="2" fill="none" />
<polyline points="4.5,137.5,12.0,130.5,20.0,123.5,28.0,116.0" stroke="black" stroke-width="2" fill="none" />
<polyline points="28.5,122.5,20.5,129.5" stroke="black" stroke-width="2" fill="none" />
<polyline points="12.5,137.0,20.5,136.0,28.5,137.0,36.5,133.5,44.5,135.0,53.0,135.5,61.0,135.5,69.0,135.0,77.0,129.0,80.5,129.0,76.5,137.0,84.5,138.0,92.5,138.0,100.0,139.5,107.5,140.5,115.5,140.5,123.0,142.0,126.0,138.0,134.0,141.0,142.5,143.0,151.0,143.0,159.0,145.5,166.5,144.5" stroke="black" stroke-width="2" fill="none" />
<polyline points="148.0,106.0,140.0,116.0,140.0,105.5" stroke="black" stroke-width="2" fill="none" />
<polyline points="183.5,104.0,182.5,112.0,181.5,120.0,185.0,116.0,183.0,123.5,186.0,131.5,188.0,131.5,196.5,130.0,206.5,130.0,214.5,128.0" stroke="black" stroke-width="2" fill="none" />
<polyline points="188.5,106.0,185.5,113.5,185.5,106.5" stroke="black" stroke-width="2" fill="none" />
<polyline points="180.0,183.0,172.0,177.0,170.0,179.0,162.0,179.0,154.0,178.0,146.0,182.0,139.5,184.0,135.0,189.0,127.0,192.0,119.0,186.0,110.0,179.5,101.0,184.5,99.0,181.5,91.0,179.5,86.0,186.5,78.0,196.5,82.0,198.5,76.0,187.5,70.5,186.5,65.5,182.5,77.5,174.5" stroke="black" stroke-width="2" fill="none" />
<polyline points="50.5,172.5,43.0,180.5" stroke="black" stroke-width="2" fill="none" />
<polyline points="42.5,178.0,34.5,180.0" stroke="black" stroke-width="2" fill="none" />
<polyline points="40.0,168.5,32.0,169.5,23.5,169.5,15.0,169.5,6.5,167.5" stroke="black" stroke-width="2" fill="none" />
<polyline points="3.0,172.0,4.5,171.5,4.0,180.0,10.0,179.0,18.5,180.0,26.5,181.0,28.5,178.0,36.0,176.5,41.5,173.0,47.5,170.0,49.5,173.5,57.5,173.0,62.5,163.0,70.5,163.0" stroke="black" stroke-width="2" fill="none" />
<polyline points="55.5,140.5,48.0,139.5,40.5,138.0,32.5,138.0" stroke="black" stroke-width="2" fill="none" />
<polyline points="43.0,124.0,35.0,124.0,26.5,125.0,26.0,121.5,19.5,128.0,11.5,127.5,3.0,127.5" stroke="black" stroke-width="2" fill="none" />
</svg>