<svg xmlns="http://www.w3.org/2000/svg" version="1.1"><polyline points="123.5,50.5,110.5,58.0,104.5,66.0,100.0,73.5,99.0,81.5,101.0,89.5,106.0,97.5,109.5,105.5,116.5,113.5,123.5,121.5,130.0,129.5,138.5,131.5,146.5,115.5,154.5,100.5" stroke="black" stroke-width="2" fill="none" />
<polyline points="156.0,98.0,148.0,105.5,140.0,113.5,132.0,121.5" stroke="black" stroke-width="2" fill="none" />
<polyline points="132.5,124.0,140.5,123.0,148.5,123.0" stroke="black" stroke-width="2" fill="none" />
<polyline points="145.5,116.5,138.0,124.5,130.0,131.5" stroke="black" stroke-width="2" fill="none" />
<polyline points="132.0,133.5,140.0,133.0" stroke="black" stroke-width="2" fill="none" />
<polyline points="141.0,137.5,132.5,145.0" stroke="black" stroke-width="2" fill="none" />
<polyline points="130.5,145.5,123.5,153.5" stroke="black" stroke-width="2" fill="none" />
<polyline points="117.0,155.0,125.5,147.5,133.5,140.0" stroke="black" stroke-width="2" fill="none" />
<polyline points="134.0,136.5,126.0,136.5,118.0,137.5,109.5,138.0,101.5,139.0,93.5,140.0,85.5,142.5,78.0,145.0,70.0,148.0,62.0,151.5,54.5,155.5,46.5,160.5,38.5,165.0,31.0,172.0,23.0,182.5" stroke="black" stroke-width="2" fill="none" />
<polyline points="28.5,181.0,36.0,180.5,43.5,180.0,51.0,179.5,59.0,178.5,67.0,178.0,75.0,177.5,83.5,177.0,91.5,176.5,100.0,176.0,108.5,175.5,116.0,175.0,123.5,175.0,131.0,174.5,139.0,174.5,146.5,175.0,155.0,174.5,163.5,174.0,171.5,173.5,180.0,173.5,188.0,173.0,195.5,172.0,202.5,171.5,210.0,171.0,217.5,171.0,225.5,170.5,233.5,170.0,241.5,169.5,249.5,168.5,257.5,168.5" stroke="black" stroke-width="2" fill="none" />
<polyline points="244.5,173.0,236.5,180.5,227.5,188.0,219.0,195.5,211.0,202.5,202.5,210.0,195.0,217.0,187.5,225.0,179.0,232.5,170.5,240.0,163.0,247.5,154.5,255.0" stroke="black" stroke-width="2" fill="none" />
<polyline points="145.5,254.0,153.5,246.0,161.5,239.0,170.0,232.0,179.0,225.0,187.0,218.0,195.0,210.5,203.5,203.0,212.5,196.0,221.0,188.5,229.0,181.5,236.5,174.0" stroke="black" stroke-width="2" fill="none" />
<polyline points="241.0,180.0,234.0,187.5,226.5,194.5,219.5,202.0,212.0,209.5,204.0,217.0,196.5,224.5,188.5,232.0,180.5,240.0,172.5,247.5" stroke="black" stroke-width="2" fill="none" />
<polyline points="185.0,248.0,194.0,241.0,203.5,234.0,212.5,227.0,220.5,219.5,228.5,212.0,236.5,204.5,244.0,197.0,252.0,190.0" stroke="black" stroke-width="2" fill="none" />
<polyline points="252.5,196.0,244.0,203.5,236.0,210.5,228.0,218.5,220.0,226.0,212.0,233.0,203.5,240.5" stroke="black" stroke-width="2" fill="none" />
<polyline points="220.0,232.5,228.5,225.0,237.0,217.5,245.0,210.0,253.0,202.5" stroke="black" stroke-width="2" fill="none" />
<polyline points="244.0,189.5,235.5,197.0,227.0,204.5,218.5,212.0,210.0,219.0,202.0,226.0,194.0,234.0,185.5,241.5,177.5,248.5" stroke="black" stroke-width="2" fill="none" />
<polyline points="171.0,247.5,162.5,248.5,155.0,249.5,147.0,249.5,140.0,249.5,132.0,250.0,124.5,250.5,117.0,252.0,109.0,253.0,100.5,253.5,92.0,254.0" stroke="black" stroke-width="2" fill="none" />
<polyline points="100.0,245.0,108.0,237.0,116.0,229.5,124.0,222.0,132.0,214.0,139.5,206.5,147.0,199.0,155.0,191.5,163.0,184.0,172.0,176.5,180.5,168.5,189.0,161.0,197.0,153.5,205.0,146.0" stroke="black" stroke-width="2" fill="none" />
<polyline points="197.5,145.0,189.5,152.5,181.0,160.0,172.5,167.5,164.5,175.0,156.5,182.5,147.5,190.5,139.0,198.0,131.0,206.0,123.0,213.0,115.0,220.5,107.0,228.0,99.5,235.5,91.5,243.5" stroke="black" stroke-width="2" fill="none" />
<polyline points="109.5,243.5,117.0,236.5,125.0,229.0,133.0,221.5,141.0,214.5,149.0,207.5,156.5,200.0,164.0,193.0,172.0,186.0,179.5,179.0,187.5,172.0,196.5,164.5,204.5,157.5" stroke="black" stroke-width="2" fill="none" />
<polyline points="211.5,156.5,203.0,163.5,195.0,170.5,187.0,177.5,179.0,184.5,171.0,191.5,163.0,199.0,155.5,206.0,147.5,213.5,140.0,222.0,132.0,229.5,124.0,237.0,115.5,244.5" stroke="black" stroke-width="2" fill="none" />
<polyline points="114.5,251.0,122.0,243.0,129.5,235.5,137.0,228.0,145.5,221.0,154.0,213.5,162.5,206.0,170.5,199.0,178.5,191.5,186.5,184.5,194.5,177.0,202.0,170.0,210.0,162.5,218.5,154.5" stroke="black" stroke-width="2" fill="none" />
<polyline points="228.0,153.5,219.5,161.5,212.0,169.5,204.0,177.0,195.5,184.5,187.0,192.0,179.0,200.0,170.5,207.0,162.5,214.5,155.0,222.0,146.5,229.0,139.0,236.5,131.0,244.5,123.5,252.5" stroke="black" stroke-width="2" fill="none" />
<polyline points="138.5,253.0,147.0,245.5,155.0,238.0,163.0,230.5,171.0,223.5,179.5,216.0,188.0,209.0,196.5,201.5,205.0,194.0,212.5,186.5,220.0,178.5,228.0,171.0,235.5,163.5" stroke="black" stroke-width="2" fill="none" />
<polyline points="229.0,161.5,221.0,169.0,213.0,177.0,205.0,185.0,197.0,193.0,189.0,201.0,180.0,208.5,172.0,216.0,164.0,223.5,156.0,231.5,148.0,239.0,140.0,246.5,131.5,254.0" stroke="black" stroke-width="2" fill="none" />
<polyline points="142.5,249.0,150.5,252.0" stroke="black" stroke-width="2" fill="none" />
<polyline points="186.5,245.0,190.0,236.5,188.5,227.5,185.5,225.0,188.5,210.0,181.5,202.0,175.0,198.0,161.0,196.0,162.0,187.0,155.0,181.0,157.0,172.5,161.0,164.5,165.0,156.5,156.5,152.5" stroke="black" stroke-width="2" fill="none" />
<polyline points="157.0,151.5,164.5,151.5,172.5,151.5,180.5,152.0,188.5,151.5" stroke="black" stroke-width="2" fill="none" />
<polyline points="187.5,146.5,179.5,154.0,171.5,161.5,163.5,169.0,155.5,176.5,147.5,184.0,140.0,191.5,132.0,199.0,124.0,206.5,116.0,214.0,108.0,221.5,99.5,229.0,92.0,237.0,84.0,245.0" stroke="black" stroke-width="2" fill="none" />
<polyline points="85.5,239.5,93.5,231.5,101.0,223.5,109.0,216.0,117.0,208.5,125.0,201.0,132.5,193.5,140.5,186.5,148.0,179.0,156.0,171.5,163.5,164.0,171.5,156.5,179.5,149.0" stroke="black" stroke-width="2" fill="none" />
<polyline points="171.0,148.0,163.0,155.5,155.0,163.0,147.0,170.5,139.0,178.5,131.5,186.0,123.5,193.0,115.5,200.5,108.0,208.0,100.5,215.5,92.5,223.0,84.5,231.0,76.5,238.0" stroke="black" stroke-width="2" fill="none" />
<polyline points="68.0,240.0,76.0,233.0,84.5,226.0,92.5,218.5,100.5,211.0,108.0,203.5" stroke="black" stroke-width="2" fill="none" />
<polyline points="107.5,196.0,99.0,203.0,91.0,210.5,83.0,218.5,74.5,226.0,66.5,234.0,59.0,241.5" stroke="black" stroke-width="2" fill="none" />
<polyline points="51.5,238.5,59.0,237.5,67.0,237.0,75.0,236.5,84.0,236.0,92.0,235.0,100.0,235.0,108.0,234.5,116.0,234.0,124.0,234.0,132.0,233.0,140.0,232.5,148.5,231.5,156.5,231.0,164.5,230.5,172.0,230.5,180.0,229.5,188.0,228.5,196.0,228.5,204.0,228.5,212.0,228.0,220.0,227.0" stroke="black" stroke-width="2" fill="none" />
<polyline points="225.0,225.5,233.5,225.0" stroke="black" stroke-width="2" fill="none" />
<polyline points="226.0,218.5,234.0,218.0,242.0,217.5" stroke="black" stroke-width="2" fill="none" />
<polyline points="243.0,208.0,235.0,208.5,227.0,208.5" stroke="black" stroke-width="2" fill="none" />
<polyline points="220.0,203.5,228.0,203.0,237.0,202.0,245.0,201.0" stroke="black" stroke-width="2" fill="none" />
<polyline points="242.5,192.5,234.5,193.5,226.5,194.0,218.5,194.5" stroke="black" stroke-width="2" fill="none" />
<polyline points="212.0,188.0,220.0,187.5,228.0,186.5,236.0,185.5,244.0,184.0" stroke="black" stroke-width="2" fill="none" />
<polyline points="236.5,175.5,228.5,176.0,220.5,176.5,212.0,177.5,204.0,178.0" stroke="black" stroke-width="2" fill="none" />
<polyline points="204.0,169.5,212.5,169.0,220.5,168.5,229.0,168.0" stroke="black" stroke-width="2" fill="none" />
<polyline points="218.5,142.5,226.5,141.5,234.0,141.0,242.0,140.5,250.0,140.0,258.0,140.0" stroke="black" stroke-width="2" fill="none" />
<polyline points="260.5,124.5,252.5,125.0" stroke="black" stroke-width="2" fill="none" />
<polyline points="258.0,133.0,250.5,133.5,243.5,134.0,236.0,135.0" stroke="black" stroke-width="2" fill="none" />
<polyline points="235.0,118.0,242.5,117.5,251.0,117.5,259.5,117.5" stroke="black" stroke-width="2" fill="none" />
<polyline points="258.5,83.0,250.0,83.0,241.5,83.0,233.0,83.5,225.0,84.5" stroke="black" stroke-width="2" fill="none" />
<polyline points="227.0,75.5,235.0,75.0,243.0,75.5,251.0,75.0,259.5,75.0" stroke="black" stroke-width="2" fill="none" />
<polyline points="258.5,53.0,250.0,53.5,241.5,54.5,233.5,55.0" stroke="black" stroke-width="2" fill="none" />
<polyline points="227.5,61.0,235.5,61.0,243.5,60.5,251.5,60.0,259.5,59.0" stroke="black" stroke-width="2" fill="none" />
<polyline points="258.0,45.0,250.0,45.5,242.0,46.0,234.0,46.5" stroke="black" stroke-width="2" fill="none" />
<polyline points="234.0,38.0,242.5,37.5,250.0,37.5,257.5,37.5" stroke="black" stroke-width="2" fill="none" />
<polyline points="258.0,29.0,249.5,29.0,241.5,29.5,233.0,30.0" stroke="black" stroke-width="2" fill="none" />
<polyline points="235.0,22.0,243.0,21.5,251.0,21.5,259.0,21.0" stroke="black" stroke-width="2" fill="none" />
<polyline points="258.5,13.0,250.0,13.0,242.0,14.0,234.0,14.5" stroke="black" stroke-width="2" fill="none" />
<polyline points="235.0,6.5,243.0,6.5,251.0,6.0,259.0,5.0" stroke="black" stroke-width="2" fill="none" />
<polyline points="258.5,68.0,250.5,67.5,242.5,67.5,234.5,67.5,226.5,68.0" stroke="black" stroke-width="2" fill="none" />
<polyline points="218.5,93.0,226.5,92.5,234.5,91.5,242.5,91.0,250.5,90.5,258.5,90.5" stroke="black" stroke-width="2" fill="none" />
<polyline points="259.0,107.0,251.0,107.0,243.0,107.5,235.0,108.0,227.0,108.0,219.0,108.5" stroke="black" stroke-width="2" fill="none" />
<polyline points="221.0,100.0,228.5,100.0,236.5,99.5,244.0,99.0,252.0,98.0,260.0,97.5" stroke="black" stroke-width="2" fill="none" />
<polyline points="212.5,159.0,205.0,160.0,197.5,161.0,189.5,161.5" stroke="black" stroke-width="2" fill="none" />
<polyline points="176.0,158.0,178.0,164.0,176.0,169.0,175.0,174.0,186.0,175.0,195.5,179.5,206.5,185.5,206.5,193.0,209.0,196.5,215.0,204.0,206.5,212.0,201.5,227.0,197.5,238.5" stroke="black" stroke-width="2" fill="none" />
<polyline points="202.5,236.5,194.5,237.0,186.5,237.5,178.5,237.5,170.5,238.0,162.5,238.5,154.5,239.5,146.5,240.0,139.0,240.5,131.5,241.5,124.0,242.5,116.0,243.5,108.0,244.5,100.0,245.0,92.0,245.0,83.5,245.5,75.0,245.5,67.0,246.0" stroke="black" stroke-width="2" fill="none" />
<polyline points="60.5,233.0,68.0,225.5,76.0,218.0,84.0,209.5,91.5,202.0,99.0,194.5,106.5,187.0" stroke="black" stroke-width="2" fill="none" />
<polyline points="108.0,188.0,118.0,192.0,117.0,200.0,122.0,199.5,131.0,200.0,136.0,190.0" stroke="black" stroke-width="2" fill="none" />
<polyline points="140.5,186.0,141.5,194.5,143.0,197.0,152.0,185.5" stroke="black" stroke-width="2" fill="none" />
<polyline points="145.0,189.5,146.5,197.0" stroke="black" stroke-width="2" fill="none" />
<polyline points="149.0,176.5,141.0,177.0" stroke="black" stroke-width="2" fill="none" />
<polyline points="144.5,172.5,144.0,180.5,146.0,174.5,154.5,164.0,159.5,172.0,169.5,176.0,175.5,178.5,178.5,192.5" stroke="black" stroke-width="2" fill="none" />
<polyline points="168.5,192.0,170.5,183.5,166.5,176.0" stroke="black" stroke-width="2" fill="none" />
<polyline points="168.5,168.5,180.5,181.5,190.5,181.5,195.5,181.5,200.0,177.0,207.0,174.0,214.0,187.0" stroke="black" stroke-width="2" fill="none" />
<polyline points="237.0,218.0,228.5,218.0,220.5,218.5,212.5,219.0,205.0,219.5,196.5,219.5,188.5,219.5,180.5,220.0,172.0,221.0,163.5,221.0,156.0,221.5,148.5,222.0,141.0,223.0,133.5,224.0,125.5,224.5,117.5,225.0,109.0,225.0,100.5,225.5,91.5,227.0,82.5,228.0,74.5,228.5,66.5,229.0,58.5,229.5,50.0,230.0,42.0,230.5" stroke="black" stroke-width="2" fill="none" />
<polyline points="52.0,232.0,59.5,224.5,67.5,217.0,75.0,209.5,82.5,202.5,90.5,195.5" stroke="black" stroke-width="2" fill="none" />
<polyline points="90.5,188.5,82.5,196.0,74.5,203.5,66.5,211.0,59.5,218.5,52.0,226.0,43.5,233.5" stroke="black" stroke-width="2" fill="none" />
<polyline points="43.5,224.5,52.0,217.0,60.5,209.0,68.5,201.5,77.0,194.0,85.0,186.0" stroke="black" stroke-width="2" fill="none" />
<polyline points="81.5,183.0,89.5,184.0,91.5,189.0" stroke="black" stroke-width="2" fill="none" />
<polyline points="89.0,178.5,102.5,180.5,105.5,188.5,102.5,196.5,104.5,204.5" stroke="black" stroke-width="2" fill="none" />
<polyline points="105.5,202.5,103.5,194.5" stroke="black" stroke-width="2" fill="none" />
<polyline points="108.0,194.0,116.0,205.0" stroke="black" stroke-width="2" fill="none" />
<polyline points="118.0,193.0,127.0,197.0,137.0,205.5,149.0,212.0,156.0,218.0,147.5,230.5,142.5,241.0,143.0,251.0,148.0,256.0,140.0,255.0,146.5,257.0" stroke="black" stroke-width="2" fill="none" />
<polyline points="166.5,252.0,158.5,255.5,157.5,248.5,150.5,241.0,159.5,229.0,162.5,218.0,158.5,210.5,145.5,205.0,135.0,198.0,136.5,193.0,131.5,182.5,123.5,184.5" stroke="black" stroke-width="2" fill="none" />
<polyline points="130.5,178.5,139.0,170.5,147.0,163.0,155.0,155.5,163.0,148.0" stroke="black" stroke-width="2" fill="none" />
<polyline points="162.5,140.5,154.5,148.0,147.0,155.5,139.5,163.0,131.5,170.5" stroke="black" stroke-width="2" fill="none" />
<polyline points="131.5,165.0,139.5,165.0,147.0,165.5,154.5,165.0,162.5,164.0,170.5,163.5,178.5,163.0,186.5,162.5,194.5,162.5,202.0,162.0,210.0,161.5,218.0,161.0,226.0,160.5,234.0,160.0,242.0,159.5,250.0,159.0,258.5,158.5" stroke="black" stroke-width="2" fill="none" />
<polyline points="258.0,151.5,250.0,152.0,241.5,152.0,233.5,152.5,226.0,152.5,218.5,152.5,210.0,153.0,202.0,153.5,194.5,154.5,187.0,155.0,179.5,155.0,172.0,155.0,164.0,156.0,156.0,156.5,148.0,157.5,140.0,157.5,131.5,158.0" stroke="black" stroke-width="2" fill="none" />
<polyline points="132.5,161.5,140.0,153.5,147.5,145.5,156.0,138.0" stroke="black" stroke-width="2" fill="none" />
<polyline points="146.5,139.0,138.5,146.0" stroke="black" stroke-width="2" fill="none" />
<polyline points="131.5,147.0,130.5,155.5,131.5,161.0,127.5,169.0,132.0,172.0,125.5,178.0,121.5,179.5,115.5,181.5,110.0,186.0,116.0,184.5,115.0,192.5,114.0,195.5,120.0,203.0,128.0,204.0,124.0,211.5,114.0,219.5,110.0,228.0,117.5,240.5,130.5,250.5,127.5,255.5" stroke="black" stroke-width="2" fill="none" />
<polyline points="108.5,251.0,107.5,255.5" stroke="black" stroke-width="2" fill="none" />
<polyline points="132.0,215.0,124.0,220.0,112.5,230.5,104.5,218.5,114.5,204.0,111.5,196.0,108.5,188.0,111.0,180.0,115.0,175.0,122.5,167.0,123.5,169.0" stroke="black" stroke-width="2" fill="none" />
<polyline points="125.5,173.5,127.5,165.5,123.5,173.5,117.5,174.0,122.5,163.5,130.5,157.5" stroke="black" stroke-width="2" fill="none" />
<polyline points="141.0,159.5,149.0,159.0" stroke="black" stroke-width="2" fill="none" />
<polyline points="155.0,159.0,155.0,169.5,160.5,176.5,157.5,177.5" stroke="black" stroke-width="2" fill="none" />
<polyline points="149.0,168.0,140.5,168.5" stroke="black" stroke-width="2" fill="none" />
<polyline points="163.5,160.5,163.5,166.5,173.0,167.5,171.0,175.5,173.0,183.5,176.0,191.5,166.5,198.5,182.5,192.5,190.5,193.5,198.0,194.5,207.0,187.5,215.0,193.0" stroke="black" stroke-width="2" fill="none" />
<polyline points="260.5,166.0,252.5,166.5,244.0,167.0,235.5,167.0,227.0,167.5,219.0,168.0,211.0,169.0,203.0,169.5,195.0,169.5,187.0,170.5,178.5,171.0,170.0,171.5,162.0,172.0,153.5,172.5,146.0,173.0,138.5,173.5,130.5,174.0,122.0,174.5,114.5,175.5" stroke="black" stroke-width="2" fill="none" />
<polyline points="107.0,167.5,98.5,168.5,90.0,170.0,82.0,170.5,74.5,171.0,66.5,172.0,59.0,172.0,51.0,172.5,43.5,173.0,35.5,173.0,27.5,173.5" stroke="black" stroke-width="2" fill="none" />
<polyline points="35.0,177.5,42.5,177.5" stroke="black" stroke-width="2" fill="none" />
<polyline points="42.0,169.5,45.0,170.5,49.0,172.0,46.5,175.0,54.5,179.5,59.5,188.5,69.5,190.5,78.5,190.0,84.5,177.5,90.5,177.5,92.5,177.5,84.5,191.5,84.5,201.5,84.5,206.0,86.5,217.5,92.5,224.5,97.5,238.5,104.0,234.5,109.0,245.0,109.5,252.5,114.5,256.0" stroke="black" stroke-width="2" fill="none" />
<polyline points="72.5,244.0,77.0,238.0,75.0,228.0,80.0,220.0,86.0,213.0,93.0,207.5,91.0,203.0,91.0,194.5,96.0,186.0,97.0,178.0,95.0,172.0,82.0,173.0,97.0,172.0,100.0,163.0,107.0,155.5,107.5,156.5" stroke="black" stroke-width="2" fill="none" />
<polyline points="108.5,155.5,117.0,147.5,125.0,139.5" stroke="black" stroke-width="2" fill="none" />
<polyline points="115.0,139.5,107.0,147.0,98.5,155.0" stroke="black" stroke-width="2" fill="none" />
<polyline points="91.0,153.5,99.0,146.5" stroke="black" stroke-width="2" fill="none" />
<polyline points="92.0,148.0,84.0,155.0,76.0,162.0,68.0,169.0,59.5,177.0,51.0,185.0,43.5,192.5,35.5,200.5,27.5,208.0" stroke="black" stroke-width="2" fill="none" />
<polyline points="27.5,213.5,36.0,213.0,44.0,212.5,52.5,211.5,61.0,211.0,69.5,210.0,77.5,209.5,85.0,209.0,92.5,209.0,101.0,208.5,109.0,208.0,117.0,207.5,125.0,207.0,133.0,206.0,141.0,205.0,149.5,204.5,157.0,204.0,165.0,204.5,173.0,204.5,181.0,204.0,189.0,203.5,197.5,203.5,205.5,203.0,213.0,202.5,221.0,201.5,229.0,201.0,236.5,200.5,244.0,200.0,251.5,199.0" stroke="black" stroke-width="2" fill="none" />
<polyline points="259.5,138.5,250.5,139.0,242.5,139.5,234.5,140.0,226.5,140.5,219.0,141.0,211.5,141.5,203.5,142.0,196.0,142.0,188.0,142.5,180.0,143.0,172.0,144.5,164.0,145.5,156.0,146.5,148.0,147.0,140.0,147.5,132.0,147.5,124.0,147.5,116.0,147.5,108.0,147.5,100.5,148.0,92.5,148.0,84.5,148.5,76.5,148.0,69.0,148.5" stroke="black" stroke-width="2" fill="none" />
<polyline points="72.5,147.5,54.5,155.0,41.5,163.0,32.5,170.5,25.0,178.0,22.0,186.0,21.0,194.0,21.0,201.5,23.0,209.5,27.0,217.5,35.0,226.0,44.0,234.0,55.0,238.0,62.0,238.5,66.0,245.0,74.0,248.0,82.0,251.0,88.0,253.0,96.0,255.5,106.0,252.0,114.0,255.0,123.0,255.0,133.0,249.5,143.5,237.5,151.0,223.0,162.0,226.0,177.5,230.5,193.5,235.5" stroke="black" stroke-width="2" fill="none" />
<polyline points="244.5,207.0,236.0,208.0,227.5,208.5,219.5,209.0,212.0,210.5,203.5,211.5,195.5,212.5,187.5,213.0,179.5,213.5,171.0,213.0,163.0,213.0,155.0,213.5,147.0,214.0,139.0,214.0,131.5,214.0,123.5,214.0,115.5,214.0,107.0,214.5,99.5,215.0,91.0,215.0,83.0,215.5,75.5,216.5,67.5,217.5,59.5,218.0,52.0,219.0,44.5,220.0,36.5,221.0,28.5,222.0" stroke="black" stroke-width="2" fill="none" />
<polyline points="36.5,225.0,45.0,217.5,53.0,210.0,60.5,202.0,68.5,194.5,76.5,187.0,85.0,179.5" stroke="black" stroke-width="2" fill="none" />
<polyline points="89.5,176.5,88.5,184.5,96.0,195.5,98.0,203.0,100.5,211.5,87.5,217.5,84.5,226.5,88.0,239.0,91.5,249.0" stroke="black" stroke-width="2" fill="none" />
<polyline points="128.0,206.0,119.0,216.0,110.0,213.0,100.0,210.5,98.5,201.5,97.5,193.5,99.5,189.5,99.5,181.0,102.0,172.5" stroke="black" stroke-width="2" fill="none" />
<polyline points="100.5,160.5,92.5,162.0,84.5,162.5,75.5,163.5,67.0,164.5,58.0,165.0,49.5,165.5,41.5,166.0" stroke="black" stroke-width="2" fill="none" />
<polyline points="46.5,164.5,52.0,168.0,60.5,165.0,67.5,163.0,75.0,161.0,83.0,163.0" stroke="black" stroke-width="2" fill="none" />
<polyline points="83.0,173.0,75.0,180.5,67.5,188.0,60.0,195.5,52.0,203.0,44.5,210.0,36.5,217.5" stroke="black" stroke-width="2" fill="none" />
<polyline points="28.0,216.0,35.5,208.5,43.5,201.0,52.0,194.5,59.5,187.5,67.5,180.5,75.5,173.0" stroke="black" stroke-width="2" fill="none" />
<polyline points="70.0,174.0,62.5,173.0,54.5,168.0" stroke="black" stroke-width="2" fill="none" />
<polyline points="53.0,164.0,45.0,171.0,36.5,178.5,29.0,185.5" stroke="black" stroke-width="2" fill="none" />
<polyline points="30.5,188.5,38.5,193.5,46.0,189.5" stroke="black" stroke-width="2" fill="none" />
<polyline points="36.5,200.0,28.0,200.5" stroke="black" stroke-width="2" fill="none" />
<polyline points="28.0,200.0,36.0,193.0,44.5,185.5,52.0,178.0,60.0,171.5,67.5,164.0,75.5,156.0,83.5,148.5" stroke="black" stroke-width="2" fill="none" />
<polyline points="92.0,142.5,100.0,142.0,108.0,142.0,116.0,141.5,124.0,140.5,131.5,139.5,140.0,138.5,148.5,138.0,156.5,137.0,165.0,136.0,173.0,135.0,180.5,135.0,188.5,134.5" stroke="black" stroke-width="2" fill="none" />
<polyline points="190.0,146.0,209.5,154.0,222.5,162.0,233.5,170.0,241.0,177.5,245.5,185.5,247.0,193.5,247.0,201.5,245.0,209.5,240.0,217.5,233.0,226.0,222.0,234.0,215.0,238.5,207.0,237.5,215.0,234.0,220.0,236.0,228.0,230.0,236.0,222.5,244.0,212.0" stroke="black" stroke-width="2" fill="none" />
<polyline points="252.0,191.5,244.0,191.5,235.5,192.0,227.5,192.5,219.5,193.5,210.5,194.5,202.5,195.0,194.0,195.5,185.5,196.5,177.5,197.0,170.0,197.5,162.0,198.0,154.5,198.5,146.5,199.0,138.5,200.0,130.5,200.0,122.5,199.5,114.5,199.5,106.5,200.0,98.5,200.0,90.5,201.0,82.5,202.0,74.5,203.0,66.0,204.5,58.0,205.0,50.5,206.0,42.5,206.0,35.0,207.0,27.0,207.5,19.0,208.5" stroke="black" stroke-width="2" fill="none" />
<polyline points="21.5,198.0,29.5,198.0,37.0,197.5,45.0,197.0,52.0,197.0,59.5,196.0,67.5,195.5,76.0,195.0,84.0,194.0,91.5,192.5,99.5,192.0,107.5,192.0,115.0,192.5,122.5,192.0,130.5,191.0,138.5,190.5,146.5,190.0,154.5,189.5,162.5,189.5,170.0,189.0,178.0,188.5,186.0,188.0,194.0,187.5,202.0,187.0,210.0,186.5,218.0,186.0,226.5,185.5,235.5,185.0,244.0,185.0,252.0,185.0,260.0,184.5" stroke="black" stroke-width="2" fill="none" />
<polyline points="258.0,177.5,250.0,178.0,242.0,178.5,233.5,178.5,226.0,178.5,218.0,179.0,209.5,179.0,201.5,179.5,194.0,179.5,186.5,179.5,178.0,180.0,170.0,180.5,162.5,181.5,155.0,182.0,147.5,182.0,140.0,182.0,132.0,183.0,124.0,183.5,116.0,184.5,108.0,184.5,99.5,185.0,92.0,186.0,84.0,186.5,76.0,186.5,68.5,187.0,60.5,187.5,53.0,188.0,45.0,189.0,37.5,190.0,30.0,190.5,22.0,191.5" stroke="black" stroke-width="2" fill="none" />
<polyline points="25.0,192.5,33.0,198.0" stroke="black" stroke-width="2" fill="none" />
<polyline points="29.0,193.0,37.0,185.5,45.0,178.5,53.5,171.0,61.5,163.5,69.0,155.5" stroke="black" stroke-width="2" fill="none" />
<polyline points="64.0,154.0,72.0,154.0,64.5,156.5,62.5,164.5,72.5,171.0,60.0,175.5,55.0,180.5,65.0,183.5,75.5,187.5,83.5,189.5,77.5,196.5,64.5,202.5,71.0,204.5,69.5,210.5,70.5,217.5,64.5,226.5,58.0,234.0,66.0,229.5,76.0,235.5,87.5,239.0,96.0,246.0,109.5,240.0,120.5,236.0,126.5,234.0,136.5,219.0,144.0,207.0,154.0,198.0,163.0,201.0,178.0,205.5,185.0,198.5,199.0,201.5,210.0,200.5,224.0,201.5,220.0,209.5,225.5,220.5,225.0,229.5" stroke="black" stroke-width="2" fill="none" />
<polyline points="196.0,169.5,189.0,171.5,188.0,159.0,179.5,164.5,171.5,162.5" stroke="black" stroke-width="2" fill="none" />
<polyline points="148.0,112.0,140.5,112.5" stroke="black" stroke-width="2" fill="none" />
<polyline points="133.0,107.0,125.0,114.5" stroke="black" stroke-width="2" fill="none" />
<polyline points="124.0,117.0,132.0,117.0,139.5,116.5,147.0,116.0" stroke="black" stroke-width="2" fill="none" />
<polyline points="147.0,103.5,155.5,103.0" stroke="black" stroke-width="2" fill="none" />
<polyline points="155.0,90.5,147.0,98.0,138.5,105.0,130.5,113.0,122.5,121.0" stroke="black" stroke-width="2" fill="none" />
<polyline points="116.5,114.0,125.0,106.5,133.0,98.5" stroke="black" stroke-width="2" fill="none" />
<polyline points="140.0,99.0,148.0,91.0" stroke="black" stroke-width="2" fill="none" />
<polyline points="147.5,84.0,140.0,91.5" stroke="black" stroke-width="2" fill="none" />
<polyline points="139.0,88.5,146.5,88.5" stroke="black" stroke-width="2" fill="none" />
<polyline points="148.0,77.5,140.0,85.0,132.0,92.0,124.0,98.5,116.0,105.5" stroke="black" stroke-width="2" fill="none" />
<polyline points="115.5,112.0,123.5,111.0,132.0,110.0,140.0,109.5,148.0,109.5,156.0,109.0" stroke="black" stroke-width="2" fill="none" />
<polyline points="156.5,77.0,164.5,76.0" stroke="black" stroke-width="2" fill="none" />
<polyline points="164.0,68.5,156.0,75.5" stroke="black" stroke-width="2" fill="none" />
<polyline points="148.0,66.0,156.5,58.5" stroke="black" stroke-width="2" fill="none" />
<polyline points="146.0,62.5,138.0,69.5" stroke="black" stroke-width="2" fill="none" />
<polyline points="140.0,72.0,148.0,80.0,151.0,88.5" stroke="black" stroke-width="2" fill="none" />
<polyline points="140.0,75.0,132.5,82.0,125.0,90.0,117.0,97.5" stroke="black" stroke-width="2" fill="none" />
<polyline points="116.5,92.5,124.0,85.0" stroke="black" stroke-width="2" fill="none" />
<polyline points="124.5,89.0,130.5,91.0,129.0,98.5,138.0,93.5,134.5,101.5" stroke="black" stroke-width="2" fill="none" />
<polyline points="118.0,86.5,126.0,86.0,133.0,85.0,140.5,84.5,147.5,84.0,155.5,83.0,163.0,83.0" stroke="black" stroke-width="2" fill="none" />
<polyline points="154.5,64.5,146.5,65.0,138.5,65.0" stroke="black" stroke-width="2" fill="none" />
<polyline points="131.5,66.0,139.0,58.5,147.5,51.0" stroke="black" stroke-width="2" fill="none" />
<polyline points="141.0,52.5,133.0,60.0,125.0,67.5" stroke="black" stroke-width="2" fill="none" />
<polyline points="117.0,66.0,124.5,65.0,132.5,64.0" stroke="black" stroke-width="2" fill="none" />
<polyline points="127.5,52.5,118.5,54.5,110.5,59.5,110.0,60.5,125.0,53.0" stroke="black" stroke-width="2" fill="none" />
<polyline points="132.5,50.0,125.0,58.0,117.5,66.0,109.0,73.5" stroke="black" stroke-width="2" fill="none" />
<polyline points="107.0,80.5,115.0,71.0,113.0,72.0,108.0,80.0,103.5,88.0,111.5,96.5,120.5,96.5,126.5,106.0,134.5,102.0" stroke="black" stroke-width="2" fill="none" />
<polyline points="158.5,100.5,154.5,104.5,155.0,91.0,157.0,82.5,156.0,74.5,142.0,71.0,134.0,75.0,126.0,77.5,118.0,83.5" stroke="black" stroke-width="2" fill="none" />
<polyline points="118.5,76.0,112.5,84.0,112.0,92.0,115.0,94.5,122.5,99.5,126.0,91.5" stroke="black" stroke-width="2" fill="none" />
<polyline points="127.0,102.0,119.0,100.5,111.5,95.5,104.0,86.5" stroke="black" stroke-width="2" fill="none" />
<polyline points="105.5,85.0,97.5,85.0" stroke="black" stroke-width="2" fill="none" />
<polyline points="98.5,86.0,106.5,101.0,114.5,110.0,122.5,120.5,130.5,131.0" stroke="black" stroke-width="2" fill="none" />
<polyline points="109.0,101.0,117.0,101.0,124.5,100.5,132.0,100.5,140.0,100.0,147.5,99.5,155.5,98.5,163.0,98.0" stroke="black" stroke-width="2" fill="none" />
<polyline points="162.0,57.5,154.5,58.5,146.5,59.5,139.0,60.0,131.5,61.0,124.0,61.5,116.5,62.0,108.5,62.5" stroke="black" stroke-width="2" fill="none" />
<polyline points="106.5,66.5,114.5,58.5" stroke="black" stroke-width="2" fill="none" />
<polyline points="115.0,52.0,123.0,51.0,131.0,50.0,138.5,49.5,147.0,49.5,154.5,49.0" stroke="black" stroke-width="2" fill="none" />
<polyline points="140.5,50.5,154.5,58.5,159.0,66.5,163.0,75.0,162.5,83.0,160.0,90.5,155.0,98.5,151.5,106.5,147.5,114.5,143.0,122.0,139.0,130.0,139.0,137.0,146.5,138.5,154.5,138.5,162.5,139.5,170.5,141.5,178.5,143.5,186.5,145.5,194.5,147.5,202.5,152.0,210.0,156.0,218.0,160.0,226.0,164.5,234.0,171.5,242.0,182.5" stroke="black" stroke-width="2" fill="none" />
<polyline points="163.5,89.0,156.0,89.5,148.0,90.0,140.0,90.0,132.0,90.5,124.0,91.0,115.5,91.5,107.0,92.0,98.5,92.5" stroke="black" stroke-width="2" fill="none" />
<polyline points="99.0,78.0,107.0,77.0,114.5,77.0,122.5,76.0,131.0,75.0,139.5,74.0,147.0,74.0" stroke="black" stroke-width="2" fill="none" />
<polyline points="162.5,65.0,155.0,65.0,147.0,65.0,140.0,65.5,132.5,66.5,124.5,67.5,116.5,68.5,108.5,69.5,100.5,69.5" stroke="black" stroke-width="2" fill="none" />
<polyline points="98.0,76.0,106.0,60.0,113.5,53.5,121.5,49.5,129.5,48.5,137.5,49.5,145.5,52.5,153.5,58.5,161.5,74.5" stroke="black" stroke-width="2" fill="none" />
<polyline points="155.5,72.5,147.5,67.0,139.0,66.0,131.0,66.0,123.5,67.5,115.5,78.5,117.5,84.5,123.5,76.5" stroke="black" stroke-width="2" fill="none" />
<polyline points="99.0,154.5,90.5,155.5,82.0,156.5,73.5,156.5,65.0,157.0,56.5,157.5,49.0,158.0" stroke="black" stroke-width="2" fill="none" />
<polyline points="49.5,161.0,40.5,169.0,39.5,177.0,36.5,179.0,36.5,186.5,36.5,195.0,43.0,200.5,54.5,203.0,54.0,211.0,43.0,223.0,43.5,230.0,46.5,235.0,54.0,236.5,62.0,239.5,71.5,236.5" stroke="black" stroke-width="2" fill="none" />
<polyline points="36.5,192.0,28.5,192.5" stroke="black" stroke-width="2" fill="none" />
<polyline points="23.0,198.0,28.0,211.0,25.5,215.5,33.5,223.5,43.5,221.0,54.5,208.0,58.5,201.0" stroke="black" stroke-width="2" fill="none" />
<polyline points="51.0,192.0,43.5,197.0,36.0,211.5,35.0,221.5,34.5,213.5,27.0,204.0,24.5,202.5,30.5,193.0,25.5,185.0,30.5,181.0,35.0,173.5,32.0,181.5" stroke="black" stroke-width="2" fill="none" />
<polyline points="50.0,163.5,55.0,171.5,62.0,176.5,70.0,176.5" stroke="black" stroke-width="2" fill="none" />
<polyline points="65.5,162.5,69.5,162.5,58.5,156.5,56.0,164.5,58.0,169.5,66.5,167.5,69.0,165.0,77.5,166.0,75.5,165.0,78.5,167.0,74.5,174.0,77.5,179.0,67.0,183.0,75.0,180.0,83.5,171.0,91.5,167.0,98.5,169.0,106.5,156.5,114.5,154.5,122.0,154.0,130.0,146.0,140.0,153.5,153.0,164.5,149.5,170.5,151.5,171.5,152.0,180.0,146.0,184.0,155.0,188.0,154.0,196.5,153.0,202.5,166.0,205.5,173.0,212.5,170.0,223.5,168.5,229.5,173.5,235.5,181.5,235.5,181.0,246.5,178.0,246.0,168.5,254.0,176.5,250.5,185.0,250.5,192.5,249.5,200.0,245.5,207.5,242.5" stroke="black" stroke-width="2" fill="none" />
<polyline points="110.5,206.0,107.0,198.0,104.5,190.0" stroke="black" stroke-width="2" fill="none" />
<polyline points="84.0,225.0,75.0,219.0,73.0,206.0,67.0,197.5,56.0,196.5,45.5,193.0,50.0,186.0,45.5,183.5,51.0,175.5,55.0,167.5,52.0,159.5" stroke="black" stroke-width="2" fill="none" />
</svg>