<svg xmlns="http://www.w3.org/2000/svg" version="1.1"><polyline points="114.5,83.0,114.5,91.5,120.0,95.5,118.0,100.0,118.5,108.5,118.5,116.5,118.5,125.0,118.5,132.5,116.0,144.5,115.5,152.5,111.5,160.5,102.5,169.5,96.5,176.5,99.5,181.5,100.0,187.0,100.0,195.0,100.0,203.0,99.5,211.5,96.5,220.0,80.5,223.0,80.5,231.0,73.5,239.0,71.0,247.0,72.0,255.0" stroke="black" stroke-width="2" fill="none" />
<polyline points="68.0,257.5,76.0,250.0" stroke="black" stroke-width="2" fill="none" />
<polyline points="76.5,242.0,68.0,249.5,60.0,257.5" stroke="black" stroke-width="2" fill="none" />
<polyline points="52.0,258.0,60.0,250.5,68.0,243.0" stroke="black" stroke-width="2" fill="none" />
<polyline points="67.0,235.0,59.0,242.5,51.0,250.5,43.0,258.0" stroke="black" stroke-width="2" fill="none" />
<polyline points="35.0,256.5,42.5,249.0,50.0,241.5,58.0,234.5,65.5,227.0" stroke="black" stroke-width="2" fill="none" />
<polyline points="67.0,226.0,59.0,222.5" stroke="black" stroke-width="2" fill="none" />
<polyline points="67.0,219.0,59.0,226.5,51.5,234.0,44.0,241.5,36.0,248.0,28.5,255.5" stroke="black" stroke-width="2" fill="none" />
<polyline points="27.5,256.0,19.0,251.5" stroke="black" stroke-width="2" fill="none" />
<polyline points="17.5,248.5,20.5,256.5,28.0,256.5" stroke="black" stroke-width="2" fill="none" />
<polyline points="26.5,259.0,35.0,258.0,43.5,257.5,52.0,256.5,60.0,256.0" stroke="black" stroke-width="2" fill="none" />
<polyline points="53.0,249.5,45.5,249.5" stroke="black" stroke-width="2" fill="none" />
<polyline points="38.0,242.0,45.5,241.5,53.0,241.5" stroke="black" stroke-width="2" fill="none" />
<polyline points="44.5,234.0,37.0,234.5" stroke="black" stroke-width="2" fill="none" />
<polyline points="34.0,226.0,42.5,218.5,51.0,211.0,59.5,203.5,67.5,196.0" stroke="black" stroke-width="2" fill="none" />
<polyline points="67.0,198.5,63.0,206.5,69.0,215.5,69.0,223.5,65.5,230.0" stroke="black" stroke-width="2" fill="none" />
<polyline points="83.0,235.0,92.0,227.0,100.0,219.0" stroke="black" stroke-width="2" fill="none" />
<polyline points="101.0,212.0,92.5,219.5,84.0,226.5" stroke="black" stroke-width="2" fill="none" />
<polyline points="91.0,237.0,88.0,245.5,80.5,242.5" stroke="black" stroke-width="2" fill="none" />
<polyline points="84.0,250.5,92.0,243.0" stroke="black" stroke-width="2" fill="none" />
<polyline points="91.5,249.0,99.5,241.0,107.5,233.0" stroke="black" stroke-width="2" fill="none" />
<polyline points="109.5,235.0,103.0,242.5,102.0,250.5,104.5,248.5" stroke="black" stroke-width="2" fill="none" />
<polyline points="114.0,255.0,121.5,254.5,130.0,253.5,138.0,253.0,146.0,253.0,154.0,252.5,162.0,252.0,170.5,251.0,179.0,250.5,187.0,250.0,195.0,250.0,203.5,249.0,211.5,248.5,220.0,248.0,228.0,247.5,235.5,247.0,244.0,246.0,251.5,246.0,259.0,245.5" stroke="black" stroke-width="2" fill="none" />
<polyline points="260.5,242.5,252.0,250.0,243.5,258.0" stroke="black" stroke-width="2" fill="none" />
<polyline points="251.5,259.5,259.5,252.0" stroke="black" stroke-width="2" fill="none" />
<polyline points="259.5,235.0,251.5,242.0,243.0,249.5,235.0,257.0" stroke="black" stroke-width="2" fill="none" />
<polyline points="227.5,256.5,235.5,256.5,243.0,256.5,251.0,256.0,259.0,254.5" stroke="black" stroke-width="2" fill="none" />
<polyline points="258.5,227.5,250.5,235.0,242.5,242.5,234.5,250.5,226.5,258.5" stroke="black" stroke-width="2" fill="none" />
<polyline points="219.0,256.5,227.5,248.5,236.0,240.5,243.5,233.0,251.0,225.0,259.0,217.5" stroke="black" stroke-width="2" fill="none" />
<polyline points="258.5,210.5,251.0,217.5,243.0,225.0,235.0,233.0,228.0,241.5,220.5,249.5,213.0,257.0" stroke="black" stroke-width="2" fill="none" />
<polyline points="204.0,255.5,212.5,248.0,220.5,240.0,228.0,232.5,235.5,224.5,243.5,217.5,251.5,210.5,259.0,202.5" stroke="black" stroke-width="2" fill="none" />
<polyline points="261.5,194.0,253.0,201.5,245.0,209.5,236.5,217.5,227.5,225.0,219.0,233.0,210.0,240.5,201.5,248.5,193.0,256.5" stroke="black" stroke-width="2" fill="none" />
<polyline points="189.0,258.0,197.5,250.5,205.5,243.5" stroke="black" stroke-width="2" fill="none" />
<polyline points="196.5,242.0,188.5,249.0,179.5,257.0" stroke="black" stroke-width="2" fill="none" />
<polyline points="180.5,250.0,188.5,250.0" stroke="black" stroke-width="2" fill="none" />
<polyline points="194.5,250.5,202.5,250.0" stroke="black" stroke-width="2" fill="none" />
<polyline points="218.5,249.5,227.0,249.0,235.5,249.0,243.5,248.5,251.5,248.0,259.0,247.0" stroke="black" stroke-width="2" fill="none" />
<polyline points="258.5,208.0,251.0,209.0,242.5,209.5" stroke="black" stroke-width="2" fill="none" />
<polyline points="244.5,195.5,252.0,188.0,259.5,180.5" stroke="black" stroke-width="2" fill="none" />
<polyline points="260.5,187.5,252.5,195.0,244.5,202.0,236.5,210.0,229.0,218.0,221.0,225.5,212.5,233.0" stroke="black" stroke-width="2" fill="none" />
<polyline points="210.5,228.0,218.5,220.0,226.5,213.0" stroke="black" stroke-width="2" fill="none" />
<polyline points="227.0,216.0,234.5,215.5,242.5,215.5,250.5,215.5,259.0,215.5" stroke="black" stroke-width="2" fill="none" />
<polyline points="259.0,193.0,251.0,194.0,243.0,194.5" stroke="black" stroke-width="2" fill="none" />
<polyline points="236.0,194.5,244.0,187.0,252.0,179.0,260.5,171.5" stroke="black" stroke-width="2" fill="none" />
<polyline points="260.0,164.5,252.0,172.0,244.5,179.5,236.5,186.5,228.5,193.0,221.0,200.5,212.5,208.5" stroke="black" stroke-width="2" fill="none" />
<polyline points="221.0,208.5,229.0,205.5" stroke="black" stroke-width="2" fill="none" />
<polyline points="225.5,193.5,224.5,201.5,220.0,204.0,211.0,209.0,203.5,217.5,193.5,225.5,195.5,229.5,191.5,230.5,188.5,238.5,192.5,241.5,203.5,243.5,209.5,244.5,216.5,250.0,219.0,250.0,222.0,256.0" stroke="black" stroke-width="2" fill="none" />
<polyline points="219.0,243.0,227.5,242.0,235.5,241.5,244.0,241.0,252.0,240.5,259.5,240.0" stroke="black" stroke-width="2" fill="none" />
<polyline points="260.5,233.5,253.0,233.5,245.0,233.5,237.5,234.0,229.5,234.0,221.0,235.0" stroke="black" stroke-width="2" fill="none" />
<polyline points="212.0,225.5,220.0,224.5,228.5,224.0,236.0,224.0,243.5,223.5,251.5,223.0,259.5,222.5" stroke="black" stroke-width="2" fill="none" />
<polyline points="261.0,186.5,253.0,187.0,245.0,187.5" stroke="black" stroke-width="2" fill="none" />
<polyline points="251.0,175.5,259.5,175.0" stroke="black" stroke-width="2" fill="none" />
<polyline points="251.0,164.0,243.0,171.5,235.0,178.5,227.0,186.0,219.5,193.5,212.0,201.0,203.5,208.5" stroke="black" stroke-width="2" fill="none" />
<polyline points="203.0,215.0,211.0,214.5,219.0,214.0,227.5,212.5,236.0,211.5,244.0,210.5,252.0,210.0,260.0,209.5" stroke="black" stroke-width="2" fill="none" />
<polyline points="260.0,169.0,251.5,169.5,244.0,170.0" stroke="black" stroke-width="2" fill="none" />
<polyline points="241.5,165.0,233.5,172.5,225.5,179.5,217.5,187.0,210.0,194.5,202.0,201.5,194.0,209.0,186.5,217.0,178.5,224.5,170.0,232.5,162.0,239.5,154.0,247.0" stroke="black" stroke-width="2" fill="none" />
<polyline points="162.5,250.5,170.5,249.5" stroke="black" stroke-width="2" fill="none" />
<polyline points="172.0,257.5,180.0,250.0,188.5,242.0,197.0,234.0" stroke="black" stroke-width="2" fill="none" />
<polyline points="194.0,232.5,199.0,240.5" stroke="black" stroke-width="2" fill="none" />
<polyline points="208.0,240.5,204.0,232.5" stroke="black" stroke-width="2" fill="none" />
<polyline points="203.5,229.0,211.0,228.5,219.5,227.5,227.5,226.5,235.0,226.5,243.0,226.0,251.0,225.0,259.5,224.0" stroke="black" stroke-width="2" fill="none" />
<polyline points="211.5,219.0,203.5,226.5" stroke="black" stroke-width="2" fill="none" />
<polyline points="204.0,227.0,196.0,229.0" stroke="black" stroke-width="2" fill="none" />
<polyline points="195.5,226.0,188.0,226.0,180.5,227.0,173.0,227.5,165.0,228.0,157.0,229.0,149.0,229.5" stroke="black" stroke-width="2" fill="none" />
<polyline points="148.5,235.0,156.5,227.0,164.0,219.5" stroke="black" stroke-width="2" fill="none" />
<polyline points="164.5,225.5,156.0,226.0" stroke="black" stroke-width="2" fill="none" />
<polyline points="156.0,233.5,164.5,233.0" stroke="black" stroke-width="2" fill="none" />
<polyline points="165.0,236.0,157.0,243.5,149.0,251.5,141.0,259.0" stroke="black" stroke-width="2" fill="none" />
<polyline points="156.0,258.5,164.5,250.0,172.5,242.0,180.0,234.0,188.0,226.5" stroke="black" stroke-width="2" fill="none" />
<polyline points="188.5,235.5,180.5,243.5,172.5,251.5,164.5,259.5" stroke="black" stroke-width="2" fill="none" />
<polyline points="162.0,257.0,170.0,257.0,178.5,256.0,187.0,255.5,195.0,255.0,203.0,254.5,211.5,254.0,219.5,253.5" stroke="black" stroke-width="2" fill="none" />
<polyline points="220.5,233.5,212.5,232.0,203.5,233.0,201.0,242.0,189.0,248.0,186.0,248.0,178.0,244.0,165.5,246.0,165.5,244.0,151.5,247.0,138.0,254.0,135.0,255.0,125.5,254.0,118.0,250.5,116.0,246.5,109.0,253.5,109.0,248.5,112.0,248.5,119.5,240.0,129.5,239.0,118.0,235.0,117.0,222.0,120.0,222.0,118.0,211.0,120.0,205.5,116.5,202.5,121.5,195.5,118.0,193.5,114.0,185.5,116.0,177.5,119.0,176.5,118.0,168.5,118.0,160.5,118.0,153.0,118.0,145.0,115.0,140.0,110.0,138.0,114.5,127.0,108.5,124.0,111.5,112.5,111.5,104.5,108.5,95.5,109.5,89.5,121.5,88.5,118.5,82.5" stroke="black" stroke-width="2" fill="none" />
<polyline points="118.5,84.0,122.5,102.0,122.5,110.0,126.0,120.0,126.0,128.0,125.0,136.0,123.0,141.0,127.0,150.0,127.0,153.0,130.0,157.5,137.5,156.5,139.5,160.5,144.0,162.0,146.0,153.0,155.0,148.0,157.0,153.0,165.0,151.0,173.0,151.0,175.0,155.0,180.5,159.5,181.5,151.5,185.5,157.5,195.5,165.0,203.5,165.0,212.0,165.0,211.0,155.5,216.0,160.5,224.5,162.0,233.0,162.0,241.0,162.0,253.0,157.0" stroke="black" stroke-width="2" fill="none" />
<polyline points="249.0,147.5,241.5,155.0" stroke="black" stroke-width="2" fill="none" />
<polyline points="245.5,154.0,237.5,153.0" stroke="black" stroke-width="2" fill="none" />
<polyline points="236.0,156.0,243.5,155.5,252.0,155.0,260.0,155.0" stroke="black" stroke-width="2" fill="none" />
<polyline points="234.0,150.5,226.0,158.0" stroke="black" stroke-width="2" fill="none" />
<polyline points="232.0,160.0,240.0,160.0,251.0,161.5" stroke="black" stroke-width="2" fill="none" />
<polyline points="228.5,171.5,220.0,178.5" stroke="black" stroke-width="2" fill="none" />
<polyline points="226.0,177.0,234.0,176.5,242.5,176.0" stroke="black" stroke-width="2" fill="none" />
<polyline points="260.0,177.0,251.5,178.0,243.5,179.0,235.5,180.0,227.5,180.5,219.5,181.0,211.5,181.5,203.5,181.5,196.0,181.5,187.5,181.5" stroke="black" stroke-width="2" fill="none" />
<polyline points="179.5,188.5,187.0,188.0,195.5,187.5,203.5,187.5,211.5,187.5,220.0,186.5,228.0,186.5,236.0,186.5,244.0,185.5,252.5,184.0,261.0,183.5" stroke="black" stroke-width="2" fill="none" />
<polyline points="219.0,198.0,211.0,198.5" stroke="black" stroke-width="2" fill="none" />
<polyline points="212.0,187.0,203.5,194.5,195.0,202.0,186.5,209.5" stroke="black" stroke-width="2" fill="none" />
<polyline points="188.5,207.5,193.5,209.5,197.5,217.5,193.0,221.5,185.0,226.5,184.5,235.0,198.5,235.5,209.5,225.5,211.5,228.0,211.5,236.0" stroke="black" stroke-width="2" fill="none" />
<polyline points="209.0,235.5,205.0,227.5" stroke="black" stroke-width="2" fill="none" />
<polyline points="202.5,227.0,200.5,235.0,205.5,248.0,214.0,244.5,218.0,248.0,226.5,252.0" stroke="black" stroke-width="2" fill="none" />
<polyline points="204.0,222.5,211.5,222.5,219.0,221.5,227.0,221.0,234.0,220.0,242.0,219.5,250.0,218.5,258.0,218.0" stroke="black" stroke-width="2" fill="none" />
<polyline points="211.0,178.0,203.5,186.0,195.0,194.0,186.5,201.5,178.5,209.5" stroke="black" stroke-width="2" fill="none" />
<polyline points="179.0,201.5,187.5,200.5,195.5,199.5,203.5,199.0" stroke="black" stroke-width="2" fill="none" />
<polyline points="197.0,211.0,189.0,212.0,180.5,213.0,172.5,213.5,165.0,213.5,157.0,214.5" stroke="black" stroke-width="2" fill="none" />
<polyline points="156.0,205.5,164.0,205.0" stroke="black" stroke-width="2" fill="none" />
<polyline points="171.5,204.5,179.5,204.0,187.5,203.5,195.5,203.0,203.5,202.5,212.0,201.5,219.5,201.5,228.0,201.0,236.5,201.0,244.5,201.0,252.5,200.5,260.5,199.5" stroke="black" stroke-width="2" fill="none" />
<polyline points="259.5,192.0,251.5,192.5,244.0,193.0,235.5,193.0,227.5,193.0,219.0,193.5,210.5,194.5,202.5,195.0,194.5,195.5,186.5,196.5,178.5,197.5,171.0,198.5" stroke="black" stroke-width="2" fill="none" />
<polyline points="170.0,192.0,169.5,200.5,169.5,208.5" stroke="black" stroke-width="2" fill="none" />
<polyline points="179.5,201.5,188.5,194.0,197.0,186.5,205.0,178.5" stroke="black" stroke-width="2" fill="none" />
<polyline points="210.0,170.5,218.0,163.0" stroke="black" stroke-width="2" fill="none" />
<polyline points="215.5,165.0,223.5,164.5,219.5,169.5,219.5,177.5,211.0,187.0,212.5,189.0" stroke="black" stroke-width="2" fill="none" />
<polyline points="215.0,178.0,216.0,170.0,216.0,169.5" stroke="black" stroke-width="2" fill="none" />
<polyline points="211.0,165.5,208.0,174.0,206.5,177.0,210.5,178.0,209.0,185.5,205.0,193.0,205.0,193.5,208.5,199.5" stroke="black" stroke-width="2" fill="none" />
<polyline points="196.5,202.0,188.5,204.0" stroke="black" stroke-width="2" fill="none" />
<polyline points="192.0,211.0,190.0,218.5" stroke="black" stroke-width="2" fill="none" />
<polyline points="181.5,218.5,173.0,226.5" stroke="black" stroke-width="2" fill="none" />
<polyline points="173.5,220.5,165.0,228.5,157.0,236.5,148.5,244.0,140.5,251.0,132.0,259.0" stroke="black" stroke-width="2" fill="none" />
<polyline points="124.5,258.5,132.0,251.5,140.0,244.0" stroke="black" stroke-width="2" fill="none" />
<polyline points="138.5,235.5,146.5,235.0,154.0,234.5,162.0,234.0,169.5,234.0,178.0,233.5,185.5,233.5,193.5,233.5,202.0,233.0,211.0,233.0,218.5,232.5,227.0,232.0,234.5,231.0,242.5,230.5,251.0,230.5,259.0,230.0" stroke="black" stroke-width="2" fill="none" />
<polyline points="219.0,155.5,227.5,148.5" stroke="black" stroke-width="2" fill="none" />
<polyline points="226.5,150.5,218.5,151.0,210.0,151.5,202.0,152.0,194.0,152.5,186.0,153.5,178.0,154.5,170.0,155.5,162.5,156.5,154.0,157.0,146.0,157.5,138.0,157.5,130.5,158.0,122.5,158.0" stroke="black" stroke-width="2" fill="none" />
<polyline points="121.5,151.5,129.5,150.5,137.5,149.5,145.5,148.5,153.5,148.0,161.5,147.0,169.5,147.0,178.0,146.0,186.5,145.5,194.5,145.0,202.5,144.5,211.0,144.0,219.5,144.0,227.5,143.5,235.5,143.0,243.0,142.0,251.0,141.5,259.0,141.0" stroke="black" stroke-width="2" fill="none" />
<polyline points="258.0,138.0,251.0,138.5,243.5,139.0,236.0,139.5,228.5,140.0,221.0,140.5,213.0,141.5,204.5,142.5,196.0,142.5,188.0,143.0" stroke="black" stroke-width="2" fill="none" />
<polyline points="180.5,143.0,188.5,143.5,197.0,142.5,205.0,143.0,213.0,143.0,221.5,143.0,230.0,143.0,238.5,143.5,246.5,143.5,255.0,141.0,257.0,147.0" stroke="black" stroke-width="2" fill="none" />
<polyline points="258.0,165.0,250.5,165.0,243.0,165.0,235.0,165.5,227.0,167.0,219.0,167.5,211.5,167.5,203.5,167.5,195.0,168.5,187.0,168.5,179.5,168.5,171.0,169.5,163.0,170.5,155.0,171.0,147.0,172.0,138.5,172.5,131.0,173.5,122.5,174.5" stroke="black" stroke-width="2" fill="none" />
<polyline points="123.0,167.0,131.0,166.5,138.5,165.5,146.5,164.5,154.5,163.5,163.0,162.5,171.0,162.0,179.0,161.0,187.0,160.5,195.0,160.0,203.0,159.0,210.5,158.5,218.5,158.5,226.5,158.5,235.0,158.5,243.0,158.0,251.0,157.5,259.0,156.5" stroke="black" stroke-width="2" fill="none" />
<polyline points="251.5,124.0,243.5,124.0,235.5,124.5,227.0,123.5,219.5,123.5" stroke="black" stroke-width="2" fill="none" />
<polyline points="217.5,120.0,225.0,119.0,233.5,119.5,241.5,119.5,249.5,120.0" stroke="black" stroke-width="2" fill="none" />
<polyline points="252.5,152.0,244.5,151.5,236.5,151.0,232.5,155.0,224.5,153.5,221.5,158.0,213.0,155.0" stroke="black" stroke-width="2" fill="none" />
<polyline points="202.5,151.0,208.0,154.0,204.0,154.5,213.0,159.5,206.0,164.5,201.5,172.0,194.0,176.0,189.0,184.0,179.5,188.5,183.0,188.5,191.0,184.5,202.0,183.5,210.0,184.5,223.0,189.5,224.0,191.5,233.0,195.5,241.0,202.0" stroke="black" stroke-width="2" fill="none" />
<polyline points="181.0,171.0,173.0,178.0" stroke="black" stroke-width="2" fill="none" />
<polyline points="164.5,172.5,172.5,165.5" stroke="black" stroke-width="2" fill="none" />
<polyline points="180.0,162.0,185.0,165.0,185.0,172.5,185.0,185.0,187.0,184.5,191.0,175.5,202.0,183.0" stroke="black" stroke-width="2" fill="none" />
<polyline points="194.0,152.0,195.5,149.5,203.0,151.0,193.0,151.0,194.0,159.5,186.5,161.5,189.0,164.5,195.5,168.5,191.0,169.5,188.0,177.0,182.0,181.0,175.0,189.0,175.0,197.0,176.0,205.0,177.5,213.5,184.5,218.0,177.5,219.0,175.0,219.5,180.0,214.5,191.5,215.5,199.5,209.5,207.5,211.5,215.5,208.0,220.0,210.0,220.5,206.0,228.5,199.0,236.5,199.5,246.5,202.0,254.5,197.0" stroke="black" stroke-width="2" fill="none" />
<polyline points="194.5,218.0,186.5,218.5,179.0,219.0,171.0,219.5,162.5,220.0,154.5,220.0,146.5,220.5" stroke="black" stroke-width="2" fill="none" />
<polyline points="141.0,210.5,133.0,218.0" stroke="black" stroke-width="2" fill="none" />
<polyline points="132.0,210.0,139.5,202.5,147.5,195.0" stroke="black" stroke-width="2" fill="none" />
<polyline points="147.5,187.0,139.5,194.5,131.5,202.0" stroke="black" stroke-width="2" fill="none" />
<polyline points="133.0,200.0,141.0,199.5" stroke="black" stroke-width="2" fill="none" />
<polyline points="140.0,207.5,132.5,207.5" stroke="black" stroke-width="2" fill="none" />
<polyline points="124.0,202.0,132.0,194.5,140.0,187.0,148.0,179.5" stroke="black" stroke-width="2" fill="none" />
<polyline points="147.0,180.5,151.0,180.5,149.0,188.5,148.0,196.5,146.0,205.0,137.5,213.0,133.5,216.0,133.5,216.5" stroke="black" stroke-width="2" fill="none" />
<polyline points="124.0,218.5,115.5,226.5" stroke="black" stroke-width="2" fill="none" />
<polyline points="115.0,230.0,107.0,231.0,98.5,231.5,91.0,232.5,82.5,233.5,74.5,234.0,66.5,234.5,58.5,235.0,50.5,235.5,42.5,235.5,34.5,235.5,27.0,235.5,19.5,235.5,11.5,236.5,3.5,236.5" stroke="black" stroke-width="2" fill="none" />
<polyline points="1.0,229.5,9.0,229.5,17.5,229.5,25.5,229.5,34.0,229.0,42.5,228.5,50.5,228.0,58.5,227.5,66.5,227.0,75.0,226.5,83.0,226.0,91.0,225.5,98.5,224.5,106.5,223.5,114.5,222.5,123.0,221.5" stroke="black" stroke-width="2" fill="none" />
<polyline points="122.5,211.5,114.5,219.0,106.5,226.0" stroke="black" stroke-width="2" fill="none" />
<polyline points="106.5,222.0,115.0,221.5,123.5,221.5,131.5,221.0" stroke="black" stroke-width="2" fill="none" />
<polyline points="140.0,211.0,132.5,212.0,125.0,213.5,117.0,215.0,108.5,215.5" stroke="black" stroke-width="2" fill="none" />
<polyline points="108.5,212.5,116.5,209.5" stroke="black" stroke-width="2" fill="none" />
<polyline points="108.5,207.0,116.5,206.5,124.5,205.5,132.0,204.5,139.5,203.0,147.0,202.5" stroke="black" stroke-width="2" fill="none" />
<polyline points="164.5,195.0,156.5,195.5,148.5,195.5,140.5,196.5,132.5,196.5,124.5,196.5,116.0,197.0,108.0,197.5" stroke="black" stroke-width="2" fill="none" />
<polyline points="102.5,195.0,103.5,203.5,104.0,211.5,100.0,220.0,95.5,223.0,101.5,228.0,92.5,237.0,91.5,251.0,91.5,257.0,99.5,253.0,101.0,257.0,108.5,255.0,117.5,255.0,121.5,248.5,129.5,238.0,138.0,234.0,146.0,232.5,154.0,230.5,162.0,231.5" stroke="black" stroke-width="2" fill="none" />
<polyline points="155.0,234.5,154.5,242.5,152.5,253.0" stroke="black" stroke-width="2" fill="none" />
<polyline points="172.5,237.0,180.0,236.0" stroke="black" stroke-width="2" fill="none" />
<polyline points="165.0,224.0,160.0,221.5,158.0,216.5,159.0,208.5,165.5,207.0,165.5,199.0,165.0,192.0,168.5,189.0,163.5,186.0,155.5,184.5" stroke="black" stroke-width="2" fill="none" />
<polyline points="157.5,186.0,157.5,194.0,157.0,202.0" stroke="black" stroke-width="2" fill="none" />
<polyline points="148.5,196.5,141.0,193.5,143.5,189.5,148.0,181.5,141.0,175.5,138.0,172.5,140.0,169.5,132.0,176.5" stroke="black" stroke-width="2" fill="none" />
<polyline points="148.5,172.0,140.5,179.5,132.5,186.5,124.5,193.5" stroke="black" stroke-width="2" fill="none" />
<polyline points="124.5,190.0,116.5,189.0" stroke="black" stroke-width="2" fill="none" />
<polyline points="114.5,180.5,122.5,180.0,131.0,180.0,139.0,180.0,147.0,179.5,155.5,180.0" stroke="black" stroke-width="2" fill="none" />
<polyline points="153.5,179.5,161.5,187.5,161.5,195.5,161.0,203.5,161.0,211.5,170.0,214.5,180.0,211.5,191.0,211.0,195.0,205.0,203.0,209.5,199.0,217.5,197.0,217.5" stroke="black" stroke-width="2" fill="none" />
<polyline points="212.0,212.5,209.0,219.5,201.5,218.5,193.5,225.5,180.0,225.0,166.0,230.0,167.5,232.0,166.0,230.5,171.5,221.5,170.5,214.0,175.5,210.5,175.5,202.0,175.0,193.5,172.5,185.5,169.5,175.5,165.0,172.5,160.0,172.5,160.0,164.5,158.0,161.5,156.0,157.0,148.0,162.0" stroke="black" stroke-width="2" fill="none" />
<polyline points="154.0,163.0,147.5,162.5,148.0,171.0,157.0,169.0,157.0,177.0,156.0,185.0,155.0,193.0,148.0,200.5,155.0,201.5,152.5,209.0,150.0,217.5,141.5,216.0,149.5,220.0,146.5,227.5,144.0,234.5,136.0,239.0,144.0,241.0,151.5,243.0,148.5,245.0,140.5,255.0" stroke="black" stroke-width="2" fill="none" />
<polyline points="132.5,248.5,124.5,246.5" stroke="black" stroke-width="2" fill="none" />
<polyline points="123.0,246.5,130.5,246.0,138.5,245.0,147.0,244.0,155.5,243.0,163.5,242.5,172.0,241.5,180.0,240.5,188.0,240.0,196.0,239.0,204.0,239.0,211.5,238.5,220.0,238.0,228.0,238.0,236.0,238.5,244.0,238.5,252.0,237.5,259.5,236.5" stroke="black" stroke-width="2" fill="none" />
<polyline points="189.5,170.5,181.5,179.0,176.0,181.0,180.5,177.0,181.0,169.0,173.0,174.0,167.0,173.0,166.0,168.0,164.5,160.0,154.5,162.0" stroke="black" stroke-width="2" fill="none" />
<polyline points="173.0,160.5,164.0,154.0,168.5,152.0,168.5,148.0" stroke="black" stroke-width="2" fill="none" />
<polyline points="180.0,138.5,172.0,139.0,164.5,139.0,156.0,139.5,147.5,140.0,139.5,141.5,132.0,142.0" stroke="black" stroke-width="2" fill="none" />
<polyline points="127.5,145.5,135.5,145.5,143.5,146.0,151.5,145.0,159.5,146.0,167.5,144.5,175.5,144.5,178.0,147.5,184.0,149.5,177.5,156.0,174.0,156.0,176.0,164.0,168.0,160.0,174.0,160.0,182.0,166.0,192.0,172.0,196.0,173.0,201.5,179.0,209.5,180.5,218.0,176.5" stroke="black" stroke-width="2" fill="none" />
<polyline points="167.0,193.0,166.5,201.5,166.0,209.5" stroke="black" stroke-width="2" fill="none" />
<polyline points="163.0,187.5,154.5,187.5,147.0,188.0,139.5,188.0,131.5,188.5,123.5,189.0,115.0,190.0,106.5,190.5" stroke="black" stroke-width="2" fill="none" />
<polyline points="98.0,188.0,90.0,195.5,82.5,202.5" stroke="black" stroke-width="2" fill="none" />
<polyline points="90.5,203.0,98.5,195.5" stroke="black" stroke-width="2" fill="none" />
<polyline points="100.0,203.5,92.0,211.5" stroke="black" stroke-width="2" fill="none" />
<polyline points="84.5,193.0,93.0,185.5,101.0,178.5" stroke="black" stroke-width="2" fill="none" />
<polyline points="97.5,170.0,105.5,162.5" stroke="black" stroke-width="2" fill="none" />
<polyline points="106.0,156.5,98.0,163.5" stroke="black" stroke-width="2" fill="none" />
<polyline points="105.0,170.0,113.0,162.5" stroke="black" stroke-width="2" fill="none" />
<polyline points="117.5,173.5,109.5,174.0" stroke="black" stroke-width="2" fill="none" />
<polyline points="110.0,180.5,108.0,188.5,107.5,197.0,108.0,204.5,108.0,212.5,108.5,220.0,111.0,228.5,106.0,236.5" stroke="black" stroke-width="2" fill="none" />
<polyline points="107.0,239.0,98.5,240.0,90.5,241.0,83.0,241.5,74.5,242.5,66.5,243.0,58.5,243.0,50.5,243.0,43.0,243.0,35.5,243.0,27.5,243.0,20.0,243.5,12.0,244.0,4.0,245.0" stroke="black" stroke-width="2" fill="none" />
<polyline points="10.5,243.5,19.0,236.5" stroke="black" stroke-width="2" fill="none" />
<polyline points="19.0,243.5,11.5,251.0" stroke="black" stroke-width="2" fill="none" />
<polyline points="5.0,253.5,13.0,252.5,21.0,252.0,28.5,251.5,36.0,251.5,43.5,251.0,51.5,250.5,59.0,250.0,67.0,249.0,75.5,249.0,84.0,249.0,91.5,248.5" stroke="black" stroke-width="2" fill="none" />
<polyline points="117.0,232.5,125.0,234.5,139.0,236.5,151.0,235.5" stroke="black" stroke-width="2" fill="none" />
<polyline points="100.5,190.0,93.0,190.0,85.0,190.5" stroke="black" stroke-width="2" fill="none" />
<polyline points="83.5,186.0,91.5,178.5" stroke="black" stroke-width="2" fill="none" />
<polyline points="92.0,174.5,88.0,172.0,76.0,177.0,68.5,174.0,60.5,175.5,52.5,176.5" stroke="black" stroke-width="2" fill="none" />
<polyline points="56.0,173.0,64.0,172.0,72.0,171.0,80.0,168.0,87.0,169.0,76.0,170.0,82.5,173.0,90.5,169.5,98.0,169.5,98.0,176.0,105.0,174.0,110.0,182.0,122.0,167.5,122.5,173.0,125.5,184.0,120.0,185.5,114.5,183.5,122.0,175.5,133.0,167.5,133.0,175.5,133.0,182.5,131.0,192.5" stroke="black" stroke-width="2" fill="none" />
<polyline points="100.0,180.5,92.0,180.5,84.0,180.0,75.5,180.0" stroke="black" stroke-width="2" fill="none" />
<polyline points="66.0,177.0,57.5,177.0,49.0,177.5,41.0,178.0,33.0,179.0,25.5,179.5,18.0,180.5,10.5,181.0,2.5,181.5" stroke="black" stroke-width="2" fill="none" />
<polyline points="2.5,183.0,10.5,182.5,18.5,179.5,26.0,177.5,34.0,177.0,33.0,181.0,28.0,191.0,22.0,194.5,19.5,199.5,22.5,207.5,14.5,212.5,14.5,219.5,10.5,221.0,8.5,224.0,17.5,225.0,26.5,219.5,34.5,213.5,32.0,215.5,36.0,222.5" stroke="black" stroke-width="2" fill="none" />
<polyline points="36.5,217.0,44.0,209.5,51.5,202.5,59.5,194.5" stroke="black" stroke-width="2" fill="none" />
<polyline points="61.0,199.0,60.5,203.0,57.5,214.0" stroke="black" stroke-width="2" fill="none" />
<polyline points="66.5,211.0,58.5,218.0,51.0,225.5,43.5,233.0,36.5,241.0,28.5,248.5,20.5,256.0" stroke="black" stroke-width="2" fill="none" />
<polyline points="19.5,248.0,27.0,240.5,35.0,232.5,43.5,225.0,51.5,217.5,59.0,210.0,67.0,202.5" stroke="black" stroke-width="2" fill="none" />
<polyline points="64.5,198.0,72.5,191.5,76.5,190.0,79.5,198.0,80.0,206.0,80.0,213.5,75.0,221.5,72.0,228.0,63.0,242.5" stroke="black" stroke-width="2" fill="none" />
<polyline points="29.5,216.0,38.0,208.0,46.0,200.5,54.5,193.5,62.5,185.5" stroke="black" stroke-width="2" fill="none" />
<polyline points="65.5,186.5,57.0,186.5,49.0,186.5,41.0,186.0,33.0,186.5,25.5,188.0,18.0,189.0,10.5,189.5,3.5,189.5" stroke="black" stroke-width="2" fill="none" />
<polyline points="5.0,186.0,12.5,185.0,20.5,184.0,24.5,187.0,33.0,187.0" stroke="black" stroke-width="2" fill="none" />
<polyline points="37.0,188.5,45.0,181.0" stroke="black" stroke-width="2" fill="none" />
<polyline points="43.5,186.5,35.5,194.0,27.5,202.0" stroke="black" stroke-width="2" fill="none" />
<polyline points="28.5,195.5,20.5,202.5" stroke="black" stroke-width="2" fill="none" />
<polyline points="20.0,207.0,28.0,206.5,36.0,205.5,44.5,204.5,53.0,203.5,61.5,202.5,69.5,202.0,77.5,200.5,85.0,200.0,93.5,199.5,101.0,199.0" stroke="black" stroke-width="2" fill="none" />
<polyline points="98.5,214.5,90.5,215.0,83.0,216.0,75.5,216.5,68.0,217.0,60.5,218.5,53.0,219.5,45.0,220.5,37.5,221.5,29.0,223.0,21.0,224.0" stroke="black" stroke-width="2" fill="none" />
<polyline points="19.0,227.5,11.0,235.0" stroke="black" stroke-width="2" fill="none" />
<polyline points="11.0,221.5,2.5,222.5" stroke="black" stroke-width="2" fill="none" />
<polyline points="6.0,211.5,13.5,205.5,21.5,203.5,20.5,217.5,20.0,225.5,16.0,238.0,11.5,246.0,6.5,242.5,16.0,231.0,24.0,225.0" stroke="black" stroke-width="2" fill="none" />
<polyline points="21.0,214.0,29.0,213.5,37.0,213.0,45.0,213.0,53.0,212.5,60.5,212.0,68.5,211.0,76.5,209.5,84.0,208.5,92.0,207.0,100.5,206.5" stroke="black" stroke-width="2" fill="none" />
<polyline points="97.5,192.5,89.5,193.5,81.5,194.5,73.5,194.5,65.5,195.0,58.0,195.5,50.0,195.5,42.5,195.0,34.5,195.5,26.5,196.0,18.5,196.0,11.0,196.0,3.0,196.0" stroke="black" stroke-width="2" fill="none" />
<polyline points="1.5,197.0,9.5,195.0,11.5,194.0,11.5,197.5,3.0,209.5,3.0,217.5,4.0,225.5,4.0,233.5,4.0,241.0,4.0,249.0,7.0,254.5,12.0,253.5,24.0,244.5,34.0,245.5" stroke="black" stroke-width="2" fill="none" />
<polyline points="26.5,210.5,35.0,202.5,43.0,195.0" stroke="black" stroke-width="2" fill="none" />
<polyline points="45.5,197.5,58.5,196.5,58.0,204.5,59.0,217.0,57.5,224.5,59.5,233.5,67.0,233.5,75.0,230.5,75.5,239.5,73.5,248.0" stroke="black" stroke-width="2" fill="none" />
<polyline points="44.0,210.0,36.5,210.0,29.0,210.0" stroke="black" stroke-width="2" fill="none" />
<polyline points="11.0,202.5,19.5,195.0,27.5,187.5" stroke="black" stroke-width="2" fill="none" />
<polyline points="29.5,189.5,37.5,192.5" stroke="black" stroke-width="2" fill="none" />
<polyline points="36.0,179.0,43.5,172.0" stroke="black" stroke-width="2" fill="none" />
<polyline points="42.0,164.5,34.5,172.0,26.5,179.0" stroke="black" stroke-width="2" fill="none" />
<polyline points="28.0,182.5,35.5,181.0" stroke="black" stroke-width="2" fill="none" />
<polyline points="21.0,187.5,13.0,195.0" stroke="black" stroke-width="2" fill="none" />
<polyline points="4.5,182.0,1.5,190.0,3.0,198.5,12.5,205.5,8.0,211.5,8.0,219.5,9.0,228.0" stroke="black" stroke-width="2" fill="none" />
<polyline points="20.0,177.0,28.0,169.5,35.5,162.0,43.5,154.5" stroke="black" stroke-width="2" fill="none" />
<polyline points="43.0,153.0,47.0,160.5,49.0,163.5,44.0,168.5,44.0,176.0,44.0,184.0,42.0,192.5,43.5,200.5,43.5,214.5,45.0,215.5,46.0,226.0,43.5,231.5,51.0,234.0,55.0,237.0,60.0,236.0,67.0,238.0,79.0,242.0,87.0,236.5,91.0,230.5,99.5,228.0,106.0,232.5,113.5,229.0,117.5,224.0,121.5,217.5,125.0,214.5,127.0,206.0,129.0,211.0,131.5,221.0,139.5,219.0,141.5,205.0,149.5,204.5,150.5,199.5" stroke="black" stroke-width="2" fill="none" />
<polyline points="151.5,193.0,144.5,195.0,137.5,192.0,133.5,198.5,124.5,197.5,116.5,201.0,114.5,197.0,102.5,202.0,102.5,194.5,104.5,186.5,104.5,179.0,108.5,179.0,113.5,177.0,114.0,169.0,114.0,161.5,127.0,159.0,123.0,155.0,125.0,146.5,120.5,134.5,120.5,126.0,121.0,117.5,115.5,108.0,116.0,100.0,119.0,92.0,118.0,84.0,108.5,90.0,104.5,95.0" stroke="black" stroke-width="2" fill="none" />
<polyline points="106.5,98.0,114.5,90.5" stroke="black" stroke-width="2" fill="none" />
<polyline points="117.0,86.0,108.5,87.0" stroke="black" stroke-width="2" fill="none" />
<polyline points="102.0,88.0,110.0,81.0,109.5,81.5,101.5,89.5,101.0,98.0,101.0,106.5,101.0,115.0,101.5,123.0,101.5,131.5,102.0,139.0,102.0,147.5,101.0,151.5,101.0,164.5,97.0,172.5,88.5,177.5,88.5,185.0,77.0,187.0,82.0,190.0,84.0,198.0,83.5,205.5,88.5,206.5,86.5,214.5,83.5,219.0,84.0,226.5,90.0,231.5,87.0,239.0,80.5,242.0,81.5,246.5,81.5,254.5,84.0,255.5,92.0,251.5,100.0,248.0,108.0,241.0,115.5,241.5,118.5,237.0,125.5,240.5,133.5,246.5,141.0,248.5,145.0,253.5,149.0,255.0" stroke="black" stroke-width="2" fill="none" />
<polyline points="72.5,208.5,71.5,201.0,71.5,196.0" stroke="black" stroke-width="2" fill="none" />
<polyline points="68.5,181.5,60.5,179.5" stroke="black" stroke-width="2" fill="none" />
<polyline points="59.5,178.0,51.5,185.5" stroke="black" stroke-width="2" fill="none" />
<polyline points="60.5,171.5,68.5,164.0,76.0,156.5" stroke="black" stroke-width="2" fill="none" />
<polyline points="83.0,154.0,75.5,162.0,67.5,169.5" stroke="black" stroke-width="2" fill="none" />
<polyline points="76.0,168.5,84.0,161.0,92.5,154.0" stroke="black" stroke-width="2" fill="none" />
<polyline points="90.0,163.0,98.0,155.5,106.0,148.0" stroke="black" stroke-width="2" fill="none" />
<polyline points="106.5,151.5,107.5,150.0,109.5,141.0" stroke="black" stroke-width="2" fill="none" />
<polyline points="116.0,131.5,108.0,132.0,100.0,132.5" stroke="black" stroke-width="2" fill="none" />
<polyline points="99.0,126.5,107.0,126.0,115.0,125.0" stroke="black" stroke-width="2" fill="none" />
<polyline points="115.0,119.0,107.0,119.5,99.0,119.5" stroke="black" stroke-width="2" fill="none" />
<polyline points="99.0,111.0,107.0,110.5,115.0,110.0" stroke="black" stroke-width="2" fill="none" />
<polyline points="114.5,105.5,106.0,113.0" stroke="black" stroke-width="2" fill="none" />
<polyline points="108.0,106.0,116.0,98.5" stroke="black" stroke-width="2" fill="none" />
<polyline points="115.0,101.5,107.0,102.0,99.0,102.5" stroke="black" stroke-width="2" fill="none" />
<polyline points="100.5,94.5,108.5,93.5,116.0,93.0" stroke="black" stroke-width="2" fill="none" />
<polyline points="112.0,97.0,114.0,104.0,114.0,112.0,115.0,120.0,113.5,121.5" stroke="black" stroke-width="2" fill="none" />
<polyline points="126.0,130.0,134.0,132.0,142.5,132.0,150.5,132.0,158.5,131.0,166.5,131.5" stroke="black" stroke-width="2" fill="none" />
<polyline points="134.0,149.5,127.0,151.0,126.0,159.0,124.0,166.0,132.0,167.5,131.0,175.5,129.0,183.0,133.5,187.5,123.5,199.5,122.5,204.5,130.5,209.5,129.5,222.5,121.0,230.5,123.0,229.0,131.5,228.5,133.5,225.5,129.0,229.5" stroke="black" stroke-width="2" fill="none" />
<polyline points="99.5,168.5,91.0,168.5,82.5,169.0,74.5,170.0,66.5,171.0,59.0,171.5,51.0,171.5,43.0,172.0,35.0,172.0,26.0,173.0,17.5,173.0,9.0,173.0,1.5,173.5" stroke="black" stroke-width="2" fill="none" />
<polyline points="3.0,177.5,11.5,170.0,20.0,162.0,28.5,154.5,37.0,146.5" stroke="black" stroke-width="2" fill="none" />
<polyline points="44.5,143.0,51.0,142.5,52.0,151.5,53.0,159.5,50.0,161.5,50.5,169.5,50.5,177.5,50.5,186.0,44.5,190.0,54.0,195.0,47.5,198.0,50.5,203.0,54.0,211.0,55.0,218.5,55.5,226.0,50.5,234.0,60.5,250.5,58.5,248.5,63.5,250.5" stroke="black" stroke-width="2" fill="none" />
<polyline points="101.5,226.0,96.5,220.0,88.0,217.0,76.0,220.5,73.5,219.5,63.5,218.5,61.0,218.0,64.0,224.0,62.5,216.0,68.5,207.5,69.5,199.5,65.5,198.5,65.5,190.5,58.5,187.5,56.5,181.5,54.0,181.5,54.0,172.0,56.5,165.0,45.5,158.0" stroke="black" stroke-width="2" fill="none" />
<polyline points="47.5,155.5,48.5,152.5,59.0,148.5,67.0,146.5,75.0,148.0,83.0,148.0,91.0,147.0,99.0,149.0,106.5,140.0,108.5,133.0,111.5,133.0" stroke="black" stroke-width="2" fill="none" />
<polyline points="117.0,137.5,109.0,137.0,101.0,137.0,93.5,138.0,85.0,138.0,76.5,138.5,68.0,138.5,60.0,139.0" stroke="black" stroke-width="2" fill="none" />
<polyline points="61.5,130.5,53.0,132.0,44.5,133.0,37.0,133.5,29.0,134.0,21.0,134.0,13.0,134.5,5.0,134.5" stroke="black" stroke-width="2" fill="none" />
<polyline points="4.5,142.5,13.0,142.0,20.5,142.0,28.5,141.0,37.0,140.0,45.5,139.0" stroke="black" stroke-width="2" fill="none" />
<polyline points="46.5,145.0,54.5,149.0" stroke="black" stroke-width="2" fill="none" />
<polyline points="46.0,148.0,37.5,155.0,29.5,161.5,21.0,169.0,12.5,177.0" stroke="black" stroke-width="2" fill="none" />
<polyline points="3.5,170.0,11.5,162.5,19.5,155.0,27.0,147.5" stroke="black" stroke-width="2" fill="none" />
<polyline points="19.5,146.5,11.5,153.5,4.0,160.5" stroke="black" stroke-width="2" fill="none" />
<polyline points="2.0,158.0,10.5,158.0,19.0,157.5,27.5,157.0,36.0,156.5,44.5,155.5,52.0,155.0,60.0,155.0,68.5,154.5,76.5,154.5,84.5,154.0,92.5,153.5,100.5,152.5,108.0,151.5,115.5,150.0" stroke="black" stroke-width="2" fill="none" />
<polyline points="116.0,158.0,108.5,159.0,101.0,160.5,93.0,162.0,84.5,162.5,76.5,163.0,68.5,162.5,60.5,163.0,52.5,163.0,44.0,163.0,35.5,164.0,27.0,165.0,18.5,165.5,10.0,166.0,1.5,166.5" stroke="black" stroke-width="2" fill="none" />
<polyline points="2.5,153.5,10.5,146.0" stroke="black" stroke-width="2" fill="none" />
<polyline points="4.0,149.5,12.0,149.0,19.5,148.5,27.5,148.5,35.5,148.5,43.0,148.0,51.5,147.0,60.0,146.5,68.0,145.5,76.0,145.0,84.0,144.5,92.0,144.0,100.5,143.5,108.5,143.5,116.5,143.5" stroke="black" stroke-width="2" fill="none" />
<polyline points="93.0,130.0,85.5,130.5,77.5,131.0,70.0,131.0,65.0,123.5,57.0,131.0,49.0,132.0" stroke="black" stroke-width="2" fill="none" />
<polyline points="66.0,157.0,57.5,164.5" stroke="black" stroke-width="2" fill="none" />
<polyline points="48.5,166.0,48.5,174.0,48.0,182.0,45.0,183.5,45.0,187.5,57.0,185.0,63.0,187.5,67.5,189.5,79.5,184.0" stroke="black" stroke-width="2" fill="none" />
<polyline points="85.0,173.5,84.5,181.5,84.5,190.0,86.0,198.0,83.5,213.0" stroke="black" stroke-width="2" fill="none" />
<polyline points="46.0,222.0,40.0,222.0,30.0,225.0,23.0,237.0,31.0,233.0,28.0,233.0,23.0,229.0,27.5,218.5,28.5,211.0,33.5,197.0,30.5,193.0,35.0,185.0,39.0,177.0,39.5,169.0,42.5,161.0,41.5,153.0,46.0,145.5,42.0,149.0,34.5,147.5,26.5,147.5,19.0,148.0,11.0,148.0,3.0,147.5" stroke="black" stroke-width="2" fill="none" />
<polyline points="4.0,126.0,12.0,125.0" stroke="black" stroke-width="2" fill="none" />
<polyline points="2.0,116.5,10.5,117.5,18.5,118.0,26.5,118.5,34.5,119.5" stroke="black" stroke-width="2" fill="none" />
<polyline points="59.0,114.5,51.0,114.0,43.0,114.0,35.0,114.0,27.0,113.0,19.0,113.5,10.5,112.5,2.5,112.5" stroke="black" stroke-width="2" fill="none" />
<polyline points="0.5,2.5,9.0,2.0,17.5,2.5" stroke="black" stroke-width="2" fill="none" />
<polyline points="124.5,100.5,124.5,108.0,125.5,116.0,133.5,119.5,141.5,119.5,149.5,119.5,157.5,119.5,165.5,119.5,173.5,121.0" stroke="black" stroke-width="2" fill="none" />
</svg>