<svg xmlns="http://www.w3.org/2000/svg" version="1.1"><polyline points="27.5,2.0,20.5,5.5,23.0,14.0,23.0,7.0,26.0,3.5,33.5,3.5,35.0,6.5" stroke="black" stroke-width="2" fill="none" />
<polyline points="35.0,4.0,27.0,4.0,19.0,4.0,10.5,4.5,2.5,5.0" stroke="black" stroke-width="2" fill="none" />
<polyline points="2.0,12.0,10.0,11.5,18.0,11.5,26.0,11.5" stroke="black" stroke-width="2" fill="none" />
<polyline points="23.5,10.0,25.5,1.5" stroke="black" stroke-width="2" fill="none" />
<polyline points="42.0,1.0,43.0,9.0,41.0,17.5,39.0,25.5,47.0,24.0,55.0,29.5" stroke="black" stroke-width="2" fill="none" />
<polyline points="55.5,25.0,47.0,12.0" stroke="black" stroke-width="2" fill="none" />
<polyline points="44.0,1.0,46.0,9.0,50.5,19.0,54.0,27.0" stroke="black" stroke-width="2" fill="none" />
<polyline points="43.0,27.0,44.0,19.0,45.5,18.0,39.5,22.0" stroke="black" stroke-width="2" fill="none" />
<polyline points="10.0,27.0,2.0,27.5" stroke="black" stroke-width="2" fill="none" />
<polyline points="1.5,19.5,10.0,19.0,18.5,18.5" stroke="black" stroke-width="2" fill="none" />
<polyline points="10.0,75.0,1.5,75.5" stroke="black" stroke-width="2" fill="none" />
<polyline points="1.0,77.0,2.0,77.0,5.0,85.0,6.0,98.0,7.0,100.0" stroke="black" stroke-width="2" fill="none" />
<polyline points="3.0,83.0,11.0,83.0" stroke="black" stroke-width="2" fill="none" />
<polyline points="39.0,124.5,40.5,129.5,45.5,129.0,35.5,131.0,42.5,136.5,44.5,144.5,47.5,151.5,51.0,159.5,52.0,167.0,49.5,170.0,59.5,161.0,57.5,174.0,66.5,160.5,71.0,160.5,62.0,165.0,56.0,165.5,65.0,173.0,76.0,163.0,69.0,169.5,69.0,177.5" stroke="black" stroke-width="2" fill="none" />
<polyline points="65.5,182.5,57.5,189.5,49.0,197.0,41.5,204.5,33.5,211.5,25.5,218.5,18.0,226.0,10.5,233.0,3.0,240.0" stroke="black" stroke-width="2" fill="none" />
<polyline points="3.5,237.5,11.0,237.0,19.0,236.5,27.0,236.0,34.5,236.0,42.5,236.0,51.0,235.0,60.0,234.0,68.5,233.0,77.5,232.0,86.0,231.0,93.5,230.5,101.5,230.5,109.0,230.0,116.0,230.0,123.5,230.0,131.0,229.5,139.0,229.0,147.0,228.0,155.0,226.5,163.0,226.0,171.0,225.5,179.0,225.5,187.5,225.5,196.0,225.5,204.5,225.0,213.0,224.5,221.5,223.5,230.0,222.5,238.0,221.5,245.5,220.5,254.0,220.0,261.5,219.5" stroke="black" stroke-width="2" fill="none" />
<polyline points="260.0,218.0,251.5,225.5,243.0,233.5,234.5,241.5,226.5,249.5,218.5,257.5" stroke="black" stroke-width="2" fill="none" />
<polyline points="227.5,257.5,235.0,249.5,242.5,242.0,250.0,234.5,257.5,227.0" stroke="black" stroke-width="2" fill="none" />
<polyline points="258.0,233.5,249.5,241.0,241.5,249.0,233.5,257.5" stroke="black" stroke-width="2" fill="none" />
<polyline points="242.5,258.5,250.5,251.0,259.0,243.0" stroke="black" stroke-width="2" fill="none" />
<polyline points="260.0,241.5,252.0,242.5" stroke="black" stroke-width="2" fill="none" />
<polyline points="260.0,252.0,252.0,259.5" stroke="black" stroke-width="2" fill="none" />
<polyline points="258.5,248.0,251.0,248.0,243.0,248.5,236.0,248.5,228.5,248.5,220.5,249.0,212.5,249.0,204.5,249.5" stroke="black" stroke-width="2" fill="none" />
<polyline points="205.0,254.0,213.0,254.5" stroke="black" stroke-width="2" fill="none" />
<polyline points="212.0,257.0,220.0,249.5,228.0,241.5,236.5,234.0,244.5,227.0,252.5,219.5,260.5,212.0" stroke="black" stroke-width="2" fill="none" />
<polyline points="261.0,204.5,252.5,212.0,243.5,219.5,235.0,227.0,226.5,234.5,218.0,242.0,209.5,249.5,201.5,256.5" stroke="black" stroke-width="2" fill="none" />
<polyline points="195.0,254.5,202.5,247.0,210.5,240.0,218.0,233.0,226.5,225.5,234.5,218.0,242.5,211.0,251.0,203.5,259.0,196.5" stroke="black" stroke-width="2" fill="none" />
<polyline points="259.0,188.0,251.0,195.5,243.0,203.0,235.5,211.0,227.5,218.5,219.5,225.5,211.0,233.0,203.0,240.0,194.5,247.0,186.0,254.0" stroke="black" stroke-width="2" fill="none" />
<polyline points="189.5,259.5,198.0,259.0,206.0,258.0,213.5,257.0,221.0,256.5,229.0,255.5,236.5,255.0,245.0,254.0,253.0,253.0,261.5,252.5" stroke="black" stroke-width="2" fill="none" />
<polyline points="244.0,238.5,236.5,238.5,228.0,239.0,220.0,239.5,211.5,240.5" stroke="black" stroke-width="2" fill="none" />
<polyline points="205.5,234.5,213.5,234.0,221.0,233.5,229.0,233.0,236.5,233.0,244.0,232.5,251.0,232.0,259.0,232.0" stroke="black" stroke-width="2" fill="none" />
<polyline points="260.5,221.5,253.0,222.0,245.0,222.5,237.0,223.0,228.5,224.0,220.5,225.0,212.0,226.0,203.5,226.5" stroke="black" stroke-width="2" fill="none" />
<polyline points="205.0,219.5,212.5,219.5,220.0,218.5,228.0,218.0,236.0,217.5,244.0,217.0,252.5,215.5,261.0,214.0" stroke="black" stroke-width="2" fill="none" />
<polyline points="259.0,199.0,250.5,199.0,242.5,199.5" stroke="black" stroke-width="2" fill="none" />
<polyline points="242.0,193.0,250.0,192.5" stroke="black" stroke-width="2" fill="none" />
<polyline points="251.5,188.0,243.0,195.0,235.0,202.5,227.0,209.5,219.0,216.0,211.0,223.0,203.0,230.0,195.5,238.0,188.0,245.5,179.5,253.0" stroke="black" stroke-width="2" fill="none" />
<polyline points="171.5,254.5,179.0,247.0,187.0,239.0,194.5,231.5,203.0,224.0,211.0,216.5,219.0,209.5,227.0,202.5,235.0,195.5,243.0,188.5,250.5,181.0" stroke="black" stroke-width="2" fill="none" />
<polyline points="245.5,178.0,237.0,185.5,228.5,193.5,220.5,201.0,212.5,209.5,204.5,217.0,196.5,225.0,188.5,233.0,180.0,240.5,171.5,248.5,163.0,255.5" stroke="black" stroke-width="2" fill="none" />
<polyline points="156.0,253.0,164.0,246.0,172.5,238.0,180.0,231.0,187.5,224.0,195.0,216.5,203.0,209.0,211.0,201.0,219.0,193.0,226.5,185.0,234.5,177.5,242.5,170.0" stroke="black" stroke-width="2" fill="none" />
<polyline points="237.5,169.0,240.5,177.0" stroke="black" stroke-width="2" fill="none" />
<polyline points="233.5,172.0,225.5,179.5,218.0,186.0,210.0,193.0,202.0,200.5,194.0,208.0,186.5,215.5,178.5,223.0,171.0,231.0,163.0,238.5,155.0,246.0,146.5,254.0" stroke="black" stroke-width="2" fill="none" />
<polyline points="138.0,256.5,146.5,249.0,154.5,241.0,162.0,234.0,169.5,227.0,177.5,220.0,186.0,212.5,194.0,205.0" stroke="black" stroke-width="2" fill="none" />
<polyline points="186.5,203.0,178.5,210.5,170.5,218.0,162.5,226.0,154.5,233.5,146.5,241.0,138.5,248.5,130.0,256.0" stroke="black" stroke-width="2" fill="none" />
<polyline points="126.0,256.0,134.5,248.5,142.5,240.5,150.0,233.5,157.5,226.0" stroke="black" stroke-width="2" fill="none" />
<polyline points="164.0,234.0,171.5,233.5,179.5,233.5,188.0,233.0,196.5,232.0" stroke="black" stroke-width="2" fill="none" />
<polyline points="195.5,223.5,187.5,224.5,180.0,224.5,172.0,225.5" stroke="black" stroke-width="2" fill="none" />
<polyline points="173.0,236.5,181.5,237.5,193.5,231.5,197.5,228.0" stroke="black" stroke-width="2" fill="none" />
<polyline points="203.0,234.0,199.0,241.5,197.0,233.5,192.5,221.5,187.5,214.0,178.0,210.0" stroke="black" stroke-width="2" fill="none" />
<polyline points="176.5,196.5,181.5,197.5,177.5,199.5,176.5,204.0,191.0,200.0" stroke="black" stroke-width="2" fill="none" />
<polyline points="188.0,194.5,179.5,202.5,171.5,210.0,163.5,217.5" stroke="black" stroke-width="2" fill="none" />
<polyline points="160.5,216.0,168.5,212.5,174.0,214.5" stroke="black" stroke-width="2" fill="none" />
<polyline points="162.5,205.0,154.0,212.5,146.5,220.0,138.5,227.5,130.5,235.0,122.5,242.0,115.0,249.5,107.5,257.5" stroke="black" stroke-width="2" fill="none" />
<polyline points="114.5,255.5,123.0,248.5,131.0,241.0,139.0,233.5,147.5,226.5,156.0,219.0,164.0,211.5,172.0,203.5,180.0,195.5,188.0,187.5" stroke="black" stroke-width="2" fill="none" />
<polyline points="177.5,188.5,170.0,195.5" stroke="black" stroke-width="2" fill="none" />
<polyline points="171.0,193.0,172.0,201.0,178.5,212.5" stroke="black" stroke-width="2" fill="none" />
<polyline points="170.0,202.5,162.0,208.5,154.5,209.5" stroke="black" stroke-width="2" fill="none" />
<polyline points="148.5,211.0,140.5,218.0,132.5,226.0,124.0,233.0" stroke="black" stroke-width="2" fill="none" />
<polyline points="129.0,233.0,137.5,232.5,146.0,232.0,154.5,231.5" stroke="black" stroke-width="2" fill="none" />
<polyline points="162.5,243.0,170.5,242.5" stroke="black" stroke-width="2" fill="none" />
<polyline points="139.0,240.0,131.0,240.5" stroke="black" stroke-width="2" fill="none" />
<polyline points="139.0,249.5,131.0,250.0,123.0,250.5" stroke="black" stroke-width="2" fill="none" />
<polyline points="117.0,242.5,109.0,250.0,100.5,257.0" stroke="black" stroke-width="2" fill="none" />
<polyline points="98.0,257.5,105.5,256.5,114.0,256.5,122.0,256.0,130.0,255.5,138.0,255.0,146.0,254.5" stroke="black" stroke-width="2" fill="none" />
<polyline points="170.5,245.0,162.0,247.0,154.0,248.5,150.0,244.0,150.5,241.0,161.0,238.0,160.5,226.5,158.0,224.0,158.5,216.0,164.5,202.5,164.0,194.5,167.0,186.5,169.0,178.5,169.0,170.5,156.5,171.5" stroke="black" stroke-width="2" fill="none" />
<polyline points="160.0,170.0,168.0,170.5,171.5,172.0,179.5,171.5,185.5,169.5,193.5,167.5" stroke="black" stroke-width="2" fill="none" />
<polyline points="194.5,170.5,203.0,162.5,211.5,155.0,219.5,147.0" stroke="black" stroke-width="2" fill="none" />
<polyline points="213.5,143.0,217.0,151.0,218.0,165.0,210.0,177.0,210.5,188.0,210.5,196.5" stroke="black" stroke-width="2" fill="none" />
<polyline points="202.0,194.5,210.0,187.0,218.0,179.5,226.5,171.5,235.0,163.5" stroke="black" stroke-width="2" fill="none" />
<polyline points="238.5,163.0,245.5,171.5,250.5,179.5,253.0,187.5" stroke="black" stroke-width="2" fill="none" />
<polyline points="260.5,208.5,252.0,209.5,244.0,210.0,236.0,210.0,227.5,210.0" stroke="black" stroke-width="2" fill="none" />
<polyline points="238.5,239.0,246.5,237.0,255.0,237.0,256.0,233.0" stroke="black" stroke-width="2" fill="none" />
<polyline points="260.0,237.5,252.0,238.5,243.5,239.0,235.5,239.5,227.5,240.0,219.5,240.0,211.5,240.5,203.0,241.5,195.5,241.5,187.5,241.5,180.0,241.5,172.0,241.5,164.0,241.5,156.0,242.5,147.5,243.0,139.0,244.0,130.5,244.5,122.5,245.0,114.5,246.0,106.0,247.0,98.0,247.5,90.0,248.5,82.0,249.0,74.0,249.5,66.5,250.0,58.5,250.5,50.5,250.5,42.5,251.0,35.0,251.5,27.0,252.0,19.0,253.0,11.0,253.0,2.5,253.5" stroke="black" stroke-width="2" fill="none" />
<polyline points="2.0,254.5,10.0,247.0,18.0,240.0,26.5,233.0,35.0,225.5,43.5,217.5,52.0,209.5,60.5,201.5,69.5,194.5,77.5,187.0" stroke="black" stroke-width="2" fill="none" />
<polyline points="68.0,188.0,60.0,195.5,51.5,203.0,43.5,210.0,35.5,217.5,27.5,224.5,19.5,232.5,11.0,239.5,2.5,247.0" stroke="black" stroke-width="2" fill="none" />
<polyline points="2.5,245.0,10.5,245.0,18.5,245.0,27.0,244.5,35.0,244.0,43.0,243.5,52.0,242.5,60.0,242.0,68.0,242.0,76.0,241.5,84.0,241.0,91.5,240.5,99.5,240.5,108.0,240.0,116.5,239.0,124.5,238.0,132.5,237.5,140.5,237.5,148.0,236.5,156.5,235.0,165.0,234.5,172.5,234.0,180.0,234.0,187.5,233.5,196.0,233.0,204.0,232.5,212.0,232.0,219.5,231.5,227.5,231.0,235.0,230.5,243.0,229.5,251.0,229.5,259.0,229.5" stroke="black" stroke-width="2" fill="none" />
<polyline points="260.0,212.0,252.0,212.5,244.0,213.0,235.5,213.5,227.0,214.0,218.5,215.0,210.5,216.0,202.5,217.0,194.0,217.5,186.0,218.0,178.0,218.0,170.5,217.5,163.0,218.0,154.5,218.5,146.5,219.0,139.0,220.0,131.0,221.0,123.5,222.0,115.5,222.0,107.5,222.0,99.5,222.5,91.0,223.0,83.0,223.5,75.0,224.5,67.5,225.0,60.0,225.5,52.5,225.5,44.5,226.0,36.5,226.5,28.0,227.5,20.0,228.0,11.5,229.0,3.5,230.0" stroke="black" stroke-width="2" fill="none" />
<polyline points="3.5,226.5,11.5,219.0,19.0,211.5,27.0,204.0,35.0,196.5,43.5,189.5" stroke="black" stroke-width="2" fill="none" />
<polyline points="35.5,188.0,28.0,195.5,20.0,203.0,12.0,211.0,4.0,219.0" stroke="black" stroke-width="2" fill="none" />
<polyline points="4.5,216.5,12.5,216.0,20.0,215.0,27.5,215.0,34.5,215.0" stroke="black" stroke-width="2" fill="none" />
<polyline points="41.0,197.5,33.5,205.0,26.0,212.5,19.0,220.0,11.5,227.0,4.0,234.0" stroke="black" stroke-width="2" fill="none" />
<polyline points="2.5,233.5,10.5,232.5,18.5,231.5,27.0,231.0,35.5,231.0,44.0,230.5" stroke="black" stroke-width="2" fill="none" />
<polyline points="51.0,234.0,59.0,233.5,67.0,233.0" stroke="black" stroke-width="2" fill="none" />
<polyline points="67.5,241.0,60.0,241.5" stroke="black" stroke-width="2" fill="none" />
<polyline points="59.0,256.5,67.0,248.5,75.5,240.5,84.0,233.0,92.5,225.5,101.0,218.5,109.5,211.0,118.0,203.5" stroke="black" stroke-width="2" fill="none" />
<polyline points="116.0,212.0,108.0,220.0,100.0,227.0,92.0,234.0" stroke="black" stroke-width="2" fill="none" />
<polyline points="91.5,239.0,83.5,239.0" stroke="black" stroke-width="2" fill="none" />
<polyline points="80.5,239.0,89.0,234.5,92.0,231.0" stroke="black" stroke-width="2" fill="none" />
<polyline points="93.0,221.5,101.0,220.5,100.0,220.5" stroke="black" stroke-width="2" fill="none" />
<polyline points="108.0,220.5,116.5,221.0,119.5,211.0,127.5,215.5" stroke="black" stroke-width="2" fill="none" />
<polyline points="124.0,211.5,132.5,203.5,141.0,196.0" stroke="black" stroke-width="2" fill="none" />
<polyline points="140.5,205.0,132.5,212.5,124.5,220.5,116.0,227.5,107.5,235.0,99.5,242.5,90.5,249.5,82.5,257.0" stroke="black" stroke-width="2" fill="none" />
<polyline points="90.0,256.5,98.5,249.5,107.0,242.5,115.0,235.0,122.0,228.0,130.0,220.5,137.5,213.0,145.0,205.0" stroke="black" stroke-width="2" fill="none" />
<polyline points="143.0,213.5,143.5,214.5,143.5,222.5" stroke="black" stroke-width="2" fill="none" />
<polyline points="118.0,218.0,109.5,225.5,101.0,233.0,92.5,240.5,84.0,248.5,75.0,256.5" stroke="black" stroke-width="2" fill="none" />
<polyline points="69.0,258.5,77.5,251.0,86.0,243.5" stroke="black" stroke-width="2" fill="none" />
<polyline points="74.0,251.5,66.0,252.0,58.5,252.5,51.0,253.5,43.5,254.0,35.5,255.0,28.0,256.5,20.5,257.0,12.5,257.5,5.0,258.0" stroke="black" stroke-width="2" fill="none" />
<polyline points="11.5,254.5,19.5,247.0,28.0,239.0,36.0,231.5,44.0,223.5,52.0,216.0,60.0,208.0,68.0,200.5,76.0,193.0,84.0,185.5,92.0,178.0" stroke="black" stroke-width="2" fill="none" />
<polyline points="91.0,170.0,82.5,178.0" stroke="black" stroke-width="2" fill="none" />
<polyline points="83.0,171.0,91.0,163.5" stroke="black" stroke-width="2" fill="none" />
<polyline points="84.5,161.5,92.5,153.5,100.5,146.0" stroke="black" stroke-width="2" fill="none" />
<polyline points="101.5,137.5,94.0,145.0,85.5,152.5,77.5,160.5" stroke="black" stroke-width="2" fill="none" />
<polyline points="76.5,155.0,84.0,147.5,92.0,140.0" stroke="black" stroke-width="2" fill="none" />
<polyline points="98.0,132.5,89.5,133.5,81.5,134.0" stroke="black" stroke-width="2" fill="none" />
<polyline points="81.5,127.0,90.0,126.0,98.5,125.0" stroke="black" stroke-width="2" fill="none" />
<polyline points="100.0,117.0,92.0,118.0,84.5,118.5" stroke="black" stroke-width="2" fill="none" />
<polyline points="87.0,122.5,85.5,129.5,80.0,134.0,88.0,131.0,91.0,128.0,94.5,119.0,92.5,126.5,92.0,135.0,100.0,128.0,101.5,135.5,99.5,143.5,94.0,149.5,92.0,155.5,93.0,163.5,94.0,171.5,96.5,173.5,104.5,172.0,112.0,167.0,112.5,159.5,121.0,157.0,124.5,147.0,136.0,147.0,138.0,154.5,142.0,147.0,144.5,152.0,153.5,151.0,161.5,151.5,169.0,149.5,177.0,149.0,185.0,149.5,192.5,147.5,194.0,151.5,201.0,148.5,203.5,140.0,213.5,139.5,213.5,142.5,218.5,151.5,227.0,156.0" stroke="black" stroke-width="2" fill="none" />
<polyline points="225.5,164.0,217.0,171.0,209.0,178.5" stroke="black" stroke-width="2" fill="none" />
<polyline points="211.0,170.0,219.5,162.5" stroke="black" stroke-width="2" fill="none" />
<polyline points="217.0,155.0,209.5,162.5,202.0,170.0" stroke="black" stroke-width="2" fill="none" />
<polyline points="198.0,174.0,200.5,178.0" stroke="black" stroke-width="2" fill="none" />
<polyline points="188.0,172.5,180.5,180.0" stroke="black" stroke-width="2" fill="none" />
<polyline points="183.0,183.0,182.0,174.5" stroke="black" stroke-width="2" fill="none" />
<polyline points="187.0,170.0,188.0,178.0,189.0,184.5,201.0,184.5,207.0,191.5" stroke="black" stroke-width="2" fill="none" />
<polyline points="213.0,164.0,206.5,158.0,205.5,150.0,206.5,142.5,209.0,134.5,208.0,126.0,203.0,124.5,205.5,116.5,208.5,116.5,215.5,107.5,223.5,103.5,229.5,92.0,229.5,86.5,237.5,84.5,239.5,79.5,251.0,74.5,248.0,65.5,243.0,57.5,241.0,58.5,230.0,52.0,227.0,48.0,229.0,37.0,229.0,33.0,230.0,24.0,223.5,16.0,217.5,19.5,215.0,13.5" stroke="black" stroke-width="2" fill="none" />
<polyline points="217.5,19.5,226.0,11.5,234.0,4.0" stroke="black" stroke-width="2" fill="none" />
<polyline points="236.5,6.0,235.5,13.5,236.5,12.5,236.5,15.5,244.5,8.5" stroke="black" stroke-width="2" fill="none" />
<polyline points="245.0,8.5,252.5,8.0,260.0,8.0" stroke="black" stroke-width="2" fill="none" />
<polyline points="258.5,12.0,251.0,19.5,243.0,26.5,235.0,34.0,228.0,42.0,220.5,50.0,213.0,57.5" stroke="black" stroke-width="2" fill="none" />
<polyline points="218.5,59.5,226.5,57.5,232.5,53.5,240.5,56.0" stroke="black" stroke-width="2" fill="none" />
<polyline points="235.5,58.5,243.5,51.0,251.0,43.5,259.0,35.5" stroke="black" stroke-width="2" fill="none" />
<polyline points="257.5,27.5,250.0,35.0,242.0,42.5" stroke="black" stroke-width="2" fill="none" />
<polyline points="243.0,41.0,234.0,45.0,242.0,47.0,241.0,51.5,252.5,59.5" stroke="black" stroke-width="2" fill="none" />
<polyline points="253.5,57.0,261.5,57.0" stroke="black" stroke-width="2" fill="none" />
<polyline points="258.0,61.0,250.0,68.0,242.5,75.0" stroke="black" stroke-width="2" fill="none" />
<polyline points="251.5,74.0,259.0,67.0" stroke="black" stroke-width="2" fill="none" />
<polyline points="261.0,74.5,253.0,82.5" stroke="black" stroke-width="2" fill="none" />
<polyline points="259.0,91.0,251.0,91.5,243.5,92.0,235.5,92.5,227.5,93.0,219.0,93.5" stroke="black" stroke-width="2" fill="none" />
<polyline points="225.0,92.0,233.0,84.5" stroke="black" stroke-width="2" fill="none" />
<polyline points="232.0,89.0,233.5,95.0,238.5,103.0" stroke="black" stroke-width="2" fill="none" />
<polyline points="236.5,100.5,244.5,100.0,252.0,100.0,259.5,99.5" stroke="black" stroke-width="2" fill="none" />
<polyline points="259.0,101.0,251.5,108.0,243.5,115.0,236.0,122.0" stroke="black" stroke-width="2" fill="none" />
<polyline points="234.0,121.0,242.0,120.0,250.5,119.5,259.0,119.0" stroke="black" stroke-width="2" fill="none" />
<polyline points="258.0,116.5,250.0,124.0,241.5,131.0" stroke="black" stroke-width="2" fill="none" />
<polyline points="243.5,131.0,252.0,130.0,260.0,129.0" stroke="black" stroke-width="2" fill="none" />
<polyline points="258.5,132.0,250.0,139.5" stroke="black" stroke-width="2" fill="none" />
<polyline points="249.5,146.5,257.5,139.0" stroke="black" stroke-width="2" fill="none" />
<polyline points="258.0,147.0,250.0,154.5" stroke="black" stroke-width="2" fill="none" />
<polyline points="252.5,150.0,260.5,149.5" stroke="black" stroke-width="2" fill="none" />
<polyline points="261.5,145.5,253.5,146.0" stroke="black" stroke-width="2" fill="none" />
<polyline points="258.0,140.0,250.0,140.5,242.0,140.5" stroke="black" stroke-width="2" fill="none" />
<polyline points="242.5,138.5,250.5,131.0,258.0,124.0" stroke="black" stroke-width="2" fill="none" />
<polyline points="258.5,110.0,250.5,117.5,242.5,124.5,234.0,132.0" stroke="black" stroke-width="2" fill="none" />
<polyline points="237.5,132.5,245.5,132.5,252.5,132.0,260.5,131.0" stroke="black" stroke-width="2" fill="none" />
<polyline points="260.0,135.5,252.0,135.5,244.0,135.5" stroke="black" stroke-width="2" fill="none" />
<polyline points="235.0,124.0,243.0,123.5,251.0,123.5,259.5,123.5" stroke="black" stroke-width="2" fill="none" />
<polyline points="250.0,101.5,242.5,109.0,235.0,116.0" stroke="black" stroke-width="2" fill="none" />
<polyline points="235.0,112.0,242.5,111.5,250.0,112.0,258.0,112.0" stroke="black" stroke-width="2" fill="none" />
<polyline points="259.5,107.0,252.0,107.5,244.0,108.0,236.0,109.0,227.5,109.5" stroke="black" stroke-width="2" fill="none" />
<polyline points="212.0,116.0,220.0,115.5,227.5,115.5,235.5,115.5,243.5,115.5,251.5,115.0,259.5,115.5" stroke="black" stroke-width="2" fill="none" />
<polyline points="260.5,81.5,253.0,81.5,245.0,81.5,237.5,81.5,229.5,81.5,221.5,82.0,213.0,82.5,205.0,83.0,197.5,83.5,189.0,84.5" stroke="black" stroke-width="2" fill="none" />
<polyline points="187.0,84.5,179.0,92.0,172.5,97.0,166.5,104.5,167.5,112.5,170.5,114.5,161.5,126.5,151.5,129.0,151.0,137.0,155.0,137.5,148.0,145.5,136.0,149.5,135.0,155.5,144.0,160.5,143.0,173.0,143.0,181.0,144.0,188.5,143.5,196.5,136.5,202.0,145.5,204.0,153.5,204.0,160.5,199.5" stroke="black" stroke-width="2" fill="none" />
<polyline points="158.5,184.5,166.5,184.5" stroke="black" stroke-width="2" fill="none" />
<polyline points="150.5,174.0,163.5,173.0,172.5,178.0,171.5,183.5,168.5,194.5,169.0,202.5,167.0,213.5,172.0,216.5,170.0,218.5" stroke="black" stroke-width="2" fill="none" />
<polyline points="204.5,197.0,202.0,189.0,206.0,176.0,200.0,163.0,192.0,164.0,184.0,163.0,176.0,165.0" stroke="black" stroke-width="2" fill="none" />
<polyline points="156.5,163.5,156.5,172.0,157.5,180.0,157.0,188.0,158.0,196.0,156.0,204.0,155.5,215.5,150.5,226.0,159.5,230.5,165.5,223.0" stroke="black" stroke-width="2" fill="none" />
<polyline points="200.5,221.5,198.5,220.5,198.5,212.5,191.5,201.5,189.5,193.0,190.0,185.0,178.0,182.0,181.0,174.0,173.0,167.5,178.0,166.5,166.0,162.0,157.5,161.0,149.5,169.0" stroke="black" stroke-width="2" fill="none" />
<polyline points="140.5,164.0,132.0,171.5" stroke="black" stroke-width="2" fill="none" />
<polyline points="131.0,174.5,138.5,174.5,139.5,187.5,136.0,196.5" stroke="black" stroke-width="2" fill="none" />
<polyline points="136.0,202.0,133.5,200.0,134.0,192.0,133.5,184.0,137.0,181.5,139.0,173.5,136.5,171.5,127.5,166.5,131.5,158.5,131.5,150.5,130.0,142.5,129.0,135.0,126.0,132.0" stroke="black" stroke-width="2" fill="none" />
<polyline points="130.0,133.5,138.0,133.0,145.5,133.0,154.0,132.5,162.0,132.5,170.5,132.0,178.5,132.0,186.5,131.5,195.0,131.0,203.0,130.5,211.0,129.5" stroke="black" stroke-width="2" fill="none" />
<polyline points="209.5,132.0,202.0,139.5,194.0,146.5" stroke="black" stroke-width="2" fill="none" />
<polyline points="203.5,155.5,195.5,163.0" stroke="black" stroke-width="2" fill="none" />
<polyline points="212.5,158.5,211.5,150.5,207.5,147.0" stroke="black" stroke-width="2" fill="none" />
<polyline points="197.5,141.5,206.0,134.5" stroke="black" stroke-width="2" fill="none" />
<polyline points="210.5,133.0,218.5,131.5,226.5,129.5,234.5,130.5,242.5,139.5" stroke="black" stroke-width="2" fill="none" />
<polyline points="220.0,134.5,212.0,135.0,204.0,136.0,195.5,136.5,188.0,136.5,180.0,137.0,171.5,137.5,163.5,138.5,155.0,139.5,147.0,140.0,139.0,140.5,130.5,141.0,122.5,141.5,114.5,142.5" stroke="black" stroke-width="2" fill="none" />
<polyline points="116.0,146.0,124.0,143.0" stroke="black" stroke-width="2" fill="none" />
<polyline points="135.0,132.5,138.0,136.5,137.5,144.5,143.0,149.5,138.5,157.5,138.0,163.5,139.0,156.5,147.0,161.5,155.0,155.5,163.0,154.0,171.0,154.0,178.0,154.5,185.5,154.5,193.5,154.5,201.5,155.5" stroke="black" stroke-width="2" fill="none" />
<polyline points="186.0,140.0,193.5,132.5" stroke="black" stroke-width="2" fill="none" />
<polyline points="192.5,127.5,200.5,123.5,208.0,122.5,214.5,129.0" stroke="black" stroke-width="2" fill="none" />
<polyline points="214.5,130.5,221.5,138.5" stroke="black" stroke-width="2" fill="none" />
<polyline points="194.5,123.0,186.0,130.5" stroke="black" stroke-width="2" fill="none" />
<polyline points="180.5,132.5,188.5,125.0" stroke="black" stroke-width="2" fill="none" />
<polyline points="189.5,110.0,197.0,109.0" stroke="black" stroke-width="2" fill="none" />
<polyline points="200.5,110.0,199.0,118.0,202.0,119.5,207.0,115.0,208.5,123.0,216.5,121.0,223.5,124.0,228.5,127.5" stroke="black" stroke-width="2" fill="none" />
<polyline points="219.0,109.0,211.5,109.5,203.5,110.0" stroke="black" stroke-width="2" fill="none" />
<polyline points="195.5,115.0,188.0,115.0,181.0,115.0,173.5,115.5,165.5,115.5,158.0,116.0" stroke="black" stroke-width="2" fill="none" />
<polyline points="154.0,114.5,152.0,122.5,142.5,134.5,133.5,139.5,124.0,144.0,113.0,148.5,106.0,158.5,106.5,164.0,93.0,169.0,93.0,180.0,92.0,188.0,89.5,196.0,91.5,207.0,92.5,205.0" stroke="black" stroke-width="2" fill="none" />
<polyline points="97.0,203.0,89.5,210.5,81.0,218.0,73.0,225.0,65.0,232.5,57.0,240.0,49.5,247.0,42.0,254.5" stroke="black" stroke-width="2" fill="none" />
<polyline points="51.0,255.5,59.0,248.0,66.5,240.5,75.0,233.5,83.5,226.0,91.5,218.5,100.5,212.0,108.5,204.5" stroke="black" stroke-width="2" fill="none" />
<polyline points="99.0,194.5,91.0,202.5,83.0,210.5,75.0,218.5,67.5,226.0,59.0,233.5,51.0,241.0,43.5,249.0,35.5,256.5" stroke="black" stroke-width="2" fill="none" />
<polyline points="19.0,253.0,27.5,245.5,35.0,238.0,43.5,231.0,51.0,223.5,59.0,216.0,67.5,209.0,75.5,201.5,83.5,194.0,92.0,186.5,100.0,179.5,107.5,172.0" stroke="black" stroke-width="2" fill="none" />
<polyline points="108.5,169.0,116.5,167.0,124.0,161.5,121.0,157.5,121.0,166.0,121.0,174.0,123.0,182.5,119.0,193.0,118.5,196.5,125.0,198.5,126.0,203.0,130.5,211.0,136.5,214.5,136.0,222.5" stroke="black" stroke-width="2" fill="none" />
<polyline points="132.0,201.5,132.0,194.0,131.5,186.0,132.5,178.0,128.5,170.5,120.0,170.5" stroke="black" stroke-width="2" fill="none" />
<polyline points="117.5,175.0,119.5,183.0" stroke="black" stroke-width="2" fill="none" />
<polyline points="114.5,179.0,110.5,187.0,108.5,194.5,107.5,202.5,109.0,203.5,116.5,207.0,124.5,204.0" stroke="black" stroke-width="2" fill="none" />
<polyline points="126.5,178.0,117.0,175.0" stroke="black" stroke-width="2" fill="none" />
<polyline points="97.0,169.5,105.5,164.5,100.5,155.5,105.0,158.0,113.0,155.0,121.0,152.5,135.0,153.0,143.0,153.0" stroke="black" stroke-width="2" fill="none" />
<polyline points="154.5,157.5,152.5,167.5,151.5,175.0,152.5,183.0,153.5,190.5,152.5,198.0" stroke="black" stroke-width="2" fill="none" />
<polyline points="154.5,239.5,144.5,243.0,143.0,246.0,138.5,236.0,131.0,234.5,123.0,240.5,114.5,239.0,106.5,240.0" stroke="black" stroke-width="2" fill="none" />
<polyline points="103.5,248.5,111.0,249.5,121.0,249.5" stroke="black" stroke-width="2" fill="none" />
<polyline points="114.0,229.5,105.0,237.5,107.0,235.0,115.5,229.0,123.5,231.0,132.0,230.5,140.0,232.5" stroke="black" stroke-width="2" fill="none" />
<polyline points="92.5,194.0,84.5,202.0,76.5,209.5,68.0,217.0,60.0,224.5,51.5,232.0,43.5,239.5,35.5,246.5,27.5,254.5" stroke="black" stroke-width="2" fill="none" />
<polyline points="1.5,249.0,9.5,249.0,17.5,249.0,26.0,249.0,34.0,248.5,42.0,248.0,50.0,248.0,58.0,247.5,66.0,247.0" stroke="black" stroke-width="2" fill="none" />
<polyline points="77.5,217.5,85.5,217.5" stroke="black" stroke-width="2" fill="none" />
<polyline points="100.5,206.5,101.5,195.0,99.5,189.5,96.0,189.5,96.0,186.5" stroke="black" stroke-width="2" fill="none" />
<polyline points="98.0,189.5,90.0,195.5" stroke="black" stroke-width="2" fill="none" />
<polyline points="76.5,191.0,75.5,181.5,74.0,173.5,73.0,164.5,78.0,161.5,68.0,157.5" stroke="black" stroke-width="2" fill="none" />
<polyline points="69.5,157.0,77.0,156.5,85.0,156.0,92.5,156.0,100.5,155.5,108.0,155.5,116.0,154.5,124.0,154.5,132.0,154.0,140.0,154.0,148.0,153.5,156.0,153.0,164.0,152.0,172.0,151.5,180.0,151.5,188.0,150.5,196.5,150.0,204.5,149.5,213.5,149.0,221.5,148.5,229.5,148.0" stroke="black" stroke-width="2" fill="none" />
<polyline points="221.5,140.0,213.0,141.0,205.0,141.5,196.5,141.5,188.5,142.0,180.5,143.0,173.5,143.5,165.5,144.5,157.5,145.5,149.5,146.0,141.5,147.0,133.0,147.0,125.0,147.5,116.5,147.5,108.5,148.0,100.0,147.5,91.5,147.0,83.0,147.0,75.0,147.0,67.0,148.0" stroke="black" stroke-width="2" fill="none" />
<polyline points="76.0,144.0,84.0,143.0,92.5,142.0,100.5,141.0" stroke="black" stroke-width="2" fill="none" />
<polyline points="102.0,148.5,96.0,137.5,99.0,129.5,101.0,121.5,96.0,118.5,96.0,111.0,88.0,111.5" stroke="black" stroke-width="2" fill="none" />
<polyline points="85.0,109.0,93.0,108.5,100.5,108.0" stroke="black" stroke-width="2" fill="none" />
<polyline points="92.0,101.0,84.0,101.5" stroke="black" stroke-width="2" fill="none" />
<polyline points="83.0,94.0,91.0,94.0,99.0,93.5" stroke="black" stroke-width="2" fill="none" />
<polyline points="98.5,92.0,90.5,87.5" stroke="black" stroke-width="2" fill="none" />
<polyline points="91.5,85.0,83.5,85.5" stroke="black" stroke-width="2" fill="none" />
<polyline points="83.0,77.5,91.0,77.0" stroke="black" stroke-width="2" fill="none" />
<polyline points="91.0,70.0,82.5,70.5" stroke="black" stroke-width="2" fill="none" />
<polyline points="84.0,61.0,92.0,60.5" stroke="black" stroke-width="2" fill="none" />
<polyline points="83.5,38.5,85.5,34.5,83.5,42.5,85.5,50.5,84.5,58.5,83.5,66.5,82.5,74.5,82.0,82.5,85.0,85.5,85.5,88.5,80.5,96.5,79.0,104.5,78.0,112.5,76.5,120.5,74.0,128.5,73.5,136.5,66.0,144.0,66.0,152.0,68.5,154.0,62.5,154.0,54.0,163.0,56.5,171.0,58.5,179.0,64.5,180.0,60.0,184.0,69.0,190.0,76.5,188.5,84.5,189.5,95.0,180.5,104.0,179.5,111.5,177.5,114.0,185.5,113.0,194.0,122.0,190.5" stroke="black" stroke-width="2" fill="none" />
<polyline points="81.5,166.5,79.5,174.5,76.0,177.5,76.5,168.5" stroke="black" stroke-width="2" fill="none" />
<polyline points="60.0,158.0,52.0,158.0" stroke="black" stroke-width="2" fill="none" />
<polyline points="57.5,153.0,65.0,139.5,68.0,134.0,64.0,142.0,57.5,149.5,56.5,155.5,64.5,151.0,67.0,140.5" stroke="black" stroke-width="2" fill="none" />
<polyline points="67.5,126.0,68.5,129.0,63.0,137.0,61.0,141.0,55.0,146.5,52.0,153.5,58.5,145.0,67.5,129.0,79.5,127.0" stroke="black" stroke-width="2" fill="none" />
<polyline points="59.5,134.0,51.5,135.5" stroke="black" stroke-width="2" fill="none" />
<polyline points="50.5,135.5,45.0,136.5,40.0,133.5,32.5,134.5" stroke="black" stroke-width="2" fill="none" />
<polyline points="22.0,140.0,25.5,142.0,25.5,149.0,32.0,157.5,31.5,166.0,41.5,173.5,35.0,178.5,37.0,185.0,40.0,195.0,43.5,196.5" stroke="black" stroke-width="2" fill="none" />
<polyline points="29.5,187.5,21.0,195.0,12.0,202.0,3.5,210.0" stroke="black" stroke-width="2" fill="none" />
<polyline points="2.0,211.0,10.0,210.5" stroke="black" stroke-width="2" fill="none" />
<polyline points="7.5,206.0,6.5,201.5,10.0,197.5" stroke="black" stroke-width="2" fill="none" />
<polyline points="10.5,201.0,2.5,201.5" stroke="black" stroke-width="2" fill="none" />
<polyline points="3.5,202.5,11.5,194.5,20.0,187.0" stroke="black" stroke-width="2" fill="none" />
<polyline points="23.5,187.5,19.0,185.5,11.0,181.5,11.0,173.5,11.5,165.5,16.0,158.0,15.0,154.5,20.0,146.5,16.5,156.0" stroke="black" stroke-width="2" fill="none" />
<polyline points="19.5,155.0,12.0,155.5,4.0,156.0" stroke="black" stroke-width="2" fill="none" />
<polyline points="4.0,149.0,12.0,148.5" stroke="black" stroke-width="2" fill="none" />
<polyline points="3.5,141.0,3.0,149.0,4.0,152.5,5.0,147.5,8.0,152.5,17.0,151.0,23.5,163.5,28.5,172.5,34.5,169.5,40.5,169.5,41.5,165.0,46.0,171.5" stroke="black" stroke-width="2" fill="none" />
<polyline points="44.0,174.5,52.0,174.5,60.0,174.0,68.0,173.5,75.5,173.0,83.5,172.5,91.5,171.5,100.0,170.0,108.0,169.5,116.0,169.5,124.0,169.5,131.5,168.5,139.0,167.5,147.0,166.5,155.0,166.0,162.5,165.0,170.5,164.0,178.0,163.5,186.0,163.0,194.0,162.5,202.5,161.5,210.5,161.0,219.0,161.0,227.0,161.0,235.0,161.0,243.0,160.5,251.5,160.5" stroke="black" stroke-width="2" fill="none" />
<polyline points="242.5,152.5,234.5,153.0,226.5,153.5,218.5,154.0,210.0,154.5,202.0,155.0,194.5,155.0,186.5,155.5,178.5,156.5,170.0,156.5,162.5,157.0,154.0,158.0,146.0,159.0,138.5,159.5,130.5,159.5,123.0,159.5,115.0,160.5,107.0,161.0,99.5,161.5,92.0,163.0,85.0,164.0,77.0,164.5,69.0,165.0,61.5,165.0,54.0,165.5,46.0,165.5" stroke="black" stroke-width="2" fill="none" />
<polyline points="35.5,171.0,27.0,171.5,19.0,172.0,11.0,172.5,3.0,173.0" stroke="black" stroke-width="2" fill="none" />
<polyline points="5.5,178.5,13.5,171.0" stroke="black" stroke-width="2" fill="none" />
<polyline points="9.5,168.5,18.0,162.0,26.0,162.0,37.5,168.0" stroke="black" stroke-width="2" fill="none" />
<polyline points="27.5,164.5,20.0,164.5,12.5,165.0,4.5,165.0" stroke="black" stroke-width="2" fill="none" />
<polyline points="9.0,168.0,10.0,156.0,22.0,159.5,25.0,167.5,23.0,174.0,25.5,179.0,23.5,185.0,31.5,181.0,34.5,186.0,40.0,182.0" stroke="black" stroke-width="2" fill="none" />
<polyline points="17.5,177.5,10.0,185.5,1.5,193.5" stroke="black" stroke-width="2" fill="none" />
<polyline points="3.5,193.0,11.5,192.5" stroke="black" stroke-width="2" fill="none" />
<polyline points="3.0,188.5,11.0,188.0,19.0,187.5,27.0,187.0,35.0,187.0,43.0,186.5,51.5,186.0,59.5,186.0,68.0,185.5,76.0,185.0,84.0,184.5,92.0,184.0,100.0,184.0,108.0,184.0,115.5,183.5,123.5,183.5,131.5,183.0,139.5,182.5,147.5,181.5,155.5,181.0,163.5,180.5,172.0,180.0,180.5,179.0,188.5,178.0,197.0,177.0,205.0,176.5,213.0,176.0,220.5,175.5,228.5,175.5,236.0,175.5,243.5,175.0,252.0,174.5,260.0,174.0" stroke="black" stroke-width="2" fill="none" />
<polyline points="259.5,205.5,251.0,206.0,243.0,206.5,235.0,207.0,227.0,208.0,219.5,208.5,212.0,209.0,204.5,209.5,196.5,210.0,188.0,211.0,179.5,211.5,171.5,212.0,163.0,212.5,155.0,213.5,147.0,214.0,138.5,214.5,130.5,215.0,122.5,215.0,114.0,215.5,106.0,215.5,97.5,216.0,90.0,216.0,82.0,216.5,74.0,217.0,66.5,217.0,59.0,217.5,51.5,218.0,44.0,218.5,36.0,219.0,28.0,219.5,19.5,220.5,11.5,221.5,3.5,222.5" stroke="black" stroke-width="2" fill="none" />
<polyline points="4.0,225.5,12.0,225.0,19.5,224.5,27.0,224.5,34.5,224.0,42.0,223.5" stroke="black" stroke-width="2" fill="none" />
<polyline points="52.0,238.5,43.5,239.0,35.0,240.0,27.0,240.5,19.0,241.0,10.5,242.0,2.5,242.5" stroke="black" stroke-width="2" fill="none" />
<polyline points="1.5,215.0,10.0,214.5,18.5,213.0,27.0,212.0,35.5,211.5,43.5,211.5,51.0,211.0,58.5,210.5,66.5,210.5,74.5,210.0,82.5,209.5,90.5,208.5,98.5,208.0,107.0,207.5,115.0,207.0,123.0,206.5,131.5,205.5,139.5,204.5,148.0,204.0,156.0,203.5,163.5,203.5,172.0,203.0,180.0,202.0,188.0,201.5,195.5,201.0,203.5,200.5,212.0,200.0,221.0,199.5,229.5,199.0,237.5,198.5,246.0,198.5,253.5,198.0,261.0,197.5" stroke="black" stroke-width="2" fill="none" />
<polyline points="259.5,190.0,252.0,190.5,244.0,191.0,235.5,192.0,227.5,192.0,220.0,192.0,212.0,192.0,204.0,192.5,196.0,192.5,188.5,192.5,180.0,193.0,172.0,193.5,163.5,194.5,155.5,195.0,147.5,195.5,139.0,196.0,131.0,196.5,123.0,197.5,114.5,198.0,106.5,199.0,98.0,199.5,89.5,200.5,81.5,201.0,73.5,201.5,65.5,202.0,58.0,202.5,50.0,202.5,42.5,203.0,34.0,203.5,26.5,204.5,18.5,205.5,10.5,206.0,2.0,206.5" stroke="black" stroke-width="2" fill="none" />
<polyline points="2.5,197.0,11.0,196.5,19.0,196.5,27.5,196.0,35.5,195.0,44.0,194.0,52.0,194.0,60.0,194.0,68.0,194.0,76.0,194.0,84.5,193.5,92.0,193.0,100.0,192.0,108.0,191.5,115.5,191.0,124.0,190.0,132.0,189.5,140.0,189.5,148.0,189.0,156.0,188.0,164.5,187.5,172.5,187.0,180.5,187.0,188.5,186.5,196.0,186.5,203.0,186.5,211.0,186.0,218.5,186.0,226.0,186.0,233.5,185.0,241.0,184.5,249.5,184.0,258.0,183.5" stroke="black" stroke-width="2" fill="none" />
<polyline points="260.0,165.0,253.0,166.0,245.5,166.5,237.5,167.0,229.5,167.0,221.0,168.0,212.5,169.5,204.0,171.0,196.0,171.5,188.0,172.0,180.0,172.5,172.5,173.5,165.0,173.5,156.5,174.0,148.0,174.5,139.5,175.0,131.0,175.5,123.0,175.5,114.5,175.5,107.0,176.5,99.0,176.5,91.0,177.0,83.0,177.0,75.0,177.5,67.5,178.0,59.0,178.0,51.0,178.0,43.0,178.0,35.0,179.0,27.5,179.5,19.5,180.5,11.5,181.0,3.5,181.0" stroke="black" stroke-width="2" fill="none" />
<polyline points="3.5,187.5,11.5,179.5" stroke="black" stroke-width="2" fill="none" />
<polyline points="12.0,181.5,13.0,174.5,21.0,171.5,29.0,175.5,37.0,175.0,37.0,178.0,45.0,176.5,52.5,179.5" stroke="black" stroke-width="2" fill="none" />
<polyline points="49.5,165.0,41.5,161.0,33.5,153.5,25.5,150.5" stroke="black" stroke-width="2" fill="none" />
<polyline points="24.5,144.5,32.5,147.0,40.0,151.5,43.0,153.5" stroke="black" stroke-width="2" fill="none" />
<polyline points="50.5,144.5,52.0,136.5" stroke="black" stroke-width="2" fill="none" />
<polyline points="57.5,119.0,55.5,127.5,51.5,135.5,49.0,143.5,51.0,153.0,54.0,160.5,49.5,164.5,46.0,172.0,53.0,174.5,44.5,181.5,41.5,191.5,46.5,190.0,46.5,186.0,51.5,182.0" stroke="black" stroke-width="2" fill="none" />
<polyline points="70.5,149.0,62.0,159.0,49.5,161.0,41.5,157.5,37.0,161.0,35.0,157.0,42.0,151.5,33.5,143.5,25.5,142.5,17.5,141.5,9.5,142.5,1.5,141.5" stroke="black" stroke-width="2" fill="none" />
<polyline points="82.5,94.0,82.5,102.0,81.5,110.5,79.5,118.5,79.5,126.5,78.0,134.5,82.5,143.0,90.5,142.0,96.5,138.5,103.5,144.5,111.5,146.5,119.0,140.5" stroke="black" stroke-width="2" fill="none" />
<polyline points="134.5,123.5,134.5,132.0,126.5,137.0,127.5,146.0,122.0,149.0,114.0,157.0,113.0,164.5,106.5,178.0,100.5,184.0,107.5,187.5,111.5,193.0,117.0,200.5,115.0,206.0,123.0,215.0,121.5,222.5,121.5,221.5,128.5,220.0,141.0,216.5,145.0,222.0,156.0,224.0,160.5,230.0,165.5,236.0,176.0,230.0,184.0,231.5,192.0,234.5,193.0,242.0,193.0,245.0" stroke="black" stroke-width="2" fill="none" />
<polyline points="238.5,243.0,246.0,242.0" stroke="black" stroke-width="2" fill="none" />
<polyline points="235.5,177.5,227.5,170.5" stroke="black" stroke-width="2" fill="none" />
<polyline points="226.5,170.5,235.5,178.5" stroke="black" stroke-width="2" fill="none" />
<polyline points="170.5,125.5,163.0,133.0" stroke="black" stroke-width="2" fill="none" />
<polyline points="164.0,123.0,156.0,131.0,147.5,139.0" stroke="black" stroke-width="2" fill="none" />
<polyline points="145.0,134.0,147.5,140.0,155.5,138.5,158.5,140.5,164.0,136.5,172.0,132.5,176.5,139.0,183.5,135.5,185.5,132.5,184.5,141.5,192.5,135.0,193.5,136.5" stroke="black" stroke-width="2" fill="none" />
<polyline points="202.5,120.5,195.0,121.0,187.5,121.5,179.5,122.0,172.0,122.5,164.5,123.5,157.0,124.0,149.0,123.5,141.5,123.5" stroke="black" stroke-width="2" fill="none" />
<polyline points="133.5,122.0,141.5,123.5,149.0,124.5,157.0,126.0,165.0,121.0" stroke="black" stroke-width="2" fill="none" />
<polyline points="151.0,114.5,159.5,114.5,168.0,115.0,176.0,114.0,188.5,114.5,196.5,111.5,203.5,113.5" stroke="black" stroke-width="2" fill="none" />
<polyline points="198.5,99.5,206.5,94.5" stroke="black" stroke-width="2" fill="none" />
<polyline points="202.5,90.5,190.0,93.5,185.5,93.5,177.0,94.0,168.5,98.0,167.5,101.0,161.5,104.0,154.5,98.0,152.0,97.5,147.0,101.5" stroke="black" stroke-width="2" fill="none" />
<polyline points="165.5,92.5,158.5,95.5,163.5,103.5,166.0,105.5,168.0,111.5" stroke="black" stroke-width="2" fill="none" />
<polyline points="160.0,82.0,166.0,85.0,171.0,75.5,179.0,70.0,180.0,73.0,191.5,77.0,193.5,85.5" stroke="black" stroke-width="2" fill="none" />
<polyline points="192.0,90.0,182.5,91.0,173.0,99.0,175.0,104.0,177.5,110.5,176.5,108.5,185.0,107.5,190.5,109.0,199.0,109.0,207.5,111.5,215.5,115.5,223.5,117.0,225.0,120.5,228.0,121.5,235.5,122.5,240.0,134.0,245.0,142.0,250.0,150.0,253.5,153.5" stroke="black" stroke-width="2" fill="none" />
<polyline points="249.0,97.5,243.5,89.5,240.5,89.5,235.0,90.5,234.0,92.5" stroke="black" stroke-width="2" fill="none" />
<polyline points="238.5,85.0,246.5,87.0" stroke="black" stroke-width="2" fill="none" />
<polyline points="227.0,84.0,219.0,91.5" stroke="black" stroke-width="2" fill="none" />
<polyline points="214.5,88.0,211.5,96.0,201.5,103.5,210.0,101.5,211.0,93.5,211.5,106.5,219.5,104.5,221.0,106.5,222.0,102.5,230.5,105.5,238.5,102.0" stroke="black" stroke-width="2" fill="none" />
<polyline points="225.5,83.0,217.5,77.0" stroke="black" stroke-width="2" fill="none" />
<polyline points="216.5,81.0,220.5,89.0,218.0,95.0,219.0,100.5,218.5,100.5" stroke="black" stroke-width="2" fill="none" />
<polyline points="231.0,114.0,227.0,112.0,226.5,115.0,223.5,109.0,214.5,115.0,206.5,110.0,201.5,107.0,194.0,105.0,186.0,105.5,182.0,111.5,183.0,110.5,184.0,103.5,191.0,95.0,196.0,94.0" stroke="black" stroke-width="2" fill="none" />
<polyline points="201.5,75.0,209.5,75.0,218.0,74.5,226.5,74.0,235.0,74.0,243.0,74.0,251.0,73.5,258.0,73.0" stroke="black" stroke-width="2" fill="none" />
<polyline points="243.5,67.0,251.5,59.5,259.5,51.5" stroke="black" stroke-width="2" fill="none" />
<polyline points="261.5,46.0,253.0,53.0,244.5,60.5,236.0,67.5" stroke="black" stroke-width="2" fill="none" />
<polyline points="225.0,70.5,233.0,69.5,241.0,69.0,248.5,70.0,256.5,73.0" stroke="black" stroke-width="2" fill="none" />
<polyline points="252.0,48.0,260.5,47.5" stroke="black" stroke-width="2" fill="none" />
<polyline points="261.5,57.5,253.5,58.0,244.5,58.5,236.5,59.0,228.0,59.5,220.0,60.5,212.0,60.5,204.0,61.0,196.0,62.0,188.0,62.5" stroke="black" stroke-width="2" fill="none" />
<polyline points="181.5,55.0,189.5,54.5,197.5,53.5,205.5,52.5,212.5,52.0,220.5,51.0,228.5,50.5,237.0,50.5,245.0,50.0,253.5,49.0,261.5,48.0" stroke="black" stroke-width="2" fill="none" />
<polyline points="259.5,65.0,251.0,65.0,243.0,65.5,235.5,66.0,227.0,67.0,219.0,68.0,211.0,69.0,203.0,70.0,195.0,70.5" stroke="black" stroke-width="2" fill="none" />
<polyline points="187.0,68.5,179.5,69.5,172.0,70.5" stroke="black" stroke-width="2" fill="none" />
<polyline points="170.5,70.0,178.0,69.0,185.5,70.0,193.0,67.0,201.0,67.5,209.0,68.5,217.0,62.5,224.5,61.0,231.5,64.0,243.0,61.5,251.0,63.5" stroke="black" stroke-width="2" fill="none" />
<polyline points="241.0,55.0,231.5,57.0" stroke="black" stroke-width="2" fill="none" />
<polyline points="226.5,52.5,218.5,59.5" stroke="black" stroke-width="2" fill="none" />
<polyline points="216.0,68.0,223.5,68.5,231.0,67.0" stroke="black" stroke-width="2" fill="none" />
<polyline points="212.0,80.5,206.0,88.5,200.0,96.0,204.5,97.0,199.5,104.5,196.5,110.5,196.0,118.5,192.0,126.5,200.5,140.0,201.5,146.0,203.0,158.0,199.0,169.0,195.0,172.5,196.0,180.5,195.0,189.0,196.5,197.0,196.5,205.0,197.5,204.0" stroke="black" stroke-width="2" fill="none" />
<polyline points="250.0,91.5,243.0,96.5,240.0,90.5,232.0,85.5,217.5,78.0,219.5,73.5,210.5,78.5" stroke="black" stroke-width="2" fill="none" />
<polyline points="218.5,88.5,213.0,89.0,202.0,95.0,194.5,100.0,192.5,95.5,192.0,86.5,184.5,89.5,181.5,82.5,188.0,75.5" stroke="black" stroke-width="2" fill="none" />
<polyline points="195.0,48.5,196.5,40.5,188.5,39.5" stroke="black" stroke-width="2" fill="none" />
<polyline points="191.5,45.5,180.5,44.5" stroke="black" stroke-width="2" fill="none" />
<polyline points="171.0,44.5,178.5,44.5,186.5,44.5,194.0,44.0,202.0,43.0,210.5,42.0,218.0,41.5,226.5,41.5,234.5,40.5,242.5,40.0,250.0,40.0,258.0,39.5" stroke="black" stroke-width="2" fill="none" />
<polyline points="258.0,31.5,250.0,31.5,242.0,32.0,234.5,32.0,226.5,32.5,218.5,33.0,210.5,33.5,203.0,34.0,194.5,34.5,186.5,35.0,178.0,35.5,170.0,35.5" stroke="black" stroke-width="2" fill="none" />
<polyline points="170.0,30.0,178.0,29.5,186.0,28.5,194.0,28.0,202.5,27.0,210.5,26.0,218.5,25.5,227.0,25.0,235.5,24.0,244.0,23.5,252.0,22.5,260.0,22.5" stroke="black" stroke-width="2" fill="none" />
<polyline points="259.0,19.5,251.0,27.5,243.0,35.5,235.0,43.0" stroke="black" stroke-width="2" fill="none" />
<polyline points="235.0,34.5,243.5,34.0" stroke="black" stroke-width="2" fill="none" />
<polyline points="244.0,42.0,249.0,50.0,247.5,54.5,246.0,60.0,248.0,65.0,256.0,70.5" stroke="black" stroke-width="2" fill="none" />
<polyline points="251.5,25.0,260.0,24.0" stroke="black" stroke-width="2" fill="none" />
<polyline points="260.0,15.0,252.0,15.5" stroke="black" stroke-width="2" fill="none" />
<polyline points="260.0,15.0,252.5,15.5,245.0,16.0,237.5,16.5,229.0,17.5,220.5,18.5,213.0,19.0,205.0,19.5,196.5,20.5,188.5,21.5,180.5,22.5" stroke="black" stroke-width="2" fill="none" />
<polyline points="180.0,15.0,179.0,23.0,175.0,32.0,172.0,37.0,178.0,39.0,181.0,48.0,189.5,56.5" stroke="black" stroke-width="2" fill="none" />
<polyline points="183.5,66.0,177.5,65.0,173.5,63.0,166.0,69.5,169.0,68.5,162.5,69.0,154.5,73.0" stroke="black" stroke-width="2" fill="none" />
<polyline points="153.5,36.5,161.5,36.5,167.0,37.5,174.5,38.5,178.5,31.5,185.5,35.5,193.5,34.0,196.5,37.0,199.0,33.0,209.5,36.0,211.5,40.5" stroke="black" stroke-width="2" fill="none" />
<polyline points="208.5,38.5,214.5,48.5,222.5,56.5,220.5,64.5,223.0,74.0,227.5,74.0,235.5,78.0,243.0,78.5,248.0,86.5" stroke="black" stroke-width="2" fill="none" />
<polyline points="219.5,39.5,227.5,32.5,235.0,25.0,243.0,17.5,251.0,10.0,259.0,2.5" stroke="black" stroke-width="2" fill="none" />
<polyline points="251.5,2.5,243.5,10.0,235.5,18.0,227.5,26.0" stroke="black" stroke-width="2" fill="none" />
<polyline points="226.0,18.0,233.5,10.0,241.0,2.5" stroke="black" stroke-width="2" fill="none" />
<polyline points="244.5,6.0,249.5,14.0,247.0,19.0,247.0,29.0,255.5,30.5" stroke="black" stroke-width="2" fill="none" />
<polyline points="253.5,35.0,252.5,34.0,247.0,33.5,241.5,32.5,238.0,21.5,236.0,22.5,240.5,14.5,239.5,6.5,233.5,5.5,237.0,3.5,229.0,9.5" stroke="black" stroke-width="2" fill="none" />
<polyline points="224.5,10.0,232.5,16.5" stroke="black" stroke-width="2" fill="none" />
<polyline points="229.5,23.0,229.5,19.5,221.0,16.5,213.0,11.5,207.0,15.5,197.0,10.0,188.0,13.0,180.0,10.5,176.0,3.0,168.0,6.5,159.5,7.5,154.5,5.0,146.5,2.0" stroke="black" stroke-width="2" fill="none" />
<polyline points="145.0,0.5,159.0,9.0,164.0,15.5,167.5,15.5,169.5,24.0,168.0,27.0,158.0,27.5,159.5,38.0,171.5,41.0,164.0,50.0,171.5,54.0,174.0,55.0,161.0,61.0,161.0,69.0,149.5,68.0,157.5,67.5,158.5,65.0,164.5,63.5,172.5,57.5,180.5,59.5,182.5,59.5,187.5,61.5,197.5,54.5,197.5,58.5,205.5,60.5,212.5,61.5,220.5,54.5,229.0,56.5,229.0,46.5,235.5,51.5,243.5,45.5,249.0,53.5,254.0,58.5" stroke="black" stroke-width="2" fill="none" />
<polyline points="222.0,28.5,216.5,22.0,209.0,19.0,199.5,19.0,191.5,19.0" stroke="black" stroke-width="2" fill="none" />
<polyline points="195.5,13.0,204.0,6.0" stroke="black" stroke-width="2" fill="none" />
<polyline points="206.5,8.0,207.5,5.0,202.5,17.0,209.0,20.0,214.0,25.5,208.5,33.5,205.0,34.0,207.5,42.0,213.0,46.5,207.0,54.5,212.0,60.5,204.0,71.5,207.5,80.0,202.5,81.0,195.5,83.5,188.5,90.0,190.5,98.0,192.5,99.0,207.5,104.5,209.0,112.0,218.0,115.0,214.0,121.5,217.0,129.5,223.0,129.5,222.0,137.0,219.0,146.0,221.0,153.0,227.5,160.5,235.5,162.5,243.5,171.0,250.5,187.0" stroke="black" stroke-width="2" fill="none" />
<polyline points="200.5,30.0,208.5,24.5" stroke="black" stroke-width="2" fill="none" />
<polyline points="217.5,24.0,221.5,32.0,226.0,40.0,231.0,45.0" stroke="black" stroke-width="2" fill="none" />
<polyline points="235.0,35.5,233.0,31.0,228.5,34.0,220.5,30.0,212.5,33.0,210.5,26.5,204.5,25.5,203.5,20.0,199.0,25.0,191.0,26.5,186.0,13.0,182.0,18.0,174.0,27.5,168.5,29.0,160.5,28.5,158.0,24.5,150.0,23.5,142.5,21.5" stroke="black" stroke-width="2" fill="none" />
<polyline points="141.0,19.0,149.0,17.0,153.0,12.5,162.0,21.5" stroke="black" stroke-width="2" fill="none" />
<polyline points="169.5,9.0,177.0,6.0,180.0,7.0,192.0,3.0" stroke="black" stroke-width="2" fill="none" />
<polyline points="194.0,9.5,196.5,17.5,194.0,25.0,198.0,28.0,198.0,36.0,205.5,38.5,205.0,46.5,201.0,49.0,202.0,57.0,204.0,65.5,196.0,66.0,178.0,72.0,168.0,73.5,161.0,83.5,159.0,89.5,154.0,97.5,146.0,105.5,147.5,100.5,156.0,93.5,163.0,93.5,168.0,93.5,171.0,89.5,179.0,88.5,180.0,80.0,188.0,78.5,194.5,68.5,198.0,62.5,204.0,71.5,205.0,72.5,213.0,73.0,216.5,70.0,224.0,77.0,229.0,77.0,236.0,82.0,239.5,77.5,243.5,80.5,248.5,82.0" stroke="black" stroke-width="2" fill="none" />
<polyline points="193.5,45.5,186.5,48.0,178.5,51.0,170.5,47.0,163.0,48.0,157.0,45.0,154.5,44.0,154.5,36.0" stroke="black" stroke-width="2" fill="none" />
<polyline points="155.0,13.0,147.5,9.5" stroke="black" stroke-width="2" fill="none" />
<polyline points="150.0,9.0,155.5,17.0,158.5,18.0,151.0,21.5,159.0,16.5,166.0,13.5,167.0,19.5,177.0,14.0,185.0,17.0,181.5,27.5,184.5,31.0" stroke="black" stroke-width="2" fill="none" />
<polyline points="179.5,14.0,187.0,13.5,195.0,13.0,203.5,12.5,212.0,12.0,220.5,11.0,228.5,10.0,237.0,9.5,244.5,9.0,252.0,8.5,259.5,8.0" stroke="black" stroke-width="2" fill="none" />
<polyline points="260.5,-1.0,253.5,-0.5,245.5,-0.5,237.0,0.0,228.5,0.0,220.5,0.5,212.0,1.0,204.0,1.5,196.0,1.5,188.5,2.5,180.0,3.0,172.0,4.0,164.0,4.5" stroke="black" stroke-width="2" fill="none" />
<polyline points="168.0,1.0,168.0,9.0,174.5,15.0,174.5,20.5,168.5,30.5,166.0,39.0,167.5,41.0,169.5,49.5,173.5,56.0,178.5,53.5,188.5,58.5,195.5,51.5,203.5,44.0,212.5,45.0,219.5,43.5,222.5,50.0,226.5,40.0,235.0,39.5,238.0,42.5,247.0,40.5" stroke="black" stroke-width="2" fill="none" />
<polyline points="251.0,24.5,247.0,25.5,243.0,24.5,245.5,21.5,243.0,13.5" stroke="black" stroke-width="2" fill="none" />
<polyline points="227.0,3.5,219.0,11.0" stroke="black" stroke-width="2" fill="none" />
<polyline points="218.5,4.0,210.5,12.0" stroke="black" stroke-width="2" fill="none" />
<polyline points="202.0,10.0,210.5,2.5" stroke="black" stroke-width="2" fill="none" />
<polyline points="184.0,11.0,190.0,19.0,189.0,27.0,190.0,34.0,181.0,37.5,184.0,40.5,186.0,43.0,179.0,49.0,187.0,57.5,189.0,65.5,183.5,76.5,177.5,79.5,173.5,86.0,175.5,88.0,180.5,91.0,188.5,85.0,197.0,82.5,205.0,83.5,201.5,89.5,214.0,87.5,216.0,84.5,223.0,93.5,230.5,93.5,230.5,98.0,238.5,102.5,244.5,101.0,253.0,100.5,255.0,94.0" stroke="black" stroke-width="2" fill="none" />
<polyline points="95.0,104.0,92.0,95.0,86.5,98.5,85.5,115.0,88.0,107.0,91.0,108.0,94.0,101.5,91.0,101.0,92.0,93.0,88.0,85.0,92.0,85.5,92.0,80.5,92.5,74.5,93.5,67.5,93.5,59.0,93.5,51.0,94.0,43.0,93.0,34.5,90.0,30.5" stroke="black" stroke-width="2" fill="none" />
</svg>