<svg xmlns="http://www.w3.org/2000/svg" version="1.1"><polyline points="159.0,1.5,161.5,9.5" stroke="black" stroke-width="2" fill="none" />
<polyline points="161.5,10.5,170.0,3.0" stroke="black" stroke-width="2" fill="none" />
<polyline points="170.0,3.5,177.5,4.5" stroke="black" stroke-width="2" fill="none" />
<polyline points="179.0,3.0,171.5,11.0,163.0,19.0" stroke="black" stroke-width="2" fill="none" />
<polyline points="172.0,25.0,180.0,16.5,187.5,9.0,196.0,1.5" stroke="black" stroke-width="2" fill="none" />
<polyline points="197.0,1.5,196.0,10.0,196.0,17.5,196.0,25.5,198.0,34.0,199.5,42.0,197.5,48.0,203.0,56.0,206.5,64.0,210.5,72.0,214.5,80.5,217.5,88.5,220.5,96.0" stroke="black" stroke-width="2" fill="none" />
<polyline points="220.5,96.5,228.5,89.5,236.5,82.0,244.5,74.0,252.0,66.5,260.0,59.0" stroke="black" stroke-width="2" fill="none" />
<polyline points="261.5,51.0,253.0,58.0,244.5,65.0,236.5,72.5,228.5,80.0,221.0,87.5" stroke="black" stroke-width="2" fill="none" />
<polyline points="212.5,88.5,220.5,81.0,229.0,73.0,237.0,65.0,245.0,57.5,253.0,51.0,261.0,43.5" stroke="black" stroke-width="2" fill="none" />
<polyline points="262.0,38.0,253.5,45.5,245.0,52.5,236.5,60.0,228.5,67.5,220.5,75.5,211.5,82.5" stroke="black" stroke-width="2" fill="none" />
<polyline points="210.0,86.0,218.5,85.5,227.0,85.0,235.0,85.0,243.0,84.0,251.0,84.0,259.5,83.5" stroke="black" stroke-width="2" fill="none" />
<polyline points="259.5,83.5,251.5,91.0,243.5,98.5,235.0,106.0,227.0,113.0,219.0,120.0" stroke="black" stroke-width="2" fill="none" />
<polyline points="218.5,123.5,226.5,123.0,234.0,122.5,242.0,122.0,250.5,122.0,258.5,122.0" stroke="black" stroke-width="2" fill="none" />
<polyline points="258.0,124.0,250.0,131.0,242.0,138.0,234.5,145.0,226.5,152.0,219.0,160.0" stroke="black" stroke-width="2" fill="none" />
<polyline points="219.0,161.5,227.0,161.0,235.0,160.0,242.5,159.5,250.0,158.5,258.0,158.0" stroke="black" stroke-width="2" fill="none" />
<polyline points="260.5,156.0,252.5,163.0,244.5,170.0,236.5,177.0,228.5,184.5,220.5,192.0,212.0,199.5,204.0,207.0,196.0,214.5,188.0,221.5,180.0,229.5,171.5,237.0,163.0,245.0,155.0,253.0" stroke="black" stroke-width="2" fill="none" />
<polyline points="150.0,251.0,142.0,258.5" stroke="black" stroke-width="2" fill="none" />
<polyline points="147.5,259.0,155.0,251.5,162.5,244.0,170.5,236.5" stroke="black" stroke-width="2" fill="none" />
<polyline points="171.0,242.0,178.5,241.0,186.0,240.0,194.5,239.0,203.0,238.0,211.0,237.5,218.5,237.0,226.5,237.0,235.0,237.0,243.0,236.0,251.0,235.5,259.5,235.0" stroke="black" stroke-width="2" fill="none" />
<polyline points="259.5,235.0,251.5,243.0,243.5,250.5,236.0,258.5" stroke="black" stroke-width="2" fill="none" />
<polyline points="251.5,257.5,259.5,250.0" stroke="black" stroke-width="2" fill="none" />
<polyline points="260.5,244.5,252.0,252.0,244.0,259.5" stroke="black" stroke-width="2" fill="none" />
<polyline points="227.0,258.5,234.5,250.5,242.5,242.0,250.5,234.0,259.0,226.0" stroke="black" stroke-width="2" fill="none" />
<polyline points="260.0,217.5,251.5,225.5,243.5,233.0,236.0,240.5,228.0,248.5,220.5,256.5" stroke="black" stroke-width="2" fill="none" />
<polyline points="211.5,255.0,219.5,247.0,228.0,240.0,236.0,233.0,244.0,225.5,252.5,217.5,260.5,210.0" stroke="black" stroke-width="2" fill="none" />
<polyline points="259.5,204.5,252.0,212.0,244.0,219.0,236.5,226.5,228.5,234.0,220.5,241.0,212.5,249.0,203.5,256.5" stroke="black" stroke-width="2" fill="none" />
<polyline points="193.5,257.5,202.5,250.0,212.0,242.5,220.5,235.0,228.5,227.5,236.5,219.5,244.5,212.0,252.0,205.0,259.5,197.5" stroke="black" stroke-width="2" fill="none" />
<polyline points="260.0,189.0,252.0,196.0,243.5,203.5,235.5,210.5,227.5,217.5,219.5,224.5,211.5,232.0,203.5,239.5,195.5,246.5,188.0,254.5" stroke="black" stroke-width="2" fill="none" />
<polyline points="180.0,252.5,187.5,245.0,195.5,238.0,203.0,230.5,210.5,223.5,218.0,216.0,225.5,209.0,234.0,202.0,242.0,195.0,250.5,187.5,258.5,180.5" stroke="black" stroke-width="2" fill="none" />
<polyline points="259.5,171.5,251.5,179.0,243.0,186.5,234.5,194.0,226.5,201.5,218.0,209.0,210.0,216.0,202.0,223.5,194.0,230.5,186.0,237.5,177.5,245.0,170.0,252.5" stroke="black" stroke-width="2" fill="none" />
<polyline points="163.0,252.5,170.5,244.5,178.5,237.0,186.5,229.5,195.0,222.0,203.5,214.5,211.5,207.0,219.5,199.5,227.5,192.0,235.5,185.0,244.0,178.0,252.0,171.5,260.5,164.0" stroke="black" stroke-width="2" fill="none" />
<polyline points="259.0,148.5,251.5,155.5,244.0,162.5,236.5,169.5,228.5,177.0,220.5,185.0,212.5,192.5,203.5,199.5,195.0,207.0" stroke="black" stroke-width="2" fill="none" />
<polyline points="196.0,204.5,204.0,203.5,211.5,203.5,219.0,203.0,226.5,202.5,234.5,202.5,242.5,201.5,250.5,201.0,259.0,200.5" stroke="black" stroke-width="2" fill="none" />
<polyline points="259.5,175.0,251.5,175.5,243.0,176.0,235.0,177.0,227.5,178.5,219.5,179.0" stroke="black" stroke-width="2" fill="none" />
<polyline points="220.5,170.5,228.5,169.5,236.5,168.0,244.5,167.0,251.5,166.5,259.5,166.0" stroke="black" stroke-width="2" fill="none" />
<polyline points="259.0,138.5,250.5,146.0,243.0,154.0,235.0,161.5,227.0,169.5,219.0,177.0,211.0,184.5,203.5,192.0" stroke="black" stroke-width="2" fill="none" />
<polyline points="202.5,188.5,210.0,188.0,218.0,187.5,226.5,187.5,234.5,187.5,242.5,187.5,250.5,187.0,258.0,186.5" stroke="black" stroke-width="2" fill="none" />
<polyline points="259.5,152.0,252.0,152.0,243.5,152.0,235.0,152.5,227.0,152.5" stroke="black" stroke-width="2" fill="none" />
<polyline points="220.5,154.0,228.5,146.5,236.0,139.0,243.5,131.0,250.5,123.0,258.0,115.5" stroke="black" stroke-width="2" fill="none" />
<polyline points="259.5,108.5,252.0,116.5,244.0,124.0,236.0,131.0,228.5,137.5,220.5,145.0" stroke="black" stroke-width="2" fill="none" />
<polyline points="219.0,148.0,226.5,147.0,235.0,146.5,243.5,146.5,251.0,146.0,259.5,146.0" stroke="black" stroke-width="2" fill="none" />
<polyline points="257.5,130.5,249.5,138.0,241.0,145.5,233.0,153.0,225.0,160.0,217.0,167.0,209.5,175.0" stroke="black" stroke-width="2" fill="none" />
<polyline points="209.5,173.5,218.0,173.0,226.5,172.5,235.0,172.0,243.5,172.0,252.0,172.0,260.0,171.0" stroke="black" stroke-width="2" fill="none" />
<polyline points="260.5,142.5,252.0,142.0,244.0,142.0,236.5,142.5,228.5,143.0" stroke="black" stroke-width="2" fill="none" />
<polyline points="227.5,137.0,235.5,136.0,243.0,135.5,251.0,135.0,259.5,134.5" stroke="black" stroke-width="2" fill="none" />
<polyline points="262.0,112.0,253.5,111.5,245.5,111.5" stroke="black" stroke-width="2" fill="none" />
<polyline points="261.0,101.5,253.0,109.0,245.5,116.0,237.5,123.0,229.0,129.5,221.0,136.0" stroke="black" stroke-width="2" fill="none" />
<polyline points="219.0,139.0,227.0,138.5,235.0,138.0,243.0,138.0,251.0,137.5,258.5,137.0" stroke="black" stroke-width="2" fill="none" />
<polyline points="258.0,126.0,250.0,126.0,242.5,126.5,234.0,127.0,225.5,128.0" stroke="black" stroke-width="2" fill="none" />
<polyline points="220.0,127.5,228.0,120.5,236.0,113.5,244.0,106.0,252.0,98.5,259.5,91.0" stroke="black" stroke-width="2" fill="none" />
<polyline points="260.5,75.0,252.0,82.0,243.5,90.5,235.0,98.5,226.5,106.5,218.5,113.5" stroke="black" stroke-width="2" fill="none" />
<polyline points="218.5,116.0,226.5,115.5,235.0,114.5,243.0,114.5,251.0,114.0,259.0,113.5" stroke="black" stroke-width="2" fill="none" />
<polyline points="259.0,119.0,250.5,120.0,242.5,120.5,234.5,120.5,226.5,121.5" stroke="black" stroke-width="2" fill="none" />
<polyline points="217.5,130.5,217.5,138.5,216.0,146.0,215.0,156.0" stroke="black" stroke-width="2" fill="none" />
<polyline points="218.5,156.5,226.5,156.5,234.0,155.5,242.0,155.5,251.0,155.5,259.0,154.5" stroke="black" stroke-width="2" fill="none" />
<polyline points="259.0,129.5,250.5,130.0,242.0,131.0,234.0,131.5,226.5,132.0,219.0,132.5" stroke="black" stroke-width="2" fill="none" />
<polyline points="211.5,140.0,203.0,140.5" stroke="black" stroke-width="2" fill="none" />
<polyline points="195.0,138.0,187.0,145.5" stroke="black" stroke-width="2" fill="none" />
<polyline points="190.0,141.0,197.5,141.0" stroke="black" stroke-width="2" fill="none" />
<polyline points="204.0,150.0,212.0,150.0" stroke="black" stroke-width="2" fill="none" />
<polyline points="210.0,158.5,201.5,159.0" stroke="black" stroke-width="2" fill="none" />
<polyline points="202.5,165.5,194.0,166.5" stroke="black" stroke-width="2" fill="none" />
<polyline points="194.0,174.0,202.0,173.5" stroke="black" stroke-width="2" fill="none" />
<polyline points="209.0,167.0,217.5,166.0,226.0,166.0,234.0,165.0,242.0,165.0,250.0,164.5,259.0,163.5" stroke="black" stroke-width="2" fill="none" />
<polyline points="261.0,189.0,252.0,189.0,244.0,189.5,235.5,190.0,227.0,190.0,219.0,190.5,211.0,191.0" stroke="black" stroke-width="2" fill="none" />
<polyline points="212.5,184.5,220.5,184.0,228.5,183.0,236.5,182.5,244.5,181.5,253.0,181.0,261.0,180.5" stroke="black" stroke-width="2" fill="none" />
<polyline points="260.5,206.5,252.5,207.5,244.0,208.0,235.5,208.5,227.0,209.0,218.5,209.0,210.5,209.0,202.5,210.0" stroke="black" stroke-width="2" fill="none" />
<polyline points="197.5,214.5,205.5,214.0,213.5,214.0,221.5,214.0,229.0,214.5,237.0,214.0,245.0,213.5,252.5,213.0,260.5,212.0" stroke="black" stroke-width="2" fill="none" />
<polyline points="261.0,198.0,252.5,199.5,244.5,200.0,235.5,200.5,227.0,201.0,218.5,201.5,210.0,202.0,202.5,202.5" stroke="black" stroke-width="2" fill="none" />
<polyline points="195.0,199.0,202.0,198.0,210.0,197.5,218.0,196.5,226.0,195.5,233.5,194.5,242.0,194.0,250.0,193.0,258.0,192.0" stroke="black" stroke-width="2" fill="none" />
<polyline points="259.0,177.5,251.0,178.0,243.0,178.5,234.5,179.0,226.5,179.5,218.5,180.0,210.5,180.5,202.5,181.5,195.0,182.0" stroke="black" stroke-width="2" fill="none" />
<polyline points="197.0,186.5,188.5,187.0" stroke="black" stroke-width="2" fill="none" />
<polyline points="177.5,179.5,169.5,186.5" stroke="black" stroke-width="2" fill="none" />
<polyline points="170.5,187.0,178.0,186.5" stroke="black" stroke-width="2" fill="none" />
<polyline points="178.0,190.0,170.5,190.5" stroke="black" stroke-width="2" fill="none" />
<polyline points="162.0,188.5,169.5,181.0" stroke="black" stroke-width="2" fill="none" />
<polyline points="164.0,182.0,172.5,181.0,180.0,180.5" stroke="black" stroke-width="2" fill="none" />
<polyline points="178.0,173.5,170.5,174.0" stroke="black" stroke-width="2" fill="none" />
<polyline points="169.0,172.5,163.0,180.0,166.0,188.0,170.5,189.0,178.5,186.0,191.5,177.0" stroke="black" stroke-width="2" fill="none" />
<polyline points="186.5,203.5,178.5,204.0" stroke="black" stroke-width="2" fill="none" />
<polyline points="175.5,208.0,167.5,215.5,159.0,223.5,146.5,231.5,131.5,239.5" stroke="black" stroke-width="2" fill="none" />
<polyline points="140.0,238.5,148.0,238.0,156.0,237.5" stroke="black" stroke-width="2" fill="none" />
<polyline points="164.5,236.5,172.5,236.0,179.5,236.0,186.5,235.5,194.0,235.5,201.5,235.5,209.5,235.0,218.0,234.5,226.0,234.0,234.5,233.5,243.0,233.0,250.5,232.5,258.5,231.5" stroke="black" stroke-width="2" fill="none" />
<polyline points="259.0,218.5,251.0,219.0,243.0,220.0,235.0,220.5,226.5,221.0,219.0,221.5,211.0,222.5,203.0,222.5,195.5,223.0,187.5,223.0" stroke="black" stroke-width="2" fill="none" />
<polyline points="177.0,220.0,185.0,220.0,193.5,219.5,202.0,219.0,210.0,219.0,218.0,218.5,226.0,218.0,233.5,217.5,242.0,217.5,250.5,217.0,258.5,217.0" stroke="black" stroke-width="2" fill="none" />
<polyline points="259.0,207.5,251.0,208.0,243.0,208.0,235.0,208.0,227.0,208.5,219.0,209.0,212.0,209.5,204.0,210.0,196.0,211.0,188.5,211.0" stroke="black" stroke-width="2" fill="none" />
<polyline points="177.5,213.0,169.5,213.5" stroke="black" stroke-width="2" fill="none" />
<polyline points="170.5,222.0,162.0,222.5" stroke="black" stroke-width="2" fill="none" />
<polyline points="164.0,227.5,156.0,228.0" stroke="black" stroke-width="2" fill="none" />
<polyline points="147.5,222.0,139.5,222.5,131.5,222.5" stroke="black" stroke-width="2" fill="none" />
<polyline points="132.0,226.0,140.0,218.0,148.0,210.5" stroke="black" stroke-width="2" fill="none" />
<polyline points="138.0,209.0,130.0,216.5" stroke="black" stroke-width="2" fill="none" />
<polyline points="131.0,218.0,138.5,217.5" stroke="black" stroke-width="2" fill="none" />
<polyline points="130.5,212.0,138.5,211.5,146.5,211.5" stroke="black" stroke-width="2" fill="none" />
<polyline points="143.5,209.0,135.5,206.5,127.5,211.5" stroke="black" stroke-width="2" fill="none" />
<polyline points="132.5,206.0,127.0,214.0,130.0,222.0,134.0,223.5,142.0,221.0" stroke="black" stroke-width="2" fill="none" />
<polyline points="141.5,221.5,145.5,213.5,136.5,206.0" stroke="black" stroke-width="2" fill="none" />
<polyline points="107.5,220.0,100.0,220.0" stroke="black" stroke-width="2" fill="none" />
<polyline points="99.5,214.5,107.5,214.0" stroke="black" stroke-width="2" fill="none" />
<polyline points="106.0,227.5,98.0,227.5" stroke="black" stroke-width="2" fill="none" />
<polyline points="99.5,236.5,91.5,236.5,83.0,236.5,75.0,236.5" stroke="black" stroke-width="2" fill="none" />
<polyline points="73.5,232.0,81.5,231.0" stroke="black" stroke-width="2" fill="none" />
<polyline points="78.0,225.5,86.0,234.5,94.0,234.0,102.0,227.0" stroke="black" stroke-width="2" fill="none" />
<polyline points="99.5,241.5,91.5,241.0,83.5,241.5,75.5,242.0,67.5,242.5,59.5,243.0,51.5,243.5,43.0,243.5,35.0,244.0,27.0,243.5,19.0,244.0,10.5,244.5,2.5,244.5" stroke="black" stroke-width="2" fill="none" />
<polyline points="4.5,242.5,12.0,235.0,20.0,227.0" stroke="black" stroke-width="2" fill="none" />
<polyline points="21.5,235.5,13.5,243.0,5.5,250.0" stroke="black" stroke-width="2" fill="none" />
<polyline points="4.5,248.5,12.5,248.0,20.5,248.0" stroke="black" stroke-width="2" fill="none" />
<polyline points="29.5,257.5,37.5,250.0,45.5,242.5" stroke="black" stroke-width="2" fill="none" />
<polyline points="37.5,243.0,29.5,250.5,21.0,258.0" stroke="black" stroke-width="2" fill="none" />
<polyline points="36.5,258.5,44.5,251.0" stroke="black" stroke-width="2" fill="none" />
<polyline points="52.0,252.0,44.0,259.0" stroke="black" stroke-width="2" fill="none" />
<polyline points="59.0,259.0,67.0,251.5" stroke="black" stroke-width="2" fill="none" />
<polyline points="58.0,250.0,50.0,257.5" stroke="black" stroke-width="2" fill="none" />
<polyline points="61.0,239.0,69.0,238.0" stroke="black" stroke-width="2" fill="none" />
<polyline points="70.0,241.0,78.0,243.0" stroke="black" stroke-width="2" fill="none" />
<polyline points="83.0,220.5,74.5,221.5,66.0,222.0" stroke="black" stroke-width="2" fill="none" />
<polyline points="68.0,220.0,76.0,233.5,84.0,237.5,91.5,238.0,99.5,236.0,108.0,223.0" stroke="black" stroke-width="2" fill="none" />
<polyline points="95.5,211.5,87.5,210.5,79.5,213.5" stroke="black" stroke-width="2" fill="none" />
<polyline points="79.0,212.5,87.0,208.5,94.5,208.0,102.5,211.0" stroke="black" stroke-width="2" fill="none" />
<polyline points="93.0,212.5,101.0,220.5,100.0,228.5" stroke="black" stroke-width="2" fill="none" />
<polyline points="108.0,247.5,116.0,247.0,123.5,247.0,131.5,246.0,139.0,245.0,146.5,243.5,154.5,242.5,162.5,241.0,170.0,240.0,177.0,239.5,185.0,239.0,193.0,239.0,201.5,238.5,210.0,238.0,218.0,238.0,226.0,237.5,234.0,237.0,241.5,236.5,250.0,236.5,258.5,236.0" stroke="black" stroke-width="2" fill="none" />
<polyline points="258.0,229.0,250.0,229.5,242.5,230.0,234.5,230.0,226.5,230.5,219.5,231.0,211.0,231.0,203.0,231.5,194.5,232.0,186.5,232.5,178.0,233.0" stroke="black" stroke-width="2" fill="none" />
<polyline points="170.5,229.0,178.5,228.5,186.5,228.0,195.0,227.0,203.5,226.5,212.0,225.5,220.0,225.0,228.0,224.5,236.0,223.5,243.5,223.0,251.5,222.5,260.0,222.0" stroke="black" stroke-width="2" fill="none" />
<polyline points="258.0,244.5,250.0,245.0,243.0,246.0,235.0,246.5,227.5,246.5,220.0,247.0,212.0,247.0,204.5,247.5,196.5,247.5,189.0,247.5,181.0,247.5,173.0,247.5,164.5,247.5" stroke="black" stroke-width="2" fill="none" />
<polyline points="149.0,257.0,157.0,256.0,164.5,255.5,172.0,255.0,179.5,254.5,187.0,254.0,195.0,253.5,203.5,252.5,212.0,251.5,220.5,250.5,228.5,250.0,237.0,249.5,245.0,249.5,252.5,249.0,260.0,249.0" stroke="black" stroke-width="2" fill="none" />
<polyline points="259.5,237.0,251.5,237.5,243.0,238.0,235.5,238.5,227.0,239.0,219.0,239.5,210.5,240.0,202.5,241.0,194.0,240.5,186.5,241.5,178.5,241.5,170.5,241.5,162.5,242.0,154.5,242.5,146.5,243.0,138.0,243.5,129.5,244.5,121.5,245.0,114.0,246.0,106.0,246.5,97.5,247.5,89.5,248.0,81.5,248.5,73.5,249.0,65.5,249.5,57.5,250.0,50.0,250.0,42.0,250.5,34.5,251.5,27.0,252.0,19.5,252.5,12.0,253.5,4.5,254.0" stroke="black" stroke-width="2" fill="none" />
<polyline points="4.0,258.0,12.5,257.0,21.0,256.5,29.0,255.5,36.5,255.0" stroke="black" stroke-width="2" fill="none" />
<polyline points="36.0,236.0,28.0,243.5,20.0,251.0,12.0,258.5" stroke="black" stroke-width="2" fill="none" />
<polyline points="4.0,259.0,12.0,251.5,20.5,244.0,28.5,236.0" stroke="black" stroke-width="2" fill="none" />
<polyline points="34.5,225.0,42.5,217.0,50.0,209.5,58.0,202.0" stroke="black" stroke-width="2" fill="none" />
<polyline points="59.0,201.0,51.0,201.5" stroke="black" stroke-width="2" fill="none" />
<polyline points="52.5,195.5,60.5,195.5,68.0,195.5" stroke="black" stroke-width="2" fill="none" />
<polyline points="61.0,195.5,53.0,203.0,45.0,210.5,36.5,218.0" stroke="black" stroke-width="2" fill="none" />
<polyline points="33.5,218.0,41.5,217.5,50.0,217.0" stroke="black" stroke-width="2" fill="none" />
<polyline points="50.0,221.5,42.0,222.0,33.5,222.5" stroke="black" stroke-width="2" fill="none" />
<polyline points="28.5,221.5,21.0,222.5,13.5,223.0,6.0,224.0" stroke="black" stroke-width="2" fill="none" />
<polyline points="6.5,226.0,17.5,234.0,31.5,242.5,49.0,250.5" stroke="black" stroke-width="2" fill="none" />
<polyline points="53.0,236.0,61.0,236.0,69.0,238.0,77.5,240.0" stroke="black" stroke-width="2" fill="none" />
<polyline points="69.0,220.0,76.5,212.5,84.5,204.5" stroke="black" stroke-width="2" fill="none" />
<polyline points="84.0,205.0,76.0,206.0,67.5,206.5" stroke="black" stroke-width="2" fill="none" />
<polyline points="68.0,212.5,76.0,201.5,84.0,198.0,92.0,197.0,100.0,198.0,103.0,200.5,103.0,208.0,106.0,217.0,108.0,225.0,103.0,233.0,91.0,244.0,103.0,241.0,111.0,239.0,120.0,238.5" stroke="black" stroke-width="2" fill="none" />
<polyline points="101.0,255.0,109.0,255.0,116.5,254.0,124.5,252.0,132.5,249.5,140.0,246.0,148.0,241.0,155.5,236.5,163.0,231.0,171.5,224.0,179.5,215.0,187.0,205.0,195.0,191.0,203.5,173.5" stroke="black" stroke-width="2" fill="none" />
<polyline points="185.0,139.5,177.0,134.5" stroke="black" stroke-width="2" fill="none" />
<polyline points="178.5,133.0,187.0,132.0,195.5,131.5" stroke="black" stroke-width="2" fill="none" />
<polyline points="203.5,131.5,212.0,131.0" stroke="black" stroke-width="2" fill="none" />
<polyline points="210.5,125.5,203.0,126.0" stroke="black" stroke-width="2" fill="none" />
<polyline points="200.0,119.0,209.0,118.5" stroke="black" stroke-width="2" fill="none" />
<polyline points="211.5,110.5,204.0,110.5" stroke="black" stroke-width="2" fill="none" />
<polyline points="204.0,103.0,212.5,102.5" stroke="black" stroke-width="2" fill="none" />
<polyline points="218.5,106.0,227.0,98.5,235.5,90.5,244.0,82.5,252.5,75.0,260.5,67.5" stroke="black" stroke-width="2" fill="none" />
<polyline points="259.5,72.0,252.0,72.5,244.5,73.0" stroke="black" stroke-width="2" fill="none" />
<polyline points="233.0,66.5,240.5,66.0,249.5,65.5,258.5,65.0" stroke="black" stroke-width="2" fill="none" />
<polyline points="261.0,29.0,253.0,36.5,244.5,44.5,236.0,52.0,228.0,59.5,220.0,67.0,212.0,74.5" stroke="black" stroke-width="2" fill="none" />
<polyline points="212.0,69.0,204.0,76.5" stroke="black" stroke-width="2" fill="none" />
<polyline points="204.0,70.0,212.0,69.5,219.5,69.0,227.5,68.0,236.0,67.0,244.0,66.0,251.0,65.5,259.0,65.0" stroke="black" stroke-width="2" fill="none" />
<polyline points="218.5,59.5,227.0,52.0,234.5,44.0,242.5,36.0,251.0,28.5,258.5,21.0" stroke="black" stroke-width="2" fill="none" />
<polyline points="260.0,13.5,252.0,21.0,244.5,28.0,236.5,34.5,228.0,41.5" stroke="black" stroke-width="2" fill="none" />
<polyline points="228.0,33.0,236.5,26.5,245.0,19.5,253.0,12.5,261.0,5.5" stroke="black" stroke-width="2" fill="none" />
<polyline points="252.0,3.5,244.0,11.0,235.5,18.5,227.5,26.0,219.0,33.5" stroke="black" stroke-width="2" fill="none" />
<polyline points="220.0,25.0,228.5,17.5,236.0,10.5,244.0,3.0" stroke="black" stroke-width="2" fill="none" />
<polyline points="235.5,4.0,228.0,11.0,219.5,19.0" stroke="black" stroke-width="2" fill="none" />
<polyline points="196.0,16.5,187.5,24.5,179.5,32.5" stroke="black" stroke-width="2" fill="none" />
<polyline points="179.0,32.0,187.5,32.0" stroke="black" stroke-width="2" fill="none" />
<polyline points="196.0,27.5,188.0,35.0,180.0,42.5,172.5,50.0" stroke="black" stroke-width="2" fill="none" />
<polyline points="172.5,53.5,180.5,53.5,188.0,53.0" stroke="black" stroke-width="2" fill="none" />
<polyline points="185.5,53.5,192.5,64.0,199.5,76.0" stroke="black" stroke-width="2" fill="none" />
<polyline points="195.5,85.0,203.5,85.0" stroke="black" stroke-width="2" fill="none" />
<polyline points="195.0,94.5,202.5,94.0,210.0,93.0,217.5,92.0,226.0,91.0,234.5,90.0,242.5,89.5,250.5,88.5,259.0,88.5" stroke="black" stroke-width="2" fill="none" />
<polyline points="260.0,105.0,251.5,106.0,243.5,106.5,235.0,107.0,226.5,107.5,218.5,108.0" stroke="black" stroke-width="2" fill="none" />
<polyline points="219.5,100.0,227.0,99.5,234.5,99.5,242.5,98.5,250.5,98.0,259.0,97.0" stroke="black" stroke-width="2" fill="none" />
<polyline points="212.5,60.5,204.5,67.5" stroke="black" stroke-width="2" fill="none" />
<polyline points="193.5,65.0,185.5,73.0" stroke="black" stroke-width="2" fill="none" />
<polyline points="187.0,69.0,195.5,68.5" stroke="black" stroke-width="2" fill="none" />
<polyline points="195.5,60.0,203.5,53.0" stroke="black" stroke-width="2" fill="none" />
<polyline points="199.0,48.5,207.0,61.5,215.0,77.5" stroke="black" stroke-width="2" fill="none" />
<polyline points="188.0,78.0,196.0,77.5,204.0,77.0,211.5,76.5,219.0,76.0,226.5,75.5,234.5,74.0,242.5,73.5,250.5,72.0,259.0,71.0" stroke="black" stroke-width="2" fill="none" />
<polyline points="201.5,42.5,193.5,50.0" stroke="black" stroke-width="2" fill="none" />
<polyline points="197.0,52.5,205.0,52.0,213.5,51.5,221.0,51.0,228.5,50.5,236.5,50.0,244.0,50.0,251.5,49.5,259.0,48.5" stroke="black" stroke-width="2" fill="none" />
<polyline points="197.5,37.0,190.0,44.5" stroke="black" stroke-width="2" fill="none" />
<polyline points="187.5,42.5,196.0,41.5" stroke="black" stroke-width="2" fill="none" />
<polyline points="196.0,44.0,188.0,52.0,180.0,59.0" stroke="black" stroke-width="2" fill="none" />
<polyline points="180.0,61.0,188.0,60.5,196.0,60.5,203.5,60.0,211.5,59.0,219.5,58.5,227.5,58.5,235.0,58.0,242.5,58.0,250.5,58.0,257.5,58.0" stroke="black" stroke-width="2" fill="none" />
<polyline points="259.0,39.5,251.5,40.0,243.5,40.0,235.5,41.0,228.0,42.0,220.0,42.0,212.5,42.5,204.5,42.5,196.0,43.0,188.0,43.5,180.0,44.5,172.0,45.0,164.0,45.5" stroke="black" stroke-width="2" fill="none" />
<polyline points="163.0,40.5,170.5,32.5,178.5,24.5,186.5,17.0,194.5,9.5" stroke="black" stroke-width="2" fill="none" />
<polyline points="197.5,9.5,190.0,10.5" stroke="black" stroke-width="2" fill="none" />
<polyline points="188.0,3.0,180.0,10.5,171.5,17.5,163.0,25.5,154.5,33.0" stroke="black" stroke-width="2" fill="none" />
<polyline points="157.0,36.5,165.0,36.0,172.5,35.0,180.5,34.0,188.5,33.5,196.0,33.0,203.5,32.5,211.5,32.0,219.5,31.5,228.0,31.0,236.5,30.0,244.0,30.0,252.0,29.0,260.0,28.5" stroke="black" stroke-width="2" fill="none" />
<polyline points="261.5,-1.5,253.0,-1.0,245.0,-0.5,237.0,-0.5,228.5,0.0,220.5,0.5,212.0,1.0,203.5,1.0,195.0,2.0,186.5,2.5,178.0,3.0,170.0,3.5,162.5,4.5" stroke="black" stroke-width="2" fill="none" />
<polyline points="146.5,19.0,138.5,26.5" stroke="black" stroke-width="2" fill="none" />
<polyline points="138.5,28.0,152.0,35.5,156.0,41.5,165.0,50.0,172.0,58.0,178.0,66.0,183.0,74.5,187.0,83.5,191.0,91.5,193.5,100.0,194.5,108.0,199.0,116.0,198.0,124.0,199.0,131.5,198.0,139.0,199.0,146.5,198.0,154.5,195.0,164.0,191.5,172.0,188.5,179.5,187.0,187.5,182.5,195.5" stroke="black" stroke-width="2" fill="none" />
<polyline points="178.0,187.5,181.0,180.0,179.5,176.0,171.5,173.0,163.0,178.0" stroke="black" stroke-width="2" fill="none" />
<polyline points="181.5,150.5,193.5,143.0,191.5,135.0,192.5,126.5,192.5,118.5,182.5,116.5,174.5,113.5,166.5,113.0" stroke="black" stroke-width="2" fill="none" />
<polyline points="167.5,111.0,176.0,111.0,183.5,112.5,191.5,116.0" stroke="black" stroke-width="2" fill="none" />
<polyline points="188.0,119.0,196.0,118.5" stroke="black" stroke-width="2" fill="none" />
<polyline points="195.0,122.0,187.0,130.0" stroke="black" stroke-width="2" fill="none" />
<polyline points="187.5,125.5,195.5,125.5" stroke="black" stroke-width="2" fill="none" />
<polyline points="188.0,132.0,177.0,132.0" stroke="black" stroke-width="2" fill="none" />
<polyline points="185.5,142.0,181.5,134.0,185.5,123.5,181.0,115.5" stroke="black" stroke-width="2" fill="none" />
<polyline points="170.0,91.5,178.0,84.0" stroke="black" stroke-width="2" fill="none" />
<polyline points="178.5,89.0,170.5,89.5" stroke="black" stroke-width="2" fill="none" />
<polyline points="165.0,84.0,173.0,83.5,181.0,83.5,188.5,83.5" stroke="black" stroke-width="2" fill="none" />
<polyline points="178.0,77.0,170.0,78.0" stroke="black" stroke-width="2" fill="none" />
<polyline points="171.0,74.0,164.0,82.0,167.0,90.5,170.5,91.0,178.5,89.0" stroke="black" stroke-width="2" fill="none" />
<polyline points="181.0,89.5,182.5,81.5,181.5,78.5,173.5,75.5,165.5,83.0" stroke="black" stroke-width="2" fill="none" />
<polyline points="148.5,51.5,140.5,51.5,132.5,52.0" stroke="black" stroke-width="2" fill="none" />
<polyline points="132.0,50.5,140.5,42.5" stroke="black" stroke-width="2" fill="none" />
<polyline points="138.5,40.0,146.0,47.5,141.0,55.5" stroke="black" stroke-width="2" fill="none" />
<polyline points="139.0,50.5,147.0,43.0" stroke="black" stroke-width="2" fill="none" />
<polyline points="155.0,42.0,163.5,34.5" stroke="black" stroke-width="2" fill="none" />
<polyline points="155.5,27.5,147.5,35.0" stroke="black" stroke-width="2" fill="none" />
<polyline points="139.5,31.5,147.5,31.0,155.5,31.0,164.0,30.5,172.0,29.5,180.0,29.0,187.5,28.0,195.5,27.0,203.5,26.0,211.5,25.5,219.5,24.5,227.5,24.5,235.0,24.0,243.0,23.0,251.5,22.0,259.5,21.0" stroke="black" stroke-width="2" fill="none" />
<polyline points="258.0,4.0,250.0,4.5,242.5,5.5,234.0,6.0,226.5,6.5,219.0,7.0,211.5,8.0,204.0,9.0,195.5,9.0,188.0,10.0,180.5,10.5,173.0,10.5,165.5,11.0,157.0,11.5,149.0,12.0,140.5,12.0,132.0,13.0,124.0,14.0,116.0,14.0,108.0,14.5,100.0,15.0,92.5,15.5,84.5,16.0,77.0,17.0,68.5,17.5,60.5,18.0,52.0,19.0,44.0,19.5,36.5,20.5,29.5,20.5,22.0,21.0,14.0,21.5,6.5,22.5" stroke="black" stroke-width="2" fill="none" />
<polyline points="3.0,30.5,11.0,30.0,19.5,29.5,28.0,29.0,36.0,28.0,44.0,27.5,52.0,27.0" stroke="black" stroke-width="2" fill="none" />
<polyline points="50.5,25.5,58.0,18.5,66.0,10.5" stroke="black" stroke-width="2" fill="none" />
<polyline points="61.0,11.5,53.0,18.5,45.0,26.0" stroke="black" stroke-width="2" fill="none" />
<polyline points="44.0,24.5,36.0,25.0" stroke="black" stroke-width="2" fill="none" />
<polyline points="35.0,20.0,27.0,28.0,19.0,36.0,11.5,43.5,3.5,50.5" stroke="black" stroke-width="2" fill="none" />
<polyline points="1.5,53.5,9.5,53.0,18.0,52.5" stroke="black" stroke-width="2" fill="none" />
<polyline points="13.5,41.0,22.0,40.5" stroke="black" stroke-width="2" fill="none" />
<polyline points="23.5,40.0,15.0,48.0,14.0,54.0,6.0,61.5,12.0,54.5,16.0,46.5,25.0,38.5" stroke="black" stroke-width="2" fill="none" />
<polyline points="28.5,33.5,20.5,34.0" stroke="black" stroke-width="2" fill="none" />
<polyline points="17.5,27.5,9.5,35.0,1.5,42.5" stroke="black" stroke-width="2" fill="none" />
<polyline points="2.0,44.5,10.0,44.0,18.0,43.5,26.0,43.5,34.0,43.5,42.0,43.5,50.5,43.0" stroke="black" stroke-width="2" fill="none" />
<polyline points="51.0,44.5,43.0,51.5,35.0,58.5" stroke="black" stroke-width="2" fill="none" />
<polyline points="36.5,53.5,44.5,53.0,52.0,52.0" stroke="black" stroke-width="2" fill="none" />
<polyline points="45.0,43.0,37.0,50.5" stroke="black" stroke-width="2" fill="none" />
<polyline points="36.0,47.5,43.5,47.0" stroke="black" stroke-width="2" fill="none" />
<polyline points="33.0,48.5,38.0,53.0,41.0,61.0,46.0,73.5,56.0,90.0,64.0,101.0,72.5,114.0" stroke="black" stroke-width="2" fill="none" />
<polyline points="73.5,117.5,81.5,117.0,89.5,116.5,98.0,115.5" stroke="black" stroke-width="2" fill="none" />
<polyline points="98.0,114.5,100.5,107.5,98.5,115.5,99.5,100.5,107.5,81.0" stroke="black" stroke-width="2" fill="none" />
<polyline points="106.5,82.0,99.0,89.0" stroke="black" stroke-width="2" fill="none" />
<polyline points="99.5,89.0,107.0,88.5" stroke="black" stroke-width="2" fill="none" />
<polyline points="108.0,91.5,100.0,99.0,92.0,106.0" stroke="black" stroke-width="2" fill="none" />
<polyline points="91.0,108.0,99.0,108.0" stroke="black" stroke-width="2" fill="none" />
<polyline points="99.0,107.5,91.5,115.5,83.5,123.5,75.5,131.0" stroke="black" stroke-width="2" fill="none" />
<polyline points="73.5,127.0,81.0,119.0" stroke="black" stroke-width="2" fill="none" />
<polyline points="73.5,125.5,81.5,125.0,90.0,124.5,98.5,124.0" stroke="black" stroke-width="2" fill="none" />
<polyline points="99.5,125.0,91.5,133.0,83.0,139.5,75.0,147.0" stroke="black" stroke-width="2" fill="none" />
<polyline points="78.0,148.5,86.0,148.0" stroke="black" stroke-width="2" fill="none" />
<polyline points="85.0,146.0,92.5,145.5" stroke="black" stroke-width="2" fill="none" />
<polyline points="90.5,147.0,98.5,139.0" stroke="black" stroke-width="2" fill="none" />
<polyline points="100.5,138.0,92.5,138.5" stroke="black" stroke-width="2" fill="none" />
<polyline points="99.5,130.0,91.0,138.5,83.5,146.5" stroke="black" stroke-width="2" fill="none" />
<polyline points="75.5,141.5,83.5,141.5,91.0,141.5,98.5,141.0" stroke="black" stroke-width="2" fill="none" />
<polyline points="100.5,128.5,93.0,128.5,85.5,129.0" stroke="black" stroke-width="2" fill="none" />
<polyline points="88.0,131.5,80.0,129.5" stroke="black" stroke-width="2" fill="none" />
<polyline points="75.0,135.5,83.0,135.0,91.5,134.5,99.5,133.5,107.5,133.0" stroke="black" stroke-width="2" fill="none" />
<polyline points="99.0,117.5,91.0,124.5,82.5,132.0,74.5,138.5" stroke="black" stroke-width="2" fill="none" />
<polyline points="74.5,158.0,67.0,159.0" stroke="black" stroke-width="2" fill="none" />
<polyline points="66.0,164.5,74.0,164.5" stroke="black" stroke-width="2" fill="none" />
<polyline points="73.0,174.0,73.0,182.5,77.5,177.5,76.5,181.5,77.5,184.0,85.5,184.0,92.5,184.0,100.5,183.5" stroke="black" stroke-width="2" fill="none" />
<polyline points="102.5,181.0,94.0,180.0,86.0,178.0,78.0,176.5,70.0,177.5" stroke="black" stroke-width="2" fill="none" />
<polyline points="67.5,180.0,59.0,187.0,50.5,194.5" stroke="black" stroke-width="2" fill="none" />
<polyline points="51.5,188.0,59.5,187.5,67.5,188.0" stroke="black" stroke-width="2" fill="none" />
<polyline points="69.5,183.0,61.0,183.5" stroke="black" stroke-width="2" fill="none" />
<polyline points="59.0,175.0,67.0,174.5,75.5,174.0" stroke="black" stroke-width="2" fill="none" />
<polyline points="75.5,181.0,83.5,181.0" stroke="black" stroke-width="2" fill="none" />
<polyline points="86.5,195.5,72.5,204.0,69.0,212.0,68.5,220.5,71.5,228.5,80.0,236.5,86.5,248.5,94.0,248.5,102.0,249.0,110.0,245.0,117.0,246.5,125.0,243.5,133.0,240.0,141.0,237.0,149.5,232.0,158.0,226.5,166.0,219.0,174.5,210.0" stroke="black" stroke-width="2" fill="none" />
<polyline points="168.0,222.0,159.0,230.0,146.5,238.0,131.5,245.0" stroke="black" stroke-width="2" fill="none" />
<polyline points="166.0,223.0,157.0,230.0,147.5,236.5,139.5,241.5,131.5,244.5,124.0,248.0,115.5,251.0,108.0,252.0,100.0,253.0,92.0,254.5,84.0,255.0,75.5,254.0,67.5,253.0,60.0,251.0,52.0,249.0,44.0,246.0,35.5,242.0,27.0,238.0,19.0,233.0,10.5,227.0,2.5,220.5" stroke="black" stroke-width="2" fill="none" />
<polyline points="3.0,220.0,3.0,228.0,10.0,235.5,23.5,243.5,40.5,251.0" stroke="black" stroke-width="2" fill="none" />
<polyline points="12.0,241.0,4.5,241.0" stroke="black" stroke-width="2" fill="none" />
<polyline points="3.0,235.5,11.0,235.5,19.0,235.0,27.0,234.5,34.5,233.5,42.0,233.5,50.0,233.0" stroke="black" stroke-width="2" fill="none" />
<polyline points="67.5,214.5,75.5,214.0,83.5,214.5" stroke="black" stroke-width="2" fill="none" />
<polyline points="85.5,208.0,78.5,216.0,76.5,224.0,80.5,232.0" stroke="black" stroke-width="2" fill="none" />
<polyline points="58.0,256.0,50.0,253.5,42.0,250.5,33.5,246.5,25.5,244.0,17.5,239.0,9.5,233.0,1.5,228.0" stroke="black" stroke-width="2" fill="none" />
<polyline points="2.0,228.0,10.5,220.5" stroke="black" stroke-width="2" fill="none" />
<polyline points="8.0,222.0,17.0,230.0,31.0,238.5,47.0,247.0" stroke="black" stroke-width="2" fill="none" />
<polyline points="44.5,227.5,36.5,227.5,28.5,228.0,20.0,228.5,11.5,229.5,3.5,230.0" stroke="black" stroke-width="2" fill="none" />
<polyline points="2.0,223.0,10.0,228.0,18.0,234.0,26.0,239.0,34.0,243.5,42.0,247.5,50.0,250.5,58.0,252.5,66.0,254.5,74.5,255.5" stroke="black" stroke-width="2" fill="none" />
<polyline points="58.0,203.0,50.0,203.5,42.5,204.5,34.5,205.0" stroke="black" stroke-width="2" fill="none" />
<polyline points="29.5,213.5,38.0,205.5,46.5,203.5,54.5,187.5,62.5,171.0,70.5,155.0,79.5,148.5,76.0,156.5,71.5,164.0,68.5,172.0,65.5,180.0,61.5,188.0,58.5,196.0,54.5,204.5,49.0,212.5,45.0,220.5,41.0,228.5" stroke="black" stroke-width="2" fill="none" />
<polyline points="39.5,224.0,31.0,215.5" stroke="black" stroke-width="2" fill="none" />
<polyline points="28.5,213.0,36.5,212.5,44.0,212.0,52.0,211.5" stroke="black" stroke-width="2" fill="none" />
<polyline points="85.0,198.0,92.5,197.5" stroke="black" stroke-width="2" fill="none" />
<polyline points="87.5,199.5,78.5,207.5,79.5,205.0,87.5,199.0,95.0,199.0,101.0,207.0" stroke="black" stroke-width="2" fill="none" />
<polyline points="102.5,208.0,99.0,199.5" stroke="black" stroke-width="2" fill="none" />
<polyline points="19.5,214.5,12.0,214.5,4.0,215.0" stroke="black" stroke-width="2" fill="none" />
<polyline points="3.0,206.5,11.0,206.0" stroke="black" stroke-width="2" fill="none" />
<polyline points="11.0,198.0,3.0,198.5" stroke="black" stroke-width="2" fill="none" />
<polyline points="2.0,190.5,10.5,190.0" stroke="black" stroke-width="2" fill="none" />
<polyline points="2.0,188.5,10.0,181.0" stroke="black" stroke-width="2" fill="none" />
<polyline points="11.5,184.5,3.5,184.5" stroke="black" stroke-width="2" fill="none" />
<polyline points="4.5,180.5,12.5,179.5,21.0,179.0" stroke="black" stroke-width="2" fill="none" />
<polyline points="10.5,172.0,2.5,180.0" stroke="black" stroke-width="2" fill="none" />
<polyline points="6.5,186.5,13.0,183.0,14.0,175.5,11.0,171.5,3.0,171.0" stroke="black" stroke-width="2" fill="none" />
<polyline points="4.0,170.0,11.5,170.0,19.5,170.5" stroke="black" stroke-width="2" fill="none" />
<polyline points="10.0,147.5,2.0,148.0" stroke="black" stroke-width="2" fill="none" />
<polyline points="14.0,140.5,21.5,140.5" stroke="black" stroke-width="2" fill="none" />
<polyline points="14.5,137.0,6.5,138.5,12.5,134.5" stroke="black" stroke-width="2" fill="none" />
<polyline points="11.0,133.5,19.5,133.5,28.0,133.0" stroke="black" stroke-width="2" fill="none" />
<polyline points="27.5,124.5,19.5,125.0,11.5,126.0" stroke="black" stroke-width="2" fill="none" />
<polyline points="11.5,117.5,3.0,114.5" stroke="black" stroke-width="2" fill="none" />
<polyline points="2.5,112.5,12.5,120.5,12.5,128.5,1.5,136.0,10.0,133.5" stroke="black" stroke-width="2" fill="none" />
<polyline points="14.5,134.5,11.5,142.0,4.0,151.0,12.0,149.0,20.0,140.5" stroke="black" stroke-width="2" fill="none" />
<polyline points="19.5,116.0,11.5,116.0" stroke="black" stroke-width="2" fill="none" />
<polyline points="18.0,119.0,10.0,113.0,1.5,111.0" stroke="black" stroke-width="2" fill="none" />
<polyline points="3.5,110.0,17.5,118.0,22.0,126.0,21.5,133.5,18.5,141.5,5.5,149.5,7.5,145.0" stroke="black" stroke-width="2" fill="none" />
<polyline points="3.5,92.5,11.0,85.0" stroke="black" stroke-width="2" fill="none" />
<polyline points="11.0,86.5,2.5,87.0" stroke="black" stroke-width="2" fill="none" />
<polyline points="6.0,85.5,13.5,85.0" stroke="black" stroke-width="2" fill="none" />
<polyline points="12.0,75.5,4.0,83.0" stroke="black" stroke-width="2" fill="none" />
<polyline points="4.5,77.0,12.5,77.0" stroke="black" stroke-width="2" fill="none" />
<polyline points="10.0,76.0,2.0,74.0" stroke="black" stroke-width="2" fill="none" />
<polyline points="7.0,75.5,13.0,83.5,5.5,91.0,9.5,90.0" stroke="black" stroke-width="2" fill="none" />
<polyline points="10.5,63.0,3.0,63.5" stroke="black" stroke-width="2" fill="none" />
<polyline points="3.0,55.5,11.0,48.5,19.0,41.0,28.0,34.5,36.0,27.5,44.5,19.5,53.0,12.0" stroke="black" stroke-width="2" fill="none" />
<polyline points="51.5,17.0,59.0,16.5,67.0,16.5,75.0,16.0" stroke="black" stroke-width="2" fill="none" />
<polyline points="75.5,18.5,83.5,11.0,91.0,3.0" stroke="black" stroke-width="2" fill="none" />
<polyline points="85.0,5.5,77.0,12.5,69.0,20.0" stroke="black" stroke-width="2" fill="none" />
<polyline points="72.0,20.5,80.0,22.0,88.0,19.0,96.0,21.5,104.0,21.5,112.0,22.0,120.0,21.5,128.0,25.5,137.5,21.0,150.5,29.0,162.5,37.0,172.5,45.0,179.5,53.5,185.5,61.5,191.5,70.0,195.0,78.0,199.0,85.5,202.0,93.5,205.0,101.0,206.0,108.5,208.0,116.5,208.0,124.5,209.0,133.0,208.0,141.0,207.0,149.0" stroke="black" stroke-width="2" fill="none" />
<polyline points="178.5,149.5,171.0,151.0,166.0,153.5,155.0,147.5,156.5,139.5,155.5,140.5" stroke="black" stroke-width="2" fill="none" />
<polyline points="159.0,136.0,158.0,144.5,157.0,148.0,159.0,149.5,172.0,153.5,179.5,152.5,188.0,149.5" stroke="black" stroke-width="2" fill="none" />
<polyline points="108.0,98.5,100.5,99.5,92.5,100.0" stroke="black" stroke-width="2" fill="none" />
<polyline points="92.0,92.5,100.0,92.0,108.0,91.0" stroke="black" stroke-width="2" fill="none" />
<polyline points="98.0,83.0,106.0,76.0" stroke="black" stroke-width="2" fill="none" />
<polyline points="108.0,80.0,100.0,80.5" stroke="black" stroke-width="2" fill="none" />
<polyline points="100.5,74.5,108.0,74.0,116.0,74.0" stroke="black" stroke-width="2" fill="none" />
<polyline points="108.5,67.5,100.5,68.0" stroke="black" stroke-width="2" fill="none" />
<polyline points="97.5,65.5,99.5,73.5,97.0,81.5,95.0,89.0,92.5,96.5,90.5,104.5,88.0,112.5" stroke="black" stroke-width="2" fill="none" />
<polyline points="90.5,84.0,98.5,83.5,107.0,83.0" stroke="black" stroke-width="2" fill="none" />
<polyline points="99.0,61.0,107.0,60.0,114.5,59.5" stroke="black" stroke-width="2" fill="none" />
<polyline points="111.5,56.0,110.5,64.0,108.0,72.5,109.0,80.0,106.0,88.0,103.0,96.0,98.5,104.0,95.5,112.0,94.5,120.0,101.0,128.5,101.0,136.5,95.0,144.5" stroke="black" stroke-width="2" fill="none" />
<polyline points="75.0,62.0,67.0,62.5" stroke="black" stroke-width="2" fill="none" />
<polyline points="67.5,56.0,75.0,55.0" stroke="black" stroke-width="2" fill="none" />
<polyline points="81.5,46.0,73.0,47.0,65.0,48.0" stroke="black" stroke-width="2" fill="none" />
<polyline points="67.0,44.0,75.0,36.5" stroke="black" stroke-width="2" fill="none" />
<polyline points="78.5,33.5,86.5,25.5,95.0,24.0,103.0,25.0,105.5,26.0" stroke="black" stroke-width="2" fill="none" />
<polyline points="101.5,26.0,112.5,34.0,113.5,42.0,106.5,50.0,89.5,57.5,90.5,60.5,98.5,59.5,106.5,59.0" stroke="black" stroke-width="2" fill="none" />
<polyline points="107.5,43.5,115.5,36.0" stroke="black" stroke-width="2" fill="none" />
<polyline points="123.5,25.5,130.5,17.5,138.5,10.0" stroke="black" stroke-width="2" fill="none" />
<polyline points="135.5,15.0,147.5,21.0,159.5,29.0,169.5,37.5,179.0,45.5,185.0,53.5,190.0,61.5,195.0,69.5,200.0,78.0,202.5,86.0,205.5,93.5,208.0,101.5,210.0,109.5,212.0,117.5,212.5,125.5,212.5,134.0,212.0,142.0,210.5,150.0,209.5,157.5,205.5,165.5,203.5,173.5,199.5,181.5,195.0,189.5,191.5,197.5,186.5,203.0,181.5,211.5,174.5,219.5,166.5,227.5,157.0,235.0,144.0,243.0,127.0,251.0,122.0,256.0,130.0,253.0,138.0,250.0,146.5,246.0,154.5,242.0,162.5,236.0,171.0,229.5,179.0,221.0,186.5,212.0,194.5,201.0,202.5,186.0,205.5,164.0" stroke="black" stroke-width="2" fill="none" />
<polyline points="200.5,87.5,193.0,72.5,185.0,61.0,177.0,51.5,169.0,42.5,161.0,36.0,152.5,31.0,144.0,26.0,136.0,21.5" stroke="black" stroke-width="2" fill="none" />
<polyline points="132.5,25.5,140.5,18.5" stroke="black" stroke-width="2" fill="none" />
<polyline points="135.5,28.0,143.0,32.5,151.0,36.0,159.0,44.0,167.0,53.5,175.0,62.5,183.0,74.5" stroke="black" stroke-width="2" fill="none" />
<polyline points="187.5,50.0,195.0,58.0,200.0,66.0,204.0,74.0,208.0,82.0,212.0,90.0,213.5,98.0,215.0,106.0,216.5,114.0,214.5,122.5,213.5,130.5,213.5,138.0,213.0,146.0,212.0,154.0,211.5,162.0,210.0,170.0,207.0,178.0,204.0,186.0,199.5,194.0,195.5,202.0,190.0,210.0,184.0,217.5,176.0,225.0,167.0,233.0,155.5,241.0,141.0,249.0" stroke="black" stroke-width="2" fill="none" />
<polyline points="88.0,59.5,96.0,55.5,104.0,51.0,112.0,44.0" stroke="black" stroke-width="2" fill="none" />
<polyline points="114.5,44.0,106.5,44.5,98.5,45.0" stroke="black" stroke-width="2" fill="none" />
<polyline points="99.0,38.0,107.0,37.5,115.5,36.5" stroke="black" stroke-width="2" fill="none" />
<polyline points="116.0,30.0,107.5,31.0,99.5,31.5" stroke="black" stroke-width="2" fill="none" />
<polyline points="96.5,32.0,96.5,34.0,97.5,42.0" stroke="black" stroke-width="2" fill="none" />
<polyline points="97.5,43.5,89.5,47.0,81.5,37.0" stroke="black" stroke-width="2" fill="none" />
<polyline points="82.0,36.5,74.5,37.0,66.5,37.5" stroke="black" stroke-width="2" fill="none" />
<polyline points="67.5,27.5,75.5,27.0,83.0,26.5" stroke="black" stroke-width="2" fill="none" />
<polyline points="85.5,27.5,80.5,35.5,85.5,43.5" stroke="black" stroke-width="2" fill="none" />
<polyline points="80.5,41.5,88.5,47.0,96.5,46.0" stroke="black" stroke-width="2" fill="none" />
<polyline points="97.5,50.5,89.5,55.5,81.5,64.5,68.5,65.5,68.5,57.5,68.5,49.5,68.5,41.5,66.0,40.5,69.0,32.0,78.5,24.5,70.5,25.5" stroke="black" stroke-width="2" fill="none" />
<polyline points="77.0,27.5,76.5,35.0,76.0,43.0,76.0,50.5,75.0,58.5,82.0,65.0,90.0,63.5,98.0,65.5,108.0,64.5" stroke="black" stroke-width="2" fill="none" />
<polyline points="128.0,46.0,136.0,37.5,144.0,40.5" stroke="black" stroke-width="2" fill="none" />
<polyline points="148.5,46.0,140.0,47.0,131.0,47.0" stroke="black" stroke-width="2" fill="none" />
<polyline points="134.0,50.5,141.5,50.0" stroke="black" stroke-width="2" fill="none" />
<polyline points="143.5,54.5,135.0,55.0,132.0,53.0,128.5,45.5,136.5,37.5" stroke="black" stroke-width="2" fill="none" />
<polyline points="122.0,19.0,130.5,11.5" stroke="black" stroke-width="2" fill="none" />
<polyline points="125.0,8.5,145.5,16.5,154.5,24.0,158.5,29.0,167.0,35.0,175.5,38.5,182.5,49.0,190.5,55.0,198.5,66.5,206.5,81.0" stroke="black" stroke-width="2" fill="none" />
<polyline points="122.5,16.5,114.0,16.5,106.0,17.0" stroke="black" stroke-width="2" fill="none" />
<polyline points="115.5,19.0,124.0,11.0,132.0,4.0" stroke="black" stroke-width="2" fill="none" />
<polyline points="132.5,4.5,151.0,12.5,159.0,23.5,170.5,31.5,180.5,40.5,185.5,45.5,188.5,53.5,193.0,59.5,198.0,67.0,202.0,74.5,206.5,82.0,209.5,89.5,211.5,97.5,213.5,105.0,216.0,111.5,220.0,120.5,220.0,128.5,220.0,136.0,220.0,144.0,219.0,152.0,217.0,160.5,215.0,168.5" stroke="black" stroke-width="2" fill="none" />
<polyline points="260.5,-4.0,252.0,-3.5,244.0,-3.0,236.0,-3.0,228.0,-2.0,219.5,-1.0,211.0,0.0,203.0,1.0,195.5,2.0,187.5,2.5,179.5,2.5,171.0,2.5,163.0,2.5,155.0,3.5,147.0,4.5,139.0,5.0,131.5,5.5,123.5,5.5,115.5,6.5,108.0,7.0,100.5,7.5,92.5,8.5,84.5,9.0,76.0,9.0,68.5,9.0,60.5,9.5,52.5,10.5,44.5,11.0,37.0,11.5,29.0,11.5,21.5,12.0,13.0,12.5,5.5,13.0" stroke="black" stroke-width="2" fill="none" />
<polyline points="3.5,4.0,12.0,4.0,20.5,3.5,28.5,3.5,36.0,3.0,44.0,2.5,52.5,2.5,61.0,1.5,69.0,0.5,77.5,0.5,86.0,-0.5,93.5,-0.5,101.0,-0.5,108.5,-0.5,116.0,-1.0,123.0,-1.5,130.5,-2.0,138.0,-2.0" stroke="black" stroke-width="2" fill="none" />
<polyline points="129.0,4.0,137.0,5.5,145.0,8.0,153.0,12.0,160.5,15.0" stroke="black" stroke-width="2" fill="none" />
<polyline points="117.0,11.0,109.0,18.5" stroke="black" stroke-width="2" fill="none" />
<polyline points="101.0,18.5,109.0,11.0,117.0,4.0" stroke="black" stroke-width="2" fill="none" />
<polyline points="106.5,3.0,114.5,5.0,122.5,6.5,130.5,10.0,138.5,13.0,146.5,17.5,152.5,20.5" stroke="black" stroke-width="2" fill="none" />
<polyline points="106.0,4.5,98.0,12.0,90.0,19.5" stroke="black" stroke-width="2" fill="none" />
<polyline points="89.0,25.0,79.0,33.0,78.0,41.0" stroke="black" stroke-width="2" fill="none" />
<polyline points="82.0,34.5,90.0,29.0,98.5,29.0,103.5,34.0,105.5,42.0,98.0,49.5,86.0,57.5,82.0,65.5" stroke="black" stroke-width="2" fill="none" />
<polyline points="46.0,64.0,54.0,79.0,63.0,90.0,71.0,104.0,79.0,115.5,87.0,110.5" stroke="black" stroke-width="2" fill="none" />
<polyline points="38.0,61.0,30.0,49.5" stroke="black" stroke-width="2" fill="none" />
<polyline points="30.0,48.5,38.0,40.5,46.0,42.0" stroke="black" stroke-width="2" fill="none" />
<polyline points="44.0,36.0,35.0,36.5,26.5,37.5,18.5,38.0,11.0,39.0,3.0,40.0" stroke="black" stroke-width="2" fill="none" />
<polyline points="1.0,47.5,9.5,47.5" stroke="black" stroke-width="2" fill="none" />
<polyline points="31.0,47.0,38.5,53.5,46.5,51.0" stroke="black" stroke-width="2" fill="none" />
<polyline points="34.0,40.0,29.5,47.5,33.5,55.0,39.0,62.5,45.0,70.5,50.5,78.0,60.5,86.5,66.5,94.5,70.5,102.5,75.5,110.0" stroke="black" stroke-width="2" fill="none" />
<polyline points="98.5,44.5,101.0,36.0,97.0,28.0" stroke="black" stroke-width="2" fill="none" />
<polyline points="82.5,18.5,90.5,10.5,98.5,3.0" stroke="black" stroke-width="2" fill="none" />
<polyline points="59.0,23.5,66.0,19.5,58.0,25.0,49.5,27.0,41.5,32.5,33.0,36.5" stroke="black" stroke-width="2" fill="none" />
<polyline points="49.5,27.0,40.5,35.0,46.0,41.0,49.0,48.5,46.0,58.5,49.0,66.5,54.0,74.5,58.5,81.5,56.5,89.0,61.0,97.0,67.0,105.0,72.0,113.0,75.0,121.5,72.0,130.0,73.5,138.0,75.0,146.5,71.0,155.0,67.0,163.0,63.5,171.5,59.5,179.5,55.0,187.5,51.0,195.0,47.5,203.0,32.5,209.0,31.5,217.0,39.0,224.5,39.0,231.5,47.0,218.5,54.5,205.5,62.5,187.5,70.5,167.5,78.5,149.0,86.5,147.0,94.5,142.5" stroke="black" stroke-width="2" fill="none" />
<polyline points="207.5,80.0,199.5,65.0,192.0,52.5,184.0,43.0,176.0,34.5,168.0,28.5,160.5,22.5,152.5,17.5,144.5,13.5,136.5,9.5,128.5,7.5,120.5,4.0,112.0,3.0,104.0,4.0,96.0,3.0,87.5,2.5,79.5,3.5,71.0,4.5,63.5,5.5,55.5,8.0,47.5,10.0,39.5,13.0,31.5,16.5,23.5,20.0,15.5,24.5,7.0,30.5,3.0,33.5,13.0,25.5,26.5,17.0,44.5,9.0" stroke="black" stroke-width="2" fill="none" />
<polyline points="43.0,7.5,25.0,15.5,11.0,23.5,2.0,31.5,8.0,27.0,16.0,21.5,24.5,17.5,33.0,13.0,41.5,10.0,49.5,7.0,57.5,5.0,65.5,3.0" stroke="black" stroke-width="2" fill="none" />
<polyline points="50.0,3.0,42.0,5.0,33.5,8.0,25.5,12.5,17.5,16.5,9.5,22.5,4.5,27.5,14.5,19.5,28.0,11.5,47.0,3.5" stroke="black" stroke-width="2" fill="none" />
</svg>