<svg xmlns="http://www.w3.org/2000/svg" version="1.1"><polyline points="92.5,2.5,93.5,10.0,103.0,10.0,107.0,12.0,112.5,19.5,105.0,25.5,114.0,25.0,119.0,21.0" stroke="black" stroke-width="2" fill="none" />
<polyline points="116.0,19.0,123.5,12.0,130.5,4.0" stroke="black" stroke-width="2" fill="none" />
<polyline points="138.5,1.5,130.5,9.5,123.0,17.0" stroke="black" stroke-width="2" fill="none" />
<polyline points="123.0,16.0,131.0,15.5,139.5,15.5,147.5,15.5,155.5,15.0" stroke="black" stroke-width="2" fill="none" />
<polyline points="162.5,13.0,154.5,20.5,147.0,28.0,139.0,35.5,132.0,42.5" stroke="black" stroke-width="2" fill="none" />
<polyline points="131.5,49.0,140.0,48.5" stroke="black" stroke-width="2" fill="none" />
<polyline points="139.5,49.0,147.0,41.5,155.5,33.5,163.5,25.0,172.0,17.0,180.0,9.0,188.0,1.5" stroke="black" stroke-width="2" fill="none" />
<polyline points="186.0,6.5,194.5,6.5" stroke="black" stroke-width="2" fill="none" />
<polyline points="195.0,4.0,187.0,11.0" stroke="black" stroke-width="2" fill="none" />
<polyline points="180.5,18.0,173.0,26.0,165.5,33.5,157.5,41.0,149.5,48.5,141.0,56.0,133.0,63.5,124.5,71.5,116.5,80.0,108.0,88.0" stroke="black" stroke-width="2" fill="none" />
<polyline points="108.5,83.5,116.0,76.5,124.5,69.0,132.5,61.5" stroke="black" stroke-width="2" fill="none" />
<polyline points="123.5,71.5,131.5,71.0,140.0,70.5,148.0,70.0,156.5,70.0,165.0,70.0,172.5,70.0,180.0,70.5,187.5,70.5,196.0,69.5,204.0,69.5" stroke="black" stroke-width="2" fill="none" />
<polyline points="217.5,65.5,225.5,64.5,233.0,64.5,241.5,64.0,250.5,63.5,259.0,63.0" stroke="black" stroke-width="2" fill="none" />
<polyline points="259.0,61.0,250.5,68.5,243.0,75.5" stroke="black" stroke-width="2" fill="none" />
<polyline points="244.5,75.0,236.5,70.0" stroke="black" stroke-width="2" fill="none" />
<polyline points="236.5,75.5,241.5,74.5,227.5,69.0,226.5,73.0" stroke="black" stroke-width="2" fill="none" />
<polyline points="225.5,78.5,233.5,76.5,242.0,78.0" stroke="black" stroke-width="2" fill="none" />
<polyline points="235.5,82.5,227.0,89.5,219.0,97.0,211.0,104.5,203.5,112.0" stroke="black" stroke-width="2" fill="none" />
<polyline points="202.0,114.5,210.5,113.5,219.0,113.0,227.5,113.0,235.0,112.5,243.0,111.5,251.0,110.5,259.0,110.0" stroke="black" stroke-width="2" fill="none" />
<polyline points="258.5,108.5,250.5,115.5,243.0,122.5,235.0,130.0,227.5,137.5,220.0,145.0" stroke="black" stroke-width="2" fill="none" />
<polyline points="220.0,146.5,228.0,146.0" stroke="black" stroke-width="2" fill="none" />
<polyline points="233.0,140.0,240.5,132.5,248.5,125.5" stroke="black" stroke-width="2" fill="none" />
<polyline points="243.5,128.0,235.0,129.0,226.5,130.5,218.0,131.0" stroke="black" stroke-width="2" fill="none" />
<polyline points="217.5,129.5,225.0,121.5,232.5,114.5,240.5,107.0,248.5,99.0,256.5,91.5" stroke="black" stroke-width="2" fill="none" />
<polyline points="258.0,98.5,250.0,106.0,242.0,114.0,234.0,121.5,226.5,129.0,219.0,136.5,211.0,144.0,203.0,152.0" stroke="black" stroke-width="2" fill="none" />
<polyline points="196.5,157.0,204.5,149.5,212.5,141.5" stroke="black" stroke-width="2" fill="none" />
<polyline points="219.0,138.0,227.5,137.5,235.5,137.0" stroke="black" stroke-width="2" fill="none" />
<polyline points="218.5,143.5,211.0,144.0,203.5,144.5,195.0,144.5,187.0,145.5,178.5,145.5,170.0,146.0,162.0,146.0,154.0,146.0,146.0,146.5,138.5,147.0,131.0,147.5,123.5,148.5,116.0,149.0" stroke="black" stroke-width="2" fill="none" />
<polyline points="123.0,153.0,131.0,145.0,139.5,137.0,148.0,129.5,156.0,121.5,164.0,113.5,172.0,106.0" stroke="black" stroke-width="2" fill="none" />
<polyline points="173.5,98.5,165.0,106.0,156.0,113.0,147.5,121.0,138.5,128.5,130.5,136.0,122.0,144.5,113.5,152.5" stroke="black" stroke-width="2" fill="none" />
<polyline points="107.5,147.0,115.5,146.5,123.5,145.5,131.0,145.0,138.5,145.0,146.5,144.5,154.5,143.5,162.5,143.0,170.5,142.0,178.5,141.5" stroke="black" stroke-width="2" fill="none" />
<polyline points="193.5,132.5,185.5,140.0,177.0,148.0,169.0,155.0,161.0,162.5" stroke="black" stroke-width="2" fill="none" />
<polyline points="180.0,162.5,188.0,154.5,196.0,146.5,203.5,139.0" stroke="black" stroke-width="2" fill="none" />
<polyline points="203.0,132.5,195.0,140.0,187.5,148.0,179.5,155.5,171.5,162.5" stroke="black" stroke-width="2" fill="none" />
<polyline points="154.5,161.0,162.5,154.0,170.5,146.5,178.5,139.0,186.5,131.0,194.0,123.5" stroke="black" stroke-width="2" fill="none" />
<polyline points="188.0,125.0,180.0,133.0,172.0,140.5,164.0,148.0,156.0,155.5,148.0,163.0" stroke="black" stroke-width="2" fill="none" />
<polyline points="146.0,153.0,154.5,145.5,163.0,138.5,171.5,131.0,179.5,123.5,188.0,115.5" stroke="black" stroke-width="2" fill="none" />
<polyline points="188.5,117.0,196.5,117.0,203.0,123.5,207.0,129.5" stroke="black" stroke-width="2" fill="none" />
<polyline points="210.0,122.0,218.5,122.0,227.5,121.5,235.5,121.0,243.5,120.5,252.5,120.0" stroke="black" stroke-width="2" fill="none" />
<polyline points="252.0,115.0,244.5,115.5,236.0,116.0,228.0,116.5,220.0,117.0,212.0,117.0,204.0,117.0,195.5,117.5,187.5,117.0,179.0,117.0,170.5,117.5,162.0,117.5,154.5,118.5,147.0,119.5,139.0,121.0,131.0,122.0,123.0,123.0,115.0,123.5,107.0,123.5,99.0,123.5,91.0,124.5,83.0,125.0" stroke="black" stroke-width="2" fill="none" />
<polyline points="89.5,131.0,97.5,123.5,105.0,116.0,113.5,108.5" stroke="black" stroke-width="2" fill="none" />
<polyline points="109.5,107.0,101.5,115.0,93.0,122.0,85.0,129.5" stroke="black" stroke-width="2" fill="none" />
<polyline points="93.0,131.5,101.0,131.0,108.5,130.5,116.0,130.0,123.5,129.5,131.0,129.0,139.5,128.5,148.0,127.5,156.5,127.0,164.5,127.0,172.5,126.5,180.5,126.5,188.5,126.0,196.5,126.0,204.0,126.0,211.0,125.5,219.5,125.5,227.0,124.5,235.0,124.0,242.5,123.0" stroke="black" stroke-width="2" fill="none" />
<polyline points="234.5,133.5,227.0,134.0,219.5,134.5,212.0,135.0,204.0,135.0,196.5,135.5,189.0,136.0,181.0,136.5,173.0,137.0,165.0,138.0,157.0,138.5,149.0,139.5,141.0,140.0,132.5,140.0,124.5,140.0,116.0,140.0,108.0,140.0,100.0,140.5" stroke="black" stroke-width="2" fill="none" />
<polyline points="116.5,143.5,124.5,136.0,132.5,129.0,139.5,122.0,147.0,115.0,155.0,108.0,163.0,101.0" stroke="black" stroke-width="2" fill="none" />
<polyline points="158.5,100.0,166.5,104.0" stroke="black" stroke-width="2" fill="none" />
<polyline points="154.5,102.5,146.5,109.5,138.5,117.0,130.5,123.5,122.5,130.0,114.0,137.0,107.0,144.0" stroke="black" stroke-width="2" fill="none" />
<polyline points="106.0,137.5,114.5,130.5,122.0,123.0,130.0,115.0,138.5,107.0,146.5,100.0,154.5,92.5" stroke="black" stroke-width="2" fill="none" />
<polyline points="148.0,90.5,140.0,98.0,131.5,105.5,123.0,113.0,114.5,120.5,106.0,128.0,97.5,136.0" stroke="black" stroke-width="2" fill="none" />
<polyline points="92.5,138.0,100.0,130.0,107.5,122.0,115.0,114.0,123.0,106.5,130.5,99.0" stroke="black" stroke-width="2" fill="none" />
<polyline points="133.5,91.0,143.5,95.0,155.5,102.0" stroke="black" stroke-width="2" fill="none" />
<polyline points="168.0,105.5,166.5,105.5,163.5,99.5,164.0,96.5,160.0,91.5,161.5,84.0" stroke="black" stroke-width="2" fill="none" />
<polyline points="161.5,83.5,170.5,75.5,179.0,67.5,187.0,59.5,195.5,51.5,203.5,43.5" stroke="black" stroke-width="2" fill="none" />
<polyline points="205.0,37.0,212.5,29.5" stroke="black" stroke-width="2" fill="none" />
<polyline points="210.0,34.5,218.0,27.0" stroke="black" stroke-width="2" fill="none" />
<polyline points="218.0,41.0,226.5,33.5,235.0,25.5,243.5,18.5,251.0,11.5" stroke="black" stroke-width="2" fill="none" />
<polyline points="251.5,19.0,243.0,27.0,235.0,34.5,227.0,42.5,218.5,50.5,210.0,57.5,202.5,65.5,194.5,73.5,186.5,81.0,178.5,89.0" stroke="black" stroke-width="2" fill="none" />
<polyline points="178.0,87.0,176.0,95.0,183.0,98.5,186.5,105.5,197.5,118.5,200.5,125.5,209.5,129.5,212.5,133.5" stroke="black" stroke-width="2" fill="none" />
<polyline points="218.0,121.0,226.0,113.5,234.0,105.5,242.0,98.0,250.0,90.5,258.0,82.5" stroke="black" stroke-width="2" fill="none" />
<polyline points="257.5,75.5,249.5,83.5,242.0,91.5,234.5,99.5,226.5,106.5,218.5,114.0,210.5,121.0" stroke="black" stroke-width="2" fill="none" />
<polyline points="207.0,119.5,216.0,127.5,219.0,135.5,218.0,143.5" stroke="black" stroke-width="2" fill="none" />
<polyline points="204.0,120.0,212.0,112.0,219.5,105.0,227.5,97.5,235.0,90.5,243.0,83.5,251.0,76.5,259.5,69.0" stroke="black" stroke-width="2" fill="none" />
<polyline points="260.0,72.5,252.0,73.0" stroke="black" stroke-width="2" fill="none" />
<polyline points="259.5,52.5,251.5,59.5,243.5,67.0,235.5,74.0,228.0,81.5,220.5,88.5,212.5,96.0,204.5,103.0" stroke="black" stroke-width="2" fill="none" />
<polyline points="205.0,105.5,213.0,105.0,220.5,104.5,228.0,104.0,236.0,104.0" stroke="black" stroke-width="2" fill="none" />
<polyline points="244.0,105.5,251.5,105.0,259.5,104.5" stroke="black" stroke-width="2" fill="none" />
<polyline points="259.5,105.0,251.5,105.5,243.5,106.5,235.5,107.0,228.0,107.5,220.0,108.0,212.0,109.0,203.5,109.5,195.5,110.5,187.0,111.0,178.5,111.0,170.0,111.5,162.0,111.5,153.5,111.5,145.5,112.5,137.5,113.0,129.5,113.5,122.0,113.5,114.0,114.0,106.5,114.5,98.5,115.0,90.5,115.0,82.0,115.5,74.0,116.0" stroke="black" stroke-width="2" fill="none" />
<polyline points="73.0,109.0,81.5,109.0,90.0,108.5,98.0,108.5,106.5,108.5,114.0,108.0,121.5,108.0,129.0,107.5,137.0,107.0,145.0,106.5,153.0,106.0,161.0,105.5,169.5,105.0,178.0,104.0,187.0,103.5,195.5,102.5,203.5,102.0,212.0,101.0,220.0,100.0,227.5,99.0,235.0,98.5,243.0,98.0,251.0,97.5,258.5,97.5" stroke="black" stroke-width="2" fill="none" />
<polyline points="261.0,88.5,253.5,89.5,245.5,90.5,237.0,91.5,229.0,92.5,221.0,93.0,212.5,93.0,204.5,93.0,196.5,93.5,189.0,93.5,180.0,94.0,171.5,94.0,163.0,94.0,155.5,94.5,147.5,95.0,139.5,95.5,131.0,97.0,123.0,98.0,115.5,99.0,108.0,99.5,100.0,101.0,92.5,102.0,85.0,103.0,77.5,103.5,70.0,104.0" stroke="black" stroke-width="2" fill="none" />
<polyline points="74.5,96.5,82.5,88.5,90.5,81.0,99.5,73.5,107.5,66.5,115.5,59.0,123.0,51.5" stroke="black" stroke-width="2" fill="none" />
<polyline points="116.0,48.0,107.5,48.5,99.5,49.5,91.5,50.5,83.5,51.0,75.5,51.0,67.5,52.0" stroke="black" stroke-width="2" fill="none" />
<polyline points="67.0,57.5,74.0,50.0,81.5,42.5,89.0,35.0,97.0,27.5" stroke="black" stroke-width="2" fill="none" />
<polyline points="90.5,26.5,82.5,33.5,74.5,41.0,66.5,48.5" stroke="black" stroke-width="2" fill="none" />
<polyline points="65.5,42.5,74.0,42.5,82.5,42.0" stroke="black" stroke-width="2" fill="none" />
<polyline points="67.0,41.5,75.0,33.5,83.0,25.5,91.0,18.0" stroke="black" stroke-width="2" fill="none" />
<polyline points="90.0,11.0,98.0,18.0,106.5,19.5,114.5,16.5,117.5,18.5,119.0,27.5,126.0,27.5,134.0,25.5,142.0,29.0" stroke="black" stroke-width="2" fill="none" />
<polyline points="146.0,33.0,154.5,32.5,162.5,32.5,171.0,32.0,180.0,31.5" stroke="black" stroke-width="2" fill="none" />
<polyline points="184.5,36.0,192.0,32.0,200.0,31.5,207.5,31.5,216.0,31.5,220.0,36.0,221.5,44.0,213.5,47.0" stroke="black" stroke-width="2" fill="none" />
<polyline points="211.5,46.0,203.5,53.5,196.0,60.5,188.5,67.5,180.5,74.5,172.5,81.5" stroke="black" stroke-width="2" fill="none" />
<polyline points="169.5,80.5,178.0,80.5,186.0,80.5,194.5,80.0,203.0,80.0,211.5,79.5,219.5,78.5" stroke="black" stroke-width="2" fill="none" />
<polyline points="220.5,87.0,212.0,87.0,203.0,87.0,194.5,87.0,186.5,87.5" stroke="black" stroke-width="2" fill="none" />
<polyline points="188.0,87.5,195.5,80.0,203.5,72.0,211.0,64.0,218.5,56.5,226.5,49.0,234.5,42.0,243.0,34.5,251.0,27.0,258.5,19.5" stroke="black" stroke-width="2" fill="none" />
<polyline points="260.0,28.5,252.0,36.0,243.5,43.0,234.5,50.0,226.0,57.5,218.0,65.5,210.5,72.5,203.0,80.0,196.0,87.5" stroke="black" stroke-width="2" fill="none" />
<polyline points="195.0,94.0,203.0,86.5,210.5,80.0,218.5,72.5,226.5,65.0,235.5,58.0,244.0,51.0,253.0,43.5,261.0,36.5" stroke="black" stroke-width="2" fill="none" />
<polyline points="261.5,43.5,253.0,51.0,245.0,58.5,236.5,66.0,228.5,73.0,220.0,80.0,211.5,87.5,203.0,95.0,194.5,102.5" stroke="black" stroke-width="2" fill="none" />
<polyline points="185.0,105.5,177.5,113.0,170.0,120.5,162.5,129.0,154.5,137.0,146.5,145.0,139.0,153.5" stroke="black" stroke-width="2" fill="none" />
<polyline points="133.0,153.0,141.0,145.5,149.5,137.5,157.0,129.0,165.0,121.0,173.5,113.5,181.5,106.0" stroke="black" stroke-width="2" fill="none" />
<polyline points="197.5,108.0,196.5,101.0,190.5,98.5,192.0,91.0,182.0,89.0" stroke="black" stroke-width="2" fill="none" />
<polyline points="171.5,90.0,179.5,83.0,188.5,76.0,197.0,69.0,205.5,61.5,214.0,54.0" stroke="black" stroke-width="2" fill="none" />
<polyline points="219.0,57.5,227.5,57.5,235.0,57.0,242.5,56.5,250.0,55.0,258.0,54.0" stroke="black" stroke-width="2" fill="none" />
<polyline points="250.5,26.5,242.5,27.5,234.0,28.0" stroke="black" stroke-width="2" fill="none" />
<polyline points="235.5,20.0,243.0,19.0" stroke="black" stroke-width="2" fill="none" />
<polyline points="226.5,17.5,233.5,9.5,242.0,2.0" stroke="black" stroke-width="2" fill="none" />
<polyline points="234.0,2.5,225.5,10.0,217.5,18.0" stroke="black" stroke-width="2" fill="none" />
<polyline points="219.5,11.0,227.5,10.5,235.0,10.0,242.5,9.5" stroke="black" stroke-width="2" fill="none" />
<polyline points="251.0,2.5,243.0,10.0,235.5,17.5,228.0,25.0,220.0,33.0" stroke="black" stroke-width="2" fill="none" />
<polyline points="230.0,35.5,237.5,34.5,245.5,34.0,253.0,33.5" stroke="black" stroke-width="2" fill="none" />
<polyline points="258.5,48.5,250.5,49.5,243.0,50.0,235.0,50.0,227.0,50.5" stroke="black" stroke-width="2" fill="none" />
<polyline points="228.5,43.5,236.0,42.5,244.0,42.0,251.5,41.0,259.0,40.0" stroke="black" stroke-width="2" fill="none" />
<polyline points="259.5,1.5,251.0,2.0,242.5,2.5,234.0,2.5,226.5,3.5,219.0,4.5,212.0,5.0,204.5,5.5,196.0,6.0,188.0,6.5,179.0,7.0,170.5,7.5,162.5,7.5,154.0,8.0,146.0,8.5,138.5,9.5,131.0,10.5,123.5,11.5,116.0,12.0,108.0,13.0,99.5,13.5,92.0,13.5,84.0,14.0,76.0,14.5" stroke="black" stroke-width="2" fill="none" />
<polyline points="79.0,15.0,74.0,23.0,77.0,12.0,82.0,10.0,87.5,15.0,95.5,20.5,103.5,24.0" stroke="black" stroke-width="2" fill="none" />
<polyline points="106.0,26.0,98.0,33.5,90.5,41.5,82.5,49.5,74.5,58.0,67.0,65.5" stroke="black" stroke-width="2" fill="none" />
<polyline points="67.5,63.5,75.5,63.0,83.5,62.5,91.5,62.0,100.0,61.0,107.5,60.5,116.0,59.5,124.0,58.5,132.0,57.5,140.0,56.5,148.0,55.5,156.0,55.5,163.5,55.5,171.5,55.5,179.5,55.5,187.5,55.0,195.0,55.0,202.5,54.5,210.5,54.0,218.5,53.5,226.5,53.0,235.0,52.5,243.0,51.5,251.0,51.0,259.0,50.5" stroke="black" stroke-width="2" fill="none" />
<polyline points="261.0,81.5,252.5,81.5,245.0,82.0,237.0,82.0,229.0,82.5,221.0,83.0,213.0,84.0,204.5,85.0,196.0,86.0,187.5,86.5,179.5,87.0,171.0,87.0,162.5,87.5,154.0,88.5,146.0,89.0,138.5,89.5,131.0,89.5,123.5,90.0,116.5,90.5,109.0,91.0,100.5,92.0,92.0,92.5,83.5,94.0,75.0,95.0,67.0,95.5" stroke="black" stroke-width="2" fill="none" />
<polyline points="68.0,88.0,75.5,87.0,83.0,86.5,91.0,85.5,99.5,84.5,108.0,83.5,116.0,82.5,124.0,81.5,132.0,81.0,139.5,80.5,147.5,80.0,156.0,79.5,164.5,78.5,172.5,78.0,180.5,77.0,188.5,77.0,197.0,76.5,205.5,76.5,213.5,76.0,221.5,76.0,230.0,76.0,237.5,75.0,244.5,74.5,252.0,73.5,259.5,72.5" stroke="black" stroke-width="2" fill="none" />
<polyline points="260.5,65.0,252.0,65.5,244.0,66.5,236.0,66.5,228.0,67.0,220.0,68.0,212.0,68.5,203.5,68.5,195.0,69.0,186.5,70.0,179.5,70.0,172.0,70.5,164.5,71.0,156.0,71.5,148.0,72.0,140.0,73.0,132.0,74.0,124.0,75.0,116.5,76.0,108.5,76.5,100.5,77.0,92.0,77.5,83.5,78.0,75.5,78.5,67.0,78.5" stroke="black" stroke-width="2" fill="none" />
<polyline points="73.5,84.5,82.0,77.0,89.5,70.0,98.0,63.0,106.0,55.5,114.0,48.0,122.0,41.5,130.0,34.0,138.0,27.0,146.0,20.0,154.5,13.0,162.5,5.5" stroke="black" stroke-width="2" fill="none" />
<polyline points="157.0,5.5,165.0,3.5,170.5,5.5,178.0,7.0,183.5,6.0" stroke="black" stroke-width="2" fill="none" />
<polyline points="185.0,9.0,177.0,12.0" stroke="black" stroke-width="2" fill="none" />
<polyline points="171.0,12.0,163.0,19.5,155.5,26.5,147.0,33.5,138.5,41.5,131.0,49.5,122.5,56.5,114.5,63.5" stroke="black" stroke-width="2" fill="none" />
<polyline points="116.0,58.5,108.5,59.0" stroke="black" stroke-width="2" fill="none" />
<polyline points="109.5,55.0,113.0,63.5,112.0,71.5,107.5,75.0,109.5,74.0" stroke="black" stroke-width="2" fill="none" />
<polyline points="108.0,74.5,100.0,82.0" stroke="black" stroke-width="2" fill="none" />
<polyline points="94.0,84.0,81.5,92.5,77.5,100.5,76.5,109.0,74.5,119.0,82.0,128.0,90.0,135.0,97.5,140.5,105.5,145.5,113.0,149.5,121.0,153.5,129.0,156.5,137.5,159.0,146.0,160.0,154.0,161.0,162.5,161.5,170.5,161.5,178.5,161.5,186.0,160.5,194.0,158.5,202.0,156.5,210.0,152.5,218.0,149.5,226.5,144.5,234.5,139.5,242.5,132.5,251.0,123.5" stroke="black" stroke-width="2" fill="none" />
<polyline points="255.0,115.0,250.0,123.0,243.5,131.0,235.0,139.0,223.0,147.0,205.5,155.0" stroke="black" stroke-width="2" fill="none" />
<polyline points="177.5,130.0,169.0,130.5,161.0,131.0" stroke="black" stroke-width="2" fill="none" />
<polyline points="147.5,119.5,139.5,120.0" stroke="black" stroke-width="2" fill="none" />
<polyline points="139.0,128.5,131.5,129.5,123.5,130.0" stroke="black" stroke-width="2" fill="none" />
<polyline points="123.5,124.5,131.5,123.5" stroke="black" stroke-width="2" fill="none" />
<polyline points="124.0,135.5,132.5,135.0,140.5,134.5,148.5,134.5,156.5,134.5,164.0,134.5,172.0,135.0,179.5,135.0" stroke="black" stroke-width="2" fill="none" />
<polyline points="197.0,153.0,188.5,154.0,180.0,155.0,171.5,155.5,163.5,156.0,155.0,156.0,146.5,156.5,138.0,157.5,130.0,158.0" stroke="black" stroke-width="2" fill="none" />
<polyline points="124.0,152.5,132.0,152.5,139.5,152.5,147.5,152.5,155.5,152.5,163.5,152.0,171.0,152.0,178.5,151.5,186.5,151.0" stroke="black" stroke-width="2" fill="none" />
<polyline points="164.0,178.5,156.0,179.5,148.0,180.5,140.0,181.5,132.5,182.5,124.0,183.5" stroke="black" stroke-width="2" fill="none" />
<polyline points="124.0,189.0,132.0,188.5,140.5,188.0,148.0,187.5,155.5,187.0,162.5,187.0" stroke="black" stroke-width="2" fill="none" />
<polyline points="154.0,170.5,146.5,171.0,138.5,172.0,130.5,172.5,123.5,172.5,115.5,173.0" stroke="black" stroke-width="2" fill="none" />
<polyline points="109.0,166.0,116.5,165.5,124.0,165.0" stroke="black" stroke-width="2" fill="none" />
<polyline points="108.0,121.0,100.0,121.5" stroke="black" stroke-width="2" fill="none" />
<polyline points="99.5,106.5,91.5,114.0,82.5,121.5" stroke="black" stroke-width="2" fill="none" />
<polyline points="85.5,114.0,94.0,112.0,102.0,111.0,110.5,110.5,118.5,107.5" stroke="black" stroke-width="2" fill="none" />
<polyline points="121.5,96.0,130.0,89.0,138.5,81.0,147.0,73.0,155.0,65.0,163.5,57.0,171.5,49.0,179.5,41.5,187.0,34.0,195.0,27.0,203.0,19.5" stroke="black" stroke-width="2" fill="none" />
<polyline points="204.5,23.5,196.5,23.5" stroke="black" stroke-width="2" fill="none" />
<polyline points="194.5,31.5,202.5,23.5,210.5,16.5,218.5,9.5,226.5,2.0" stroke="black" stroke-width="2" fill="none" />
<polyline points="218.0,3.0,210.5,10.5" stroke="black" stroke-width="2" fill="none" />
<polyline points="204.5,9.5,196.5,17.0,187.5,24.5,179.0,32.5,171.0,41.0,162.0,49.0,154.0,56.5,146.0,64.0,137.5,71.5,129.0,79.0,121.0,86.5" stroke="black" stroke-width="2" fill="none" />
<polyline points="124.0,89.5,132.0,89.0" stroke="black" stroke-width="2" fill="none" />
<polyline points="138.5,85.5,146.5,84.5,154.5,85.0,137.5,83.0,130.0,91.5,136.0,95.5,133.0,100.5,141.0,98.5,146.0,96.5,153.0,97.0,159.0,98.0,167.0,98.0,175.0,99.0,182.5,101.0,185.5,102.5,188.0,107.5,191.5,102.5" stroke="black" stroke-width="2" fill="none" />
<polyline points="204.5,98.0,212.0,97.5,219.5,97.0,227.0,96.5" stroke="black" stroke-width="2" fill="none" />
<polyline points="220.5,66.0,228.5,64.0,237.0,67.0,245.0,67.0" stroke="black" stroke-width="2" fill="none" />
<polyline points="259.5,58.0,251.5,58.5,243.5,58.5,235.5,59.0,228.0,59.5,220.0,59.5,211.5,60.0,204.0,60.5,196.0,61.0,188.0,61.5,180.0,62.5,172.0,63.5,164.0,64.5,156.5,65.5,148.0,66.5,140.0,66.5,132.0,67.0,123.5,67.0,116.0,67.0,108.0,67.5,100.0,68.0,92.0,68.5,84.0,68.5,75.5,69.0,67.5,69.5" stroke="black" stroke-width="2" fill="none" />
<polyline points="66.5,73.5,74.5,66.0,83.0,59.0,91.5,51.5,99.5,44.0,107.0,36.5,114.5,29.0" stroke="black" stroke-width="2" fill="none" />
<polyline points="121.5,24.5,129.5,24.5,138.5,24.0,147.0,24.0,155.5,23.5" stroke="black" stroke-width="2" fill="none" />
<polyline points="156.5,43.0,164.5,42.0,172.5,41.5,180.0,41.0" stroke="black" stroke-width="2" fill="none" />
<polyline points="187.0,42.0,179.5,49.5,172.0,57.0,164.5,65.0,156.5,73.5,149.0,81.5,140.5,89.5" stroke="black" stroke-width="2" fill="none" />
<polyline points="142.5,93.0,144.5,89.0,152.5,87.0,160.0,90.5,168.5,89.5,169.5,93.0,179.5,93.0,187.5,95.0,191.0,98.0" stroke="black" stroke-width="2" fill="none" />
<polyline points="201.0,117.5,209.0,119.5,217.0,126.0" stroke="black" stroke-width="2" fill="none" />
<polyline points="196.5,94.5,189.0,88.5,181.5,87.0,174.0,87.0,166.0,79.5,158.5,78.5,150.0,79.5,142.0,81.5,133.5,86.5,124.5,95.5,116.5,91.5,108.5,86.5,100.5,86.0,92.5,86.0,84.5,91.0,77.0,98.0" stroke="black" stroke-width="2" fill="none" />
<polyline points="80.0,98.5,88.0,93.5,96.0,94.0,104.0,91.0,101.5,92.0,103.5,102.0" stroke="black" stroke-width="2" fill="none" />
<polyline points="107.0,94.0,121.5,93.0,114.5,95.0,111.5,96.5" stroke="black" stroke-width="2" fill="none" />
<polyline points="115.5,95.5,119.5,103.5" stroke="black" stroke-width="2" fill="none" />
<polyline points="115.0,87.0,122.5,79.0,130.5,71.5,138.5,63.5,146.5,56.0,154.0,48.5,162.0,41.5,170.5,33.5,179.0,26.5,187.5,19.0,196.0,11.5,204.0,3.5" stroke="black" stroke-width="2" fill="none" />
<polyline points="202.5,5.5,201.5,6.5,209.5,13.5,217.5,17.5,225.0,14.5" stroke="black" stroke-width="2" fill="none" />
<polyline points="220.5,21.5,210.5,17.5,211.5,19.5,212.0,10.5,210.5,2.5" stroke="black" stroke-width="2" fill="none" />
<polyline points="186.0,16.0,186.5,12.0,175.5,11.0,179.5,3.0" stroke="black" stroke-width="2" fill="none" />
<polyline points="179.5,13.0,184.0,18.0,176.0,18.5" stroke="black" stroke-width="2" fill="none" />
<polyline points="190.5,32.5,190.5,36.0,204.0,42.0,201.5,42.5,208.5,38.5,211.0,42.5,212.0,56.5" stroke="black" stroke-width="2" fill="none" />
<polyline points="195.0,44.0,186.5,51.5,178.0,58.5,170.0,65.5,162.0,72.5,154.0,80.0" stroke="black" stroke-width="2" fill="none" />
<polyline points="147.5,67.5,155.0,67.0,163.0,66.5,171.0,65.5,178.5,64.5" stroke="black" stroke-width="2" fill="none" />
<polyline points="178.5,56.0,170.5,56.5,163.5,56.5,156.0,57.0" stroke="black" stroke-width="2" fill="none" />
<polyline points="157.5,50.0,165.0,49.5,172.5,48.5,180.0,47.5" stroke="black" stroke-width="2" fill="none" />
<polyline points="199.0,38.0,199.0,39.0,190.0,40.5,198.0,37.0,205.5,36.5,213.5,36.0,217.5,41.0,216.0,49.0,211.0,57.5,216.0,62.5,226.0,69.5,225.0,80.0,237.5,79.0,240.5,88.0,240.5,85.0,244.5,80.5" stroke="black" stroke-width="2" fill="none" />
<polyline points="259.0,41.5,252.0,42.5,245.0,43.5,237.5,44.0,229.5,44.5,222.0,45.5,213.5,46.0,205.0,46.5,196.5,46.5,188.5,47.0,180.5,47.0,172.5,47.5,164.5,48.0,156.5,48.0,149.0,48.0,141.5,48.5,133.5,49.0,125.0,49.0,116.5,49.5,107.0,49.5,98.5,50.0,90.5,50.0,82.5,50.5,74.5,51.0,66.0,51.5,58.0,52.5" stroke="black" stroke-width="2" fill="none" />
<polyline points="59.0,45.0,67.0,44.5,75.5,43.5,84.0,43.0,92.0,42.5,100.5,42.0,108.5,41.5,116.5,41.0,124.0,40.0,132.0,39.0,139.5,38.5,147.5,38.0,156.0,37.5,164.0,37.0,172.5,37.0,181.0,37.0,188.5,37.0,196.0,37.5,203.5,37.5,212.0,36.5,220.0,36.5,228.0,36.0,236.0,35.0,244.0,34.5,252.0,34.5,260.0,34.5" stroke="black" stroke-width="2" fill="none" />
<polyline points="259.0,-6.5,251.0,-6.0,243.0,-5.5,235.0,-5.0,227.5,-4.0,220.0,-3.0,212.0,-2.0,204.5,-2.0,196.0,-2.0,187.0,-2.0,178.5,-2.0,170.5,-1.5,162.5,-1.0,154.5,-0.5,146.5,0.5,139.0,1.5,131.0,2.0,123.5,2.5,116.0,3.5,108.0,4.0,100.0,5.0,91.5,5.5" stroke="black" stroke-width="2" fill="none" />
<polyline points="91.0,8.0,93.5,16.0" stroke="black" stroke-width="2" fill="none" />
<polyline points="101.0,20.0,108.5,12.5,116.5,5.0" stroke="black" stroke-width="2" fill="none" />
<polyline points="116.0,9.5,124.0,9.0,132.0,8.5,140.5,7.5,148.5,7.0,156.5,6.5" stroke="black" stroke-width="2" fill="none" />
<polyline points="155.5,3.5,147.0,11.0,138.5,18.5,130.0,26.0,121.5,33.5,113.5,40.5,105.5,47.5,98.0,54.5,90.0,61.5,82.5,69.5,74.5,77.0,66.5,84.5" stroke="black" stroke-width="2" fill="none" />
<polyline points="66.0,78.0,74.5,71.0,83.0,64.0,91.5,56.5,99.5,48.5,108.0,40.5,115.5,33.0,123.5,25.5,131.5,17.5,140.0,9.0,148.5,1.5" stroke="black" stroke-width="2" fill="none" />
<polyline points="122.0,3.0,114.0,11.0" stroke="black" stroke-width="2" fill="none" />
<polyline points="116.5,13.5,108.5,7.5,100.0,4.5,87.0,3.5,79.5,5.5,71.5,11.0,63.5,25.0" stroke="black" stroke-width="2" fill="none" />
<polyline points="65.5,22.5,73.5,22.0,81.5,20.5,89.5,19.5,98.0,19.0,106.5,18.0,115.0,17.5,124.0,17.5,132.0,17.0,140.0,16.5,148.0,16.5,156.0,16.0,163.5,16.0,171.5,15.5,179.5,15.0,187.5,14.5,195.5,14.0,203.5,14.5,211.5,14.0,220.0,14.0,228.5,13.5,236.0,12.5,244.0,12.0,251.5,11.0,259.0,10.0" stroke="black" stroke-width="2" fill="none" />
<polyline points="260.5,25.5,252.0,26.0,244.0,26.5,235.5,27.0,227.5,27.5,219.0,28.0,211.5,28.5,203.5,29.0,196.0,29.5,188.0,30.0,180.0,30.5,171.5,30.5,163.0,31.0,154.5,31.0,145.5,31.5,137.5,31.5,130.0,32.0,122.0,32.5,114.5,33.5,107.0,34.0,99.5,35.0,92.0,35.5,84.0,35.5,76.5,36.0,68.5,36.0,60.5,36.0" stroke="black" stroke-width="2" fill="none" />
<polyline points="60.0,29.5,68.0,28.5,76.5,28.0,84.5,27.5,92.5,27.0,100.0,26.5,108.0,25.5,115.5,25.0,123.5,24.0,131.5,23.5,139.0,23.0,147.0,22.5,155.5,22.5,163.5,22.5,171.5,22.0,179.5,22.0,187.5,21.5,195.5,21.5,203.0,21.5,210.5,21.0,218.0,21.0,226.5,20.5,235.0,19.0,243.5,18.0,252.0,17.5,260.5,16.5" stroke="black" stroke-width="2" fill="none" />
<polyline points="153.0,46.5,153.0,43.0,145.0,42.0" stroke="black" stroke-width="2" fill="none" />
<polyline points="146.0,54.0,144.5,49.0,137.0,49.0,129.0,46.0,121.0,43.0" stroke="black" stroke-width="2" fill="none" />
<polyline points="121.5,43.5,129.5,52.0,131.5,52.5,139.5,55.0,147.5,54.0" stroke="black" stroke-width="2" fill="none" />
<polyline points="148.5,81.0,140.5,81.0,133.0,81.0,125.5,81.5" stroke="black" stroke-width="2" fill="none" />
<polyline points="118.0,70.5,109.0,64.5,101.0,63.5" stroke="black" stroke-width="2" fill="none" />
<polyline points="102.0,63.5,108.5,71.5,114.5,75.0" stroke="black" stroke-width="2" fill="none" />
<polyline points="90.5,82.0,82.5,82.5,75.0,83.0" stroke="black" stroke-width="2" fill="none" />
<polyline points="75.5,90.0,83.5,89.5" stroke="black" stroke-width="2" fill="none" />
<polyline points="88.0,89.5,79.0,97.0,82.5,102.5,90.5,99.0,90.5,96.0,98.5,95.5,107.0,99.5,118.5,97.5,123.0,96.0" stroke="black" stroke-width="2" fill="none" />
<polyline points="92.0,73.5,84.0,74.0,76.0,75.0" stroke="black" stroke-width="2" fill="none" />
<polyline points="75.0,65.5,83.0,65.5,91.5,65.5" stroke="black" stroke-width="2" fill="none" />
<polyline points="98.0,54.5,89.0,62.5,87.0,64.0,95.5,57.0,104.0,55.0,112.5,59.0,119.5,65.0,121.0,70.0" stroke="black" stroke-width="2" fill="none" />
<polyline points="100.0,55.5,91.5,56.5,83.0,58.0,75.0,59.5,67.0,60.0" stroke="black" stroke-width="2" fill="none" />
<polyline points="67.0,33.5,75.0,26.0,83.0,18.5" stroke="black" stroke-width="2" fill="none" />
<polyline points="75.5,5.5,71.5,13.5,64.0,21.5,60.0,29.5,60.0,37.5,60.0,45.5,61.0,53.5,63.0,61.5,64.0,69.5,66.0,77.5,66.0,85.5,68.0,93.5,70.0,101.5,73.0,110.0,73.0,118.0,78.5,126.0,88.0,134.0,98.0,141.5,111.5,149.0" stroke="black" stroke-width="2" fill="none" />
<polyline points="85.0,225.0,76.5,225.0,67.5,226.0,59.0,226.5,50.5,227.5,42.5,228.0,34.5,229.0,27.0,230.0,19.5,230.5,12.5,231.0,5.0,231.5" stroke="black" stroke-width="2" fill="none" />
<polyline points="1.5,239.5,10.0,239.0,18.0,238.5,26.5,237.5,35.5,237.5,44.0,236.5,52.0,236.0,59.5,235.0,68.0,234.5,76.0,233.5,84.0,232.5,92.0,232.0" stroke="black" stroke-width="2" fill="none" />
<polyline points="83.5,235.0,75.5,242.5,67.5,249.5,59.5,257.0" stroke="black" stroke-width="2" fill="none" />
<polyline points="84.0,257.0,91.5,250.0,99.5,242.5" stroke="black" stroke-width="2" fill="none" />
<polyline points="99.5,251.0,91.5,259.0" stroke="black" stroke-width="2" fill="none" />
<polyline points="105.0,259.5,113.5,252.0" stroke="black" stroke-width="2" fill="none" />
<polyline points="110.5,253.0,102.0,260.0" stroke="black" stroke-width="2" fill="none" />
<polyline points="116.5,257.0,124.0,249.5" stroke="black" stroke-width="2" fill="none" />
<polyline points="89.5,243.5,82.0,251.0,74.0,259.0" stroke="black" stroke-width="2" fill="none" />
<polyline points="68.0,258.0,76.0,251.0,84.5,243.5" stroke="black" stroke-width="2" fill="none" />
<polyline points="75.0,235.0,67.0,242.5,59.0,250.0" stroke="black" stroke-width="2" fill="none" />
<polyline points="57.5,240.5,66.0,233.0,74.0,225.5" stroke="black" stroke-width="2" fill="none" />
<polyline points="66.5,226.0,58.0,233.5,50.0,241.5" stroke="black" stroke-width="2" fill="none" />
<polyline points="49.5,235.0,57.5,227.5,65.5,220.0" stroke="black" stroke-width="2" fill="none" />
<polyline points="58.0,218.5,50.5,226.5,43.0,234.0" stroke="black" stroke-width="2" fill="none" />
<polyline points="45.0,227.5,53.0,220.5" stroke="black" stroke-width="2" fill="none" />
<polyline points="53.0,210.5,45.0,218.0,37.0,226.0" stroke="black" stroke-width="2" fill="none" />
<polyline points="67.0,219.5,59.5,220.0,53.0,220.5,45.5,221.0,37.5,221.0,29.5,221.0,22.0,221.0,14.0,221.0,6.0,220.5" stroke="black" stroke-width="2" fill="none" />
<polyline points="2.0,216.0,10.0,218.0,18.0,220.5,26.0,222.5,34.5,222.0,42.0,222.0,42.5,227.0,50.5,229.5,58.5,231.0,66.5,232.5,74.5,235.5,82.5,238.5" stroke="black" stroke-width="2" fill="none" />
<polyline points="130.0,245.5,122.0,245.5,114.5,246.0,106.5,247.0,98.5,247.5,91.5,247.5,83.5,248.0,75.5,248.0,67.5,248.5,59.0,248.5,51.0,248.5,42.5,248.5,35.0,249.5,27.5,250.0,20.0,251.0,12.5,251.5,4.5,252.5" stroke="black" stroke-width="2" fill="none" />
<polyline points="4.0,245.5,11.5,245.5,19.0,245.0,27.0,244.0,34.5,243.0,43.0,242.5,51.0,242.0,59.0,241.0,67.0,241.0,75.5,240.5,84.0,240.0,91.5,239.5,99.0,238.5,106.5,238.0" stroke="black" stroke-width="2" fill="none" />
<polyline points="60.0,211.0,52.0,211.0,43.5,211.5,36.0,212.5,27.5,213.0,19.5,213.0,11.5,213.0,3.5,213.5" stroke="black" stroke-width="2" fill="none" />
<polyline points="2.5,206.0,10.5,205.0,19.0,204.0,27.0,203.0,35.0,202.5,43.0,202.0,51.5,201.5" stroke="black" stroke-width="2" fill="none" />
<polyline points="43.5,195.0,35.0,195.0,26.5,195.5,18.5,195.5,11.0,196.0,3.0,196.0" stroke="black" stroke-width="2" fill="none" />
<polyline points="5.5,189.0,13.0,189.0,21.0,188.5,29.0,188.0,36.5,187.0,44.0,186.5" stroke="black" stroke-width="2" fill="none" />
<polyline points="37.0,179.0,29.0,179.0,21.0,179.5,12.5,180.5,3.5,181.0" stroke="black" stroke-width="2" fill="none" />
<polyline points="4.5,172.0,12.0,172.0,19.5,171.5,27.5,171.0" stroke="black" stroke-width="2" fill="none" />
<polyline points="28.0,165.0,20.5,165.5,12.5,166.0,4.5,166.0" stroke="black" stroke-width="2" fill="none" />
<polyline points="4.5,158.5,12.5,158.0,20.5,157.0,28.0,156.5" stroke="black" stroke-width="2" fill="none" />
<polyline points="23.5,160.5,31.5,179.5,40.0,192.0,48.5,203.5,56.5,212.5,65.0,219.0,72.5,226.0,80.0,232.0,88.0,237.0,95.5,241.5,103.0,245.5,111.5,249.5,119.5,251.0,128.0,254.0,136.0,255.5,144.0,256.5,152.5,256.5" stroke="black" stroke-width="2" fill="none" />
<polyline points="178.0,255.5,186.0,255.5,194.5,256.0,203.0,255.0,211.0,253.0,219.5,251.5,227.5,248.5,235.5,244.5,243.0,240.5,251.0,236.5,252.0,235.5,237.0,243.5,217.0,251.5" stroke="black" stroke-width="2" fill="none" />
<polyline points="210.0,256.0,218.0,255.0,226.5,254.0,235.0,253.0,242.5,251.5,251.0,250.5,259.0,249.5" stroke="black" stroke-width="2" fill="none" />
<polyline points="254.0,238.0,261.5,237.0" stroke="black" stroke-width="2" fill="none" />
<polyline points="259.0,245.0,251.0,245.5,243.0,246.5,234.5,247.0" stroke="black" stroke-width="2" fill="none" />
<polyline points="219.5,158.5,235.5,151.0,247.5,143.0,254.5,138.0,246.0,143.5,238.0,148.5,230.0,153.5,222.0,157.5,214.0,160.5,206.0,163.5,198.0,165.5,189.5,167.5,181.5,168.5,174.5,169.5,166.5,169.5,158.5,170.0,150.5,170.0,143.0,169.5,135.0,167.5,127.0,165.5,119.0,163.5,111.0,160.5,103.0,156.5,95.0,152.5,87.5,146.5,79.5,140.0,71.5,132.0,63.0,123.0,55.0,110.5,47.0,92.0" stroke="black" stroke-width="2" fill="none" />
<polyline points="46.5,98.0,54.5,114.0,62.5,126.0,70.0,136.0,78.5,143.0,86.5,150.0,94.0,154.5" stroke="black" stroke-width="2" fill="none" />
<polyline points="20.0,150.0,12.0,150.5,4.0,151.0" stroke="black" stroke-width="2" fill="none" />
<polyline points="2.5,142.0,10.5,141.0,18.0,140.5" stroke="black" stroke-width="2" fill="none" />
<polyline points="42.5,82.5,43.5,84.5,45.0,92.5,47.5,100.5,50.5,108.0,54.5,115.5,60.0,123.5,66.0,131.0,73.0,138.5,83.0,146.5,95.0,154.0" stroke="black" stroke-width="2" fill="none" />
<polyline points="116.0,160.0,98.0,152.5,86.0,144.5,76.0,136.5,68.5,128.5,61.5,121.0,57.0,112.5,53.0,104.5,49.0,96.5,46.5,89.0,44.5,81.0" stroke="black" stroke-width="2" fill="none" />
<polyline points="26.0,70.5,18.5,77.0" stroke="black" stroke-width="2" fill="none" />
<polyline points="18.0,62.0,20.0,54.0,18.0,52.0" stroke="black" stroke-width="2" fill="none" />
<polyline points="17.0,47.0,25.0,47.0,30.5,59.0,27.5,67.5,18.5,75.5,19.5,83.5,20.5,91.5,18.0,99.5,17.5,108.0,17.5,116.0,17.5,124.0,18.5,132.0,19.5,139.5,21.5,147.5,23.5,155.0,25.5,163.0,29.5,170.5,32.5,179.0,37.0,187.0,41.5,195.0,48.5,203.0,54.0,211.0,62.0,219.0,72.0,227.5,83.0,235.5,98.0,243.5,117.5,251.5" stroke="black" stroke-width="2" fill="none" />
<polyline points="249.5,147.0,241.5,154.0,234.0,160.0,226.0,166.0,218.0,170.5,210.0,174.0,214.5,172.0,228.0,164.5,239.0,157.0,249.0,149.5,256.0,141.5" stroke="black" stroke-width="2" fill="none" />
<polyline points="142.0,33.0,134.0,31.5,125.5,33.5,125.5,34.5,128.5,26.5,135.0,26.0" stroke="black" stroke-width="2" fill="none" />
<polyline points="31.0,51.5,19.0,62.5,15.5,54.5,20.0,46.5" stroke="black" stroke-width="2" fill="none" />
<polyline points="17.0,42.0,12.0,47.0,17.0,42.5,25.0,44.5,33.5,46.5" stroke="black" stroke-width="2" fill="none" />
</svg>