<svg xmlns="http://www.w3.org/2000/svg" version="1.1"><polyline points="194.0,33.0,195.0,41.0,192.5,41.0,190.0,49.5,184.5,53.5,184.0,62.0,182.0,70.5,180.5,78.5,166.0,86.0,142.0,92.0,142.0,100.0,142.0,108.0" stroke="black" stroke-width="2" fill="none" />
<polyline points="145.0,90.0,153.5,87.5,162.5,85.5,170.5,80.5" stroke="black" stroke-width="2" fill="none" />
<polyline points="178.5,77.0,186.5,76.0,194.0,75.0,202.0,74.5,210.0,74.5" stroke="black" stroke-width="2" fill="none" />
<polyline points="211.5,74.5,219.5,74.0,227.5,73.0,235.5,72.0,243.5,72.0,251.5,71.5" stroke="black" stroke-width="2" fill="none" />
<polyline points="212.5,67.5,204.5,68.0,197.0,69.0,189.5,70.0" stroke="black" stroke-width="2" fill="none" />
<polyline points="187.5,68.0,196.0,61.0" stroke="black" stroke-width="2" fill="none" />
<polyline points="203.0,68.0,211.0,61.0" stroke="black" stroke-width="2" fill="none" />
<polyline points="211.0,53.0,203.0,60.5" stroke="black" stroke-width="2" fill="none" />
<polyline points="211.0,69.5,203.0,76.5,195.0,83.5" stroke="black" stroke-width="2" fill="none" />
<polyline points="188.0,83.5,196.0,76.0" stroke="black" stroke-width="2" fill="none" />
<polyline points="203.5,84.0,212.0,77.0" stroke="black" stroke-width="2" fill="none" />
<polyline points="212.0,75.0,220.0,74.5,228.0,73.5,237.0,74.0,245.0,73.0" stroke="black" stroke-width="2" fill="none" />
<polyline points="212.5,85.5,205.0,92.5,197.5,99.0" stroke="black" stroke-width="2" fill="none" />
<polyline points="204.0,99.0,195.5,106.0" stroke="black" stroke-width="2" fill="none" />
<polyline points="198.0,111.0,197.5,119.0,196.5,127.0" stroke="black" stroke-width="2" fill="none" />
<polyline points="196.0,132.0,203.5,125.0" stroke="black" stroke-width="2" fill="none" />
<polyline points="202.5,131.5,194.5,139.0" stroke="black" stroke-width="2" fill="none" />
<polyline points="199.5,143.0,207.5,144.5,216.0,146.5,218.0,148.5,220.5,157.5,224.5,159.0,217.5,163.5,213.5,165.5,210.5,175.0,208.5,176.5,204.0,182.0,205.5,191.5,201.5,199.5,196.0,208.0,188.0,210.5,182.5,211.5,180.0,220.0,181.0,226.5,187.0,216.5,196.0,215.0,199.5,209.0,204.5,212.0,212.0,211.0,216.5,206.5" stroke="black" stroke-width="2" fill="none" />
<polyline points="217.0,195.0,209.0,202.0,201.5,210.0,194.0,217.5,186.5,225.5,179.0,233.0,171.5,240.5,164.0,248.0,156.5,255.5" stroke="black" stroke-width="2" fill="none" />
<polyline points="155.5,256.5,163.5,256.0,172.0,256.0,180.5,256.0,189.0,256.0,197.0,256.0,204.5,255.0,212.0,254.5,219.5,253.5,227.5,253.0,235.5,252.5,243.0,252.0,251.5,251.0,259.5,250.5" stroke="black" stroke-width="2" fill="none" />
<polyline points="257.5,250.0,249.0,258.0" stroke="black" stroke-width="2" fill="none" />
<polyline points="242.5,258.0,250.5,250.5,258.5,243.5" stroke="black" stroke-width="2" fill="none" />
<polyline points="258.0,236.0,250.0,243.5,242.5,251.0,235.0,258.5" stroke="black" stroke-width="2" fill="none" />
<polyline points="227.5,258.0,235.5,251.0,244.0,243.0,252.5,235.0,260.5,227.0" stroke="black" stroke-width="2" fill="none" />
<polyline points="260.5,220.0,253.0,228.0,244.5,235.5,236.0,243.5,227.5,250.5,219.0,258.0" stroke="black" stroke-width="2" fill="none" />
<polyline points="211.5,254.5,220.0,247.5,228.5,240.5,236.5,233.5,245.0,226.0,253.5,219.0,261.5,211.5" stroke="black" stroke-width="2" fill="none" />
<polyline points="261.5,204.0,253.5,211.5,245.0,218.5,236.5,225.5,228.5,232.0,220.5,238.5,212.5,246.0,204.5,253.5" stroke="black" stroke-width="2" fill="none" />
<polyline points="197.0,254.5,205.0,247.0,213.0,239.0,221.0,232.0,229.0,224.5,237.0,218.0,245.5,210.5,254.0,203.0,262.5,195.5" stroke="black" stroke-width="2" fill="none" />
<polyline points="260.5,187.0,252.5,194.5,244.5,202.0,236.5,209.5,228.5,217.5,221.0,225.0,213.0,232.5,205.5,239.0,197.0,246.5,189.0,254.0" stroke="black" stroke-width="2" fill="none" />
<polyline points="181.5,254.5,189.0,247.0,197.0,239.5,205.0,232.0,213.5,224.5,221.0,217.0,228.5,209.5,236.0,202.0,244.0,194.0,251.5,185.5" stroke="black" stroke-width="2" fill="none" />
<polyline points="250.0,183.5,258.0,182.5" stroke="black" stroke-width="2" fill="none" />
<polyline points="236.0,197.5,227.5,205.0,219.5,212.0,211.0,219.0,203.0,226.5,195.0,234.0,187.5,241.0,180.0,248.0,172.5,255.0" stroke="black" stroke-width="2" fill="none" />
<polyline points="164.0,256.5,172.0,249.0,180.5,241.5,188.0,234.0,196.0,226.0,203.5,218.5,211.0,211.0,219.0,203.5,226.5,196.0" stroke="black" stroke-width="2" fill="none" />
<polyline points="232.5,200.0,227.5,208.0,229.5,216.0,235.0,205.0,246.0,200.0" stroke="black" stroke-width="2" fill="none" />
<polyline points="251.5,209.5,259.0,209.0" stroke="black" stroke-width="2" fill="none" />
<polyline points="249.5,218.5,242.0,219.5" stroke="black" stroke-width="2" fill="none" />
<polyline points="257.5,232.5,249.0,232.5,241.5,232.5,233.5,233.0,226.0,233.5,218.0,234.0" stroke="black" stroke-width="2" fill="none" />
<polyline points="218.5,242.5,227.0,242.0,235.0,241.5,243.0,241.0,251.0,240.5,259.0,240.0" stroke="black" stroke-width="2" fill="none" />
<polyline points="259.0,223.0,250.5,223.5,242.5,224.0,234.5,224.0,227.0,225.0,219.0,225.5" stroke="black" stroke-width="2" fill="none" />
<polyline points="212.0,224.0,220.0,214.0,214.0,220.5,216.0,222.0,217.0,232.5,216.0,240.5,208.0,240.0,199.5,248.0" stroke="black" stroke-width="2" fill="none" />
<polyline points="196.5,240.5,204.5,240.0" stroke="black" stroke-width="2" fill="none" />
<polyline points="208.5,241.5,216.5,241.5" stroke="black" stroke-width="2" fill="none" />
<polyline points="211.0,247.5,219.5,247.5,227.5,247.5,235.5,247.5,244.0,247.0,252.0,247.0,260.5,247.0" stroke="black" stroke-width="2" fill="none" />
<polyline points="205.0,233.0,197.0,233.0" stroke="black" stroke-width="2" fill="none" />
<polyline points="204.5,226.0,206.0,230.5,201.5,238.5,198.5,246.0" stroke="black" stroke-width="2" fill="none" />
<polyline points="195.5,247.5,187.5,247.5,179.0,247.5,171.0,248.0,162.5,248.5,155.0,249.0" stroke="black" stroke-width="2" fill="none" />
<polyline points="154.0,243.0,162.5,242.0" stroke="black" stroke-width="2" fill="none" />
<polyline points="171.0,242.0,179.0,242.0" stroke="black" stroke-width="2" fill="none" />
<polyline points="182.0,242.0,187.0,234.0,191.5,238.0,194.5,242.0" stroke="black" stroke-width="2" fill="none" />
<polyline points="179.5,234.0,171.5,235.0" stroke="black" stroke-width="2" fill="none" />
<polyline points="168.5,230.5,165.0,238.5,167.5,230.5" stroke="black" stroke-width="2" fill="none" />
<polyline points="169.5,222.5,177.0,214.5" stroke="black" stroke-width="2" fill="none" />
<polyline points="167.0,213.0,168.0,221.0,167.0,212.5" stroke="black" stroke-width="2" fill="none" />
<polyline points="165.0,204.5,164.0,212.5,160.5,221.0,157.5,229.0,153.0,238.5,150.0,246.5,146.0,246.5" stroke="black" stroke-width="2" fill="none" />
<polyline points="149.0,244.5,141.0,245.0,133.0,246.0,124.5,246.0,115.5,246.5,107.0,247.5,99.0,247.5,91.0,248.0" stroke="black" stroke-width="2" fill="none" />
<polyline points="98.5,257.0,106.5,250.0,114.5,243.0,122.5,235.5,130.5,228.0,138.5,221.0" stroke="black" stroke-width="2" fill="none" />
<polyline points="132.5,219.0,124.5,227.0,117.0,234.5,108.5,242.5,99.5,250.5,91.0,258.5" stroke="black" stroke-width="2" fill="none" />
<polyline points="83.5,258.0,91.0,257.0,99.0,256.5,107.0,256.0,114.5,255.0,122.5,253.5,131.0,253.5,139.5,253.5" stroke="black" stroke-width="2" fill="none" />
<polyline points="149.0,255.5,156.5,248.0,164.5,241.5,172.0,233.5,180.0,226.0,188.0,218.0,196.0,210.5,204.0,203.0,212.0,195.0" stroke="black" stroke-width="2" fill="none" />
<polyline points="201.5,197.0,194.0,204.5,186.0,211.5,178.5,218.5,171.0,225.0,163.5,232.0,155.5,239.5,147.0,246.0,139.0,253.5" stroke="black" stroke-width="2" fill="none" />
<polyline points="132.0,253.5,140.0,246.0,147.5,239.0,155.5,232.0,163.0,224.0,171.5,216.0,179.5,208.5,187.0,201.0,195.0,193.5" stroke="black" stroke-width="2" fill="none" />
<polyline points="187.5,196.0,195.5,196.0,203.5,195.0,206.5,195.5" stroke="black" stroke-width="2" fill="none" />
<polyline points="195.5,185.5,187.0,192.5,179.5,200.0,171.5,208.0,163.0,216.0,155.0,223.5,147.0,231.0,138.5,238.5,130.0,246.0,121.5,253.5" stroke="black" stroke-width="2" fill="none" />
<polyline points="117.0,256.5,124.5,248.5,132.0,240.5,140.0,233.5,148.0,226.0,156.0,219.0,163.0,211.5,170.5,203.5" stroke="black" stroke-width="2" fill="none" />
<polyline points="164.0,201.0,171.5,194.0,179.5,187.0,187.5,179.5,195.0,171.5,202.5,163.5" stroke="black" stroke-width="2" fill="none" />
<polyline points="203.0,164.0,194.5,164.0,186.0,164.5,178.0,165.0,170.5,165.0" stroke="black" stroke-width="2" fill="none" />
<polyline points="171.5,164.0,176.5,166.0,173.5,174.0,177.5,184.5,171.5,187.5" stroke="black" stroke-width="2" fill="none" />
<polyline points="172.5,182.0,164.5,189.5,156.5,196.5,148.0,203.0" stroke="black" stroke-width="2" fill="none" />
<polyline points="154.0,202.0,162.0,194.0,170.0,186.5,178.0,179.0" stroke="black" stroke-width="2" fill="none" />
<polyline points="187.0,170.5,195.0,162.0,203.0,154.0" stroke="black" stroke-width="2" fill="none" />
<polyline points="202.0,154.0,210.0,154.0,218.5,154.0,226.5,153.5,228.5,158.5,229.0,166.0,227.0,173.0,230.5,180.0,232.5,188.0,233.5,193.0,240.0,197.0,239.5,199.0,241.5,191.0,250.0,190.0" stroke="black" stroke-width="2" fill="none" />
<polyline points="229.0,180.5,221.0,180.5,213.5,180.5" stroke="black" stroke-width="2" fill="none" />
<polyline points="202.5,171.5,195.5,171.5,188.0,172.0,180.0,172.0,171.5,172.0,163.5,172.5" stroke="black" stroke-width="2" fill="none" />
<polyline points="164.5,177.5,162.0,185.0,163.0,193.0,150.5,202.5,147.5,211.0,140.5,218.5,136.0,226.5,137.5,229.5,135.0,233.0,141.0,221.0,152.0,218.5,160.0,213.0" stroke="black" stroke-width="2" fill="none" />
<polyline points="155.5,213.0,147.5,220.5,140.0,228.0,132.0,235.0,124.0,242.0,116.5,249.0,108.5,256.5" stroke="black" stroke-width="2" fill="none" />
<polyline points="113.5,242.5,121.5,242.0,130.0,241.5,138.5,241.0,147.0,240.5" stroke="black" stroke-width="2" fill="none" />
<polyline points="144.5,242.0,144.5,246.0,140.0,255.0" stroke="black" stroke-width="2" fill="none" />
<polyline points="141.0,236.5,149.0,236.0,157.0,234.5" stroke="black" stroke-width="2" fill="none" />
<polyline points="158.0,226.0,150.0,226.0" stroke="black" stroke-width="2" fill="none" />
<polyline points="145.0,222.0,153.0,217.0,162.0,211.0,162.0,202.5,152.0,205.5,144.0,210.5" stroke="black" stroke-width="2" fill="none" />
<polyline points="139.5,205.0,147.0,197.0,154.5,189.0" stroke="black" stroke-width="2" fill="none" />
<polyline points="156.0,195.5,163.5,194.5" stroke="black" stroke-width="2" fill="none" />
<polyline points="166.5,195.5,159.0,198.5" stroke="black" stroke-width="2" fill="none" />
<polyline points="160.5,203.0,169.0,200.0" stroke="black" stroke-width="2" fill="none" />
<polyline points="178.5,194.0,186.5,187.0,194.0,180.0" stroke="black" stroke-width="2" fill="none" />
<polyline points="194.0,184.0,195.0,176.0" stroke="black" stroke-width="2" fill="none" />
<polyline points="190.5,169.0,190.5,177.0,185.0,184.5,183.0,189.5,191.5,188.0,185.5,196.0,186.5,204.0,183.0,219.0,179.5,227.0" stroke="black" stroke-width="2" fill="none" />
<polyline points="181.5,198.0,181.5,194.5,177.5,206.5,180.0,209.5,188.5,202.5,192.5,190.5,198.5,192.5,195.0,200.5,193.0,207.5,201.5,204.0,212.5,199.0" stroke="black" stroke-width="2" fill="none" />
<polyline points="204.5,180.0,196.0,180.0,188.5,180.0,181.0,180.5,173.0,181.5,165.0,182.0,157.0,182.0,149.0,182.5" stroke="black" stroke-width="2" fill="none" />
<polyline points="150.5,182.5,142.0,186.5" stroke="black" stroke-width="2" fill="none" />
<polyline points="130.5,191.0,139.0,190.5,147.0,189.5,155.5,188.5,164.0,187.5,172.5,187.0,180.0,186.0,187.0,186.0,194.5,185.5,203.0,185.0,211.0,184.5,219.0,184.0,226.5,183.0,234.5,183.0,242.5,182.5,251.0,182.0,258.5,182.0" stroke="black" stroke-width="2" fill="none" />
<polyline points="259.5,190.0,252.0,190.5,244.0,190.5,235.5,190.5,227.5,190.5,220.0,191.0,212.5,191.0,205.0,191.5,197.0,191.5,189.5,191.5,181.5,192.5,173.0,193.0,164.5,193.5,155.5,193.5,147.5,194.0,139.0,194.5,130.5,195.0,122.5,196.0,114.5,197.0,106.5,197.5" stroke="black" stroke-width="2" fill="none" />
<polyline points="114.0,193.0,117.0,176.0" stroke="black" stroke-width="2" fill="none" />
<polyline points="111.5,176.5,111.5,184.5" stroke="black" stroke-width="2" fill="none" />
<polyline points="107.0,177.0,104.0,185.0,104.0,193.0,101.0,204.0,105.0,212.0,96.5,216.0,107.5,221.0,111.5,232.0" stroke="black" stroke-width="2" fill="none" />
<polyline points="107.0,234.0,99.0,242.0,91.0,249.5,83.5,257.0" stroke="black" stroke-width="2" fill="none" />
<polyline points="77.0,256.5,85.0,248.5,93.0,240.5,101.0,232.5" stroke="black" stroke-width="2" fill="none" />
<polyline points="93.0,234.0,85.0,241.5,76.5,248.5,68.0,256.0" stroke="black" stroke-width="2" fill="none" />
<polyline points="66.5,258.0,74.0,257.5" stroke="black" stroke-width="2" fill="none" />
<polyline points="70.5,244.5,62.5,252.0,53.0,260.0" stroke="black" stroke-width="2" fill="none" />
<polyline points="58.5,258.0,67.0,250.0,75.0,242.5,83.5,235.0" stroke="black" stroke-width="2" fill="none" />
<polyline points="76.0,228.5,68.0,236.0" stroke="black" stroke-width="2" fill="none" />
<polyline points="68.0,228.0,59.5,235.5,51.0,243.0,43.5,250.5,35.5,257.5" stroke="black" stroke-width="2" fill="none" />
<polyline points="26.0,257.0,34.0,248.5,41.5,241.5,49.5,234.0,57.5,226.5,65.0,219.5" stroke="black" stroke-width="2" fill="none" />
<polyline points="67.5,212.0,76.0,214.0" stroke="black" stroke-width="2" fill="none" />
<polyline points="78.5,209.5,70.0,210.5,62.0,211.0,54.0,211.5,45.5,212.0,37.0,212.0,29.0,212.5,20.5,213.5,12.5,214.5,5.0,215.5" stroke="black" stroke-width="2" fill="none" />
<polyline points="3.0,219.0,11.0,212.0,18.5,204.5" stroke="black" stroke-width="2" fill="none" />
<polyline points="25.0,203.5,17.0,211.0,9.5,219.5,2.0,227.5" stroke="black" stroke-width="2" fill="none" />
<polyline points="5.0,229.5,13.0,229.0,21.0,228.0,29.0,227.5,36.5,227.0,43.5,227.0,51.5,226.5,59.0,226.0,66.5,226.0,74.0,226.0,82.0,226.0,90.5,225.0,99.0,225.0,107.0,224.5,115.0,223.5,122.5,223.0,130.5,222.5,139.0,222.5,147.0,222.5,154.5,221.5,162.5,221.0,170.0,220.5,177.5,219.5,185.5,219.0,193.5,218.0,201.5,216.5,209.5,216.0,217.5,215.0,225.5,214.5,234.0,215.0,242.0,215.0,250.5,214.0,258.5,213.0" stroke="black" stroke-width="2" fill="none" />
<polyline points="261.0,202.5,252.5,203.0,244.5,203.0,237.0,203.0,229.0,203.5,220.5,204.0,212.0,205.0,204.0,205.5,196.0,206.0,188.5,206.5,180.5,207.0,172.5,208.0,164.5,208.5,156.5,209.0,148.5,208.5,140.5,209.0,132.0,210.0,123.5,210.5,116.0,211.5,108.5,212.5,100.5,213.5,93.0,215.0,84.5,216.0" stroke="black" stroke-width="2" fill="none" />
<polyline points="83.5,205.0,92.0,204.5,100.0,204.0,108.5,204.0,117.0,203.5,125.0,203.5,133.0,202.5,141.0,202.0,149.0,201.5,157.0,201.5,165.5,201.0,173.0,200.0,180.5,199.0,188.5,198.5,197.0,198.0,205.0,198.0,213.0,198.0,221.0,198.0,229.0,198.0,236.5,197.5,244.0,197.0,252.5,196.0,260.0,194.5" stroke="black" stroke-width="2" fill="none" />
<polyline points="258.5,231.0,250.5,231.5,242.0,232.0,234.5,233.0,226.5,233.5,218.5,234.0,210.5,234.5,202.5,235.0,194.5,235.0,186.0,235.5,177.5,235.5,169.0,235.0,161.0,235.5,153.5,236.0,146.0,236.5,138.5,237.0,131.0,237.5,123.5,238.0,115.0,239.0,106.5,239.0,98.0,239.5,90.0,240.0,82.5,240.0,74.0,241.5,66.0,242.5,58.5,243.0,50.5,243.5,43.0,244.0,35.0,244.5,28.0,244.5,20.0,244.5,12.0,245.0,3.5,245.5" stroke="black" stroke-width="2" fill="none" />
<polyline points="3.0,249.0,11.0,241.5,19.5,234.0,28.5,226.0,37.0,218.0,45.5,209.5,53.5,202.0" stroke="black" stroke-width="2" fill="none" />
<polyline points="58.0,197.0,66.0,196.5" stroke="black" stroke-width="2" fill="none" />
<polyline points="64.5,203.0,65.0,204.0,61.0,212.5,62.0,220.5,63.5,226.0,63.5,235.0,69.5,228.5" stroke="black" stroke-width="2" fill="none" />
<polyline points="69.5,211.0,74.5,213.0,66.5,217.0,74.5,218.0,84.0,219.5,95.0,222.0" stroke="black" stroke-width="2" fill="none" />
<polyline points="95.5,210.5,103.0,209.0,111.5,207.5" stroke="black" stroke-width="2" fill="none" />
<polyline points="115.0,205.0,106.5,212.5" stroke="black" stroke-width="2" fill="none" />
<polyline points="108.0,218.5,116.5,212.0,124.0,205.0" stroke="black" stroke-width="2" fill="none" />
<polyline points="92.5,197.5,84.0,198.0" stroke="black" stroke-width="2" fill="none" />
<polyline points="86.0,196.5,94.0,197.0" stroke="black" stroke-width="2" fill="none" />
<polyline points="96.5,200.0,88.5,201.0" stroke="black" stroke-width="2" fill="none" />
<polyline points="84.5,189.0,92.5,188.0" stroke="black" stroke-width="2" fill="none" />
<polyline points="81.5,173.0,74.0,174.0" stroke="black" stroke-width="2" fill="none" />
<polyline points="74.0,180.0,66.0,182.5,65.5,185.5" stroke="black" stroke-width="2" fill="none" />
<polyline points="69.0,202.5,61.0,203.0,53.0,203.5,44.5,203.5,36.5,204.0,28.0,204.5,20.0,204.5,12.0,205.0,4.5,205.5" stroke="black" stroke-width="2" fill="none" />
<polyline points="3.0,196.0,11.0,195.0,14.0,192.0,12.0,200.0,7.0,199.0,2.5,207.0,4.5,204.0,14.0,196.5" stroke="black" stroke-width="2" fill="none" />
<polyline points="20.0,196.0,28.0,196.0,36.0,195.0,44.0,194.5" stroke="black" stroke-width="2" fill="none" />
<polyline points="45.5,203.0,37.5,210.0,29.5,217.5,21.5,225.0,13.5,232.5,5.0,240.5" stroke="black" stroke-width="2" fill="none" />
<polyline points="3.5,241.5,12.0,240.5,20.0,240.0,28.0,239.0,36.5,239.0,45.0,238.0,52.5,237.5" stroke="black" stroke-width="2" fill="none" />
<polyline points="57.5,243.5,50.0,251.0,42.0,258.5" stroke="black" stroke-width="2" fill="none" />
<polyline points="18.0,256.5,25.5,248.5,33.5,241.0,41.5,233.5,49.0,226.0,57.0,218.5,65.5,210.5" stroke="black" stroke-width="2" fill="none" />
<polyline points="63.0,210.5,68.0,218.5,66.5,227.0,75.5,237.0,69.0,245.0,64.5,252.5,73.0,241.5" stroke="black" stroke-width="2" fill="none" />
<polyline points="58.0,211.5,50.5,219.5,43.0,227.0,35.0,235.0,27.0,242.0,19.0,249.5,11.0,257.0" stroke="black" stroke-width="2" fill="none" />
<polyline points="3.5,257.5,11.5,249.0,19.5,241.5,27.5,233.5,35.5,225.5,43.5,218.0,51.0,210.5" stroke="black" stroke-width="2" fill="none" />
<polyline points="37.0,203.5,29.0,211.5,21.5,219.5,13.0,227.5,4.5,235.0" stroke="black" stroke-width="2" fill="none" />
<polyline points="5.5,233.0,14.0,233.0,22.0,232.5,29.5,231.5,36.5,231.0,44.5,230.5,52.0,230.0" stroke="black" stroke-width="2" fill="none" />
<polyline points="51.5,223.5,43.5,224.0,35.5,224.5" stroke="black" stroke-width="2" fill="none" />
<polyline points="28.0,227.5,20.0,219.5" stroke="black" stroke-width="2" fill="none" />
<polyline points="15.0,214.0,23.0,210.0" stroke="black" stroke-width="2" fill="none" />
<polyline points="29.5,193.0,37.5,190.5" stroke="black" stroke-width="2" fill="none" />
<polyline points="29.5,189.0,22.0,189.0" stroke="black" stroke-width="2" fill="none" />
<polyline points="27.0,190.0,35.0,189.0,43.0,188.0,50.0,194.0" stroke="black" stroke-width="2" fill="none" />
<polyline points="28.0,181.5,20.0,181.5" stroke="black" stroke-width="2" fill="none" />
<polyline points="17.5,173.0,26.0,172.5" stroke="black" stroke-width="2" fill="none" />
<polyline points="26.5,172.0,34.5,171.0,42.5,169.5,50.5,167.0" stroke="black" stroke-width="2" fill="none" />
<polyline points="64.0,163.5,66.0,158.5,65.5,170.5,72.5,182.5" stroke="black" stroke-width="2" fill="none" />
<polyline points="87.0,159.0,95.0,160.0,103.0,159.0,111.5,158.5,120.0,155.5,129.0,152.5,135.0,151.5,142.5,149.0" stroke="black" stroke-width="2" fill="none" />
<polyline points="133.0,153.0,134.0,157.5,139.0,165.5,133.0,172.0,133.5,180.0,134.5,191.0,127.5,195.0,132.5,206.5" stroke="black" stroke-width="2" fill="none" />
<polyline points="125.0,213.0,128.0,205.0,140.0,200.0,142.5,196.5,142.0,190.0,151.0,184.5,157.0,172.5,160.0,164.5,170.5,163.0,172.5,155.5,172.5,148.0,172.5,140.0,173.5,131.5,176.5,134.5,164.5,137.0,156.0,150.0,148.0,160.0" stroke="black" stroke-width="2" fill="none" />
<polyline points="151.0,168.5,157.0,161.0" stroke="black" stroke-width="2" fill="none" />
<polyline points="160.5,156.5,149.5,166.5,157.0,161.5,157.0,167.5,165.0,160.5,177.0,155.5,185.0,153.5,187.5,147.5" stroke="black" stroke-width="2" fill="none" />
<polyline points="181.0,150.0,189.0,150.0,197.0,150.0,205.0,149.5" stroke="black" stroke-width="2" fill="none" />
<polyline points="204.0,147.5,195.5,155.0,187.5,163.0" stroke="black" stroke-width="2" fill="none" />
<polyline points="188.0,156.0,196.0,149.0,204.0,141.5" stroke="black" stroke-width="2" fill="none" />
<polyline points="204.0,140.0,196.0,140.0,187.5,140.5,179.5,141.0" stroke="black" stroke-width="2" fill="none" />
<polyline points="180.0,133.5,185.0,144.0,190.5,152.0" stroke="black" stroke-width="2" fill="none" />
<polyline points="179.5,157.0,187.5,156.5,195.5,156.0,203.0,155.5" stroke="black" stroke-width="2" fill="none" />
<polyline points="202.5,156.5,211.0,156.5,210.5,164.0,208.5,173.5,214.5,178.0" stroke="black" stroke-width="2" fill="none" />
<polyline points="214.0,164.5,218.0,172.5,216.0,182.5,211.5,193.5,214.0,197.5,212.0,201.0,210.5,210.5,204.5,214.0" stroke="black" stroke-width="2" fill="none" />
<polyline points="238.0,212.0,237.0,216.0,243.5,207.5,238.0,199.5,225.5,191.5,219.5,186.0,221.0,180.0,219.0,167.0,214.0,164.0,206.0,166.0" stroke="black" stroke-width="2" fill="none" />
<polyline points="184.5,162.0,176.5,161.0,176.5,149.0,182.0,146.5,177.5,138.5,180.5,139.0,177.0,130.5,180.0,127.5,184.0,120.5,177.0,116.0,182.0,118.0,186.0,110.5,184.5,103.0,191.5,96.0,194.5,88.0,182.5,94.0" stroke="black" stroke-width="2" fill="none" />
<polyline points="181.0,96.0,189.5,95.0,197.0,94.5,204.5,93.0,211.5,91.5" stroke="black" stroke-width="2" fill="none" />
<polyline points="211.5,99.5,203.0,100.0,195.5,100.5,189.0,100.5,181.0,101.0" stroke="black" stroke-width="2" fill="none" />
<polyline points="179.0,108.5,187.0,108.0,195.5,107.5,203.5,107.0" stroke="black" stroke-width="2" fill="none" />
<polyline points="202.0,109.0,194.5,116.5" stroke="black" stroke-width="2" fill="none" />
<polyline points="196.0,123.5,203.5,115.5" stroke="black" stroke-width="2" fill="none" />
<polyline points="204.5,124.0,196.5,125.0,188.5,125.5" stroke="black" stroke-width="2" fill="none" />
<polyline points="181.0,131.5,189.0,131.5,197.0,131.5,204.5,131.0" stroke="black" stroke-width="2" fill="none" />
<polyline points="195.0,133.0,187.5,140.0,186.5,137.0,180.5,142.5,177.5,130.5,166.0,115.5,175.0,115.5,174.5,107.5,176.5,100.0,178.0,92.0,182.0,84.0,174.0,92.0" stroke="black" stroke-width="2" fill="none" />
<polyline points="174.0,91.0,173.5,99.0,172.5,106.5,177.5,109.5,182.0,112.5,190.0,107.5" stroke="black" stroke-width="2" fill="none" />
<polyline points="187.5,107.5,180.0,115.5" stroke="black" stroke-width="2" fill="none" />
<polyline points="181.0,116.5,189.0,116.5,197.0,116.5,205.0,116.5" stroke="black" stroke-width="2" fill="none" />
<polyline points="208.5,108.0,216.0,106.0,224.0,105.0,232.0,104.0,240.5,104.0,248.5,103.5,256.5,102.5" stroke="black" stroke-width="2" fill="none" />
<polyline points="243.5,130.5,235.5,138.0" stroke="black" stroke-width="2" fill="none" />
<polyline points="234.0,137.0,242.5,135.0,245.5,137.0,253.5,135.0" stroke="black" stroke-width="2" fill="none" />
<polyline points="260.0,132.5,251.0,132.5,243.0,133.0,235.5,133.5" stroke="black" stroke-width="2" fill="none" />
<polyline points="236.0,127.5,233.0,136.0,239.0,129.0,247.5,130.0,255.5,131.0" stroke="black" stroke-width="2" fill="none" />
<polyline points="239.0,160.0,242.5,157.5,242.0,155.5,250.5,158.0,252.5,160.0,252.5,155.5,244.0,163.5,250.0,162.5,250.0,170.5,254.5,172.5,250.0,181.5,244.0,183.5,236.0,185.5,248.5,192.5,249.0,194.5,248.0,202.0,251.5,205.5,247.5,204.5,256.5,196.5" stroke="black" stroke-width="2" fill="none" />
<polyline points="260.5,238.5,252.0,239.0,243.5,240.0,236.0,240.0,228.5,240.5,221.0,240.5,213.0,240.5,205.0,240.5,197.5,240.5,189.5,241.0,181.5,241.5,173.5,242.0,165.5,243.0,157.5,243.5,150.0,244.5,142.0,245.5,133.5,246.5,125.0,247.5,117.0,248.0,108.5,248.0,100.0,248.0,91.0,249.0,83.0,249.0,75.0,250.0,67.5,250.5,59.5,251.5,51.5,253.0,43.0,254.0,35.0,254.5,26.5,254.5,18.5,255.0,10.0,255.0,2.5,255.0" stroke="black" stroke-width="2" fill="none" />
<polyline points="2.0,258.5,10.0,258.0,17.5,257.5,25.5,257.0,33.5,256.5" stroke="black" stroke-width="2" fill="none" />
<polyline points="34.0,247.5,26.0,248.0,18.0,248.5,10.5,249.5,2.5,250.0" stroke="black" stroke-width="2" fill="none" />
<polyline points="4.5,238.5,12.5,237.5,20.0,236.5,28.0,235.5,36.0,235.0,44.0,234.5,51.5,234.0,59.5,233.5,68.0,233.0,75.5,232.0,83.5,231.5,91.5,231.0,100.0,231.0,108.5,231.0,117.0,231.0,125.0,231.0,132.5,230.0,140.0,229.5,147.5,228.5,155.5,228.0,163.5,227.5,171.0,227.0,179.5,226.0,187.5,225.5,195.5,224.5,204.0,223.5,211.5,223.0,219.5,222.5,227.5,222.0,235.5,221.5,243.0,220.5,251.0,220.0,259.5,219.5" stroke="black" stroke-width="2" fill="none" />
<polyline points="260.0,205.5,252.0,206.5,244.0,207.0,236.0,207.0,227.5,207.5,219.0,208.5,210.5,209.0,202.5,210.0,194.5,210.0,186.5,210.5,178.5,211.5,169.5,212.5,162.0,213.5,153.5,213.5,146.0,213.5,138.0,213.5,130.0,214.5,122.5,215.0,114.5,215.5,107.0,216.0,99.0,216.5,91.5,217.5,84.0,218.5,76.0,218.5,68.5,218.5,60.5,218.5,52.0,218.5,44.0,219.0,36.0,219.0,28.5,219.5,20.5,220.0,13.0,221.0,5.5,221.0" stroke="black" stroke-width="2" fill="none" />
<polyline points="35.0,215.5,27.0,219.5,24.5,226.5,24.5,217.0,16.0,216.0,28.0,209.0,28.0,202.0,30.0,194.0,27.5,184.5,26.0,176.5,25.0,168.0,24.0,159.5,22.0,151.5,21.0,143.5,20.0,135.5,19.0,127.0,13.0,127.0" stroke="black" stroke-width="2" fill="none" />
<polyline points="12.0,124.5,20.0,124.0,28.0,122.0,36.0,120.5,43.5,117.0,48.5,113.0" stroke="black" stroke-width="2" fill="none" />
<polyline points="48.0,117.5,49.0,125.5,49.0,133.5,50.0,141.5" stroke="black" stroke-width="2" fill="none" />
<polyline points="49.0,146.5,41.0,148.0,32.5,151.0,24.0,152.5,44.0,145.5" stroke="black" stroke-width="2" fill="none" />
<polyline points="44.0,143.5,26.0,149.5,34.0,147.5,42.5,144.0,51.0,142.0" stroke="black" stroke-width="2" fill="none" />
<polyline points="61.0,144.0,68.5,143.0,82.0,134.0,90.0,131.5,97.5,129.5,105.5,126.5,113.5,124.5,122.0,122.5,130.0,120.5,138.0,118.5,145.5,117.0,154.0,115.0,162.0,114.0" stroke="black" stroke-width="2" fill="none" />
<polyline points="165.5,113.5,170.5,105.5,171.5,97.5,173.5,89.5,176.5,89.0" stroke="black" stroke-width="2" fill="none" />
<polyline points="179.0,85.0,187.0,85.0,195.5,85.0,204.0,84.5,212.0,84.0" stroke="black" stroke-width="2" fill="none" />
<polyline points="208.0,104.0,216.5,103.5,224.5,102.5,232.5,102.0,240.5,101.0,248.5,100.5,256.5,99.0" stroke="black" stroke-width="2" fill="none" />
<polyline points="211.5,60.0,202.5,60.5,194.0,61.0,185.5,61.0,177.0,61.0" stroke="black" stroke-width="2" fill="none" />
<polyline points="184.5,67.0,192.5,58.5" stroke="black" stroke-width="2" fill="none" />
<polyline points="190.0,53.0,197.5,52.5,205.0,51.5,212.0,51.5" stroke="black" stroke-width="2" fill="none" />
<polyline points="210.5,46.0,202.5,53.0" stroke="black" stroke-width="2" fill="none" />
<polyline points="194.0,53.5,195.5,45.5" stroke="black" stroke-width="2" fill="none" />
<polyline points="187.0,45.0,195.5,44.5,203.5,44.5,211.5,44.0" stroke="black" stroke-width="2" fill="none" />
<polyline points="208.5,40.0,207.5,48.0,206.5,56.0,207.5,64.0,205.0,72.5,203.5,81.0,202.5,88.5,192.5,89.0,188.5,90.0,194.0,100.0,189.5,102.0,192.5,113.0,191.5,121.0,188.0,129.0,192.0,129.0,195.0,133.5,192.0,140.5,191.0,148.5,190.5,158.5,186.0,167.0,182.5,175.5,174.0,180.0,169.5,187.5,167.5,191.5,169.0,197.0,172.0,200.5,172.0,208.5,171.0,216.0,164.5,216.5,157.5,221.5,171.0,209.0,181.0,194.5,186.0,185.5,189.0,182.0,198.0,183.0,206.0,188.5,213.5,188.0,219.5,183.0,223.0,177.0,226.0,181.0,227.0,184.0,234.5,181.5,236.0,186.0,240.0,183.0,244.5,178.0,252.0,178.0,256.0,183.0" stroke="black" stroke-width="2" fill="none" />
<polyline points="232.5,167.0,231.5,165.5,230.0,157.5" stroke="black" stroke-width="2" fill="none" />
<polyline points="221.5,147.5,229.0,146.5,237.0,145.5,245.0,145.5" stroke="black" stroke-width="2" fill="none" />
<polyline points="251.0,152.5,242.5,152.5,233.5,154.0,225.5,154.5,214.5,156.0,206.5,163.0,206.5,163.0,214.5,150.5,207.5,142.0" stroke="black" stroke-width="2" fill="none" />
<polyline points="188.0,156.0,180.0,159.0,172.0,163.0,164.0,172.0,163.0,175.0,154.5,178.0,150.0,173.5,141.0,174.5,137.5,186.5,145.5,181.5,145.5,177.0,148.5,176.0,154.0,168.0,167.0,160.5" stroke="black" stroke-width="2" fill="none" />
<polyline points="165.0,180.0,163.5,188.0" stroke="black" stroke-width="2" fill="none" />
<polyline points="125.5,203.5,116.5,203.0,110.0,206.0,109.5,199.0,112.5,190.0,116.5,182.5,115.5,168.5,121.5,166.0" stroke="black" stroke-width="2" fill="none" />
<polyline points="111.5,160.5,110.0,168.5,114.0,178.0,112.5,185.5" stroke="black" stroke-width="2" fill="none" />
<polyline points="106.5,158.5,107.5,166.5,104.5,174.5,103.5,176.0,100.5,184.0,98.0,191.5,91.0,197.5,98.0,201.0,98.0,206.0,95.5,214.0,99.5,222.0,100.5,226.5" stroke="black" stroke-width="2" fill="none" />
<polyline points="79.0,204.5,73.0,198.5,65.0,200.0,54.5,210.0,46.5,210.0,34.5,218.0,36.5,209.5,37.5,205.5,33.5,199.0,43.5,196.0,52.5,188.0,53.5,181.0,54.0,173.0,57.5,164.5,57.0,155.5,56.0,147.5,63.0,139.5,66.0,132.0,68.0,124.0,66.0,116.0,63.0,115.0" stroke="black" stroke-width="2" fill="none" />
<polyline points="61.5,116.0,61.5,124.0,69.5,125.5,71.5,134.0,74.0,142.0,75.5,150.0,77.0,157.5,79.0,165.0,81.0,173.0,83.0,180.5,83.5,188.5,87.0,196.5,88.5,204.5,90.5,212.5,91.0,223.0,97.0,227.0,92.0,237.0,90.5,236.5,86.5,244.0,81.5,244.0,82.0,244.5,90.5,238.5,93.5,232.5" stroke="black" stroke-width="2" fill="none" />
<polyline points="54.5,201.0,57.5,195.0,56.5,200.0,53.0,207.0,45.0,211.0,50.0,202.5,47.5,195.5,52.0,191.5,59.0,188.0,58.0,180.5,56.5,172.5,50.0,166.0,42.0,167.5,34.0,168.0,26.0,170.0" stroke="black" stroke-width="2" fill="none" />
<polyline points="26.5,165.5,19.5,166.5" stroke="black" stroke-width="2" fill="none" />
<polyline points="18.0,158.0,25.5,157.5" stroke="black" stroke-width="2" fill="none" />
<polyline points="14.0,156.5,9.5,152.5,1.5,154.0" stroke="black" stroke-width="2" fill="none" />
<polyline points="1.5,177.0,10.0,176.0,18.0,168.5,22.5,182.5,24.5,190.5,27.5,196.0,35.0,197.0,43.0,196.5,43.5,190.5,51.5,186.0" stroke="black" stroke-width="2" fill="none" />
<polyline points="84.5,157.0,93.0,159.0,101.0,158.0,109.0,156.0,117.0,153.5,125.0,152.0,133.0,148.5,140.5,146.5" stroke="black" stroke-width="2" fill="none" />
<polyline points="130.0,153.0,131.0,160.5,129.5,168.5,129.5,176.5,122.5,187.0,117.0,189.0,117.5,197.0,119.5,205.0,116.0,209.0,119.0,209.5,111.0,216.5,109.0,218.5,111.0,210.0,116.0,215.0,121.0,208.5,127.0,196.5,134.5,194.5,142.5,195.5,148.0,194.0" stroke="black" stroke-width="2" fill="none" />
<polyline points="138.5,167.0,126.5,171.0,118.0,171.5,113.0,170.5,99.0,174.5,91.0,177.0,88.0,173.0,86.0,173.0,87.0,165.0,86.0,157.5" stroke="black" stroke-width="2" fill="none" />
<polyline points="84.5,156.5,84.5,164.5,84.5,172.5,86.5,182.5,87.5,180.0,95.5,178.0,105.0,175.0,109.5,169.5,117.5,167.5,126.0,167.5,133.0,169.0,136.0,164.0,144.0,164.5,152.0,162.0,159.5,157.5,169.0,160.5,176.0,165.0" stroke="black" stroke-width="2" fill="none" />
<polyline points="213.0,238.0,211.5,233.0,206.0,237.0,197.5,243.0,191.5,236.5,181.0,234.5,179.0,238.0,189.0,227.0,188.0,224.0,193.0,211.0,191.5,203.0,192.5,199.5,188.5,193.0,199.0,190.5,198.5,185.5,199.5,178.0,202.5,172.5,203.0,168.5,200.0,168.5,201.5,161.0,201.5,152.5,201.5,144.0,203.5,136.0,204.5,127.5,204.5,120.0,206.0,111.5,207.5,103.5,208.0,95.5,209.0,88.0,210.0,80.0,210.0,72.0,211.0,63.5,212.0,55.0,211.5,47.0,209.5,38.5,209.0,37.5,207.0,34.0,199.0,32.0,191.0,32.5,183.0,37.0" stroke="black" stroke-width="2" fill="none" />
<polyline points="187.0,37.5,194.5,36.5,202.0,35.5,210.0,34.5" stroke="black" stroke-width="2" fill="none" />
<polyline points="204.5,34.0,201.5,42.0,200.5,50.0,199.5,58.5,198.5,66.5,190.5,68.5,195.0,69.5,187.0,77.5,189.0,84.5,182.0,91.5,181.0,98.0,182.0,102.0,182.0,108.0,173.0,113.0,175.0,121.0,172.5,122.0,174.5,130.0,165.5,138.0,160.5,146.0,155.0,154.0,145.5,167.0,142.0,175.0,135.0,181.0,140.0,184.0,131.0,191.5,128.0,200.0,131.0,202.5,124.5,207.5,123.0,214.5,130.5,203.5,137.0,205.0,141.5,199.5,147.5,203.5,156.5,201.0,164.5,195.0,170.5,191.5,173.5,193.0,173.5,185.0,177.0,177.5,184.0,179.5,192.0,176.5,203.0,174.5,204.5,177.0,207.5,176.0,207.0,183.0,214.5,176.5,223.0,174.0,231.0,171.0,233.0,176.0,241.0,176.0,249.0,176.0,254.0,174.0" stroke="black" stroke-width="2" fill="none" />
<polyline points="196.0,76.0,193.0,75.0,184.5,73.0" stroke="black" stroke-width="2" fill="none" />
<polyline points="164.5,82.5,156.5,84.5,149.0,86.0,140.5,87.5,133.0,91.0,125.0,95.0,117.5,98.0,108.5,100.5,111.5,100.0,124.5,94.0,117.0,96.0,109.0,98.5,101.0,100.5,93.0,102.0,85.0,104.0,76.5,105.5,68.5,111.0,61.0,113.0,53.0,116.5" stroke="black" stroke-width="2" fill="none" />
<polyline points="54.0,117.5,55.0,125.5,55.5,133.5,55.5,141.5,57.0,149.0,58.0,157.0,58.5,165.0,59.0,173.0,60.0,180.5,61.5,188.5,61.5,197.0,59.5,204.5,57.0,212.5,56.0,221.5,56.0,229.5,48.5,241.5" stroke="black" stroke-width="2" fill="none" />
<polyline points="11.5,179.5,3.0,181.5" stroke="black" stroke-width="2" fill="none" />
<polyline points="13.5,144.5,15.0,136.5,14.0,128.0,0.5,127.0" stroke="black" stroke-width="2" fill="none" />
<polyline points="8.0,118.5,16.0,121.5,24.0,119.5,32.0,117.5,40.0,115.5,47.5,112.0,55.5,111.5,63.0,109.0,74.5,108.5,82.5,106.5,95.5,103.0" stroke="black" stroke-width="2" fill="none" />
<polyline points="92.5,133.0,76.5,136.5,72.5,147.5,74.5,155.5,72.0,163.0,73.5,168.0,77.0,168.0,79.5,176.0,81.5,184.0,84.0,191.5,86.0,200.0,87.0,208.0" stroke="black" stroke-width="2" fill="none" />
<polyline points="74.0,142.0,65.5,142.5" stroke="black" stroke-width="2" fill="none" />
<polyline points="75.0,139.5,83.0,136.5,91.0,133.5,98.5,131.5,106.5,130.0,115.0,128.0,123.0,126.0,131.0,123.5,139.0,120.0,147.0,119.0,155.0,117.0" stroke="black" stroke-width="2" fill="none" />
<polyline points="143.0,103.0,143.0,94.5,134.5,92.0,126.5,95.0" stroke="black" stroke-width="2" fill="none" />
<polyline points="67.0,126.5,68.5,134.5,70.0,142.5,68.0,150.5,70.0,158.0,64.5,160.5,66.5,168.5,69.5,168.0,73.5,176.0,75.5,183.0,77.5,191.0,80.0,199.0,82.0,205.5,79.5,213.5,83.5,213.5,86.5,218.0,90.0,207.0,96.0,203.5,101.5,199.5,104.5,194.0,107.0,198.0,111.5,192.5,118.5,192.5,126.5,185.5,133.5,183.5,137.5,184.5,141.0,169.5,147.0,174.5,150.0,187.5,155.0,181.0,158.5,183.0,166.0,178.0,174.0,177.5,174.0,171.5,182.0,169.5,186.0,172.0" stroke="black" stroke-width="2" fill="none" />
<polyline points="52.5,161.0,51.0,153.0,51.5,145.0,53.0,137.0,52.0,129.0,52.5,121.5,57.5,113.5" stroke="black" stroke-width="2" fill="none" />
<polyline points="18.5,137.5,19.5,146.0,20.0,155.0,21.0,163.5,18.0,171.5,21.5,173.5,19.5,181.5,20.5,189.0,20.5,196.5,15.0,200.5,15.0,203.5,29.0,208.5" stroke="black" stroke-width="2" fill="none" />
<polyline points="10.0,4.5,1.5,5.0" stroke="black" stroke-width="2" fill="none" />
<polyline points="182.0,53.5,183.0,46.0,184.0,38.0,187.0,38.0" stroke="black" stroke-width="2" fill="none" />
<polyline points="190.0,37.0,188.5,45.0,186.5,52.5,190.0,61.5,188.0,69.5,180.5,78.5,185.5,78.0,192.5,85.0" stroke="black" stroke-width="2" fill="none" />
<polyline points="195.5,69.0,194.5,60.0,197.5,53.0,199.0,45.0,200.5,37.0" stroke="black" stroke-width="2" fill="none" />
<polyline points="250.5,7.0,258.0,6.5" stroke="black" stroke-width="2" fill="none" />
</svg>