<svg xmlns="http://www.w3.org/2000/svg" version="1.1"><polyline points="40.5,199.5,39.5,208.0,47.0,218.5,38.5,224.5,42.0,232.0,46.0,227.5,43.0,236.0,45.0,241.0,42.0,246.5,43.5,254.5,46.5,250.5" stroke="black" stroke-width="2" fill="none" />
<polyline points="44.5,248.0,53.0,247.5" stroke="black" stroke-width="2" fill="none" />
<polyline points="51.0,249.5,43.0,250.0,35.5,250.5,28.5,250.5,21.0,251.0,14.0,251.0,6.0,251.5" stroke="black" stroke-width="2" fill="none" />
<polyline points="7.5,252.0,8.5,251.0,11.5,243.5,10.5,235.5,7.5,236.0,13.0,228.0,19.0,217.5,17.5,216.5,19.5,208.0,8.0,207.0" stroke="black" stroke-width="2" fill="none" />
<polyline points="3.5,207.5,11.5,200.5,23.5,205.5,12.5,209.5,13.5,217.5,10.0,224.5,5.5,226.5,4.0,234.5,7.0,240.5,8.0,244.0,5.5,251.0,15.0,255.0,22.0,252.0,26.5,243.0,31.0,236.0,33.5,223.5,41.5,225.0,50.5,217.5,52.0,226.5,59.5,229.5,63.5,237.5,73.5,232.0,78.5,235.0,82.5,237.0,82.0,239.0,76.0,240.0,74.5,248.0,73.5,256.0,83.5,252.5,85.5,252.0,93.5,251.0,101.0,251.0,107.0,245.0,112.5,248.0,115.0,255.0,127.0,240.0" stroke="black" stroke-width="2" fill="none" />
<polyline points="124.5,247.5,124.5,244.5,130.0,240.5,129.5,233.0,130.0,223.5" stroke="black" stroke-width="2" fill="none" />
<polyline points="128.0,229.0,136.0,228.0,131.0,235.5,136.0,243.5,133.0,254.5,127.0,257.5,136.5,249.5" stroke="black" stroke-width="2" fill="none" />
<polyline points="137.5,254.5,142.5,251.0,143.5,243.0,141.5,242.0" stroke="black" stroke-width="2" fill="none" />
<polyline points="138.5,240.5,142.5,240.5,137.5,236.5,139.5,244.5,146.5,248.5,154.5,252.5,157.5,243.5,163.5,234.5" stroke="black" stroke-width="2" fill="none" />
<polyline points="160.0,233.5,153.0,241.5,149.0,250.0,151.0,251.0" stroke="black" stroke-width="2" fill="none" />
<polyline points="155.5,237.0,156.5,245.0,162.0,247.5,167.0,238.5,176.5,239.0,182.5,233.0,183.0,229.5" stroke="black" stroke-width="2" fill="none" />
<polyline points="186.5,237.0,195.0,230.0,191.0,236.0,184.5,241.0,185.0,243.0,186.5,250.5,182.5,252.0,189.5,254.5,195.0,255.5,198.5,255.5" stroke="black" stroke-width="2" fill="none" />
<polyline points="214.0,255.5,218.5,253.5,219.5,245.5,220.0,237.0,222.0,236.0,208.5,231.5" stroke="black" stroke-width="2" fill="none" />
<polyline points="207.0,228.0,208.5,225.0,216.5,227.0" stroke="black" stroke-width="2" fill="none" />
<polyline points="210.0,219.5,202.0,222.0" stroke="black" stroke-width="2" fill="none" />
<polyline points="203.0,217.5,205.0,225.5,210.0,226.5,211.0,228.5,208.0,234.5,212.0,236.5,215.0,241.5,210.5,249.5,220.5,253.0,227.5,255.0,238.5,254.0" stroke="black" stroke-width="2" fill="none" />
<polyline points="237.0,253.5,244.5,253.0,252.0,253.0,260.0,253.0" stroke="black" stroke-width="2" fill="none" />
<polyline points="250.5,244.5,242.5,245.0" stroke="black" stroke-width="2" fill="none" />
<polyline points="240.5,243.5,244.5,238.0,244.5,230.5" stroke="black" stroke-width="2" fill="none" />
<polyline points="250.5,229.5,251.5,219.5,243.5,216.5" stroke="black" stroke-width="2" fill="none" />
<polyline points="240.5,208.0,249.0,221.0,248.0,223.5,248.0,231.0,245.5,239.5,242.5,248.5,244.5,252.5" stroke="black" stroke-width="2" fill="none" />
<polyline points="228.5,254.5,220.0,255.0" stroke="black" stroke-width="2" fill="none" />
<polyline points="227.0,252.5,230.0,245.5,222.0,247.5,226.0,240.0,222.0,245.5" stroke="black" stroke-width="2" fill="none" />
<polyline points="230.5,253.0,235.5,251.0,237.5,249.0,234.0,241.0,232.0,240.0,235.5,238.0" stroke="black" stroke-width="2" fill="none" />
<polyline points="235.5,235.5,249.0,231.0,250.0,239.0,253.0,241.5,251.0,249.5" stroke="black" stroke-width="2" fill="none" />
<polyline points="237.5,239.0,229.5,231.0,221.5,236.5,213.5,239.5,209.5,244.5,200.5,245.0,192.5,241.0" stroke="black" stroke-width="2" fill="none" />
<polyline points="195.5,239.5,190.5,247.5,193.0,256.0" stroke="black" stroke-width="2" fill="none" />
<polyline points="170.0,235.5,160.5,248.0,160.5,256.0" stroke="black" stroke-width="2" fill="none" />
<polyline points="164.5,253.0,164.5,245.5,164.5,237.5,168.5,229.5" stroke="black" stroke-width="2" fill="none" />
<polyline points="186.0,220.0,194.0,219.0,197.0,215.0,192.0,223.0,186.5,222.5,188.5,230.5,178.5,228.0,175.0,239.0,171.0,247.0,175.0,251.0,170.0,253.0,165.0,253.0,182.0,252.0,188.0,256.5,192.5,252.0,197.0,250.0,205.0,252.5,210.0,253.5,213.5,247.5,220.0,252.5,228.5,249.5,229.0,244.5,233.0,249.5,243.5,248.0,247.5,246.0,250.5,251.0,256.5,240.5,251.5,255.5,254.5,256.5" stroke="black" stroke-width="2" fill="none" />
<polyline points="260.0,172.5,251.5,173.5,243.5,173.5,235.5,174.0,227.5,174.5,219.5,175.5,211.5,176.0" stroke="black" stroke-width="2" fill="none" />
<polyline points="210.5,166.0,218.5,166.0,226.0,166.0,234.5,165.5,243.0,165.0,250.5,165.0,259.5,163.5" stroke="black" stroke-width="2" fill="none" />
<polyline points="260.0,153.0,252.0,153.5,243.5,154.0,235.0,155.5,227.0,156.5,219.5,157.5,211.5,158.5" stroke="black" stroke-width="2" fill="none" />
<polyline points="180.5,160.0,188.5,159.5,202.5,160.0,210.5,161.0,218.5,161.5,226.0,161.5,234.0,162.5,242.0,162.5,250.0,161.5" stroke="black" stroke-width="2" fill="none" />
<polyline points="241.0,109.0,249.5,108.5,258.5,108.0" stroke="black" stroke-width="2" fill="none" />
<polyline points="251.5,91.5,259.5,83.5" stroke="black" stroke-width="2" fill="none" />
<polyline points="252.5,81.5,260.0,73.5" stroke="black" stroke-width="2" fill="none" />
<polyline points="261.5,65.5,253.0,73.5,244.5,81.5" stroke="black" stroke-width="2" fill="none" />
<polyline points="235.5,81.0,243.5,73.5,252.0,66.5,260.5,59.5" stroke="black" stroke-width="2" fill="none" />
<polyline points="260.5,52.5,252.5,59.5,244.5,67.0,237.0,74.5" stroke="black" stroke-width="2" fill="none" />
<polyline points="228.0,73.0,236.0,66.0,244.0,59.5,252.0,52.5,260.0,45.0" stroke="black" stroke-width="2" fill="none" />
<polyline points="260.0,37.0,251.5,44.0,243.0,51.5,235.0,59.0,227.5,66.5,220.0,73.5" stroke="black" stroke-width="2" fill="none" />
<polyline points="211.0,73.0,218.5,66.0,226.5,58.5,234.5,51.0,242.0,43.5,250.0,35.5,257.5,28.0" stroke="black" stroke-width="2" fill="none" />
<polyline points="259.0,21.0,251.0,28.5,243.5,36.0,236.0,43.5,228.0,51.0,220.0,58.5,212.0,65.5" stroke="black" stroke-width="2" fill="none" />
<polyline points="204.5,65.0,212.5,57.5,220.0,49.5,228.5,42.0,236.0,34.5,244.0,27.0,252.0,19.5,260.0,12.5" stroke="black" stroke-width="2" fill="none" />
<polyline points="259.5,4.0,251.5,11.0,243.5,18.5,235.5,26.0,228.0,34.0,220.0,42.0,212.0,50.0,204.5,57.5,196.5,65.5" stroke="black" stroke-width="2" fill="none" />
<polyline points="189.0,64.5,197.0,56.5,204.5,49.0,212.0,41.0,219.5,33.5,228.0,26.0,235.5,18.5,243.5,11.0,251.5,3.5" stroke="black" stroke-width="2" fill="none" />
<polyline points="243.0,3.5,235.5,11.0,227.0,18.5,219.0,26.5,211.0,33.5,203.0,41.0,195.5,49.0,187.5,57.0" stroke="black" stroke-width="2" fill="none" />
<polyline points="180.0,56.0,188.0,48.0,195.5,41.0,203.0,33.5,210.5,26.0,218.5,18.5,226.5,11.0,234.0,4.0" stroke="black" stroke-width="2" fill="none" />
<polyline points="226.0,3.0,218.5,10.5,211.0,18.5,203.5,26.0,195.5,33.0,187.5,40.5,180.5,48.0,173.0,55.5" stroke="black" stroke-width="2" fill="none" />
<polyline points="164.0,54.5,171.5,46.5,179.0,39.0,186.5,31.5,194.0,24.0,201.5,17.0,210.0,10.0,218.0,3.0" stroke="black" stroke-width="2" fill="none" />
<polyline points="210.5,4.0,202.5,11.5,195.0,18.5,187.0,26.5,179.0,34.0,171.5,41.5,163.5,49.5,155.5,57.0" stroke="black" stroke-width="2" fill="none" />
<polyline points="145.5,56.0,154.0,48.5,162.0,40.5,170.5,33.5,179.5,27.0,188.5,20.0,197.0,12.5,205.5,5.0" stroke="black" stroke-width="2" fill="none" />
<polyline points="196.0,5.0,188.0,12.5,180.0,20.0,172.5,27.0,164.0,33.5,155.5,40.5,147.0,48.5,138.5,56.5" stroke="black" stroke-width="2" fill="none" />
<polyline points="129.5,56.5,138.0,49.5,147.0,42.0,155.0,34.0,163.5,26.0,172.0,18.5,180.5,11.0,188.5,3.0" stroke="black" stroke-width="2" fill="none" />
<polyline points="180.0,5.5,172.5,13.0,164.0,20.0,156.0,27.5,148.0,35.0,139.5,43.0,131.5,50.5,123.5,58.0" stroke="black" stroke-width="2" fill="none" />
<polyline points="116.0,58.0,124.0,51.0,132.5,43.5,140.5,36.0,148.0,28.5,155.5,20.5,164.0,13.0,172.0,6.0" stroke="black" stroke-width="2" fill="none" />
<polyline points="164.5,3.0,156.5,10.5,148.5,18.5,141.0,26.0,133.0,33.5,125.5,41.5,117.0,48.5,108.0,56.5" stroke="black" stroke-width="2" fill="none" />
<polyline points="100.0,54.0,108.0,46.5,115.5,38.5,124.0,31.5,132.5,25.0,141.0,17.5,149.0,10.5,157.0,3.0" stroke="black" stroke-width="2" fill="none" />
<polyline points="147.0,3.0,139.0,10.5,131.0,18.0,123.0,25.5,115.5,33.0,107.5,40.5,99.5,48.5,91.5,56.0" stroke="black" stroke-width="2" fill="none" />
<polyline points="82.5,56.5,90.5,48.5,99.0,41.0,107.0,33.0,115.5,25.0,123.5,17.0,131.5,10.0,139.5,2.0" stroke="black" stroke-width="2" fill="none" />
<polyline points="131.5,4.0,123.5,11.0,115.5,18.5,107.5,26.0,99.5,34.0,91.5,41.0,83.0,48.5,75.0,55.5,67.0,63.0" stroke="black" stroke-width="2" fill="none" />
<polyline points="60.0,62.5,68.5,55.5,76.0,48.5,84.0,42.0,92.0,34.5,100.0,27.0,107.5,19.5,115.5,12.5,124.0,5.5" stroke="black" stroke-width="2" fill="none" />
<polyline points="115.5,5.0,108.0,12.5,100.0,20.0,92.5,27.5,84.5,34.5,76.0,41.5,68.5,48.5,59.5,56.0,51.0,63.5,43.0,70.0" stroke="black" stroke-width="2" fill="none" />
<polyline points="27.0,79.0,35.0,71.5,43.0,64.0,51.0,56.5,59.5,49.5,67.5,42.0,76.0,35.0,85.0,27.5,93.5,20.5,101.5,12.5,109.5,5.0" stroke="black" stroke-width="2" fill="none" />
<polyline points="99.0,3.5,91.0,11.0,83.0,18.5,75.0,25.5,67.0,33.5,59.0,41.0,51.0,48.5,43.0,56.5,35.5,64.0,27.0,71.0,18.5,78.5,10.5,86.5,3.0,94.0" stroke="black" stroke-width="2" fill="none" />
<polyline points="4.5,92.5,12.0,92.0,19.5,91.5,27.0,91.0,35.0,90.5,43.0,90.5,50.5,90.0,58.0,90.0" stroke="black" stroke-width="2" fill="none" />
<polyline points="22.5,115.0,13.5,115.0,5.0,115.5" stroke="black" stroke-width="2" fill="none" />
<polyline points="4.5,108.0,13.0,107.5,20.5,106.5,28.5,106.5" stroke="black" stroke-width="2" fill="none" />
<polyline points="44.0,98.5,36.0,98.5,28.0,99.0,20.0,99.0,12.0,98.5,4.5,99.0" stroke="black" stroke-width="2" fill="none" />
<polyline points="1.5,84.5,9.0,77.0,17.5,69.5,25.0,62.0,33.5,55.0,42.0,48.0,50.5,40.5,58.5,32.5,67.0,25.0,75.0,18.0,83.0,10.5,91.0,3.0" stroke="black" stroke-width="2" fill="none" />
<polyline points="83.5,2.5,75.5,10.5,68.0,18.5,60.0,26.0,51.5,33.0,43.5,40.5,35.0,48.0,27.0,55.5,19.5,63.0,11.5,71.0,3.5,78.5" stroke="black" stroke-width="2" fill="none" />
<polyline points="5.0,76.5,12.5,75.5,21.0,75.0,29.5,74.5,37.0,74.0,45.0,74.0,52.5,73.5,60.0,73.5,67.5,72.5,74.5,71.5,82.0,71.0,90.0,70.5,97.5,70.0,106.0,69.5" stroke="black" stroke-width="2" fill="none" />
<polyline points="153.0,77.0,161.5,76.5,169.5,76.0,178.5,75.5,186.5,76.0,195.5,76.0,203.5,75.5,212.0,75.5,220.0,75.0,227.5,75.0,236.0,74.5,243.5,73.5,251.5,72.5,260.0,72.0" stroke="black" stroke-width="2" fill="none" />
<polyline points="258.5,49.5,250.5,49.5,243.0,50.0" stroke="black" stroke-width="2" fill="none" />
<polyline points="260.0,39.0,252.0,40.0,244.0,40.5,235.5,41.5,228.0,42.5,219.5,43.5" stroke="black" stroke-width="2" fill="none" />
<polyline points="186.5,31.5,194.5,31.0,202.0,31.0,210.0,30.5,218.0,30.0,226.5,29.5,234.0,29.5,243.0,29.0,251.0,28.5,259.5,29.0" stroke="black" stroke-width="2" fill="none" />
<polyline points="260.5,99.5,252.5,100.0,244.0,101.0,236.0,101.5,228.0,102.0,220.5,102.5" stroke="black" stroke-width="2" fill="none" />
<polyline points="203.0,93.0,211.0,93.0,219.5,92.0,228.0,91.0,236.0,90.5,244.0,90.0,252.0,89.0,259.5,88.0" stroke="black" stroke-width="2" fill="none" />
<polyline points="259.5,79.5,252.0,80.0,244.0,81.0,235.5,81.5,228.0,81.5,220.0,82.5,213.0,83.0,205.0,83.5,197.0,83.5,189.0,84.0" stroke="black" stroke-width="2" fill="none" />
<polyline points="178.5,158.0,187.0,158.0,195.5,158.0,203.5,157.0,211.5,158.0,219.5,158.0,227.5,158.0,235.5,159.0,243.5,158.5,251.0,158.5" stroke="black" stroke-width="2" fill="none" />
<polyline points="237.0,183.5,229.0,186.5,218.5,189.5,210.5,189.5,202.0,184.5,194.0,186.0" stroke="black" stroke-width="2" fill="none" />
<polyline points="178.0,186.5,181.5,181.5,185.5,185.5,189.5,181.5,197.5,181.0,211.5,180.0,219.5,180.0,228.0,179.5,236.0,179.5,243.5,179.5,251.5,178.5" stroke="black" stroke-width="2" fill="none" />
<polyline points="256.0,176.0,248.5,177.0,240.0,177.0,231.5,178.5,223.5,179.5,215.5,179.5,207.5,179.5,199.0,179.5,191.5,179.0,183.5,179.5,175.5,183.0,174.0,186.0" stroke="black" stroke-width="2" fill="none" />
<polyline points="122.0,171.0,114.0,170.5,106.5,171.0,99.0,172.0,91.5,172.5,83.5,173.0,75.5,173.5" stroke="black" stroke-width="2" fill="none" />
<polyline points="72.5,173.5,80.5,174.0,89.0,174.0,97.5,174.0,105.5,174.5,114.0,174.5,122.0,175.0,130.5,175.0,138.5,175.0,146.0,174.0,154.5,174.5,162.0,174.0,170.0,174.0,178.5,174.0,186.5,174.0,194.5,172.5,202.5,172.0,210.5,172.0,218.5,171.5,226.0,171.0,234.0,170.5,242.5,170.5,250.5,170.5" stroke="black" stroke-width="2" fill="none" />
<polyline points="259.5,53.5,251.5,53.5,244.0,54.5,236.0,55.0,228.0,56.0,220.0,56.0,212.0,56.0,203.5,57.0,195.0,57.5,186.5,58.0,178.5,58.5,170.5,59.0,162.0,60.0,155.0,60.5,147.5,61.0,140.0,61.5,132.5,61.0,124.5,61.0,116.5,61.0,108.5,61.5,100.5,61.5,92.5,62.0,84.5,62.5,76.5,63.5,69.0,64.5,61.0,65.0,53.5,65.5,45.5,66.0,37.5,66.5,29.5,67.0,21.5,67.5,14.0,68.0,6.0,69.0" stroke="black" stroke-width="2" fill="none" />
<polyline points="4.0,69.0,13.0,62.5,21.5,55.5,30.0,48.0,38.5,40.5,46.0,34.0,53.5,27.0,61.0,20.0,69.0,12.5,77.0,5.5" stroke="black" stroke-width="2" fill="none" />
<polyline points="70.0,3.0,61.5,11.0,53.5,19.0,45.0,26.5,37.0,34.0,29.0,41.5,21.0,49.0,13.0,56.0,5.5,63.0" stroke="black" stroke-width="2" fill="none" />
<polyline points="2.5,65.0,10.5,64.0" stroke="black" stroke-width="2" fill="none" />
<polyline points="1.5,62.5,9.0,62.0,17.0,61.0,25.5,60.0,34.0,59.5,42.5,59.0,50.5,58.0,58.0,57.5,66.0,57.0,73.5,56.5,81.0,56.0,89.5,55.5,98.5,55.0,106.5,54.5,114.5,54.5,122.5,54.0,130.5,53.5,138.5,52.5,146.0,52.0,154.0,51.0,162.0,51.0,170.0,50.0,177.5,49.0,186.0,48.0,194.5,47.5,203.0,47.0,211.5,46.5,220.0,46.5,228.5,46.0,237.5,45.5,245.5,45.0,253.5,44.5,261.0,44.5" stroke="black" stroke-width="2" fill="none" />
<polyline points="74.5,82.5,66.5,82.5,58.5,83.0,50.5,83.5,43.0,84.0,35.5,84.0,28.0,84.0,20.5,84.0,12.5,84.0,4.5,84.0" stroke="black" stroke-width="2" fill="none" />
<polyline points="1.5,58.5,9.5,58.0,18.0,57.5" stroke="black" stroke-width="2" fill="none" />
<polyline points="5.0,55.5,13.0,48.0,21.0,40.0,29.5,32.5,37.5,25.5,45.5,17.5,53.5,10.0,62.0,2.0" stroke="black" stroke-width="2" fill="none" />
<polyline points="52.5,1.5,45.0,9.5,37.0,17.5,28.5,25.5,20.5,34.0,12.5,42.0,4.5,49.5" stroke="black" stroke-width="2" fill="none" />
<polyline points="2.5,48.5,11.0,48.5,19.5,48.0,28.0,48.0,36.0,48.5" stroke="black" stroke-width="2" fill="none" />
<polyline points="3.5,53.0,11.5,52.5,20.0,52.0,28.0,51.5,35.5,51.5,44.0,51.5,52.0,51.0,60.5,50.0,68.5,49.5,77.0,48.5,85.0,48.5,92.5,48.0,100.0,48.0,108.0,48.0,115.5,48.5,124.0,48.5,132.0,48.0,140.0,47.0,148.5,46.5,157.0,45.5,165.5,45.0,173.0,44.5,180.5,44.0,187.5,43.0,194.5,41.5,202.0,40.5,210.0,40.5,217.5,40.0,226.0,40.0,234.0,40.0,242.5,39.5,250.5,39.0,258.5,37.5" stroke="black" stroke-width="2" fill="none" />
<polyline points="258.0,30.0,250.0,31.0,242.0,31.5,233.5,32.0,225.5,32.5,217.5,32.5,210.0,33.5,203.0,34.0,195.0,34.0,187.5,34.0,180.0,34.5,172.5,35.0,164.5,35.0,156.5,36.0,148.5,37.0,140.5,38.0,132.5,38.0,124.5,38.5,116.5,39.0,108.0,40.0,100.0,40.5,92.0,41.0,84.5,41.5,76.0,42.0,68.5,42.0,60.5,41.5,52.5,41.5,44.5,41.5,36.0,42.0,27.5,41.5,19.0,42.0,10.5,42.0,2.0,42.5" stroke="black" stroke-width="2" fill="none" />
<polyline points="2.5,41.5,11.0,41.0,19.5,40.5,28.0,40.0,36.0,39.0,44.5,38.5,52.0,38.5,59.5,38.5" stroke="black" stroke-width="2" fill="none" />
<polyline points="43.0,5.5,35.5,12.5,27.5,19.5,19.5,26.5,11.5,34.0,3.5,41.5" stroke="black" stroke-width="2" fill="none" />
<polyline points="3.0,40.5,11.0,39.5,19.0,39.0,27.0,38.5,35.0,38.0,42.5,37.0,50.5,36.5,58.5,36.0,67.0,36.0,75.5,35.5,83.5,35.0,91.5,34.5,99.5,33.5,107.5,33.0,115.5,32.5,123.5,32.5,132.0,31.5,140.0,31.0,148.0,30.5,156.0,30.0,164.0,30.0,172.0,29.0,179.5,28.5,188.0,28.5,196.5,28.0,204.5,27.5,212.0,27.0,220.0,26.0,228.0,25.0,235.5,24.5,243.5,24.0,251.5,23.5,259.5,23.0" stroke="black" stroke-width="2" fill="none" />
<polyline points="74.5,29.5,67.0,30.0,59.0,30.5,51.5,31.0,43.5,32.0,35.5,32.0,27.5,33.0,20.0,34.0,12.5,34.5,4.5,35.5" stroke="black" stroke-width="2" fill="none" />
<polyline points="3.0,35.5,11.5,27.5,20.0,19.5,28.5,12.0,36.5,5.5" stroke="black" stroke-width="2" fill="none" />
<polyline points="27.5,5.0,19.5,13.0,12.0,20.5,4.0,28.0" stroke="black" stroke-width="2" fill="none" />
<polyline points="4.5,28.0,12.5,28.0,21.0,28.0,28.5,28.0,36.0,27.5,43.5,27.0,51.5,26.5,60.0,26.0,68.0,26.0,75.5,25.5,83.5,25.5,91.5,24.5,99.0,23.5,107.0,22.5,115.5,21.0,124.0,20.5,132.0,20.0,140.5,20.0,148.5,20.0,157.0,19.5,165.0,19.0,173.0,18.5,181.0,17.5,188.5,17.0,196.0,15.5,203.5,14.5,212.0,14.5,220.0,14.0,228.0,14.0,235.5,13.5,243.5,13.5,251.5,12.5,259.5,12.0" stroke="black" stroke-width="2" fill="none" />
<polyline points="259.0,9.5,252.0,10.5,244.0,11.5,236.0,12.0,228.0,12.0,219.5,12.0,211.5,12.5,203.5,12.5,195.5,13.0,187.0,13.5,179.0,14.0,171.0,14.5,163.0,15.0,155.0,15.0,147.0,15.0,139.5,15.0,132.0,16.0,124.0,17.0,116.0,17.5,108.0,18.0,99.5,19.0,91.0,20.0,83.0,20.0,75.5,20.5,67.5,20.5,60.0,21.0,52.5,22.0,44.5,22.5,36.5,23.0,28.0,23.0,20.0,23.5,11.5,24.0,3.5,24.5" stroke="black" stroke-width="2" fill="none" />
<polyline points="6.0,20.5,14.0,20.0,22.0,19.0,29.5,18.5,37.5,18.0,45.5,17.0,53.0,16.5,61.0,16.5,69.0,16.5,76.5,15.5,85.0,15.0,93.0,14.5,101.0,14.5,109.0,14.0,116.0,13.5,124.0,12.5,131.5,12.5,140.0,12.0,148.0,11.0,155.5,10.5,163.5,10.0,171.5,10.0,179.5,9.0,187.5,9.0,195.0,9.0,203.0,9.0,210.5,8.5,218.5,8.5,226.5,8.5,235.0,8.5,242.5,8.0,251.0,8.0,259.0,7.5" stroke="black" stroke-width="2" fill="none" />
<polyline points="259.0,2.0,251.0,2.5,243.5,2.5,235.0,3.0,227.0,3.0,219.0,3.5,211.0,4.5,203.5,5.0,195.5,6.0,187.5,6.0,179.5,6.5,171.5,7.0,163.5,8.0,155.5,8.0,147.0,7.5,139.0,8.0,130.0,8.5,122.5,8.5,114.0,9.0,106.0,9.5,98.0,10.0,90.5,10.0,82.5,10.5,74.5,11.0,66.0,12.0,58.5,13.0,51.0,13.5,43.5,14.0,35.5,15.0,27.5,15.0,19.5,15.5,11.5,16.0,3.0,16.5" stroke="black" stroke-width="2" fill="none" />
<polyline points="2.5,19.0,9.5,11.5,18.0,3.5" stroke="black" stroke-width="2" fill="none" />
<polyline points="12.5,1.5,4.5,9.0" stroke="black" stroke-width="2" fill="none" />
<polyline points="3.0,9.0,10.5,8.0,18.5,8.0,26.5,7.5,35.0,7.0,42.5,6.5,50.5,6.0,59.0,5.5,67.5,5.0,75.5,4.5,83.5,4.5,91.5,4.0,99.5,3.5,107.0,3.0,114.5,2.0,122.0,1.5,130.0,2.0,138.0,1.5,146.5,1.0,155.5,1.0,163.5,1.0,172.0,0.5,180.0,0.0,188.5,-0.5,196.5,-1.5,204.0,-2.5,212.5,-3.5,219.5,-4.0,227.0,-4.5,235.0,-6.0,243.0,-6.5,250.5,-6.5,258.5,-7.0" stroke="black" stroke-width="2" fill="none" />
<polyline points="260.0,-5.0,252.0,-4.5,243.5,-4.0,235.5,-3.0,228.0,-1.5,220.5,-0.5,212.0,0.5,204.0,2.0,196.0,2.5,188.0,3.0,179.5,3.5,171.5,4.5,164.0,5.5,155.5,6.0,148.0,6.0,140.0,6.5,131.5,6.5,123.5,7.0,114.5,7.0,106.5,6.5,97.5,7.0,89.5,7.5,81.0,8.0,73.0,8.5,65.5,9.0,57.5,9.0,49.5,9.0,41.5,9.5,34.0,10.0,26.0,10.5,18.0,11.5,10.0,12.0,2.5,12.5" stroke="black" stroke-width="2" fill="none" />
<polyline points="2.0,3.0,10.5,3.0,19.5,3.0,28.0,3.5,36.5,3.5,45.0,4.0,53.0,3.5,60.5,3.5,68.5,3.5,76.5,3.0,84.5,3.0,93.0,2.5,100.5,2.0,108.5,1.5,116.5,0.5,124.0,-0.5,132.5,-1.0,141.0,-1.5,149.0,-2.0,157.5,-2.5,165.5,-3.0,173.5,-3.5,181.5,-3.5,189.0,-4.5,196.0,-5.0,203.5,-6.0,211.5,-6.5,219.0,-7.5,227.0,-8.0,235.0,-8.5,243.0,-9.0,251.0,-9.5,259.0,-9.5" stroke="black" stroke-width="2" fill="none" />
<polyline points="169.5,165.5,162.0,165.0,154.0,165.0,146.5,165.0,138.5,165.5,130.5,165.5,122.5,164.5,114.0,164.5,106.0,164.0,98.0,164.0" stroke="black" stroke-width="2" fill="none" />
<polyline points="72.0,161.0,80.0,161.0,88.0,161.0,96.0,161.0,103.5,162.0,111.0,162.0,119.5,162.5,127.5,162.5,135.5,163.5,144.0,164.0,152.0,164.0,160.5,164.0,168.5,164.0,176.5,162.0,186.0,166.5,193.5,166.5,201.5,166.0,209.0,167.0,217.0,168.0,224.5,168.5,232.5,168.5,240.5,168.5,248.5,169.0" stroke="black" stroke-width="2" fill="none" />
<polyline points="105.0,214.5,105.0,215.5,105.5,221.0,115.5,227.5,119.0,232.5,113.5,228.0,113.5,236.0,111.5,244.5,102.5,246.5,113.0,248.0,111.0,256.0" stroke="black" stroke-width="2" fill="none" />
<polyline points="125.5,256.0,127.5,248.0,124.0,240.0,119.5,233.5,111.5,233.5" stroke="black" stroke-width="2" fill="none" />
<polyline points="95.0,239.0,98.0,235.0,98.0,227.5,100.0,232.5,92.5,232.5,90.5,240.5,89.0,248.5" stroke="black" stroke-width="2" fill="none" />
<polyline points="107.0,255.5,99.0,253.0,96.0,255.5,91.5,251.5,91.5,244.5,77.5,239.0,75.0,232.5,82.0,232.0,80.0,223.0,84.5,217.0,84.5,220.0" stroke="black" stroke-width="2" fill="none" />
<polyline points="85.0,214.5,78.0,207.5,69.5,209.5" stroke="black" stroke-width="2" fill="none" />
<polyline points="70.5,219.0,62.5,218.5,58.5,217.5,52.5,222.0,41.5,211.0,29.5,203.0,22.0,197.0,13.0,197.0,5.0,198.0" stroke="black" stroke-width="2" fill="none" />
<polyline points="6.0,188.0,14.5,188.0,18.0,190.5,20.0,184.5,26.0,193.0" stroke="black" stroke-width="2" fill="none" />
<polyline points="29.0,188.0,37.5,180.0" stroke="black" stroke-width="2" fill="none" />
<polyline points="35.0,171.0,43.0,164.0" stroke="black" stroke-width="2" fill="none" />
<polyline points="37.0,162.0,37.0,161.5,45.5,163.5,39.0,171.0,43.0,184.0,51.5,187.5,59.5,183.5,68.0,183.0,76.0,183.5,82.0,188.0,90.0,189.0,98.0,188.0,106.0,189.0,114.5,186.5,122.5,187.5" stroke="black" stroke-width="2" fill="none" />
<polyline points="145.5,160.5,138.0,160.5,130.0,160.0,127.5,157.0,119.5,160.0,111.5,160.0,103.5,159.0,95.5,160.5,87.0,160.5,79.0,160.0,71.0,160.0,63.5,159.0,55.5,158.5,47.5,158.0,39.5,158.5,31.5,158.5,21.5,164.5,13.5,164.0,12.5,169.5,5.0,167.5" stroke="black" stroke-width="2" fill="none" />
<polyline points="4.5,166.0,12.5,165.5,20.5,165.0,28.5,165.0,36.5,164.5,44.5,164.0,52.0,163.5" stroke="black" stroke-width="2" fill="none" />
<polyline points="52.0,156.0,44.0,156.5,36.0,157.0" stroke="black" stroke-width="2" fill="none" />
<polyline points="10.0,154.0,2.0,161.5" stroke="black" stroke-width="2" fill="none" />
<polyline points="3.5,165.0,6.5,156.5,14.5,157.0,22.5,157.0,30.0,157.5,29.5,162.5,29.5,171.0,26.5,178.0,20.5,181.0,25.5,190.0,26.5,204.0,27.5,212.0,22.5,219.5,19.5,227.5,14.5,231.5,15.5,239.0,15.5,247.0,17.5,251.5,27.0,254.0,31.0,250.0,37.0,246.0,38.0,252.0,49.0,250.0,56.5,250.0,60.0,255.0" stroke="black" stroke-width="2" fill="none" />
<polyline points="63.5,244.0,55.5,244.0" stroke="black" stroke-width="2" fill="none" />
<polyline points="55.0,240.0,48.5,235.0,41.0,235.5,33.0,235.5,24.0,229.5,19.0,232.5,11.5,236.5,4.0,234.5" stroke="black" stroke-width="2" fill="none" />
<polyline points="1.5,237.0,9.5,236.5,18.5,235.5" stroke="black" stroke-width="2" fill="none" />
<polyline points="27.0,243.5,19.0,243.5,11.0,243.5,2.5,243.5" stroke="black" stroke-width="2" fill="none" />
<polyline points="6.0,247.5,14.0,241.5" stroke="black" stroke-width="2" fill="none" />
<polyline points="11.0,229.0,2.5,229.5" stroke="black" stroke-width="2" fill="none" />
<polyline points="3.0,216.5,11.0,215.0,13.0,219.0,18.0,227.0,22.0,222.0,26.0,211.5,41.5,206.5,49.5,207.5,57.0,204.5" stroke="black" stroke-width="2" fill="none" />
<polyline points="56.5,205.0,56.5,212.5,62.5,215.5,65.5,222.5,64.5,231.0,70.5,238.0,72.5,241.0,82.0,245.0,80.0,243.0" stroke="black" stroke-width="2" fill="none" />
<polyline points="68.5,231.0,60.5,224.0" stroke="black" stroke-width="2" fill="none" />
<polyline points="55.5,238.0,66.5,239.5,61.5,241.0,62.5,248.5,59.5,248.5,64.5,256.5" stroke="black" stroke-width="2" fill="none" />
<polyline points="48.0,254.0,43.5,245.5,45.5,242.0,37.5,239.5" stroke="black" stroke-width="2" fill="none" />
<polyline points="47.0,232.5,48.0,240.5,52.5,244.5,51.5,252.5" stroke="black" stroke-width="2" fill="none" />
<polyline points="38.5,218.0,30.5,222.0" stroke="black" stroke-width="2" fill="none" />
<polyline points="15.0,213.5,30.0,218.0,31.0,222.0,34.0,230.0,31.5,237.5,30.5,245.5,24.5,245.5,25.0,253.5,26.5,253.5" stroke="black" stroke-width="2" fill="none" />
<polyline points="57.0,255.5,53.0,251.5,54.0,243.0,53.0,235.0,46.0,228.5,45.0,223.5,53.5,219.5,51.5,211.5" stroke="black" stroke-width="2" fill="none" />
<polyline points="44.5,177.5,36.0,178.0,27.5,178.5,19.5,178.5,11.5,179.0,3.5,179.0" stroke="black" stroke-width="2" fill="none" />
<polyline points="1.0,178.0,8.5,178.5,16.5,177.5,24.0,178.0,32.5,177.0,40.5,171.0,47.5,173.0,55.0,175.0,63.0,175.0,72.0,177.0,79.5,177.0,88.0,177.0,96.5,177.0,104.5,177.0,112.5,177.0,120.5,177.0,128.5,176.0,136.5,176.0,144.5,175.5,152.0,175.5,160.0,176.0,168.0,175.5,176.0,174.0,184.0,174.0,192.5,173.5,201.0,174.0,209.0,174.0,217.5,174.0,226.0,174.5,234.0,173.0,242.5,173.0,250.5,173.0" stroke="black" stroke-width="2" fill="none" />
<polyline points="10.5,165.0,3.0,172.5" stroke="black" stroke-width="2" fill="none" />
<polyline points="4.5,172.0,12.5,171.5,20.0,171.5,27.5,171.5,35.5,171.0,44.0,171.0,52.0,170.0" stroke="black" stroke-width="2" fill="none" />
<polyline points="21.0,155.5,13.0,156.0,5.0,156.5" stroke="black" stroke-width="2" fill="none" />
<polyline points="7.5,159.5,15.5,162.5,23.5,163.5" stroke="black" stroke-width="2" fill="none" />
<polyline points="2.0,153.5,10.0,154.0,18.5,154.0,26.5,154.0,34.0,154.0,42.5,154.5,50.5,154.5,58.5,154.0,67.0,154.0,75.0,154.0,83.0,155.0,90.5,155.0,98.5,155.5,106.5,156.0,114.0,156.5,122.5,155.5,130.5,155.5,138.5,156.5,146.5,157.5,155.0,159.0,157.5,162.0,165.0,162.0,176.5,157.0,184.0,155.5,191.5,155.0,199.0,154.0,207.0,153.0,215.0,153.0,223.0,153.5,231.0,154.5,239.5,154.5,247.5,154.5,255.5,154.0" stroke="black" stroke-width="2" fill="none" />
<polyline points="70.5,187.5,62.5,187.0,49.5,184.5,41.5,183.5,33.5,185.5,25.5,185.5,17.5,182.5,9.5,185.5,1.5,188.5" stroke="black" stroke-width="2" fill="none" />
<polyline points="1.0,175.0,9.0,174.5,17.0,172.5,25.0,172.5,29.5,175.0,33.5,180.5,39.5,176.0,47.5,176.0,55.5,178.5,64.5,177.5,70.0,171.5,77.5,171.5,85.5,171.5,90.5,168.5,98.5,168.0,106.5,168.0,114.5,168.0,123.0,168.5,131.0,168.5,138.5,168.5,146.5,168.5,154.5,168.5,162.5,168.0,171.0,169.5,175.0,159.5,180.0,163.5,188.0,164.5,196.0,164.5,204.0,164.5,212.0,164.0" stroke="black" stroke-width="2" fill="none" />
</svg>