<svg xmlns="http://www.w3.org/2000/svg" version="1.1"><polyline points="121.5,34.0,122.5,42.0,116.5,50.0,112.5,55.0,117.5,66.0,118.5,74.0,108.0,82.0,97.5,83.5,105.5,86.5,108.0,90.5,107.0,98.5,118.0,105.0,122.5,111.0,115.5,119.0,118.0,127.5,122.5,129.5,121.0,135.5,117.5,143.0,117.5,137.0,121.5,130.0,123.0,126.0,131.5,129.0,136.5,135.0,136.0,138.0,144.0,145.5" stroke="black" stroke-width="2" fill="none" />
<polyline points="147.5,131.5,139.5,132.0,132.0,133.0,124.5,133.5" stroke="black" stroke-width="2" fill="none" />
<polyline points="129.5,126.0,137.5,128.0,140.0,116.0,142.0,125.0,152.5,119.5,162.0,117.0,167.0,113.0,174.5,116.0" stroke="black" stroke-width="2" fill="none" />
<polyline points="172.0,125.5,164.5,126.0" stroke="black" stroke-width="2" fill="none" />
<polyline points="161.5,119.5,169.5,120.5" stroke="black" stroke-width="2" fill="none" />
<polyline points="166.0,109.0,173.5,108.5" stroke="black" stroke-width="2" fill="none" />
<polyline points="171.0,99.0,163.0,99.5" stroke="black" stroke-width="2" fill="none" />
<polyline points="160.0,102.5,168.0,98.5" stroke="black" stroke-width="2" fill="none" />
<polyline points="162.0,91.5,166.0,92.0,161.0,100.0,152.0,109.5,149.5,116.5,145.5,124.5,151.0,135.0,149.5,142.0,153.5,139.0,162.0,149.0,163.0,157.0,167.0,162.0,173.0,158.5" stroke="black" stroke-width="2" fill="none" />
<polyline points="180.5,164.0,188.5,163.0,196.5,162.5,204.0,162.0,212.0,162.0,219.5,162.0,227.0,161.5,235.0,160.5,243.0,160.0,251.5,159.5,259.5,158.5" stroke="black" stroke-width="2" fill="none" />
<polyline points="260.0,162.0,252.0,170.0,244.0,177.0,236.0,184.5,228.0,192.5,220.0,199.5,212.0,207.5,203.0,215.0,194.5,222.5,186.0,230.0,178.0,237.5,170.0,245.0,162.0,252.5" stroke="black" stroke-width="2" fill="none" />
<polyline points="164.0,251.0,172.5,250.5,180.0,250.0" stroke="black" stroke-width="2" fill="none" />
<polyline points="178.5,252.5,187.0,245.5,194.5,238.0,203.0,230.0,211.5,222.5,220.0,215.0,228.0,207.5,236.0,200.0,244.5,193.0,253.0,185.5,261.0,178.5" stroke="black" stroke-width="2" fill="none" />
<polyline points="260.5,170.0,252.5,177.0,245.0,184.5,237.0,192.5,228.0,200.5,220.0,208.0,211.5,215.5,203.0,223.5,195.0,231.0,186.5,238.5,178.5,246.5,170.5,253.5" stroke="black" stroke-width="2" fill="none" />
<polyline points="178.5,257.0,186.5,257.0,195.0,257.0,203.5,257.0" stroke="black" stroke-width="2" fill="none" />
<polyline points="205.0,256.0,213.0,249.0,221.0,241.5,228.5,234.0,236.0,226.5,243.5,218.5,251.0,210.5,258.5,203.0" stroke="black" stroke-width="2" fill="none" />
<polyline points="261.0,210.0,252.5,218.0,245.0,225.5,237.5,233.5,230.0,241.0,222.0,249.0,214.0,257.5" stroke="black" stroke-width="2" fill="none" />
<polyline points="211.5,257.0,219.5,257.0" stroke="black" stroke-width="2" fill="none" />
<polyline points="227.0,258.5,235.0,250.5,243.0,243.0,251.0,236.0,259.5,228.5" stroke="black" stroke-width="2" fill="none" />
<polyline points="259.0,235.5,250.5,243.5,242.0,251.5,234.5,259.5" stroke="black" stroke-width="2" fill="none" />
<polyline points="234.5,256.0,242.5,255.5,250.5,255.5,258.5,255.5" stroke="black" stroke-width="2" fill="none" />
<polyline points="258.5,251.5,250.5,259.0" stroke="black" stroke-width="2" fill="none" />
<polyline points="242.5,259.5,249.5,252.0,257.5,244.0" stroke="black" stroke-width="2" fill="none" />
<polyline points="257.5,248.5,249.5,249.0" stroke="black" stroke-width="2" fill="none" />
<polyline points="251.0,239.0,259.0,238.5" stroke="black" stroke-width="2" fill="none" />
<polyline points="260.5,220.0,252.5,227.0,244.0,234.5,236.0,242.0,228.0,250.5,220.5,258.0" stroke="black" stroke-width="2" fill="none" />
<polyline points="227.5,250.0,235.0,249.0,243.0,248.0" stroke="black" stroke-width="2" fill="none" />
<polyline points="229.5,233.5,237.0,233.0,244.0,232.5,251.5,232.5,259.5,232.0" stroke="black" stroke-width="2" fill="none" />
<polyline points="258.5,224.0,251.0,224.5,243.0,225.5,235.5,226.0,227.5,227.0" stroke="black" stroke-width="2" fill="none" />
<polyline points="212.0,233.0,204.5,234.0" stroke="black" stroke-width="2" fill="none" />
<polyline points="203.0,226.0,211.5,225.5" stroke="black" stroke-width="2" fill="none" />
<polyline points="193.0,217.0,201.0,216.5,209.5,216.0,218.0,215.5,226.5,214.5,234.5,213.5,242.0,213.5,249.5,213.5,257.5,213.5" stroke="black" stroke-width="2" fill="none" />
<polyline points="258.5,195.0,250.5,202.5,243.0,210.0,235.0,217.0,227.5,224.0,220.0,231.5,212.5,238.5,205.0,245.5,197.0,253.0" stroke="black" stroke-width="2" fill="none" />
<polyline points="187.5,249.5,195.5,249.0,203.5,249.0,211.5,248.5,219.0,247.5" stroke="black" stroke-width="2" fill="none" />
<polyline points="194.5,243.0,203.0,242.0,211.0,241.5,219.0,241.0,227.5,240.5,236.0,240.0,244.0,239.0" stroke="black" stroke-width="2" fill="none" />
<polyline points="242.5,191.5,250.5,191.5,258.5,191.0" stroke="black" stroke-width="2" fill="none" />
<polyline points="260.0,187.5,252.0,195.0,243.5,202.5,235.0,209.5,227.0,217.0,218.5,224.5,211.0,232.0,203.0,239.0,194.5,246.5,186.5,254.0" stroke="black" stroke-width="2" fill="none" />
<polyline points="180.5,241.5,172.5,242.0,164.0,242.0" stroke="black" stroke-width="2" fill="none" />
<polyline points="155.5,244.0,163.0,236.5,170.5,229.0,179.0,222.0,186.5,214.5,195.0,207.0,203.0,199.0,211.0,192.0,218.5,184.5,226.5,177.5,235.0,170.0,243.0,163.0,250.5,156.0,258.5,148.5" stroke="black" stroke-width="2" fill="none" />
<polyline points="260.0,154.5,251.5,162.0,243.0,170.5,235.0,178.0,227.0,185.0,218.5,192.0,210.5,200.0,203.5,207.0,195.5,214.5,187.0,221.5,178.5,229.0,171.0,236.5,162.5,244.0,155.0,252.5" stroke="black" stroke-width="2" fill="none" />
<polyline points="153.5,248.5,161.5,251.5" stroke="black" stroke-width="2" fill="none" />
<polyline points="162.5,258.5,154.0,259.0" stroke="black" stroke-width="2" fill="none" />
<polyline points="145.5,253.5,153.5,253.0,161.5,252.5,169.5,252.0,178.0,251.5,186.0,251.5,193.5,251.0,201.5,250.5,210.0,250.5,218.5,250.5,226.5,250.5,234.5,250.0,242.5,248.5,250.5,247.5,259.0,246.5" stroke="black" stroke-width="2" fill="none" />
<polyline points="260.5,199.5,253.0,200.0,244.5,200.5,236.5,201.0,227.5,201.5,219.0,202.0,210.0,203.0,202.0,204.0" stroke="black" stroke-width="2" fill="none" />
<polyline points="195.0,209.0,202.5,208.5,210.5,208.0,219.0,207.0,227.0,206.0,234.5,205.5,242.5,205.0,251.0,204.0,259.0,203.0" stroke="black" stroke-width="2" fill="none" />
<polyline points="258.0,166.5,250.0,167.5,243.0,167.5,236.0,167.5,229.0,167.5,221.0,167.5,213.5,168.0" stroke="black" stroke-width="2" fill="none" />
<polyline points="202.0,163.0,210.0,163.0,219.0,162.0,228.0,161.5,236.5,161.5,245.0,161.0,252.5,160.0,260.5,159.5" stroke="black" stroke-width="2" fill="none" />
<polyline points="257.5,140.5,249.5,148.0,241.5,155.5,233.5,163.0,226.5,171.0,218.5,179.0,211.0,186.0,203.0,192.5,195.0,199.5,187.0,206.5,179.5,213.5,171.0,221.5,163.0,229.0,155.0,236.5" stroke="black" stroke-width="2" fill="none" />
<polyline points="152.5,237.0,161.0,237.0,170.0,236.5,178.5,235.5,187.0,235.5,196.0,235.0,204.5,233.5,213.0,232.5,221.5,231.5,229.5,231.0,237.5,231.0,245.5,230.5,253.0,230.0,260.5,229.5" stroke="black" stroke-width="2" fill="none" />
<polyline points="260.5,149.5,252.5,150.0,244.0,151.0,236.0,151.5,228.0,152.0,220.5,152.5,212.5,154.0,204.0,154.5" stroke="black" stroke-width="2" fill="none" />
<polyline points="196.0,155.5,204.0,155.0,212.5,155.0,220.5,154.0,228.5,153.0,235.5,152.5,243.5,152.0,250.5,152.0,258.5,152.0" stroke="black" stroke-width="2" fill="none" />
<polyline points="257.0,134.0,249.0,141.5,241.5,148.5,234.5,155.5,227.0,163.0,219.0,170.5,210.5,178.0,202.5,185.0,194.5,192.0,186.5,199.5,178.5,207.0,171.0,214.5,162.5,222.5" stroke="black" stroke-width="2" fill="none" />
<polyline points="158.0,220.5,166.0,220.0,173.5,220.0,181.0,220.0,187.5,219.5,195.0,219.0,202.5,218.5,210.0,218.0,217.5,217.5,225.0,217.5,232.5,217.0,240.5,216.5,248.5,216.5,257.0,216.0" stroke="black" stroke-width="2" fill="none" />
<polyline points="258.0,171.5,250.0,172.0,242.5,172.0,235.0,172.5,227.5,173.5,219.5,175.0,212.0,176.0,204.5,176.5,196.5,176.5" stroke="black" stroke-width="2" fill="none" />
<polyline points="187.5,171.0,180.0,178.5,172.0,186.0,164.0,193.5" stroke="black" stroke-width="2" fill="none" />
<polyline points="164.0,195.5,172.0,195.5,180.5,195.5,188.5,194.5,196.0,193.5,204.0,193.0,211.5,192.5,219.5,191.5,228.0,191.0,236.5,191.0,244.5,190.5,252.5,190.0,261.0,189.5" stroke="black" stroke-width="2" fill="none" />
<polyline points="260.0,124.5,252.5,132.0,244.5,139.0,236.5,146.5,228.0,153.5,220.0,161.0,212.0,168.5,204.0,176.0,196.0,183.5,188.0,191.5,179.5,199.0,171.5,206.5,163.5,214.0,156.0,221.0" stroke="black" stroke-width="2" fill="none" />
<polyline points="155.5,213.5,163.0,213.5,171.5,212.5,179.5,211.5,187.5,210.5,195.5,210.0,203.5,210.0,211.0,210.0,218.5,210.0,225.5,210.0,233.5,209.5,241.5,209.0,249.5,208.5,257.5,207.5" stroke="black" stroke-width="2" fill="none" />
<polyline points="260.5,142.5,253.0,143.0,245.5,143.5,237.5,143.5,229.5,144.0,221.0,145.0,213.0,145.5" stroke="black" stroke-width="2" fill="none" />
<polyline points="212.5,139.5,220.5,139.5,228.5,139.0,236.5,138.0,243.5,137.5,251.0,137.0,258.5,136.5" stroke="black" stroke-width="2" fill="none" />
<polyline points="262.5,113.0,254.5,120.5,245.5,128.5,237.0,136.0,228.5,143.5,220.0,151.5,212.0,159.0,204.5,166.5,196.5,174.0,188.0,181.5,179.5,189.0,172.0,196.5,164.0,204.0" stroke="black" stroke-width="2" fill="none" />
<polyline points="163.5,198.5,171.0,191.0,178.5,184.0,187.0,176.0,195.0,168.0,203.0,160.0,211.5,152.0,220.5,144.0,228.5,136.0,237.0,129.0,245.5,121.5,254.0,113.5,262.5,106.5" stroke="black" stroke-width="2" fill="none" />
<polyline points="261.5,100.0,253.5,107.5,245.5,115.0,237.5,122.5,229.0,130.0,220.5,137.5,211.5,145.5,203.0,153.0,194.5,160.5" stroke="black" stroke-width="2" fill="none" />
<polyline points="202.0,159.5,189.0,157.0,194.5,155.5,197.0,147.5,194.0,147.5,186.0,145.5" stroke="black" stroke-width="2" fill="none" />
<polyline points="183.5,148.0,191.5,149.0,191.5,151.0,195.0,157.0,203.0,159.0" stroke="black" stroke-width="2" fill="none" />
<polyline points="197.5,148.0,205.5,147.5,213.0,147.0,220.5,146.5,227.5,146.0,235.5,145.5,242.5,145.0,250.0,144.5,258.0,144.0" stroke="black" stroke-width="2" fill="none" />
<polyline points="259.0,128.5,251.0,128.5,242.0,128.5,234.0,128.5,225.5,128.5,217.0,129.0" stroke="black" stroke-width="2" fill="none" />
<polyline points="212.5,126.5,220.5,126.0,228.0,125.5,236.0,125.0,243.5,123.5,251.5,122.5,259.0,122.0" stroke="black" stroke-width="2" fill="none" />
<polyline points="262.5,91.0,254.0,98.5,246.0,106.0,237.5,113.5,228.5,121.5,220.5,129.5,212.0,136.5,203.5,143.5" stroke="black" stroke-width="2" fill="none" />
<polyline points="203.5,140.5,211.5,140.0,219.5,140.0,228.0,140.0,236.5,139.0,245.0,138.5,252.5,138.0,261.0,137.5" stroke="black" stroke-width="2" fill="none" />
<polyline points="258.5,118.5,251.0,119.5,244.0,120.5,236.5,121.0,228.5,121.5,221.0,122.0,213.0,122.0" stroke="black" stroke-width="2" fill="none" />
<polyline points="211.5,127.0,220.0,120.0,227.5,113.0,236.0,105.5,245.0,98.5,254.0,91.0,262.0,83.0" stroke="black" stroke-width="2" fill="none" />
<polyline points="259.0,74.5,251.0,82.5,243.0,90.0,235.0,98.0,227.0,105.5,218.0,112.0,210.5,119.5" stroke="black" stroke-width="2" fill="none" />
<polyline points="212.0,114.0,220.0,113.5,227.5,113.0,235.5,112.5,243.0,111.5,251.0,111.0,259.0,110.5" stroke="black" stroke-width="2" fill="none" />
<polyline points="259.0,66.5,251.0,74.0,242.5,82.0,234.5,90.0,226.5,97.0,218.5,104.5,211.0,111.5" stroke="black" stroke-width="2" fill="none" />
<polyline points="211.0,104.5,219.0,97.0,227.5,90.0,235.0,82.5,243.0,75.0,251.0,67.5,259.0,59.5" stroke="black" stroke-width="2" fill="none" />
<polyline points="260.0,52.0,251.5,59.5,243.5,67.0,235.5,74.0,227.5,81.5,219.0,89.0,211.0,95.5" stroke="black" stroke-width="2" fill="none" />
<polyline points="210.5,96.0,219.0,95.5,227.5,94.5,236.0,94.0,244.0,94.0,252.5,93.5,261.0,93.0" stroke="black" stroke-width="2" fill="none" />
<polyline points="261.0,44.0,253.0,51.5,245.0,59.0,236.5,66.0,228.0,72.5,220.0,80.0,211.5,87.0" stroke="black" stroke-width="2" fill="none" />
<polyline points="210.0,88.0,218.5,87.5,226.5,87.0,234.5,87.0,243.0,86.5,252.0,87.0,260.0,87.0" stroke="black" stroke-width="2" fill="none" />
<polyline points="259.0,101.5,251.0,102.0,243.0,103.0,234.5,103.5,226.5,103.5,219.0,103.5,211.5,103.5" stroke="black" stroke-width="2" fill="none" />
<polyline points="204.0,102.5,212.5,102.0,220.0,101.5,227.5,101.0,235.5,100.5,243.5,99.5,251.0,99.0,259.0,98.5" stroke="black" stroke-width="2" fill="none" />
<polyline points="260.5,78.5,252.0,78.5,244.0,79.0,235.5,79.5,227.5,80.0,220.0,80.0,211.5,80.0" stroke="black" stroke-width="2" fill="none" />
<polyline points="203.5,86.5,212.0,79.0,220.5,71.5,228.5,64.5,237.0,56.5,245.0,49.0,253.5,41.5,261.5,33.5" stroke="black" stroke-width="2" fill="none" />
<polyline points="260.5,26.0,252.5,33.5,244.5,40.5,236.5,48.0,228.0,55.5,220.0,63.0,211.5,71.0,203.0,79.0" stroke="black" stroke-width="2" fill="none" />
<polyline points="204.0,71.5,211.0,64.5,219.0,56.5,227.0,49.0,235.0,41.0,243.0,33.5,250.5,25.5,258.0,18.0" stroke="black" stroke-width="2" fill="none" />
<polyline points="259.0,11.0,251.0,18.5,243.0,25.0,234.5,32.5,226.5,40.5,218.0,48.0,210.5,56.0,202.0,63.5,194.0,71.0" stroke="black" stroke-width="2" fill="none" />
<polyline points="193.5,74.5,201.5,74.0,209.5,73.5,217.5,72.5,225.5,72.0,233.5,71.0,241.5,71.0,250.5,70.5,259.0,70.0" stroke="black" stroke-width="2" fill="none" />
<polyline points="257.5,23.5,250.0,23.5" stroke="black" stroke-width="2" fill="none" />
<polyline points="245.5,2.5,237.5,10.0,230.0,17.5,222.0,24.5,213.5,32.5,205.0,40.5,196.5,48.0,187.5,56.0" stroke="black" stroke-width="2" fill="none" />
<polyline points="186.5,59.5,194.5,59.0,202.5,57.5,210.5,56.5,219.0,55.5,227.5,55.0,236.0,54.0,244.0,53.0,252.5,53.0,261.0,52.5" stroke="black" stroke-width="2" fill="none" />
<polyline points="258.5,2.0,250.5,10.0,243.0,17.5,235.0,25.0,226.5,32.5,218.0,40.5,209.5,48.0,202.0,55.5,194.5,62.5" stroke="black" stroke-width="2" fill="none" />
<polyline points="187.0,64.0,195.0,56.5,203.5,49.0,211.5,41.0,220.0,33.5,228.5,25.0,236.5,17.0,244.5,9.0,252.5,2.0" stroke="black" stroke-width="2" fill="none" />
<polyline points="237.0,2.0,229.0,9.5,221.5,17.0,213.0,24.5,205.0,32.5,197.0,40.5,188.0,48.0,179.5,56.0" stroke="black" stroke-width="2" fill="none" />
<polyline points="175.0,56.0,172.0,58.0,171.0,63.5,175.0,71.5,168.0,77.0,172.0,82.0,162.0,90.0,158.5,98.0,155.5,99.0,155.5,107.0,161.0,109.5,157.0,117.5,160.0,118.5,163.5,126.5,162.5,131.0,168.5,123.0,172.0,124.5,180.0,121.5,184.0,125.5,189.5,121.5,194.5,125.0,200.5,123.5,204.5,133.0,205.5,135.0,203.5,142.5" stroke="black" stroke-width="2" fill="none" />
<polyline points="204.5,131.5,212.5,131.0,221.0,130.5,229.0,130.0,237.0,129.5,245.0,129.5,253.0,128.5,261.0,128.5" stroke="black" stroke-width="2" fill="none" />
<polyline points="260.0,113.0,251.5,114.0,243.0,114.5,235.0,114.5,226.5,115.0,218.5,115.0,210.5,115.5,202.5,116.5" stroke="black" stroke-width="2" fill="none" />
<polyline points="202.5,111.0,210.5,110.5,218.5,110.0,226.0,109.5,233.5,109.0,241.0,108.5,249.0,108.0,257.5,107.5" stroke="black" stroke-width="2" fill="none" />
<polyline points="262.0,90.5,254.0,91.5,246.0,91.5,237.5,92.5,229.5,93.5,221.0,94.5,212.5,95.5,204.0,96.5" stroke="black" stroke-width="2" fill="none" />
<polyline points="200.5,93.5,208.5,96.5,211.0,105.0" stroke="black" stroke-width="2" fill="none" />
<polyline points="210.5,93.5,202.5,90.5,198.5,89.5,192.5,93.5,175.0,96.5,169.0,92.5,161.5,99.0,157.5,96.0,149.5,96.0,143.5,106.0,142.0,106.5,138.5,104.5,143.5,97.0,159.5,89.0,154.0,82.0,144.5,79.0,136.0,83.5,128.0,80.0" stroke="black" stroke-width="2" fill="none" />
<polyline points="133.5,79.0,141.0,78.0" stroke="black" stroke-width="2" fill="none" />
<polyline points="142.5,75.0,145.5,66.5,133.0,73.5" stroke="black" stroke-width="2" fill="none" />
<polyline points="123.5,71.0,131.5,70.5,139.0,69.0,147.0,68.5" stroke="black" stroke-width="2" fill="none" />
<polyline points="151.0,64.0,149.5,72.0,149.5,77.0,140.0,78.0,134.0,79.0,140.0,68.5,146.5,73.5,154.5,71.5,155.5,64.5,161.5,66.0,169.5,63.0,177.5,66.0,178.5,72.0,186.5,78.0" stroke="black" stroke-width="2" fill="none" />
<polyline points="192.5,78.0,200.5,77.5,208.5,77.5,217.0,77.0,226.0,76.5,234.5,76.0,242.5,75.0,251.5,74.5,260.5,73.5" stroke="black" stroke-width="2" fill="none" />
<polyline points="259.5,81.0,251.5,81.0,243.0,81.5,235.0,82.0,226.5,82.5,218.5,83.0,210.5,83.5,202.5,84.5,194.5,85.0" stroke="black" stroke-width="2" fill="none" />
<polyline points="186.5,70.5,195.0,69.5,203.0,69.0,210.5,68.0,218.5,67.0,226.5,66.5,234.5,66.0,242.5,65.5,251.0,65.5,259.5,64.5" stroke="black" stroke-width="2" fill="none" />
<polyline points="228.0,3.5,219.5,10.5,211.5,18.0,203.5,25.5,195.5,34.0,187.5,41.5,179.5,49.5" stroke="black" stroke-width="2" fill="none" />
<polyline points="180.5,50.0,188.0,49.5,196.0,49.0,204.0,48.5,211.5,48.0,219.0,47.5,227.0,47.0,234.5,46.5,242.0,45.0,250.0,44.0,258.0,43.0" stroke="black" stroke-width="2" fill="none" />
<polyline points="220.5,3.5,212.5,11.0,205.0,18.0,197.0,25.0,189.0,32.5,181.0,40.0,173.0,47.5" stroke="black" stroke-width="2" fill="none" />
<polyline points="171.5,41.5,179.5,41.5,187.5,41.5,195.0,41.5,202.5,41.5,210.0,41.0,218.0,40.5,226.0,40.0,234.0,39.5,242.0,38.5,250.0,38.0,258.0,38.0" stroke="black" stroke-width="2" fill="none" />
<polyline points="212.0,3.5,203.5,10.5,195.5,17.5,188.0,24.5,181.5,32.0,173.5,39.5,165.5,47.5" stroke="black" stroke-width="2" fill="none" />
<polyline points="169.5,54.0,177.5,53.5,185.5,53.5,193.5,53.0,201.5,53.0,209.0,53.0,217.0,52.5,225.5,52.5,233.5,52.0,242.0,51.5,250.0,51.0,258.0,50.0" stroke="black" stroke-width="2" fill="none" />
<polyline points="205.0,3.5,196.5,11.0,187.5,18.5,179.5,25.5,171.5,32.5,163.0,39.5,155.5,47.5" stroke="black" stroke-width="2" fill="none" />
<polyline points="155.5,40.5,163.5,33.0,171.0,26.0,179.5,19.0,188.0,12.0,196.0,5.0" stroke="black" stroke-width="2" fill="none" />
<polyline points="188.0,2.0,180.5,10.0,172.5,17.0,164.5,24.5,157.0,32.0,149.5,39.5" stroke="black" stroke-width="2" fill="none" />
<polyline points="153.5,33.5,162.0,33.0,170.0,32.5,178.0,32.5,186.0,32.0,193.5,31.5,202.0,31.5,210.5,31.5,218.5,31.0,226.5,30.0,234.5,29.5,243.0,28.5,251.0,28.0,258.5,27.0" stroke="black" stroke-width="2" fill="none" />
<polyline points="179.5,2.5,172.0,10.0,164.0,17.5,156.0,25.0,148.0,33.0,140.5,40.5" stroke="black" stroke-width="2" fill="none" />
<polyline points="136.5,38.5,140.5,46.0,147.5,53.0,149.5,56.0,146.0,60.5,142.0,66.0,143.0,70.0,136.0,72.0,141.0,80.0,138.5,88.0,134.0,95.5,136.5,97.5,129.5,101.0,138.0,106.0,139.5,115.0,132.5,118.0,136.5,119.0,142.5,121.0,141.5,129.5,135.0,137.5,136.0,145.5,133.0,153.5,125.0,161.5,115.5,166.5,119.0,170.0,122.0,172.5,129.5,170.0" stroke="black" stroke-width="2" fill="none" />
<polyline points="126.5,157.5,122.5,159.5,114.5,167.0" stroke="black" stroke-width="2" fill="none" />
<polyline points="116.0,186.0,108.0,193.5,100.5,201.0" stroke="black" stroke-width="2" fill="none" />
<polyline points="102.5,196.0,110.5,195.5,118.5,195.0,126.5,195.0" stroke="black" stroke-width="2" fill="none" />
<polyline points="124.5,193.5,116.5,201.5,109.0,209.5" stroke="black" stroke-width="2" fill="none" />
<polyline points="101.5,208.5,109.0,201.0,117.0,193.5,124.5,186.0" stroke="black" stroke-width="2" fill="none" />
<polyline points="124.0,187.5,116.0,188.5,108.5,189.0,100.0,189.5" stroke="black" stroke-width="2" fill="none" />
<polyline points="106.5,186.0,97.5,194.0,96.5,202.5,93.5,210.5,86.0,218.5,79.5,218.0,83.0,219.0,91.0,212.5,98.5,214.5,106.5,216.0,115.0,212.0,123.0,201.5" stroke="black" stroke-width="2" fill="none" />
<polyline points="123.5,202.5,116.0,203.0" stroke="black" stroke-width="2" fill="none" />
<polyline points="117.0,214.0,108.5,214.5,100.0,215.0" stroke="black" stroke-width="2" fill="none" />
<polyline points="100.0,209.5,108.5,209.0,117.0,209.0" stroke="black" stroke-width="2" fill="none" />
<polyline points="121.5,204.0,113.5,204.0,106.0,204.5,98.0,204.5,90.0,205.0" stroke="black" stroke-width="2" fill="none" />
<polyline points="94.5,197.0,102.5,187.0,110.5,179.0,118.5,184.0,117.5,183.0,121.5,190.5,125.5,191.0,122.5,199.0,117.5,207.0,107.5,215.0" stroke="black" stroke-width="2" fill="none" />
<polyline points="110.5,188.0,117.5,186.5,119.5,194.5,122.5,187.5" stroke="black" stroke-width="2" fill="none" />
<polyline points="154.0,207.0,162.0,206.5,170.0,206.0,178.0,205.0,186.5,203.5,194.0,203.5,202.5,203.0,211.0,202.0,219.0,201.5,227.5,201.0,235.5,200.5,243.5,200.0,251.5,200.0,259.5,199.5" stroke="black" stroke-width="2" fill="none" />
<polyline points="187.0,201.0,179.0,201.5" stroke="black" stroke-width="2" fill="none" />
<polyline points="170.5,193.5,178.5,192.5,186.5,192.0,194.0,192.0,202.0,191.5,210.0,191.5,218.5,191.0,226.5,190.5,234.5,190.0" stroke="black" stroke-width="2" fill="none" />
<polyline points="261.0,181.0,252.5,181.5,244.0,182.5,236.0,183.0,227.5,183.5,219.5,184.0,211.5,183.5,203.5,183.5,196.0,183.5,188.5,183.5,181.0,183.5" stroke="black" stroke-width="2" fill="none" />
<polyline points="180.5,173.0,188.0,172.5,196.0,172.0,203.5,171.5,211.5,171.5,219.0,171.0,227.0,170.5,235.0,170.0,243.0,170.0,251.5,169.5,260.0,169.0" stroke="black" stroke-width="2" fill="none" />
<polyline points="258.5,182.0,250.5,182.5,242.5,183.5,234.5,184.0,226.5,185.0,219.0,186.0,211.5,187.0,204.0,188.0,196.0,188.0,188.0,188.0,179.5,188.5,172.0,189.0,164.0,190.0" stroke="black" stroke-width="2" fill="none" />
<polyline points="160.5,192.5,168.0,178.5,176.0,179.5" stroke="black" stroke-width="2" fill="none" />
<polyline points="168.5,179.0,164.0,187.0,161.0,194.5,158.5,202.5,156.5,210.5,154.5,218.5,153.5,226.5,154.0,234.5,152.0,243.0,150.5,251.5" stroke="black" stroke-width="2" fill="none" />
<polyline points="153.0,246.0,161.5,245.5,170.0,245.0,178.0,244.5,186.0,243.0,194.0,242.5,203.0,241.5,211.5,241.0,219.5,240.0,228.0,239.0,236.0,238.5,244.0,238.0,252.5,238.0,260.5,237.0" stroke="black" stroke-width="2" fill="none" />
<polyline points="186.5,224.0,178.0,224.0,170.0,224.5" stroke="black" stroke-width="2" fill="none" />
<polyline points="171.5,216.0,179.5,215.5,187.5,214.5" stroke="black" stroke-width="2" fill="none" />
<polyline points="167.5,194.5,162.5,202.5,159.5,210.0,168.0,194.0" stroke="black" stroke-width="2" fill="none" />
<polyline points="164.0,183.0,171.5,183.0,180.0,182.5,188.0,181.5,195.5,180.5,203.5,179.5,211.0,179.0,218.5,179.0,226.5,179.0,234.5,178.5,242.5,178.0,250.5,177.5,258.5,177.0" stroke="black" stroke-width="2" fill="none" />
<polyline points="258.5,222.0,250.5,222.5,242.5,223.5,234.5,224.0,226.5,224.5,218.5,225.0,211.0,225.5,203.5,226.0,195.5,227.0,187.0,227.0,179.5,228.0,171.0,228.5,162.5,228.5,154.0,229.0" stroke="black" stroke-width="2" fill="none" />
<polyline points="155.5,232.5,164.0,229.5,164.5,234.0" stroke="black" stroke-width="2" fill="none" />
<polyline points="186.5,173.0,188.0,173.0,188.0,164.5" stroke="black" stroke-width="2" fill="none" />
<polyline points="172.0,150.5,164.0,148.0,172.5,142.0,163.5,142.0,166.0,142.0" stroke="black" stroke-width="2" fill="none" />
<polyline points="163.5,144.5,172.0,147.5" stroke="black" stroke-width="2" fill="none" />
<polyline points="177.0,144.5,169.0,142.0,161.0,146.5" stroke="black" stroke-width="2" fill="none" />
<polyline points="149.0,136.0,149.0,134.0,141.0,131.0" stroke="black" stroke-width="2" fill="none" />
<polyline points="144.0,124.5,152.0,121.0,149.0,122.0,152.5,123.0,154.5,126.0,149.5,123.5,154.0,125.0,163.5,131.0,172.5,129.0,175.5,124.5" stroke="black" stroke-width="2" fill="none" />
<polyline points="156.5,116.5,149.0,117.0,141.0,117.0,132.5,117.5,124.5,117.5,116.0,117.5,107.5,118.0" stroke="black" stroke-width="2" fill="none" />
<polyline points="106.5,115.5,108.0,123.5" stroke="black" stroke-width="2" fill="none" />
<polyline points="106.5,124.5,115.0,124.0,123.0,124.0,131.0,124.0,139.0,123.5,147.0,123.5" stroke="black" stroke-width="2" fill="none" />
<polyline points="138.5,110.5,146.5,110.0,154.0,109.5" stroke="black" stroke-width="2" fill="none" />
<polyline points="155.0,101.5,147.5,102.0,139.5,102.5" stroke="black" stroke-width="2" fill="none" />
<polyline points="146.5,99.5,148.5,101.5,142.5,103.5,145.0,115.0,152.5,114.0,161.0,109.5,169.0,106.0,177.5,112.0,183.5,105.5,184.5,110.5,177.5,112.5,178.5,124.5,180.0,127.0,188.0,128.0,181.5,136.0,180.0,132.0,186.0,129.5,199.5,131.0,207.5,129.0" stroke="black" stroke-width="2" fill="none" />
<polyline points="211.5,133.5,208.5,126.5,203.5,120.0,208.0,107.0,205.0,102.5,199.0,102.5,193.5,96.5,184.0,90.5,176.5,93.5,174.5,87.5,167.0,89.5,159.0,92.5,156.0,90.0,148.0,92.5,139.5,99.5,135.5,99.5,142.0,91.5,150.0,86.5,161.5,81.5,161.5,73.0,160.5,72.0,155.5,70.5,162.0,62.0,168.0,58.0,154.0,51.5,148.0,43.0,144.0,45.0" stroke="black" stroke-width="2" fill="none" />
<polyline points="131.5,39.5,139.0,32.5,147.0,26.0,154.5,18.5,162.5,11.0,171.0,3.5" stroke="black" stroke-width="2" fill="none" />
<polyline points="163.0,4.5,155.0,11.5,147.0,19.0,139.0,26.5,131.5,33.5,124.0,40.5" stroke="black" stroke-width="2" fill="none" />
<polyline points="124.5,39.5,132.5,49.5,136.0,53.5,147.0,52.5,152.5,57.0,157.5,60.0" stroke="black" stroke-width="2" fill="none" />
<polyline points="168.0,65.5,164.5,73.5,163.5,78.0,167.5,70.5,173.5,77.5" stroke="black" stroke-width="2" fill="none" />
<polyline points="178.5,71.0,179.0,79.0,182.0,87.0,180.5,94.0,176.5,102.5,170.5,108.0,168.5,112.0,177.5,108.5,179.0,98.5,187.0,95.0,188.0,103.0,190.0,113.0" stroke="black" stroke-width="2" fill="none" />
<polyline points="188.5,106.5,189.5,114.5,190.5,118.5,189.5,122.5,196.0,132.5,199.0,140.5,200.0,148.5" stroke="black" stroke-width="2" fill="none" />
<polyline points="148.0,139.0,137.0,132.5,135.0,124.5,126.0,121.0" stroke="black" stroke-width="2" fill="none" />
<polyline points="130.5,108.5,122.0,109.0,114.0,109.5,105.5,110.0,97.0,110.5" stroke="black" stroke-width="2" fill="none" />
<polyline points="100.0,105.5,108.0,105.0" stroke="black" stroke-width="2" fill="none" />
<polyline points="98.5,101.0,106.5,101.0,114.5,100.5,123.5,100.0,132.0,99.5" stroke="black" stroke-width="2" fill="none" />
<polyline points="140.5,87.5,148.5,86.5" stroke="black" stroke-width="2" fill="none" />
<polyline points="139.5,93.0,132.0,94.5,125.0,95.0,117.5,95.5" stroke="black" stroke-width="2" fill="none" />
<polyline points="116.0,86.0,124.0,85.5" stroke="black" stroke-width="2" fill="none" />
<polyline points="114.5,83.5,122.5,79.5,125.0,73.0,125.5,79.0,129.5,76.0,139.0,65.5" stroke="black" stroke-width="2" fill="none" />
<polyline points="117.0,75.0,121.0,69.5,119.5,78.5,124.0,80.0,115.0,85.5,113.0,91.5,114.0,99.5,119.0,100.0,116.0,104.5,123.5,98.0,126.5,102.0,132.0,101.5" stroke="black" stroke-width="2" fill="none" />
<polyline points="116.5,78.0,108.5,78.5" stroke="black" stroke-width="2" fill="none" />
<polyline points="108.0,83.0,100.0,84.0" stroke="black" stroke-width="2" fill="none" />
<polyline points="95.5,88.0,91.5,89.5,97.0,92.5,96.0,101.5,103.0,105.5,105.0,113.5,112.5,116.5,113.5,124.5,106.0,126.5,104.0,134.0,97.0,142.5,97.0,137.0,99.0,125.5,85.5,135.5,87.0,143.5,89.5,142.5,98.0,141.5,110.5,137.0" stroke="black" stroke-width="2" fill="none" />
<polyline points="98.0,132.5,90.0,133.5" stroke="black" stroke-width="2" fill="none" />
<polyline points="85.0,134.0,93.0,133.5,101.0,132.5,109.0,131.5,116.0,137.0,114.0,145.0,128.0,133.0,137.5,141.5,140.5,149.5" stroke="black" stroke-width="2" fill="none" />
<polyline points="100.0,126.5,92.0,129.5,84.5,129.5,90.5,126.5" stroke="black" stroke-width="2" fill="none" />
<polyline points="93.0,126.5,85.0,127.5" stroke="black" stroke-width="2" fill="none" />
<polyline points="76.5,135.0,68.5,135.0,60.5,136.0,53.0,136.5,45.5,137.5,37.0,138.5,29.0,139.0,21.0,139.5,13.5,140.0,6.0,141.0" stroke="black" stroke-width="2" fill="none" />
<polyline points="4.5,143.5,12.5,135.5,20.5,127.5,28.5,120.0,36.0,112.5,43.5,105.0,51.0,98.0,58.5,90.5,65.5,83.5,73.5,76.0" stroke="black" stroke-width="2" fill="none" />
<polyline points="75.0,68.0,66.5,75.0,58.5,82.5,50.5,90.0,43.0,97.5,35.5,105.0,28.0,112.0,20.5,119.5,13.0,126.5,5.0,133.5" stroke="black" stroke-width="2" fill="none" />
<polyline points="3.5,132.0,11.5,131.5,20.0,130.5,28.5,130.5,37.0,130.5,45.5,130.0,53.5,129.5,61.5,128.5,69.5,127.5" stroke="black" stroke-width="2" fill="none" />
<polyline points="73.5,127.0,85.5,122.0,76.5,128.5,70.0,130.5,68.5,136.0,69.5,138.0,63.5,145.5,68.5,138.5,70.5,149.0,73.5,154.5" stroke="black" stroke-width="2" fill="none" />
<polyline points="66.0,154.5,58.0,162.5,50.5,170.0,43.0,178.0,34.5,185.5,26.0,193.0,18.5,200.5,10.5,208.0,2.5,215.0" stroke="black" stroke-width="2" fill="none" />
<polyline points="3.5,215.0,11.5,215.0,19.0,215.0" stroke="black" stroke-width="2" fill="none" />
<polyline points="21.0,213.5,21.0,208.5,29.0,199.5,36.5,193.5,44.5,187.0,52.5,180.0,60.0,169.0,67.5,160.0,71.5,163.0,64.5,171.0,58.5,179.0,62.5,174.0,70.0,164.0" stroke="black" stroke-width="2" fill="none" />
<polyline points="57.5,170.5,49.0,178.0,41.0,185.5,34.0,192.5,27.0,199.5" stroke="black" stroke-width="2" fill="none" />
<polyline points="26.0,204.0,18.0,204.5,10.0,205.0,2.5,205.5" stroke="black" stroke-width="2" fill="none" />
<polyline points="3.5,206.5,11.0,199.0,18.5,192.0,27.0,185.0,34.5,177.5,42.0,170.5,50.0,163.5,58.0,156.0,66.0,148.5" stroke="black" stroke-width="2" fill="none" />
<polyline points="67.0,150.5,59.5,151.0,51.5,151.0,44.0,151.0,36.0,151.5,28.0,152.5,19.5,153.5,11.5,154.0,3.0,154.0" stroke="black" stroke-width="2" fill="none" />
<polyline points="4.0,151.0,12.0,143.0,19.0,135.5,26.5,128.5,35.0,121.0,43.0,114.0,50.5,107.0,58.5,99.5,66.5,92.0" stroke="black" stroke-width="2" fill="none" />
<polyline points="67.0,98.5,58.5,99.0,50.0,99.5,42.0,99.5,34.0,100.5,26.0,101.5,18.0,102.0,10.5,103.0,2.5,103.5" stroke="black" stroke-width="2" fill="none" />
<polyline points="3.0,105.5,11.0,105.5,19.5,104.5,28.0,104.0,36.0,103.5,44.0,103.0,52.5,103.0,60.0,103.0" stroke="black" stroke-width="2" fill="none" />
<polyline points="65.0,100.0,57.0,107.5,49.5,115.0,41.5,122.5,34.0,129.5,26.5,136.5,19.5,144.0,12.0,151.0,4.5,158.5" stroke="black" stroke-width="2" fill="none" />
<polyline points="0.5,159.0,9.0,158.5,17.0,158.0,25.0,157.5,33.0,156.5,40.5,156.0,49.0,155.5,57.0,155.5,65.0,155.0,73.0,154.0" stroke="black" stroke-width="2" fill="none" />
<polyline points="68.5,163.0,61.0,163.0,53.0,163.0,45.0,163.0,36.5,164.0,28.5,165.0,20.0,166.0,11.5,167.0,3.5,167.0" stroke="black" stroke-width="2" fill="none" />
<polyline points="4.0,168.5,12.0,161.0,20.0,153.0,28.0,145.0,36.5,137.0,44.0,129.0,52.0,121.5,60.0,113.5" stroke="black" stroke-width="2" fill="none" />
<polyline points="60.0,111.0,52.0,111.5,44.0,112.0,35.5,112.5,27.0,112.5,19.0,113.5,11.5,114.5,3.0,115.0" stroke="black" stroke-width="2" fill="none" />
<polyline points="4.5,116.5,13.0,109.0,21.5,101.5,29.5,94.0,37.5,86.5,45.5,79.0,53.5,71.5,61.5,63.5,69.5,55.5,77.5,48.0,85.5,41.0,93.5,33.0,102.0,24.5,110.0,16.5,117.0,8.5,125.0,1.0" stroke="black" stroke-width="2" fill="none" />
<polyline points="118.5,0.5,109.5,8.5,101.0,16.5,93.0,24.5,85.0,32.5,77.0,41.0,69.0,48.0,60.5,55.0,53.0,62.5,46.0,70.5,38.0,78.0,30.0,86.0,21.0,93.5,12.0,100.5,3.5,108.0" stroke="black" stroke-width="2" fill="none" />
<polyline points="3.0,107.5,11.5,107.5,20.0,108.0,28.5,108.0,36.5,107.5,44.5,107.5,53.0,107.5,61.5,107.0,69.5,107.0" stroke="black" stroke-width="2" fill="none" />
<polyline points="68.0,113.5,60.5,114.5,53.0,115.5,45.0,116.5,37.0,117.0,29.0,117.5,21.0,118.0,12.5,118.0,4.0,118.5" stroke="black" stroke-width="2" fill="none" />
<polyline points="4.0,123.5,12.0,123.0,20.5,121.5,28.5,121.0,36.5,120.5,44.5,119.5,52.5,119.0,60.5,118.5" stroke="black" stroke-width="2" fill="none" />
<polyline points="57.0,116.0,60.0,109.5,68.0,100.5,82.0,93.5,85.0,92.0,92.5,87.5,94.5,73.5" stroke="black" stroke-width="2" fill="none" />
<polyline points="84.5,65.5,76.5,66.0,68.0,66.0,59.5,66.5,51.5,67.5,44.0,68.5,35.5,69.5,28.0,70.0,20.0,70.5,12.0,70.5,4.5,71.0" stroke="black" stroke-width="2" fill="none" />
<polyline points="4.0,70.0,12.0,63.0,19.5,56.0,27.5,49.0,35.0,41.5,43.0,34.0,50.5,27.0,58.0,19.5,65.5,12.0,73.0,4.5" stroke="black" stroke-width="2" fill="none" />
<polyline points="66.0,5.0,58.0,12.5,49.5,19.5,41.5,26.5,33.5,33.5,26.0,41.0,18.0,48.5,10.5,56.0,3.5,63.5" stroke="black" stroke-width="2" fill="none" />
<polyline points="3.5,62.5,11.5,62.0,20.0,62.0,27.5,61.5,35.0,61.0,42.5,61.0,50.5,61.0,58.5,60.5,67.0,59.5,75.5,59.0,83.5,58.0,91.0,57.0" stroke="black" stroke-width="2" fill="none" />
<polyline points="92.0,60.0,84.0,58.5" stroke="black" stroke-width="2" fill="none" />
<polyline points="81.5,58.0,89.0,50.0,97.0,42.0,105.5,34.5,113.5,26.5,122.0,18.5,130.5,11.0,139.0,3.5" stroke="black" stroke-width="2" fill="none" />
<polyline points="131.5,2.5,123.5,10.0,115.0,17.5,107.0,25.0,99.5,32.5,91.5,40.5,84.0,48.0,76.0,55.5,68.0,63.5,60.0,71.5,52.0,79.5,44.5,87.0,36.5,94.0,28.5,101.5,20.0,108.5,12.0,116.0,4.0,123.5" stroke="black" stroke-width="2" fill="none" />
<polyline points="2.5,128.5,10.5,128.0,18.5,127.0,27.0,126.0,36.0,125.0,44.5,124.5,52.5,123.0,60.5,122.5,68.0,121.5" stroke="black" stroke-width="2" fill="none" />
<polyline points="66.0,122.5,58.0,129.5,50.0,137.5,42.5,145.0,35.0,152.0,27.0,159.5,19.5,167.5,12.5,175.0,5.0,183.0" stroke="black" stroke-width="2" fill="none" />
<polyline points="4.5,185.0,12.0,184.5,20.0,184.0,28.0,184.0" stroke="black" stroke-width="2" fill="none" />
<polyline points="29.0,176.5,37.0,176.0,44.5,175.0,52.0,174.5" stroke="black" stroke-width="2" fill="none" />
<polyline points="44.5,183.0,36.5,183.5" stroke="black" stroke-width="2" fill="none" />
<polyline points="27.0,201.5,18.0,201.5,10.0,201.5,2.0,201.5" stroke="black" stroke-width="2" fill="none" />
<polyline points="3.0,199.0,11.0,191.5,19.5,185.0,27.0,177.5,35.0,171.0,42.5,163.5,50.5,156.0,59.0,148.5,67.5,141.0" stroke="black" stroke-width="2" fill="none" />
<polyline points="64.0,142.0,73.0,146.5,72.0,154.0,66.5,162.0,59.5,170.0,53.5,178.0,46.5,186.5,35.5,194.5,26.0,203.0,19.0,211.0,16.5,219.5,17.0,227.5,20.5,235.0,21.5,243.0,25.5,251.0" stroke="black" stroke-width="2" fill="none" />
<polyline points="28.5,253.5,20.5,261.0" stroke="black" stroke-width="2" fill="none" />
<polyline points="28.0,258.0,35.5,250.5" stroke="black" stroke-width="2" fill="none" />
<polyline points="28.5,243.5,20.0,251.0,12.0,258.5" stroke="black" stroke-width="2" fill="none" />
<polyline points="5.0,257.0,13.0,250.0,21.5,243.0,29.5,235.5" stroke="black" stroke-width="2" fill="none" />
<polyline points="28.5,226.5,20.5,234.0,12.5,241.5,4.0,249.0" stroke="black" stroke-width="2" fill="none" />
<polyline points="5.0,251.5,13.0,250.5,21.0,249.5" stroke="black" stroke-width="2" fill="none" />
<polyline points="29.5,255.5,21.0,255.5,12.5,256.0,4.0,256.5" stroke="black" stroke-width="2" fill="none" />
<polyline points="4.0,254.5,12.0,254.0,20.5,253.5,28.5,253.5,36.5,253.5,44.0,253.5,52.5,252.5" stroke="black" stroke-width="2" fill="none" />
<polyline points="21.0,226.5,13.0,234.0,4.5,241.0" stroke="black" stroke-width="2" fill="none" />
<polyline points="4.5,243.5,13.0,242.5,21.0,241.5" stroke="black" stroke-width="2" fill="none" />
<polyline points="5.0,238.5,13.0,238.0,21.0,237.5,29.0,237.5,36.5,237.0,44.5,237.0" stroke="black" stroke-width="2" fill="none" />
<polyline points="51.5,242.0,44.0,242.5,36.0,243.0,28.0,243.5,19.5,244.0,11.5,244.5,4.0,244.5" stroke="black" stroke-width="2" fill="none" />
<polyline points="3.0,235.5,11.0,235.0,19.0,234.0" stroke="black" stroke-width="2" fill="none" />
<polyline points="17.0,220.5,9.0,228.0,1.0,234.5" stroke="black" stroke-width="2" fill="none" />
<polyline points="4.0,230.0,12.0,229.5,19.5,230.0,28.0,230.0,36.5,230.0" stroke="black" stroke-width="2" fill="none" />
<polyline points="43.5,242.5,35.5,229.5,27.5,218.5" stroke="black" stroke-width="2" fill="none" />
<polyline points="26.0,218.5,18.0,219.0,9.5,219.5,1.5,220.0" stroke="black" stroke-width="2" fill="none" />
<polyline points="4.0,226.0,11.5,218.0,19.0,210.0" stroke="black" stroke-width="2" fill="none" />
<polyline points="27.0,211.0,19.0,211.0,11.5,211.5,3.0,211.5" stroke="black" stroke-width="2" fill="none" />
<polyline points="1.5,208.5,10.0,208.0,18.5,208.5" stroke="black" stroke-width="2" fill="none" />
<polyline points="27.5,210.5,35.5,203.5,40.0,197.5,32.0,205.0,27.0,213.0,30.0,220.5,36.0,228.5,41.0,236.5,47.5,244.5" stroke="black" stroke-width="2" fill="none" />
<polyline points="10.5,226.0,2.5,226.5" stroke="black" stroke-width="2" fill="none" />
<polyline points="4.5,198.5,12.5,198.0,21.0,197.0,29.0,196.0,37.0,195.5" stroke="black" stroke-width="2" fill="none" />
<polyline points="34.5,191.5,27.5,192.5,19.5,193.5,12.0,195.0,4.5,195.5" stroke="black" stroke-width="2" fill="none" />
<polyline points="3.5,191.0,11.0,190.0,18.5,189.0,26.0,188.0,34.0,188.0,41.5,187.5" stroke="black" stroke-width="2" fill="none" />
<polyline points="51.0,176.5,43.5,176.5,36.0,177.5,28.0,178.5,21.0,179.0,13.5,179.5,5.5,180.5" stroke="black" stroke-width="2" fill="none" />
<polyline points="4.5,177.0,12.5,176.5,20.0,176.0" stroke="black" stroke-width="2" fill="none" />
<polyline points="5.5,173.0,13.5,173.0,21.5,172.0,29.5,171.5,36.5,170.5,44.0,169.5,51.5,169.0,59.0,168.5" stroke="black" stroke-width="2" fill="none" />
<polyline points="59.0,145.5,51.0,145.5" stroke="black" stroke-width="2" fill="none" />
<polyline points="52.0,140.0,60.0,139.0" stroke="black" stroke-width="2" fill="none" />
<polyline points="60.5,135.0,68.5,131.0,70.5,133.0,70.5,134.5" stroke="black" stroke-width="2" fill="none" />
<polyline points="66.0,132.5,58.0,140.0,50.0,147.0,42.0,154.0,34.5,161.5,26.5,168.5,19.0,176.0,11.5,183.0,3.5,190.0" stroke="black" stroke-width="2" fill="none" />
<polyline points="4.0,176.0,11.5,168.0,18.5,160.5,27.0,152.5,35.0,145.0,43.5,137.5,52.0,130.5,60.0,123.0" stroke="black" stroke-width="2" fill="none" />
<polyline points="60.5,129.0,53.0,129.5,45.0,130.0" stroke="black" stroke-width="2" fill="none" />
<polyline points="44.0,142.5,36.5,143.0,29.0,144.0,21.5,144.5,13.5,144.5,5.0,144.5" stroke="black" stroke-width="2" fill="none" />
<polyline points="6.0,150.5,13.5,150.0,21.5,149.5,29.0,148.5,37.0,148.0,44.5,148.0,52.5,147.5,60.5,147.0,68.5,147.0,76.0,147.0" stroke="black" stroke-width="2" fill="none" />
<polyline points="82.0,144.5,79.0,136.5,81.0,136.5,83.0,128.5,83.5,123.5,88.5,122.5,92.5,115.0,82.5,105.5,74.5,113.5" stroke="black" stroke-width="2" fill="none" />
<polyline points="84.5,102.0,92.0,102.0" stroke="black" stroke-width="2" fill="none" />
<polyline points="96.0,101.5,98.0,96.5" stroke="black" stroke-width="2" fill="none" />
<polyline points="100.0,91.5,108.0,91.0" stroke="black" stroke-width="2" fill="none" />
<polyline points="89.5,94.0,81.5,94.5" stroke="black" stroke-width="2" fill="none" />
<polyline points="66.0,89.0,58.0,89.5,49.5,90.0,41.5,90.5,33.0,90.5,25.0,91.0,17.0,91.5,9.5,92.0,1.5,93.0" stroke="black" stroke-width="2" fill="none" />
<polyline points="2.5,93.0,11.0,85.0,19.0,77.5,26.5,70.0,34.0,63.0,42.5,56.0,50.5,49.0,58.5,42.0,66.5,35.0,74.5,27.5,82.0,20.5,90.0,13.0,97.5,5.5" stroke="black" stroke-width="2" fill="none" />
<polyline points="90.0,3.5,82.0,11.5,74.5,18.5,66.5,26.0,58.5,33.5,50.5,41.0,42.5,48.5,35.0,56.5,27.0,64.0,19.0,71.0,11.0,78.5,3.0,86.5" stroke="black" stroke-width="2" fill="none" />
<polyline points="2.5,87.5,10.5,87.0,18.5,87.0,26.5,85.5,35.0,84.5,43.5,83.5,51.5,82.0,59.5,81.0,67.5,80.0" stroke="black" stroke-width="2" fill="none" />
<polyline points="67.0,77.0,59.5,77.5,51.5,77.5,43.0,78.0,35.5,79.0,27.5,80.0,19.5,81.0,12.0,81.5,4.0,82.0" stroke="black" stroke-width="2" fill="none" />
<polyline points="4.0,79.0,11.5,71.5,19.5,64.0,27.5,56.0,35.5,49.0,43.5,41.0,51.5,33.0,59.5,25.0,67.5,17.5,76.0,10.0,83.5,2.5" stroke="black" stroke-width="2" fill="none" />
<polyline points="61.5,2.5,53.0,10.0,45.5,18.0,37.0,26.0,28.0,33.5,19.5,41.0,11.5,48.5,3.5,56.0" stroke="black" stroke-width="2" fill="none" />
<polyline points="4.0,54.0,11.5,53.5,19.5,52.5,28.0,51.5,36.0,51.0,44.0,50.5,53.0,49.5,61.5,49.0,70.0,48.5,78.0,48.0,85.5,47.5,93.5,46.5,101.0,46.0" stroke="black" stroke-width="2" fill="none" />
<polyline points="97.5,45.0,105.5,49.0,113.0,47.5,118.0,49.5,127.0,49.5" stroke="black" stroke-width="2" fill="none" />
<polyline points="128.0,58.0,120.5,61.0,120.0,64.5,118.5,75.5,109.5,78.0,112.5,70.0,109.0,63.0" stroke="black" stroke-width="2" fill="none" />
<polyline points="105.0,66.0,107.0,72.0,106.5,78.0,109.5,84.0,112.0,78.5,113.0,95.0,122.0,99.5" stroke="black" stroke-width="2" fill="none" />
<polyline points="112.5,111.5,110.0,102.0,111.5,93.5,101.5,88.5,99.0,89.5,91.0,96.5,82.5,100.0,80.0,96.0,78.0,89.5,71.0,87.5,64.0,97.0,74.5,95.0,72.5,87.5,62.5,84.5" stroke="black" stroke-width="2" fill="none" />
<polyline points="59.0,85.0,50.5,85.5,42.0,86.0,33.5,87.5,25.5,88.5,17.5,89.5,10.0,90.0,1.5,90.5" stroke="black" stroke-width="2" fill="none" />
<polyline points="3.0,97.0,10.5,97.0,18.5,96.0,26.5,95.5,34.5,94.5,43.0,94.5,51.0,94.5,59.0,94.0" stroke="black" stroke-width="2" fill="none" />
<polyline points="59.0,94.0,67.0,101.5,59.0,109.5,56.5,112.5,60.5,115.0,60.5,121.0" stroke="black" stroke-width="2" fill="none" />
<polyline points="68.0,145.0,76.0,151.0" stroke="black" stroke-width="2" fill="none" />
<polyline points="58.5,166.0,51.0,167.0,43.0,168.0,35.5,168.0,28.0,168.5,21.0,169.0,13.0,169.0,5.5,170.0" stroke="black" stroke-width="2" fill="none" />
<polyline points="3.5,162.5,11.5,162.0,19.0,162.0,27.0,162.0,34.5,162.0,42.5,161.0,50.5,160.5,59.0,160.0,67.5,159.0" stroke="black" stroke-width="2" fill="none" />
<polyline points="27.5,135.0,19.5,135.5,11.5,136.0,3.5,137.0" stroke="black" stroke-width="2" fill="none" />
<polyline points="4.0,129.0,12.0,128.0,21.0,128.5,29.0,128.5" stroke="black" stroke-width="2" fill="none" />
<polyline points="3.0,101.0,11.0,93.0,19.0,85.5,27.0,77.5,35.0,70.0,43.0,63.0,51.5,56.0,60.5,48.5,69.0,41.0,76.5,33.5,84.0,26.5,92.0,18.5,99.0,11.0,107.0,3.5" stroke="black" stroke-width="2" fill="none" />
<polyline points="115.0,8.5,123.0,8.5,131.0,8.0,139.0,7.0,147.5,6.0" stroke="black" stroke-width="2" fill="none" />
<polyline points="147.0,3.0,138.5,10.5,131.0,18.0,123.0,26.0,114.5,34.5,106.5,42.5,98.5,50.0" stroke="black" stroke-width="2" fill="none" />
<polyline points="92.0,46.5,100.5,45.5,101.5,51.0,104.0,49.0,104.5,51.0,98.5,56.0,100.5,65.0,103.5,73.0,93.5,70.5,89.0,78.5,94.0,83.5,82.0,89.5,86.0,92.5,84.5,97.5,93.0,97.0,90.0,100.5,80.5,105.0,74.5,113.0,76.5,121.0,70.0,123.0,65.0,128.0,59.0,134.0,67.0,127.0,70.0,116.5,78.0,118.5,82.0,112.5,87.0,121.0,91.5,115.0,99.5,116.0,101.5,111.0,104.5,116.5,112.5,115.5,119.5,117.5,124.5,108.0,127.5,109.0,135.5,100.0,137.5,89.5,145.5,83.0,155.5,80.0,164.0,80.0,172.0,81.0,180.0,76.0,182.0,86.0,193.0,80.0,195.5,77.0,196.5,78.0,196.0,82.5,199.0,90.5,194.0,98.5,205.0,100.5,204.5,108.5,199.0,116.5,206.0,120.5,209.0,128.0" stroke="black" stroke-width="2" fill="none" />
<polyline points="185.5,66.5,193.5,66.0,202.0,65.0,210.5,64.5,219.5,64.0,228.0,63.0,236.5,62.0,245.5,61.0,253.5,60.0,261.5,59.5" stroke="black" stroke-width="2" fill="none" />
<polyline points="258.5,55.0,250.5,55.5,242.5,56.5,234.5,57.5,226.5,58.0,219.0,59.0,211.5,59.5,203.5,59.5,196.0,60.0,188.5,60.5,181.0,61.0" stroke="black" stroke-width="2" fill="none" />
<polyline points="183.0,67.5,191.0,69.5,195.0,67.0" stroke="black" stroke-width="2" fill="none" />
<polyline points="154.5,23.5,162.5,23.0,170.5,22.5,178.0,22.0,185.5,22.0,193.5,22.0,201.5,22.5,209.5,22.5,218.0,22.5,225.5,22.0,233.5,21.5,241.5,21.0" stroke="black" stroke-width="2" fill="none" />
<polyline points="257.5,11.0,249.0,11.5,241.0,12.0,233.5,12.0,225.0,12.0,217.0,12.5,209.5,13.0,201.0,13.5,193.5,14.0,185.0,14.5,177.5,14.5,170.0,15.0,162.0,15.5" stroke="black" stroke-width="2" fill="none" />
<polyline points="162.0,9.0,170.5,8.5,178.0,7.5,186.5,7.0,195.0,7.0,203.0,6.5,211.0,6.0,218.5,5.0,226.5,5.0,235.0,4.5,243.0,4.0,250.5,3.5,258.5,3.0" stroke="black" stroke-width="2" fill="none" />
<polyline points="155.0,4.0,147.0,11.0,139.5,19.0,131.5,26.5,123.0,33.5,114.5,40.5" stroke="black" stroke-width="2" fill="none" />
<polyline points="108.0,35.5,101.0,36.0,93.0,36.0,85.5,37.0,77.5,37.0,69.0,38.0,60.5,39.0,52.0,39.5,43.5,39.5,35.5,40.5,27.0,41.0,19.0,41.5,10.5,41.5,2.5,41.5" stroke="black" stroke-width="2" fill="none" />
<polyline points="2.5,41.5,10.5,34.0,18.5,26.0,27.0,18.0,35.5,10.0,43.5,2.0" stroke="black" stroke-width="2" fill="none" />
<polyline points="35.5,3.5,27.5,11.0,19.0,18.5,11.0,26.5,3.0,34.0" stroke="black" stroke-width="2" fill="none" />
<polyline points="3.5,34.5,12.0,34.0,20.0,33.5,28.5,33.0,36.0,32.0,44.0,31.5,51.0,31.5,59.0,31.0,67.0,30.0,75.0,29.5,83.5,29.5,91.5,29.0,99.0,29.0,107.0,29.0,114.5,29.0" stroke="black" stroke-width="2" fill="none" />
<polyline points="114.5,21.0,106.5,21.5,99.0,22.0,91.5,22.0,84.0,22.0,76.5,22.5,69.0,22.0,61.0,22.0,53.5,22.5,45.5,23.0,37.5,23.5,29.0,24.0" stroke="black" stroke-width="2" fill="none" />
<polyline points="28.0,3.5,20.0,10.5,12.5,17.5,4.5,24.5" stroke="black" stroke-width="2" fill="none" />
<polyline points="3.5,25.0,11.0,25.0,19.0,25.0" stroke="black" stroke-width="2" fill="none" />
<polyline points="5.5,21.5,13.5,21.5,22.0,21.0,30.5,21.0,38.0,20.5,45.5,20.0,53.5,20.0,61.0,20.0,69.0,19.0,77.5,18.5,86.0,17.5,93.5,17.0,101.5,16.5,109.0,15.5,117.0,15.0,124.5,15.0,132.5,14.5,140.5,14.0,148.5,14.0,156.0,14.0,164.0,14.0,172.0,13.0,179.5,12.0,187.5,11.0,195.0,10.5,202.5,10.0,210.5,9.0,218.5,9.0,226.5,9.0,234.5,8.5,242.0,8.0,250.0,7.5,258.0,7.0" stroke="black" stroke-width="2" fill="none" />
<polyline points="138.5,34.0,130.5,34.5" stroke="black" stroke-width="2" fill="none" />
<polyline points="129.5,39.0,134.0,42.5,138.0,50.0,139.5,50.5,140.5,46.0,148.5,40.5,156.5,51.5,162.0,50.0,170.0,48.0,171.5,53.5,179.5,53.5,181.5,59.5,192.0,67.5,196.0,74.5,193.0,76.5,183.0,77.0,191.0,88.0,183.5,95.5,179.5,103.5,176.5,105.0,171.5,116.0,167.5,129.0,177.5,135.0,177.0,138.0,172.0,151.0,172.5,152.5,174.5,163.5,176.0,172.0" stroke="black" stroke-width="2" fill="none" />
<polyline points="176.0,102.0,164.0,104.0,156.0,107.0,145.0,110.0,138.5,113.0,130.5,113.0,126.0,125.0,118.0,124.0,108.0,126.0,100.0,123.5,96.0,118.5,99.0,111.0,92.5,105.0,85.0,104.0,76.0,102.5,80.0,101.5,81.5,93.0,80.5,90.0,78.5,81.5,75.0,72.5,67.0,71.0" stroke="black" stroke-width="2" fill="none" />
<polyline points="74.5,73.0,66.0,73.5,58.5,74.0,51.5,74.5,44.0,75.0,36.5,75.5,28.5,75.0,20.5,75.5,13.0,76.5,5.0,77.0" stroke="black" stroke-width="2" fill="none" />
<polyline points="4.5,75.5,12.0,75.0,20.0,74.0,27.5,73.5,35.0,73.0,42.5,72.5,50.5,71.5,58.0,71.0,66.0,70.0,74.0,69.0" stroke="black" stroke-width="2" fill="none" />
<polyline points="74.5,64.0,83.0,64.0,84.0,72.0,89.0,76.0" stroke="black" stroke-width="2" fill="none" />
<polyline points="76.5,63.0,68.5,63.0,60.5,63.0,52.0,63.0,44.0,63.5,36.0,64.0,28.5,65.0,20.5,65.5,13.0,66.0,5.5,67.0" stroke="black" stroke-width="2" fill="none" />
<polyline points="2.0,59.0,10.5,58.5,19.0,58.0,27.5,57.0,36.0,56.5,44.0,56.0,52.0,55.0,60.5,54.0,68.5,53.0,76.5,52.5,84.5,52.0" stroke="black" stroke-width="2" fill="none" />
<polyline points="78.5,55.5,81.5,54.5,90.0,57.0,95.0,57.5" stroke="black" stroke-width="2" fill="none" />
<polyline points="90.5,46.0,91.5,54.5,94.5,54.5,87.0,60.5,87.5,67.0,94.5,71.0,102.5,67.0,103.0,65.5,111.0,59.0,118.5,56.0,126.5,57.0,128.5,67.0,131.0,65.5,139.0,61.5,140.0,56.5,148.0,60.5,147.0,68.0,151.0,57.0,158.5,57.0,166.5,60.5,169.5,71.5,175.5,76.5,183.0,82.0" stroke="black" stroke-width="2" fill="none" />
<polyline points="116.0,63.0,108.0,70.5" stroke="black" stroke-width="2" fill="none" />
<polyline points="92.5,43.5,84.5,44.0,76.0,44.5,67.5,45.0,59.5,45.5,51.5,47.0,43.0,47.5,35.0,48.0,26.5,48.5,18.5,49.5,10.0,50.0,2.0,50.0" stroke="black" stroke-width="2" fill="none" />
<polyline points="4.5,48.5,12.5,42.0,21.0,34.5,29.0,27.5,37.5,20.5,45.5,13.0,53.5,6.0" stroke="black" stroke-width="2" fill="none" />
<polyline points="21.0,4.0,13.0,11.5,5.0,18.5" stroke="black" stroke-width="2" fill="none" />
<polyline points="4.0,18.0,12.0,17.0,20.0,16.5,28.0,16.0,36.5,16.0,45.0,15.0,53.0,14.5,61.0,14.0,69.5,13.5,77.5,12.5,85.0,11.5,93.5,11.5,101.5,11.5,109.0,11.0,116.5,10.0" stroke="black" stroke-width="2" fill="none" />
<polyline points="107.5,2.0,99.5,2.5,91.5,3.0,83.5,4.0,75.5,4.5,67.5,5.0,59.5,5.5,51.5,6.5,43.5,7.5,35.5,8.5,27.5,8.5,20.0,9.5,12.5,9.5,4.5,10.0" stroke="black" stroke-width="2" fill="none" />
<polyline points="3.0,11.0,11.0,4.0" stroke="black" stroke-width="2" fill="none" />
<polyline points="4.0,4.0,12.0,3.5,20.0,3.0,28.0,2.5,36.0,1.5,44.0,1.0,51.5,1.0,60.0,1.0,68.0,0.5,75.5,0.0,83.5,-1.0,91.5,-1.5,100.0,-2.5,108.5,-2.5,117.0,-2.5,125.5,-3.0,133.5,-3.5,141.5,-4.5,149.5,-5.5,157.5,-6.0,165.0,-6.0,173.5,-6.5,181.5,-7.0,189.5,-7.5,197.0,-8.0,205.0,-8.0,212.5,-7.5,220.0,-8.0,227.5,-8.0,235.0,-8.0,242.5,-8.5,250.5,-9.0,258.0,-9.5" stroke="black" stroke-width="2" fill="none" />
<polyline points="259.0,30.5,250.5,31.5,242.0,32.0,234.0,32.5,225.5,33.0,217.5,33.5,210.0,34.0,202.0,34.5,193.5,34.0,185.5,34.0,178.0,34.5,170.0,34.5,162.0,35.0,154.5,35.5,146.5,35.5,139.0,35.5,131.5,36.0,124.0,36.5,116.5,37.5,109.5,38.5,101.5,39.0,93.5,40.0,85.5,40.0,77.0,40.5,69.0,41.5,60.5,41.5,51.5,41.5,42.5,41.5,34.5,42.0,26.5,42.5,19.0,43.5,11.5,44.0,3.5,45.0" stroke="black" stroke-width="2" fill="none" />
<polyline points="4.5,39.0,13.0,38.5,20.5,38.0,28.5,38.0,36.0,38.0,44.5,38.0,52.0,37.5,60.0,36.5,67.5,36.0,75.5,34.5,83.5,34.0,91.5,34.0,100.0,33.0,108.5,32.0,116.5,31.0,125.0,30.0,133.0,30.0,141.0,30.0,148.5,30.0,157.0,30.0,165.0,29.5,173.0,28.5,181.0,27.5,188.5,27.0,196.5,26.5,204.0,25.5,211.0,25.0,218.0,24.5,225.5,23.5,233.0,23.0,240.5,22.0,249.0,22.0,258.0,21.5" stroke="black" stroke-width="2" fill="none" />
<polyline points="261.5,13.0,254.0,13.0,246.0,13.5,238.0,14.0,229.0,15.0,220.5,16.5,212.0,17.5,203.5,18.0,195.0,18.5,186.0,19.5,177.5,20.0,169.5,20.0,161.5,20.5,153.0,21.0,145.0,22.0,137.0,22.5,129.0,22.5,120.5,23.0,113.0,23.5,105.0,24.5,97.0,25.0,89.0,25.5,80.5,26.0,73.0,26.0,64.5,26.5,57.0,26.5,49.5,27.0,41.5,27.5,34.0,27.5,26.0,28.0,18.5,28.5,11.0,29.0,3.0,29.5" stroke="black" stroke-width="2" fill="none" />
<polyline points="3.0,15.0,11.0,15.0,19.5,14.0,28.0,13.0,36.0,11.5,44.5,10.5,52.5,9.5,60.5,8.5,69.0,8.0,77.5,8.0,86.0,8.0,93.5,7.0,101.0,6.5,109.0,6.0,117.0,5.5,125.5,4.5,133.0,3.5,140.5,3.0,148.5,2.0,156.5,2.0,164.5,1.5,172.5,1.0,180.0,1.0,187.5,0.0,195.0,-0.5,203.0,-1.5,210.5,-2.0,219.0,-2.0,227.0,-2.0,235.0,-2.5,242.5,-3.5,250.5,-4.0,258.5,-4.5" stroke="black" stroke-width="2" fill="none" />
<polyline points="125.0,38.5,129.0,40.5,127.5,48.5,134.0,55.5,128.0,64.5,131.0,67.5,128.0,73.0,129.0,76.5,130.0,84.5,131.0,93.0,122.0,101.0,123.0,104.5,129.0,110.5,123.0,118.5,130.0,126.0,129.0,132.0,132.0,136.0,127.5,137.5,122.5,142.5,129.0,140.5,137.0,150.5,134.0,159.5,125.0,167.0,128.5,169.0,124.0,173.0" stroke="black" stroke-width="2" fill="none" />
<polyline points="101.5,125.0,101.5,117.0" stroke="black" stroke-width="2" fill="none" />
<polyline points="119.0,92.0,111.0,92.5,103.0,83.0,95.0,82.0,87.0,84.0,82.0,78.5,74.0,80.5,71.0,81.5,64.5,87.5,66.5,89.5,57.5,87.5,65.5,83.5,63.5,81.5,58.5,88.5" stroke="black" stroke-width="2" fill="none" />
</svg>