<svg xmlns="http://www.w3.org/2000/svg" version="1.1"><polyline points="5.5,85.5,10.5,93.5,4.0,97.5,12.0,103.0,16.0,106.0,24.0,110.5,26.5,113.0,18.5,118.0,19.5,123.0,9.5,130.0,8.5,127.0,12.5,113.0,22.0,117.5,22.0,113.5,23.0,105.5,30.5,111.5,38.5,103.5,46.5,103.0,54.5,105.0,62.0,103.5,70.0,103.5" stroke="black" stroke-width="2" fill="none" />
<polyline points="68.0,106.0,64.0,114.5,61.0,123.0,62.0,129.0,70.0,139.5,51.0,145.5,63.0,146.5,69.0,155.0,59.5,156.0,52.5,159.5,45.5,160.5,36.0,162.5,45.5,168.5,34.5,173.5,31.0,176.5,31.5,182.5,29.0,189.0,29.0,197.0,29.0,201.0,38.5,204.0,39.0,214.5,33.0,223.0,18.5,227.0,14.0,236.0,4.0,243.5,5.5,251.5,16.0,254.5,20.0,253.0,28.0,251.0,34.0,249.5,42.0,247.5,49.0,244.5,57.0,242.5,60.0,233.0,66.0,223.0" stroke="black" stroke-width="2" fill="none" />
<polyline points="59.0,219.5,50.5,219.5,42.0,220.5" stroke="black" stroke-width="2" fill="none" />
<polyline points="43.5,218.0,51.5,216.0,58.0,212.0,54.0,220.0,58.0,225.5,61.5,232.0,63.5,229.5,72.5,238.5,67.5,246.5,63.0,249.0,68.5,255.0,66.0,253.5,71.5,247.5" stroke="black" stroke-width="2" fill="none" />
<polyline points="59.5,254.0,51.5,254.5" stroke="black" stroke-width="2" fill="none" />
<polyline points="51.5,229.0,44.0,229.5" stroke="black" stroke-width="2" fill="none" />
<polyline points="37.0,229.5,36.0,230.5,42.0,238.5,44.0,244.5,33.0,243.5,41.0,243.5,42.5,237.5,43.5,233.5,47.0,232.5,46.5,240.0" stroke="black" stroke-width="2" fill="none" />
<polyline points="28.0,227.5,19.5,228.0,11.0,228.0,2.5,228.0" stroke="black" stroke-width="2" fill="none" />
<polyline points="4.0,226.0,12.0,218.0" stroke="black" stroke-width="2" fill="none" />
<polyline points="4.5,221.5,12.5,220.5,20.5,220.5,28.5,219.5" stroke="black" stroke-width="2" fill="none" />
<polyline points="25.5,210.5,18.0,218.5,10.0,226.0,2.5,234.0" stroke="black" stroke-width="2" fill="none" />
<polyline points="3.5,236.0,11.5,235.5,19.5,235.0" stroke="black" stroke-width="2" fill="none" />
<polyline points="19.0,228.5,11.0,235.5,2.5,243.5" stroke="black" stroke-width="2" fill="none" />
<polyline points="5.5,244.0,13.0,239.5" stroke="black" stroke-width="2" fill="none" />
<polyline points="3.0,238.0,10.5,238.0,19.5,232.0,27.5,229.0,35.5,221.5,37.0,218.0,41.0,218.5,49.0,224.0,54.0,220.0,61.5,221.5,63.5,219.5,71.5,219.5" stroke="black" stroke-width="2" fill="none" />
<polyline points="71.5,208.5,73.5,203.5,81.5,206.5,83.5,199.5" stroke="black" stroke-width="2" fill="none" />
<polyline points="76.0,191.0,84.0,190.5,91.5,189.5" stroke="black" stroke-width="2" fill="none" />
<polyline points="89.5,180.5,97.5,176.5,105.5,172.0" stroke="black" stroke-width="2" fill="none" />
<polyline points="107.5,172.0,100.0,172.5,91.5,173.0,83.5,174.0,75.5,175.0" stroke="black" stroke-width="2" fill="none" />
<polyline points="74.5,182.5,82.5,182.0" stroke="black" stroke-width="2" fill="none" />
<polyline points="70.0,171.5,61.5,172.0" stroke="black" stroke-width="2" fill="none" />
<polyline points="62.5,173.0,70.5,171.0,79.0,171.0,70.0,178.0,71.0,190.0,65.5,198.0,74.0,201.0,72.0,211.5,72.5,210.0,78.5,206.0,86.5,206.0,93.5,199.0,95.5,203.0,99.5,208.5,100.5,205.0,104.5,198.0,112.5,198.5" stroke="black" stroke-width="2" fill="none" />
<polyline points="103.0,192.5,101.0,195.0,109.0,187.0,113.5,186.5,115.5,178.5,123.0,170.5,124.5,162.5,111.0,149.5,102.5,135.5,91.5,133.5,88.0,128.5,85.0,115.0,80.0,118.0,72.5,124.0,68.5,134.0,63.5,135.0,57.5,128.5,53.5,132.0,53.0,128.5,59.0,120.5,65.0,106.5,58.0,93.5,55.5,86.5,49.5,83.5,41.5,83.5,33.5,81.5,26.0,81.0,18.0,82.0,10.0,82.0,2.0,81.0" stroke="black" stroke-width="2" fill="none" />
<polyline points="4.5,84.5,12.5,88.5,20.5,87.0,28.0,84.0,26.0,87.0,24.0,95.0,20.0,96.0,26.0,100.0,34.0,97.5,37.5,95.0,41.5,101.5,45.5,96.0,53.5,95.0,61.5,97.5,64.0,93.5,72.0,91.5,76.0,87.5,81.0,91.0,88.0,90.0,96.0,87.0,101.0,93.0,107.0,97.0,115.0,95.0,116.0,91.5,124.0,95.0,129.5,92.0,132.5,88.0,140.5,92.0,140.5,96.0,149.5,100.0,161.5,99.5,169.5,101.5,173.5,104.5,182.0,99.5,190.0,91.5,195.5,93.0,202.5,89.0,210.0,86.0,218.5,88.0,226.5,92.0,234.5,87.0,236.5,88.0,244.5,88.0,252.5,87.5" stroke="black" stroke-width="2" fill="none" />
<polyline points="252.5,91.5,244.0,99.0,236.0,106.5,228.0,114.0,220.0,122.0,211.5,129.5,203.5,136.5,196.0,144.0" stroke="black" stroke-width="2" fill="none" />
<polyline points="204.0,143.0,212.0,136.0,220.0,129.0,228.0,121.5,235.5,113.5,244.0,105.5,252.0,97.5,260.0,90.0" stroke="black" stroke-width="2" fill="none" />
<polyline points="260.0,99.0,252.0,106.5,244.0,114.0,235.5,121.5,227.0,129.0,219.0,137.0,210.5,143.5,203.0,150.5" stroke="black" stroke-width="2" fill="none" />
<polyline points="210.0,153.0,218.5,145.5,227.0,138.0,235.5,130.0,244.0,122.5,252.5,115.0,260.0,107.0" stroke="black" stroke-width="2" fill="none" />
<polyline points="259.5,116.0,251.5,123.5,243.0,130.5,235.0,138.0,226.5,145.5,218.5,152.5" stroke="black" stroke-width="2" fill="none" />
<polyline points="221.5,153.5,229.0,153.0,237.0,152.0" stroke="black" stroke-width="2" fill="none" />
<polyline points="242.0,154.0,251.0,153.0,259.5,152.0" stroke="black" stroke-width="2" fill="none" />
<polyline points="258.5,148.5,250.5,156.5,242.0,163.5,234.0,171.0" stroke="black" stroke-width="2" fill="none" />
<polyline points="235.0,171.0,242.5,170.5,250.5,170.0,259.0,169.5" stroke="black" stroke-width="2" fill="none" />
<polyline points="260.5,170.5,252.5,178.5,244.5,185.5,236.5,193.0,228.5,200.5,220.5,208.0,212.5,215.5,204.5,223.5,196.5,231.5,188.0,239.5,180.5,246.5,172.0,253.5" stroke="black" stroke-width="2" fill="none" />
<polyline points="170.0,250.0,178.0,249.5" stroke="black" stroke-width="2" fill="none" />
<polyline points="180.5,255.0,188.5,247.5,196.5,239.5,204.5,231.5,212.5,224.0,220.5,216.5,228.0,209.0,235.0,202.0,242.5,195.0,250.5,187.5,258.5,180.0" stroke="black" stroke-width="2" fill="none" />
<polyline points="257.0,188.0,249.5,195.0,241.5,202.0,234.0,209.5,226.5,217.5,219.0,225.0,211.5,232.0,203.0,239.5,195.5,246.0,188.0,253.0" stroke="black" stroke-width="2" fill="none" />
<polyline points="187.5,258.0,195.5,257.5" stroke="black" stroke-width="2" fill="none" />
<polyline points="202.5,257.5,211.0,249.0,218.5,241.5,227.0,233.5,235.0,227.0,242.5,219.5,250.0,211.5,258.5,204.0" stroke="black" stroke-width="2" fill="none" />
<polyline points="260.5,200.0,252.5,201.0" stroke="black" stroke-width="2" fill="none" />
<polyline points="257.0,196.5,249.5,204.0,241.5,210.5,233.5,217.5,225.5,224.5,217.5,232.0,209.5,239.5,202.0,248.0,194.5,256.0" stroke="black" stroke-width="2" fill="none" />
<polyline points="204.0,256.5,212.0,256.5,219.5,256.5,228.0,256.0,236.5,256.0,244.5,255.5,252.5,255.0" stroke="black" stroke-width="2" fill="none" />
<polyline points="252.5,257.5,260.5,249.5" stroke="black" stroke-width="2" fill="none" />
<polyline points="260.0,243.0,252.0,250.5,244.5,258.0" stroke="black" stroke-width="2" fill="none" />
<polyline points="237.0,259.0,245.5,252.0,253.5,245.0,261.0,237.0" stroke="black" stroke-width="2" fill="none" />
<polyline points="259.0,228.0,251.0,235.0,243.5,242.0,235.0,249.0,227.0,257.0" stroke="black" stroke-width="2" fill="none" />
<polyline points="218.5,256.5,226.0,248.5,234.0,241.0,241.5,233.5,249.5,226.5,258.0,219.0" stroke="black" stroke-width="2" fill="none" />
<polyline points="258.0,211.5,250.0,218.5,242.5,226.0,234.5,233.0,227.0,240.5,219.0,248.0,211.0,256.0" stroke="black" stroke-width="2" fill="none" />
<polyline points="203.5,250.5,212.0,250.0,220.0,249.5,228.5,248.5,236.0,247.0,244.0,246.5,252.0,245.5,260.5,245.0" stroke="black" stroke-width="2" fill="none" />
<polyline points="259.5,237.5,251.5,238.5,243.0,240.0,235.0,240.5,227.0,241.5,219.5,242.0,211.5,242.0,204.0,242.0,195.5,242.5" stroke="black" stroke-width="2" fill="none" />
<polyline points="189.0,236.0,197.0,235.5,205.0,234.5,213.0,233.0,221.5,232.0,229.5,231.0,237.5,230.0,246.0,229.5,253.5,228.5,261.0,228.5" stroke="black" stroke-width="2" fill="none" />
<polyline points="262.0,176.0,254.0,176.5,246.0,177.0" stroke="black" stroke-width="2" fill="none" />
<polyline points="228.5,179.5,220.5,187.0,212.5,194.5,204.0,201.5,195.0,208.5,187.0,216.0,179.0,223.0" stroke="black" stroke-width="2" fill="none" />
<polyline points="177.0,228.5,185.0,227.5,193.0,226.5,201.5,225.5,210.0,224.5,218.0,223.5,226.0,222.0,234.0,221.0,242.0,220.0,250.5,219.5,258.5,218.5" stroke="black" stroke-width="2" fill="none" />
<polyline points="221.5,179.0,213.0,186.5,204.5,194.0,196.5,201.5,189.0,209.5,180.5,217.0,172.5,224.5,164.0,231.5" stroke="black" stroke-width="2" fill="none" />
<polyline points="164.5,225.5,156.0,226.0" stroke="black" stroke-width="2" fill="none" />
<polyline points="149.5,227.5,158.0,219.5" stroke="black" stroke-width="2" fill="none" />
<polyline points="163.0,209.0,171.0,202.5,178.5,194.5,186.0,187.0,194.0,179.5,202.5,171.5,210.5,164.0" stroke="black" stroke-width="2" fill="none" />
<polyline points="201.5,164.0,193.5,171.0,185.5,178.0,178.0,185.0,171.0,192.5,163.5,200.0" stroke="black" stroke-width="2" fill="none" />
<polyline points="162.0,203.0,170.5,202.0" stroke="black" stroke-width="2" fill="none" />
<polyline points="169.5,210.5,177.5,210.0" stroke="black" stroke-width="2" fill="none" />
<polyline points="170.0,218.5,178.0,218.0,186.5,217.0,195.0,216.5,203.0,216.5,211.5,216.0,219.5,215.0,228.0,213.5,236.5,212.0,244.5,211.5,253.0,211.5,260.5,211.0" stroke="black" stroke-width="2" fill="none" />
<polyline points="257.5,162.0,249.5,169.5,242.0,177.5,235.0,185.0,227.5,192.0,220.0,199.5,212.0,207.5,204.0,215.0,195.5,222.5,187.5,229.5" stroke="black" stroke-width="2" fill="none" />
<polyline points="181.5,232.5,173.5,240.5" stroke="black" stroke-width="2" fill="none" />
<polyline points="173.0,237.0,164.5,244.5,156.5,253.0,148.5,260.5" stroke="black" stroke-width="2" fill="none" />
<polyline points="155.0,260.0,163.0,252.5" stroke="black" stroke-width="2" fill="none" />
<polyline points="164.0,258.0,173.0,250.5,181.0,243.0" stroke="black" stroke-width="2" fill="none" />
<polyline points="178.5,241.0,183.0,250.0" stroke="black" stroke-width="2" fill="none" />
<polyline points="186.0,244.5,193.5,243.0,193.0,251.0,194.0,251.5" stroke="black" stroke-width="2" fill="none" />
<polyline points="182.0,230.5,173.0,232.5,171.0,234.5" stroke="black" stroke-width="2" fill="none" />
<polyline points="168.0,242.0,166.5,250.5" stroke="black" stroke-width="2" fill="none" />
<polyline points="158.0,245.5,150.0,253.0" stroke="black" stroke-width="2" fill="none" />
<polyline points="155.0,247.5,163.0,247.5" stroke="black" stroke-width="2" fill="none" />
<polyline points="151.0,240.5,159.0,233.5" stroke="black" stroke-width="2" fill="none" />
<polyline points="155.5,232.5,148.0,233.5" stroke="black" stroke-width="2" fill="none" />
<polyline points="147.5,231.5,156.0,224.5,164.0,217.0,172.0,209.5,179.5,202.5,187.5,195.0,195.0,188.0,202.0,181.5,210.0,174.0" stroke="black" stroke-width="2" fill="none" />
<polyline points="220.5,172.0,212.5,179.0,204.0,186.5,196.0,193.5,187.5,200.5,179.0,208.0,171.0,215.5,163.0,223.5,156.0,230.5,148.5,237.5" stroke="black" stroke-width="2" fill="none" />
<polyline points="147.0,236.0,155.0,235.5,163.0,235.0,171.0,235.0,179.5,234.5,188.0,234.5,195.5,234.5,203.5,234.5,211.0,234.5,219.0,234.0,227.0,234.0,234.5,233.5,242.5,233.0,251.0,232.5,259.0,232.0" stroke="black" stroke-width="2" fill="none" />
<polyline points="259.0,206.5,251.5,206.5,244.0,206.5,236.0,207.5,228.0,208.0,220.0,209.0,212.0,209.5,203.5,210.0,196.0,210.5" stroke="black" stroke-width="2" fill="none" />
<polyline points="194.5,201.0,203.0,200.5" stroke="black" stroke-width="2" fill="none" />
<polyline points="187.0,221.5,194.5,214.5,202.5,207.5,210.5,200.0,218.0,192.5,226.0,185.0,234.0,178.0,241.5,171.0,249.0,163.5,256.5,155.5" stroke="black" stroke-width="2" fill="none" />
<polyline points="258.0,142.5,249.5,149.5,242.0,156.5,234.5,164.0,226.5,171.5" stroke="black" stroke-width="2" fill="none" />
<polyline points="228.0,163.5,235.5,156.0,243.0,148.5,251.5,140.5,259.5,133.0" stroke="black" stroke-width="2" fill="none" />
<polyline points="260.5,124.0,252.0,131.5,244.0,139.0,236.0,146.5,228.5,153.5,220.0,160.5" stroke="black" stroke-width="2" fill="none" />
<polyline points="228.0,162.5,235.5,162.0,243.5,161.0,251.5,160.5,259.0,160.0" stroke="black" stroke-width="2" fill="none" />
<polyline points="257.5,145.0,249.5,146.0,241.5,147.0" stroke="black" stroke-width="2" fill="none" />
<polyline points="240.5,146.0,236.5,152.5,250.5,149.5,251.5,151.5" stroke="black" stroke-width="2" fill="none" />
<polyline points="237.0,142.5,228.5,143.0,220.5,144.0,212.5,145.0" stroke="black" stroke-width="2" fill="none" />
<polyline points="195.5,138.0,203.5,130.5,211.5,123.0,219.5,116.0,227.0,109.0,235.0,101.0,242.5,93.5" stroke="black" stroke-width="2" fill="none" />
<polyline points="244.5,97.5,252.5,93.5,256.0,101.0" stroke="black" stroke-width="2" fill="none" />
<polyline points="249.0,98.0,241.0,98.5" stroke="black" stroke-width="2" fill="none" />
<polyline points="247.0,99.0,255.0,96.0" stroke="black" stroke-width="2" fill="none" />
<polyline points="237.0,92.0,229.0,100.0,220.5,107.0,212.0,114.5,203.0,122.0,194.5,130.0,187.0,137.0" stroke="black" stroke-width="2" fill="none" />
<polyline points="179.0,136.5,187.5,129.0,195.5,121.5,204.0,113.5,212.5,105.5,221.0,98.0,228.5,91.0" stroke="black" stroke-width="2" fill="none" />
<polyline points="220.0,93.0,211.5,100.0,203.5,107.5,195.0,115.0,187.0,122.5,179.0,130.0" stroke="black" stroke-width="2" fill="none" />
<polyline points="177.5,132.5,186.0,131.5,193.5,130.5,201.5,129.0,209.0,128.0,217.0,127.0,225.0,125.5,233.5,124.5,242.0,124.0" stroke="black" stroke-width="2" fill="none" />
<polyline points="241.5,129.0,233.5,132.0" stroke="black" stroke-width="2" fill="none" />
<polyline points="235.5,130.5,230.5,132.0,233.0,130.0,241.5,128.0,249.5,124.0" stroke="black" stroke-width="2" fill="none" />
<polyline points="251.0,123.0,242.0,131.0,245.5,139.0,237.0,140.5,232.0,149.5,237.5,144.5,239.5,138.5,247.5,131.5,250.5,125.5,255.5,131.5" stroke="black" stroke-width="2" fill="none" />
<polyline points="261.5,83.5,254.0,83.0,245.5,83.5,237.5,83.0,229.5,83.0,221.5,83.0,213.5,83.5" stroke="black" stroke-width="2" fill="none" />
<polyline points="210.5,92.0,203.0,99.5,195.0,107.0,187.0,115.0,179.5,122.0,172.0,129.0" stroke="black" stroke-width="2" fill="none" />
<polyline points="171.0,133.0,179.0,132.5,187.0,132.5,195.0,131.5,203.0,131.0,211.0,130.0,219.5,130.0,227.5,129.5,235.5,129.5,243.5,129.5,251.5,129.0,259.0,128.5" stroke="black" stroke-width="2" fill="none" />
<polyline points="227.5,134.0,219.5,135.0,212.0,135.5,204.0,135.5,196.0,135.5" stroke="black" stroke-width="2" fill="none" />
<polyline points="193.5,162.5,185.5,169.5,178.5,177.5,171.5,185.0,163.5,193.0,156.0,201.0" stroke="black" stroke-width="2" fill="none" />
<polyline points="154.5,206.5,162.5,206.0,170.5,205.5,178.0,205.0,185.5,204.5,193.5,204.5,201.0,203.5,209.0,203.0,217.0,202.5,225.5,202.0,233.5,202.0,241.5,201.0,249.5,200.0,258.0,199.5" stroke="black" stroke-width="2" fill="none" />
<polyline points="189.5,163.5,181.0,171.0,172.5,178.0,164.0,185.0,155.5,192.0" stroke="black" stroke-width="2" fill="none" />
<polyline points="155.5,192.0,163.5,192.0" stroke="black" stroke-width="2" fill="none" />
<polyline points="149.0,194.0,157.0,186.0,165.0,178.0,173.5,170.0,182.0,162.0" stroke="black" stroke-width="2" fill="none" />
<polyline points="170.5,165.5,162.5,172.5,154.5,180.0,146.5,187.0" stroke="black" stroke-width="2" fill="none" />
<polyline points="147.5,185.5,156.0,185.0" stroke="black" stroke-width="2" fill="none" />
<polyline points="148.5,178.5,157.0,171.0,164.5,164.0" stroke="black" stroke-width="2" fill="none" />
<polyline points="157.0,163.0,149.0,170.5,140.5,178.0" stroke="black" stroke-width="2" fill="none" />
<polyline points="137.5,181.0,145.5,180.5,154.0,179.5,162.0,179.0,170.0,178.5,178.0,178.0,186.0,177.5,195.0,177.0,203.5,176.5,212.0,175.5,220.0,174.5,228.0,174.5,236.0,174.5,243.5,174.0,251.5,173.0,260.0,172.0" stroke="black" stroke-width="2" fill="none" />
<polyline points="251.5,99.5,243.5,101.0,235.0,102.0,226.5,103.5,218.5,104.5,211.0,105.0,203.0,106.0,195.0,107.5,187.0,108.0" stroke="black" stroke-width="2" fill="none" />
<polyline points="181.0,100.0,172.0,107.5,162.0,115.0,163.0,122.0,175.5,130.5,192.5,135.5,211.0,143.0" stroke="black" stroke-width="2" fill="none" />
<polyline points="179.0,114.0,186.5,113.5,194.5,113.0,202.5,112.5,210.0,111.5,218.0,111.0,226.0,110.0,233.5,109.0,241.5,108.5,249.5,108.0,257.5,107.5" stroke="black" stroke-width="2" fill="none" />
<polyline points="258.5,104.5,250.0,105.0,242.0,105.5,233.5,105.5,225.5,106.0,217.5,106.0,209.5,106.0,201.0,107.0,193.0,108.0,185.5,108.5,178.0,109.0,170.0,110.0" stroke="black" stroke-width="2" fill="none" />
<polyline points="169.5,102.5,177.5,102.0,186.0,101.5,193.5,100.5,201.5,99.5,209.5,99.0,217.5,98.5,226.0,98.0,234.0,97.0,241.5,96.5,249.5,95.5,258.0,95.5" stroke="black" stroke-width="2" fill="none" />
<polyline points="259.0,120.0,251.5,120.5,244.0,120.5,235.5,121.5,227.5,122.0,219.0,122.0,210.5,122.5,202.0,123.5,194.0,124.0,186.0,124.5,178.0,125.5,170.0,127.0,162.5,128.0" stroke="black" stroke-width="2" fill="none" />
<polyline points="162.5,130.5,154.5,131.0,147.0,130.5,139.5,131.5,131.5,131.5,124.0,131.5,116.5,131.5,108.0,131.5" stroke="black" stroke-width="2" fill="none" />
<polyline points="108.0,141.0,116.0,140.0,123.5,140.5,131.0,140.0,139.5,139.5,147.5,139.5,155.0,139.0,162.5,139.0,170.5,138.5,178.0,138.0,186.0,137.0,194.0,136.5,202.0,136.0,210.0,136.0,218.0,135.0,226.5,135.0,234.5,134.0,242.5,132.5,250.5,131.5,258.5,131.0" stroke="black" stroke-width="2" fill="none" />
<polyline points="260.0,114.5,252.0,115.0,244.0,115.0,236.0,116.0,228.0,117.0,220.0,118.0,212.5,118.0,204.5,118.0,196.0,119.5,187.5,120.5,178.5,121.0,170.0,121.5,162.0,122.0" stroke="black" stroke-width="2" fill="none" />
<polyline points="163.5,120.5,171.5,113.0,179.5,105.5,187.5,97.5,195.5,89.5" stroke="black" stroke-width="2" fill="none" />
<polyline points="201.5,91.5,193.0,99.5,185.5,107.0,178.0,114.5,171.0,121.5" stroke="black" stroke-width="2" fill="none" />
<polyline points="163.5,117.5,171.5,117.5,179.0,117.0,186.5,116.5,195.0,115.5,204.0,114.5,211.5,114.5,220.0,114.0,228.0,113.5,236.5,112.5,244.5,112.0,252.5,111.0,260.5,110.5" stroke="black" stroke-width="2" fill="none" />
<polyline points="259.0,157.0,250.5,158.5,242.5,159.5,235.0,160.0,227.0,161.0,219.0,162.5,211.0,163.0,203.5,163.0,196.0,164.0,188.5,164.5,181.0,165.0,173.0,165.5,165.5,165.5,157.5,165.0,150.0,165.0,142.0,165.0,134.0,165.0" stroke="black" stroke-width="2" fill="none" />
<polyline points="131.5,163.5,139.5,156.5" stroke="black" stroke-width="2" fill="none" />
<polyline points="133.0,153.5,125.0,161.0" stroke="black" stroke-width="2" fill="none" />
<polyline points="125.5,154.0,133.0,146.5" stroke="black" stroke-width="2" fill="none" />
<polyline points="122.5,145.5,114.5,153.0" stroke="black" stroke-width="2" fill="none" />
<polyline points="114.0,151.0,122.0,150.0,129.5,149.0,137.0,149.0,145.0,148.5,153.5,148.0,161.5,147.5,169.5,147.0,178.0,146.0,186.5,145.5,195.0,145.0,202.5,144.5,210.5,144.0,218.5,143.5,226.0,142.5,234.0,142.0,242.0,141.0,249.5,140.0,257.5,139.5" stroke="black" stroke-width="2" fill="none" />
<polyline points="260.5,191.0,252.0,191.0,243.5,191.5,236.0,191.5,228.0,191.5,219.5,192.5,211.5,193.5,203.5,194.0,195.5,194.5,187.5,195.5,179.0,196.0,170.5,196.5,162.0,197.0,154.0,197.5,145.5,197.5" stroke="black" stroke-width="2" fill="none" />
<polyline points="145.5,189.5,154.0,189.0,162.0,189.5,170.0,189.5,178.5,189.0,187.0,189.0,195.5,188.0,203.5,187.5,212.0,187.0,219.5,186.0,227.5,185.5,236.0,185.0,244.0,184.5,252.5,183.5,260.0,182.0" stroke="black" stroke-width="2" fill="none" />
<polyline points="260.5,222.0,253.0,222.0,245.0,223.0,237.0,224.0,229.5,224.5,221.0,225.0,213.0,224.5,205.0,225.0,196.0,226.0,188.0,227.0,179.0,228.0,171.0,228.5,162.5,229.0,154.0,230.0,146.0,230.0" stroke="black" stroke-width="2" fill="none" />
<polyline points="146.0,221.5,154.0,221.0,162.5,220.0,171.0,219.5,179.0,219.5,187.0,219.0,195.5,218.5,204.5,217.0,212.5,216.5,220.0,216.0,228.5,216.0,236.5,215.0,244.5,214.0,253.0,213.5,261.0,212.5" stroke="black" stroke-width="2" fill="none" />
<polyline points="261.5,206.5,253.5,206.0,245.5,206.0,237.5,206.0,229.5,206.5,221.5,207.0,213.5,208.0,205.0,208.5,197.0,209.0,188.5,209.5,179.5,210.0,170.0,210.5,161.5,211.0,153.0,211.5,144.5,212.0" stroke="black" stroke-width="2" fill="none" />
<polyline points="154.0,208.0,167.5,215.5,166.5,223.5,168.5,227.5,178.0,231.5,180.0,239.5,187.0,242.5,198.5,245.5,199.5,252.5" stroke="black" stroke-width="2" fill="none" />
<polyline points="180.5,255.5,179.5,247.5,183.0,239.0,182.0,231.0,175.5,226.5,168.0,225.5" stroke="black" stroke-width="2" fill="none" />
<polyline points="139.5,246.0,147.5,245.0,156.0,245.0,164.0,245.0,171.5,244.5,179.5,244.5,187.5,243.5,195.0,242.5,203.0,241.5,211.0,240.5,218.5,240.0,227.0,239.5,235.5,239.5,244.0,239.0,252.0,238.5,260.5,237.5" stroke="black" stroke-width="2" fill="none" />
<polyline points="260.0,246.5,252.0,247.0,244.0,248.0,236.0,248.5,227.5,249.0,220.0,249.5,211.5,250.0,204.0,250.5,196.5,251.0,188.5,251.5,180.5,252.0,172.5,252.5,165.0,253.0,156.5,254.0,148.0,254.5,140.0,255.0" stroke="black" stroke-width="2" fill="none" />
<polyline points="112.5,244.0,115.0,236.5,111.5,228.5,115.0,220.5,109.0,229.5" stroke="black" stroke-width="2" fill="none" />
<polyline points="110.5,225.0,113.5,233.0,111.0,241.0,113.0,249.0" stroke="black" stroke-width="2" fill="none" />
<polyline points="85.0,240.5,88.0,241.5,82.5,244.0,81.5,252.5" stroke="black" stroke-width="2" fill="none" />
<polyline points="120.0,250.5,124.5,242.0,123.0,244.5,117.5,252.0,109.0,249.5,100.0,250.5,98.0,256.0,96.0,251.0,95.5,242.0,81.0,256.0,71.0,243.0,70.0,234.0,66.5,235.5,61.5,241.5,54.0,247.5,46.5,255.0,48.0,257.0,53.0,249.0,61.5,243.5,54.0,240.5,54.0,232.5,52.0,224.0,51.0,215.0,57.0,210.0,58.0,198.5,56.5,189.5,60.5,180.5,59.0,173.0,66.0,168.0,66.5,164.0,72.5,155.0,74.5,144.0,74.5,137.0,68.5,135.0,73.0,128.5,79.0,120.5,84.0,117.0,86.5,110.5,80.0,104.5,87.0,96.5,85.5,88.5,88.5,82.0,82.0,93.0" stroke="black" stroke-width="2" fill="none" />
<polyline points="84.0,89.5,76.0,97.0" stroke="black" stroke-width="2" fill="none" />
<polyline points="82.5,105.5,90.5,98.0" stroke="black" stroke-width="2" fill="none" />
<polyline points="88.5,93.0,94.5,92.0,94.5,99.5,99.0,108.0,93.0,120.0,98.0,128.0,93.5,129.0,96.5,133.5,103.5,137.5,102.0,145.5,92.0,149.0,87.0,153.5,79.0,158.5,86.0,163.5,91.5,166.0,92.5,169.5,91.0,175.5,82.5,176.0,76.0,186.5,73.0,185.5,76.5,193.5,88.0,191.5,96.0,191.5,96.5,191.0,106.0,195.5,107.5,187.0,112.5,190.0,117.5,181.5,131.5,187.5,139.5,185.5,139.5,194.5,145.0,191.5,146.5,195.5,149.5,205.5,152.0,196.0,153.5,207.5,158.5,215.5,155.5,220.0,157.0,228.0,160.0,233.0,150.5,241.0,143.5,244.0,151.0,238.0,158.5,230.0,151.0,238.0,144.5,246.0" stroke="black" stroke-width="2" fill="none" />
<polyline points="139.5,198.0,141.0,189.5,142.0,179.5,133.5,170.5,125.5,162.5,117.5,157.5,113.0,160.5,105.0,157.5,100.0,162.5,99.0,159.5,91.0,162.5,89.0,169.0,82.5,167.0,81.0,162.0,77.5,159.5,78.5,151.5,77.5,149.5,70.0,151.5,61.5,148.5,59.0,151.5,57.0,156.5,50.0,153.5,42.0,156.0,32.5,155.5,34.5,147.5,28.0,135.5,25.0,143.0,23.5,146.0" stroke="black" stroke-width="2" fill="none" />
<polyline points="28.5,146.5,36.5,142.0,44.5,136.5,47.5,141.0" stroke="black" stroke-width="2" fill="none" />
<polyline points="51.0,139.5,59.5,132.0" stroke="black" stroke-width="2" fill="none" />
<polyline points="59.5,139.0,67.5,139.0,75.5,138.5" stroke="black" stroke-width="2" fill="none" />
<polyline points="78.5,139.0,86.0,135.0" stroke="black" stroke-width="2" fill="none" />
<polyline points="85.0,142.5,92.5,142.0,100.0,142.0" stroke="black" stroke-width="2" fill="none" />
<polyline points="98.0,128.5,90.0,129.0,82.5,129.5,75.5,130.5,67.5,131.5,60.0,132.0,52.0,132.5,44.5,133.0,37.0,133.5,29.0,134.0" stroke="black" stroke-width="2" fill="none" />
<polyline points="26.0,123.5,34.5,115.5,42.0,108.0" stroke="black" stroke-width="2" fill="none" />
<polyline points="43.5,112.0,45.5,108.5,37.0,116.5,38.5,124.5,40.0,126.5,34.5,136.5,39.5,138.0,46.5,140.0,47.5,144.0,42.5,147.5,37.5,155.5,38.5,159.5,28.0,165.0,34.0,167.0,25.0,168.0,30.0,174.5,27.5,188.5,20.5,192.5,21.5,196.0,21.0,203.5,12.0,203.5,10.5,215.5,12.0,215.5,11.0,219.5,9.0,227.5,5.5,239.5,7.5,235.5,9.5,231.0,17.5,227.5,20.5,221.5,22.5,214.5,30.5,210.0,37.5,202.5,39.0,205.5,46.0,207.5,49.5,205.5,54.0,206.5,62.5,207.5,68.5,195.5,69.5,191.5,77.5,187.0,78.0,181.5,85.5,178.5,93.5,175.0,101.0,172.0,111.0,172.0,116.0,168.0,117.5,170.0,119.0,165.0,130.0,171.5,133.5,179.5,142.5,180.5,144.0,188.5,147.5,197.0,154.5,198.5,147.5,206.5,148.0,214.5,147.0,222.0,146.0,229.5,144.0,237.5,141.5,245.0,142.5,253.5,148.5,252.5,153.5,255.0,166.5,248.0,165.0,242.5,163.0,250.5,159.0,250.5,151.0,251.5" stroke="black" stroke-width="2" fill="none" />
<polyline points="101.5,235.5,102.5,228.0,102.0,220.0,102.0,212.0" stroke="black" stroke-width="2" fill="none" />
<polyline points="97.5,209.0,97.0,217.0,99.0,220.0" stroke="black" stroke-width="2" fill="none" />
<polyline points="131.5,190.0,139.5,189.5" stroke="black" stroke-width="2" fill="none" />
<polyline points="134.0,175.0,141.5,174.5,149.0,173.5,156.5,172.5,164.0,172.0,171.5,171.5,179.5,171.5,188.5,171.5,197.0,171.0,205.0,171.0,213.0,171.0,221.0,170.5,229.0,169.5,237.0,168.0,245.5,167.0,253.5,166.0,261.5,165.0" stroke="black" stroke-width="2" fill="none" />
<polyline points="258.0,147.0,249.5,147.5,241.0,148.5,233.0,150.0,225.0,151.0,217.5,152.0,209.5,153.5,202.0,154.5,193.5,155.5,185.5,155.5,177.5,156.0,170.5,156.0,163.0,155.5,155.5,155.5,147.5,156.0,139.5,157.0,131.0,157.5,122.5,157.5,114.5,158.0" stroke="black" stroke-width="2" fill="none" />
<polyline points="115.5,161.0,108.0,161.0,100.5,161.5,92.5,161.5,85.0,162.0,77.0,163.0,69.5,163.5,61.5,163.5" stroke="black" stroke-width="2" fill="none" />
<polyline points="69.0,160.0,77.0,162.0,81.5,162.0" stroke="black" stroke-width="2" fill="none" />
<polyline points="92.5,158.0,100.5,157.5" stroke="black" stroke-width="2" fill="none" />
<polyline points="101.5,156.5,97.0,159.0,99.0,167.0,100.0,168.5,104.0,165.5,109.0,173.5,107.0,181.5,104.0,189.5,113.0,191.5,116.0,199.5,127.0,197.5,125.0,205.5,133.0,195.5,135.0,198.5" stroke="black" stroke-width="2" fill="none" />
<polyline points="134.0,182.5,125.5,182.0,120.5,173.0,110.5,177.0,102.5,182.0,97.0,181.0,89.0,188.0,80.5,191.0,78.5,192.0,71.5,198.0,69.0,197.5,67.0,202.0,57.0,197.0,57.0,194.0,50.5,195.5,49.5,192.5,50.0,184.0,42.0,179.5" stroke="black" stroke-width="2" fill="none" />
<polyline points="49.0,183.0,50.5,181.0,52.5,184.0,51.5,192.5,50.5,201.0,43.5,206.5,51.5,200.0" stroke="black" stroke-width="2" fill="none" />
<polyline points="52.0,204.0,44.0,204.5,36.0,204.5,28.0,205.0,20.0,206.0,12.0,207.0" stroke="black" stroke-width="2" fill="none" />
<polyline points="6.5,208.5,14.5,202.0,27.0,195.0" stroke="black" stroke-width="2" fill="none" />
<polyline points="34.0,186.5,42.0,187.5,40.0,195.5,48.0,193.5,56.0,188.5,70.5,180.5,75.0,183.0,83.0,177.0,90.5,174.0" stroke="black" stroke-width="2" fill="none" />
<polyline points="83.5,156.5,75.5,156.5,67.5,157.5" stroke="black" stroke-width="2" fill="none" />
<polyline points="67.5,149.5,75.5,149.0,83.5,148.0" stroke="black" stroke-width="2" fill="none" />
<polyline points="69.0,137.5,76.5,130.0,85.0,122.5" stroke="black" stroke-width="2" fill="none" />
<polyline points="84.5,111.5,92.5,110.5,100.5,110.0,108.0,109.0,116.0,108.5,123.5,108.5,131.5,107.5" stroke="black" stroke-width="2" fill="none" />
<polyline points="133.5,106.0,141.5,98.5" stroke="black" stroke-width="2" fill="none" />
<polyline points="146.5,99.5,139.0,99.5,131.0,100.5,124.0,101.5,116.5,102.0,109.0,102.5" stroke="black" stroke-width="2" fill="none" />
<polyline points="108.0,94.0,115.5,94.0,123.0,93.5,130.5,93.0,137.5,92.0,145.0,91.5,153.5,90.5,161.5,90.0,170.0,89.5,178.5,89.0,187.0,88.0,195.0,87.5,203.0,87.5,211.0,86.5,219.0,86.0,227.0,85.0,235.5,85.0,243.5,84.5,251.5,84.5,259.5,84.5" stroke="black" stroke-width="2" fill="none" />
<polyline points="217.5,92.0,209.5,94.5" stroke="black" stroke-width="2" fill="none" />
<polyline points="207.0,90.5,215.5,89.5,221.5,86.5,229.5,86.5" stroke="black" stroke-width="2" fill="none" />
<polyline points="186.5,86.0,178.5,86.5,170.5,87.5" stroke="black" stroke-width="2" fill="none" />
<polyline points="184.5,86.0,192.0,88.5" stroke="black" stroke-width="2" fill="none" />
<polyline points="178.0,71.5,170.0,71.5" stroke="black" stroke-width="2" fill="none" />
<polyline points="175.5,59.0,183.5,58.5,191.5,57.5,199.0,57.5,207.0,57.0" stroke="black" stroke-width="2" fill="none" />
<polyline points="204.0,43.0,196.0,44.0,188.0,46.5,179.5,46.0,171.5,47.0,164.0,46.0,156.0,46.0,148.0,46.5" stroke="black" stroke-width="2" fill="none" />
<polyline points="146.5,69.5,154.5,67.0,162.5,66.0,170.5,65.5,178.0,67.5" stroke="black" stroke-width="2" fill="none" />
<polyline points="146.0,88.0,147.0,91.5,155.0,91.5,156.0,96.5,148.0,100.0" stroke="black" stroke-width="2" fill="none" />
<polyline points="150.5,97.0,142.5,104.5,134.5,107.5,127.0,111.5,125.0,107.0,117.5,111.0,109.5,116.5,97.5,111.0,89.5,114.0,75.5,109.5,70.5,107.5,63.0,109.5,55.0,111.5,46.5,110.0,40.5,111.0,29.0,110.5,28.0,102.5" stroke="black" stroke-width="2" fill="none" />
<polyline points="25.5,117.0,17.5,124.5" stroke="black" stroke-width="2" fill="none" />
<polyline points="13.5,127.0,21.5,130.0,29.5,127.5,37.0,126.0,44.0,130.0,52.0,130.0,59.5,124.5" stroke="black" stroke-width="2" fill="none" />
<polyline points="60.0,124.0,68.0,124.0,75.5,124.5,84.0,124.0,92.0,124.0" stroke="black" stroke-width="2" fill="none" />
<polyline points="99.0,120.5,106.5,113.0,114.5,105.5,122.5,98.0" stroke="black" stroke-width="2" fill="none" />
<polyline points="124.0,104.5,131.5,97.0" stroke="black" stroke-width="2" fill="none" />
<polyline points="135.5,93.5,135.0,102.0" stroke="black" stroke-width="2" fill="none" />
<polyline points="142.5,99.5,133.0,101.0,131.0,98.5,119.0,96.5,110.0,89.0" stroke="black" stroke-width="2" fill="none" />
<polyline points="100.5,89.0,92.5,89.5,84.5,90.5,77.0,91.0,69.0,91.0,61.0,91.5,53.0,92.0,44.5,93.0,36.5,94.0,28.5,94.0,21.0,94.5,13.5,95.5,6.0,96.0" stroke="black" stroke-width="2" fill="none" />
<polyline points="2.0,100.0,10.0,96.0,17.0,96.0,18.5,91.5,24.5,94.0,32.5,93.5,40.0,91.5,46.0,90.5,50.5,99.5,58.5,100.5,66.5,101.0,74.5,104.0,82.5,107.5,90.0,108.0,94.0,118.0,95.0,122.0,102.5,123.0" stroke="black" stroke-width="2" fill="none" />
<polyline points="100.0,125.0,108.0,124.5" stroke="black" stroke-width="2" fill="none" />
<polyline points="113.5,121.5,121.5,120.5,129.0,119.0,139.0,118.5,147.0,116.5,155.0,117.5,165.5,111.0" stroke="black" stroke-width="2" fill="none" />
<polyline points="160.0,120.5,168.5,125.5,176.0,131.5,184.0,133.5,192.0,135.5,200.5,139.5,208.5,142.5" stroke="black" stroke-width="2" fill="none" />
<polyline points="174.5,139.5,166.5,136.0" stroke="black" stroke-width="2" fill="none" />
<polyline points="160.0,134.0,168.0,133.5,170.0,145.0,166.5,144.5" stroke="black" stroke-width="2" fill="none" />
<polyline points="156.0,154.5,148.0,162.0,140.0,169.5" stroke="black" stroke-width="2" fill="none" />
<polyline points="133.0,170.5,137.0,178.0,126.0,184.5,126.0,192.5" stroke="black" stroke-width="2" fill="none" />
<polyline points="130.0,192.5,123.5,194.5,120.5,186.5,121.5,178.5" stroke="black" stroke-width="2" fill="none" />
<polyline points="120.5,169.0,110.0,176.0,113.0,178.0,118.0,191.0,116.5,198.5,118.5,200.5" stroke="black" stroke-width="2" fill="none" />
<polyline points="131.0,171.5,139.0,164.5,147.5,157.0" stroke="black" stroke-width="2" fill="none" />
<polyline points="150.0,135.5,158.0,137.0,165.5,139.0" stroke="black" stroke-width="2" fill="none" />
<polyline points="167.5,134.5,161.0,130.5" stroke="black" stroke-width="2" fill="none" />
<polyline points="156.5,125.0,148.5,125.0,140.5,125.5,132.5,126.0,125.0,126.5" stroke="black" stroke-width="2" fill="none" />
<polyline points="117.0,116.0,109.0,116.5,101.5,117.5" stroke="black" stroke-width="2" fill="none" />
<polyline points="100.0,106.0,102.0,103.5" stroke="black" stroke-width="2" fill="none" />
<polyline points="97.5,98.5,89.5,106.0" stroke="black" stroke-width="2" fill="none" />
<polyline points="85.5,112.5,77.5,112.5,69.0,113.5,61.0,114.0,52.5,114.5,44.5,115.5,36.5,116.0,28.5,116.0,20.5,116.5,13.0,117.5,5.0,118.5" stroke="black" stroke-width="2" fill="none" />
<polyline points="2.0,123.0,10.0,120.5,15.0,125.5,17.5,121.5,25.0,121.5,33.5,118.5,41.5,115.0,42.0,118.5,50.0,116.0,58.0,118.0,64.5,116.0" stroke="black" stroke-width="2" fill="none" />
<polyline points="68.5,106.5,61.0,107.0,53.0,107.5,45.0,108.0,37.5,108.5,29.5,108.5,21.0,108.5,12.5,109.0,4.0,110.0" stroke="black" stroke-width="2" fill="none" />
<polyline points="4.0,105.5,12.0,108.5,15.5,113.0,11.0,115.5,4.0,117.0,11.5,122.5,5.5,127.5,3.5,137.5,11.5,136.0,19.5,137.0,25.0,131.0,33.5,133.0,41.5,133.5,49.5,139.5,57.0,140.0,65.5,140.0,73.5,139.5,77.5,130.5,84.5,128.0,80.5,127.5,84.5,128.5,88.5,133.5,85.5,142.5,93.5,145.0,101.5,143.5,107.5,144.0,111.0,152.0,111.0,159.5,111.0,167.0,98.0,174.0,91.0,182.5,85.0,182.0,84.0,190.0,93.5,187.5,92.5,193.5,95.0,196.5,101.0,201.5,96.5,212.5,96.5,220.5,99.5,228.0,98.5,236.0,95.5,244.0,88.0,249.5,84.0,254.0" stroke="black" stroke-width="2" fill="none" />
<polyline points="55.0,221.0,50.5,227.0,43.0,229.0,43.0,225.5,34.5,233.0,32.0,228.0,24.0,232.0,16.0,238.0,21.5,233.5,18.0,224.5,21.5,219.5,27.5,211.5,15.0,218.5,7.5,225.5" stroke="black" stroke-width="2" fill="none" />
<polyline points="13.5,227.5,21.5,226.5" stroke="black" stroke-width="2" fill="none" />
<polyline points="20.5,210.5,22.5,206.5,16.0,207.0,24.0,206.0,32.0,205.0,35.0,201.5,42.5,200.5" stroke="black" stroke-width="2" fill="none" />
<polyline points="40.5,216.0,37.5,224.5,37.0,229.0,31.5,229.0,32.5,235.5,33.5,243.5,33.0,251.5,36.5,250.0,33.0,253.0" stroke="black" stroke-width="2" fill="none" />
<polyline points="12.5,253.0,4.5,253.0" stroke="black" stroke-width="2" fill="none" />
<polyline points="5.0,212.0,13.0,211.5,21.0,211.5,28.5,211.0" stroke="black" stroke-width="2" fill="none" />
<polyline points="42.0,217.5,54.0,227.0" stroke="black" stroke-width="2" fill="none" />
<polyline points="51.0,170.0,43.0,170.0,35.0,170.5" stroke="black" stroke-width="2" fill="none" />
<polyline points="26.0,166.5,34.0,168.5,47.5,171.0,55.5,174.0,63.5,171.0,61.5,180.5,65.0,180.5,67.5,170.0,70.0,172.0" stroke="black" stroke-width="2" fill="none" />
<polyline points="70.0,168.5,66.0,176.5,67.0,181.5,64.0,190.0,59.5,204.5,67.5,208.5,71.5,218.0,72.5,226.5,67.5,235.0,62.5,236.0,73.5,240.0,71.5,248.0,78.0,248.0,74.0,257.0,78.0,256.5" stroke="black" stroke-width="2" fill="none" />
<polyline points="51.5,164.5,44.5,164.5,37.0,165.5,29.0,166.5,21.5,167.5" stroke="black" stroke-width="2" fill="none" />
<polyline points="11.0,156.5,19.0,156.5,27.0,156.5,36.0,156.0" stroke="black" stroke-width="2" fill="none" />
<polyline points="36.5,148.5,28.5,149.5" stroke="black" stroke-width="2" fill="none" />
<polyline points="23.5,155.0,26.0,150.5,25.5,151.5,18.0,155.5,10.0,155.0" stroke="black" stroke-width="2" fill="none" />
<polyline points="2.5,162.0,6.5,166.0,2.0,167.5,10.0,157.5,18.0,164.5,25.5,164.5,27.5,165.5,35.5,173.0,43.5,171.0,44.0,160.5,50.0,161.5,53.0,167.5,61.5,166.5,64.0,161.5,70.5,158.0,79.5,150.5,84.5,154.0,86.5,159.0,94.5,156.0,102.5,153.5" stroke="black" stroke-width="2" fill="none" />
<polyline points="107.0,159.5,102.0,167.5,100.5,179.5,99.5,183.5,98.5,191.5" stroke="black" stroke-width="2" fill="none" />
<polyline points="49.5,157.0,41.5,164.0,50.5,156.0,51.0,148.5" stroke="black" stroke-width="2" fill="none" />
<polyline points="40.5,124.0,32.5,123.0" stroke="black" stroke-width="2" fill="none" />
<polyline points="28.5,125.5,20.0,125.5,11.5,125.5,3.5,126.0" stroke="black" stroke-width="2" fill="none" />
<polyline points="3.5,132.0,11.5,132.0,19.5,132.0" stroke="black" stroke-width="2" fill="none" />
<polyline points="23.0,121.0,23.0,129.0,9.0,139.0,9.0,147.5,12.0,148.5,9.5,158.0,22.0,159.5,30.0,159.5,37.5,156.0,37.5,151.0,40.5,153.0,44.0,149.0,50.0,143.5,53.5,145.5,61.5,142.5,70.0,145.0,72.0,145.5,80.0,144.5,88.0,148.5,94.5,150.5,103.0,147.5" stroke="black" stroke-width="2" fill="none" />
<polyline points="104.5,126.0,108.5,118.0,119.5,110.0" stroke="black" stroke-width="2" fill="none" />
<polyline points="121.0,88.0,129.5,86.0,137.5,86.5,145.5,85.5,153.0,86.0,161.5,87.0,169.5,85.5,177.5,84.5,185.5,83.0,193.5,83.5,201.5,84.5,209.5,83.5,217.5,81.5,225.5,82.0,233.5,81.5,241.5,81.0,249.0,83.0" stroke="black" stroke-width="2" fill="none" />
<polyline points="139.5,87.5,148.0,88.5,154.0,93.5,143.5,99.5,133.5,109.5" stroke="black" stroke-width="2" fill="none" />
<polyline points="99.0,97.5,91.0,98.5,83.0,99.0,75.0,99.0,67.5,99.0,59.5,99.5,51.5,99.5,43.5,100.0" stroke="black" stroke-width="2" fill="none" />
<polyline points="28.5,101.5,20.5,102.5,12.5,103.0,5.0,104.5" stroke="black" stroke-width="2" fill="none" />
<polyline points="1.5,103.5,9.5,98.5,11.5,104.0,14.0,101.0,22.0,98.5,31.5,102.0,35.5,98.5" stroke="black" stroke-width="2" fill="none" />
<polyline points="24.5,86.5,32.5,90.5,43.0,92.5,47.0,98.5,52.0,110.5,56.0,111.5,54.0,121.5,50.5,119.5,49.0,127.5" stroke="black" stroke-width="2" fill="none" />
<polyline points="20.0,115.5,11.5,123.5" stroke="black" stroke-width="2" fill="none" />
<polyline points="1.5,142.0,9.5,140.0,10.0,145.0" stroke="black" stroke-width="2" fill="none" />
<polyline points="5.5,88.0,13.5,87.5" stroke="black" stroke-width="2" fill="none" />
<polyline points="55.0,85.0,63.0,85.0,71.0,84.5,79.0,84.0,87.5,85.0,95.5,84.0,104.0,85.0,112.0,89.0,120.5,86.0,128.0,89.5,120.0,97.5" stroke="black" stroke-width="2" fill="none" />
<polyline points="111.0,102.5,110.5,102.0,107.0,94.0,93.5,88.0" stroke="black" stroke-width="2" fill="none" />
<polyline points="82.5,85.5,74.5,86.0" stroke="black" stroke-width="2" fill="none" />
<polyline points="64.0,90.5,56.0,88.0" stroke="black" stroke-width="2" fill="none" />
<polyline points="73.5,112.0,72.0,123.5,63.5,126.5,73.0,121.5,71.0,117.5,76.0,117.5,80.0,109.0" stroke="black" stroke-width="2" fill="none" />
</svg>