<svg xmlns="http://www.w3.org/2000/svg" version="1.1"><polyline points="88.0,3.0,88.0,11.5,87.5,19.0,87.5,27.0,88.0,34.5,88.0,42.5,88.0,50.5,88.0,58.5,88.0,66.5,88.0,74.5,87.5,82.5,88.0,90.5,88.0,98.5,88.0,106.5,88.0,114.5,87.5,122.5,87.5,130.5,88.5,138.0,88.5,145.5,88.0,153.5,87.0,161.5,88.0,169.5,88.0,178.0,88.0,186.0,90.0,190.0,98.0,190.0,106.0,190.0,113.5,190.0,122.0,190.0,130.0,190.0,138.5,190.0,146.5,190.0,154.0,190.0,162.5,190.5,170.5,190.5" stroke="black" stroke-width="2" fill="none" />
<polyline points="163.0,186.0,171.0,178.5" stroke="black" stroke-width="2" fill="none" />
<polyline points="170.0,171.5,162.0,179.0,154.5,187.0" stroke="black" stroke-width="2" fill="none" />
<polyline points="147.5,186.5,155.5,179.0,163.5,171.5,171.5,164.0" stroke="black" stroke-width="2" fill="none" />
<polyline points="172.0,155.5,164.0,163.0,156.0,170.5,147.5,177.5,139.0,184.5" stroke="black" stroke-width="2" fill="none" />
<polyline points="132.0,185.5,140.5,178.0,148.5,170.0,156.5,162.5,164.5,154.5,173.0,147.5" stroke="black" stroke-width="2" fill="none" />
<polyline points="174.0,140.5,165.5,148.0,157.0,155.5,149.0,162.5,140.5,170.5,132.5,177.5,124.5,185.0" stroke="black" stroke-width="2" fill="none" />
<polyline points="115.5,184.0,123.5,176.5,132.0,168.5,140.0,160.5,148.0,153.5,156.0,146.0,164.0,138.5,172.0,131.0" stroke="black" stroke-width="2" fill="none" />
<polyline points="171.5,122.5,163.0,130.0,154.5,137.5,146.5,145.0,138.0,153.0,130.0,160.5,122.0,168.5,114.0,176.0,106.5,184.0" stroke="black" stroke-width="2" fill="none" />
<polyline points="100.0,181.5,107.5,174.5,115.5,167.5,123.0,160.0,131.0,152.5,139.0,145.0,147.5,137.5,155.5,130.0,163.0,123.0,171.0,115.0" stroke="black" stroke-width="2" fill="none" />
<polyline points="170.0,120.0,162.5,121.0,155.0,121.5,147.0,122.0" stroke="black" stroke-width="2" fill="none" />
<polyline points="138.5,122.5,130.0,130.5,122.5,138.0,114.5,145.5,107.0,152.5,99.0,160.0,91.0,167.5" stroke="black" stroke-width="2" fill="none" />
<polyline points="92.0,169.0,100.0,168.5,107.5,168.0,115.5,167.5,123.5,167.0,132.0,166.0,139.5,165.0,148.0,164.5,156.0,164.0,163.5,163.5,171.5,162.5" stroke="black" stroke-width="2" fill="none" />
<polyline points="171.0,116.0,162.0,117.0,153.5,118.0,145.5,118.5,137.5,119.0" stroke="black" stroke-width="2" fill="none" />
<polyline points="131.5,122.5,123.5,130.0,116.0,137.0,108.0,144.5,101.0,152.5,92.5,159.5" stroke="black" stroke-width="2" fill="none" />
<polyline points="90.5,160.0,98.5,159.5,106.0,159.5,114.0,159.5,122.5,159.5,130.5,159.0,138.5,158.5,146.5,158.0,154.0,157.5,162.0,156.5,170.5,155.5" stroke="black" stroke-width="2" fill="none" />
<polyline points="153.5,114.5,146.0,122.0,138.5,129.5,131.5,137.0,124.0,145.0,116.0,152.5,108.0,160.0,100.0,167.0,92.5,174.5" stroke="black" stroke-width="2" fill="none" />
<polyline points="91.0,175.5,99.5,175.0,107.5,174.5,115.5,173.5,123.5,173.0,131.5,171.5,139.5,170.5,147.5,169.5,155.5,168.5,164.5,167.0,172.5,166.0" stroke="black" stroke-width="2" fill="none" />
<polyline points="172.0,127.5,164.5,128.5,157.0,129.0,149.0,129.5,141.0,129.5,132.5,130.0" stroke="black" stroke-width="2" fill="none" />
<polyline points="124.5,126.5,132.5,125.5,140.0,125.0,147.5,124.0,155.5,123.0,163.0,122.0,170.5,121.5" stroke="black" stroke-width="2" fill="none" />
<polyline points="172.0,133.0,164.0,133.0,156.5,133.0,148.5,134.0,140.5,135.0,133.0,136.0,125.0,136.5,116.5,137.5" stroke="black" stroke-width="2" fill="none" />
<polyline points="114.5,130.5,107.0,137.5,100.0,145.0,92.0,152.5" stroke="black" stroke-width="2" fill="none" />
<polyline points="91.5,155.0,100.0,154.5,108.5,155.0,116.5,155.5,124.5,155.5,132.0,155.0,140.5,154.5,148.5,154.5,157.0,153.5,165.0,152.5,173.5,151.5" stroke="black" stroke-width="2" fill="none" />
<polyline points="172.5,148.5,164.0,149.0,155.5,149.5,147.0,150.0,138.0,150.5,130.5,151.0,122.5,151.0,114.5,151.5,106.0,152.5,98.5,153.0" stroke="black" stroke-width="2" fill="none" />
<polyline points="92.5,148.0,100.0,147.5,108.5,147.5,116.5,147.0,124.5,146.0,132.5,145.5,141.0,145.0,148.5,145.0,156.0,144.5,164.0,143.5,171.5,143.5" stroke="black" stroke-width="2" fill="none" />
<polyline points="172.5,140.5,164.5,141.0,156.0,142.0,148.0,143.0,140.0,143.0,131.5,143.0,123.0,143.5,114.5,143.5,106.0,144.0,97.5,144.5" stroke="black" stroke-width="2" fill="none" />
<polyline points="100.5,142.0,108.0,148.0" stroke="black" stroke-width="2" fill="none" />
<polyline points="100.0,139.5,92.0,147.0" stroke="black" stroke-width="2" fill="none" />
<polyline points="89.5,146.0,97.5,145.0,100.5,140.5,108.5,144.5" stroke="black" stroke-width="2" fill="none" />
<polyline points="92.5,141.0,100.5,140.5,109.0,139.0,117.5,138.0,126.0,137.0,134.0,136.0,141.5,136.0,149.5,135.5,157.5,135.5,165.5,136.0,173.5,136.0" stroke="black" stroke-width="2" fill="none" />
<polyline points="173.5,130.0,165.0,130.5,156.5,130.5,148.0,130.5,139.5,130.5,131.0,130.0,122.5,130.0,114.0,130.5,106.5,131.0,98.5,131.5" stroke="black" stroke-width="2" fill="none" />
<polyline points="101.0,125.5,93.0,126.0" stroke="black" stroke-width="2" fill="none" />
<polyline points="90.0,127.5,98.0,124.5,106.0,121.5,114.0,116.5" stroke="black" stroke-width="2" fill="none" />
<polyline points="113.5,112.0,122.0,105.0,130.0,98.0,138.0,91.0,145.5,83.5" stroke="black" stroke-width="2" fill="none" />
<polyline points="141.5,82.5,133.5,90.5,125.5,98.5,117.0,106.5,108.5,114.0,100.0,121.0" stroke="black" stroke-width="2" fill="none" />
<polyline points="92.5,121.0,100.5,113.5,108.5,105.5,117.0,97.5,125.0,90.0" stroke="black" stroke-width="2" fill="none" />
<polyline points="129.0,85.0,133.0,97.0,141.0,97.0" stroke="black" stroke-width="2" fill="none" />
<polyline points="140.0,104.5,148.5,97.0,156.5,89.0" stroke="black" stroke-width="2" fill="none" />
<polyline points="147.5,89.5,139.5,97.0,131.5,105.5" stroke="black" stroke-width="2" fill="none" />
<polyline points="130.5,107.5,123.0,108.0,115.5,109.0,108.0,109.5,100.0,110.5,92.5,111.0" stroke="black" stroke-width="2" fill="none" />
<polyline points="91.5,111.5,100.5,104.0,109.0,97.0,117.0,89.5,125.5,82.0,133.5,75.0" stroke="black" stroke-width="2" fill="none" />
<polyline points="131.0,77.5,138.5,77.5,146.5,77.5" stroke="black" stroke-width="2" fill="none" />
<polyline points="141.0,80.5,149.0,83.5,157.0,87.5,161.5,89.5" stroke="black" stroke-width="2" fill="none" />
<polyline points="156.5,107.0,164.0,107.0,172.0,107.0" stroke="black" stroke-width="2" fill="none" />
<polyline points="170.5,107.0,163.0,114.5,155.0,122.0,147.5,129.5,140.0,137.0,132.5,144.5,125.0,151.5,117.0,159.0,109.5,166.0,101.5,172.5,94.0,180.0" stroke="black" stroke-width="2" fill="none" />
<polyline points="91.0,178.5,99.0,177.5,107.5,177.0,115.5,176.5,123.5,176.0,131.5,175.5,139.0,175.0,146.5,174.0,154.0,173.0,162.0,172.0,169.5,171.5" stroke="black" stroke-width="2" fill="none" />
<polyline points="171.5,183.5,163.5,183.5,155.0,184.0,147.0,184.5,139.0,185.5,131.0,187.0,123.5,187.5,115.5,188.0,107.5,189.0,100.0,190.0,92.0,190.5" stroke="black" stroke-width="2" fill="none" />
<polyline points="91.0,187.0,99.0,186.5,107.0,185.5,115.0,185.0,123.0,185.0,130.5,184.0,138.5,183.0,146.5,182.5,154.5,181.5,162.5,181.0,171.0,180.0" stroke="black" stroke-width="2" fill="none" />
<polyline points="170.5,176.0,162.5,176.5,154.5,177.0,146.5,177.5,138.5,178.0,130.5,178.0,122.5,178.5,115.0,179.0,107.0,179.5,98.5,180.5,90.5,181.5" stroke="black" stroke-width="2" fill="none" />
<polyline points="90.0,163.5,98.5,163.0,106.5,163.0,114.0,163.0,121.5,162.5,129.0,162.0,137.5,162.0,145.5,162.0,153.5,161.5,162.0,161.5,169.5,160.5" stroke="black" stroke-width="2" fill="none" />
<polyline points="173.5,169.0,173.0,155.5,173.5,147.5,173.0,139.5,173.0,132.0,173.0,124.0,173.5,116.0,173.5,108.0" stroke="black" stroke-width="2" fill="none" />
<polyline points="140.0,105.0,132.5,104.5,125.0,104.5,117.0,105.0,109.5,105.0" stroke="black" stroke-width="2" fill="none" />
<polyline points="108.5,113.0,117.0,112.5,124.0,112.5" stroke="black" stroke-width="2" fill="none" />
<polyline points="115.5,117.0,107.5,118.5,99.5,119.0,92.0,120.0" stroke="black" stroke-width="2" fill="none" />
<polyline points="90.0,128.5,90.0,136.5,91.0,144.5,91.0,152.0,91.0,160.0,91.0,167.5" stroke="black" stroke-width="2" fill="none" />
<polyline points="89.5,102.5,98.0,102.0,106.0,101.5,114.5,100.5,122.5,100.0,131.0,99.5,138.5,98.0,146.5,97.0" stroke="black" stroke-width="2" fill="none" />
<polyline points="135.5,92.0,127.5,91.5,119.5,87.5,122.0,90.5,119.0,87.5,121.0,82.5,115.0,82.5,106.5,87.5" stroke="black" stroke-width="2" fill="none" />
<polyline points="107.0,82.5,99.0,90.5,91.0,98.0" stroke="black" stroke-width="2" fill="none" />
<polyline points="90.5,93.5,99.0,93.0,107.5,92.5,116.0,92.0,124.0,91.5,131.5,91.0,140.0,90.5,148.0,90.0,156.0,89.5,164.0,89.0" stroke="black" stroke-width="2" fill="none" />
<polyline points="155.5,80.5,148.0,81.0,140.0,81.5,132.5,82.0,124.0,82.0,116.0,82.0,108.0,83.0,101.0,83.5,93.0,83.5" stroke="black" stroke-width="2" fill="none" />
<polyline points="99.5,83.0,91.5,90.0" stroke="black" stroke-width="2" fill="none" />
<polyline points="92.0,83.0,99.5,76.0" stroke="black" stroke-width="2" fill="none" />
<polyline points="93.5,75.5,101.0,75.0,108.5,74.5,116.0,74.5,123.5,74.5,131.5,74.5,139.5,74.0" stroke="black" stroke-width="2" fill="none" />
<polyline points="140.5,69.5,148.5,69.0,157.0,68.5" stroke="black" stroke-width="2" fill="none" />
<polyline points="156.5,69.0,152.5,77.0,161.0,81.5,161.0,76.0,169.5,81.0" stroke="black" stroke-width="2" fill="none" />
<polyline points="165.0,95.0,156.5,95.0,148.5,91.0,140.5,87.5,132.5,84.0,124.0,80.0,116.0,75.5,107.5,71.5,99.0,67.5,91.0,63.5" stroke="black" stroke-width="2" fill="none" />
<polyline points="92.5,64.0,109.5,72.0,119.5,77.5,107.5,85.5,95.5,98.0,99.0,92.0" stroke="black" stroke-width="2" fill="none" />
<polyline points="99.0,89.5,107.5,89.0" stroke="black" stroke-width="2" fill="none" />
<polyline points="107.0,96.5,115.0,96.0,123.5,96.0,131.5,95.5" stroke="black" stroke-width="2" fill="none" />
<polyline points="134.5,104.0,120.5,110.0,123.5,109.0,131.0,108.5,139.0,104.5,146.5,99.5" stroke="black" stroke-width="2" fill="none" />
<polyline points="170.0,97.5,162.0,104.0,154.0,108.0,146.0,112.5,138.0,115.5,130.0,120.0,122.5,124.0,114.5,127.0,106.5,131.0,98.5,135.0,90.5,138.5,105.5,130.5,123.5,122.5,141.5,114.5,159.0,106.5,171.0,97.5,170.0,90.0,173.0,81.5,173.0,73.5,173.5,65.5,164.5,66.0,156.5,68.0" stroke="black" stroke-width="2" fill="none" />
<polyline points="159.5,55.0,151.5,58.0,143.5,62.0,135.5,64.5" stroke="black" stroke-width="2" fill="none" />
<polyline points="123.0,66.0,115.0,66.5,107.5,67.5,99.5,68.0,91.5,68.5" stroke="black" stroke-width="2" fill="none" />
<polyline points="91.0,75.0,99.0,75.0,101.0,79.0,109.0,76.0" stroke="black" stroke-width="2" fill="none" />
<polyline points="116.0,83.0,108.0,90.5,99.5,97.5" stroke="black" stroke-width="2" fill="none" />
<polyline points="93.5,59.0,110.5,66.5,129.0,74.5,129.0,87.0,133.5,82.5,150.5,90.0,151.5,93.5" stroke="black" stroke-width="2" fill="none" />
<polyline points="162.0,69.5,160.0,75.5,155.0,69.0,148.0,71.0,143.0,72.0,134.5,68.5,127.0,70.0,123.0,69.0,115.0,69.0,107.0,65.5,99.5,61.5,91.5,58.0" stroke="black" stroke-width="2" fill="none" />
<polyline points="91.5,59.0,99.5,58.5" stroke="black" stroke-width="2" fill="none" />
<polyline points="94.0,48.5,102.0,53.5,110.0,51.5,118.0,56.5" stroke="black" stroke-width="2" fill="none" />
<polyline points="138.0,49.5,146.5,53.0" stroke="black" stroke-width="2" fill="none" />
<polyline points="157.5,54.5,149.5,50.0,141.5,47.0,133.5,43.0,126.0,40.5,118.0,37.0,110.0,33.0,102.0,32.0" stroke="black" stroke-width="2" fill="none" />
<polyline points="102.5,32.5,110.5,36.5,118.5,40.5,126.0,44.0" stroke="black" stroke-width="2" fill="none" />
<polyline points="124.5,35.0,116.5,30.5,108.5,26.5,100.5,24.0,92.5,20.0" stroke="black" stroke-width="2" fill="none" />
<polyline points="93.0,19.0,111.0,27.0" stroke="black" stroke-width="2" fill="none" />
<polyline points="106.5,33.0,123.5,41.0,138.5,41.5,146.0,45.5,153.5,48.5,161.5,52.5,169.5,55.0" stroke="black" stroke-width="2" fill="none" />
<polyline points="165.5,50.5,157.0,46.5,149.0,42.5,140.5,39.0,132.0,34.5,124.0,31.5,115.5,27.0,107.5,23.0,99.5,18.5,91.5,18.5" stroke="black" stroke-width="2" fill="none" />
<polyline points="94.0,16.0,110.0,24.0,126.5,32.0,134.5,37.0,150.0,43.5" stroke="black" stroke-width="2" fill="none" />
<polyline points="154.0,50.5,138.5,42.5" stroke="black" stroke-width="2" fill="none" />
<polyline points="126.0,26.0,133.5,30.0,142.0,33.0,150.0,37.0,157.5,41.0,165.5,44.0" stroke="black" stroke-width="2" fill="none" />
<polyline points="164.5,41.5,156.0,37.5,148.0,33.5,140.5,30.5,133.0,26.5,125.0,23.0,117.5,20.0,110.0,15.0,102.0,13.0" stroke="black" stroke-width="2" fill="none" />
<polyline points="105.0,13.5,120.0,21.5,131.0,25.5,147.0,33.5,163.5,41.0" stroke="black" stroke-width="2" fill="none" />
<polyline points="170.0,65.5,171.5,73.5,165.5,78.0,173.5,86.5,173.5,95.0,173.5,103.0,170.5,111.0,171.0,119.5,171.0,127.0,171.0,135.0,171.0,142.5,171.5,151.0,171.0,159.0,172.0,167.5,170.5,175.5,171.5,183.0" stroke="black" stroke-width="2" fill="none" />
<polyline points="143.5,59.5,135.5,63.5,127.5,65.0,126.0,63.0,115.0,59.5,107.0,55.0,99.0,48.0,91.0,43.0" stroke="black" stroke-width="2" fill="none" />
<polyline points="91.0,49.5,91.0,57.5,91.0,65.0,90.5,72.5,91.5,80.0,91.5,88.0,91.5,95.5,91.5,104.0,92.0,112.0,92.0,120.0,93.0,116.0,95.0,121.0" stroke="black" stroke-width="2" fill="none" />
<polyline points="101.0,31.0,112.0,39.0,128.0,46.5,135.5,49.5,148.5,57.5,137.5,65.5,128.5,69.0,122.5,71.5,130.5,73.5,138.5,70.5,139.5,72.5,144.0,66.5,152.0,64.0,160.0,61.0,168.0,57.0" stroke="black" stroke-width="2" fill="none" />
<polyline points="159.0,42.0,142.0,34.0,124.5,26.0" stroke="black" stroke-width="2" fill="none" />
<polyline points="93.0,4.5,85.0,5.5" stroke="black" stroke-width="2" fill="none" />
<polyline points="90.5,2.5,90.5,10.5,91.0,18.5,91.0,26.5,91.0,34.5,91.0,42.0,94.0,48.0,101.5,53.5" stroke="black" stroke-width="2" fill="none" />
<polyline points="169.5,62.0,161.5,63.5,153.5,67.5,146.0,70.5,145.0,70.0,164.0,62.0,173.0,57.5,173.0,49.5,173.0,41.5,173.0,33.5,173.0,25.0,173.0,17.0,173.0,8.5,173.0,0.5" stroke="black" stroke-width="2" fill="none" />
<polyline points="172.0,2.0,172.0,10.0,171.5,18.0,170.5,26.0,171.0,34.0,170.5,42.5,169.5,48.5,167.0,56.0,156.0,59.0,149.0,60.0,149.0,66.0,136.0,75.0,130.0,78.0,139.0,81.5,156.5,89.5" stroke="black" stroke-width="2" fill="none" />
<polyline points="12.5,13.5,4.5,14.0" stroke="black" stroke-width="2" fill="none" />
<polyline points="4.5,7.5,12.5,7.0,20.5,6.0" stroke="black" stroke-width="2" fill="none" />
</svg>