<svg xmlns="http://www.w3.org/2000/svg" version="1.1"><polyline points="154.0,75.5,149.0,77.5" stroke="black" stroke-width="2" fill="none" />
<polyline points="164.0,78.0,172.0,77.5,180.5,77.0,188.5,76.5,196.5,75.5" stroke="black" stroke-width="2" fill="none" />
<polyline points="203.0,77.5,211.0,77.5" stroke="black" stroke-width="2" fill="none" />
<polyline points="220.5,71.5,228.0,73.5" stroke="black" stroke-width="2" fill="none" />
<polyline points="189.0,68.5,180.5,69.0" stroke="black" stroke-width="2" fill="none" />
<polyline points="171.5,87.0,164.0,87.5" stroke="black" stroke-width="2" fill="none" />
<polyline points="163.5,93.5,147.5,101.5,156.0,96.5,163.5,93.0,173.0,91.0,181.0,90.0" stroke="black" stroke-width="2" fill="none" />
<polyline points="175.0,91.0,188.0,91.5,184.5,99.5,187.0,98.5" stroke="black" stroke-width="2" fill="none" />
<polyline points="156.0,108.0,148.0,106.0,140.0,105.0,132.0,105.5" stroke="black" stroke-width="2" fill="none" />
<polyline points="133.5,87.5,141.5,87.0" stroke="black" stroke-width="2" fill="none" />
<polyline points="155.0,91.5,142.5,99.5,148.5,94.5,156.5,91.5,170.0,88.5,178.0,86.5,186.0,86.5,193.5,87.0,200.5,91.0,208.0,93.5,215.5,93.0,223.5,91.5,231.5,91.0" stroke="black" stroke-width="2" fill="none" />
<polyline points="228.0,138.5,219.0,139.0,211.0,139.5" stroke="black" stroke-width="2" fill="none" />
<polyline points="205.0,157.5,213.0,157.5,220.5,157.5,227.5,157.0,235.0,156.0,242.0,155.5,250.0,154.5,258.0,154.0" stroke="black" stroke-width="2" fill="none" />
<polyline points="261.5,164.0,253.5,164.5,245.5,165.0,237.5,165.5" stroke="black" stroke-width="2" fill="none" />
<polyline points="236.5,166.5,228.5,167.0,220.5,167.5,212.0,168.0,204.5,168.5,196.5,169.0,188.5,170.0,180.5,170.5,172.5,170.5,164.5,171.0,156.5,172.0,148.5,173.0,140.0,173.5,131.0,173.5,123.0,173.5,114.5,174.0,106.5,174.5,99.0,175.0,91.5,175.5,83.5,176.0,75.5,176.5,67.5,177.5,59.5,178.0,51.5,178.5,43.5,178.5,35.0,179.0,26.5,179.5,18.0,180.0,10.0,180.0,2.5,181.0" stroke="black" stroke-width="2" fill="none" />
<polyline points="4.0,179.5,12.0,172.0" stroke="black" stroke-width="2" fill="none" />
<polyline points="10.0,166.0,18.0,165.5" stroke="black" stroke-width="2" fill="none" />
<polyline points="28.0,169.5,36.0,169.5,44.0,168.5" stroke="black" stroke-width="2" fill="none" />
<polyline points="50.0,164.0,42.0,171.5,34.0,179.5,26.0,187.0,17.5,194.0,9.0,201.5,1.5,209.5" stroke="black" stroke-width="2" fill="none" />
<polyline points="4.5,208.0,12.5,207.5,20.5,206.5,29.0,206.0,37.0,206.0,45.0,205.0,53.0,205.0,60.5,204.0,68.0,203.5,75.5,203.0,83.5,202.5,91.0,202.0,99.5,202.0,108.0,201.5,116.5,200.5,125.0,200.0,132.5,198.5,140.0,197.5,148.0,196.5,156.0,195.0,164.0,194.5,171.5,194.0,179.5,194.0,187.5,194.0,195.5,193.5,203.5,193.5,211.5,193.0,220.0,193.0,228.5,193.0,236.0,192.5,243.5,192.0,251.5,191.0,259.5,190.5" stroke="black" stroke-width="2" fill="none" />
<polyline points="260.5,205.0,252.0,205.5,244.0,205.5,235.5,206.0,227.5,206.0,220.0,207.0,212.5,208.0,204.5,208.5,196.5,209.0,188.0,209.0,179.5,209.5,171.5,210.5,163.0,211.5,155.5,212.0,148.0,212.0,140.0,212.5,131.5,213.0,124.0,213.0,116.0,213.5,108.0,214.0,100.5,214.5,92.5,215.5,84.5,215.5,77.0,216.5,69.0,217.5,60.5,218.5,52.0,219.5,44.0,220.0,36.5,220.0,29.0,220.0,21.0,220.0,12.5,220.0,4.5,220.5" stroke="black" stroke-width="2" fill="none" />
<polyline points="4.5,223.0,13.0,215.0,21.0,208.0,29.0,200.0,36.5,192.5,44.0,185.5,52.0,178.0,60.5,170.5" stroke="black" stroke-width="2" fill="none" />
<polyline points="57.5,176.5,66.0,178.5" stroke="black" stroke-width="2" fill="none" />
<polyline points="69.0,180.0,60.0,187.5,52.0,195.0,43.5,203.0,35.0,211.0,27.0,219.0,19.0,226.5,11.0,234.0,2.5,241.5" stroke="black" stroke-width="2" fill="none" />
<polyline points="4.0,242.0,11.5,241.0,19.5,241.0,27.5,240.5,35.0,239.5" stroke="black" stroke-width="2" fill="none" />
<polyline points="41.0,230.0,49.0,227.5" stroke="black" stroke-width="2" fill="none" />
<polyline points="53.0,229.5,45.0,231.0" stroke="black" stroke-width="2" fill="none" />
<polyline points="50.0,233.0,58.0,232.5,66.0,231.5,74.5,231.0,83.0,231.0,91.0,231.0" stroke="black" stroke-width="2" fill="none" />
<polyline points="100.0,235.5,107.5,234.5" stroke="black" stroke-width="2" fill="none" />
<polyline points="116.0,244.0,124.0,243.5,131.5,242.5,139.5,241.0" stroke="black" stroke-width="2" fill="none" />
<polyline points="134.5,245.0,133.5,251.0,141.5,253.0,151.5,239.0,160.5,239.5,170.5,233.5" stroke="black" stroke-width="2" fill="none" />
<polyline points="176.0,243.5,182.5,244.5,190.0,238.5" stroke="black" stroke-width="2" fill="none" />
<polyline points="197.0,235.5,204.5,235.0" stroke="black" stroke-width="2" fill="none" />
<polyline points="201.5,229.0,193.0,236.5,185.0,243.0,177.0,250.5,169.5,258.0" stroke="black" stroke-width="2" fill="none" />
<polyline points="179.0,258.0,186.5,250.5,194.0,243.5,202.0,236.0,210.0,228.5" stroke="black" stroke-width="2" fill="none" />
<polyline points="220.5,227.5,212.0,235.0,203.5,242.5,195.5,250.5,187.5,258.0" stroke="black" stroke-width="2" fill="none" />
<polyline points="188.5,258.0,180.5,258.0" stroke="black" stroke-width="2" fill="none" />
<polyline points="203.5,258.0,212.0,250.5,220.5,242.5,228.0,235.0" stroke="black" stroke-width="2" fill="none" />
<polyline points="234.5,237.0,227.0,244.5,219.5,252.5,211.5,259.5" stroke="black" stroke-width="2" fill="none" />
<polyline points="218.5,258.5,226.0,251.0,233.5,243.0,241.0,235.5" stroke="black" stroke-width="2" fill="none" />
<polyline points="244.5,242.5,236.5,250.5,228.0,258.5" stroke="black" stroke-width="2" fill="none" />
<polyline points="243.5,260.0,251.5,253.0" stroke="black" stroke-width="2" fill="none" />
<polyline points="252.5,257.0,261.0,250.0" stroke="black" stroke-width="2" fill="none" />
<polyline points="252.5,243.0,245.0,251.0,236.5,258.5" stroke="black" stroke-width="2" fill="none" />
<polyline points="238.5,230.5,237.0,234.5,240.5,229.5,237.5,223.5,246.5,223.5,247.0,215.0,253.5,212.5,241.5,215.0,240.5,218.0,237.0,226.5,228.5,227.5,220.5,227.5,212.5,226.0,205.0,223.5,212.0,215.5,220.0,214.0,231.0,211.0,242.0,206.0,244.0,198.0,241.0,197.0,234.0,184.0,230.0,169.5,234.5,168.5,244.5,164.0,237.5,164.5,229.5,169.5" stroke="black" stroke-width="2" fill="none" />
<polyline points="237.0,173.5,245.0,173.0,252.5,172.0,260.0,172.0" stroke="black" stroke-width="2" fill="none" />
<polyline points="260.0,181.5,252.5,181.5,244.5,181.5,236.5,182.0,228.5,182.5,220.0,183.0,211.0,183.5,202.0,183.5,194.5,184.5,187.0,185.0,179.5,186.0,172.0,186.5,164.5,186.5,156.5,187.0,148.0,188.0,139.5,189.0,132.0,190.5,124.5,191.5,116.5,192.0,108.0,192.0,100.0,192.5,92.0,192.5,84.5,193.0,76.0,194.0,68.0,194.0,59.5,195.0,51.5,196.5,43.0,197.0,35.5,197.0,28.5,197.0,20.5,197.0,13.0,197.5,5.0,198.0" stroke="black" stroke-width="2" fill="none" />
<polyline points="3.0,195.5,11.0,194.5,19.5,194.0,28.5,193.0" stroke="black" stroke-width="2" fill="none" />
<polyline points="35.0,194.5,43.0,194.0,50.5,193.5,58.5,192.5" stroke="black" stroke-width="2" fill="none" />
<polyline points="61.5,192.0,69.0,193.0,78.0,181.5" stroke="black" stroke-width="2" fill="none" />
<polyline points="78.0,180.0,86.0,178.0,94.0,180.0,106.0,179.5,114.0,183.5" stroke="black" stroke-width="2" fill="none" />
<polyline points="115.0,187.5,107.5,194.5,99.5,201.5" stroke="black" stroke-width="2" fill="none" />
<polyline points="92.0,198.5,84.0,199.0,75.5,199.5,67.5,199.5,59.5,200.0,51.0,201.0" stroke="black" stroke-width="2" fill="none" />
<polyline points="68.5,206.0,76.5,206.0,84.5,206.0" stroke="black" stroke-width="2" fill="none" />
<polyline points="85.5,200.5,93.5,199.5,101.5,199.5,107.0,201.5,93.0,210.0,80.0,222.0,79.0,218.0,85.5,216.0,87.0,212.5,95.0,209.0,103.0,204.0" stroke="black" stroke-width="2" fill="none" />
<polyline points="108.5,200.0,117.5,192.5,126.0,184.5,133.5,176.5" stroke="black" stroke-width="2" fill="none" />
<polyline points="138.5,180.5,131.0,188.0,123.5,195.5,115.5,202.5,108.0,209.5,100.5,216.0,93.0,223.5,84.5,230.5,76.5,238.0,69.0,246.0,61.0,253.0" stroke="black" stroke-width="2" fill="none" />
<polyline points="73.0,255.0,81.5,247.0,89.5,240.0,97.5,232.5,105.5,225.0,114.0,217.5,122.0,209.5,129.5,202.0,138.0,194.0,146.0,186.5,154.5,179.0" stroke="black" stroke-width="2" fill="none" />
<polyline points="149.0,175.0,147.5,175.0,147.5,171.0,139.5,171.0,135.5,180.5,142.0,184.5,140.5,189.5" stroke="black" stroke-width="2" fill="none" />
<polyline points="139.0,187.0,147.0,179.5" stroke="black" stroke-width="2" fill="none" />
<polyline points="163.5,179.0,155.0,186.5,147.5,193.5,139.5,201.0,131.5,208.5,123.5,215.5,115.5,223.0,107.0,231.0,99.0,238.5,91.0,246.5,83.0,254.0" stroke="black" stroke-width="2" fill="none" />
<polyline points="85.5,250.0,93.5,253.0" stroke="black" stroke-width="2" fill="none" />
<polyline points="92.5,252.5,101.0,246.0,108.5,238.5,116.0,231.0,123.5,224.5,131.5,217.5,139.5,210.5,147.5,203.5,156.0,196.5,164.0,189.0" stroke="black" stroke-width="2" fill="none" />
<polyline points="163.5,195.5,155.5,203.0,147.5,211.0,139.5,218.0,131.5,225.5,123.5,232.0,115.5,240.0,108.0,247.5,100.5,255.0" stroke="black" stroke-width="2" fill="none" />
<polyline points="108.5,257.5,116.0,250.0,123.0,242.0,130.0,234.5,138.0,227.0,146.0,219.5,154.0,211.5,162.5,204.0,170.5,196.5" stroke="black" stroke-width="2" fill="none" />
<polyline points="169.5,203.0,162.5,210.5,155.0,218.0,147.5,225.5,140.0,233.0,132.0,241.0,124.0,248.5,116.0,256.5" stroke="black" stroke-width="2" fill="none" />
<polyline points="131.5,255.5,139.5,248.5,147.5,241.0,156.0,233.5,164.5,226.0,173.0,218.5,180.5,210.5,188.0,203.0" stroke="black" stroke-width="2" fill="none" />
<polyline points="192.0,200.5,199.5,200.5,207.5,198.5,215.0,196.5" stroke="black" stroke-width="2" fill="none" />
<polyline points="211.5,194.0,202.5,207.0,199.5,206.0,191.0,205.5,183.0,207.5,175.0,206.5" stroke="black" stroke-width="2" fill="none" />
<polyline points="175.5,209.5,184.0,213.5,192.0,217.0,199.5,216.5,207.0,215.0,215.0,212.0" stroke="black" stroke-width="2" fill="none" />
<polyline points="218.0,211.5,210.0,219.5" stroke="black" stroke-width="2" fill="none" />
<polyline points="203.0,219.5,195.0,227.5,186.5,234.5,178.5,242.0,171.0,250.0,163.5,258.0" stroke="black" stroke-width="2" fill="none" />
<polyline points="165.0,256.0,157.0,257.0" stroke="black" stroke-width="2" fill="none" />
<polyline points="156.5,255.5,164.5,247.5,172.5,240.5,180.0,233.5,188.0,226.5,196.5,219.0" stroke="black" stroke-width="2" fill="none" />
<polyline points="195.0,220.0,203.0,226.5,209.5,217.0,218.0,213.0,222.0,216.0" stroke="black" stroke-width="2" fill="none" />
<polyline points="234.0,219.0,242.5,211.5" stroke="black" stroke-width="2" fill="none" />
<polyline points="245.5,214.0,231.5,222.5,229.0,230.5,233.0,221.5,238.0,215.5,246.0,213.5" stroke="black" stroke-width="2" fill="none" />
<polyline points="244.5,220.5,241.5,228.5,245.5,240.5,255.0,247.5" stroke="black" stroke-width="2" fill="none" />
<polyline points="252.0,226.0,260.0,218.5" stroke="black" stroke-width="2" fill="none" />
<polyline points="257.5,212.5,250.0,220.0,242.0,227.0" stroke="black" stroke-width="2" fill="none" />
<polyline points="244.0,225.0,251.5,221.0,254.0,230.0,253.0,237.5,247.0,244.5,255.5,239.0,254.5,224.0" stroke="black" stroke-width="2" fill="none" />
<polyline points="228.5,227.0,220.5,234.0,212.0,242.0,204.0,249.0,196.0,256.0" stroke="black" stroke-width="2" fill="none" />
<polyline points="209.5,246.5,217.5,251.0" stroke="black" stroke-width="2" fill="none" />
<polyline points="206.5,217.5,198.0,218.0" stroke="black" stroke-width="2" fill="none" />
<polyline points="195.5,211.5,188.0,219.0,180.0,226.0,172.0,233.0,164.0,240.0,156.0,247.5,148.0,254.5" stroke="black" stroke-width="2" fill="none" />
<polyline points="148.5,248.5,156.5,248.5,164.5,247.5" stroke="black" stroke-width="2" fill="none" />
<polyline points="158.5,230.0,167.0,226.0,175.5,227.0,187.0,234.0,193.5,229.0" stroke="black" stroke-width="2" fill="none" />
<polyline points="181.0,203.5,173.0,211.0,164.5,218.0,156.5,225.5,147.5,233.0,139.0,240.5,130.5,248.5,122.0,256.0" stroke="black" stroke-width="2" fill="none" />
<polyline points="124.0,251.0,133.0,243.0" stroke="black" stroke-width="2" fill="none" />
<polyline points="123.5,235.5,131.0,235.0,139.5,235.0,148.0,234.5" stroke="black" stroke-width="2" fill="none" />
<polyline points="146.0,234.0,156.0,233.5,148.0,241.5,143.0,249.5,157.0,256.0" stroke="black" stroke-width="2" fill="none" />
<polyline points="140.0,256.5,148.0,248.5,156.0,240.0,164.0,232.5,171.5,224.0,178.5,216.0,186.0,208.0,193.5,200.0,201.5,193.0" stroke="black" stroke-width="2" fill="none" />
<polyline points="186.5,194.5,194.5,192.5,202.5,190.5,210.5,191.0,219.0,187.0,227.0,188.5,226.0,198.5,223.0,206.5,209.5,206.5,218.0,205.5,229.0,210.5,236.5,208.5,244.5,208.5,252.5,207.5" stroke="black" stroke-width="2" fill="none" />
<polyline points="259.0,229.5,251.0,230.0,243.0,230.0,235.0,230.5,227.0,230.5,219.0,231.0,211.5,231.0,203.5,231.5,195.5,232.5,187.5,233.0,179.5,233.5,171.0,234.5,163.5,235.0,155.5,235.5,147.5,236.5,140.0,237.5,132.0,238.0,124.5,238.0,117.0,239.0,109.0,240.0,101.0,240.5,92.5,241.0,84.5,241.0,76.5,241.5,68.5,241.5,60.5,242.0,53.0,243.0,45.0,243.5,37.0,243.5,28.5,244.5,20.5,245.0,12.5,245.5,4.5,245.5" stroke="black" stroke-width="2" fill="none" />
<polyline points="3.5,248.0,11.5,240.5,19.5,232.5,27.5,224.5,35.5,217.0,43.0,210.0,51.0,202.5,59.0,195.5,67.0,187.5" stroke="black" stroke-width="2" fill="none" />
<polyline points="74.0,185.5,66.0,193.0,58.5,200.5,51.0,208.5,43.5,217.0,35.5,224.5,27.0,232.5,18.5,240.0,10.0,248.0,1.5,255.5" stroke="black" stroke-width="2" fill="none" />
<polyline points="5.0,256.5,13.5,256.0,21.0,255.5,29.0,255.5,37.0,256.0,45.0,256.0,53.0,256.0,61.0,255.5,69.0,254.5,77.0,253.0,85.0,252.5,93.0,252.5" stroke="black" stroke-width="2" fill="none" />
<polyline points="91.0,246.5,99.0,248.0" stroke="black" stroke-width="2" fill="none" />
<polyline points="101.0,242.5,93.0,244.0" stroke="black" stroke-width="2" fill="none" />
<polyline points="84.5,238.5,76.0,239.0,68.0,239.0,59.5,239.5" stroke="black" stroke-width="2" fill="none" />
<polyline points="68.5,254.0,76.0,247.0,84.0,239.5,92.5,232.0,100.5,224.5,107.5,217.0,115.5,210.0,124.0,203.0,132.5,195.5" stroke="black" stroke-width="2" fill="none" />
<polyline points="133.0,201.5,125.0,202.5,117.0,203.0" stroke="black" stroke-width="2" fill="none" />
<polyline points="116.5,207.5,124.0,205.0,132.0,203.0" stroke="black" stroke-width="2" fill="none" />
<polyline points="132.0,209.5,140.0,209.0,148.0,208.0,156.0,207.5,163.5,207.0,171.5,207.0" stroke="black" stroke-width="2" fill="none" />
<polyline points="171.5,214.0,164.0,215.5,156.5,216.5,148.5,217.0,140.0,217.0,132.0,217.5,124.0,217.5,116.5,218.0" stroke="black" stroke-width="2" fill="none" />
<polyline points="105.5,218.0,97.5,218.0" stroke="black" stroke-width="2" fill="none" />
<polyline points="98.0,212.5,90.5,219.5,82.5,227.5,75.0,235.0,67.0,242.0,59.5,249.5,52.0,257.0" stroke="black" stroke-width="2" fill="none" />
<polyline points="36.5,253.0,43.5,245.5,51.0,238.0,58.5,231.0,66.0,223.5,74.0,216.5,81.5,209.5,89.5,202.5,97.5,195.0,105.5,187.0" stroke="black" stroke-width="2" fill="none" />
<polyline points="99.0,187.0,90.5,194.5,82.5,202.5,74.0,210.5,66.0,218.0,57.5,226.0,50.0,234.0,42.0,241.5,34.0,248.5,25.5,256.0" stroke="black" stroke-width="2" fill="none" />
<polyline points="43.5,257.0,51.5,249.5,59.5,241.5,67.5,234.0,75.5,226.0,83.5,218.0,92.0,210.5" stroke="black" stroke-width="2" fill="none" />
<polyline points="91.0,203.5,88.0,211.5,98.0,202.5" stroke="black" stroke-width="2" fill="none" />
<polyline points="93.0,186.5,85.0,194.0,76.5,201.5,68.5,209.5,61.0,218.0,53.5,225.5,45.0,232.5,37.5,239.5,29.5,247.0,21.0,254.5" stroke="black" stroke-width="2" fill="none" />
<polyline points="12.5,254.0,20.5,246.5,28.0,239.0,35.0,231.5,42.0,223.5,50.5,216.5,59.0,209.0,67.5,202.0,76.0,194.5,84.5,186.5" stroke="black" stroke-width="2" fill="none" />
<polyline points="68.5,171.0,60.5,178.5,52.5,186.5,44.5,194.0,36.5,201.0,28.5,208.5,20.0,216.0,12.5,223.5,4.5,231.0" stroke="black" stroke-width="2" fill="none" />
<polyline points="4.5,228.5,12.5,228.0,19.5,228.0,27.5,227.5,35.0,227.0,43.5,226.0,51.5,226.0,60.0,226.0,68.0,225.5,76.0,225.5,84.0,225.0,92.0,224.5,100.5,224.0,108.5,223.5,116.5,222.5,124.5,221.0,133.0,220.5,141.0,220.0,148.5,220.0,156.0,220.5,164.5,219.5,172.0,219.0,179.5,218.0,187.5,217.0,196.5,216.5,204.5,216.0,212.0,215.5,220.0,215.0,228.5,214.0,236.5,213.5,244.5,213.0,252.5,212.5,260.0,212.0" stroke="black" stroke-width="2" fill="none" />
<polyline points="260.0,237.0,252.5,237.5,244.5,238.0,236.5,238.5,228.5,239.0,220.0,239.5,211.5,240.0,203.5,240.0,195.5,241.5,187.5,242.0,179.5,243.0,171.5,243.0,163.5,243.5,155.5,244.0,147.0,245.0,139.0,246.0,131.5,247.0,123.5,247.5,115.5,248.0,107.0,248.0,99.0,248.0,91.0,248.5,83.0,248.5,75.5,249.5,67.5,250.5,60.0,251.0,53.0,252.0,45.0,252.0,36.5,252.5,28.5,252.5,20.5,252.0,13.0,251.5,5.5,252.0" stroke="black" stroke-width="2" fill="none" />
<polyline points="3.0,249.5,11.0,249.0,19.5,249.0,28.0,248.5,35.5,248.0,44.0,247.0,52.0,247.0,60.5,247.0,68.5,247.0,77.0,247.0" stroke="black" stroke-width="2" fill="none" />
<polyline points="81.5,247.5,89.5,246.5,97.0,234.0" stroke="black" stroke-width="2" fill="none" />
<polyline points="83.0,223.0,91.5,222.5,99.5,222.5,107.5,222.0,115.5,221.5,124.0,221.0,132.0,220.5,140.5,220.0,148.5,220.0,156.0,219.5,164.5,219.5,172.0,219.0,180.0,218.5,188.5,217.5,197.0,217.0" stroke="black" stroke-width="2" fill="none" />
<polyline points="187.0,207.0,191.0,201.0,195.0,187.5,198.0,179.5,202.0,178.5,192.5,181.5,184.0,179.0" stroke="black" stroke-width="2" fill="none" />
<polyline points="185.5,179.5,201.5,187.5,203.5,182.5,209.5,187.0,219.0,192.0,227.0,194.0" stroke="black" stroke-width="2" fill="none" />
<polyline points="216.5,189.5,211.5,195.0,209.0,205.0,207.5,206.5,215.5,202.5,224.5,204.5,233.0,204.5,242.0,202.5,245.0,204.5" stroke="black" stroke-width="2" fill="none" />
<polyline points="260.0,196.5,252.0,197.0,244.0,197.5,236.0,198.0,228.0,199.0,219.5,200.0,212.0,201.0,203.5,201.5,195.0,202.0,187.0,203.0,178.5,203.5,170.5,203.5,162.0,204.5,154.0,204.5,146.0,204.0,138.5,204.5,131.0,205.0,123.5,206.0,115.5,206.0,108.0,206.5,100.0,207.0,92.0,208.0,84.0,208.5,76.5,209.0,68.5,209.5,60.5,210.0,52.5,210.0,44.5,211.0,36.5,211.5,28.0,212.0,20.0,212.5,11.5,213.0,3.0,213.5" stroke="black" stroke-width="2" fill="none" />
<polyline points="4.0,212.0,12.5,211.5,20.5,211.0,28.5,210.0,36.5,209.5" stroke="black" stroke-width="2" fill="none" />
<polyline points="30.5,212.0,38.5,210.5,46.5,208.0" stroke="black" stroke-width="2" fill="none" />
<polyline points="42.5,203.0,34.5,203.5,26.0,204.0" stroke="black" stroke-width="2" fill="none" />
<polyline points="20.0,201.5,12.0,201.5,4.0,202.0" stroke="black" stroke-width="2" fill="none" />
<polyline points="2.0,203.0,10.5,194.5,19.0,186.5,27.0,178.0,34.5,170.5" stroke="black" stroke-width="2" fill="none" />
<polyline points="27.5,171.0,19.5,178.0,11.0,185.5,3.0,193.5" stroke="black" stroke-width="2" fill="none" />
<polyline points="2.5,190.0,10.5,189.5,18.5,188.5,27.0,188.0,35.5,187.0,44.0,187.0,52.0,186.5,59.5,187.0,67.5,187.0,75.5,187.0,84.0,186.5,91.5,185.5,99.0,184.5,106.5,183.5,114.0,182.5,122.0,181.5,130.0,181.0,138.0,180.5,146.5,180.0,154.5,180.0,163.0,179.5,171.0,179.5,179.0,178.5,187.0,178.0,195.5,177.0,203.5,176.5,211.5,176.5,219.5,176.5,227.5,176.0,235.0,175.0,242.5,174.5" stroke="black" stroke-width="2" fill="none" />
<polyline points="245.0,182.5,246.0,191.0" stroke="black" stroke-width="2" fill="none" />
<polyline points="228.5,172.0,220.0,173.0,212.5,174.0,204.5,175.0" stroke="black" stroke-width="2" fill="none" />
<polyline points="210.0,177.0,229.0,184.0,230.0,198.0,238.0,196.5,246.0,198.5,254.0,199.0" stroke="black" stroke-width="2" fill="none" />
<polyline points="259.5,222.0,252.0,222.5,244.0,223.0,236.0,223.5,227.5,223.5,219.5,224.0,212.0,224.5,204.5,225.0,196.0,225.5,187.5,226.0,179.0,226.5,171.0,227.0,163.0,227.5,154.5,228.0,147.0,228.0,139.0,229.0,131.5,229.5,123.5,231.0,116.5,231.5,108.5,232.0,100.0,232.5,91.5,233.0,83.5,234.0,75.5,234.0,67.5,234.0,59.5,234.5,52.0,234.5,43.5,235.0,36.0,235.5,27.5,235.5,19.0,235.5,11.0,236.0,2.5,236.5" stroke="black" stroke-width="2" fill="none" />
<polyline points="3.0,233.5,11.0,233.0,18.5,232.5,26.5,231.5,34.5,231.5,42.5,231.0" stroke="black" stroke-width="2" fill="none" />
<polyline points="69.0,221.5,60.5,222.0,52.0,222.5,43.5,223.0,36.0,224.0,28.0,225.0,20.5,225.5,13.0,226.5,5.5,226.5" stroke="black" stroke-width="2" fill="none" />
<polyline points="3.5,216.0,11.5,208.5,19.0,201.0,27.5,193.0,35.5,185.5,44.0,178.5,51.5,171.5" stroke="black" stroke-width="2" fill="none" />
<polyline points="53.0,173.5,53.0,176.5,61.0,177.5,68.0,185.0,70.0,187.0,78.5,188.5,83.5,188.0,91.5,187.0,101.5,180.0,109.5,176.5,117.5,179.5,118.5,174.5,126.5,174.5,135.5,174.0,144.0,172.0" stroke="black" stroke-width="2" fill="none" />
<polyline points="145.0,174.0,139.0,185.0,132.5,180.5,126.0,188.0,118.0,189.5,109.5,185.5,101.5,184.0,97.0,190.0,89.0,184.0,81.0,184.0,73.0,182.5,65.5,182.0,57.5,185.0,50.0,183.5,41.5,183.5,33.5,185.0" stroke="black" stroke-width="2" fill="none" />
<polyline points="28.0,186.0,30.0,188.0,30.0,184.5,26.5,187.5,30.5,190.0,34.0,194.0,43.0,194.0,48.0,200.5,56.0,201.5,54.0,205.5,59.5,206.5,64.5,202.5,48.5,207.5,29.5,212.5,37.0,207.0,45.0,204.5" stroke="black" stroke-width="2" fill="none" />
<polyline points="74.5,212.0,66.5,212.0,58.5,212.5,50.5,213.5,42.5,214.0,34.0,214.5,26.0,214.5,18.0,215.0,10.0,215.5,2.0,215.5" stroke="black" stroke-width="2" fill="none" />
<polyline points="3.5,187.5,11.5,179.5" stroke="black" stroke-width="2" fill="none" />
<polyline points="15.5,186.0,23.5,183.0,27.5,184.5,28.5,176.5,36.5,179.5,44.5,178.5,53.5,171.0,62.0,171.5,63.5,167.5,72.0,167.5,80.5,166.5,92.5,170.5,100.0,172.0,108.0,169.0,112.0,168.5,118.0,164.5,126.0,163.5,130.0,166.5,138.0,166.0,141.5,168.0,149.5,168.0,153.5,176.0,162.0,177.0,163.0,185.0,165.5,189.0,173.0,183.0,177.0,179.0,186.0,182.0" stroke="black" stroke-width="2" fill="none" />
<polyline points="187.0,187.5,185.5,193.5,187.5,183.0,183.5,181.0,176.0,181.0,168.0,179.0" stroke="black" stroke-width="2" fill="none" />
<polyline points="168.5,174.0,169.5,175.0,185.5,185.0,184.5,190.0,181.0,198.0,176.0,210.0,193.0,218.0,195.5,227.0,189.5,239.0,197.0,244.0,191.0,252.0,193.5,249.0" stroke="black" stroke-width="2" fill="none" />
<polyline points="154.0,210.5,146.0,212.5" stroke="black" stroke-width="2" fill="none" />
<polyline points="134.0,194.5,131.5,186.5" stroke="black" stroke-width="2" fill="none" />
<polyline points="139.0,192.5,134.0,189.5,125.5,191.5,114.5,185.0,113.0,178.5,115.5,171.5,124.5,168.5,116.5,170.5" stroke="black" stroke-width="2" fill="none" />
<polyline points="107.0,164.0,99.0,164.0,94.0,157.5,86.5,158.5" stroke="black" stroke-width="2" fill="none" />
<polyline points="83.0,155.5,91.0,155.5,99.0,154.5,107.5,154.5,116.0,153.5,124.0,151.0" stroke="black" stroke-width="2" fill="none" />
<polyline points="119.0,144.0,120.5,152.0,124.5,156.5,135.5,158.5,143.5,159.5" stroke="black" stroke-width="2" fill="none" />
<polyline points="134.0,160.0,127.0,168.0,123.5,180.0,125.5,181.5,132.0,185.0,135.0,194.0,143.0,195.0,148.0,196.0,155.5,197.0,163.5,197.5,171.5,199.0,173.5,201.5,182.0,195.5,189.5,197.0,197.5,195.0" stroke="black" stroke-width="2" fill="none" />
<polyline points="195.5,188.0,187.5,190.0,179.0,185.0,171.5,194.0,167.5,192.0,172.5,192.5,176.5,184.5" stroke="black" stroke-width="2" fill="none" />
<polyline points="165.5,162.5,173.5,165.5,174.0,168.0,182.0,166.0,190.0,172.5,198.0,174.5,206.0,172.5,216.0,178.5,224.0,183.0,229.5,180.0,237.5,184.0,245.5,184.0,254.0,183.0" stroke="black" stroke-width="2" fill="none" />
<polyline points="252.5,167.5,244.0,163.0" stroke="black" stroke-width="2" fill="none" />
<polyline points="221.5,165.5,213.5,166.0" stroke="black" stroke-width="2" fill="none" />
<polyline points="215.0,162.5,223.0,161.5" stroke="black" stroke-width="2" fill="none" />
<polyline points="196.5,141.0,188.0,141.5,179.5,142.0,171.5,143.0" stroke="black" stroke-width="2" fill="none" />
<polyline points="174.5,135.5,182.5,135.5,190.5,133.5,198.5,132.5,206.0,130.0,214.0,127.5,221.5,126.0,229.0,128.0,237.0,129.0,245.0,130.5,253.0,127.5" stroke="black" stroke-width="2" fill="none" />
<polyline points="233.5,143.5,225.5,144.0,217.5,144.0,209.5,145.0,202.0,146.0,194.5,146.0,186.0,146.5,177.5,147.0,169.5,147.0,162.0,147.0,154.0,147.5,146.5,148.0,138.5,148.5" stroke="black" stroke-width="2" fill="none" />
<polyline points="133.5,144.5,125.5,145.0,117.0,145.5,109.0,146.0,100.5,146.5,92.5,147.0,84.5,147.5,75.5,147.5,67.0,148.0,58.5,149.0,50.5,149.5" stroke="black" stroke-width="2" fill="none" />
<polyline points="56.0,143.0,64.0,139.0,72.0,138.5,79.5,141.5,87.5,142.0,95.5,140.0,104.0,138.0,112.5,140.5,120.5,143.5,128.5,148.0,137.0,149.0,144.5,145.0,152.5,147.0,160.5,144.0,168.5,141.5,176.5,141.0,184.5,141.0,192.5,138.5,201.0,140.0,208.5,139.0,216.5,136.5,212.5,142.0,202.5,152.0,199.0,158.0,198.0,156.0" stroke="black" stroke-width="2" fill="none" />
<polyline points="197.0,160.0,188.5,160.5,180.0,161.5,172.0,162.0,164.5,162.5,156.0,162.5,148.5,163.0,140.5,163.0,132.0,163.5,124.0,164.0,115.5,164.5,107.5,165.0,99.5,165.5,91.5,165.5,83.0,166.0,75.0,167.0,67.5,167.5,59.5,168.0,51.0,168.5,43.5,169.0,35.5,169.5,27.5,170.0,19.5,170.5,11.5,171.5,3.5,171.5" stroke="black" stroke-width="2" fill="none" />
<polyline points="1.5,167.5,9.5,163.5,18.0,163.5,26.0,164.0,31.5,165.0,39.0,165.0,47.5,165.0,55.0,165.5,63.0,163.5,71.0,163.5" stroke="black" stroke-width="2" fill="none" />
<polyline points="68.5,160.0,66.5,168.0,72.5,170.0,83.5,164.5,91.5,162.5,100.0,156.5,108.0,158.5,116.0,158.5" stroke="black" stroke-width="2" fill="none" />
<polyline points="108.5,138.5,100.5,138.5,92.5,139.0,84.5,140.0,76.5,140.5,68.0,141.5,60.0,141.5" stroke="black" stroke-width="2" fill="none" />
<polyline points="64.0,138.5,56.5,148.5,64.5,147.5" stroke="black" stroke-width="2" fill="none" />
<polyline points="76.5,155.5,85.0,154.5,93.0,154.5,101.0,154.5,108.5,154.5,116.5,154.5,123.5,154.5,130.5,154.0,138.0,154.0,146.0,154.0,154.0,153.0,162.0,152.5,170.0,152.5" stroke="black" stroke-width="2" fill="none" />
<polyline points="159.5,159.0,171.5,158.0,184.5,168.5" stroke="black" stroke-width="2" fill="none" />
<polyline points="187.5,153.0,179.5,153.5,172.0,154.5,163.5,155.5,156.0,156.0,148.0,156.0,139.5,156.5,131.0,156.5,123.0,157.5,115.0,157.0,107.5,157.5,100.0,157.5,92.5,158.0,84.5,158.5,77.0,159.0,68.5,159.0,60.0,159.5,52.0,160.0,43.5,160.5,35.0,161.0,26.5,162.0,18.5,162.5,10.0,163.0,2.0,164.0" stroke="black" stroke-width="2" fill="none" />
<polyline points="2.5,177.5,10.0,176.0,18.0,175.5,26.0,175.5,34.0,173.0" stroke="black" stroke-width="2" fill="none" />
<polyline points="17.5,184.5,9.5,184.5,1.5,185.0" stroke="black" stroke-width="2" fill="none" />
<polyline points="4.5,139.5,12.0,139.0,20.0,139.0,28.0,139.0,36.5,138.5,45.0,138.5,53.0,137.5" stroke="black" stroke-width="2" fill="none" />
<polyline points="53.0,128.5,45.0,129.0,37.0,130.0,28.5,131.5,20.0,132.5,11.5,133.0,3.0,133.5" stroke="black" stroke-width="2" fill="none" />
<polyline points="6.0,133.0,14.0,137.5,22.0,132.5,31.0,141.5,39.0,142.0" stroke="black" stroke-width="2" fill="none" />
<polyline points="52.5,122.0,44.5,122.5,35.5,123.5,27.5,124.5,19.0,125.5,11.5,126.0,3.5,126.5" stroke="black" stroke-width="2" fill="none" />
<polyline points="2.0,129.0,2.5,124.0,10.5,119.0,18.5,122.0,24.5,129.0,25.5,133.0,22.0,141.0,31.0,138.5,42.5,132.0,50.5,132.0,53.5,127.5" stroke="black" stroke-width="2" fill="none" />
<polyline points="44.0,114.0,36.0,115.0,28.0,116.0,19.5,117.0,11.0,118.5,3.0,118.5" stroke="black" stroke-width="2" fill="none" />
<polyline points="3.0,114.5,10.5,114.5,18.0,114.0,26.0,115.0,34.0,117.5,42.0,117.5,50.0,117.5,58.5,120.0,66.5,119.0,74.5,120.5,82.5,120.5,90.5,121.5,98.5,121.5,107.0,123.5" stroke="black" stroke-width="2" fill="none" />
<polyline points="99.5,85.0,107.5,84.5,115.0,84.0,122.5,83.5" stroke="black" stroke-width="2" fill="none" />
<polyline points="126.0,71.0,134.0,69.5" stroke="black" stroke-width="2" fill="none" />
<polyline points="92.5,83.0,84.5,83.5" stroke="black" stroke-width="2" fill="none" />
<polyline points="91.5,95.0,83.0,96.0,75.0,96.5,66.5,97.0,58.5,97.5,50.0,98.5,41.5,99.0,34.0,99.5,26.5,100.5,18.5,101.0,10.0,101.5,2.0,102.0" stroke="black" stroke-width="2" fill="none" />
<polyline points="3.5,95.0,11.0,92.0,18.5,92.0,26.5,91.0,34.5,89.5,42.0,89.0,50.5,88.0,58.5,88.0,67.0,86.0,75.0,87.0,83.0,86.0,91.0,87.5,102.0,88.0,110.5,88.0,118.5,86.0,126.5,88.0" stroke="black" stroke-width="2" fill="none" />
<polyline points="99.0,87.0,90.5,88.0,82.5,88.5,74.5,89.0,66.5,90.0,58.0,91.0,50.0,91.5,41.5,92.5,33.5,93.0,26.0,93.0,18.0,93.0,10.5,93.5,2.5,93.5" stroke="black" stroke-width="2" fill="none" />
<polyline points="10.5,87.0,18.5,86.0,27.0,84.5,35.0,83.5" stroke="black" stroke-width="2" fill="none" />
<polyline points="19.5,79.0,27.5,79.0,31.0,82.0,39.0,80.0,47.5,80.0,56.0,80.0,64.0,79.0,71.0,79.0,80.0,77.0,88.0,76.0" stroke="black" stroke-width="2" fill="none" />
<polyline points="98.5,66.0,90.5,66.5,82.0,67.0,74.0,67.0,66.0,67.0,58.5,67.0,50.5,67.0,43.0,67.0,35.5,67.5,28.5,68.0,20.5,69.0,12.5,70.0,4.5,70.5" stroke="black" stroke-width="2" fill="none" />
<polyline points="3.5,78.0,11.5,77.0,19.0,77.5,27.0,77.5,34.5,77.0,42.5,77.0,50.5,76.0,58.5,75.5,66.5,74.5,75.0,74.5,83.0,73.5,91.0,73.0,98.5,72.5,106.5,71.5,114.0,71.0,122.5,70.5,130.5,69.5" stroke="black" stroke-width="2" fill="none" />
<polyline points="108.5,71.5,100.5,73.5,92.0,73.0,84.0,72.5,76.0,74.0,68.0,72.0,59.0,72.5,50.5,76.5,42.5,76.5,34.5,75.5,27.0,76.0,19.0,79.0,11.0,79.5,2.5,80.5" stroke="black" stroke-width="2" fill="none" />
<polyline points="4.5,61.0,12.5,60.0,20.0,59.5,28.0,59.0,36.5,58.5,45.0,58.5,53.0,58.0" stroke="black" stroke-width="2" fill="none" />
<polyline points="36.0,51.0,28.0,51.5,20.0,51.5,11.5,52.0,3.5,52.5" stroke="black" stroke-width="2" fill="none" />
<polyline points="11.0,102.5,19.5,98.5,27.0,93.5,35.0,95.0,43.0,94.5" stroke="black" stroke-width="2" fill="none" />
<polyline points="56.5,107.5,48.5,110.0,40.5,110.0,32.0,111.0" stroke="black" stroke-width="2" fill="none" />
<polyline points="26.5,108.5,18.5,109.0,11.0,110.0,3.0,111.0" stroke="black" stroke-width="2" fill="none" />
<polyline points="11.5,118.0,7.5,126.5,4.5,135.5,3.0,143.5,9.0,147.0,17.0,146.0,25.0,148.0,33.5,148.5" stroke="black" stroke-width="2" fill="none" />
<polyline points="21.5,138.5,13.0,138.5" stroke="black" stroke-width="2" fill="none" />
<polyline points="10.5,129.0,18.5,128.5,29.5,127.0,38.0,128.0,46.0,128.0,54.5,129.0" stroke="black" stroke-width="2" fill="none" />
<polyline points="46.5,124.0,38.0,124.5,30.5,124.5,22.0,125.5,14.0,125.0,6.0,124.0" stroke="black" stroke-width="2" fill="none" />
<polyline points="67.0,102.5,49.0,110.0,53.0,106.5,60.5,106.0,68.5,103.0" stroke="black" stroke-width="2" fill="none" />
<polyline points="154.0,149.0,162.0,147.5,169.5,147.5,177.0,146.5,182.5,150.5,188.0,145.5,196.0,143.0,205.0,145.0" stroke="black" stroke-width="2" fill="none" />
<polyline points="198.5,147.0,191.0,150.0" stroke="black" stroke-width="2" fill="none" />
<polyline points="191.0,147.0,183.0,154.5,186.0,155.5,194.0,152.5,202.0,152.0,208.5,145.0,216.5,140.0" stroke="black" stroke-width="2" fill="none" />
<polyline points="157.0,145.0,153.0,156.0,156.0,155.5,164.5,151.0,171.5,157.0,179.5,157.5,179.5,167.5,186.5,175.5,194.5,176.5,201.5,178.0,209.5,183.0,217.5,185.5,231.5,188.0,240.0,192.0,248.0,195.0,255.5,196.5" stroke="black" stroke-width="2" fill="none" />
<polyline points="155.5,255.5,147.5,251.5,143.5,253.5,138.5,246.5,130.5,248.5,126.5,249.5,119.0,252.5,111.0,254.5,116.5,244.0,129.5,242.5,133.5,242.5,129.5,242.5,122.0,243.0,114.5,245.5,105.5,252.0,88.5,252.0,93.5,241.0,96.5,232.5,88.5,238.5,81.0,242.5" stroke="black" stroke-width="2" fill="none" />
<polyline points="80.5,212.5,72.5,217.0,64.5,227.0,71.5,219.5,77.5,211.5" stroke="black" stroke-width="2" fill="none" />
</svg>