<svg xmlns="http://www.w3.org/2000/svg" version="1.1"><polyline points="46.0,3.5,46.0,11.5,49.0,16.5,57.0,16.0,65.0,16.0,73.5,16.0,81.5,16.0,90.0,16.0,97.5,16.0,105.5,16.0,113.5,16.0,121.5,16.0,129.5,14.5,137.5,14.5,145.5,14.0,153.5,14.0,161.0,14.0,168.5,14.5,176.0,14.5,183.5,14.0,191.5,14.0" stroke="black" stroke-width="2" fill="none" />
<polyline points="187.5,10.5,195.5,10.5" stroke="black" stroke-width="2" fill="none" />
<polyline points="188.0,10.0,196.0,2.5" stroke="black" stroke-width="2" fill="none" />
<polyline points="196.5,4.0,189.0,4.5,180.5,5.0,172.5,5.5,164.5,6.0,156.0,6.5,147.5,7.5,139.0,8.5,131.0,9.0,123.0,9.5,115.5,9.5,107.5,10.0,99.5,10.5,91.5,11.0,83.5,11.0,75.5,12.0,68.0,13.0,59.5,14.0,51.5,15.0" stroke="black" stroke-width="2" fill="none" />
<polyline points="50.5,11.5,58.5,3.5" stroke="black" stroke-width="2" fill="none" />
<polyline points="61.5,6.5,54.0,6.5,46.0,7.5" stroke="black" stroke-width="2" fill="none" />
<polyline points="55.5,8.5,64.0,8.0" stroke="black" stroke-width="2" fill="none" />
<polyline points="67.5,5.0,75.5,4.5,83.5,4.0" stroke="black" stroke-width="2" fill="none" />
<polyline points="78.0,7.0,86.0,8.0,94.0,8.0" stroke="black" stroke-width="2" fill="none" />
<polyline points="97.5,10.0,105.0,9.5" stroke="black" stroke-width="2" fill="none" />
<polyline points="106.5,6.0,98.5,6.5" stroke="black" stroke-width="2" fill="none" />
<polyline points="98.5,10.0,106.5,2.0" stroke="black" stroke-width="2" fill="none" />
<polyline points="108.5,7.0,116.0,8.5" stroke="black" stroke-width="2" fill="none" />
<polyline points="121.0,10.5,129.0,9.5" stroke="black" stroke-width="2" fill="none" />
<polyline points="124.0,10.0,132.0,2.5" stroke="black" stroke-width="2" fill="none" />
<polyline points="138.0,5.5,130.5,6.0,122.5,6.5" stroke="black" stroke-width="2" fill="none" />
<polyline points="134.5,9.0,142.5,9.0" stroke="black" stroke-width="2" fill="none" />
<polyline points="147.0,6.5,154.5,5.5,162.5,5.5" stroke="black" stroke-width="2" fill="none" />
<polyline points="164.0,7.0,172.0,7.0,180.0,7.0" stroke="black" stroke-width="2" fill="none" />
<polyline points="188.0,5.5,196.5,5.0,205.0,5.5" stroke="black" stroke-width="2" fill="none" />
<polyline points="211.0,7.5,219.0,6.5,227.0,6.5,234.5,5.0,242.5,5.0" stroke="black" stroke-width="2" fill="none" />
<polyline points="244.0,4.5,252.0,4.0,260.0,3.5" stroke="black" stroke-width="2" fill="none" />
<polyline points="260.5,4.5,252.5,12.0" stroke="black" stroke-width="2" fill="none" />
<polyline points="251.5,13.5,260.0,13.0" stroke="black" stroke-width="2" fill="none" />
<polyline points="260.0,12.0,252.0,20.0" stroke="black" stroke-width="2" fill="none" />
<polyline points="251.5,18.0,259.5,18.0" stroke="black" stroke-width="2" fill="none" />
<polyline points="260.0,19.0,252.0,26.5" stroke="black" stroke-width="2" fill="none" />
<polyline points="254.0,28.5,261.5,28.0" stroke="black" stroke-width="2" fill="none" />
<polyline points="260.5,26.5,252.0,34.0" stroke="black" stroke-width="2" fill="none" />
<polyline points="253.5,36.5,261.0,36.0" stroke="black" stroke-width="2" fill="none" />
<polyline points="259.5,34.5,251.5,42.0" stroke="black" stroke-width="2" fill="none" />
<polyline points="251.0,42.5,258.5,42.0" stroke="black" stroke-width="2" fill="none" />
<polyline points="258.0,42.0,250.5,49.5" stroke="black" stroke-width="2" fill="none" />
<polyline points="252.0,53.0,260.5,52.5" stroke="black" stroke-width="2" fill="none" />
<polyline points="259.5,50.0,251.5,57.5" stroke="black" stroke-width="2" fill="none" />
<polyline points="252.0,61.0,260.5,61.0" stroke="black" stroke-width="2" fill="none" />
<polyline points="261.0,57.5,253.0,64.5" stroke="black" stroke-width="2" fill="none" />
<polyline points="252.0,70.0,260.5,69.0" stroke="black" stroke-width="2" fill="none" />
<polyline points="261.5,67.0,253.5,74.5" stroke="black" stroke-width="2" fill="none" />
<polyline points="250.5,80.0,258.5,79.5" stroke="black" stroke-width="2" fill="none" />
<polyline points="260.5,83.5,252.5,91.0" stroke="black" stroke-width="2" fill="none" />
<polyline points="251.5,87.0,259.0,86.0" stroke="black" stroke-width="2" fill="none" />
<polyline points="258.5,94.0,250.5,101.0" stroke="black" stroke-width="2" fill="none" />
<polyline points="250.5,102.0,258.5,101.5" stroke="black" stroke-width="2" fill="none" />
<polyline points="261.0,101.0,253.5,108.5" stroke="black" stroke-width="2" fill="none" />
<polyline points="257.0,109.5,249.0,110.0" stroke="black" stroke-width="2" fill="none" />
<polyline points="251.5,116.5,259.0,116.0" stroke="black" stroke-width="2" fill="none" />
<polyline points="260.0,115.5,252.0,123.5" stroke="black" stroke-width="2" fill="none" />
<polyline points="252.0,125.0,260.0,124.5" stroke="black" stroke-width="2" fill="none" />
<polyline points="260.0,130.5,252.0,131.0" stroke="black" stroke-width="2" fill="none" />
<polyline points="251.0,139.0,259.5,138.5" stroke="black" stroke-width="2" fill="none" />
<polyline points="261.0,147.5,253.0,148.0" stroke="black" stroke-width="2" fill="none" />
<polyline points="253.5,155.0,261.5,154.5" stroke="black" stroke-width="2" fill="none" />
<polyline points="260.5,164.0,252.5,164.5" stroke="black" stroke-width="2" fill="none" />
<polyline points="251.5,173.0,260.0,172.5" stroke="black" stroke-width="2" fill="none" />
<polyline points="259.0,171.0,251.0,178.5" stroke="black" stroke-width="2" fill="none" />
<polyline points="252.0,181.0,260.0,181.0" stroke="black" stroke-width="2" fill="none" />
<polyline points="259.5,179.0,251.5,186.5" stroke="black" stroke-width="2" fill="none" />
<polyline points="254.5,188.0,262.5,188.0" stroke="black" stroke-width="2" fill="none" />
<polyline points="260.5,186.5,252.0,194.0" stroke="black" stroke-width="2" fill="none" />
<polyline points="252.0,196.5,260.0,196.0" stroke="black" stroke-width="2" fill="none" />
<polyline points="260.5,194.5,252.0,202.0" stroke="black" stroke-width="2" fill="none" />
<polyline points="250.0,206.5,257.5,206.5" stroke="black" stroke-width="2" fill="none" />
<polyline points="259.5,212.0,251.5,219.5" stroke="black" stroke-width="2" fill="none" />
<polyline points="252.0,221.5,260.0,221.0" stroke="black" stroke-width="2" fill="none" />
<polyline points="259.0,221.0,251.5,228.5" stroke="black" stroke-width="2" fill="none" />
<polyline points="250.0,230.0,258.0,229.5" stroke="black" stroke-width="2" fill="none" />
<polyline points="260.0,227.5,251.5,235.0" stroke="black" stroke-width="2" fill="none" />
<polyline points="249.0,239.0,257.0,238.0" stroke="black" stroke-width="2" fill="none" />
<polyline points="260.5,235.0,253.0,242.5" stroke="black" stroke-width="2" fill="none" />
<polyline points="251.0,247.5,259.0,247.0" stroke="black" stroke-width="2" fill="none" />
<polyline points="260.0,251.5,251.5,259.5" stroke="black" stroke-width="2" fill="none" />
<polyline points="254.0,255.0,262.0,254.5" stroke="black" stroke-width="2" fill="none" />
<polyline points="253.5,250.5,261.5,243.0" stroke="black" stroke-width="2" fill="none" />
<polyline points="259.0,212.5,250.5,213.5" stroke="black" stroke-width="2" fill="none" />
<polyline points="252.0,208.5,260.5,200.5" stroke="black" stroke-width="2" fill="none" />
<polyline points="219.5,221.5,211.5,229.0" stroke="black" stroke-width="2" fill="none" />
<polyline points="214.0,221.5,222.0,221.0" stroke="black" stroke-width="2" fill="none" />
<polyline points="220.0,230.0,211.5,237.5,203.0,244.5" stroke="black" stroke-width="2" fill="none" />
<polyline points="211.0,244.5,218.5,237.0" stroke="black" stroke-width="2" fill="none" />
<polyline points="203.0,233.0,195.0,241.0" stroke="black" stroke-width="2" fill="none" />
<polyline points="197.5,236.0,189.5,243.0" stroke="black" stroke-width="2" fill="none" />
<polyline points="196.0,252.0,187.5,259.0" stroke="black" stroke-width="2" fill="none" />
<polyline points="188.0,258.5,196.5,258.0" stroke="black" stroke-width="2" fill="none" />
<polyline points="203.0,230.5,211.5,229.5,219.0,228.5" stroke="black" stroke-width="2" fill="none" />
<polyline points="219.0,213.5,211.0,214.0" stroke="black" stroke-width="2" fill="none" />
<polyline points="208.5,205.0,216.5,204.5" stroke="black" stroke-width="2" fill="none" />
<polyline points="218.0,195.0,210.0,195.5" stroke="black" stroke-width="2" fill="none" />
<polyline points="210.5,187.5,218.5,187.0" stroke="black" stroke-width="2" fill="none" />
<polyline points="220.5,180.5,212.5,181.0" stroke="black" stroke-width="2" fill="none" />
<polyline points="213.5,174.0,221.5,173.5" stroke="black" stroke-width="2" fill="none" />
<polyline points="220.5,164.5,212.5,165.0" stroke="black" stroke-width="2" fill="none" />
<polyline points="209.5,158.0,217.5,157.5,226.0,156.5" stroke="black" stroke-width="2" fill="none" />
<polyline points="227.5,149.5,219.5,150.0,212.0,150.0" stroke="black" stroke-width="2" fill="none" />
<polyline points="211.5,143.0,220.0,142.0,228.0,141.5" stroke="black" stroke-width="2" fill="none" />
<polyline points="228.0,133.0,220.0,134.0,212.0,134.5" stroke="black" stroke-width="2" fill="none" />
<polyline points="211.5,125.5,219.0,125.0,227.0,124.0" stroke="black" stroke-width="2" fill="none" />
<polyline points="228.0,115.5,219.5,115.5,211.5,116.5" stroke="black" stroke-width="2" fill="none" />
<polyline points="213.5,109.0,221.0,109.0,228.5,108.5" stroke="black" stroke-width="2" fill="none" />
<polyline points="228.5,101.0,220.0,101.5,211.5,102.0" stroke="black" stroke-width="2" fill="none" />
<polyline points="211.0,93.5,219.0,93.0,227.5,92.0" stroke="black" stroke-width="2" fill="none" />
<polyline points="229.0,82.0,221.0,83.0" stroke="black" stroke-width="2" fill="none" />
<polyline points="220.5,75.5,228.5,75.5" stroke="black" stroke-width="2" fill="none" />
<polyline points="225.5,67.5,217.0,68.0" stroke="black" stroke-width="2" fill="none" />
<polyline points="219.5,60.5,227.5,60.0" stroke="black" stroke-width="2" fill="none" />
<polyline points="229.0,52.5,221.0,53.0" stroke="black" stroke-width="2" fill="none" />
<polyline points="221.5,45.0,229.5,44.5" stroke="black" stroke-width="2" fill="none" />
<polyline points="226.5,37.0,218.5,37.5,210.5,38.0" stroke="black" stroke-width="2" fill="none" />
<polyline points="210.5,34.5,218.0,26.5" stroke="black" stroke-width="2" fill="none" />
<polyline points="218.0,33.0,210.0,33.5" stroke="black" stroke-width="2" fill="none" />
<polyline points="210.0,32.5,202.0,31.5,194.5,30.5,186.0,30.5,178.0,30.5,169.5,30.5,161.5,30.5,154.0,30.0,145.5,30.0,138.0,30.0,130.0,29.5,122.0,29.5,114.0,29.5,106.0,29.0,98.0,30.0,90.0,30.0,82.0,30.0,74.5,30.0,66.5,30.0,58.5,30.0,50.5,30.0,43.0,31.0,35.5,40.0" stroke="black" stroke-width="2" fill="none" />
<polyline points="37.0,43.0,28.5,51.0" stroke="black" stroke-width="2" fill="none" />
<polyline points="27.0,50.0,35.0,49.5" stroke="black" stroke-width="2" fill="none" />
<polyline points="35.0,51.5,27.0,59.0" stroke="black" stroke-width="2" fill="none" />
<polyline points="26.5,66.0,34.5,58.5" stroke="black" stroke-width="2" fill="none" />
<polyline points="36.0,67.5,28.0,74.5" stroke="black" stroke-width="2" fill="none" />
<polyline points="35.0,75.5,27.0,75.5,19.0,76.0" stroke="black" stroke-width="2" fill="none" />
<polyline points="17.5,69.0,25.5,69.0,34.0,69.0" stroke="black" stroke-width="2" fill="none" />
<polyline points="38.5,77.0,30.5,84.0" stroke="black" stroke-width="2" fill="none" />
<polyline points="36.0,84.5,28.0,92.0" stroke="black" stroke-width="2" fill="none" />
<polyline points="28.0,97.5,36.0,90.0" stroke="black" stroke-width="2" fill="none" />
<polyline points="36.0,99.0,28.0,106.5" stroke="black" stroke-width="2" fill="none" />
<polyline points="34.5,109.5,27.0,117.0" stroke="black" stroke-width="2" fill="none" />
<polyline points="28.5,120.5,36.5,120.0" stroke="black" stroke-width="2" fill="none" />
<polyline points="35.5,123.0,28.0,130.5" stroke="black" stroke-width="2" fill="none" />
<polyline points="27.0,127.5,35.0,127.0" stroke="black" stroke-width="2" fill="none" />
<polyline points="37.0,131.5,29.0,139.5" stroke="black" stroke-width="2" fill="none" />
<polyline points="29.0,138.5,37.0,138.0" stroke="black" stroke-width="2" fill="none" />
<polyline points="37.5,141.0,29.0,148.0" stroke="black" stroke-width="2" fill="none" />
<polyline points="26.0,148.0,34.0,147.5" stroke="black" stroke-width="2" fill="none" />
<polyline points="35.0,148.0,27.5,155.0" stroke="black" stroke-width="2" fill="none" />
<polyline points="26.5,157.0,34.5,156.5" stroke="black" stroke-width="2" fill="none" />
<polyline points="35.0,154.0,26.5,161.5" stroke="black" stroke-width="2" fill="none" />
<polyline points="27.5,163.0,35.5,161.5" stroke="black" stroke-width="2" fill="none" />
<polyline points="36.0,162.5,27.5,170.0" stroke="black" stroke-width="2" fill="none" />
<polyline points="24.0,173.0,32.5,173.0" stroke="black" stroke-width="2" fill="none" />
<polyline points="29.5,177.5,37.5,169.5" stroke="black" stroke-width="2" fill="none" />
<polyline points="37.0,178.5,29.0,186.0" stroke="black" stroke-width="2" fill="none" />
<polyline points="27.5,188.5,35.0,188.0" stroke="black" stroke-width="2" fill="none" />
<polyline points="37.0,187.5,28.5,195.5" stroke="black" stroke-width="2" fill="none" />
<polyline points="28.0,196.0,35.5,196.0" stroke="black" stroke-width="2" fill="none" />
<polyline points="36.5,196.0,28.5,203.5" stroke="black" stroke-width="2" fill="none" />
<polyline points="28.5,205.5,36.5,204.5" stroke="black" stroke-width="2" fill="none" />
<polyline points="35.5,204.0,27.5,211.0" stroke="black" stroke-width="2" fill="none" />
<polyline points="27.0,213.0,35.0,212.5" stroke="black" stroke-width="2" fill="none" />
<polyline points="35.0,212.0,27.0,219.5" stroke="black" stroke-width="2" fill="none" />
<polyline points="30.0,219.0,31.0,227.0,34.5,230.0" stroke="black" stroke-width="2" fill="none" />
<polyline points="35.0,234.5,43.5,227.0" stroke="black" stroke-width="2" fill="none" />
<polyline points="45.0,234.0,52.5,226.0" stroke="black" stroke-width="2" fill="none" />
<polyline points="36.0,219.5,28.0,227.0" stroke="black" stroke-width="2" fill="none" />
<polyline points="25.5,228.0,33.5,235.0,41.5,235.5,49.5,235.5,57.5,235.5,65.5,235.5,73.0,236.0,81.0,237.0,89.0,237.0,97.0,237.0,105.0,237.5,112.5,238.5,120.5,238.5,128.5,239.5,137.0,239.0,145.0,239.0,152.5,240.5,160.5,240.5,168.5,241.5,176.5,241.5,185.0,242.5,192.5,242.5,200.5,242.5,208.5,242.5,216.5,241.0" stroke="black" stroke-width="2" fill="none" />
<polyline points="219.0,231.0,211.5,231.0,204.0,231.0,196.5,231.0,189.0,231.0,181.0,231.5,173.0,232.0,165.0,232.5,156.5,233.0,148.5,234.0,141.0,235.0,133.0,236.0,124.5,236.5,116.0,237.5,108.0,238.0,100.0,239.0,92.5,239.5" stroke="black" stroke-width="2" fill="none" />
<polyline points="82.5,251.0,75.0,258.5" stroke="black" stroke-width="2" fill="none" />
<polyline points="78.0,256.5,86.0,253.5,94.0,253.0" stroke="black" stroke-width="2" fill="none" />
<polyline points="99.0,258.5,106.5,250.5" stroke="black" stroke-width="2" fill="none" />
<polyline points="108.0,255.5,116.5,253.5" stroke="black" stroke-width="2" fill="none" />
<polyline points="123.5,259.0,132.0,251.5" stroke="black" stroke-width="2" fill="none" />
<polyline points="135.5,255.5,143.5,252.5,151.5,253.5" stroke="black" stroke-width="2" fill="none" />
<polyline points="153.0,256.0,161.0,248.5" stroke="black" stroke-width="2" fill="none" />
<polyline points="164.0,253.5,172.0,252.5,180.0,253.0" stroke="black" stroke-width="2" fill="none" />
<polyline points="163.5,257.5,156.0,258.0" stroke="black" stroke-width="2" fill="none" />
<polyline points="139.5,250.5,131.5,258.0" stroke="black" stroke-width="2" fill="none" />
<polyline points="75.5,253.0,67.0,260.5" stroke="black" stroke-width="2" fill="none" />
<polyline points="65.0,254.5,57.0,255.5" stroke="black" stroke-width="2" fill="none" />
<polyline points="57.5,250.5,50.0,258.5" stroke="black" stroke-width="2" fill="none" />
<polyline points="50.5,252.0,58.5,251.5,66.5,251.0,74.5,250.5,82.5,250.0,91.0,250.0,99.5,249.5,108.0,249.5,117.0,249.0,125.5,249.0,134.0,248.5,142.0,248.0,150.0,248.0,158.0,247.5,165.5,246.5,173.0,245.5,181.5,244.5,190.0,244.0,198.0,243.0,206.0,242.5" stroke="black" stroke-width="2" fill="none" />
<polyline points="253.0,116.0,261.5,108.5" stroke="black" stroke-width="2" fill="none" />
<polyline points="259.5,94.5,251.5,95.5" stroke="black" stroke-width="2" fill="none" />
<polyline points="252.5,82.0,260.5,74.5" stroke="black" stroke-width="2" fill="none" />
<polyline points="261.0,22.0,253.0,22.0" stroke="black" stroke-width="2" fill="none" />
<polyline points="250.5,9.5,258.5,9.0" stroke="black" stroke-width="2" fill="none" />
<polyline points="219.0,18.0,210.5,17.5,202.0,17.5,193.5,17.5,185.0,18.0,177.0,18.5,169.0,19.5,161.5,20.5,153.5,21.5,145.5,22.5,137.5,23.0,129.0,24.0,121.0,24.0,113.0,24.5,105.5,25.0,97.5,25.0,89.0,25.5,81.0,26.0,73.0,26.5,64.5,27.0,57.5,27.0,50.0,27.5,42.5,28.5,34.5,29.0,26.5,29.5" stroke="black" stroke-width="2" fill="none" />
<polyline points="22.5,31.0,31.0,24.0,39.0,23.5,47.0,23.0,55.0,23.0,62.5,23.5,70.0,24.5,77.5,24.5,85.5,24.5,93.0,23.5,101.0,23.5,109.5,23.5,117.5,23.5,126.0,23.5,134.0,24.0,142.0,23.5,149.5,23.5,157.0,23.0,165.0,23.0,172.5,23.5,180.5,23.5,188.5,24.5,196.5,24.0,205.0,23.5,213.0,23.0,216.5,24.0,221.0,32.0,222.5,39.5,222.5,47.5,223.0,55.5,223.0,63.5,224.0,71.5,224.0,79.5,224.0,88.0,223.5,96.5,222.0,104.5,221.5,113.0,221.0,121.5,220.5,129.5,219.5,138.0,219.5,146.0,219.5,154.0,219.5,161.5,219.0,169.5,219.5,177.5,220.0,185.0,220.5,193.0,220.5,201.0,221.0,208.5,221.0,216.5,221.5,224.5,222.0,232.5,218.0,240.5" stroke="black" stroke-width="2" fill="none" />
<polyline points="67.5,227.0,60.0,228.0,52.0,229.0,44.5,230.5,36.0,231.0,27.5,231.5" stroke="black" stroke-width="2" fill="none" />
<polyline points="26.0,223.0,34.0,222.5,42.0,221.5" stroke="black" stroke-width="2" fill="none" />
<polyline points="36.5,214.5,44.5,225.5,52.0,228.5,59.5,229.5,67.0,229.5,75.0,230.0,82.5,230.0,90.5,229.5,98.5,229.5,107.0,229.5,115.0,230.5,122.5,230.5,130.5,231.0,138.5,232.0,146.5,232.0,154.5,233.0,162.5,233.5,171.5,234.0,179.5,235.0,187.5,235.0,195.5,234.0,203.5,230.0,212.0,218.5" stroke="black" stroke-width="2" fill="none" />
<polyline points="249.5,254.5,249.5,246.5,249.5,238.0,250.0,229.5,250.0,221.5,251.0,213.5,251.0,206.0,251.0,198.0,250.5,190.0,251.0,182.0,251.0,174.0,251.0,166.5,251.0,158.5,251.0,150.5,251.0,142.5,251.5,134.5,251.5,126.5,251.5,118.5,251.5,110.5,251.5,102.0,252.0,94.0,251.5,86.0,251.5,78.0,250.0,69.5,250.0,61.5,250.5,53.0,250.0,45.5,250.0,37.5,248.5,29.5,249.0,21.5,249.0,13.5,244.0,10.5,236.0,10.0,228.0,10.5,220.0,10.5,212.0,9.5" stroke="black" stroke-width="2" fill="none" />
<polyline points="198.5,3.0,197.0,11.0" stroke="black" stroke-width="2" fill="none" />
<polyline points="207.5,32.5,214.5,40.5,214.5,48.5,215.0,56.5,215.5,64.5,215.5,72.0,215.5,80.5,215.0,89.0,215.0,97.0,214.5,105.0,214.0,112.5,213.5,121.0,213.0,129.0,212.5,137.0,212.5,144.5,211.0,152.0,211.0,160.0,211.0,168.0,211.0,176.0,211.5,183.5,211.5,191.0,211.5,199.5,211.5,207.5,211.5,215.0,208.5,223.5,198.5,231.5" stroke="black" stroke-width="2" fill="none" />
<polyline points="196.0,250.0,192.0,248.0,184.0,249.0,176.0,249.0,167.5,249.0,160.0,248.5,152.0,248.0,144.0,248.0,136.0,248.0,128.0,249.0,120.0,249.0,112.5,249.0,104.5,248.5,97.0,248.0,89.0,248.0,81.0,249.0,73.0,249.5,65.0,250.0,57.0,250.0,49.0,251.0" stroke="black" stroke-width="2" fill="none" />
<polyline points="41.0,229.0,33.0,220.0" stroke="black" stroke-width="2" fill="none" />
<polyline points="31.5,220.0,36.0,227.5" stroke="black" stroke-width="2" fill="none" />
<polyline points="33.0,215.5,25.0,215.5" stroke="black" stroke-width="2" fill="none" />
<polyline points="11.5,228.0,3.5,228.5" stroke="black" stroke-width="2" fill="none" />
<polyline points="3.5,220.5,11.5,220.0" stroke="black" stroke-width="2" fill="none" />
<polyline points="11.5,211.5,3.5,212.0" stroke="black" stroke-width="2" fill="none" />
<polyline points="4.0,205.0,12.5,204.0" stroke="black" stroke-width="2" fill="none" />
<polyline points="10.5,196.5,2.0,197.0" stroke="black" stroke-width="2" fill="none" />
<polyline points="3.5,188.0,12.0,188.0" stroke="black" stroke-width="2" fill="none" />
<polyline points="13.5,180.0,5.5,180.0" stroke="black" stroke-width="2" fill="none" />
<polyline points="3.5,172.5,11.5,171.5" stroke="black" stroke-width="2" fill="none" />
<polyline points="11.5,163.5,3.0,164.0" stroke="black" stroke-width="2" fill="none" />
<polyline points="3.0,157.0,11.5,156.0" stroke="black" stroke-width="2" fill="none" />
<polyline points="11.0,147.5,2.5,148.0" stroke="black" stroke-width="2" fill="none" />
<polyline points="2.5,141.0,2.5,149.0,3.0,157.0,3.0,165.0,3.0,173.0,3.0,181.0,4.0,189.0,4.5,197.5,5.0,206.0,6.0,214.0,6.5,222.0,6.0,230.0,6.0,238.0,6.5,245.5,6.0,253.5" stroke="black" stroke-width="2" fill="none" />
<polyline points="4.0,253.0,12.0,252.5" stroke="black" stroke-width="2" fill="none" />
<polyline points="11.0,245.5,3.0,246.5" stroke="black" stroke-width="2" fill="none" />
<polyline points="3.0,236.5,11.0,236.0" stroke="black" stroke-width="2" fill="none" />
<polyline points="25.5,182.0,34.0,181.5" stroke="black" stroke-width="2" fill="none" />
<polyline points="34.0,165.0,25.5,165.5" stroke="black" stroke-width="2" fill="none" />
<polyline points="24.5,152.5,32.5,152.5" stroke="black" stroke-width="2" fill="none" />
<polyline points="35.5,144.0,27.5,144.0" stroke="black" stroke-width="2" fill="none" />
<polyline points="28.5,141.0,36.5,140.5" stroke="black" stroke-width="2" fill="none" />
<polyline points="35.0,133.0,27.0,133.5" stroke="black" stroke-width="2" fill="none" />
<polyline points="27.0,124.0,35.0,116.5" stroke="black" stroke-width="2" fill="none" />
<polyline points="35.5,124.0,27.5,124.0" stroke="black" stroke-width="2" fill="none" />
<polyline points="20.0,118.0,27.5,117.5,35.5,117.0" stroke="black" stroke-width="2" fill="none" />
<polyline points="37.0,111.5,28.5,111.5,20.0,111.5" stroke="black" stroke-width="2" fill="none" />
<polyline points="21.5,103.0,29.5,103.0,37.0,102.0" stroke="black" stroke-width="2" fill="none" />
<polyline points="35.5,93.5,28.5,94.0,21.0,94.5" stroke="black" stroke-width="2" fill="none" />
<polyline points="19.5,85.0,27.5,85.0,35.5,85.0" stroke="black" stroke-width="2" fill="none" />
<polyline points="35.0,61.5,27.5,61.5,19.5,62.0" stroke="black" stroke-width="2" fill="none" />
<polyline points="21.0,54.0,28.5,53.5,36.0,53.5" stroke="black" stroke-width="2" fill="none" />
<polyline points="28.5,42.0,36.0,35.0,44.0,28.0" stroke="black" stroke-width="2" fill="none" />
<polyline points="45.0,31.5,35.0,39.5,33.0,47.0,33.0,55.0,33.0,62.5,33.0,71.0,33.0,79.0,33.0,87.0,33.0,95.0,33.0,103.0,33.0,111.0,33.0,119.0,33.0,127.5,33.0,135.5,32.5,143.5,32.5,151.0,34.0,159.0,34.5,167.0,34.5,175.5,34.0,183.5,34.0,192.0,34.0,199.5,34.5,207.5,35.0,215.0,38.0,223.0" stroke="black" stroke-width="2" fill="none" />
<polyline points="13.0,141.0,4.5,141.0" stroke="black" stroke-width="2" fill="none" />
<polyline points="5.5,133.0,13.5,132.5" stroke="black" stroke-width="2" fill="none" />
<polyline points="13.0,123.5,5.5,123.5" stroke="black" stroke-width="2" fill="none" />
<polyline points="5.0,117.0,13.0,116.5" stroke="black" stroke-width="2" fill="none" />
<polyline points="12.0,107.5,4.5,108.0" stroke="black" stroke-width="2" fill="none" />
<polyline points="4.5,101.5,12.5,100.5" stroke="black" stroke-width="2" fill="none" />
<polyline points="12.0,91.5,3.5,92.0" stroke="black" stroke-width="2" fill="none" />
<polyline points="3.0,85.5,11.0,84.5" stroke="black" stroke-width="2" fill="none" />
<polyline points="11.0,76.5,3.0,77.0" stroke="black" stroke-width="2" fill="none" />
<polyline points="3.0,68.0,11.0,67.5" stroke="black" stroke-width="2" fill="none" />
<polyline points="10.5,61.0,3.0,61.5" stroke="black" stroke-width="2" fill="none" />
<polyline points="2.5,54.0,10.5,53.5" stroke="black" stroke-width="2" fill="none" />
<polyline points="11.5,45.5,3.5,46.0" stroke="black" stroke-width="2" fill="none" />
<polyline points="4.0,35.5,12.0,35.0" stroke="black" stroke-width="2" fill="none" />
<polyline points="12.5,28.5,4.5,28.5" stroke="black" stroke-width="2" fill="none" />
<polyline points="2.0,23.5,10.5,23.0" stroke="black" stroke-width="2" fill="none" />
<polyline points="3.5,20.5,11.5,13.5" stroke="black" stroke-width="2" fill="none" />
<polyline points="10.5,14.5,6.5,22.5,6.5,30.0,6.5,37.5,6.5,45.5,6.5,53.5,6.5,61.0,6.5,69.5,7.0,77.5,7.0,85.5,7.0,93.5,7.0,101.5,7.0,109.5,6.5,118.0,6.5,126.0,7.0,134.0,8.0,142.0,7.5,150.0,8.0,158.5,8.0,166.5,8.0,174.5,9.5,182.5,9.5,190.0,9.5,198.0,9.5,205.5,10.0,213.0,10.5,220.5,10.5,228.5,10.0,236.0,10.0,244.0,9.5,252.0,15.5,254.0,23.5,254.0,32.0,254.0" stroke="black" stroke-width="2" fill="none" />
<polyline points="20.0,47.0,28.5,46.0,36.5,45.5" stroke="black" stroke-width="2" fill="none" />
<polyline points="36.0,35.5,44.0,34.5" stroke="black" stroke-width="2" fill="none" />
<polyline points="44.0,34.0,52.0,26.0" stroke="black" stroke-width="2" fill="none" />
<polyline points="37.0,28.0,29.0,35.5" stroke="black" stroke-width="2" fill="none" />
<polyline points="26.5,40.0,34.0,39.0" stroke="black" stroke-width="2" fill="none" />
<polyline points="34.0,42.0,26.0,42.5" stroke="black" stroke-width="2" fill="none" />
<polyline points="33.5,30.0,28.5,36.0,31.5,27.5" stroke="black" stroke-width="2" fill="none" />
<polyline points="29.5,23.5,22.5,31.5,22.5,40.0,22.5,48.0,22.5,56.0,22.5,64.5,22.0,72.0,22.0,80.0,21.5,87.5,21.0,95.5,21.0,104.0,21.0,112.0,21.0,120.5,21.5,128.5,23.0,136.5,23.0,144.5,23.5,153.0,23.5,161.0,24.5,169.0,24.5,177.0,24.5,185.0,24.5,193.0,24.5,200.5,24.5,208.5,24.5,216.5,24.0,224.5,26.0,232.0" stroke="black" stroke-width="2" fill="none" />
<polyline points="4.0,15.5,11.5,15.0,19.0,14.5,27.0,14.0,35.5,13.0" stroke="black" stroke-width="2" fill="none" />
<polyline points="13.5,5.0,5.0,12.0" stroke="black" stroke-width="2" fill="none" />
<polyline points="7.0,15.0,14.5,13.0,22.5,13.0,30.5,14.0" stroke="black" stroke-width="2" fill="none" />
<polyline points="11.0,7.0,3.0,7.5" stroke="black" stroke-width="2" fill="none" />
<polyline points="8.0,6.0,16.5,7.0,24.0,7.5,32.0,6.5" stroke="black" stroke-width="2" fill="none" />
<polyline points="68.0,11.0,75.5,3.5" stroke="black" stroke-width="2" fill="none" />
<polyline points="153.5,12.0,161.5,11.5" stroke="black" stroke-width="2" fill="none" />
<polyline points="155.0,10.0,163.0,2.0" stroke="black" stroke-width="2" fill="none" />
</svg>