<svg xmlns="http://www.w3.org/2000/svg" version="1.1"><polyline points="120.0,56.0,102.0,64.5,91.0,72.0,84.0,80.0,75.5,91.5,72.0,99.5,65.5,108.0,64.0,109.5,63.5,120.0,59.5,120.0,60.5,115.0,71.5,99.0" stroke="black" stroke-width="2" fill="none" />
<polyline points="67.0,107.0,59.0,107.5,51.0,107.5" stroke="black" stroke-width="2" fill="none" />
<polyline points="50.5,101.0,59.0,100.5,66.5,100.0" stroke="black" stroke-width="2" fill="none" />
<polyline points="63.0,94.0,55.5,91.0,43.0,95.0,43.5,101.0,35.5,100.0,27.5,102.5,19.5,98.5,10.5,92.0,2.5,92.0" stroke="black" stroke-width="2" fill="none" />
<polyline points="5.5,94.0,13.5,93.5,21.5,93.0,29.0,92.5,36.5,92.5,45.0,92.5,52.5,92.0,60.5,91.0,68.5,90.5" stroke="black" stroke-width="2" fill="none" />
<polyline points="66.0,84.5,58.0,92.5" stroke="black" stroke-width="2" fill="none" />
<polyline points="58.5,97.5,54.0,103.5,47.0,109.5,46.0,105.5,45.0,106.0,54.0,105.0,54.5,97.5" stroke="black" stroke-width="2" fill="none" />
<polyline points="44.0,101.0,35.5,102.5,27.5,103.0" stroke="black" stroke-width="2" fill="none" />
<polyline points="27.5,100.0,35.0,93.0" stroke="black" stroke-width="2" fill="none" />
<polyline points="42.5,89.5,33.5,89.5,25.5,89.0,17.5,89.0" stroke="black" stroke-width="2" fill="none" />
<polyline points="17.0,92.5,25.0,95.0,14.0,98.0,17.5,106.0,11.5,114.5,13.0,122.5,3.5,129.0,9.5,130.0,12.0,135.5,20.0,134.5,28.5,136.0,36.0,136.0,44.0,137.5,52.0,139.0,57.0,134.5,63.5,133.5,63.5,138.5,64.5,147.0,66.5,155.5,69.5,163.0,72.5,171.0,76.5,178.0,83.5,186.0,80.0,193.0" stroke="black" stroke-width="2" fill="none" />
<polyline points="69.0,187.5,61.0,195.5" stroke="black" stroke-width="2" fill="none" />
<polyline points="52.5,189.0,60.5,188.5,68.5,187.0,76.5,186.5,84.5,186.5" stroke="black" stroke-width="2" fill="none" />
<polyline points="77.5,173.0,69.5,180.0" stroke="black" stroke-width="2" fill="none" />
<polyline points="67.5,184.5,75.5,184.5" stroke="black" stroke-width="2" fill="none" />
<polyline points="69.5,174.0,62.0,181.0" stroke="black" stroke-width="2" fill="none" />
<polyline points="52.0,180.5,60.5,173.0,68.5,165.0" stroke="black" stroke-width="2" fill="none" />
<polyline points="66.5,156.0,58.5,163.5,50.5,171.5,43.5,179.5" stroke="black" stroke-width="2" fill="none" />
<polyline points="42.5,180.5,50.5,179.5,58.5,179.5,67.0,179.5,76.0,179.5" stroke="black" stroke-width="2" fill="none" />
<polyline points="90.5,164.0,98.5,163.5,106.0,163.5,114.5,163.0,123.0,162.5,131.0,161.5,139.0,161.5,146.5,161.0,155.0,161.0,163.0,160.5,171.0,160.0,179.0,159.5,186.5,159.5,194.5,159.0,202.5,158.5" stroke="black" stroke-width="2" fill="none" />
<polyline points="203.5,156.0,195.5,163.0,188.0,171.0,180.0,178.5,171.5,186.0" stroke="black" stroke-width="2" fill="none" />
<polyline points="169.5,186.0,161.5,186.5,154.0,187.0,146.0,188.0,138.0,188.5,130.0,189.0,122.5,189.0,114.5,189.5" stroke="black" stroke-width="2" fill="none" />
<polyline points="115.0,181.5,123.0,174.0,131.0,167.0,139.0,159.5,147.5,152.0,156.5,144.5,164.5,137.0,172.5,129.0,180.5,121.5,188.5,114.0,196.5,106.0" stroke="black" stroke-width="2" fill="none" />
<polyline points="202.5,108.0,194.5,115.0,186.5,122.5,178.5,129.5,170.5,137.0,162.5,144.0,155.0,151.5,147.0,159.0,139.0,166.5,131.0,174.0,123.0,181.0" stroke="black" stroke-width="2" fill="none" />
<polyline points="123.0,188.0,130.5,181.0,138.0,174.5,146.0,167.0,154.0,160.0,162.0,153.0,170.0,145.5,178.0,139.0,185.5,131.5,192.5,124.0,200.5,117.0" stroke="black" stroke-width="2" fill="none" />
<polyline points="203.0,125.5,195.0,132.5,187.0,139.0,179.0,146.0,171.0,153.0,163.0,160.0,155.5,167.0,148.0,174.5,140.5,181.5,133.0,189.0" stroke="black" stroke-width="2" fill="none" />
<polyline points="128.5,190.5,136.5,192.5,145.0,192.5,153.0,193.0,161.0,191.0,169.0,187.0,167.5,184.5" stroke="black" stroke-width="2" fill="none" />
<polyline points="162.5,187.0,170.5,179.5,178.5,171.5,186.5,164.0,194.0,156.5,202.0,148.5" stroke="black" stroke-width="2" fill="none" />
<polyline points="204.5,140.0,196.5,147.5,188.5,154.5,181.0,162.0,173.5,169.5,165.5,177.0,157.5,184.5" stroke="black" stroke-width="2" fill="none" />
<polyline points="162.5,181.5,155.0,182.0,147.5,182.0,139.5,182.5,132.0,182.5,124.5,182.5,117.0,183.0,109.0,183.0" stroke="black" stroke-width="2" fill="none" />
<polyline points="105.5,181.0,113.5,173.0,121.5,166.0,130.0,159.0,138.5,152.0,147.5,144.5,156.5,137.0,164.5,129.5,172.5,121.5,180.5,114.0,188.5,106.5,196.0,99.0" stroke="black" stroke-width="2" fill="none" />
<polyline points="195.5,91.5,187.5,99.0,180.0,106.5,171.5,114.0,163.5,121.0,155.0,128.5,147.0,136.0,139.0,143.5,131.0,151.0,122.5,158.5,114.5,166.5,106.5,173.5" stroke="black" stroke-width="2" fill="none" />
<polyline points="100.5,171.5,108.0,171.0,116.0,170.5,124.5,170.0,132.5,170.0,140.5,169.5,148.0,169.5,155.5,168.0,163.0,167.5,170.0,167.0,178.0,166.0,186.0,165.5,194.5,165.0" stroke="black" stroke-width="2" fill="none" />
<polyline points="210.0,171.0,218.0,170.5,226.5,170.0,235.5,169.5,244.0,168.5,252.5,168.5,261.0,168.0" stroke="black" stroke-width="2" fill="none" />
<polyline points="259.5,155.0,251.5,155.5,243.0,156.0,235.0,156.5,227.5,157.0,220.0,157.5" stroke="black" stroke-width="2" fill="none" />
<polyline points="227.5,163.0,219.5,170.5,211.5,178.0" stroke="black" stroke-width="2" fill="none" />
<polyline points="217.0,177.0,225.0,176.5" stroke="black" stroke-width="2" fill="none" />
<polyline points="228.0,173.5,236.0,171.5" stroke="black" stroke-width="2" fill="none" />
<polyline points="236.5,171.5,228.0,179.0,219.5,186.5,211.5,194.0,203.5,201.0" stroke="black" stroke-width="2" fill="none" />
<polyline points="213.5,200.0,222.0,193.0,229.5,185.5,237.5,178.0" stroke="black" stroke-width="2" fill="none" />
<polyline points="235.0,166.0,226.5,173.5,218.0,181.0,210.0,188.5,202.0,195.0,193.5,202.5,186.0,210.0,178.5,217.5,170.5,225.0,163.0,232.0,155.0,239.5,147.0,247.0" stroke="black" stroke-width="2" fill="none" />
<polyline points="163.0,251.0,171.0,243.0,179.5,235.0,188.0,227.0,196.5,219.5,204.0,212.0" stroke="black" stroke-width="2" fill="none" />
<polyline points="212.5,211.0,204.5,218.5,196.0,225.5,188.0,233.0,180.0,241.0,172.0,248.5" stroke="black" stroke-width="2" fill="none" />
<polyline points="179.5,248.5,187.5,241.0,195.0,234.0,203.5,226.5,211.0,219.0" stroke="black" stroke-width="2" fill="none" />
<polyline points="211.0,223.0,203.0,223.5,195.5,224.0,188.0,224.5,179.5,225.0,171.5,224.5,163.0,225.0,154.0,225.5,145.5,226.0,138.0,226.5,130.0,227.0,122.5,227.5,114.5,228.0,106.5,228.5" stroke="black" stroke-width="2" fill="none" />
<polyline points="101.0,222.0,109.0,221.0,117.5,220.5,125.5,219.5,133.5,219.0,141.0,218.5,148.5,218.0,156.0,218.0,163.5,218.0,171.0,217.0,179.0,217.0,187.0,216.5,195.5,216.0,204.0,216.0,212.5,215.0,220.5,214.0" stroke="black" stroke-width="2" fill="none" />
<polyline points="228.0,203.5,219.5,203.5,211.5,204.0,204.0,204.0,196.5,204.0,189.0,204.0,181.5,204.0,174.0,204.5" stroke="black" stroke-width="2" fill="none" />
<polyline points="170.5,211.0,162.5,218.0,154.5,226.0,147.0,234.0,139.0,241.5" stroke="black" stroke-width="2" fill="none" />
<polyline points="139.5,250.5,147.0,243.0,155.0,236.0,163.0,229.0,171.0,221.5,179.5,214.0" stroke="black" stroke-width="2" fill="none" />
<polyline points="194.0,210.5,186.0,218.0,178.5,225.5,171.0,233.0,163.5,240.5,155.5,248.5" stroke="black" stroke-width="2" fill="none" />
<polyline points="132.5,242.5,141.0,235.5,149.5,228.5,157.5,221.0" stroke="black" stroke-width="2" fill="none" />
<polyline points="147.5,218.0,139.5,226.0,131.5,233.5,122.5,241.0" stroke="black" stroke-width="2" fill="none" />
<polyline points="117.0,245.5,124.5,245.0,132.0,244.5,139.5,244.0,146.5,243.5,154.5,243.0,162.5,242.0,170.5,241.5,178.5,241.0,187.0,240.0,195.0,240.0,203.0,239.0" stroke="black" stroke-width="2" fill="none" />
<polyline points="207.5,248.0,205.0,251.0,209.0,253.5,207.0,251.5,216.5,240.0" stroke="black" stroke-width="2" fill="none" />
<polyline points="221.5,233.0,217.0,241.0,213.5,246.5,215.5,254.5" stroke="black" stroke-width="2" fill="none" />
<polyline points="195.5,250.5,188.0,251.0,180.0,251.5,172.0,251.5,163.5,252.0,155.0,252.5,146.5,253.0,138.5,253.0,130.5,254.0" stroke="black" stroke-width="2" fill="none" />
<polyline points="115.5,238.5,123.5,237.5,131.5,237.0,140.0,236.5,148.0,235.5,155.5,235.0,163.5,234.0,171.0,233.0,179.0,232.0,187.0,231.0,194.5,230.5,203.0,230.5,211.0,230.0" stroke="black" stroke-width="2" fill="none" />
<polyline points="210.5,223.5,218.5,219.0,214.5,222.0,209.5,230.0,205.5,238.0,200.5,242.5,191.5,255.5" stroke="black" stroke-width="2" fill="none" />
<polyline points="185.5,198.5,193.5,198.5,201.5,197.5,210.0,196.5,218.0,195.5,226.5,195.0,235.0,194.5" stroke="black" stroke-width="2" fill="none" />
<polyline points="234.5,187.5,226.5,187.5,218.5,188.0,210.5,188.5,203.0,188.5,195.0,189.0" stroke="black" stroke-width="2" fill="none" />
<polyline points="204.5,186.0,212.5,186.0,220.5,186.0,229.0,186.0,237.0,186.0,245.0,186.0,253.0,187.0,255.0,190.5" stroke="black" stroke-width="2" fill="none" />
<polyline points="259.5,177.5,251.0,178.0,243.5,178.0,236.0,178.5,228.0,179.0,220.0,180.0,212.5,180.5,204.5,181.5" stroke="black" stroke-width="2" fill="none" />
<polyline points="212.5,184.0,220.5,184.0,228.0,183.5" stroke="black" stroke-width="2" fill="none" />
<polyline points="226.0,169.5,218.5,170.0" stroke="black" stroke-width="2" fill="none" />
<polyline points="212.0,165.0,219.5,164.5,227.5,164.5,235.5,164.0,243.0,163.5,250.5,163.0,259.5,162.5" stroke="black" stroke-width="2" fill="none" />
<polyline points="250.0,165.0,244.5,171.5,240.5,166.5,233.0,166.0,239.0,157.0,236.5,152.5,253.5,144.5,251.0,136.5,247.0,132.5,238.5,129.5" stroke="black" stroke-width="2" fill="none" />
<polyline points="244.5,132.5,252.5,132.0" stroke="black" stroke-width="2" fill="none" />
<polyline points="251.0,138.5,243.0,139.5,235.5,140.5,228.0,141.0,220.5,141.5" stroke="black" stroke-width="2" fill="none" />
<polyline points="225.5,142.0,233.0,141.0,237.0,136.0,245.0,134.0,253.0,136.0" stroke="black" stroke-width="2" fill="none" />
<polyline points="254.5,129.0,247.0,128.0" stroke="black" stroke-width="2" fill="none" />
<polyline points="245.0,123.0,253.0,120.0" stroke="black" stroke-width="2" fill="none" />
<polyline points="233.5,130.5,225.5,130.5" stroke="black" stroke-width="2" fill="none" />
<polyline points="227.0,125.0,235.0,124.0,243.0,123.0,251.0,122.0,259.5,122.0" stroke="black" stroke-width="2" fill="none" />
<polyline points="259.0,113.5,251.5,114.5,243.0,115.0,235.0,115.5,226.5,115.5" stroke="black" stroke-width="2" fill="none" />
<polyline points="223.0,118.5,225.0,127.0,226.0,133.0,226.0,141.0,228.0,149.0,225.0,150.5,232.5,157.5,228.5,161.5,228.5,175.0,229.5,182.0,237.5,181.5,239.5,174.5,241.5,181.5,249.5,178.0,250.0,169.0,256.5,165.5" stroke="black" stroke-width="2" fill="none" />
<polyline points="253.5,173.5,254.0,160.0,254.0,152.0" stroke="black" stroke-width="2" fill="none" />
<polyline points="259.5,147.0,251.5,147.0,243.0,147.5,234.5,147.5,226.0,147.5,218.5,148.0" stroke="black" stroke-width="2" fill="none" />
<polyline points="230.0,153.0,222.0,161.0" stroke="black" stroke-width="2" fill="none" />
<polyline points="204.5,147.5,196.0,147.0,187.0,147.0,178.0,147.5,169.5,148.0,161.5,148.5,154.0,149.0,146.5,149.5,138.5,150.0,130.5,150.0,123.5,150.5,115.5,151.0,107.5,151.5,100.0,152.0,92.0,152.0" stroke="black" stroke-width="2" fill="none" />
<polyline points="91.5,152.5,99.5,145.0,108.0,137.0,116.0,129.5,123.5,121.5,131.0,113.5,139.0,106.0,147.0,99.0,155.5,91.0,164.0,83.5,172.0,76.0" stroke="black" stroke-width="2" fill="none" />
<polyline points="166.5,77.0,181.5,85.0,191.5,93.0,197.0,100.5,200.5,108.5,203.0,116.5,204.0,124.5,205.0,132.5,204.0,140.0,203.0,148.0,201.5,155.5,197.0,164.0,191.5,172.0,185.0,179.5,174.0,187.5" stroke="black" stroke-width="2" fill="none" />
<polyline points="174.5,181.5,159.5,189.5" stroke="black" stroke-width="2" fill="none" />
<polyline points="141.0,190.5,149.0,183.5,157.5,176.5,165.0,169.0,173.0,162.0,181.0,155.0,189.0,148.0,197.0,141.0,205.5,134.0" stroke="black" stroke-width="2" fill="none" />
<polyline points="202.0,114.5,194.0,115.5,185.5,116.5,177.5,117.5,169.5,117.5,162.0,118.5,154.5,118.5,147.0,118.5,140.0,118.5,132.5,118.5,124.5,119.0,117.0,120.0,109.0,120.5,101.0,121.5,93.0,122.0" stroke="black" stroke-width="2" fill="none" />
<polyline points="93.5,113.5,101.0,113.5,108.5,113.5,116.5,113.0,124.5,112.0,133.0,111.5,140.5,110.5,148.0,110.0,156.0,109.5,164.0,109.5,172.0,109.0,180.0,108.5,188.5,108.0,197.0,107.5" stroke="black" stroke-width="2" fill="none" />
<polyline points="186.0,91.0,178.5,98.5,171.5,106.0,164.0,113.5,156.0,121.0,148.5,129.0,140.0,137.0,132.0,145.0,124.5,153.0,116.0,161.0,107.5,168.5,99.5,176.5" stroke="black" stroke-width="2" fill="none" />
<polyline points="99.5,176.0,107.5,175.5,115.5,175.0,123.5,175.0,131.5,175.0,139.5,174.5,147.5,173.5,155.5,173.0,163.5,172.5,172.0,172.0,180.5,171.0,188.5,171.0" stroke="black" stroke-width="2" fill="none" />
<polyline points="188.0,174.0,179.5,175.0,172.0,175.5,164.0,176.5,156.0,177.0,148.0,178.0,140.0,178.5,132.0,179.5,124.0,180.0,116.0,180.5,107.5,181.5,99.0,181.5" stroke="black" stroke-width="2" fill="none" />
<polyline points="98.0,168.0,106.5,167.5,114.5,166.5,123.0,166.0,131.0,165.0,139.0,164.5,147.0,164.0,155.0,164.0,163.5,164.0,171.5,164.0,180.0,164.0,187.5,163.5,195.5,163.5" stroke="black" stroke-width="2" fill="none" />
<polyline points="196.0,155.0,188.0,155.5,180.5,156.0,172.0,156.0,164.0,157.0,155.0,157.0,147.0,157.0,139.0,157.5,131.5,158.0,123.5,158.5,115.0,159.5,107.0,160.0,99.5,160.5,92.0,161.0" stroke="black" stroke-width="2" fill="none" />
<polyline points="93.0,165.5,101.0,157.5,108.5,150.0,116.5,142.5,124.0,135.5,132.0,128.5,140.0,121.0,148.0,113.5,155.5,106.0,163.0,98.5,171.0,91.0,179.0,83.0" stroke="black" stroke-width="2" fill="none" />
<polyline points="178.5,86.0,170.5,86.5,163.0,87.5,155.0,88.0,147.0,88.5,138.0,89.0,130.0,89.5,122.0,90.0,114.0,90.5" stroke="black" stroke-width="2" fill="none" />
<polyline points="118.0,84.5,109.5,92.0,100.5,99.5,92.5,106.5" stroke="black" stroke-width="2" fill="none" />
<polyline points="97.5,104.0,105.5,103.5,114.0,102.5,122.5,102.5,131.0,102.5,139.0,102.0,148.0,102.0,156.5,102.0,165.0,102.0,173.5,102.0,181.5,102.0,189.0,101.0,197.0,100.0" stroke="black" stroke-width="2" fill="none" />
<polyline points="188.0,92.0,179.5,93.0,171.5,93.0,164.0,93.0,156.0,93.5,148.5,94.0,140.0,94.0,131.5,94.5,123.0,95.0,114.5,95.5,106.5,95.5,98.5,96.0" stroke="black" stroke-width="2" fill="none" />
<polyline points="92.0,95.0,100.0,94.5,108.0,94.5,116.5,94.0,125.0,92.5,133.5,92.0,142.0,91.0,150.0,90.0,158.0,89.5,166.0,88.5,173.5,88.5,182.0,87.5,190.0,87.5,198.0,87.0" stroke="black" stroke-width="2" fill="none" />
<polyline points="202.0,94.0,194.0,95.0,186.0,95.5,178.0,96.0,170.5,96.0,162.5,96.5,154.5,97.0,146.0,98.0,138.0,98.5,130.0,98.5,122.0,98.5,114.0,99.0,106.5,100.0,98.5,101.0,90.5,102.0,82.5,103.0" stroke="black" stroke-width="2" fill="none" />
<polyline points="80.5,104.5,88.0,94.5" stroke="black" stroke-width="2" fill="none" />
<polyline points="96.0,86.0,90.0,94.0,83.0,102.0,80.5,110.0,78.0,118.5,77.0,126.5,77.0,134.5,77.0,142.0,79.0,149.5,80.5,157.0,85.5,165.0,90.5,173.5,97.5,181.5" stroke="black" stroke-width="2" fill="none" />
<polyline points="100.5,166.0,108.5,158.5,116.0,151.5,124.0,144.0,132.0,136.5,140.0,129.0,147.5,121.5,155.0,114.5,163.0,107.0,171.5,99.0,179.5,91.0,187.5,84.0" stroke="black" stroke-width="2" fill="none" />
<polyline points="189.0,80.5,197.0,90.0,204.5,105.5" stroke="black" stroke-width="2" fill="none" />
<polyline points="219.0,102.0,227.0,101.5,235.5,101.0,244.0,101.0" stroke="black" stroke-width="2" fill="none" />
<polyline points="250.0,92.0,241.5,92.5,233.0,93.5" stroke="black" stroke-width="2" fill="none" />
<polyline points="227.0,93.0,218.5,93.5" stroke="black" stroke-width="2" fill="none" />
<polyline points="217.5,90.0,225.5,90.0,233.5,91.0,231.5,101.5,245.5,102.5,245.0,107.5,249.0,112.5,239.0,116.5,235.0,121.5,238.0,112.5,241.5,108.0,250.5,102.5" stroke="black" stroke-width="2" fill="none" />
<polyline points="252.5,108.0,244.5,107.5,236.5,108.0,228.5,108.5,221.0,109.0" stroke="black" stroke-width="2" fill="none" />
<polyline points="223.0,119.5,231.5,120.0,241.5,119.5,249.5,119.5,255.0,125.5" stroke="black" stroke-width="2" fill="none" />
<polyline points="251.0,145.0,246.0,136.5,243.0,143.5,235.0,146.5,238.0,143.5,246.0,139.5,236.0,138.5" stroke="black" stroke-width="2" fill="none" />
<polyline points="226.5,137.0,228.0,134.0,236.0,130.5,241.0,132.0,235.0,139.5,231.5,146.5,234.5,150.5,237.5,156.0,240.5,148.5,245.5,151.0,248.5,148.0,250.5,154.0,255.5,151.0,247.0,159.0,252.5,158.0,246.0,164.5,246.0,172.5,236.0,173.5,231.0,179.0,244.5,184.5,252.5,184.5,255.5,179.5" stroke="black" stroke-width="2" fill="none" />
<polyline points="240.5,203.5,232.5,205.0" stroke="black" stroke-width="2" fill="none" />
<polyline points="228.0,205.0,220.0,205.0,211.5,206.0,203.0,206.5,195.0,207.5,187.0,208.0,178.5,208.5,171.0,209.0,163.5,209.0,156.0,209.5,149.0,210.0,141.5,211.0,133.5,211.5,125.5,212.5,118.0,213.0,109.5,213.5,101.5,214.0" stroke="black" stroke-width="2" fill="none" />
<polyline points="100.5,207.0,108.5,206.0" stroke="black" stroke-width="2" fill="none" />
<polyline points="98.5,207.5,98.5,205.0,98.5,208.5,99.5,216.5,101.0,224.5,103.5,229.5,106.5,237.5,116.5,237.0,115.0,234.0,111.0,246.0,111.0,254.0" stroke="black" stroke-width="2" fill="none" />
<polyline points="107.0,234.0,99.0,235.5" stroke="black" stroke-width="2" fill="none" />
<polyline points="93.0,226.0,101.0,222.0,108.0,224.5" stroke="black" stroke-width="2" fill="none" />
<polyline points="115.0,225.5,123.0,218.0" stroke="black" stroke-width="2" fill="none" />
<polyline points="123.5,211.5,116.0,219.0" stroke="black" stroke-width="2" fill="none" />
<polyline points="110.0,220.5,118.0,212.5" stroke="black" stroke-width="2" fill="none" />
<polyline points="124.5,227.0,132.5,219.5" stroke="black" stroke-width="2" fill="none" />
<polyline points="141.0,218.0,132.5,225.5,124.0,233.0" stroke="black" stroke-width="2" fill="none" />
<polyline points="89.5,215.0,92.5,217.0,92.5,225.5,99.5,233.5,101.5,242.5,102.5,250.5,104.0,249.0,112.5,251.5,120.5,252.0,127.0,254.5,134.0,254.5,142.0,253.5,147.0,249.0,155.0,251.5,163.5,251.5,172.0,251.5,180.5,247.5,188.5,247.5,198.0,244.5,205.0,246.5,205.5,253.5,216.5,252.5" stroke="black" stroke-width="2" fill="none" />
<polyline points="250.5,231.5,255.5,226.5" stroke="black" stroke-width="2" fill="none" />
<polyline points="203.5,151.0,196.0,151.0,188.5,151.0,181.0,151.0,173.5,151.0,166.0,151.5,158.0,152.0,150.0,153.0,141.5,154.0,132.5,155.0,124.5,156.0,116.0,157.0,108.0,157.0,99.5,157.5,90.5,158.5,82.5,159.0" stroke="black" stroke-width="2" fill="none" />
<polyline points="80.5,158.0,88.5,170.0,96.5,180.5" stroke="black" stroke-width="2" fill="none" />
<polyline points="93.0,159.0,101.0,151.0,109.0,143.5,117.0,136.0,124.0,128.5,131.5,121.0,139.5,113.5,147.5,105.5,155.5,98.0,163.5,90.5,171.5,83.0" stroke="black" stroke-width="2" fill="none" />
<polyline points="163.5,78.5,156.0,79.0,148.5,79.5,141.0,80.5,133.0,81.0" stroke="black" stroke-width="2" fill="none" />
<polyline points="132.0,75.5,124.0,82.5,116.0,90.0,108.0,97.5,99.5,105.0,91.0,113.0,83.0,120.5" stroke="black" stroke-width="2" fill="none" />
<polyline points="83.0,121.5,91.0,102.5,99.0,92.5,107.5,85.5,115.5,80.0,123.0,76.0,131.0,73.5,139.0,72.5,147.0,72.0,155.0,72.0,162.5,74.0,170.5,77.0,179.0,81.0,187.0,87.0,195.0,97.0,203.0,114.0" stroke="black" stroke-width="2" fill="none" />
<polyline points="202.5,138.5,194.5,139.0,186.5,139.0,178.5,139.0,170.5,139.5,162.5,140.0,154.5,140.5,146.5,141.0,139.0,141.5,130.5,143.0,122.0,143.5,114.0,144.0,106.0,144.0,98.0,144.0,90.0,144.5,82.5,145.0" stroke="black" stroke-width="2" fill="none" />
<polyline points="82.5,141.5,91.0,141.0,99.0,140.0,106.5,139.0,113.5,139.0,121.0,138.5,129.0,138.5,137.5,138.0,145.5,138.0,153.0,137.5,161.0,137.0,169.5,137.0,177.5,136.5,186.0,136.0,193.5,135.5,201.5,135.0,210.0,134.5" stroke="black" stroke-width="2" fill="none" />
<polyline points="202.5,142.5,195.0,142.5,187.5,142.5,180.0,142.5,172.5,142.5,165.0,143.5,156.5,144.0,148.5,144.5,140.5,145.5,132.0,145.5,123.5,146.5,115.5,147.5,107.5,149.0,99.0,149.5,91.0,150.0,82.5,150.5" stroke="black" stroke-width="2" fill="none" />
<polyline points="86.0,149.5,94.0,142.0,101.5,134.0,109.5,126.5,117.0,119.5,125.0,112.0,132.5,105.0,140.0,97.5,148.0,90.0,156.0,82.5,164.0,75.0" stroke="black" stroke-width="2" fill="none" />
<polyline points="157.0,75.5,148.5,83.5,140.0,91.0,132.0,98.5,123.5,105.5,115.5,113.0,107.0,120.0,99.0,127.0,91.0,134.0,83.0,141.5" stroke="black" stroke-width="2" fill="none" />
<polyline points="84.0,135.5,92.0,135.0,99.5,134.5,107.0,134.0,114.5,134.0,122.0,133.5,130.0,133.0,138.0,133.0,146.0,133.0,154.5,133.0,162.5,133.0,170.5,132.0,178.5,132.0,187.0,131.5,195.5,131.0,204.0,130.5" stroke="black" stroke-width="2" fill="none" />
<polyline points="211.0,124.5,203.0,125.0,195.5,125.5,188.0,126.0,180.5,126.5,173.0,127.5,165.0,128.0,156.5,128.5,148.5,128.5,140.0,128.5,132.0,129.0,124.5,129.5,116.5,130.5,109.0,131.0,101.0,131.5,93.0,132.0,85.0,132.0" stroke="black" stroke-width="2" fill="none" />
<polyline points="84.0,134.5,92.0,127.0,100.0,119.5,108.0,112.0,116.5,104.5,124.5,96.5,132.5,88.5,140.0,81.0,148.0,74.0" stroke="black" stroke-width="2" fill="none" />
<polyline points="140.5,75.0,132.5,82.5,124.5,90.0,116.5,97.0,108.5,104.0,100.5,111.5,92.5,119.5,84.5,127.5" stroke="black" stroke-width="2" fill="none" />
<polyline points="82.0,129.0,90.5,128.0,99.0,127.0,107.0,126.5,115.0,126.5,123.0,126.0,131.0,125.5,139.5,125.0,147.5,124.5,155.5,123.5,163.5,122.5,171.5,122.5,179.5,122.0,187.5,122.0,195.5,122.0,203.5,121.5" stroke="black" stroke-width="2" fill="none" />
<polyline points="211.0,117.5,204.0,118.5,196.0,119.0,188.0,119.5,180.5,120.0,172.5,120.0,164.5,120.5,156.5,121.0,148.0,121.0,140.0,121.5,131.5,122.0,123.0,122.5,115.0,122.5,106.5,123.0,98.0,124.0,89.5,125.0,81.5,125.5" stroke="black" stroke-width="2" fill="none" />
<polyline points="82.0,116.0,90.0,116.0,98.0,115.5,106.0,115.0,114.5,114.5,123.0,114.0,131.5,114.0,139.5,113.5,147.5,113.5,156.0,113.0,165.0,112.5,172.5,112.0,180.0,111.5,187.5,111.0,194.5,110.5,202.5,110.0" stroke="black" stroke-width="2" fill="none" />
<polyline points="203.5,102.0,196.0,102.5,188.0,103.5,179.5,104.0,171.5,104.5,163.5,105.5,155.0,105.5,146.5,105.5,138.0,105.5,130.5,106.0,122.0,107.0,114.0,107.0,106.0,107.0,98.0,107.5,90.0,108.0,82.0,108.5" stroke="black" stroke-width="2" fill="none" />
<polyline points="67.0,108.0,62.5,116.0" stroke="black" stroke-width="2" fill="none" />
<polyline points="59.5,141.0,52.0,141.0" stroke="black" stroke-width="2" fill="none" />
<polyline points="42.0,147.5,50.5,147.5,58.0,147.5,66.5,147.5" stroke="black" stroke-width="2" fill="none" />
<polyline points="68.0,155.5,76.0,173.5,84.0,184.0,91.5,192.5,99.0,198.5,107.0,202.5,115.0,206.5,122.5,209.5,130.5,210.5,138.5,211.5,146.5,210.0,154.5,209.0,162.5,208.5,171.0,205.5,179.0,201.5,187.0,197.0,195.0,190.0,203.0,182.0,211.0,170.0" stroke="black" stroke-width="2" fill="none" />
<polyline points="254.0,111.5,246.0,108.5,236.0,105.5,228.5,96.0,220.5,100.0,217.5,106.0,209.5,90.0" stroke="black" stroke-width="2" fill="none" />
<polyline points="206.5,87.5,215.0,88.0,223.5,86.5,232.5,87.0,241.0,87.5,249.0,87.5,257.0,87.5" stroke="black" stroke-width="2" fill="none" />
<polyline points="260.5,82.0,252.5,82.0,244.5,83.0,237.0,84.0,229.0,85.0,221.0,86.0,213.5,87.0" stroke="black" stroke-width="2" fill="none" />
<polyline points="205.5,83.5,213.5,83.5,214.5,85.5,223.0,85.5,231.0,85.5,239.5,82.5,247.5,81.5" stroke="black" stroke-width="2" fill="none" />
<polyline points="247.5,92.0,245.5,89.0,237.5,89.0" stroke="black" stroke-width="2" fill="none" />
<polyline points="234.0,84.0,242.5,84.0,250.5,84.0" stroke="black" stroke-width="2" fill="none" />
<polyline points="251.5,66.0,259.0,58.5" stroke="black" stroke-width="2" fill="none" />
<polyline points="228.0,66.0,220.5,73.5" stroke="black" stroke-width="2" fill="none" />
<polyline points="211.5,78.0,220.0,77.0,228.0,77.0,236.5,76.5,245.0,76.0,252.5,76.0,260.5,75.0" stroke="black" stroke-width="2" fill="none" />
<polyline points="261.0,66.5,253.0,67.0,245.0,67.5,237.0,68.0,228.5,68.0,220.0,68.0,212.0,68.5,204.5,69.0,196.0,69.0" stroke="black" stroke-width="2" fill="none" />
<polyline points="198.5,74.5,206.5,80.5,213.0,74.0" stroke="black" stroke-width="2" fill="none" />
<polyline points="221.0,77.0,213.0,73.0,205.0,66.0" stroke="black" stroke-width="2" fill="none" />
<polyline points="188.0,62.0,196.0,61.5,204.5,61.0,213.0,60.5,221.0,60.5,229.5,60.0,237.5,59.5,245.0,59.0,253.0,58.5,261.0,57.5" stroke="black" stroke-width="2" fill="none" />
<polyline points="259.5,18.0,251.0,18.5,243.0,19.5,235.5,19.5,227.5,20.0,219.5,20.5" stroke="black" stroke-width="2" fill="none" />
<polyline points="219.5,4.0,228.0,3.0,236.0,2.5,244.5,1.5,252.5,0.5,260.5,0.0" stroke="black" stroke-width="2" fill="none" />
<polyline points="261.5,10.5,253.0,11.5,245.0,11.5,237.0,12.0,228.5,12.5,220.0,12.0,211.0,12.0,202.0,12.5,193.5,13.0" stroke="black" stroke-width="2" fill="none" />
<polyline points="206.0,20.0,198.0,20.5,190.0,20.5,181.5,21.5" stroke="black" stroke-width="2" fill="none" />
<polyline points="170.5,29.0,178.5,28.5,186.5,28.0,194.5,28.0,202.5,28.0,210.5,27.5,218.5,27.0,226.0,27.0,234.0,27.0,242.0,26.5,250.0,25.5,258.0,25.5" stroke="black" stroke-width="2" fill="none" />
<polyline points="258.5,48.5,250.5,49.0,242.0,50.0,233.5,50.5,226.0,51.0,218.5,51.5,210.5,51.5,203.0,51.5,195.5,51.5,188.0,51.5,180.5,51.5,173.0,52.5" stroke="black" stroke-width="2" fill="none" />
<polyline points="166.5,57.5,184.5,65.5,196.5,73.5,203.0,81.5,210.0,90.5,214.0,99.0,218.0,107.0,219.5,115.0,221.0,122.5,222.0,130.5,222.0,138.0,221.0,146.5,219.0,154.5,215.5,162.5,212.0,170.5,207.0,178.5,199.5,186.0,191.5,194.0,179.5,202.0" stroke="black" stroke-width="2" fill="none" />
<polyline points="204.0,157.0,207.0,149.0,208.0,141.0,209.0,133.0,208.5,124.5,206.5,116.5,203.5,108.5,200.5,100.0,195.5,92.0,188.5,83.5,181.5,78.5" stroke="black" stroke-width="2" fill="none" />
<polyline points="145.0,46.0,153.5,46.0,161.5,45.5,170.0,45.0,177.5,44.5,185.5,44.0,194.0,43.5,202.5,43.0,211.0,42.5,219.0,41.0,227.5,40.5,235.0,40.5,243.5,40.0,251.0,40.0,258.5,40.0" stroke="black" stroke-width="2" fill="none" />
<polyline points="259.5,29.0,251.0,29.5,242.5,30.0,234.5,30.0,226.0,31.0,217.5,31.5,209.0,32.5,201.5,33.0,194.0,33.0,186.5,34.0,179.0,34.5,171.5,34.5,163.5,35.0,155.5,35.0,147.5,35.0,139.5,35.5,131.5,35.5" stroke="black" stroke-width="2" fill="none" />
<polyline points="124.5,35.5,116.5,35.5,108.5,36.5" stroke="black" stroke-width="2" fill="none" />
<polyline points="100.0,38.0,92.0,38.5,84.0,39.0,76.5,39.5" stroke="black" stroke-width="2" fill="none" />
<polyline points="84.5,75.5,76.5,76.0,68.5,76.5,60.5,77.0" stroke="black" stroke-width="2" fill="none" />
<polyline points="51.0,78.5,58.5,78.5,66.5,78.5,74.5,78.5" stroke="black" stroke-width="2" fill="none" />
<polyline points="99.0,85.0,107.0,84.0,114.5,83.5,122.5,83.0,131.0,83.0,139.5,83.0,147.5,82.5,156.0,82.0,164.5,81.5,172.5,80.5,180.5,80.5,188.5,79.5" stroke="black" stroke-width="2" fill="none" />
<polyline points="164.0,67.5,156.0,68.0,148.0,68.5,140.5,69.0,132.5,69.0,124.5,69.5" stroke="black" stroke-width="2" fill="none" />
<polyline points="127.0,75.5,109.5,83.5,100.5,92.0,93.5,100.0,88.5,107.5,85.5,115.0,83.5,123.0,82.5,131.0,82.5,139.0,83.5,146.5,86.5,154.5,89.5,162.5,94.0,170.5,100.0,178.5,110.0,186.5,128.5,188.5,131.5,187.5,139.5,190.0,147.0,190.0,155.0,188.5,162.5,185.5,171.0,182.0" stroke="black" stroke-width="2" fill="none" />
<polyline points="198.0,161.0,190.0,174.0,181.5,182.0,173.5,187.5,165.5,191.5,157.5,194.5,149.5,195.5,141.5,195.5,133.5,194.5,125.5,194.0,117.5,191.0,110.0,186.0,102.5,180.0,94.5,170.0,87.0,155.0" stroke="black" stroke-width="2" fill="none" />
<polyline points="59.5,155.5,51.0,163.5,43.5,171.0" stroke="black" stroke-width="2" fill="none" />
<polyline points="34.0,173.5,42.0,173.0,50.5,171.5,58.5,170.5,67.0,170.0,76.0,169.5" stroke="black" stroke-width="2" fill="none" />
<polyline points="67.5,163.0,59.5,164.0,51.5,164.5,43.5,164.5,35.0,165.0" stroke="black" stroke-width="2" fill="none" />
<polyline points="34.5,159.5,42.0,158.5,50.5,158.5,58.5,157.5,66.0,156.5" stroke="black" stroke-width="2" fill="none" />
<polyline points="57.0,183.0,49.0,182.5,41.0,180.5,32.5,182.0" stroke="black" stroke-width="2" fill="none" />
<polyline points="46.0,187.0,48.5,195.5,48.5,193.5" stroke="black" stroke-width="2" fill="none" />
<polyline points="43.0,221.5,51.0,222.0" stroke="black" stroke-width="2" fill="none" />
<polyline points="60.5,228.0,62.5,242.0,63.5,244.0,61.5,252.0,54.5,253.5,64.5,255.0,72.5,255.0,80.5,255.0" stroke="black" stroke-width="2" fill="none" />
<polyline points="42.5,246.0,34.5,246.5,26.0,247.0" stroke="black" stroke-width="2" fill="none" />
<polyline points="23.5,228.5,35.5,230.5,42.5,238.5,46.5,243.0,46.0,253.0,48.5,250.5,56.5,248.5,64.0,248.0" stroke="black" stroke-width="2" fill="none" />
<polyline points="51.0,251.0,43.0,252.0,35.5,252.0,28.0,252.0,20.5,252.0,13.0,252.5,4.5,253.0" stroke="black" stroke-width="2" fill="none" />
<polyline points="1.5,249.5,5.5,243.5,18.0,240.0,18.0,247.5" stroke="black" stroke-width="2" fill="none" />
<polyline points="13.0,249.0,9.0,245.5,1.5,246.0" stroke="black" stroke-width="2" fill="none" />
<polyline points="1.5,231.0,9.5,229.0,12.5,228.5,17.5,230.5,14.0,238.5,14.5,247.0,6.5,248.0,6.5,253.0,14.5,255.5,17.5,256.5" stroke="black" stroke-width="2" fill="none" />
<polyline points="9.5,232.0,17.5,233.5,23.5,235.5,25.5,239.5,24.5,247.5,26.5,247.0,25.5,239.5,33.5,230.5,41.5,234.5,43.5,240.0,50.5,241.5,58.5,242.0,67.5,244.0" stroke="black" stroke-width="2" fill="none" />
<polyline points="76.5,240.0,69.5,240.0,71.0,232.0,66.5,228.5,67.5,221.5,69.5,213.5" stroke="black" stroke-width="2" fill="none" />
<polyline points="107.0,204.0,93.5,196.0,80.0,190.0,72.0,192.0,64.0,195.0,56.0,195.0,53.5,187.0,45.0,186.5,37.0,186.5,29.0,185.0,23.0,174.5,14.5,174.5,17.5,174.5,24.5,170.0,27.5,162.0,19.5,157.0,18.0,159.0" stroke="black" stroke-width="2" fill="none" />
<polyline points="27.0,161.0,35.0,156.0,37.0,146.5,45.0,145.5" stroke="black" stroke-width="2" fill="none" />
<polyline points="38.0,160.5,30.0,162.0" stroke="black" stroke-width="2" fill="none" />
<polyline points="21.5,141.5,14.0,142.5,6.0,143.5" stroke="black" stroke-width="2" fill="none" />
<polyline points="1.0,142.0,9.0,141.0,17.0,141.5,29.5,137.5" stroke="black" stroke-width="2" fill="none" />
<polyline points="12.5,134.0,4.5,134.5" stroke="black" stroke-width="2" fill="none" />
<polyline points="1.0,133.0,9.5,137.5,17.0,138.5,25.0,141.5,28.5,145.5,24.0,147.5" stroke="black" stroke-width="2" fill="none" />
<polyline points="22.5,147.0,14.0,149.0,5.5,146.0,7.5,152.0" stroke="black" stroke-width="2" fill="none" />
<polyline points="8.5,175.0,16.5,173.0,24.5,173.5,30.5,174.5,34.0,178.0,42.5,176.5,50.5,176.5,58.5,176.0,65.5,178.0,73.5,176.0" stroke="black" stroke-width="2" fill="none" />
<polyline points="18.0,205.0,10.5,204.5" stroke="black" stroke-width="2" fill="none" />
<polyline points="10.0,202.0,18.0,202.5,27.0,203.5,27.5,206.5,38.0,199.5,38.0,212.5,44.5,218.0,44.5,214.0" stroke="black" stroke-width="2" fill="none" />
<polyline points="33.0,211.0,29.0,215.0,28.0,210.0,18.0,208.5,10.0,211.5" stroke="black" stroke-width="2" fill="none" />
<polyline points="2.5,186.0,10.5,186.0,18.0,184.5,26.0,183.0,33.5,183.0,41.5,183.0,49.5,184.0,57.0,184.5,65.0,185.0,73.5,180.0" stroke="black" stroke-width="2" fill="none" />
<polyline points="11.0,184.5,3.0,184.5" stroke="black" stroke-width="2" fill="none" />
<polyline points="6.5,177.0,7.5,173.5,1.0,175.5" stroke="black" stroke-width="2" fill="none" />
<polyline points="10.5,113.5,18.5,111.5,25.0,108.5,36.0,111.5,35.0,105.5,34.5,103.5,42.5,106.5,47.5,97.0" stroke="black" stroke-width="2" fill="none" />
<polyline points="38.0,107.0,43.0,115.0,54.5,115.5,56.5,108.0,64.5,108.0" stroke="black" stroke-width="2" fill="none" />
<polyline points="58.5,60.5,50.5,60.5,42.5,61.0" stroke="black" stroke-width="2" fill="none" />
<polyline points="52.5,42.0,44.5,42.5,37.0,43.5,29.0,44.0,21.0,45.0,12.5,46.0" stroke="black" stroke-width="2" fill="none" />
<polyline points="16.0,24.0,23.5,23.5,31.5,22.5,39.5,23.5" stroke="black" stroke-width="2" fill="none" />
<polyline points="45.5,37.5,37.5,39.5" stroke="black" stroke-width="2" fill="none" />
<polyline points="4.5,84.0,12.5,83.5,20.5,83.0,29.0,82.5,37.5,82.5,45.5,82.0,53.5,82.5,61.0,83.0,68.5,83.0,76.0,82.5,84.0,82.0" stroke="black" stroke-width="2" fill="none" />
<polyline points="108.5,76.0,116.5,75.0,124.0,74.5,132.0,74.5,140.0,74.5,148.0,74.5,156.0,74.0,164.0,74.0,172.5,73.5,180.5,73.0" stroke="black" stroke-width="2" fill="none" />
<polyline points="158.5,62.0,150.5,61.0,143.0,60.0,135.0,61.0,127.0,62.0,119.0,65.5,111.0,69.5,103.0,73.5,95.0,79.0,87.0,89.0,79.0,102.5,77.5,106.0,80.5,98.0,86.5,90.0,92.5,82.0,103.0,74.0,118.0,66.0" stroke="black" stroke-width="2" fill="none" />
<polyline points="12.5,102.5,5.0,103.0" stroke="black" stroke-width="2" fill="none" />
<polyline points="1.5,106.0,9.5,106.5,16.5,109.5,18.5,102.0,26.5,110.0,26.0,115.0,34.0,116.0,42.0,117.5,50.0,115.5" stroke="black" stroke-width="2" fill="none" />
<polyline points="24.0,107.0,17.0,115.5,12.0,122.5,9.0,110.5,1.0,109.5" stroke="black" stroke-width="2" fill="none" />
<polyline points="2.5,111.0,7.0,119.0,11.5,129.5,16.5,137.0,11.0,143.5,22.0,151.0,26.0,143.5,33.5,142.0,39.5,146.0,44.5,149.0,50.0,150.0,56.5,145.0" stroke="black" stroke-width="2" fill="none" />
<polyline points="3.0,88.0,10.5,88.0,19.0,88.0,26.5,88.0,34.5,87.5,42.5,87.5,50.0,87.5,58.0,87.5,66.0,87.5,73.5,87.5,81.5,81.5,89.5,72.5,97.5,66.5,105.0,62.5,113.0,58.5,121.0,56.5,129.0,54.5,137.5,53.5,146.0,53.5,154.0,54.0,162.5,56.0,170.0,58.0,178.0,62.0,186.0,66.0,194.0,72.0,202.0,71.0,206.5,67.5,217.5,75.0,223.5,71.0,231.5,72.0,240.0,72.5,248.0,70.0,249.0,74.0" stroke="black" stroke-width="2" fill="none" />
<polyline points="72.0,83.5,64.0,84.0,56.0,84.0,47.5,84.5,39.5,84.5,34.5,84.5,26.5,84.0,18.5,84.5,11.0,84.5,3.0,84.5" stroke="black" stroke-width="2" fill="none" />
</svg>