<svg xmlns="http://www.w3.org/2000/svg" version="1.1"><polyline points="247.5,33.5,247.5,41.5" stroke="black" stroke-width="2" fill="none" />
<polyline points="250.5,39.5,258.5,39.0" stroke="black" stroke-width="2" fill="none" />
<polyline points="252.0,27.0,260.0,20.0" stroke="black" stroke-width="2" fill="none" />
<polyline points="259.0,11.5,251.0,19.0,243.5,26.0" stroke="black" stroke-width="2" fill="none" />
<polyline points="236.0,25.0,244.0,18.0,251.5,10.5,259.5,2.5" stroke="black" stroke-width="2" fill="none" />
<polyline points="252.0,4.0,244.0,11.5,235.5,18.5,227.5,25.5" stroke="black" stroke-width="2" fill="none" />
<polyline points="220.5,25.0,229.0,17.5,237.0,10.0,245.5,2.5" stroke="black" stroke-width="2" fill="none" />
<polyline points="237.5,1.5,229.0,9.5,221.0,17.0,212.0,25.0" stroke="black" stroke-width="2" fill="none" />
<polyline points="195.5,33.5,203.0,26.0,210.5,18.0,218.0,11.0,226.0,3.5" stroke="black" stroke-width="2" fill="none" />
<polyline points="220.5,4.5,212.0,12.0,203.5,19.0,195.5,26.5,187.0,34.0" stroke="black" stroke-width="2" fill="none" />
<polyline points="179.5,34.0,187.5,26.5,195.5,18.5,204.0,10.0,212.0,2.0" stroke="black" stroke-width="2" fill="none" />
<polyline points="206.0,4.0,197.5,11.5,189.0,18.5,180.5,26.0,172.5,33.0" stroke="black" stroke-width="2" fill="none" />
<polyline points="164.0,33.0,172.5,25.0,180.5,17.5,188.0,10.0,195.5,2.5" stroke="black" stroke-width="2" fill="none" />
<polyline points="190.5,3.0,182.5,10.5,174.5,18.5,166.5,26.0,158.5,33.5" stroke="black" stroke-width="2" fill="none" />
<polyline points="159.0,41.0,167.0,42.5,175.5,41.5" stroke="black" stroke-width="2" fill="none" />
<polyline points="195.5,37.5,204.0,35.0,206.0,33.0,214.0,32.0,222.0,30.5,230.0,29.5,238.0,25.5,245.5,28.5,245.5,32.5,253.5,35.0" stroke="black" stroke-width="2" fill="none" />
<polyline points="258.0,44.0,250.0,44.5,242.0,45.5,234.0,45.5" stroke="black" stroke-width="2" fill="none" />
<polyline points="235.5,36.5,243.5,36.0" stroke="black" stroke-width="2" fill="none" />
<polyline points="220.5,68.5,212.0,68.5,203.5,68.5,195.0,69.0,187.5,69.0,180.0,69.5,172.0,70.0,164.0,71.0,156.5,71.5,148.0,72.0,140.0,72.5,131.5,72.5,123.5,72.5,115.5,73.0,107.5,74.0,100.0,74.5,92.0,75.5,83.5,76.5,75.5,77.0" stroke="black" stroke-width="2" fill="none" />
<polyline points="66.5,85.0,74.5,84.0,83.5,83.5,91.5,83.0,100.0,83.0,107.5,83.0,115.5,82.5,122.5,81.5,129.5,80.5,137.0,79.5,145.0,79.0,153.0,78.5" stroke="black" stroke-width="2" fill="none" />
<polyline points="157.5,88.0,159.5,91.0" stroke="black" stroke-width="2" fill="none" />
<polyline points="159.5,88.0,161.5,96.0,165.0,106.0,158.5,114.0,162.5,107.5,172.0,100.0,180.0,101.5" stroke="black" stroke-width="2" fill="none" />
<polyline points="164.0,107.5,164.0,110.5,163.5,118.5,164.5,126.5" stroke="black" stroke-width="2" fill="none" />
<polyline points="173.5,145.0,173.5,152.5,176.5,154.0" stroke="black" stroke-width="2" fill="none" />
<polyline points="171.0,156.0,163.0,156.5" stroke="black" stroke-width="2" fill="none" />
<polyline points="162.0,157.0,170.0,157.0" stroke="black" stroke-width="2" fill="none" />
<polyline points="165.0,162.5,173.0,163.0,181.0,166.0,189.0,165.5,197.0,165.5" stroke="black" stroke-width="2" fill="none" />
<polyline points="194.5,163.5,202.5,156.5,211.0,149.0" stroke="black" stroke-width="2" fill="none" />
<polyline points="204.5,146.5,196.5,154.0" stroke="black" stroke-width="2" fill="none" />
<polyline points="198.0,155.5,205.5,155.0,213.0,155.0" stroke="black" stroke-width="2" fill="none" />
<polyline points="217.5,156.0,228.5,163.0,236.5,163.5,244.5,161.5,253.0,160.5" stroke="black" stroke-width="2" fill="none" />
<polyline points="252.0,165.0,259.5,164.5" stroke="black" stroke-width="2" fill="none" />
<polyline points="259.5,156.0,252.0,156.5,244.5,157.0" stroke="black" stroke-width="2" fill="none" />
<polyline points="242.5,149.0,250.5,148.5,258.5,148.0" stroke="black" stroke-width="2" fill="none" />
<polyline points="251.5,145.5,246.0,154.5,238.5,156.0,227.5,157.5,221.0,163.5,213.0,161.0" stroke="black" stroke-width="2" fill="none" />
<polyline points="212.0,147.0,204.5,147.0,196.5,148.0" stroke="black" stroke-width="2" fill="none" />
<polyline points="195.5,143.5,194.5,151.5,202.0,163.0,210.5,152.0,218.5,154.0,226.0,152.0,228.0,158.5,236.0,160.5,243.5,158.0,251.5,157.0" stroke="black" stroke-width="2" fill="none" />
<polyline points="248.5,161.0,255.0,152.0,251.0,143.5" stroke="black" stroke-width="2" fill="none" />
<polyline points="248.5,145.0,248.5,153.0,239.0,158.5,245.5,167.5,248.5,168.5,256.0,168.0" stroke="black" stroke-width="2" fill="none" />
<polyline points="221.5,205.5,213.5,213.0,204.5,220.5,196.0,228.0,188.0,235.0,179.5,242.0,171.5,248.5,163.0,255.5" stroke="black" stroke-width="2" fill="none" />
<polyline points="179.5,258.5,188.0,251.0,196.5,243.5,204.5,236.0,212.5,228.5" stroke="black" stroke-width="2" fill="none" />
<polyline points="211.0,222.0,203.0,229.0,195.0,236.5,187.0,243.5,179.0,251.0,170.5,258.0" stroke="black" stroke-width="2" fill="none" />
<polyline points="196.0,260.0,204.5,253.0,213.0,245.5,221.0,238.5" stroke="black" stroke-width="2" fill="none" />
<polyline points="219.5,244.0,212.0,251.5,204.0,259.0" stroke="black" stroke-width="2" fill="none" />
<polyline points="228.5,257.5,236.5,250.0" stroke="black" stroke-width="2" fill="none" />
<polyline points="228.5,249.5,220.0,257.0" stroke="black" stroke-width="2" fill="none" />
<polyline points="212.5,258.0,221.0,250.0,229.0,242.5" stroke="black" stroke-width="2" fill="none" />
<polyline points="234.0,230.0,241.5,229.5,249.5,228.5" stroke="black" stroke-width="2" fill="none" />
<polyline points="252.0,236.0,244.5,243.5" stroke="black" stroke-width="2" fill="none" />
<polyline points="243.0,239.0,251.0,238.0,259.0,237.5" stroke="black" stroke-width="2" fill="none" />
<polyline points="260.0,243.0,252.0,250.5,244.0,257.5" stroke="black" stroke-width="2" fill="none" />
<polyline points="253.5,258.5,261.5,251.0" stroke="black" stroke-width="2" fill="none" />
<polyline points="237.0,224.0,228.5,224.0,221.0,224.5,212.5,225.0,204.5,225.5,196.0,226.5,188.0,227.0,179.5,227.0,171.5,227.0,164.0,227.5,156.0,228.0,148.0,228.5,140.0,229.5,132.0,230.0,124.5,231.0,116.5,231.5,108.5,232.0,100.5,233.5,92.0,234.5,83.0,235.0,74.5,236.5,67.0,237.0,59.0,237.0,51.0,237.5,42.5,238.0,34.5,238.5" stroke="black" stroke-width="2" fill="none" />
<polyline points="27.5,246.5,35.5,246.0,43.5,245.5,51.5,245.0,59.5,244.5,67.5,243.5,75.5,242.5,84.0,241.5,92.5,240.5,100.5,239.5,109.0,239.5,117.0,239.0,124.5,238.5,132.0,238.0,139.5,237.0,147.0,236.5,155.0,236.5,163.0,236.0,171.0,236.0,179.0,235.5,187.5,235.0,195.5,234.5,203.5,234.0,211.5,233.5,220.5,232.5,228.5,232.5,236.5,232.0,244.5,231.5,253.0,231.0,261.0,230.0" stroke="black" stroke-width="2" fill="none" />
<polyline points="242.5,209.0,235.0,209.0,226.5,209.5,218.5,210.0,210.5,210.5,202.5,211.0,194.0,212.0,186.0,212.5,178.5,213.0,171.5,213.5,164.0,214.0,156.5,214.0,148.5,215.0,140.5,215.5,132.0,216.0,123.5,217.0,115.0,217.5,107.0,218.5,99.0,218.5,91.5,218.5,84.0,219.0,77.0,219.5,69.0,220.5" stroke="black" stroke-width="2" fill="none" />
<polyline points="76.0,220.0,67.5,227.5,59.0,235.0,51.0,242.5,43.0,249.5,35.5,257.5" stroke="black" stroke-width="2" fill="none" />
<polyline points="37.0,251.0,45.0,250.5,52.5,249.5,60.5,248.5,68.0,247.5,75.5,247.0,83.5,246.5" stroke="black" stroke-width="2" fill="none" />
<polyline points="83.5,253.5,91.5,245.5,99.5,238.5,107.5,231.0,115.5,224.0,123.5,216.5,132.0,209.5,140.0,202.0,148.5,195.0,157.5,188.0,165.5,180.0,174.0,173.0" stroke="black" stroke-width="2" fill="none" />
<polyline points="168.0,171.5,179.5,178.5,180.5,178.5,188.0,183.5,191.0,185.0,204.0,189.0,214.5,197.0,218.0,205.0,225.0,213.0,236.5,214.5" stroke="black" stroke-width="2" fill="none" />
<polyline points="237.0,205.0,228.0,205.0,219.5,205.5,211.0,205.5,202.5,205.5,194.5,205.5,186.5,206.0,178.0,207.0,170.0,207.5,162.0,208.5,154.0,208.5,146.0,209.0,138.0,210.0,130.5,211.0,122.0,211.5,114.0,212.0,106.0,212.5,98.5,212.5,90.5,213.0,83.0,214.0,75.5,214.0" stroke="black" stroke-width="2" fill="none" />
<polyline points="81.5,218.5,90.0,217.5,99.0,217.0,107.5,216.5,115.5,215.5" stroke="black" stroke-width="2" fill="none" />
<polyline points="124.0,208.0,116.5,209.0,108.5,210.0,101.0,210.5" stroke="black" stroke-width="2" fill="none" />
<polyline points="98.0,203.5,90.0,210.5,82.5,218.5,75.0,226.0,67.5,233.5,60.0,241.0,52.0,249.0,44.0,257.0" stroke="black" stroke-width="2" fill="none" />
<polyline points="60.0,252.0,68.5,244.5,76.5,237.0,84.5,230.5,93.0,223.5,101.5,217.0,110.0,210.0,118.0,203.5,125.5,196.0,133.5,188.0,141.5,180.5,149.5,173.5" stroke="black" stroke-width="2" fill="none" />
<polyline points="148.5,176.5,156.5,176.0,164.0,175.0" stroke="black" stroke-width="2" fill="none" />
<polyline points="164.5,170.5,156.5,178.0,148.5,185.5,140.5,193.0,132.5,200.5,124.5,208.0,116.5,215.5,108.5,223.5,100.5,231.0,92.0,239.0,84.0,247.0,76.0,254.5" stroke="black" stroke-width="2" fill="none" />
<polyline points="68.5,252.5,76.5,245.0,85.0,237.5,93.0,229.5,100.5,222.5,108.5,215.0,116.0,207.5,123.5,200.0,131.5,192.5,139.5,185.0,147.0,177.5,155.0,170.0" stroke="black" stroke-width="2" fill="none" />
<polyline points="149.0,164.5,140.5,172.0,132.5,178.5,124.5,185.5,116.5,192.5,108.0,199.5,100.5,207.0,92.5,215.0,84.5,222.5,76.5,229.5,69.0,237.5,61.0,245.0,52.5,253.0" stroke="black" stroke-width="2" fill="none" />
<polyline points="50.0,239.5,58.0,239.0,66.5,238.5,74.5,238.0,82.0,237.5,89.5,237.0" stroke="black" stroke-width="2" fill="none" />
<polyline points="73.5,226.5,81.5,226.0,89.5,225.5,97.5,225.0,105.5,224.0" stroke="black" stroke-width="2" fill="none" />
<polyline points="124.5,230.5,132.5,223.5,141.0,216.0,148.5,208.0,156.5,200.5,164.5,193.0,172.0,185.5,180.0,178.0" stroke="black" stroke-width="2" fill="none" />
<polyline points="187.5,178.5,180.0,186.0,172.5,193.5,165.0,201.0,157.0,208.5,149.0,216.0,141.0,223.5,133.5,232.0,126.0,240.0,117.5,248.0,109.5,255.5" stroke="black" stroke-width="2" fill="none" />
<polyline points="131.5,256.5,140.0,248.5,149.0,241.0,157.0,233.0,165.5,225.0,173.5,217.5,181.5,209.5,189.5,202.0,197.0,194.0" stroke="black" stroke-width="2" fill="none" />
<polyline points="198.5,187.0,190.5,194.5,181.5,202.5,172.5,210.0,163.0,218.0,154.5,225.5,146.0,233.0,138.0,240.5,130.0,248.0,122.0,256.0" stroke="black" stroke-width="2" fill="none" />
<polyline points="115.5,256.5,123.5,249.5,132.0,242.0,140.5,234.0,148.5,226.0,156.5,218.0,164.0,210.0,171.5,201.5,179.5,193.5,187.5,185.5" stroke="black" stroke-width="2" fill="none" />
<polyline points="172.5,180.0,164.5,187.5,156.0,195.0,148.0,202.5,140.0,210.5,131.5,218.0" stroke="black" stroke-width="2" fill="none" />
<polyline points="147.0,217.5,155.0,217.0,163.0,216.0,171.5,215.5,179.5,215.0,188.0,214.5,195.5,213.5" stroke="black" stroke-width="2" fill="none" />
<polyline points="203.5,209.0,195.5,216.5,187.5,224.5,179.5,232.5,171.5,241.0,163.5,249.0,156.0,257.0" stroke="black" stroke-width="2" fill="none" />
<polyline points="149.0,256.0,157.0,248.0,165.5,240.0,173.0,232.0,180.5,224.5,188.5,217.5,196.5,210.5,205.0,202.5" stroke="black" stroke-width="2" fill="none" />
<polyline points="205.5,195.0,197.5,202.5,189.5,209.5,181.5,217.0,173.0,225.0,164.5,232.5,156.5,240.0,149.0,247.5,141.0,255.5" stroke="black" stroke-width="2" fill="none" />
<polyline points="139.5,255.0,147.5,254.5,155.5,254.0,164.0,254.0,172.0,253.5,181.0,253.5,188.5,253.0,197.0,252.0,205.5,251.5" stroke="black" stroke-width="2" fill="none" />
<polyline points="189.0,259.0,197.0,251.5,205.5,244.0,213.0,236.0,220.5,228.5" stroke="black" stroke-width="2" fill="none" />
<polyline points="226.0,228.0,230.0,236.0,235.5,244.0" stroke="black" stroke-width="2" fill="none" />
<polyline points="235.5,241.0,227.5,229.0" stroke="black" stroke-width="2" fill="none" />
<polyline points="226.5,228.5,234.5,229.5,242.0,240.5" stroke="black" stroke-width="2" fill="none" />
<polyline points="253.0,238.5,245.0,228.0,237.5,220.0,229.5,211.5,221.5,203.0,213.5,196.5" stroke="black" stroke-width="2" fill="none" />
<polyline points="213.0,200.0,221.0,209.0,234.0,211.5,242.0,218.5" stroke="black" stroke-width="2" fill="none" />
<polyline points="228.5,219.0,220.0,219.5,212.0,220.5,204.5,221.0,197.0,221.0,188.5,221.5,180.0,222.0,171.5,222.0,163.5,222.5,154.5,223.0,146.0,223.5,138.0,224.0,130.5,225.0,122.0,224.5,114.0,225.0,106.0,225.0,98.0,225.0,90.0,226.0,82.0,226.5,74.0,227.5,66.5,228.0,58.5,228.5,50.5,229.0" stroke="black" stroke-width="2" fill="none" />
<polyline points="51.0,234.5,43.5,242.5,35.5,250.5,27.5,258.0" stroke="black" stroke-width="2" fill="none" />
<polyline points="26.0,259.5,34.5,258.5,42.5,257.5,51.0,257.0,59.5,256.5,68.0,255.5,75.5,254.5" stroke="black" stroke-width="2" fill="none" />
<polyline points="66.5,232.0,74.5,231.5,83.0,231.0,91.5,230.0,100.0,229.0" stroke="black" stroke-width="2" fill="none" />
<polyline points="90.5,203.0,99.0,203.0,107.0,202.5,115.0,202.5,123.5,202.5,131.5,202.0,139.5,202.0,148.0,201.0,156.0,201.0,164.5,200.5,172.5,200.0,180.0,199.5,187.5,199.0,195.5,199.0,203.5,198.5,211.5,198.5,219.5,198.5,228.0,198.0" stroke="black" stroke-width="2" fill="none" />
<polyline points="220.0,190.0,211.5,190.5,203.0,191.5,195.0,192.5,187.0,193.0,179.0,194.0,171.0,194.0,163.0,195.0,155.5,195.5,147.5,196.0,139.5,196.0,131.5,196.5,123.5,196.5,115.5,196.5,108.0,196.0,100.0,196.0" stroke="black" stroke-width="2" fill="none" />
<polyline points="107.0,201.5,115.0,201.0,123.5,201.0,131.5,201.0" stroke="black" stroke-width="2" fill="none" />
<polyline points="138.5,190.5,131.0,191.5,124.0,192.0,116.0,193.0" stroke="black" stroke-width="2" fill="none" />
<polyline points="109.5,189.5,99.0,197.5,88.0,206.0,76.0,214.0,63.5,222.0,52.0,230.0,40.0,238.0,27.5,246.0,14.5,254.0,16.5,252.5,24.5,247.5,32.5,242.5,40.0,238.0,48.0,233.5,56.0,228.5,64.0,223.0,72.0,218.0,80.0,213.0,88.0,207.0,96.0,202.0,104.0,196.0,111.5,189.0,119.5,180.5" stroke="black" stroke-width="2" fill="none" />
<polyline points="123.0,179.0,130.5,171.5,138.0,164.0" stroke="black" stroke-width="2" fill="none" />
<polyline points="132.0,164.0,124.0,172.0" stroke="black" stroke-width="2" fill="none" />
<polyline points="123.5,169.5,121.5,177.5,113.5,185.5,101.5,192.5,90.5,200.0,78.5,208.0,66.5,216.0,53.5,224.0,40.5,232.0,27.5,239.5,13.5,247.5,2.0,255.0,10.0,251.0,18.0,246.0,26.0,241.5,34.0,236.5,42.0,231.5,50.5,227.5,58.5,221.5,66.5,218.0,75.0,212.0,82.5,207.0,90.0,202.0,98.0,196.0" stroke="black" stroke-width="2" fill="none" />
<polyline points="108.0,190.5,116.0,190.0,124.0,189.0,132.0,188.0,139.5,187.5,147.5,187.5,155.5,186.5,163.5,186.0,171.5,185.5,179.5,185.0,188.0,184.0,195.5,183.5,203.0,183.0" stroke="black" stroke-width="2" fill="none" />
<polyline points="195.0,198.5,186.5,199.0,178.5,199.0,170.0,199.0,161.5,199.5,154.0,200.0" stroke="black" stroke-width="2" fill="none" />
<polyline points="154.5,194.0,162.0,193.0,170.0,192.5,178.5,192.0,187.5,191.5" stroke="black" stroke-width="2" fill="none" />
<polyline points="195.0,206.0,187.0,206.5,178.5,207.0,170.0,207.0,161.0,207.5,153.0,208.0" stroke="black" stroke-width="2" fill="none" />
<polyline points="147.0,226.5,155.0,226.0,163.0,225.5,171.0,224.5,179.0,224.0,187.0,223.5,194.5,223.0" stroke="black" stroke-width="2" fill="none" />
<polyline points="195.0,231.5,187.0,232.0,179.5,232.0,171.5,232.0,163.0,232.0,154.0,232.5,145.5,232.5" stroke="black" stroke-width="2" fill="none" />
<polyline points="141.0,240.5,149.0,240.0,156.5,239.5,164.0,239.0,171.5,238.0,179.0,237.5,187.0,237.5,195.0,237.0,203.0,237.0" stroke="black" stroke-width="2" fill="none" />
<polyline points="195.5,245.0,187.5,245.5,179.5,246.0,171.5,246.5,163.5,247.5,155.5,248.0,147.0,248.5,139.0,248.5" stroke="black" stroke-width="2" fill="none" />
<polyline points="154.0,184.5,162.0,184.0,170.5,183.5,179.0,183.0" stroke="black" stroke-width="2" fill="none" />
<polyline points="171.0,149.5,163.0,150.0" stroke="black" stroke-width="2" fill="none" />
<polyline points="162.0,150.5,162.0,158.0,169.0,161.0,176.5,161.0,184.5,160.5,192.5,160.0" stroke="black" stroke-width="2" fill="none" />
<polyline points="202.5,149.5,206.0,158.0,205.0,163.5,205.0,171.5" stroke="black" stroke-width="2" fill="none" />
<polyline points="204.5,140.5,212.0,140.0" stroke="black" stroke-width="2" fill="none" />
<polyline points="180.0,169.0,172.5,169.5,164.0,170.0,155.5,170.5,147.0,170.5,138.0,171.0,129.5,171.5,121.0,172.0" stroke="black" stroke-width="2" fill="none" />
<polyline points="121.0,174.0,122.0,166.0" stroke="black" stroke-width="2" fill="none" />
<polyline points="121.0,166.0,117.5,174.0,111.5,182.0,100.5,190.0,89.0,198.0,76.0,206.5,64.5,214.0,49.5,222.0,35.5,230.5,22.0,238.5,8.0,246.5,6.0,247.5,13.5,242.5,21.5,238.5,29.5,234.5,37.0,229.5,45.5,225.0,53.5,219.5,61.5,216.5,69.0,211.0,77.5,205.0,85.5,201.5,93.0,195.0,101.5,190.0,109.5,184.0,117.5,174.0" stroke="black" stroke-width="2" fill="none" />
<polyline points="114.5,180.0,122.5,179.5,130.5,179.5,138.5,179.0,147.0,178.5,155.0,178.0,163.0,177.5,171.5,177.0,179.5,177.0,187.5,177.0,195.5,176.5" stroke="black" stroke-width="2" fill="none" />
<polyline points="208.5,171.5,208.0,163.5,213.0,157.5,207.5,144.5,214.5,144.5,208.0,146.5,207.0,144.0,203.5,141.5,195.0,145.5,186.5,154.5,184.5,152.5,177.5,152.5,173.5,143.5,165.0,142.5,157.0,141.5,149.0,143.0,140.5,141.0,129.5,137.5,121.5,137.5,114.0,137.5,106.5,137.5,98.0,137.5,90.0,136.5,82.0,137.0,72.0,139.0,63.5,140.0,57.0,133.0,57.0,125.0,57.0,117.0,59.0,109.0,59.0,101.0,60.5,93.0,55.5,83.5,48.0,83.0,40.0,81.0,32.0,79.0" stroke="black" stroke-width="2" fill="none" />
<polyline points="35.0,76.0,27.5,76.5,19.5,77.5,11.5,78.0,4.0,78.5" stroke="black" stroke-width="2" fill="none" />
<polyline points="5.0,71.5,13.0,70.5,20.5,70.0,28.5,69.0,36.5,68.0,44.0,67.0,51.5,66.5,60.0,65.5,67.5,64.5,75.0,63.5,82.5,63.0,90.5,62.5,99.0,62.0,107.5,61.0,116.0,60.0,125.0,59.5,133.0,59.0,141.0,59.0,149.0,58.5,157.5,58.0,166.0,57.5,173.5,57.0,181.0,57.0,188.5,56.5,196.0,56.5,204.0,56.0,211.5,55.5,219.0,54.5,226.5,54.0,234.0,53.5,241.5,52.5,249.5,52.5,258.0,52.0" stroke="black" stroke-width="2" fill="none" />
<polyline points="258.5,44.0,251.0,44.0,242.5,44.5,234.5,45.0,226.5,45.5,218.5,46.0,210.0,47.0,202.0,47.5,194.5,48.0,187.5,48.5,180.0,49.0,172.5,49.0,164.5,50.0,156.5,50.5,148.0,51.0,139.5,52.0,131.0,52.5,123.0,53.5,115.0,53.5,107.5,53.5,100.0,54.0,93.0,54.5,85.0,55.5,76.5,56.0,68.5,56.0,60.5,57.0,52.5,58.0,45.0,58.5,37.0,59.0,29.5,59.5,22.0,60.5,14.0,61.5,6.0,62.0" stroke="black" stroke-width="2" fill="none" />
<polyline points="5.0,51.5,13.0,51.0,20.5,50.5,28.5,50.5,36.5,50.5,44.0,50.5,52.5,50.0,61.0,49.5,69.0,49.5,77.0,50.0,85.0,49.5,93.0,49.0,101.0,48.0,109.0,47.5,117.0,47.0,124.5,46.0,132.0,45.5,139.5,45.0,147.0,44.0,155.0,43.5,163.0,42.5,171.0,42.0,179.0,42.0,186.5,41.5,193.5,40.5,201.0,40.0,209.0,39.0,217.5,38.5,225.5,38.0,233.5,38.0,241.5,37.5,249.5,37.0,257.5,36.5" stroke="black" stroke-width="2" fill="none" />
<polyline points="227.0,31.5,219.0,32.0,210.5,32.5,202.5,32.5,194.5,33.5,186.5,34.0,179.0,35.0,171.0,35.5,163.0,36.0,155.0,36.5,147.0,36.5,138.5,36.5,131.0,36.5,123.0,37.5,115.0,38.0,107.5,39.0,99.5,39.5,92.0,40.0,84.5,40.5,76.5,41.0,68.5,41.0,60.5,41.5,53.0,41.5,45.0,41.5,37.5,41.5,29.5,42.5,21.0,42.5,12.5,42.5,4.0,43.0" stroke="black" stroke-width="2" fill="none" />
<polyline points="3.5,43.0,11.5,35.5" stroke="black" stroke-width="2" fill="none" />
<polyline points="13.0,40.0,20.5,32.0,29.0,24.5,36.5,17.0,44.5,9.5,52.0,2.5" stroke="black" stroke-width="2" fill="none" />
<polyline points="58.5,3.5,51.0,11.0,43.0,18.5,35.5,25.5,28.0,33.5,20.5,40.5" stroke="black" stroke-width="2" fill="none" />
<polyline points="20.5,25.5,28.0,17.5,36.0,9.5,43.5,1.5" stroke="black" stroke-width="2" fill="none" />
<polyline points="35.5,3.0,27.5,10.5,19.5,18.0,11.5,25.5,4.5,32.5" stroke="black" stroke-width="2" fill="none" />
<polyline points="6.0,31.5,8.5,29.0,16.5,29.0,25.0,28.5" stroke="black" stroke-width="2" fill="none" />
<polyline points="37.0,33.5,44.5,26.0,52.0,18.0,60.0,11.0,68.0,3.0" stroke="black" stroke-width="2" fill="none" />
<polyline points="76.0,4.5,68.0,11.5,60.5,19.0,52.5,26.5,44.5,34.0" stroke="black" stroke-width="2" fill="none" />
<polyline points="51.5,33.5,59.0,26.0,67.0,18.0,74.5,10.5,83.0,3.0" stroke="black" stroke-width="2" fill="none" />
<polyline points="90.5,1.5,83.0,9.0,74.5,17.0,67.0,24.5,59.5,32.5" stroke="black" stroke-width="2" fill="none" />
<polyline points="76.0,34.5,84.0,26.5,92.0,18.5,100.0,10.5,108.0,3.0" stroke="black" stroke-width="2" fill="none" />
<polyline points="100.5,3.5,92.5,11.5,84.5,19.0,76.5,26.0,69.0,33.0" stroke="black" stroke-width="2" fill="none" />
<polyline points="92.0,33.5,100.5,26.5,108.5,19.0,116.5,12.0,124.5,4.0" stroke="black" stroke-width="2" fill="none" />
<polyline points="116.0,4.5,108.5,12.5,101.0,20.0,93.5,27.0,85.0,34.0" stroke="black" stroke-width="2" fill="none" />
<polyline points="131.5,25.5,139.5,18.0,148.0,11.0,156.5,3.5" stroke="black" stroke-width="2" fill="none" />
<polyline points="164.0,2.5,156.0,9.5,148.0,17.0,139.5,25.0" stroke="black" stroke-width="2" fill="none" />
<polyline points="148.5,32.5,157.0,25.0,165.5,17.5,173.5,10.0,181.5,2.5" stroke="black" stroke-width="2" fill="none" />
<polyline points="172.0,3.5,163.5,10.5,155.5,18.0,148.0,25.5,141.0,32.5" stroke="black" stroke-width="2" fill="none" />
<polyline points="124.5,24.5,131.5,17.0,139.0,10.5,147.0,3.0" stroke="black" stroke-width="2" fill="none" />
<polyline points="138.5,6.0,130.5,13.5,122.0,20.5,114.0,27.5" stroke="black" stroke-width="2" fill="none" />
<polyline points="109.5,25.5,117.5,17.5,125.5,9.5,133.5,1.5" stroke="black" stroke-width="2" fill="none" />
<polyline points="66.5,20.5,58.5,21.0,50.0,21.5,42.5,22.0,34.0,23.5,26.0,24.5,18.5,25.0,10.5,26.0" stroke="black" stroke-width="2" fill="none" />
<polyline points="4.5,25.0,12.0,17.5,19.5,10.5,27.0,3.0" stroke="black" stroke-width="2" fill="none" />
<polyline points="19.0,4.0,11.0,11.5,3.5,19.5" stroke="black" stroke-width="2" fill="none" />
<polyline points="4.0,18.5,12.0,18.0,20.5,17.5,28.0,17.0,36.0,16.5,44.0,16.0,51.5,15.5,59.5,15.5,67.5,15.0,75.0,14.5,82.5,14.0,90.5,13.5,99.0,13.5,107.0,13.0,115.0,11.5,123.0,10.5,131.0,10.0,138.5,8.5,146.5,7.5" stroke="black" stroke-width="2" fill="none" />
<polyline points="171.0,0.0,163.0,0.5,155.0,0.5,147.0,1.0,139.0,1.5,131.5,1.5,124.0,2.0,116.5,2.5,108.5,4.0,100.5,5.5,92.0,6.0,84.5,6.5,76.0,7.0,68.5,7.5,61.0,7.5,53.0,7.0,45.0,7.0,36.5,8.0,28.0,8.0,19.5,8.5,11.0,9.0,2.5,9.5" stroke="black" stroke-width="2" fill="none" />
<polyline points="4.5,11.0,12.5,3.5" stroke="black" stroke-width="2" fill="none" />
<polyline points="2.0,6.0,10.5,5.5,19.0,5.0,27.5,5.0,36.0,5.0,44.0,5.0,52.5,4.5,60.5,4.5,69.0,4.0,77.0,2.5,85.0,2.0,93.0,1.5,100.5,0.5,108.5,-0.5,116.0,-1.5,123.5,-2.0,131.5,-2.5,139.5,-3.0,147.0,-4.0,155.0,-4.0,163.0,-4.5,171.0,-5.0,179.0,-6.0,187.5,-6.5,195.5,-7.0,204.0,-7.5,211.5,-8.5,219.0,-9.0,227.0,-10.0,235.0,-10.5,243.0,-11.0,251.0,-11.0,259.5,-11.5" stroke="black" stroke-width="2" fill="none" />
<polyline points="228.0,23.0,220.0,23.0,211.5,23.5,203.0,24.0,195.0,24.5,186.5,25.0,178.0,25.0,169.0,25.5,161.0,26.0,153.0,26.5,145.5,27.5,138.5,28.5,131.5,29.5,123.5,30.0,116.0,30.0,107.5,30.0,99.5,30.5,90.5,31.0,82.5,32.0,74.5,32.5,67.0,33.0,59.0,33.5,51.5,33.5,44.0,34.5,35.5,35.0,28.0,35.0,20.0,35.0,13.0,35.0,5.0,35.5" stroke="black" stroke-width="2" fill="none" />
<polyline points="6.0,31.0,13.5,30.0,21.0,29.5,28.5,28.5,36.0,28.0,43.0,27.0,51.0,26.5,58.0,25.5,66.0,24.5,74.0,23.0,82.0,22.5,90.0,22.0,98.5,21.5,106.5,21.0,114.0,20.5,121.5,20.0,129.5,19.5,137.5,19.5,145.5,19.0,153.5,18.5,162.0,18.0,169.5,17.5,178.0,17.0,186.5,17.0,194.5,17.0,203.0,16.5,211.5,16.0,220.0,16.0,228.0,16.0,236.5,15.5,244.5,15.5,252.5,14.5,260.5,13.5" stroke="black" stroke-width="2" fill="none" />
<polyline points="260.5,6.0,252.0,6.5,244.0,7.5,236.5,8.0,229.0,8.0,220.5,8.5,212.0,9.0,203.5,9.0,195.5,9.5,186.5,10.0,178.0,10.5,170.0,11.0,162.5,12.0,154.0,11.5,146.0,12.0,138.0,12.0,130.0,12.0,122.0,13.0,114.0,13.5,106.0,14.5,98.5,15.0,90.5,15.5,82.5,16.0,75.0,17.0,67.5,17.5,59.5,18.5,52.0,19.5,44.5,20.5,36.5,21.0,28.5,21.5,20.5,22.0,12.5,22.0,4.5,22.5" stroke="black" stroke-width="2" fill="none" />
<polyline points="4.5,12.0,13.0,12.0,21.0,12.0,28.5,12.0,36.0,11.5,44.0,11.5,52.0,11.5,59.5,11.5,67.5,11.5,75.5,11.5,84.0,11.0,92.0,10.5,100.0,9.5,108.0,8.5,115.5,8.0,123.5,7.0,131.0,6.0,139.0,5.0,146.5,3.5,154.0,3.0,161.5,2.5,170.0,2.5,179.0,2.0,187.5,2.0,195.5,2.0,203.0,2.0,211.0,1.5,219.0,1.0,226.5,0.0,234.5,-1.0,242.5,-1.5,251.0,-2.0,259.0,-2.5" stroke="black" stroke-width="2" fill="none" />
<polyline points="244.0,46.0,236.0,48.0,233.0,44.0,225.0,45.0,228.0,36.5,220.0,37.5,212.0,38.0,204.5,38.5,196.5,40.5" stroke="black" stroke-width="2" fill="none" />
<polyline points="182.0,43.0,176.0,36.0,168.0,38.0,160.0,37.5,155.0,35.5,147.0,37.5,138.5,37.5,130.5,35.5,121.5,27.5,113.0,29.5,105.0,28.5,97.5,27.5,90.5,31.0,82.5,32.5,71.0,36.5,62.5,37.0,54.5,38.0,46.5,39.5,44.5,43.0,36.5,39.0" stroke="black" stroke-width="2" fill="none" />
<polyline points="25.0,45.0,17.0,45.0,9.5,46.0,1.5,46.5" stroke="black" stroke-width="2" fill="none" />
<polyline points="2.0,86.5,10.0,86.0,18.5,85.5,26.5,84.5,34.5,83.5,43.0,82.5" stroke="black" stroke-width="2" fill="none" />
<polyline points="52.0,80.0,60.0,79.5" stroke="black" stroke-width="2" fill="none" />
<polyline points="60.5,81.5,68.5,73.5,77.0,66.5,70.0,72.5,62.5,80.5,59.0,89.0,57.0,97.0,63.5,99.0,65.0,106.5" stroke="black" stroke-width="2" fill="none" />
<polyline points="61.5,103.5,61.5,112.0,59.5,114.0,59.5,122.0,59.5,130.0,60.5,137.5" stroke="black" stroke-width="2" fill="none" />
<polyline points="51.0,138.5,42.5,138.5,34.5,137.0" stroke="black" stroke-width="2" fill="none" />
<polyline points="34.5,140.5,42.5,140.5,50.5,140.5,58.5,140.0,66.0,139.0,74.0,139.0" stroke="black" stroke-width="2" fill="none" />
<polyline points="71.5,155.0,79.5,155.0,87.0,155.0,88.0,162.0,96.0,162.5" stroke="black" stroke-width="2" fill="none" />
<polyline points="97.0,162.5,101.0,170.5,90.5,178.5,74.5,186.5,56.5,194.0,36.5,201.5,18.0,209.5,3.0,217.5,5.0,215.0,13.0,212.0,21.0,209.0,29.0,206.0,37.5,202.0,46.0,199.0,54.0,195.5,62.0,192.5,70.0,188.5,78.0,185.5,85.5,180.5,93.0,176.5,101.0,170.5,104.0,163.5,112.0,163.0,120.0,165.0" stroke="black" stroke-width="2" fill="none" />
<polyline points="116.0,166.0,112.0,174.0,100.0,182.5,86.5,191.0,71.0,199.5,56.0,208.0,39.0,216.0,21.0,224.0,5.0,232.0,7.0,231.0,15.0,226.5,23.0,223.0,31.0,220.0,39.0,215.5,47.0,211.5,55.0,208.5,62.5,203.0,70.5,199.0,78.5,195.5,87.0,191.5,95.0,186.5,103.0,181.5,111.0,175.0" stroke="black" stroke-width="2" fill="none" />
<polyline points="101.0,173.0,92.0,180.0" stroke="black" stroke-width="2" fill="none" />
<polyline points="77.5,187.0,85.5,180.5,93.5,173.0,101.5,166.0" stroke="black" stroke-width="2" fill="none" />
<polyline points="89.5,161.5,81.5,169.5,74.0,177.0,67.0,184.5" stroke="black" stroke-width="2" fill="none" />
<polyline points="69.0,178.5,77.0,178.0,85.0,177.0,93.0,176.5" stroke="black" stroke-width="2" fill="none" />
<polyline points="81.5,162.5,73.5,170.0,65.5,177.5,58.0,185.0,51.0,193.0" stroke="black" stroke-width="2" fill="none" />
<polyline points="49.0,193.0,57.5,188.0,65.5,185.0,73.5,182.0,81.0,177.0,67.0,183.0" stroke="black" stroke-width="2" fill="none" />
<polyline points="75.5,169.5,83.5,169.0,92.0,168.0,100.5,167.5" stroke="black" stroke-width="2" fill="none" />
<polyline points="106.5,169.5,99.0,171.0,91.0,171.5,83.0,172.5,75.0,174.0,67.0,174.5,58.5,174.5,50.5,175.0" stroke="black" stroke-width="2" fill="none" />
<polyline points="51.0,178.0,43.0,186.0,35.5,193.5,28.0,201.0,20.0,208.5" stroke="black" stroke-width="2" fill="none" />
<polyline points="12.5,209.5,21.5,201.5,30.0,193.5,38.0,185.0,46.0,177.0" stroke="black" stroke-width="2" fill="none" />
<polyline points="44.5,187.5,52.0,187.0,60.5,186.5,68.5,185.0,76.5,183.5" stroke="black" stroke-width="2" fill="none" />
<polyline points="76.5,164.5,68.5,171.5,60.5,178.5,52.5,185.5,44.0,193.0,35.5,200.5" stroke="black" stroke-width="2" fill="none" />
<polyline points="29.0,188.5,21.0,195.5,12.5,202.5,4.0,209.5" stroke="black" stroke-width="2" fill="none" />
<polyline points="4.0,208.5,11.5,208.5" stroke="black" stroke-width="2" fill="none" />
<polyline points="11.0,214.5,3.0,215.5" stroke="black" stroke-width="2" fill="none" />
<polyline points="6.0,217.5,14.0,215.5,22.0,212.5" stroke="black" stroke-width="2" fill="none" />
<polyline points="28.0,215.5,36.0,214.5" stroke="black" stroke-width="2" fill="none" />
<polyline points="28.5,220.5,20.5,221.0,13.0,222.0" stroke="black" stroke-width="2" fill="none" />
<polyline points="10.0,230.0,2.0,230.5" stroke="black" stroke-width="2" fill="none" />
<polyline points="13.5,244.0,21.5,244.0" stroke="black" stroke-width="2" fill="none" />
<polyline points="27.5,250.5,19.5,258.0" stroke="black" stroke-width="2" fill="none" />
<polyline points="21.5,253.0,29.0,252.5,37.0,251.5,44.5,250.5,52.5,250.0,60.5,249.5,68.0,248.5,74.5,248.0,82.0,247.5,89.5,247.5,97.0,247.0,105.5,246.5,114.0,246.0,123.0,245.5,131.5,245.5,140.0,245.0,148.5,244.5,156.0,244.0,164.0,244.0,171.5,243.5,179.0,243.0,187.5,242.5,196.0,241.5,204.5,241.0,212.5,241.0,220.5,240.0,228.5,240.0,236.0,239.5,244.0,239.0,252.0,239.0,260.5,238.5" stroke="black" stroke-width="2" fill="none" />
<polyline points="236.0,236.5,230.5,229.0" stroke="black" stroke-width="2" fill="none" />
<polyline points="254.5,241.5,247.0,233.5,239.5,225.0,231.5,217.0,225.0,209.0,217.0,201.0" stroke="black" stroke-width="2" fill="none" />
<polyline points="138.0,175.0,130.5,175.5" stroke="black" stroke-width="2" fill="none" />
<polyline points="123.0,183.0,131.0,183.0,138.5,183.0" stroke="black" stroke-width="2" fill="none" />
<polyline points="139.0,155.5,131.0,156.0,123.0,156.0" stroke="black" stroke-width="2" fill="none" />
<polyline points="122.5,148.0,130.5,147.5,138.5,147.0" stroke="black" stroke-width="2" fill="none" />
<polyline points="133.0,142.0,125.0,145.5" stroke="black" stroke-width="2" fill="none" />
<polyline points="115.0,150.5,107.0,150.5" stroke="black" stroke-width="2" fill="none" />
<polyline points="108.0,144.0,106.0,152.0,94.5,154.0,99.5,145.5,107.0,144.5,115.5,145.0,126.0,149.5,132.0,146.5,137.5,149.5,151.5,145.5,159.5,145.5,163.5,148.5,172.0,147.5,184.0,141.5" stroke="black" stroke-width="2" fill="none" />
<polyline points="155.0,160.5,147.0,161.0,139.0,161.5,131.0,161.5,122.5,161.5,115.0,161.5,107.0,162.5,99.0,163.0,91.5,164.0,83.5,164.5,76.0,165.0,68.5,165.5" stroke="black" stroke-width="2" fill="none" />
<polyline points="66.0,167.0,58.0,171.5,50.0,175.0,42.0,177.5,34.0,179.5,26.0,182.5,18.0,185.0,10.5,187.0,2.5,188.0" stroke="black" stroke-width="2" fill="none" />
<polyline points="3.0,189.0,11.0,188.5,18.5,188.5,26.5,188.0,34.0,187.5,41.5,187.5,50.5,186.5,58.5,186.0,67.0,186.0,75.5,185.5" stroke="black" stroke-width="2" fill="none" />
<polyline points="98.5,175.0,90.5,176.0,82.5,177.0,74.5,177.5,67.5,178.5,60.0,179.5,53.0,180.5,45.5,181.0,37.5,182.0,29.0,182.0" stroke="black" stroke-width="2" fill="none" />
<polyline points="18.0,187.0,10.5,194.0,3.0,201.5" stroke="black" stroke-width="2" fill="none" />
<polyline points="3.5,200.0,11.5,199.0,18.5,198.0,26.0,197.5,33.5,197.5" stroke="black" stroke-width="2" fill="none" />
<polyline points="19.5,193.0,27.5,192.0,36.0,191.0,44.0,191.0,51.5,191.0" stroke="black" stroke-width="2" fill="none" />
<polyline points="34.5,202.0,26.5,203.0,18.5,203.5,10.5,204.0,2.5,204.5" stroke="black" stroke-width="2" fill="none" />
<polyline points="3.0,195.5,11.0,195.5,19.0,195.5,26.5,195.5,34.0,196.0,42.0,196.0,50.0,196.0" stroke="black" stroke-width="2" fill="none" />
<polyline points="45.5,163.0,37.5,162.0" stroke="black" stroke-width="2" fill="none" />
<polyline points="34.0,160.5,42.0,160.0,50.0,159.0,58.0,157.5,66.5,156.0,75.0,154.5,83.0,153.5,91.0,152.5,99.5,151.5" stroke="black" stroke-width="2" fill="none" />
<polyline points="135.0,138.0,127.0,140.5,119.0,141.5,110.5,141.0,102.5,140.5,94.5,139.5,87.0,139.5,83.0,146.5,75.5,145.0,68.5,151.0,60.5,153.5,60.5,148.5" stroke="black" stroke-width="2" fill="none" />
<polyline points="23.0,158.0,31.0,157.0,44.0,154.5,52.0,155.0,60.5,155.5,68.5,155.0,75.0,151.5,82.0,149.5,90.0,146.0,96.0,148.5,110.0,153.5,124.0,154.5,132.0,154.5,140.5,154.0" stroke="black" stroke-width="2" fill="none" />
<polyline points="167.5,127.0,168.0,119.0,167.0,110.5,166.0,96.5,162.0,88.5" stroke="black" stroke-width="2" fill="none" />
<polyline points="69.5,110.5,68.0,102.5,65.5,94.5,63.0,86.5,62.5,77.0,70.5,69.5,78.0,63.5,69.5,70.0,61.5,77.0,53.5,81.0,45.5,80.0,37.5,77.5,29.5,75.5" stroke="black" stroke-width="2" fill="none" />
<polyline points="54.0,149.5,46.0,150.0,38.0,150.0,30.5,153.0,22.5,156.0,19.0,153.0,11.0,155.0,3.0,153.5" stroke="black" stroke-width="2" fill="none" />
<polyline points="3.0,156.0,11.0,157.5,19.0,157.5,27.0,158.5,34.5,158.5,42.5,160.0,50.0,159.5,57.5,160.5,57.5,171.5" stroke="black" stroke-width="2" fill="none" />
<polyline points="11.5,187.5,3.5,195.0" stroke="black" stroke-width="2" fill="none" />
<polyline points="3.0,180.5,11.5,178.5,19.5,176.5,27.0,174.5,34.5,172.0,42.0,169.5" stroke="black" stroke-width="2" fill="none" />
<polyline points="26.0,162.0,19.0,168.5,11.0,171.0,3.5,173.0" stroke="black" stroke-width="2" fill="none" />
<polyline points="2.0,169.5,10.0,165.5,18.5,165.5,19.5,160.5,27.0,160.5,33.0,156.5,40.5,156.5,48.5,156.5,56.5,157.5,65.0,157.5,73.0,157.5,81.0,157.5,89.0,158.5,97.0,158.5,105.0,158.5,113.0,159.0,121.0,160.5,129.0,160.5,137.0,161.5,144.5,163.5,152.5,164.5,160.5,166.5,168.5,168.5,177.0,172.0,185.0,176.0,186.5,177.5,194.5,181.5,202.5,188.0,210.5,194.0,219.0,194.5,227.5,196.5" stroke="black" stroke-width="2" fill="none" />
<polyline points="10.0,254.0,2.0,254.5" stroke="black" stroke-width="2" fill="none" />
</svg>