<svg xmlns="http://www.w3.org/2000/svg" version="1.1"><polyline points="118.5,57.0,100.5,65.0,89.5,73.0,83.0,81.0,74.5,92.0,71.5,100.5,64.5,108.5,64.0,109.5,64.0,119.5,60.0,120.0,61.5,115.0,72.5,98.5" stroke="black" stroke-width="2" fill="none" />
<polyline points="67.0,99.0,59.0,99.0,51.0,99.5" stroke="black" stroke-width="2" fill="none" />
<polyline points="47.0,97.5,42.0,107.5,34.0,104.5,34.5,106.5,35.5,112.5,25.0,109.5,18.0,112.0,9.5,114.0" stroke="black" stroke-width="2" fill="none" />
<polyline points="3.0,110.0,7.5,118.0,12.0,128.0,17.0,136.5,12.5,144.0,23.5,152.0,28.0,144.5,35.0,143.5,41.0,147.5,46.0,150.5,52.0,151.5,58.0,146.0" stroke="black" stroke-width="2" fill="none" />
<polyline points="61.5,153.0,53.5,160.5,45.5,168.5" stroke="black" stroke-width="2" fill="none" />
<polyline points="35.5,165.5,43.5,165.0,51.5,165.0,59.5,165.0,68.0,164.0" stroke="black" stroke-width="2" fill="none" />
<polyline points="66.0,165.0,58.0,172.5,50.5,180.0" stroke="black" stroke-width="2" fill="none" />
<polyline points="58.5,180.5,66.0,173.0" stroke="black" stroke-width="2" fill="none" />
<polyline points="67.5,176.5,75.5,169.5" stroke="black" stroke-width="2" fill="none" />
<polyline points="73.5,179.0,65.5,179.5,57.5,179.5,49.0,179.5,41.0,179.5" stroke="black" stroke-width="2" fill="none" />
<polyline points="43.0,179.0,51.0,171.5,59.0,163.5,66.5,156.0" stroke="black" stroke-width="2" fill="none" />
<polyline points="68.0,156.5,59.5,157.0,51.0,156.5,43.0,156.5,35.5,157.0" stroke="black" stroke-width="2" fill="none" />
<polyline points="39.0,159.5,31.0,161.5" stroke="black" stroke-width="2" fill="none" />
<polyline points="27.5,161.5,35.5,156.5,37.5,146.5,45.5,145.5" stroke="black" stroke-width="2" fill="none" />
<polyline points="43.5,149.5,51.5,149.0,59.0,148.5,66.5,147.5" stroke="black" stroke-width="2" fill="none" />
<polyline points="59.0,141.5,51.0,142.0" stroke="black" stroke-width="2" fill="none" />
<polyline points="68.0,157.5,76.0,175.5,84.0,185.5,92.0,193.5,100.0,199.5,107.5,203.5,115.5,207.5,123.5,210.0,131.5,211.0,139.5,212.0,147.5,210.5,155.5,210.0,163.0,209.0,171.0,206.0,178.5,201.5,186.5,197.0,194.5,190.0,202.5,182.0,210.5,170.0" stroke="black" stroke-width="2" fill="none" />
<polyline points="209.5,166.0,217.5,165.5,226.0,165.0,234.5,165.0,242.5,165.0,250.0,165.0,258.5,164.5" stroke="black" stroke-width="2" fill="none" />
<polyline points="260.5,154.5,252.5,155.0,244.5,155.5,236.5,156.0,228.0,156.0,219.5,156.5" stroke="black" stroke-width="2" fill="none" />
<polyline points="220.0,163.0,228.0,155.5" stroke="black" stroke-width="2" fill="none" />
<polyline points="228.5,164.5,220.5,172.0,212.0,180.0" stroke="black" stroke-width="2" fill="none" />
<polyline points="210.5,185.0,218.5,184.5,226.5,184.0" stroke="black" stroke-width="2" fill="none" />
<polyline points="227.0,176.5,218.5,177.0" stroke="black" stroke-width="2" fill="none" />
<polyline points="220.5,170.5,228.5,170.0" stroke="black" stroke-width="2" fill="none" />
<polyline points="228.0,176.0,236.5,174.0" stroke="black" stroke-width="2" fill="none" />
<polyline points="235.5,172.0,227.5,179.5,220.0,187.5,212.0,194.5,203.0,201.5" stroke="black" stroke-width="2" fill="none" />
<polyline points="211.0,203.0,219.0,195.5,227.0,189.0,235.0,181.5" stroke="black" stroke-width="2" fill="none" />
<polyline points="235.5,164.5,228.0,172.0,219.5,179.5,211.0,187.0,202.5,195.0,194.0,202.0,186.0,209.5,178.0,216.5,170.0,223.5,162.0,231.0,154.0,238.5,145.5,246.0" stroke="black" stroke-width="2" fill="none" />
<polyline points="155.5,249.0,164.0,241.5,172.0,234.0,180.0,226.5,188.5,219.0,196.5,211.5" stroke="black" stroke-width="2" fill="none" />
<polyline points="203.5,210.5,195.5,218.0,187.5,226.0,179.0,233.5,170.5,240.5,162.5,248.0" stroke="black" stroke-width="2" fill="none" />
<polyline points="179.5,250.0,187.5,242.5,195.5,235.0,203.5,227.5,212.0,220.0" stroke="black" stroke-width="2" fill="none" />
<polyline points="212.5,222.5,204.5,223.0,196.0,223.0,187.5,223.5,179.5,224.0,172.0,225.0,164.5,226.0,156.0,227.5,148.0,228.5,140.0,228.5,131.5,229.0,123.5,229.5,115.0,230.0,107.5,230.5" stroke="black" stroke-width="2" fill="none" />
<polyline points="114.5,226.0,123.0,218.5" stroke="black" stroke-width="2" fill="none" />
<polyline points="123.5,212.5,115.5,219.5" stroke="black" stroke-width="2" fill="none" />
<polyline points="108.5,219.5,117.5,212.5" stroke="black" stroke-width="2" fill="none" />
<polyline points="130.5,220.5,122.5,228.0" stroke="black" stroke-width="2" fill="none" />
<polyline points="124.0,240.5,132.5,233.0,141.0,224.5,149.0,217.0" stroke="black" stroke-width="2" fill="none" />
<polyline points="156.5,220.0,149.0,227.5,141.0,234.5,133.0,242.0" stroke="black" stroke-width="2" fill="none" />
<polyline points="140.0,242.0,148.0,234.5,155.5,226.5,162.5,219.5,170.5,212.0" stroke="black" stroke-width="2" fill="none" />
<polyline points="172.5,206.5,180.5,206.0,188.5,205.5,196.0,205.0,203.5,204.5,211.0,203.5,219.0,203.5,226.5,203.5" stroke="black" stroke-width="2" fill="none" />
<polyline points="228.5,206.5,220.0,207.0,212.0,208.0,204.0,208.5,195.5,209.5,187.5,210.0,179.5,210.5,171.5,211.0,163.5,211.0,155.5,211.0,147.0,211.0,139.5,211.5,131.5,211.5,122.5,212.5,114.5,213.0,106.0,213.0,98.0,213.5" stroke="black" stroke-width="2" fill="none" />
<polyline points="99.5,220.5,108.0,220.5,116.0,220.0,124.0,219.5,132.0,219.5,140.0,219.5,148.5,219.0,156.5,218.5,164.5,218.5,172.0,217.5,179.5,217.0,188.0,216.5,196.0,216.5,203.5,216.0,211.5,215.5,219.5,215.0" stroke="black" stroke-width="2" fill="none" />
<polyline points="211.5,212.0,203.5,220.0,195.0,227.0,186.5,234.5,178.5,241.5,170.5,248.5" stroke="black" stroke-width="2" fill="none" />
<polyline points="141.0,248.0,149.0,240.0,157.0,232.5,164.5,225.0,172.0,217.0,180.0,209.5" stroke="black" stroke-width="2" fill="none" />
<polyline points="187.0,195.5,195.5,195.0,203.5,194.5,211.5,194.0,220.0,193.5,228.5,193.0,236.0,192.5" stroke="black" stroke-width="2" fill="none" />
<polyline points="234.5,187.0,226.5,188.0,219.0,189.0,211.5,189.5,203.5,190.5,196.0,191.0" stroke="black" stroke-width="2" fill="none" />
<polyline points="203.5,186.5,211.5,186.5,219.5,186.5,228.0,186.5,236.0,186.5,243.5,186.5,251.5,187.5,253.0,190.5" stroke="black" stroke-width="2" fill="none" />
<polyline points="258.0,171.0,250.0,171.5,242.0,172.0,234.5,173.0,226.5,173.5,218.0,174.5,210.0,175.0" stroke="black" stroke-width="2" fill="none" />
<polyline points="204.5,182.0,213.0,182.0,221.0,181.5,228.5,181.0,236.0,180.5,243.5,180.0,251.0,179.0,258.5,177.5" stroke="black" stroke-width="2" fill="none" />
<polyline points="251.5,165.5,245.0,171.5,240.5,167.0,232.5,167.0,238.0,158.0,236.0,153.0,253.0,145.0,251.5,136.5,247.5,132.5,239.0,129.5" stroke="black" stroke-width="2" fill="none" />
<polyline points="243.0,132.0,251.0,131.5" stroke="black" stroke-width="2" fill="none" />
<polyline points="254.5,128.5,246.5,127.5" stroke="black" stroke-width="2" fill="none" />
<polyline points="245.0,122.5,253.0,119.5" stroke="black" stroke-width="2" fill="none" />
<polyline points="237.5,134.0,229.5,134.5" stroke="black" stroke-width="2" fill="none" />
<polyline points="223.5,136.0,226.0,133.0,234.0,130.5,239.0,132.5,233.0,141.0,230.0,148.0,233.5,152.5,236.5,157.5,239.5,149.5,244.5,152.0,247.5,149.0,249.5,155.0,254.5,151.5,247.0,159.5,253.5,158.5,247.5,164.5,247.5,172.5,237.5,173.5,232.5,178.5,245.5,184.0,253.0,184.0,256.5,179.0" stroke="black" stroke-width="2" fill="none" />
<polyline points="254.0,174.0,254.5,160.5,254.5,152.0" stroke="black" stroke-width="2" fill="none" />
<polyline points="258.5,146.5,250.5,147.0,243.0,148.0,235.5,148.5,228.0,148.5,220.5,149.0" stroke="black" stroke-width="2" fill="none" />
<polyline points="224.0,142.5,232.0,141.5,236.0,136.5,244.5,135.0,252.5,137.0" stroke="black" stroke-width="2" fill="none" />
<polyline points="260.0,124.0,252.0,124.0,244.0,124.5,235.5,124.5,227.5,125.0" stroke="black" stroke-width="2" fill="none" />
<polyline points="223.5,119.5,231.0,120.5,240.5,119.0,248.5,119.0,253.5,125.0" stroke="black" stroke-width="2" fill="none" />
<polyline points="258.5,115.5,250.0,115.5,242.0,116.0,234.5,116.5,226.5,117.0" stroke="black" stroke-width="2" fill="none" />
<polyline points="223.0,119.0,225.0,127.0,226.0,133.5,226.0,141.5,228.5,149.5,225.5,151.5,233.0,158.5,228.5,163.0,229.0,177.0,230.5,184.0,238.5,183.5,240.5,176.5,242.0,183.5,249.5,179.5,248.5,170.5,255.5,166.5" stroke="black" stroke-width="2" fill="none" />
<polyline points="252.0,139.5,243.5,140.0,235.5,140.0,228.0,140.0,220.0,141.0" stroke="black" stroke-width="2" fill="none" />
<polyline points="212.5,132.0,205.0,132.0,196.5,133.0,189.0,133.5,181.5,134.0,173.5,134.5,165.5,136.0,157.5,136.0,149.0,136.0,141.0,136.5,133.0,137.0,125.0,137.0,116.5,137.5,108.5,138.0,100.5,138.5,92.5,139.0,84.5,140.0" stroke="black" stroke-width="2" fill="none" />
<polyline points="82.5,137.0,91.0,128.5,99.0,120.0,107.0,112.5,115.0,105.0,123.5,97.5,131.5,90.0,140.0,83.0,148.0,76.0" stroke="black" stroke-width="2" fill="none" />
<polyline points="157.0,74.5,149.0,81.5,140.5,89.5,132.0,97.5,123.0,105.5,115.0,113.5,106.5,121.5,98.5,129.5,90.5,137.5,82.0,144.5" stroke="black" stroke-width="2" fill="none" />
<polyline points="82.0,144.5,90.5,144.0,98.5,144.0,107.0,143.5,115.0,142.5,123.0,142.0,131.0,142.0,139.5,141.5,147.5,141.0,156.0,140.5,164.0,140.0,172.0,139.0,180.0,139.0,188.0,138.5,195.5,138.0,203.5,137.5" stroke="black" stroke-width="2" fill="none" />
<polyline points="203.0,139.5,195.0,147.0,187.5,154.5,179.5,162.0,171.5,170.0,163.5,178.0,155.0,185.5" stroke="black" stroke-width="2" fill="none" />
<polyline points="171.0,186.0,179.0,177.5,187.0,169.5,195.5,162.0,203.5,154.0" stroke="black" stroke-width="2" fill="none" />
<polyline points="204.5,145.5,196.5,153.5,188.5,161.0,180.5,168.5,173.0,176.5,164.5,184.0" stroke="black" stroke-width="2" fill="none" />
<polyline points="172.0,186.5,164.5,187.0,157.0,187.5,148.5,187.5,141.0,188.0,133.0,188.0,124.5,188.5,116.5,188.5" stroke="black" stroke-width="2" fill="none" />
<polyline points="109.0,186.5,116.5,186.0,124.5,185.0,132.5,184.5,140.5,184.0,148.5,183.5,156.5,183.0,164.0,182.0" stroke="black" stroke-width="2" fill="none" />
<polyline points="169.0,183.0,171.0,185.0,163.0,189.0,155.0,191.0,147.5,191.0,139.5,191.5,131.5,189.5" stroke="black" stroke-width="2" fill="none" />
<polyline points="141.0,191.0,148.5,184.5,155.5,177.5,163.0,170.0,170.5,162.5,178.5,155.0,187.0,147.5,195.5,139.5,203.5,132.0" stroke="black" stroke-width="2" fill="none" />
<polyline points="202.5,124.5,194.5,132.0,187.0,140.0,179.0,147.0,171.0,154.0,163.5,161.5,155.5,168.5,147.5,175.5,140.0,182.5,133.0,190.0" stroke="black" stroke-width="2" fill="none" />
<polyline points="124.5,190.5,132.0,183.0,140.5,176.0,148.5,168.0,156.5,160.0,165.0,153.0,173.0,145.5,181.0,137.5,188.5,130.0,196.5,123.0,204.0,115.5" stroke="black" stroke-width="2" fill="none" />
<polyline points="204.0,106.5,196.0,114.0,188.0,122.0,179.5,130.5,171.0,138.0,162.5,145.5,154.5,152.5,146.5,159.5,139.0,166.5,131.0,173.5,123.5,181.0" stroke="black" stroke-width="2" fill="none" />
<polyline points="114.5,180.5,123.0,173.5,131.5,166.5,140.0,159.0,147.5,151.5,155.5,144.0,164.0,137.0,172.0,130.0,179.5,123.0,187.5,115.5,195.5,108.0" stroke="black" stroke-width="2" fill="none" />
<polyline points="197.0,100.5,189.0,108.0,180.5,115.5,172.5,123.0,164.0,130.5,155.5,137.5,147.5,145.0,139.0,151.5,130.5,159.0,122.5,167.0,114.0,174.0,106.5,181.5" stroke="black" stroke-width="2" fill="none" />
<polyline points="100.5,180.0,108.5,180.0,116.0,179.5,124.0,179.0,132.0,179.0,140.0,178.5,148.0,177.5,155.5,176.5,163.5,176.0,171.0,175.5,179.0,175.0,187.0,174.5" stroke="black" stroke-width="2" fill="none" />
<polyline points="186.5,171.5,178.5,172.0,170.5,172.5,162.5,173.5,155.0,174.0,147.5,173.5,140.0,174.0,132.0,174.5,124.5,175.0,116.5,175.5,108.0,176.0,100.5,177.0" stroke="black" stroke-width="2" fill="none" />
<polyline points="101.5,174.5,109.5,174.0,117.0,173.0,124.0,172.5,131.0,172.0,138.5,171.5,146.5,171.0,154.0,171.0,162.0,170.5,170.0,170.5,178.0,170.0,186.0,169.5,194.5,168.5" stroke="black" stroke-width="2" fill="none" />
<polyline points="194.0,164.0,185.5,164.5,177.5,165.0,170.0,165.5,162.5,166.0,155.0,166.0,147.0,166.5,139.5,167.0,132.0,167.5,124.0,168.0,116.5,168.5,108.5,169.0,100.5,170.0" stroke="black" stroke-width="2" fill="none" />
<polyline points="107.5,174.5,115.0,167.0,123.0,159.5,131.5,152.0,139.5,144.5,148.0,136.5,156.5,129.5,164.0,122.0,171.5,114.5,179.0,108.0,186.5,101.0,195.0,94.0" stroke="black" stroke-width="2" fill="none" />
<polyline points="188.0,92.0,180.5,99.0,172.0,106.5,164.0,114.0,155.5,121.5,147.5,128.5,139.5,136.0,132.0,143.5,124.0,151.0,116.5,158.5,109.0,166.0,101.0,173.5" stroke="black" stroke-width="2" fill="none" />
<polyline points="100.5,164.5,108.0,157.0,116.0,150.0,124.5,143.0,132.5,136.0,140.5,128.5,149.0,121.5,156.5,114.0,164.5,106.0,172.5,99.0,180.5,91.5,188.5,84.0" stroke="black" stroke-width="2" fill="none" />
<polyline points="188.0,81.5,195.5,91.5,204.0,106.5" stroke="black" stroke-width="2" fill="none" />
<polyline points="219.5,102.0,228.0,101.5,236.0,101.5,243.5,101.0" stroke="black" stroke-width="2" fill="none" />
<polyline points="236.5,94.0,244.5,93.5,253.0,92.5" stroke="black" stroke-width="2" fill="none" />
<polyline points="252.0,107.5,244.0,107.5,237.0,107.5,229.0,108.0,221.0,109.0" stroke="black" stroke-width="2" fill="none" />
<polyline points="219.5,95.5,227.5,95.0" stroke="black" stroke-width="2" fill="none" />
<polyline points="218.0,90.5,226.0,90.5,234.0,92.0,231.5,103.0,245.5,103.5,245.0,108.5,249.0,113.5,238.5,117.0,234.5,121.5,237.5,113.0,241.5,108.5,250.5,102.5" stroke="black" stroke-width="2" fill="none" />
<polyline points="248.0,93.0,246.0,90.0,238.0,90.5" stroke="black" stroke-width="2" fill="none" />
<polyline points="234.0,84.0,242.0,84.0,250.0,84.0" stroke="black" stroke-width="2" fill="none" />
<polyline points="250.0,69.0,258.0,61.5" stroke="black" stroke-width="2" fill="none" />
<polyline points="228.5,69.0,220.5,76.0" stroke="black" stroke-width="2" fill="none" />
<polyline points="212.0,78.0,219.5,77.5,227.0,76.5,234.5,76.0,242.5,75.5,250.0,75.5,258.5,75.0" stroke="black" stroke-width="2" fill="none" />
<polyline points="258.0,84.5,250.0,84.5,242.0,84.5,233.5,85.0,225.5,85.0,217.5,84.5,209.5,85.0" stroke="black" stroke-width="2" fill="none" />
<polyline points="207.5,88.5,215.5,88.0,223.5,86.5,231.5,86.5,239.5,86.0,247.5,86.0,256.0,86.0" stroke="black" stroke-width="2" fill="none" />
<polyline points="260.5,66.5,252.0,67.0,243.5,67.5,235.0,68.0,226.5,68.5,219.0,69.0,210.5,69.0,202.5,69.5,194.5,69.5" stroke="black" stroke-width="2" fill="none" />
<polyline points="197.5,76.0,206.0,82.0,213.0,75.0" stroke="black" stroke-width="2" fill="none" />
<polyline points="222.0,75.0,214.0,71.0,206.0,64.0" stroke="black" stroke-width="2" fill="none" />
<polyline points="188.0,60.5,196.0,60.5,203.5,59.5,211.5,59.0,219.5,58.5,227.5,58.5,235.0,58.0,243.0,57.5,251.0,57.5,259.5,57.0" stroke="black" stroke-width="2" fill="none" />
<polyline points="260.0,17.5,251.5,18.5,243.0,19.5,234.5,20.0,226.5,21.0,218.5,21.5" stroke="black" stroke-width="2" fill="none" />
<polyline points="219.0,4.0,227.0,3.5,235.0,2.5,243.5,1.5,252.0,1.0,260.5,1.0" stroke="black" stroke-width="2" fill="none" />
<polyline points="260.5,8.5,252.0,8.5,243.0,9.0,235.0,9.0,226.5,10.0,218.5,11.0,211.0,12.0,202.5,13.0,194.5,14.0" stroke="black" stroke-width="2" fill="none" />
<polyline points="204.5,20.5,196.5,21.0,188.5,22.0,180.5,22.0" stroke="black" stroke-width="2" fill="none" />
<polyline points="172.0,29.0,180.0,28.0,188.0,28.0,196.0,27.5,203.5,27.0,211.5,26.5,219.0,26.0,227.0,25.0,235.0,24.0,243.5,23.5,251.5,23.0,260.0,22.5" stroke="black" stroke-width="2" fill="none" />
<polyline points="259.0,48.5,250.5,49.0,242.5,49.5,235.0,50.5,226.5,51.0,219.0,51.5,211.0,52.0,203.0,52.5,195.0,53.0,187.0,53.5,179.0,53.5,171.0,54.0" stroke="black" stroke-width="2" fill="none" />
<polyline points="165.5,58.0,183.5,66.0,195.5,74.0,202.5,82.0,209.0,91.0,213.0,99.0,217.0,107.0,219.0,115.0,219.5,122.5,220.5,130.5,220.5,138.5,219.5,146.5,217.5,154.5,214.5,162.5,211.0,170.5,205.5,178.5,199.0,186.5,191.0,194.0,179.0,202.0" stroke="black" stroke-width="2" fill="none" />
<polyline points="175.0,182.5,160.0,190.0" stroke="black" stroke-width="2" fill="none" />
<polyline points="137.0,221.0,129.5,228.5,121.0,236.5" stroke="black" stroke-width="2" fill="none" />
<polyline points="115.5,239.0,124.0,237.5,132.0,236.5,140.0,235.5,148.0,234.5,156.0,234.0,164.0,233.5,172.0,233.5,179.5,233.0,186.5,232.5,194.5,232.0,202.5,231.5,210.0,231.0" stroke="black" stroke-width="2" fill="none" />
<polyline points="211.5,225.0,219.0,220.0,215.0,223.0,210.0,230.5,205.5,238.5,200.5,242.0,191.5,255.0" stroke="black" stroke-width="2" fill="none" />
<polyline points="196.0,248.0,188.0,248.0,180.0,248.5,172.0,249.0,164.0,249.5,156.0,250.5,148.0,251.0,140.0,250.5,132.5,251.0" stroke="black" stroke-width="2" fill="none" />
<polyline points="116.0,246.0,124.0,245.5,132.0,245.5,140.0,245.0,149.0,244.5,157.0,243.5,165.0,242.5,172.0,241.5,179.5,240.5,187.5,240.5,195.5,240.0,203.5,239.5" stroke="black" stroke-width="2" fill="none" />
<polyline points="207.0,248.5,205.0,251.5,208.5,254.0,206.5,252.0,215.5,240.5" stroke="black" stroke-width="2" fill="none" />
<polyline points="222.0,234.0,217.0,242.0,214.0,246.5,216.0,254.5" stroke="black" stroke-width="2" fill="none" />
<polyline points="217.0,254.0,206.0,255.0,205.0,247.5,198.0,245.5,189.0,248.5,181.0,248.5,173.0,252.5,165.5,252.5,157.5,252.5,149.5,251.0,144.5,256.0,136.0,256.5,129.0,257.0,122.0,254.0,114.0,252.5,104.5,249.5,102.5,250.5,101.0,243.0,99.0,234.0,92.0,226.0,92.0,218.0,89.0,216.0" stroke="black" stroke-width="2" fill="none" />
<polyline points="93.0,226.5,101.0,222.5,108.0,225.0" stroke="black" stroke-width="2" fill="none" />
<polyline points="105.5,233.0,97.5,234.5" stroke="black" stroke-width="2" fill="none" />
<polyline points="111.5,252.5,111.5,244.5,115.5,232.0,116.5,235.0,106.5,236.0,103.5,228.0,101.5,223.0,100.5,215.0,99.5,207.0,99.5,203.5,99.5,205.5" stroke="black" stroke-width="2" fill="none" />
<polyline points="99.0,204.5,106.5,204.0" stroke="black" stroke-width="2" fill="none" />
<polyline points="84.5,187.5,76.5,187.5,68.5,188.5,60.5,190.0,52.5,190.5" stroke="black" stroke-width="2" fill="none" />
<polyline points="49.0,194.0,49.0,196.0,47.0,188.0" stroke="black" stroke-width="2" fill="none" />
<polyline points="59.5,195.0,67.5,187.5" stroke="black" stroke-width="2" fill="none" />
<polyline points="68.0,185.5,76.0,185.5" stroke="black" stroke-width="2" fill="none" />
<polyline points="91.0,165.0,99.0,157.5,107.5,150.5,115.5,143.5,124.0,136.5,132.5,129.5,140.5,121.5,148.5,113.5,156.0,106.0,164.5,98.0,172.5,91.0,180.5,83.0" stroke="black" stroke-width="2" fill="none" />
<polyline points="181.0,86.5,172.5,86.5,164.5,86.5,156.5,86.5,148.0,87.0,140.0,88.0,132.0,89.0,123.5,89.5,115.5,89.5" stroke="black" stroke-width="2" fill="none" />
<polyline points="116.5,82.5,109.0,90.5,101.0,98.5,93.0,106.0" stroke="black" stroke-width="2" fill="none" />
<polyline points="100.5,105.5,108.5,105.0,116.5,105.0,124.5,104.5,132.5,103.5,140.0,103.0,147.5,102.5,154.5,102.0,162.0,101.5,169.5,101.0,177.5,100.0,185.5,99.5,193.5,100.0" stroke="black" stroke-width="2" fill="none" />
<polyline points="187.5,92.5,180.0,93.0,172.0,94.0,163.5,94.0,155.5,94.5,147.5,94.5,140.0,94.5,132.5,95.0,124.5,95.0,117.0,95.5,109.5,96.5,101.5,97.0" stroke="black" stroke-width="2" fill="none" />
<polyline points="93.5,94.5,101.5,94.0,109.5,93.0,117.5,92.5,125.5,92.0,134.0,92.0,142.0,91.0,149.5,90.5,157.5,90.0,165.0,90.0,172.5,89.0,180.5,89.0,188.5,88.0,196.5,87.5" stroke="black" stroke-width="2" fill="none" />
<polyline points="189.0,81.0,180.5,81.0,172.5,81.5,164.0,82.0,156.0,83.0,147.5,83.5,139.0,84.0,131.5,84.0,123.0,84.0,115.0,84.0,107.0,84.0,99.5,84.5" stroke="black" stroke-width="2" fill="none" />
<polyline points="94.5,85.5,88.5,93.5,81.5,101.0,80.0,109.0,78.0,117.0,77.0,125.0,77.0,133.5,77.0,141.5,79.0,150.0,81.5,158.0,86.5,166.0,91.5,174.0,98.0,181.5" stroke="black" stroke-width="2" fill="none" />
<polyline points="92.0,165.5,100.0,164.5,107.5,164.0,115.5,163.5,123.5,163.0,132.0,162.5,140.0,162.5,148.0,162.5,156.0,162.5,164.0,162.0,172.0,162.0,179.5,161.5,187.5,160.5,195.0,160.0,202.5,159.0" stroke="black" stroke-width="2" fill="none" />
<polyline points="195.0,156.0,186.5,156.0,178.5,156.5,170.5,156.5,162.5,157.0,154.5,158.5,146.5,159.5,138.5,160.5,131.0,160.5,123.5,161.5,115.5,161.5,107.0,162.0,99.0,162.5,90.5,163.5" stroke="black" stroke-width="2" fill="none" />
<polyline points="91.5,159.5,99.0,152.0,106.5,144.0,114.5,136.0,123.0,129.0,130.5,121.5,139.0,114.0,147.0,106.0,155.0,98.5,163.0,91.0,171.0,83.5" stroke="black" stroke-width="2" fill="none" />
<polyline points="171.5,76.5,163.5,84.5,155.0,91.5,147.0,99.0,139.0,106.0,131.0,113.5,122.5,121.0,114.5,128.0,107.0,135.5,99.5,142.5,91.0,149.5" stroke="black" stroke-width="2" fill="none" />
<polyline points="91.0,153.5,99.0,153.0,107.0,153.0,114.5,152.5,122.0,152.0,130.0,152.0,138.0,151.0,146.0,150.5,154.0,149.5,162.5,149.5,170.5,149.0,178.5,148.0,187.0,147.0,194.5,146.0,202.5,145.0" stroke="black" stroke-width="2" fill="none" />
<polyline points="204.0,112.5,195.5,113.0,187.5,113.5,179.5,114.0,171.0,114.5,163.5,115.0,155.0,115.5,147.0,116.0,139.0,117.0,131.0,118.0,123.0,118.5,115.0,119.5,107.0,120.0,98.5,120.5,90.5,121.0" stroke="black" stroke-width="2" fill="none" />
<polyline points="85.0,125.0,92.5,125.0,100.5,124.5,108.5,123.5,116.0,123.0,123.5,122.5,131.5,122.5,139.5,122.5,147.5,122.5,155.5,122.0,163.5,122.0,171.5,121.5,179.5,121.0,187.5,120.5,195.5,120.0,204.0,119.0,212.5,118.0" stroke="black" stroke-width="2" fill="none" />
<polyline points="195.5,106.0,187.5,106.5,180.0,107.5,172.0,107.5,163.5,108.0,155.5,109.0,147.0,110.0,139.0,111.0,131.0,112.0,123.0,112.5,115.0,113.0,107.0,113.5,99.0,114.0,91.0,114.0" stroke="black" stroke-width="2" fill="none" />
<polyline points="85.0,116.5,93.0,116.0,101.0,116.0,109.0,115.5,117.0,115.0,125.5,114.5,133.0,114.5,140.5,113.5,148.5,113.5,156.0,113.0,164.0,113.0,172.0,112.5,180.0,112.5,188.0,112.0,197.0,111.5,205.0,110.5" stroke="black" stroke-width="2" fill="none" />
<polyline points="204.0,128.0,196.0,128.5,188.0,129.5,180.0,130.0,172.0,129.5,164.5,130.0,156.0,130.5,148.0,131.0,140.0,131.5,131.5,132.5,123.5,133.5,115.0,134.0,106.5,135.0,98.5,135.5,91.0,135.5,83.5,136.5" stroke="black" stroke-width="2" fill="none" />
<polyline points="82.0,135.0,90.0,134.5,97.5,134.0,106.0,133.0,114.5,132.0,123.0,131.0,131.5,130.0,139.0,129.0,146.5,128.0,154.0,127.0,162.0,126.0,170.5,126.0,178.5,125.5,186.5,125.5,195.0,125.5,203.0,125.5,211.0,125.0" stroke="black" stroke-width="2" fill="none" />
<polyline points="203.0,150.5,195.5,151.5,188.0,152.0,180.5,152.5,172.5,153.0,164.5,153.5,156.5,154.0,149.0,154.0,140.5,154.5,132.5,155.0,124.5,155.5,116.5,156.5,108.5,157.0,100.5,157.5,92.5,158.5,84.0,158.5" stroke="black" stroke-width="2" fill="none" />
<polyline points="81.5,157.5,90.0,169.5,98.0,180.0" stroke="black" stroke-width="2" fill="none" />
<polyline points="76.5,170.0,68.5,171.0,59.5,171.5,51.5,172.5,42.5,173.5,34.5,173.5" stroke="black" stroke-width="2" fill="none" />
<polyline points="31.5,180.5,39.5,179.5,48.0,181.5,56.0,182.5" stroke="black" stroke-width="2" fill="none" />
<polyline points="80.0,193.5,82.5,186.5,75.5,179.0,71.5,172.0,68.5,164.0,65.5,156.5,63.5,148.5,62.5,140.5,62.0,135.0,55.0,136.0,50.0,139.5,42.0,137.5,34.0,135.0,25.5,135.0,18.0,134.0,10.0,135.0,8.5,130.0,3.0,129.0,13.5,123.0,12.5,115.0,18.5,107.5,15.5,99.5,26.5,96.0,18.5,93.0" stroke="black" stroke-width="2" fill="none" />
<polyline points="19.5,90.0,27.0,90.0,35.0,89.5,44.0,89.5" stroke="black" stroke-width="2" fill="none" />
<polyline points="36.0,90.5,28.0,98.0" stroke="black" stroke-width="2" fill="none" />
<polyline points="25.5,102.5,34.0,102.0,42.5,101.0" stroke="black" stroke-width="2" fill="none" />
<polyline points="37.0,107.0,42.0,114.5,53.5,115.5,55.5,108.5,64.0,108.0" stroke="black" stroke-width="2" fill="none" />
<polyline points="67.0,107.5,62.0,115.5" stroke="black" stroke-width="2" fill="none" />
<polyline points="67.5,107.5,59.0,108.5,51.5,109.0" stroke="black" stroke-width="2" fill="none" />
<polyline points="51.5,114.5,43.5,116.5,36.0,115.5,28.0,114.5,28.0,109.5,19.5,101.0,17.5,108.0,10.5,105.0,3.0,103.5" stroke="black" stroke-width="2" fill="none" />
<polyline points="3.0,103.5,11.5,103.0" stroke="black" stroke-width="2" fill="none" />
<polyline points="2.5,109.0,10.5,110.0,13.5,122.0,18.5,115.0,25.5,106.5" stroke="black" stroke-width="2" fill="none" />
<polyline points="4.0,94.5,12.0,94.5,20.0,94.0,28.0,93.5,35.0,93.0,43.5,92.5,51.5,92.0,59.0,91.5,67.0,90.5" stroke="black" stroke-width="2" fill="none" />
<polyline points="60.0,89.5,67.5,82.0" stroke="black" stroke-width="2" fill="none" />
<polyline points="59.0,77.5,67.5,76.5,76.0,76.0,84.0,75.0" stroke="black" stroke-width="2" fill="none" />
<polyline points="107.0,78.5,115.5,78.0,123.5,77.0,131.5,76.0,139.5,75.5,147.5,74.5,156.0,74.5,163.5,73.5,171.5,73.0,179.5,72.5" stroke="black" stroke-width="2" fill="none" />
<polyline points="182.5,78.5,189.5,83.5,196.5,92.0,201.5,100.0,204.0,108.0,207.0,116.0,209.0,124.0,210.0,131.5,209.0,139.5,208.0,147.0,205.0,155.0" stroke="black" stroke-width="2" fill="none" />
<polyline points="203.0,143.0,195.0,143.5,187.0,144.0,179.0,144.5,171.0,144.5,163.0,145.0,155.0,145.5,146.5,146.5,138.0,147.5,130.0,148.0,121.5,148.0,113.5,148.5,105.5,149.0,97.5,149.5,89.5,150.0,82.0,150.5" stroke="black" stroke-width="2" fill="none" />
<polyline points="82.0,152.0,90.0,144.5,98.5,136.5,106.5,129.5,114.5,121.5,122.5,114.0,131.0,106.5,140.0,99.0,148.5,91.5,157.5,83.5,166.0,76.0" stroke="black" stroke-width="2" fill="none" />
<polyline points="164.5,75.5,179.5,83.5,189.5,92.0,195.5,100.0,199.5,108.0,202.5,116.5,203.5,124.5,204.5,133.5,203.5,141.5,202.5,149.5,200.5,157.0,196.5,165.0,192.0,173.0,185.0,181.0,174.0,189.5" stroke="black" stroke-width="2" fill="none" />
<polyline points="231.5,205.5,239.5,203.5" stroke="black" stroke-width="2" fill="none" />
<polyline points="256.0,226.0,251.0,231.0" stroke="black" stroke-width="2" fill="none" />
<polyline points="251.5,144.5,246.5,136.0,243.0,143.5,234.5,146.5,237.5,144.0,245.5,140.0,235.5,139.0" stroke="black" stroke-width="2" fill="none" />
<polyline points="203.5,122.0,195.5,122.5,187.5,123.0,179.5,123.0,171.0,123.5,163.0,124.0,155.0,124.0,147.0,125.0,139.0,125.5,131.0,126.0,123.0,126.5,115.0,127.5,107.5,128.0,100.0,128.5,92.0,129.5,84.0,130.5" stroke="black" stroke-width="2" fill="none" />
<polyline points="82.5,129.5,90.0,122.0,98.0,114.5,106.0,107.0,114.0,99.5,122.0,92.0,130.5,85.0,138.5,77.0" stroke="black" stroke-width="2" fill="none" />
<polyline points="131.5,76.5,123.0,84.0,115.0,91.5,107.0,99.0,98.5,107.0,90.5,114.5,82.5,122.0" stroke="black" stroke-width="2" fill="none" />
<polyline points="83.0,122.0,91.5,102.5,99.5,92.0,107.5,85.0,115.5,79.5,123.5,75.5,131.5,73.5,139.5,72.5,147.0,73.0,154.5,73.0,162.5,75.0,170.5,78.0,178.0,81.5,186.0,88.0,194.5,98.0,202.5,115.0" stroke="black" stroke-width="2" fill="none" />
<polyline points="204.0,101.0,196.0,101.5,188.0,102.5,180.0,103.5,172.0,104.5,163.5,106.0,156.0,106.0,147.5,106.0,139.5,106.5,131.5,106.5,124.0,106.5,116.0,106.5,108.0,106.5,100.5,106.5,92.0,107.0,84.0,107.5" stroke="black" stroke-width="2" fill="none" />
<polyline points="81.0,104.0,89.0,94.5" stroke="black" stroke-width="2" fill="none" />
<polyline points="84.5,99.0,92.5,99.0,100.5,98.5,108.5,98.5,116.5,98.5,125.0,98.5,132.5,97.5,140.0,97.0,148.0,96.0,156.0,96.0,164.5,95.5,172.5,95.5,181.0,95.0,189.0,95.0,196.5,94.5,205.0,94.5" stroke="black" stroke-width="2" fill="none" />
<polyline points="208.5,90.0,216.5,106.5,219.5,100.5,227.5,96.5,234.5,106.0,244.5,108.5,253.0,111.5" stroke="black" stroke-width="2" fill="none" />
<polyline points="246.0,80.5,238.0,81.5,230.0,84.5,222.0,84.5,214.0,84.5,213.5,82.5,205.5,82.5" stroke="black" stroke-width="2" fill="none" />
<polyline points="149.5,45.0,157.5,43.5,165.5,43.0,173.0,42.5,180.5,42.0,189.0,41.0,196.5,41.0,204.5,39.5,213.0,39.0,221.5,38.5,229.5,38.0,237.5,37.5,245.5,37.5,253.5,37.5,261.0,36.5" stroke="black" stroke-width="2" fill="none" />
<polyline points="163.0,78.5,154.5,78.5,146.5,78.5,138.5,79.0,130.0,79.0" stroke="black" stroke-width="2" fill="none" />
<polyline points="125.0,75.5,108.0,83.5,99.5,91.5,92.0,99.5,87.0,107.5,84.5,115.5,82.5,123.5,81.5,131.5,82.0,139.5,82.5,147.0,85.5,155.0,89.0,163.0,94.0,171.5,99.5,179.5,109.5,187.5,128.0,189.5,131.0,188.5,139.0,190.5,147.0,190.0,155.5,189.5,163.5,186.5,171.5,182.0" stroke="black" stroke-width="2" fill="none" />
<polyline points="198.5,162.5,190.5,175.0,182.5,183.0,174.0,188.0,166.0,192.0,158.0,194.5,150.0,195.5,142.5,196.0,135.0,195.0,127.0,194.5,119.0,191.5,110.5,186.5,102.5,180.5,94.5,170.5,86.5,155.5" stroke="black" stroke-width="2" fill="none" />
<polyline points="106.5,205.0,93.5,197.5,79.5,191.0,71.5,193.0,63.0,195.5,55.0,195.5,52.0,187.5,44.0,187.5,36.5,187.5,28.5,186.0,23.0,176.0,15.0,176.0,18.5,176.0,25.5,171.0,28.5,163.0,21.0,158.0,20.0,160.5" stroke="black" stroke-width="2" fill="none" />
<polyline points="22.5,146.5,14.5,149.0,6.5,146.0,8.5,152.0" stroke="black" stroke-width="2" fill="none" />
<polyline points="3.0,142.0,11.0,141.0,19.0,142.0,30.5,138.0" stroke="black" stroke-width="2" fill="none" />
<polyline points="19.0,140.0,11.0,140.5,2.5,140.5" stroke="black" stroke-width="2" fill="none" />
<polyline points="2.0,134.0,10.0,133.5" stroke="black" stroke-width="2" fill="none" />
<polyline points="3.0,133.5,11.0,137.5,19.0,138.5,27.0,142.0,30.0,146.0,25.0,148.0" stroke="black" stroke-width="2" fill="none" />
<polyline points="9.5,175.0,17.5,172.5,25.5,172.5,31.5,173.5,34.5,177.5,42.5,176.5,50.5,176.5,58.5,176.5,65.0,178.5,73.0,176.5" stroke="black" stroke-width="2" fill="none" />
<polyline points="74.5,178.5,66.5,183.5,58.5,183.5,50.0,183.5,42.0,183.0,34.0,183.0,25.5,183.5,17.5,185.5,9.5,186.5,2.0,186.5" stroke="black" stroke-width="2" fill="none" />
<polyline points="1.0,186.0,9.0,186.0" stroke="black" stroke-width="2" fill="none" />
<polyline points="7.5,178.0,8.5,174.5,2.5,177.0" stroke="black" stroke-width="2" fill="none" />
<polyline points="8.5,202.5,16.5,202.5,25.5,203.5,26.5,206.5,37.0,199.5,36.5,212.5,44.0,218.5,44.0,214.0" stroke="black" stroke-width="2" fill="none" />
<polyline points="42.0,220.5,50.5,221.5" stroke="black" stroke-width="2" fill="none" />
<polyline points="60.0,229.5,62.0,243.5,63.0,245.5,61.0,253.0,54.0,254.0,64.0,255.0,72.5,255.0,80.0,255.0" stroke="black" stroke-width="2" fill="none" />
<polyline points="41.5,245.5,33.5,245.5,25.5,246.0" stroke="black" stroke-width="2" fill="none" />
<polyline points="24.5,230.5,36.5,232.5,43.0,240.5,46.5,244.5,44.5,254.5,47.5,251.5,55.5,249.5,63.5,249.5" stroke="black" stroke-width="2" fill="none" />
<polyline points="51.5,249.5,43.5,249.5,35.5,250.0,27.0,250.0,19.0,251.0,11.0,252.0,2.5,253.0" stroke="black" stroke-width="2" fill="none" />
<polyline points="1.0,249.5,5.0,243.5,17.0,240.0,17.0,248.0" stroke="black" stroke-width="2" fill="none" />
<polyline points="13.5,248.5,9.5,245.5,1.0,245.5" stroke="black" stroke-width="2" fill="none" />
<polyline points="2.5,230.0,11.0,228.0,13.5,227.5,18.5,230.0,16.0,238.0,17.0,246.0,9.0,247.0,9.0,252.0,17.0,254.0,20.5,255.5" stroke="black" stroke-width="2" fill="none" />
<polyline points="10.5,233.0,18.5,234.0,24.0,235.5,26.0,239.5,25.0,248.0,27.5,248.0,26.5,240.0,34.5,231.5,42.5,235.5,44.5,241.0,51.5,243.0,59.0,243.0,68.0,245.0" stroke="black" stroke-width="2" fill="none" />
<polyline points="75.0,239.5,68.0,239.5,70.0,231.5,65.5,228.5,66.5,221.0,68.5,213.0" stroke="black" stroke-width="2" fill="none" />
<polyline points="17.5,206.0,9.5,206.0" stroke="black" stroke-width="2" fill="none" />
<polyline points="8.5,211.0,16.5,208.0,26.5,210.0,28.0,214.5,32.0,210.5" stroke="black" stroke-width="2" fill="none" />
<polyline points="58.0,97.0,53.0,103.5,45.5,109.5,44.5,105.0,43.5,105.0,52.5,104.0,54.0,96.0" stroke="black" stroke-width="2" fill="none" />
<polyline points="50.5,78.5,58.5,78.5,66.5,78.5,74.5,78.5" stroke="black" stroke-width="2" fill="none" />
<polyline points="59.0,60.5,51.5,61.0,43.5,62.0" stroke="black" stroke-width="2" fill="none" />
<polyline points="51.0,42.0,42.5,42.0,35.0,42.5,27.0,42.5,19.0,43.0,11.0,43.5" stroke="black" stroke-width="2" fill="none" />
<polyline points="16.0,23.5,24.0,23.5,32.0,22.5,40.0,24.0" stroke="black" stroke-width="2" fill="none" />
<polyline points="43.0,37.0,35.0,39.0" stroke="black" stroke-width="2" fill="none" />
<polyline points="75.5,36.5,84.0,36.0,91.5,36.5,99.5,36.0" stroke="black" stroke-width="2" fill="none" />
<polyline points="108.5,37.0,116.5,36.0,124.0,35.5" stroke="black" stroke-width="2" fill="none" />
<polyline points="131.0,37.0,139.0,36.5,147.5,36.0,155.5,36.0,163.5,35.5,171.5,35.0,179.5,34.5,188.0,34.0,196.5,33.5,204.5,33.5,212.5,33.0,220.5,32.5,229.0,31.5,237.0,31.0,245.0,30.5,252.5,30.0,260.5,30.0" stroke="black" stroke-width="2" fill="none" />
<polyline points="164.0,68.0,155.5,69.0,147.5,69.5,139.5,70.0,131.5,70.5,123.5,71.0" stroke="black" stroke-width="2" fill="none" />
<polyline points="117.0,66.5,102.0,74.5,92.0,82.5,86.5,90.5,80.5,98.5,77.5,106.5,78.0,103.0,86.0,89.5,94.0,79.0,101.5,73.0,109.5,69.0,117.5,65.0,125.5,62.0,134.0,60.5,142.0,59.5,150.0,60.5,157.5,61.0" stroke="black" stroke-width="2" fill="none" />
<polyline points="85.5,81.5,77.5,82.0,69.0,82.5,61.0,83.0,52.5,83.5,44.5,83.5,36.0,83.5,27.5,84.0,18.5,84.0,10.5,85.0,2.5,85.5" stroke="black" stroke-width="2" fill="none" />
<polyline points="2.5,86.0,10.5,85.5,18.5,85.0,26.5,85.0,34.5,85.0,39.5,85.0,47.5,85.5,56.0,85.5,64.0,85.5,72.0,85.5" stroke="black" stroke-width="2" fill="none" />
<polyline points="64.5,93.0,56.5,90.0,43.0,93.5,43.0,99.5,35.0,99.0,27.0,101.0,19.0,97.0,10.5,90.5,2.0,90.5" stroke="black" stroke-width="2" fill="none" />
<polyline points="2.0,88.0,10.0,88.0,18.5,87.5,26.5,87.5,34.5,87.5,42.5,87.5,50.5,87.5,58.5,88.0,66.5,88.5,74.0,88.5,82.0,82.5,90.0,73.5,98.0,67.5,106.0,63.5,114.5,60.0,122.5,58.0,130.5,55.5,138.5,54.0,146.5,54.0,154.0,53.5,162.0,55.5,170.5,57.5,178.5,61.5,187.0,65.5,195.0,71.5,202.5,70.5,208.0,67.0,219.0,75.0,225.0,71.0,233.0,72.0,241.0,73.0,249.0,70.0,249.5,74.0" stroke="black" stroke-width="2" fill="none" />
</svg>