<svg xmlns="http://www.w3.org/2000/svg" version="1.1"><polyline points="102.5,3.0,108.5,11.0,112.0,19.5,119.0,27.5,111.0,35.0,117.5,30.5,125.5,27.5,134.0,24.5,141.5,16.5,152.5,11.5,161.5,6.0,169.5,10.0,177.5,11.5,185.5,7.5,194.5,4.0,203.0,4.0,210.5,7.5,212.0,15.5,219.0,28.5,227.0,28.0,235.0,31.5,243.0,37.5,251.0,32.5,254.0,34.0" stroke="black" stroke-width="2" fill="none" />
<polyline points="255.5,33.5,250.5,41.0" stroke="black" stroke-width="2" fill="none" />
<polyline points="252.5,42.5,260.5,42.5" stroke="black" stroke-width="2" fill="none" />
<polyline points="243.5,43.0,235.0,43.5,226.5,43.5" stroke="black" stroke-width="2" fill="none" />
<polyline points="231.0,49.5,223.0,54.0" stroke="black" stroke-width="2" fill="none" />
<polyline points="211.5,51.5,219.5,52.0,230.5,51.5,225.5,59.5,228.0,69.5,236.0,77.0,237.0,80.0" stroke="black" stroke-width="2" fill="none" />
<polyline points="243.0,83.0,235.5,83.5,228.0,84.5" stroke="black" stroke-width="2" fill="none" />
<polyline points="228.0,83.0,220.0,82.0,217.5,78.5,209.5,83.5" stroke="black" stroke-width="2" fill="none" />
<polyline points="211.0,84.0,203.0,84.5" stroke="black" stroke-width="2" fill="none" />
<polyline points="196.5,87.5,188.0,88.0" stroke="black" stroke-width="2" fill="none" />
<polyline points="193.0,94.0,201.0,94.0,209.0,100.0,219.0,111.0,217.0,119.0,215.5,131.0,218.5,139.5,210.5,149.5,204.5,157.5,208.5,168.0,218.5,176.0,218.5,184.0,215.5,191.5,209.5,199.0,214.5,210.0,224.5,210.5,232.5,206.5,241.0,196.5,253.0,198.5,255.0,203.5,255.0,212.5" stroke="black" stroke-width="2" fill="none" />
<polyline points="258.0,205.5,250.0,206.5" stroke="black" stroke-width="2" fill="none" />
<polyline points="249.0,212.5,241.0,213.5" stroke="black" stroke-width="2" fill="none" />
<polyline points="236.5,203.0,228.5,203.5" stroke="black" stroke-width="2" fill="none" />
<polyline points="231.5,196.0,223.5,187.5" stroke="black" stroke-width="2" fill="none" />
<polyline points="225.5,183.0,233.5,174.0,245.0,177.5,253.5,174.0" stroke="black" stroke-width="2" fill="none" />
<polyline points="251.0,166.0,259.0,165.0" stroke="black" stroke-width="2" fill="none" />
<polyline points="243.5,163.5,235.5,164.0,227.5,164.5" stroke="black" stroke-width="2" fill="none" />
<polyline points="227.0,165.0,218.5,161.0,210.5,165.0" stroke="black" stroke-width="2" fill="none" />
<polyline points="209.5,164.5,201.5,164.5" stroke="black" stroke-width="2" fill="none" />
<polyline points="197.5,166.0,190.0,166.0" stroke="black" stroke-width="2" fill="none" />
<polyline points="193.5,166.0,193.5,174.5,188.0,176.0,181.0,184.0,184.5,195.0,185.0,202.5,185.5,213.5,179.5,221.5,188.5,231.0,192.0,241.0,195.0,249.5,200.5,251.5,208.5,243.5,210.5,230.5" stroke="black" stroke-width="2" fill="none" />
<polyline points="210.0,238.0,207.5,236.0,216.5,228.0,217.5,220.5,216.5,213.0,210.5,205.0,220.5,196.5,221.0,188.0,221.0,176.5,224.5,168.5,235.5,157.5,237.5,153.5,233.5,141.0,237.5,133.0,229.5,144.0" stroke="black" stroke-width="2" fill="none" />
<polyline points="224.5,148.0,229.5,156.0,241.0,156.0,249.0,156.5" stroke="black" stroke-width="2" fill="none" />
<polyline points="248.5,167.0,240.5,167.0" stroke="black" stroke-width="2" fill="none" />
<polyline points="247.0,173.0,239.5,173.0,231.5,182.0" stroke="black" stroke-width="2" fill="none" />
<polyline points="228.5,187.5,237.0,191.5,244.5,193.5,252.5,188.5" stroke="black" stroke-width="2" fill="none" />
<polyline points="255.5,183.0,254.5,183.0,252.0,175.0,248.5,172.0,251.5,163.0,248.5,158.0,250.5,152.0,254.5,143.0,249.0,135.5,252.0,127.5,251.0,120.0,247.0,117.0,249.0,113.0,253.0,102.0,249.5,93.5,252.0,87.0,252.0,79.0,256.0,72.0,256.0,77.5,253.0,72.0,255.5,66.0,253.5,57.5,255.5,52.5,250.5,50.5,254.5,42.5,251.5,33.5,254.5,20.0,250.5,20.0,252.5,14.0,254.0,8.0,246.0,9.5,237.5,8.5" stroke="black" stroke-width="2" fill="none" />
<polyline points="234.0,9.0,235.5,17.0,233.5,22.5,236.5,33.5,237.5,39.5,245.5,39.5" stroke="black" stroke-width="2" fill="none" />
<polyline points="231.5,41.5,223.5,39.5,215.5,45.0,213.5,43.0,208.5,44.5,213.5,37.0,207.5,31.5,199.5,38.5,191.5,36.5,183.5,29.5" stroke="black" stroke-width="2" fill="none" />
<polyline points="184.5,31.0,186.5,39.0,184.5,51.5,178.5,59.5" stroke="black" stroke-width="2" fill="none" />
<polyline points="169.5,60.0,164.5,52.0,154.0,47.0,146.0,47.0" stroke="black" stroke-width="2" fill="none" />
<polyline points="148.5,45.0,140.0,45.0" stroke="black" stroke-width="2" fill="none" />
<polyline points="144.0,39.0,136.0,32.0" stroke="black" stroke-width="2" fill="none" />
<polyline points="137.0,28.0,145.0,35.0,152.5,38.0,160.5,31.0,168.5,27.5,176.5,21.0,187.0,11.5,183.0,20.0,185.0,22.5,193.0,17.5,201.0,17.5,209.0,16.0" stroke="black" stroke-width="2" fill="none" />
<polyline points="207.0,15.0,214.5,22.5" stroke="black" stroke-width="2" fill="none" />
<polyline points="221.0,29.0,229.5,28.0" stroke="black" stroke-width="2" fill="none" />
<polyline points="229.0,29.5,231.0,31.5,237.0,39.5,239.0,51.5,237.0,54.0,231.0,62.0,236.0,73.0,240.0,86.0,248.0,86.5" stroke="black" stroke-width="2" fill="none" />
<polyline points="252.5,84.5,260.5,84.0" stroke="black" stroke-width="2" fill="none" />
<polyline points="256.5,62.0,248.5,58.0,240.5,58.5" stroke="black" stroke-width="2" fill="none" />
<polyline points="238.0,55.5,230.0,67.5,238.5,74.5,246.5,78.5,254.5,69.5" stroke="black" stroke-width="2" fill="none" />
<polyline points="252.0,59.0,242.0,54.5,234.0,64.5" stroke="black" stroke-width="2" fill="none" />
<polyline points="229.5,68.0,233.5,76.5,236.5,86.0,235.5,94.5,231.5,106.5,231.5,115.0,239.5,116.5,241.0,124.5,232.0,132.5,226.5,140.0,221.5,151.0,226.5,159.0,225.0,165.0,226.0,168.5,233.5,166.0,239.5,168.0,247.5,168.0,254.5,165.5,255.5,171.5" stroke="black" stroke-width="2" fill="none" />
<polyline points="248.5,162.5,241.0,163.0,232.5,157.0,224.5,150.0" stroke="black" stroke-width="2" fill="none" />
<polyline points="220.0,158.5,209.0,170.5,215.0,179.0,207.0,192.5,202.0,200.5" stroke="black" stroke-width="2" fill="none" />
<polyline points="205.0,204.0,212.5,203.5" stroke="black" stroke-width="2" fill="none" />
<polyline points="211.5,204.0,219.5,200.0,227.5,201.0,241.5,205.5,249.5,214.0" stroke="black" stroke-width="2" fill="none" />
<polyline points="255.5,228.0,247.5,236.5,239.5,236.5,231.5,226.0" stroke="black" stroke-width="2" fill="none" />
<polyline points="229.5,225.0,237.5,212.5,245.5,209.5" stroke="black" stroke-width="2" fill="none" />
<polyline points="226.5,221.0,237.5,214.0,232.5,222.0,230.0,230.0,232.5,239.0" stroke="black" stroke-width="2" fill="none" />
<polyline points="235.0,244.0,232.5,236.0,231.5,233.5,223.5,228.5" stroke="black" stroke-width="2" fill="none" />
<polyline points="217.5,223.5,209.5,214.0" stroke="black" stroke-width="2" fill="none" />
<polyline points="208.5,211.0,212.5,218.5" stroke="black" stroke-width="2" fill="none" />
<polyline points="212.5,223.0,204.5,213.0" stroke="black" stroke-width="2" fill="none" />
<polyline points="205.5,215.5,211.5,223.5,214.0,234.5" stroke="black" stroke-width="2" fill="none" />
<polyline points="221.5,237.5,222.0,230.0,222.5,221.0,223.0,213.0,240.0,208.5,240.0,199.5,237.0,198.5,238.5,193.5,230.0,185.5,236.0,177.5,235.0,173.5,239.0,159.0,233.0,157.0,230.5,149.5,229.5,142.0,235.5,133.5,239.5,128.5,236.5,116.5,236.5,114.5,228.5,107.5" stroke="black" stroke-width="2" fill="none" />
<polyline points="229.5,105.5,237.5,112.5,245.5,113.5,253.5,108.0" stroke="black" stroke-width="2" fill="none" />
<polyline points="251.0,124.5,259.0,124.0" stroke="black" stroke-width="2" fill="none" />
<polyline points="245.0,123.0,237.0,123.5,228.5,124.0" stroke="black" stroke-width="2" fill="none" />
<polyline points="213.0,124.0,221.0,116.5,207.0,129.5,212.5,138.0" stroke="black" stroke-width="2" fill="none" />
<polyline points="215.5,137.0,210.5,129.0" stroke="black" stroke-width="2" fill="none" />
<polyline points="210.5,127.5,218.5,131.5,227.0,128.5,235.0,126.5,246.0,123.5" stroke="black" stroke-width="2" fill="none" />
<polyline points="256.5,96.0,255.5,84.0,250.5,84.0,242.0,83.0,229.0,84.5,225.5,86.5,218.0,88.5,215.0,87.5,213.0,76.0,217.0,63.0,210.5,55.5,207.5,41.0,213.5,32.5,204.5,20.5,201.5,15.0,193.5,15.0" stroke="black" stroke-width="2" fill="none" />
<polyline points="194.0,12.0,202.5,12.0,212.5,16.0,225.0,21.0,236.0,21.0,244.0,12.0,252.0,19.0,257.0,24.0" stroke="black" stroke-width="2" fill="none" />
<polyline points="247.5,18.0,239.5,18.0" stroke="black" stroke-width="2" fill="none" />
<polyline points="241.5,16.5,236.5,18.0,231.5,21.0,224.0,27.0" stroke="black" stroke-width="2" fill="none" />
<polyline points="226.0,31.5,230.5,39.5,228.0,49.5,222.5,57.0,218.5,65.0,219.5,76.0,215.5,82.0,208.5,90.5,213.0,98.5,209.0,109.5,208.0,115.5,210.0,112.5,210.5,107.5" stroke="black" stroke-width="2" fill="none" />
<polyline points="215.0,99.0,207.0,91.5" stroke="black" stroke-width="2" fill="none" />
<polyline points="211.0,92.0,217.0,100.0,230.5,94.0" stroke="black" stroke-width="2" fill="none" />
<polyline points="232.0,90.5,227.0,98.5,227.0,105.0,235.0,97.0,246.0,89.5,253.5,86.5" stroke="black" stroke-width="2" fill="none" />
<polyline points="254.0,94.0,242.0,91.5,232.5,101.5,225.0,107.5,212.5,106.0,204.5,98.0,197.5,88.0,186.5,95.0,179.0,105.0" stroke="black" stroke-width="2" fill="none" />
<polyline points="183.5,105.0,193.5,91.0,202.0,90.5,214.0,101.5,227.0,100.5" stroke="black" stroke-width="2" fill="none" />
<polyline points="238.5,94.0,233.5,102.0,236.0,110.5,242.5,117.0,250.0,117.0" stroke="black" stroke-width="2" fill="none" />
<polyline points="249.5,94.0,242.0,94.5,232.0,89.5,224.0,92.5,215.0,90.5,201.5,83.5,193.0,82.0,181.0,73.0,166.5,73.5,160.5,77.0,150.5,86.0,138.5,90.0,130.5,99.5,133.5,95.0,136.5,87.0,132.5,75.5,124.5,63.5,124.5,55.5,123.0,43.0,124.0,35.0,119.5,24.5,111.5,13.5" stroke="black" stroke-width="2" fill="none" />
<polyline points="113.0,19.0,119.0,26.5,116.0,40.0,118.5,40.0,123.5,41.5,125.5,43.5,133.5,42.5" stroke="black" stroke-width="2" fill="none" />
<polyline points="124.0,44.5,115.5,45.0" stroke="black" stroke-width="2" fill="none" />
<polyline points="120.5,47.5,128.5,50.5,130.5,43.0" stroke="black" stroke-width="2" fill="none" />
<polyline points="131.5,28.0,139.5,34.0,142.0,37.5,145.5,51.5,136.5,59.0,137.0,65.0,145.5,56.0,153.5,56.5,161.5,62.5" stroke="black" stroke-width="2" fill="none" />
<polyline points="158.5,57.5,167.0,66.5" stroke="black" stroke-width="2" fill="none" />
<polyline points="174.0,70.0,182.0,69.5" stroke="black" stroke-width="2" fill="none" />
<polyline points="183.0,71.0,189.5,79.0,192.5,91.5,188.0,100.0,182.5,108.5,190.5,113.0,190.0,117.0,183.0,128.0,175.0,136.0,178.0,141.0,183.0,139.0" stroke="black" stroke-width="2" fill="none" />
<polyline points="191.0,132.5,186.5,140.5,189.5,152.5,191.5,163.5,200.0,162.0,210.0,167.5,218.0,167.5,227.0,167.0" stroke="black" stroke-width="2" fill="none" />
<polyline points="209.5,170.0,214.5,178.0,211.5,191.0,207.0,199.0,208.5,213.0,215.0,221.5,220.0,234.0,212.5,242.0" stroke="black" stroke-width="2" fill="none" />
<polyline points="219.5,240.5,235.0,248.5" stroke="black" stroke-width="2" fill="none" />
<polyline points="248.0,251.0,252.0,242.5,250.0,249.5,242.0,251.5,238.0,247.5,242.5,238.5,253.0,230.5,252.0,219.5,249.5,211.0,249.5,207.0,251.5,196.5,252.5,194.5,251.0,190.5,253.0,192.5,243.0,202.5,235.5,213.5,227.5,223.5,217.5,229.5,212.5,231.5,204.5,242.5,204.5,232.5,210.5,224.5,204.0,216.5,204.0,208.5,204.0,201.5,203.5,190.5,208.0,183.0,206.0,175.0,202.0,172.5,202.0,166.0,201.0,158.0,214.5,154.0,216.0,146.0,208.5,138.0,206.5,130.0,206.5,121.0,203.0,119.5,203.0,114.0,213.0,106.0,204.5,98.0,205.5,90.5,207.0,80.5,213.0,72.5,211.0,60.5,207.0,52.0,219.0,39.5,219.0,32.0,222.0,26.0,222.0,17.5,222.0,10.5,227.0,2.0,239.5,4.0,230.5,2.5,223.0,2.5,215.0,4.5" stroke="black" stroke-width="2" fill="none" />
<polyline points="212.5,6.5,204.0,7.0" stroke="black" stroke-width="2" fill="none" />
<polyline points="212.5,8.0,220.5,16.0,220.5,24.5,207.0,34.5,203.0,43.0,202.5,50.0,204.5,53.5,204.5,60.5,207.5,73.5,204.5,81.0,209.5,81.0,217.5,70.0,228.5,65.5,236.5,55.5,246.0,48.5,254.0,42.5" stroke="black" stroke-width="2" fill="none" />
<polyline points="227.0,67.0,219.5,67.0" stroke="black" stroke-width="2" fill="none" />
<polyline points="215.5,63.0,207.5,55.0" stroke="black" stroke-width="2" fill="none" />
<polyline points="205.5,57.5,212.5,65.5,204.0,73.5,209.5,71.0,217.5,68.0,231.0,76.5" stroke="black" stroke-width="2" fill="none" />
<polyline points="226.0,85.0,222.0,77.5,222.0,69.0,219.0,56.5,218.5,50.5,217.0,42.5,221.0,34.5,214.0,25.5,206.0,17.5" stroke="black" stroke-width="2" fill="none" />
<polyline points="206.5,16.5,213.0,24.5,204.0,33.0" stroke="black" stroke-width="2" fill="none" />
<polyline points="201.0,40.0,193.0,39.5" stroke="black" stroke-width="2" fill="none" />
<polyline points="197.0,47.5,189.0,48.0" stroke="black" stroke-width="2" fill="none" />
<polyline points="190.5,56.0,185.5,64.0,181.5,72.5,186.5,80.5,174.0,92.5,174.0,100.5,180.0,112.0,183.0,112.5,192.0,116.5,189.5,128.5,186.0,136.5,181.0,144.5,174.0,153.5,172.0,155.0,164.0,157.0,166.5,166.5,172.5,174.0,168.0,185.0,173.5,188.0,179.5,179.0" stroke="black" stroke-width="2" fill="none" />
<polyline points="181.0,181.0,173.5,182.0" stroke="black" stroke-width="2" fill="none" />
<polyline points="178.0,185.0,186.0,177.0,186.5,181.0,186.5,189.5,191.0,197.5,191.0,210.0,186.5,215.0,180.5,223.0,184.5,234.0,188.5,242.0" stroke="black" stroke-width="2" fill="none" />
<polyline points="197.0,250.0,202.0,242.0,206.0,234.5,207.5,230.0,199.5,238.0,191.5,235.0,184.0,228.5" stroke="black" stroke-width="2" fill="none" />
<polyline points="180.5,231.0,186.5,239.0" stroke="black" stroke-width="2" fill="none" />
<polyline points="175.0,241.5,192.0,249.5" stroke="black" stroke-width="2" fill="none" />
<polyline points="204.5,249.0,220.0,240.5,211.0,243.5,197.0,240.5,187.0,247.5,179.0,244.0,168.5,241.0,163.5,244.0,172.5,236.0,172.0,221.5,172.0,213.5,174.5,208.0,179.5,201.0,173.5,192.0,174.0,184.0,183.0,178.0,186.5,170.0,189.5,162.0,188.5,154.0,183.5,146.5,179.0,138.5,184.0,130.5,178.0,123.0,175.5,129.0,167.5,126.5,174.5,121.0,173.5,113.0,171.5,101.0,172.0,93.0,165.5,86.0,164.5,82.5,171.5,74.5,177.5,63.5,185.0,55.5,192.5,52.0,184.5,49.0,176.5,52.5,169.0,50.5" stroke="black" stroke-width="2" fill="none" />
<polyline points="161.5,51.5,164.5,59.0" stroke="black" stroke-width="2" fill="none" />
<polyline points="158.5,55.5,164.5,63.5,158.0,72.0,155.5,80.0" stroke="black" stroke-width="2" fill="none" />
<polyline points="156.5,82.5,164.5,82.5" stroke="black" stroke-width="2" fill="none" />
<polyline points="169.5,84.5,177.5,86.5,190.0,88.5,186.0,97.0,175.5,101.5" stroke="black" stroke-width="2" fill="none" />
<polyline points="174.0,91.5,182.0,87.5,193.5,84.5,201.5,84.5" stroke="black" stroke-width="2" fill="none" />
<polyline points="212.5,88.5,220.5,96.5,218.5,104.0,223.0,113.0,228.0,121.0,225.0,129.5,221.5,137.0,219.5,147.0,219.5,155.0,217.0,166.0,219.0,169.5" stroke="black" stroke-width="2" fill="none" />
<polyline points="209.5,174.0,208.0,179.5,219.0,189.0,219.0,197.0,210.0,210.5" stroke="black" stroke-width="2" fill="none" />
<polyline points="213.5,205.5,222.0,208.5" stroke="black" stroke-width="2" fill="none" />
<polyline points="210.5,224.0,202.5,214.5,194.5,214.0,182.5,223.0,183.0,216.0,180.5,204.0,169.5,200.0,161.5,203.5,162.5,195.5,162.0,196.5,153.5,203.0,145.5,205.0,137.5,207.0,129.5,211.0,121.5,209.0" stroke="black" stroke-width="2" fill="none" />
<polyline points="123.0,204.5,115.0,204.5" stroke="black" stroke-width="2" fill="none" />
<polyline points="116.5,208.0,124.5,209.0,133.0,207.0" stroke="black" stroke-width="2" fill="none" />
<polyline points="140.5,206.5,148.5,206.5" stroke="black" stroke-width="2" fill="none" />
<polyline points="155.5,205.0,164.0,204.5" stroke="black" stroke-width="2" fill="none" />
<polyline points="167.0,207.0,174.5,210.0" stroke="black" stroke-width="2" fill="none" />
<polyline points="173.5,212.0,182.0,207.0" stroke="black" stroke-width="2" fill="none" />
<polyline points="189.0,207.0,197.0,206.5" stroke="black" stroke-width="2" fill="none" />
<polyline points="190.5,211.5,185.5,220.0,175.5,228.0,180.5,236.5" stroke="black" stroke-width="2" fill="none" />
<polyline points="171.0,241.5,155.0,250.0" stroke="black" stroke-width="2" fill="none" />
<polyline points="153.5,248.5,149.0,240.5,159.0,230.5,160.0,222.5,155.5,214.5,158.0,206.5,156.5,201.5,153.5,198.0,158.5,189.0,159.5,181.5,158.0,173.5,158.0,169.5,158.0,162.0,163.0,153.5,172.5,144.0,172.5,136.0,170.5,127.0,162.0,123.5,157.0,116.0,164.5,108.5,161.0,94.5,154.0,91.0,154.0,83.0,159.0,75.0,160.5,66.0,154.5,58.0,156.5,50.0,156.5,46.0,159.5,44.0,166.0,36.0,171.5,24.0,165.0,16.0,167.5,6.5,181.0,6.5,177.0,11.0,169.0,9.0" stroke="black" stroke-width="2" fill="none" />
<polyline points="166.5,10.0,172.5,18.0" stroke="black" stroke-width="2" fill="none" />
<polyline points="174.0,29.0,181.5,28.5" stroke="black" stroke-width="2" fill="none" />
<polyline points="182.0,27.0,190.0,17.0,185.0,25.0,186.0,30.5,192.5,38.5,189.5,42.5,191.0,48.0,188.0,55.5,180.5,63.5,190.5,76.0,190.5,85.0,181.5,94.0,181.5,99.0,172.0,109.0,171.5,118.0,157.5,129.0,157.0,136.5,162.5,144.0,156.5,152.0,165.5,151.0,174.5,147.0,182.5,149.0,190.5,152.5,198.5,153.5,206.5,148.0,212.5,150.0,207.0,158.0,213.0,161.0,224.5,158.5,232.5,162.0,246.5,164.5,254.5,158.5" stroke="black" stroke-width="2" fill="none" />
<polyline points="211.5,124.0,203.5,124.5" stroke="black" stroke-width="2" fill="none" />
<polyline points="197.5,126.5,189.0,126.5" stroke="black" stroke-width="2" fill="none" />
<polyline points="186.0,128.5,183.0,136.5,190.0,134.5,198.0,131.0,209.0,126.0,213.5,134.5" stroke="black" stroke-width="2" fill="none" />
<polyline points="201.0,133.5,205.5,141.0,205.5,149.0,209.5,154.0,217.5,147.0,226.0,137.0" stroke="black" stroke-width="2" fill="none" />
<polyline points="209.5,183.0,207.5,187.0,199.5,195.5,191.5,196.0,183.5,187.0" stroke="black" stroke-width="2" fill="none" />
<polyline points="184.5,184.5,192.5,175.5,200.5,175.5,208.0,177.0,216.0,185.5,226.5,192.5,231.0,200.0,236.0,211.5,230.5,219.5,224.5,230.5,229.5,238.5" stroke="black" stroke-width="2" fill="none" />
<polyline points="232.0,230.0,238.5,237.5" stroke="black" stroke-width="2" fill="none" />
<polyline points="181.5,194.0,179.5,190.0" stroke="black" stroke-width="2" fill="none" />
<polyline points="183.5,190.0,188.5,198.0,195.5,197.0" stroke="black" stroke-width="2" fill="none" />
<polyline points="173.0,222.5,165.0,213.5" stroke="black" stroke-width="2" fill="none" />
<polyline points="161.5,216.0,162.0,207.5,171.5,196.0,171.5,188.0,174.0,175.0,182.0,166.5,177.5,153.0,178.0,152.0" stroke="black" stroke-width="2" fill="none" />
<polyline points="177.0,150.5,185.0,154.5,189.5,154.5" stroke="black" stroke-width="2" fill="none" />
<polyline points="174.0,156.5,184.0,171.0,180.0,179.0,180.5,193.0,182.5,207.0,174.0,214.5,179.0,221.5" stroke="black" stroke-width="2" fill="none" />
<polyline points="178.5,241.5,173.5,233.5,171.0,225.5,164.5,217.0,162.5,209.5" stroke="black" stroke-width="2" fill="none" />
<polyline points="157.0,211.5,161.0,219.5,165.0,231.5,159.0,240.0" stroke="black" stroke-width="2" fill="none" />
<polyline points="143.5,240.5,138.0,233.0,137.0,228.5" stroke="black" stroke-width="2" fill="none" />
<polyline points="133.5,228.0,141.5,240.0" stroke="black" stroke-width="2" fill="none" />
<polyline points="139.5,242.0,131.5,230.5" stroke="black" stroke-width="2" fill="none" />
<polyline points="133.0,225.0,141.5,218.0,151.0,214.0" stroke="black" stroke-width="2" fill="none" />
<polyline points="155.0,196.5,147.0,196.5,139.5,189.5" stroke="black" stroke-width="2" fill="none" />
<polyline points="136.5,187.0,144.5,190.0,152.5,194.0,160.0,188.5" stroke="black" stroke-width="2" fill="none" />
<polyline points="147.0,176.0,155.0,175.5,167.0,174.5,179.0,187.5,187.0,191.5" stroke="black" stroke-width="2" fill="none" />
<polyline points="202.0,169.0,194.0,168.5,194.5,166.5,181.5,166.5,173.5,169.0,172.0,170.5,164.0,167.0" stroke="black" stroke-width="2" fill="none" />
<polyline points="165.0,168.5,167.0,177.0,169.0,191.0,163.5,199.0,163.0,208.5,171.0,201.5,178.0,199.5,190.0,206.5,198.0,206.5,206.0,202.0" stroke="black" stroke-width="2" fill="none" />
<polyline points="164.0,163.5,156.5,164.0" stroke="black" stroke-width="2" fill="none" />
<polyline points="148.5,166.0,141.0,166.5" stroke="black" stroke-width="2" fill="none" />
<polyline points="139.0,157.5,131.0,150.5" stroke="black" stroke-width="2" fill="none" />
<polyline points="131.0,149.5,123.0,150.0" stroke="black" stroke-width="2" fill="none" />
<polyline points="118.0,156.0,114.5,146.0,106.5,154.0,98.5,154.0,90.5,145.0" stroke="black" stroke-width="2" fill="none" />
<polyline points="89.5,145.0,97.5,132.5,106.0,132.5,114.0,130.0,119.5,138.0" stroke="black" stroke-width="2" fill="none" />
<polyline points="120.0,134.5,108.0,126.5,100.0,126.5" stroke="black" stroke-width="2" fill="none" />
<polyline points="99.0,125.0,91.5,126.0" stroke="black" stroke-width="2" fill="none" />
<polyline points="91.5,127.5,89.0,135.0,87.0,146.0,95.0,152.0" stroke="black" stroke-width="2" fill="none" />
<polyline points="85.0,150.0,93.0,156.0,104.5,161.5" stroke="black" stroke-width="2" fill="none" />
<polyline points="108.5,163.5,116.5,163.0,124.0,162.5" stroke="black" stroke-width="2" fill="none" />
<polyline points="120.5,165.0,128.5,158.0,118.5,167.5,120.0,175.5" stroke="black" stroke-width="2" fill="none" />
<polyline points="120.0,180.5,107.0,167.0,99.0,166.5" stroke="black" stroke-width="2" fill="none" />
<polyline points="100.0,165.5,108.0,165.5" stroke="black" stroke-width="2" fill="none" />
<polyline points="116.5,170.0,124.5,181.0" stroke="black" stroke-width="2" fill="none" />
<polyline points="122.0,182.5,130.0,182.0" stroke="black" stroke-width="2" fill="none" />
<polyline points="133.5,188.5,141.5,198.0" stroke="black" stroke-width="2" fill="none" />
<polyline points="131.0,189.5,132.5,192.5,137.5,200.0,143.5,212.0,139.0,220.0,137.0,228.0,144.0,235.5,147.0,245.5" stroke="black" stroke-width="2" fill="none" />
<polyline points="140.5,240.0,134.5,231.5,139.5,220.0,145.0,212.0,138.5,202.0,130.0,198.0,122.0,200.5,114.0,194.5,114.5,185.5,106.5,193.0,98.5,193.5,90.5,184.5" stroke="black" stroke-width="2" fill="none" />
<polyline points="90.5,182.5,98.0,175.0,106.0,173.5,115.0,177.5,122.5,182.5" stroke="black" stroke-width="2" fill="none" />
<polyline points="116.5,184.5,106.5,177.0,98.5,178.5" stroke="black" stroke-width="2" fill="none" />
<polyline points="98.5,164.0,90.5,164.5" stroke="black" stroke-width="2" fill="none" />
<polyline points="84.0,161.0,87.0,163.0,77.0,169.5,80.0,177.5,79.5,180.5,80.5,184.5,91.5,192.0,96.5,194.0" stroke="black" stroke-width="2" fill="none" />
<polyline points="99.5,202.5,92.0,203.0" stroke="black" stroke-width="2" fill="none" />
<polyline points="100.0,210.0,108.0,210.0,110.0,214.0,114.0,222.0,113.0,230.0" stroke="black" stroke-width="2" fill="none" />
<polyline points="120.0,236.0,122.0,223.0,115.5,215.0,114.5,212.0,119.0,198.0,122.5,190.0,124.5,184.0,129.5,176.0,138.5,168.0,137.0,154.0,137.0,145.5,144.5,137.5,138.5,136.0,136.5,139.0,144.0,128.0,136.0,127.0,128.0,131.5,120.0,127.5" stroke="black" stroke-width="2" fill="none" />
<polyline points="122.5,126.5,114.5,128.0" stroke="black" stroke-width="2" fill="none" />
<polyline points="116.5,123.0,124.5,118.5,133.5,120.5" stroke="black" stroke-width="2" fill="none" />
<polyline points="141.5,124.5,150.0,124.0" stroke="black" stroke-width="2" fill="none" />
<polyline points="156.5,124.0,164.5,124.0" stroke="black" stroke-width="2" fill="none" />
<polyline points="164.0,126.0,172.0,130.0,180.0,128.5,188.0,125.5,196.0,123.0" stroke="black" stroke-width="2" fill="none" />
<polyline points="184.0,107.5,192.0,115.0,200.0,115.0,208.5,107.5" stroke="black" stroke-width="2" fill="none" />
<polyline points="210.0,118.0,197.0,117.0,187.0,112.0,179.0,107.5,170.0,104.5,162.0,99.0,150.5,92.0,140.5,87.0,132.5,90.0,130.5,89.0,122.0,86.5,119.0,88.0,111.0,86.5,103.0,88.5,95.0,85.0,86.5,88.0,82.5,87.0,74.5,85.0" stroke="black" stroke-width="2" fill="none" />
<polyline points="76.5,85.5,68.5,86.0" stroke="black" stroke-width="2" fill="none" />
<polyline points="71.5,92.0,75.5,99.5,75.5,110.0,68.5,117.5,71.0,127.5,78.5,128.5,86.5,125.0" stroke="black" stroke-width="2" fill="none" />
<polyline points="77.5,126.0,69.0,127.0" stroke="black" stroke-width="2" fill="none" />
<polyline points="53.5,124.5,45.5,125.5" stroke="black" stroke-width="2" fill="none" />
<polyline points="40.5,141.0,48.0,133.5,40.5,141.0,40.5,144.0,48.5,135.0,48.0,140.0,42.5,147.5,49.5,155.0,52.5,162.5,50.5,170.5,44.5,178.5,35.5,189.5,38.5,199.0,38.5,208.5,36.0,216.5,36.0,224.5,25.0,231.0,21.5,239.0,25.0,239.0,29.5,239.0,30.5,228.5,43.5,229.0,46.0,235.0,59.0,240.5,66.5,233.5,74.5,227.5" stroke="black" stroke-width="2" fill="none" />
<polyline points="85.5,229.5,93.5,235.5,96.0,236.5,94.5,244.5" stroke="black" stroke-width="2" fill="none" />
<polyline points="97.5,236.5,92.5,228.5,94.5,218.5,96.0,216.5,88.0,224.5" stroke="black" stroke-width="2" fill="none" />
<polyline points="87.0,226.5,95.0,234.5" stroke="black" stroke-width="2" fill="none" />
<polyline points="90.5,226.5,98.5,236.5,106.0,237.5,114.0,227.5,115.5,236.0" stroke="black" stroke-width="2" fill="none" />
<polyline points="110.5,244.0,103.0,240.5,93.0,243.5,85.0,239.0,77.0,242.5,69.5,246.0,64.5,245.0,66.5,237.0,72.5,229.0,75.0,219.5,69.5,211.5,70.5,200.0,76.5,192.0,78.5,184.5,72.5,177.0,73.0,169.5,70.0,169.5,80.0,161.5,80.0,156.5,74.0,144.0,68.0,135.5,70.0,132.5,70.5,119.0,76.0,111.0,67.5,101.0,59.5,94.0,51.0,94.0,43.0,105.0" stroke="black" stroke-width="2" fill="none" />
<polyline points="44.0,107.0,51.5,115.0,52.5,127.0,50.0,133.5,45.5,148.0,52.5,156.0,54.5,161.0,63.0,168.5,71.0,168.5,72.5,166.5,80.5,169.0,82.5,170.5,90.0,163.0,100.5,156.5,108.0,157.5,118.5,160.5,127.5,159.5,136.0,161.5,149.5,156.5,157.5,156.5,165.5,147.5,177.5,144.0,186.0,139.0,197.5,134.0,205.5,138.0,213.5,143.0,225.5,145.0,233.0,137.0,241.0,130.0,248.5,129.0,254.5,138.0" stroke="black" stroke-width="2" fill="none" />
<polyline points="252.0,154.5,255.0,141.5,247.5,132.5,233.5,130.0,225.5,142.5,229.0,134.5,227.0,123.5,215.0,120.5,207.5,123.5,199.5,126.5,191.0,126.5,182.0,121.5,174.0,120.5,170.5,118.0,162.5,123.0,161.5,127.0,154.0,126.0,146.0,125.5,133.0,137.5,133.0,137.5,139.0,129.5,138.5,120.5,132.5,112.5,129.5,104.5,128.0,96.0,134.0,88.0,130.0,82.5,125.0,75.5,133.5,66.0,142.5,58.0,135.5,62.0,127.5,67.0,120.5,68.0,118.5,71.5,110.0,82.5,102.5,80.5,92.5,81.0,85.0,77.5,78.0,81.0,70.0,84.0,59.0,89.0,45.5,96.5,37.5,105.5,26.0,102.5,18.0,89.5,9.5,90.0,3.5,98.5,14.0,92.5,22.0,84.5,26.5,76.5,33.0,68.5,26.0,55.5,26.5,47.5,19.5,37.5,27.0,30.0,19.0,21.0,19.5,13.5,22.5,4.0,14.0,5.0,6.0,8.0" stroke="black" stroke-width="2" fill="none" />
<polyline points="8.5,8.5,16.5,9.5,24.5,7.0,32.5,8.5,40.0,8.0,37.0,16.0,36.0,24.0,36.0,36.5,42.0,36.5,48.5,44.5,50.5,53.0,49.5,58.5,45.0,60.0,40.0,72.0,45.5,80.0,51.5,79.5,53.5,84.5,45.5,92.5,39.5,100.5,38.0,108.5,42.0,116.0,53.0,120.0,37.0,131.5,36.0,139.5,34.0,153.5,27.0,161.5,34.0,173.0,34.0,181.5,25.0,189.0,18.5,197.0,22.5,191.0" stroke="black" stroke-width="2" fill="none" />
<polyline points="22.5,199.0,30.0,187.0,38.5,177.5,45.0,175.0,43.5,188.0,50.5,196.0,50.0,210.0,45.5,218.0,47.5,220.0,51.0,230.5,59.0,237.0,67.0,229.0,79.0,231.0,76.0,239.0" stroke="black" stroke-width="2" fill="none" />
<polyline points="83.0,240.5,98.0,248.5" stroke="black" stroke-width="2" fill="none" />
<polyline points="109.5,249.5,124.5,242.0" stroke="black" stroke-width="2" fill="none" />
<polyline points="135.5,220.0,122.5,223.0,115.0,211.0" stroke="black" stroke-width="2" fill="none" />
<polyline points="116.5,212.0,123.0,220.0,131.0,232.0,137.0,240.5" stroke="black" stroke-width="2" fill="none" />
<polyline points="162.5,241.0,169.0,233.0,158.0,218.5,149.5,211.5,136.5,213.5,122.5,218.0,119.0,201.5,126.0,193.5,116.5,199.0,103.5,196.5,95.5,197.5,89.5,200.5,81.5,199.5,73.0,204.0,70.5,203.0,71.0,193.0,75.5,186.5,67.5,191.0,57.0,196.0,47.0,195.5,42.0,187.5,45.0,174.0,42.5,161.5,36.5,158.0,28.5,164.5" stroke="black" stroke-width="2" fill="none" />
<polyline points="28.0,165.0,36.0,168.0,38.0,160.0,46.5,165.5,55.5,168.5" stroke="black" stroke-width="2" fill="none" />
<polyline points="54.0,174.5,62.5,174.5,71.5,175.5" stroke="black" stroke-width="2" fill="none" />
<polyline points="77.5,165.5,69.0,165.5,60.5,165.5,52.5,166.0,45.0,166.5" stroke="black" stroke-width="2" fill="none" />
<polyline points="40.0,183.5,48.5,173.0,48.0,182.0,48.0,190.0" stroke="black" stroke-width="2" fill="none" />
<polyline points="46.0,186.0,54.0,194.5,61.5,194.5,69.5,187.0,74.0,182.5" stroke="black" stroke-width="2" fill="none" />
<polyline points="84.0,189.5,90.0,197.5" stroke="black" stroke-width="2" fill="none" />
<polyline points="79.0,201.0,77.0,208.5,78.0,215.5,78.5,223.5,76.0,232.0,71.5,240.0,74.5,241.0,87.0,242.5,95.0,246.5" stroke="black" stroke-width="2" fill="none" />
<polyline points="91.0,239.0,85.5,231.0" stroke="black" stroke-width="2" fill="none" />
<polyline points="82.0,211.5,90.0,206.5,104.5,205.5,112.5,202.5,120.5,200.5,131.5,202.0" stroke="black" stroke-width="2" fill="none" />
<polyline points="137.0,184.5,145.0,176.5,153.0,174.5,162.0,183.5" stroke="black" stroke-width="2" fill="none" />
<polyline points="168.0,187.5,159.5,192.5,161.5,190.5,166.5,183.0,166.0,179.0,162.5,171.0,153.5,164.0,140.5,161.0,140.5,152.5,138.5,149.5" stroke="black" stroke-width="2" fill="none" />
<polyline points="136.5,145.0,144.5,134.0,152.5,131.0,162.5,139.5" stroke="black" stroke-width="2" fill="none" />
<polyline points="158.0,137.0,166.0,145.5" stroke="black" stroke-width="2" fill="none" />
<polyline points="171.5,141.0,163.5,134.0" stroke="black" stroke-width="2" fill="none" />
<polyline points="171.0,102.0,163.0,94.0" stroke="black" stroke-width="2" fill="none" />
<polyline points="160.0,94.0,164.0,102.0,165.0,113.5,158.0,120.5,166.0,111.5" stroke="black" stroke-width="2" fill="none" />
<polyline points="156.5,109.5,149.0,113.5,141.0,107.5,133.0,104.5" stroke="black" stroke-width="2" fill="none" />
<polyline points="134.0,107.5,138.0,116.0,150.0,117.0" stroke="black" stroke-width="2" fill="none" />
<polyline points="142.0,113.0,134.0,108.0" stroke="black" stroke-width="2" fill="none" />
<polyline points="136.5,109.0,142.5,117.0" stroke="black" stroke-width="2" fill="none" />
<polyline points="137.5,104.5,145.5,94.0,153.5,94.0,164.0,90.0,168.0,97.5,171.5,105.5,166.5,113.5,166.0,127.5,167.0,135.5" stroke="black" stroke-width="2" fill="none" />
<polyline points="157.5,151.0,149.5,154.0,142.0,149.0,134.0,147.5,125.5,148.5,118.5,148.5,116.5,155.5,109.5,155.0,116.5,147.0,111.0,139.0,111.0,131.0,117.0,119.5,121.0,111.0,123.0,105.0,125.0,94.5,125.0,88.5,125.0,80.0,128.0,75.0,125.5,66.0,128.5,58.0,133.0,50.0,146.0,42.0,136.5,38.5,131.5,31.0,129.0,19.0,133.5,10.5,128.5,10.5,120.5,8.0" stroke="black" stroke-width="2" fill="none" />
<polyline points="117.5,8.5,126.5,17.0,125.5,25.0,128.5,36.0,130.0,44.0,136.0,55.5,131.5,63.5,135.5,74.0,144.5,82.0,142.5,91.0,137.5,98.5,127.5,110.5,132.0,120.0,129.5,131.0,128.5,140.5,128.5,149.5,125.5,149.0,125.5,157.0,115.0,169.5,119.0,177.0,129.5,184.5,129.0,193.0,127.0,199.0,118.0,206.0,126.5,214.0,126.0,228.5,126.0,236.5,112.0,243.0,120.5,244.0,129.5,241.5,137.5,246.0,147.5,241.0,155.5,241.0,163.5,230.5,171.5,229.5,182.5,238.5" stroke="black" stroke-width="2" fill="none" />
<polyline points="183.5,177.5,175.5,185.5,161.0,177.0,150.0,169.0,139.0,165.5,131.0,161.5,128.5,167.0,120.5,165.0" stroke="black" stroke-width="2" fill="none" />
<polyline points="120.5,169.0,126.5,177.0" stroke="black" stroke-width="2" fill="none" />
<polyline points="144.5,177.0,138.5,185.0,136.5,192.5,141.0,200.5,129.5,211.5" stroke="black" stroke-width="2" fill="none" />
<polyline points="112.5,215.5,117.5,223.5,113.0,235.0,109.0,243.0" stroke="black" stroke-width="2" fill="none" />
<polyline points="75.5,205.5,67.0,206.0" stroke="black" stroke-width="2" fill="none" />
<polyline points="65.5,213.0,73.5,223.0" stroke="black" stroke-width="2" fill="none" />
<polyline points="73.0,224.5,65.0,214.5,57.0,211.5,49.0,217.5,46.5,214.0,40.5,217.0,46.5,209.0,52.5,206.0,53.0,197.0,41.0,193.5,35.5,181.5,35.5,174.0,45.5,166.0,42.0,155.0,39.0,147.0,45.0,133.0,44.0,122.5,36.0,114.5,43.0,103.0,49.0,95.0,48.5,98.0,40.5,105.0" stroke="black" stroke-width="2" fill="none" />
<polyline points="40.0,107.5,45.0,115.5" stroke="black" stroke-width="2" fill="none" />
<polyline points="44.5,107.0,53.0,113.5,61.0,114.0,69.0,107.0" stroke="black" stroke-width="2" fill="none" />
<polyline points="84.0,106.0,92.0,99.0,93.0,91.0,88.0,99.0,94.0,107.0,98.5,117.5,106.5,117.5,117.5,117.5" stroke="black" stroke-width="2" fill="none" />
<polyline points="119.5,123.5,127.5,117.5" stroke="black" stroke-width="2" fill="none" />
<polyline points="124.0,102.0,132.0,101.0" stroke="black" stroke-width="2" fill="none" />
<polyline points="122.0,98.0,113.5,89.5" stroke="black" stroke-width="2" fill="none" />
<polyline points="111.0,93.5,119.5,103.0" stroke="black" stroke-width="2" fill="none" />
<polyline points="123.5,83.5,116.0,84.0,107.5,84.5" stroke="black" stroke-width="2" fill="none" />
<polyline points="100.0,87.5,92.0,88.0" stroke="black" stroke-width="2" fill="none" />
<polyline points="97.5,90.0,105.5,91.0,116.5,97.0,115.5,99.5,118.0,107.5,116.5,115.5,116.5,125.0,124.5,126.5,132.5,125.0" stroke="black" stroke-width="2" fill="none" />
<polyline points="111.0,134.5,117.0,142.5,111.5,155.5,106.5,168.0,110.5,178.5,116.5,186.5,108.5,194.5,118.0,188.5" stroke="black" stroke-width="2" fill="none" />
<polyline points="137.0,159.0,132.0,151.0" stroke="black" stroke-width="2" fill="none" />
<polyline points="167.5,142.5,159.0,132.0,151.0,134.0,139.5,138.0,131.5,144.0,117.5,140.0,107.5,130.5,100.0,128.5,89.0,144.0,76.5,154.5,69.5,159.5,67.0,156.0,75.5,148.0,76.0,142.5,78.5,138.5,75.5,130.0,75.0,121.5,78.0,114.0,72.5,109.0,62.5,111.0,69.5,103.0,63.5,95.0,61.0,85.0,53.0,83.5,45.5,85.5,37.0,90.0,32.5,94.0,28.5,86.0,30.5,78.5,23.0,83.5" stroke="black" stroke-width="2" fill="none" />
<polyline points="26.5,84.0,36.0,81.0,34.5,89.5,35.5,88.5,36.5,78.5,45.0,82.5,56.0,88.5,68.5,96.5" stroke="black" stroke-width="2" fill="none" />
<polyline points="60.0,84.0,52.0,84.5,44.5,85.0" stroke="black" stroke-width="2" fill="none" />
<polyline points="47.5,78.5,40.0,73.5" stroke="black" stroke-width="2" fill="none" />
<polyline points="36.5,69.0,44.5,68.5" stroke="black" stroke-width="2" fill="none" />
<polyline points="44.5,67.0,52.5,75.0,60.5,76.0,68.5,68.0" stroke="black" stroke-width="2" fill="none" />
<polyline points="75.5,71.0,84.0,70.0" stroke="black" stroke-width="2" fill="none" />
<polyline points="89.0,69.0,97.0,78.0,105.5,79.0,114.0,70.5" stroke="black" stroke-width="2" fill="none" />
<polyline points="124.5,68.5,132.0,68.0" stroke="black" stroke-width="2" fill="none" />
<polyline points="131.5,71.0,139.5,78.0" stroke="black" stroke-width="2" fill="none" />
<polyline points="139.0,84.5,147.5,84.0" stroke="black" stroke-width="2" fill="none" />
<polyline points="141.5,84.0,133.5,82.0,126.0,82.0,123.0,80.5,115.0,83.0,104.0,85.5,91.5,74.0,87.5,61.0,93.5,53.0,83.5,49.5,75.5,47.5" stroke="black" stroke-width="2" fill="none" />
<polyline points="75.0,44.5,67.0,45.0" stroke="black" stroke-width="2" fill="none" />
<polyline points="74.5,50.5,79.5,58.5,80.0,72.5,75.0,80.5,71.0,82.5,79.0,77.5" stroke="black" stroke-width="2" fill="none" />
<polyline points="82.5,82.0,96.0,87.0,94.5,94.5,92.5,106.5,100.5,114.5,108.5,114.5,116.5,106.0" stroke="black" stroke-width="2" fill="none" />
<polyline points="117.5,103.5,109.5,93.0,102.0,92.5,94.0,99.0,86.0,107.0" stroke="black" stroke-width="2" fill="none" />
<polyline points="87.5,108.5,88.5,110.5" stroke="black" stroke-width="2" fill="none" />
<polyline points="91.0,108.5,97.5,116.5,97.0,127.0,95.0,135.5,86.5,143.5,98.5,154.5,96.0,158.5,97.5,161.5,91.5,173.0,85.5,181.0,88.0,191.0,92.0,199.0,92.0,208.5,90.5,216.5,87.0,216.0" stroke="black" stroke-width="2" fill="none" />
<polyline points="74.5,216.0,73.0,208.0,80.0,195.0,74.0,183.5,63.0,173.5,55.0,176.0,47.0,183.5,38.5,184.5" stroke="black" stroke-width="2" fill="none" />
<polyline points="40.0,186.5,47.5,192.0" stroke="black" stroke-width="2" fill="none" />
<polyline points="52.0,206.5,44.0,207.0" stroke="black" stroke-width="2" fill="none" />
<polyline points="36.5,210.5,44.5,206.5,48.0,212.0,41.0,220.5,47.0,229.0,53.5,237.0,54.5,244.5" stroke="black" stroke-width="2" fill="none" />
<polyline points="49.5,236.0,39.5,232.0" stroke="black" stroke-width="2" fill="none" />
<polyline points="37.5,242.5,45.5,246.5,53.0,246.5,61.0,248.0" stroke="black" stroke-width="2" fill="none" />
<polyline points="42.0,241.0,36.0,233.0,29.0,223.0,21.0,213.5" stroke="black" stroke-width="2" fill="none" />
<polyline points="20.5,214.0,25.5,222.0,33.5,234.0,26.5,242.5" stroke="black" stroke-width="2" fill="none" />
<polyline points="16.5,242.0,8.5,242.0" stroke="black" stroke-width="2" fill="none" />
<polyline points="7.5,243.0,5.0,239.0,4.0,231.0" stroke="black" stroke-width="2" fill="none" />
<polyline points="2.5,230.5,10.5,239.0,19.0,235.0,30.5,231.0,26.5,239.0" stroke="black" stroke-width="2" fill="none" />
<polyline points="25.5,216.0,15.5,205.0,15.5,202.0,7.5,204.5" stroke="black" stroke-width="2" fill="none" />
<polyline points="8.5,213.5,16.5,213.5,24.5,206.0,32.5,207.0,40.5,206.0" stroke="black" stroke-width="2" fill="none" />
<polyline points="35.5,198.0,27.5,205.0" stroke="black" stroke-width="2" fill="none" />
<polyline points="27.5,204.5,19.5,204.5" stroke="black" stroke-width="2" fill="none" />
<polyline points="22.0,211.0,26.0,219.0" stroke="black" stroke-width="2" fill="none" />
<polyline points="28.5,219.0,24.5,211.5" stroke="black" stroke-width="2" fill="none" />
<polyline points="11.0,197.5,3.0,193.5" stroke="black" stroke-width="2" fill="none" />
<polyline points="3.5,190.5,5.5,198.5,5.5,206.5,3.0,214.5,3.0,220.0,8.0,211.0,15.5,211.5,24.5,224.0" stroke="black" stroke-width="2" fill="none" />
<polyline points="22.5,198.0,27.5,190.0,23.0,176.5,19.5,175.5,12.0,176.5,3.5,178.5" stroke="black" stroke-width="2" fill="none" />
<polyline points="8.5,169.5,16.0,170.5,24.0,177.0" stroke="black" stroke-width="2" fill="none" />
<polyline points="26.0,173.5,31.0,181.5,27.0,196.0,23.0,204.0,31.5,200.0,40.5,200.5,48.0,204.0,60.0,206.0,74.0,217.0" stroke="black" stroke-width="2" fill="none" />
<polyline points="62.0,215.5,69.0,223.0,71.5,235.5" stroke="black" stroke-width="2" fill="none" />
<polyline points="49.5,243.5,41.0,235.5,46.5,231.5,47.5,221.0,53.5,212.5" stroke="black" stroke-width="2" fill="none" />
<polyline points="26.0,166.0,17.5,166.5" stroke="black" stroke-width="2" fill="none" />
<polyline points="12.0,166.5,3.5,166.5" stroke="black" stroke-width="2" fill="none" />
<polyline points="4.0,165.5,11.5,165.5,23.5,168.5" stroke="black" stroke-width="2" fill="none" />
<polyline points="43.0,169.5,34.0,174.5,26.5,168.5,19.0,165.0,11.0,165.0,16.0,157.5,25.0,146.5,20.0,138.0,17.0,126.0,9.5,126.0" stroke="black" stroke-width="2" fill="none" />
<polyline points="7.5,125.5,15.5,123.0" stroke="black" stroke-width="2" fill="none" />
<polyline points="17.5,127.0,25.5,126.0" stroke="black" stroke-width="2" fill="none" />
<polyline points="26.5,127.5,34.0,135.0,36.0,147.0,42.5,150.0,47.5,158.0,58.5,155.5,69.5,161.5,77.5,157.0,79.0,159.0,86.5,159.5" stroke="black" stroke-width="2" fill="none" />
<polyline points="84.5,150.5,90.5,158.5,90.5,172.5,84.0,179.5" stroke="black" stroke-width="2" fill="none" />
<polyline points="69.0,148.0,61.5,155.0,53.5,156.0,45.5,147.5" stroke="black" stroke-width="2" fill="none" />
<polyline points="43.5,144.0,52.0,134.0,60.0,133.0,68.0,140.5,74.0,154.0,71.5,158.0" stroke="black" stroke-width="2" fill="none" />
<polyline points="45.0,156.5,42.5,148.5,29.5,142.5,21.5,132.5" stroke="black" stroke-width="2" fill="none" />
<polyline points="22.0,128.5,30.0,140.5" stroke="black" stroke-width="2" fill="none" />
<polyline points="25.5,143.5,17.5,133.5,9.5,134.5" stroke="black" stroke-width="2" fill="none" />
<polyline points="25.5,130.0,37.5,139.5,45.5,131.0,58.0,130.0,69.5,136.5,77.5,139.0" stroke="black" stroke-width="2" fill="none" />
<polyline points="98.5,132.5,94.5,140.5,89.5,148.5,92.5,156.5,96.0,169.0,93.0,177.5,90.0,186.0,97.0,193.0,97.0,202.0,90.0,212.5,85.0,221.0" stroke="black" stroke-width="2" fill="none" />
<polyline points="19.5,191.5,11.5,195.0,3.5,190.0" stroke="black" stroke-width="2" fill="none" />
<polyline points="2.0,165.5,10.0,161.5,24.0,162.5,32.0,157.5,41.5,160.0,49.5,163.0,60.5,167.5" stroke="black" stroke-width="2" fill="none" />
<polyline points="21.0,157.0,19.0,159.0,9.5,155.0,1.0,152.0" stroke="black" stroke-width="2" fill="none" />
<polyline points="2.0,150.0,9.5,153.5,17.5,151.5,26.5,151.0,21.5,159.0,25.5,148.0,31.5,149.0,39.0,146.5,46.5,151.5,56.5,163.0" stroke="black" stroke-width="2" fill="none" />
<polyline points="23.5,120.0,9.0,116.5,1.0,113.5" stroke="black" stroke-width="2" fill="none" />
<polyline points="2.0,111.0,9.5,115.0,17.5,113.0" stroke="black" stroke-width="2" fill="none" />
<polyline points="29.5,103.0,22.0,91.0" stroke="black" stroke-width="2" fill="none" />
<polyline points="24.0,90.5,32.0,101.5,45.0,90.0" stroke="black" stroke-width="2" fill="none" />
<polyline points="52.0,93.5,47.0,101.5,49.0,109.5" stroke="black" stroke-width="2" fill="none" />
<polyline points="25.5,87.5,17.5,88.0" stroke="black" stroke-width="2" fill="none" />
<polyline points="14.0,86.0,6.0,87.0" stroke="black" stroke-width="2" fill="none" />
<polyline points="6.5,88.0,14.5,86.0,19.0,97.0,26.0,105.0,18.0,112.5" stroke="black" stroke-width="2" fill="none" />
<polyline points="2.0,109.5,4.0,117.5,2.0,125.5,2.0,133.5,2.5,138.5,8.0,130.0,16.5,129.5,26.5,127.5,34.5,129.0,36.5,131.0,44.5,126.5,52.5,126.0,60.5,125.5,68.0,120.5" stroke="black" stroke-width="2" fill="none" />
<polyline points="95.0,118.5,86.5,120.0,78.5,120.0,76.5,119.0,68.5,123.0,54.5,123.0,47.5,123.0,40.0,120.0,32.0,122.5,30.0,120.5,22.0,123.5,25.0,114.5,25.5,102.5,20.5,94.5" stroke="black" stroke-width="2" fill="none" />
<polyline points="22.0,87.5,30.0,90.5" stroke="black" stroke-width="2" fill="none" />
<polyline points="24.5,73.0,14.5,81.0,6.0,79.5,2.0,86.5" stroke="black" stroke-width="2" fill="none" />
<polyline points="2.0,73.0,10.5,79.5,18.5,75.0" stroke="black" stroke-width="2" fill="none" />
<polyline points="25.0,64.5,17.0,56.5,9.5,56.5" stroke="black" stroke-width="2" fill="none" />
<polyline points="9.5,48.0,17.0,48.0,29.0,61.5" stroke="black" stroke-width="2" fill="none" />
<polyline points="24.5,57.0,17.0,52.0,23.0,39.0,26.0,26.0,26.0,23.0,21.0,21.5,13.0,17.5,5.0,18.5,5.5,18.5,3.5,17.5,3.5,9.5,8.5,3.0,4.5,8.5,2.5,10.5" stroke="black" stroke-width="2" fill="none" />
<polyline points="9.0,14.5,9.0,12.5,17.0,13.0,27.0,18.0,38.5,26.0,46.0,17.5,53.5,8.5,61.5,9.0,71.5,3.5,71.5,7.5,79.0,9.5,87.0,7.5,89.0,9.5,96.5,11.0,101.0,10.5,108.5,8.5,116.0,9.5,124.0,13.0,132.5,10.0,140.5,7.5,148.5,2.5" stroke="black" stroke-width="2" fill="none" />
<polyline points="147.0,4.5,138.5,5.0" stroke="black" stroke-width="2" fill="none" />
<polyline points="137.5,11.0,132.0,19.0,137.0,32.0,139.0,40.0,140.0,53.0,141.5,57.0,140.5,70.5,145.5,78.0,152.5,80.0,163.5,87.0,165.0,82.5,172.5,78.5,179.5,67.5,187.5,61.5,195.5,53.5,207.5,48.5,213.5,35.5" stroke="black" stroke-width="2" fill="none" />
<polyline points="211.0,45.5,202.5,46.0" stroke="black" stroke-width="2" fill="none" />
<polyline points="213.0,72.0,207.5,70.5,199.5,79.5,192.0,77.0,184.0,68.5" stroke="black" stroke-width="2" fill="none" />
<polyline points="177.5,70.0,183.5,78.0" stroke="black" stroke-width="2" fill="none" />
<polyline points="181.5,81.0,173.5,79.0" stroke="black" stroke-width="2" fill="none" />
<polyline points="160.5,69.5,152.5,78.0,144.5,77.0,136.5,68.0" stroke="black" stroke-width="2" fill="none" />
<polyline points="125.5,62.5,117.5,51.5" stroke="black" stroke-width="2" fill="none" />
<polyline points="115.0,54.5,103.0,45.0,95.0,48.0,87.0,51.5,75.5,58.5,75.5,51.5,67.5,48.5,56.5,46.5,52.5,37.0,39.0,25.0,44.0,17.0,48.5,18.5,40.5,27.0" stroke="black" stroke-width="2" fill="none" />
<polyline points="43.0,29.5,51.0,38.5,59.0,40.5,66.5,35.0,78.0,32.5,76.5,40.5,72.0,46.5,72.0,54.0,82.5,62.0,90.5,51.5,84.5,59.5,91.5,63.5,99.0,55.5,107.0,56.5,115.5,64.0" stroke="black" stroke-width="2" fill="none" />
<polyline points="114.0,59.0,122.0,67.0,111.5,79.0,111.5,88.0,117.5,92.5,123.5,100.5,126.5,113.0,126.5,120.0,117.5,130.5,122.0,138.5" stroke="black" stroke-width="2" fill="none" />
<polyline points="149.0,168.0,135.0,168.5,127.5,172.5,118.5,168.5,110.0,168.0,101.0,170.0,90.5,178.5,86.5,180.0,84.5,191.5,72.5,194.5,69.0,196.0,60.0,204.0,52.0,203.5,46.5,198.0,39.0,190.0,28.0,184.0,20.0,172.0,11.5,176.0,4.0,172.5,4.0,174.5,5.0,170.0,6.0,158.0,3.5,150.0" stroke="black" stroke-width="2" fill="none" />
<polyline points="4.5,72.0,6.5,80.0,8.5,80.5,6.0,87.5,4.0,95.5,15.0,92.5,15.5,90.5,27.5,101.5,40.0,107.5,48.0,111.0,57.0,116.5,68.0,112.0,76.0,108.0" stroke="black" stroke-width="2" fill="none" />
<polyline points="99.5,93.5,94.5,102.0,88.0,110.0,93.0,117.5,85.5,130.5,83.5,138.0,83.5,146.5,73.5,154.5,67.5,154.5,75.5,149.0,78.5,146.0,90.5,135.0" stroke="black" stroke-width="2" fill="none" />
<polyline points="97.5,77.5,92.5,69.5" stroke="black" stroke-width="2" fill="none" />
<polyline points="99.5,57.0,91.5,64.5,86.5,75.0,90.5,75.5,94.5,77.0,97.5,82.5,90.0,89.5,85.0,97.5,87.0,111.5,87.0,124.5,79.5,130.5,89.0,126.0,97.0,125.0,104.5,122.0,115.5,114.0,118.5,105.5,131.5,107.5,139.5,121.0,150.0,122.0,157.5,111.5,165.5,105.5,175.5,103.0" stroke="black" stroke-width="2" fill="none" />
<polyline points="163.0,104.5,153.5,88.5,145.5,89.0,134.5,99.5,132.0,104.0,136.0,96.5,142.0,80.0,136.0,71.5,134.0,69.0,121.5,65.0,113.5,58.0,105.5,53.0,94.5,55.0,86.5,64.0,74.0,63.0,66.0,52.5,54.5,47.5,43.0,56.5,34.0,62.0,33.0,53.5,26.5,44.0,34.0,36.0,30.0,23.0,22.0,12.0" stroke="black" stroke-width="2" fill="none" />
<polyline points="22.0,10.5,30.5,21.0" stroke="black" stroke-width="2" fill="none" />
<polyline points="36.0,27.5,44.5,27.5" stroke="black" stroke-width="2" fill="none" />
<polyline points="44.5,28.0,52.5,35.0,60.0,39.0,68.0,30.0" stroke="black" stroke-width="2" fill="none" />
<polyline points="73.5,28.0,81.5,27.5" stroke="black" stroke-width="2" fill="none" />
<polyline points="90.0,28.0,98.0,37.0,106.0,38.5,114.0,30.5" stroke="black" stroke-width="2" fill="none" />
<polyline points="123.5,27.5,131.0,27.0" stroke="black" stroke-width="2" fill="none" />
<polyline points="136.0,25.0,144.0,17.5,152.0,17.5,159.5,21.0,172.5,31.0,173.0,39.0" stroke="black" stroke-width="2" fill="none" />
<polyline points="167.0,30.5,161.5,39.0" stroke="black" stroke-width="2" fill="none" />
<polyline points="162.5,44.0,155.0,44.5" stroke="black" stroke-width="2" fill="none" />
<polyline points="158.0,38.5,162.5,30.5,159.5,17.5" stroke="black" stroke-width="2" fill="none" />
<polyline points="156.5,12.0,157.0,20.0,161.0,28.5,154.0,37.0,162.5,45.5,170.5,40.0,173.0,42.0,181.5,43.0" stroke="black" stroke-width="2" fill="none" />
<polyline points="171.5,21.0,163.5,10.0" stroke="black" stroke-width="2" fill="none" />
<polyline points="159.0,6.5,161.0,9.5,164.5,18.0,178.5,23.5,192.5,12.5,200.5,9.5,212.5,3.5,217.5,12.5,220.0,11.5,222.0,13.5,230.0,9.5,239.0,3.5,247.0,3.0,255.5,6.0" stroke="black" stroke-width="2" fill="none" />
<polyline points="233.5,4.0,226.0,4.5" stroke="black" stroke-width="2" fill="none" />
<polyline points="231.5,7.0,232.5,15.0,225.0,23.0,229.5,30.5,231.5,39.0,238.5,41.5,232.0,52.5,227.0,60.5,228.0,67.5,227.5,75.5,238.5,84.0,225.5,89.5,221.5,98.0,223.5,105.5,213.5,112.0,208.5,119.5,217.0,126.5,225.0,125.5,227.0,119.5,239.0,125.5,247.5,124.5,253.0,124.0,256.0,119.0" stroke="black" stroke-width="2" fill="none" />
<polyline points="256.0,145.5,248.0,154.5,240.0,154.5,232.0,147.5,224.0,147.5,210.5,150.0,202.0,157.0,194.0,158.0,183.0,161.5,172.0,158.0,163.5,163.0,159.5,155.0,168.5,142.0,162.5,134.5,155.5,128.5,156.5,114.0,164.0,106.0,158.0,97.5,158.0,90.0" stroke="black" stroke-width="2" fill="none" />
<polyline points="144.0,93.5,139.0,101.5,143.5,112.5,144.5,120.0,143.0,128.0,140.0,136.0,139.5,148.0,144.5,158.5,143.0,164.0,136.5,171.0,132.5,179.5,132.5,175.0,143.0,164.5,151.5,161.5,162.5,167.5,171.0,162.5,179.5,163.5,187.5,166.0,197.0,174.0,210.5,169.0,218.5,180.0" stroke="black" stroke-width="2" fill="none" />
<polyline points="226.0,203.0,214.5,202.0,210.5,206.0,199.5,212.0,191.0,214.5,183.0,225.5,174.5,229.0,164.5,222.0,156.5,210.0,148.0,205.0,137.0,220.0,129.5,224.0,117.5,221.0,110.5,210.0,102.5,213.5,94.0,215.5,86.0,224.5,74.0,232.0,65.5,243.0,62.5,238.5,66.5,230.0,71.5,222.0,66.5,214.0,66.0,206.0,65.5,201.0,62.5,198.5,67.5,191.5,70.5,186.5,65.0,178.5,66.5,171.0,66.5,166.0,65.5,159.5,69.0,147.5,68.0,139.5,67.0,131.5,64.0,128.0,66.0,117.0,64.0,117.5,71.5,109.5,82.5,103.5,82.0,95.5,84.0,87.5,78.0,82.5,82.5,73.5,88.5,66.5,94.0,58.5,96.0,50.5,85.5,45.5,82.0,37.0,82.0,28.5,82.0,18.5,86.5,10.0,88.5,19.0" stroke="black" stroke-width="2" fill="none" />
<polyline points="98.5,17.5,92.0,25.5,92.0,25.5,100.5,17.0,108.5,17.0,116.5,26.0" stroke="black" stroke-width="2" fill="none" />
<polyline points="117.5,12.5,125.0,23.0,138.0,18.5,150.5,15.5,162.5,20.0,170.5,25.0,183.5,35.0,186.0,45.0,199.0,48.0,207.5,42.5,215.5,32.5" stroke="black" stroke-width="2" fill="none" />
<polyline points="227.5,22.5,226.5,19.5,230.0,11.5" stroke="black" stroke-width="2" fill="none" />
<polyline points="195.5,6.0,187.0,6.5" stroke="black" stroke-width="2" fill="none" />
<polyline points="191.0,5.0,182.0,12.5,176.0,20.5,173.5,20.5,173.5,32.0,175.0,39.5,167.0,47.5,172.5,55.0,172.5,63.5,167.5,73.5,162.5,81.5,158.5,77.0,167.0,69.0,175.0,64.0,183.0,55.0" stroke="black" stroke-width="2" fill="none" />
<polyline points="181.5,9.5,182.5,4.5,174.5,3.5,166.0,6.0,160.0,4.0,150.5,8.5,141.5,3.5,132.5,4.5,124.5,2.5,119.5,3.0,112.5,3.5,104.5,3.5,96.5,8.0,87.0,18.0,75.5,27.0,67.5,19.0,59.5,17.5,51.5,18.0,43.5,27.0,35.5,29.0,28.0,31.0,20.0,39.0,26.5,37.5,33.5,29.5,34.0,18.5,27.0,10.5,22.5,5.5" stroke="black" stroke-width="2" fill="none" />
<polyline points="19.0,5.5,26.5,5.5" stroke="black" stroke-width="2" fill="none" />
<polyline points="27.5,6.0,35.5,3.0,44.0,4.0,52.0,5.0,60.5,3.0,63.5,5.0,62.5,13.0,57.0,12.0,57.0,14.0,68.0,9.0,76.0,22.0,88.0,25.0,96.0,15.5,88.0,17.5,91.5,30.5" stroke="black" stroke-width="2" fill="none" />
<polyline points="91.5,48.5,99.5,47.5" stroke="black" stroke-width="2" fill="none" />
<polyline points="111.0,55.5,113.0,63.5,113.0,71.0,116.5,79.0" stroke="black" stroke-width="2" fill="none" />
<polyline points="70.5,65.0,64.5,57.0,60.0,54.0,52.0,57.0,44.0,65.5" stroke="black" stroke-width="2" fill="none" />
<polyline points="45.0,70.5,48.5,78.5,37.5,91.5,37.5,99.5,34.5,110.5,31.5,118.5,26.5,126.5,24.5,135.0,29.5,147.0,27.5,155.0,28.5,163.0,25.0,174.0,31.0,182.0,35.0,194.5,26.0,202.5,30.5,211.0,34.0,219.0,27.0,229.0,21.0,237.0,18.5,249.0,11.0,252.5,19.0,249.0,27.0,246.0,34.5,241.5,42.5,242.5,51.5,249.0,59.5,251.5,68.0,245.0" stroke="black" stroke-width="2" fill="none" />
<polyline points="254.0,244.0,243.5,248.5,236.0,248.0,231.0,246.0,223.0,242.0,223.0,238.5,215.0,245.0,207.5,248.0,196.5,249.5,188.5,248.5,180.5,241.5,172.5,241.5,164.5,246.5,157.5,247.0,158.5,238.0,165.5,230.0,159.0,231.0,151.0,238.5,142.5,239.5,135.0,229.5,127.0,228.5,119.0,232.0,116.0,231.0,107.5,249.5,99.5,248.0,82.5,239.5,82.5,231.5,82.5,224.0,82.5,216.0,89.5,208.0,82.5,201.5,82.5,194.5,82.0,186.5,82.5,177.0,86.5,168.5,84.5,158.0,82.5,150.0,90.0,137.0,93.0,129.0,98.0,117.5,82.5,115.5,82.5,108.0,73.5,98.0,69.5,90.0,66.5,86.5,66.0,80.0,71.0,72.0,74.5,60.5,70.5,52.5,63.5,49.5,65.5,43.0,74.0,37.0,77.0,29.0,79.0,15.0,88.0,6.5,96.0,2.0,90.0,3.0,82.0,2.0,74.0,5.0" stroke="black" stroke-width="2" fill="none" />
<polyline points="76.5,5.5,69.0,6.0" stroke="black" stroke-width="2" fill="none" />
<polyline points="69.5,12.0,72.5,20.0,73.5,34.0,68.0,41.5,75.0,32.0,86.0,29.0,91.5,36.0" stroke="black" stroke-width="2" fill="none" />
<polyline points="73.5,27.0,65.5,18.0" stroke="black" stroke-width="2" fill="none" />
<polyline points="68.0,18.5,74.0,26.0,63.5,34.0" stroke="black" stroke-width="2" fill="none" />
<polyline points="52.0,44.5,43.5,45.5" stroke="black" stroke-width="2" fill="none" />
<polyline points="43.5,43.0,35.5,42.0,27.5,46.0" stroke="black" stroke-width="2" fill="none" />
<polyline points="26.5,47.0,18.5,47.5" stroke="black" stroke-width="2" fill="none" />
<polyline points="20.5,56.0,28.5,66.5,39.5,66.5,47.5,59.0,59.0,56.0,67.5,62.0" stroke="black" stroke-width="2" fill="none" />
<polyline points="68.5,56.5,76.5,64.5,66.5,72.5" stroke="black" stroke-width="2" fill="none" />
<polyline points="50.0,72.5,49.5,63.5,52.5,50.5,44.5,50.5,36.5,54.0,28.5,50.0" stroke="black" stroke-width="2" fill="none" />
<polyline points="22.0,59.0,29.0,66.5,23.0,74.5,18.0,82.5,26.5,92.5,32.0,100.0,31.0,110.0,26.0,117.5,25.0,109.5" stroke="black" stroke-width="2" fill="none" />
<polyline points="43.0,46.5,41.5,48.5,34.0,50.5,26.0,49.5,15.0,54.5,7.0,57.0,5.0,59.0,4.5,53.0,4.5,45.5,3.5,43.5,5.5,36.0,2.0,36.0" stroke="black" stroke-width="2" fill="none" />
<polyline points="2.0,32.5,10.5,38.5,18.5,36.5,26.5,28.5" stroke="black" stroke-width="2" fill="none" />
<polyline points="24.0,34.5,12.5,39.0,4.5,40.0" stroke="black" stroke-width="2" fill="none" />
<polyline points="7.0,43.5,7.0,52.0,10.0,45.0,22.0,44.0,30.0,40.5,31.0,31.0,45.5,35.0" stroke="black" stroke-width="2" fill="none" />
<polyline points="45.0,31.5,51.5,39.5" stroke="black" stroke-width="2" fill="none" />
<polyline points="41.0,48.0,36.0,39.5" stroke="black" stroke-width="2" fill="none" />
<polyline points="35.5,13.5,44.0,8.5,46.0,1.5,50.5,9.5,46.5,17.0,49.0,21.5,44.0,28.5,47.5,36.5,49.5,49.5,42.0,57.0,37.0,57.0,37.0,67.0,37.0,75.5,34.5,76.0,23.5,76.5,20.0,83.5,23.5,93.5,29.5,101.0,21.5,111.0,16.5,119.0,19.5,121.0,19.5,128.0,22.0,136.5,28.0,145.5,20.0,154.0,20.0,162.0,20.5,172.5,21.5,180.5,22.5,188.5,20.0,199.5,18.0,208.5,22.0,210.5,19.0,218.5,26.0,227.0,18.5,235.0,16.5,247.0,9.5,250.0,18.0,245.5,21.0,234.5,29.0,227.5,38.5,225.5,38.5,221.5,46.0,210.5,58.0,211.5,69.0,206.5,77.5,210.5,79.5,208.0,87.5,204.5,95.0,205.5,103.0,202.5,112.0,205.5,116.0,194.5,123.0,188.5,131.5,182.5,139.0,175.5,141.0,173.0,135.0,181.0,138.5,192.0,142.5,200.0,143.0,206.0,135.0,214.0,127.5,214.0,131.5,227.5,127.5,235.5,132.5,244.5,149.0,253.0,156.0,251.0,163.5,236.0,174.5,226.0,182.5,214.0,193.5,203.5,201.5,204.0,210.0,190.0,211.5,192.0,222.5,182.0,229.0,170.5,224.0,179.0,227.5,180.0,231.5,173.0,227.0,181.0,226.0,189.0,232.0,197.0,233.5,209.0,228.0,217.0,226.5,219.5,233.5,213.5,228.5,221.5,228.0,232.5,241.0,241.0,249.0,241.0,255.0,233.0,251.0,241.0,246.5,249.0" stroke="black" stroke-width="2" fill="none" />
<polyline points="229.5,117.0,225.5,109.0,232.0,96.0,234.0,88.5" stroke="black" stroke-width="2" fill="none" />
<polyline points="257.0,56.0,255.0,48.0,242.5,45.5,235.0,48.5,231.0,59.5,225.0,61.5,213.0,65.0,204.5,59.5,197.0,57.0,185.0,62.0,175.0,60.5,178.5,52.0,186.5,45.0,183.5,37.0,177.5,26.0,188.5,18.0,191.5,10.0" stroke="black" stroke-width="2" fill="none" />
<polyline points="171.0,4.0,163.0,4.0,155.0,4.5" stroke="black" stroke-width="2" fill="none" />
<polyline points="145.5,4.5,142.5,12.5,139.0,20.5,128.0,28.0,119.5,35.5,116.0,43.5,117.5,55.5,129.0,62.5,137.0,53.0,147.0,54.0,159.0,47.5,167.0,50.0,174.5,51.0,177.0,44.0" stroke="black" stroke-width="2" fill="none" />
<polyline points="142.5,35.0,137.5,27.0,144.5,18.5" stroke="black" stroke-width="2" fill="none" />
<polyline points="146.0,13.0,139.0,17.0,133.0,20.0" stroke="black" stroke-width="2" fill="none" />
<polyline points="121.0,19.5,117.0,11.5" stroke="black" stroke-width="2" fill="none" />
<polyline points="116.0,4.0,124.0,3.5" stroke="black" stroke-width="2" fill="none" />
<polyline points="126.0,2.5,111.5,12.0,116.5,17.0,122.5,25.0,115.0,35.0,110.0,42.5,110.5,51.5,114.5,51.5,117.5,59.5,125.5,70.0,117.0,77.5,114.5,90.5,112.0,98.5,115.5,106.0,115.5,109.0,111.5,117.0,112.5,121.0,123.5,129.5,126.0,137.5,122.0,145.5,122.0,149.5,114.0,157.5,111.5,165.5,111.5,173.0,118.0,181.0,115.0,190.0,108.5,198.0,97.5,208.5,95.0,212.0,89.5,220.0,88.5,227.5,89.5,235.0,97.0,241.5,101.5,249.5,105.5,251.5,114.0,247.5,119.5,242.5,128.5,241.0,137.0,243.0,147.5,250.0,160.5,245.0" stroke="black" stroke-width="2" fill="none" />
<polyline points="66.0,21.5,65.0,13.5" stroke="black" stroke-width="2" fill="none" />
<polyline points="67.5,13.5,59.5,13.5" stroke="black" stroke-width="2" fill="none" />
<polyline points="52.0,12.0,49.0,19.5,43.0,18.5" stroke="black" stroke-width="2" fill="none" />
<polyline points="46.0,3.5,54.0,3.5" stroke="black" stroke-width="2" fill="none" />
<polyline points="77.5,3.0,70.5,11.5,74.0,19.5,73.0,30.0,64.5,38.5,59.5,46.5,71.0,45.5,73.0,47.5,81.5,44.5,89.5,45.5,99.5,41.5,107.5,41.0,115.5,38.0,121.5,32.5,132.5,34.5,143.5,48.5,151.5,45.0,162.0,36.0,174.0,28.0,182.0,31.0,187.0,43.5,195.0,44.5,205.0,35.0" stroke="black" stroke-width="2" fill="none" />
<polyline points="99.5,7.0,92.0,8.0" stroke="black" stroke-width="2" fill="none" />
<polyline points="96.0,11.0,93.0,19.5,86.5,32.5,90.0,40.5,93.0,41.0" stroke="black" stroke-width="2" fill="none" />
<polyline points="98.0,5.0,93.0,12.5,87.5,20.5,89.5,31.5,96.0,34.5,94.0,36.0,95.5,44.0,90.5,49.0,82.5,56.5,82.5,64.5,75.5,72.5,70.5,80.5,75.0,88.5,80.0,96.5,87.0,96.5,92.0,93.5" stroke="black" stroke-width="2" fill="none" />
<polyline points="161.0,33.5,152.5,40.5,144.5,44.5,137.0,49.5,129.0,53.0,120.5,49.5,111.0,47.5,103.0,47.5,90.0,59.0,80.0,67.0,71.5,70.0,70.0,75.0,61.0,79.5,53.0,79.0,44.0,70.0,30.0,70.0,22.0,77.5,18.0,73.0,24.0,65.0,18.0,57.0,20.5,49.5,17.0,42.0,21.0,31.0,25.0,24.0,25.5,20.5,14.0,13.5,14.0,5.5" stroke="black" stroke-width="2" fill="none" />
</svg>