<svg xmlns="http://www.w3.org/2000/svg" version="1.1"><polyline points="239.5,103.5,227.0,106.5,235.0,108.5" stroke="black" stroke-width="2" fill="none" />
<polyline points="244.5,155.5,236.5,156.5,229.0,157.0,221.0,158.0,213.0,159.0" stroke="black" stroke-width="2" fill="none" />
<polyline points="198.5,158.0,190.5,157.0" stroke="black" stroke-width="2" fill="none" />
<polyline points="189.0,158.5,197.0,156.0,205.0,156.5" stroke="black" stroke-width="2" fill="none" />
<polyline points="147.0,146.0,139.5,153.5,131.5,161.5,123.5,169.5" stroke="black" stroke-width="2" fill="none" />
<polyline points="124.0,171.0,132.0,170.5,140.5,170.5" stroke="black" stroke-width="2" fill="none" />
<polyline points="139.5,170.5,131.5,178.0,123.5,185.5,115.5,193.0" stroke="black" stroke-width="2" fill="none" />
<polyline points="115.5,196.5,123.5,196.0,132.0,196.0,139.5,195.5,147.5,194.5" stroke="black" stroke-width="2" fill="none" />
<polyline points="141.0,194.0,133.0,201.5" stroke="black" stroke-width="2" fill="none" />
<polyline points="133.5,209.5,141.5,202.0" stroke="black" stroke-width="2" fill="none" />
<polyline points="140.0,211.0,131.5,218.5" stroke="black" stroke-width="2" fill="none" />
<polyline points="130.0,226.5,122.0,234.0,114.0,241.5,106.5,249.0,99.0,256.5" stroke="black" stroke-width="2" fill="none" />
<polyline points="115.5,257.0,123.0,250.0,130.5,243.0,138.5,235.5" stroke="black" stroke-width="2" fill="none" />
<polyline points="131.0,236.5,123.0,244.0,115.0,251.0,107.5,258.0" stroke="black" stroke-width="2" fill="none" />
<polyline points="131.0,257.5,139.5,249.5,148.0,241.5,156.5,234.0" stroke="black" stroke-width="2" fill="none" />
<polyline points="155.5,227.0,147.5,234.0,140.0,241.5,132.0,249.0,124.0,256.5" stroke="black" stroke-width="2" fill="none" />
<polyline points="148.5,258.0,156.5,250.0,164.5,243.0,173.0,235.5" stroke="black" stroke-width="2" fill="none" />
<polyline points="179.5,237.0,171.5,244.0,163.5,251.0,156.0,258.5" stroke="black" stroke-width="2" fill="none" />
<polyline points="178.0,259.0,186.5,251.5,195.0,244.0,203.5,236.5" stroke="black" stroke-width="2" fill="none" />
<polyline points="211.0,236.0,203.0,243.0,195.5,250.5,187.0,258.0" stroke="black" stroke-width="2" fill="none" />
<polyline points="204.5,258.0,212.5,251.0,220.5,243.5,228.5,236.5,236.5,229.0" stroke="black" stroke-width="2" fill="none" />
<polyline points="241.5,224.0,249.5,222.0" stroke="black" stroke-width="2" fill="none" />
<polyline points="251.5,228.0,243.5,236.5,235.0,244.0,226.5,252.0,218.0,259.0" stroke="black" stroke-width="2" fill="none" />
<polyline points="227.0,259.0,235.5,252.0,244.0,244.5,251.5,237.0,259.0,229.0" stroke="black" stroke-width="2" fill="none" />
<polyline points="260.0,235.5,251.5,243.0,243.5,251.5,235.5,259.5" stroke="black" stroke-width="2" fill="none" />
<polyline points="227.5,258.0,235.5,257.5,243.5,256.0,251.5,255.0,259.5,254.0" stroke="black" stroke-width="2" fill="none" />
<polyline points="261.0,250.5,253.0,258.0" stroke="black" stroke-width="2" fill="none" />
<polyline points="244.0,259.5,252.0,251.5,260.0,244.0" stroke="black" stroke-width="2" fill="none" />
<polyline points="244.0,228.5,236.0,236.0,228.0,244.0,220.5,251.5,213.0,258.5" stroke="black" stroke-width="2" fill="none" />
<polyline points="196.5,258.5,204.5,251.0,212.5,243.0,220.0,235.5,227.5,228.0" stroke="black" stroke-width="2" fill="none" />
<polyline points="243.0,224.0,250.5,226.0" stroke="black" stroke-width="2" fill="none" />
<polyline points="193.0,235.5,185.0,243.0,177.0,250.5,169.0,258.0" stroke="black" stroke-width="2" fill="none" />
<polyline points="162.5,257.0,170.5,249.5,178.5,242.5,187.0,234.5" stroke="black" stroke-width="2" fill="none" />
<polyline points="164.5,234.0,157.0,241.5,149.0,249.5,141.0,257.5" stroke="black" stroke-width="2" fill="none" />
<polyline points="122.0,227.5,114.5,235.0,107.0,242.5,99.0,250.0,91.5,258.0" stroke="black" stroke-width="2" fill="none" />
<polyline points="83.0,258.0,91.5,251.0,99.5,243.5,108.0,235.5,116.0,227.5" stroke="black" stroke-width="2" fill="none" />
<polyline points="108.0,226.5,100.5,234.5,92.5,241.5,84.5,249.0,76.5,256.5" stroke="black" stroke-width="2" fill="none" />
<polyline points="69.0,256.5,78.0,249.0,86.0,242.0,94.5,234.5" stroke="black" stroke-width="2" fill="none" />
<polyline points="93.0,226.0,84.0,234.0,75.5,241.5,67.5,249.0,59.5,256.5" stroke="black" stroke-width="2" fill="none" />
<polyline points="51.0,257.5,59.5,250.0,67.0,242.5,74.5,235.0,82.5,227.0" stroke="black" stroke-width="2" fill="none" />
<polyline points="83.0,222.5,91.0,222.0,99.0,221.5,107.0,221.5,115.0,221.0,123.5,220.5,131.5,219.5,139.5,218.5" stroke="black" stroke-width="2" fill="none" />
<polyline points="123.0,211.5,115.0,219.0" stroke="black" stroke-width="2" fill="none" />
<polyline points="114.5,210.0,123.0,202.5" stroke="black" stroke-width="2" fill="none" />
<polyline points="115.0,200.5,122.5,192.5" stroke="black" stroke-width="2" fill="none" />
<polyline points="132.0,195.5,140.0,188.0" stroke="black" stroke-width="2" fill="none" />
<polyline points="133.0,186.0,140.5,178.5" stroke="black" stroke-width="2" fill="none" />
<polyline points="139.5,185.0,131.5,185.5" stroke="black" stroke-width="2" fill="none" />
<polyline points="128.5,178.0,129.5,186.0,131.0,194.0,131.0,202.0,131.5,210.0,132.5,218.0" stroke="black" stroke-width="2" fill="none" />
<polyline points="148.0,203.5,139.5,204.0,131.5,205.0,123.0,205.5,115.0,206.5,106.0,207.0,98.0,208.0,90.5,208.5,82.5,209.0,74.5,209.5,67.0,210.5,59.5,211.0,51.5,211.0,43.0,211.5,35.0,211.5,27.0,212.5,19.0,213.0,11.0,214.0,3.0,214.5" stroke="black" stroke-width="2" fill="none" />
<polyline points="3.5,220.5,11.5,220.0,20.0,219.5,28.0,219.0,35.0,219.0,42.5,218.5,50.5,218.0,58.0,217.5,66.0,217.5,74.0,218.0" stroke="black" stroke-width="2" fill="none" />
<polyline points="74.5,228.0,66.5,235.5,59.0,243.5,51.5,251.0,43.5,258.5" stroke="black" stroke-width="2" fill="none" />
<polyline points="35.0,258.5,43.5,251.0,52.0,243.5,60.0,236.0,68.5,228.5" stroke="black" stroke-width="2" fill="none" />
<polyline points="59.5,228.0,51.5,235.5,43.0,243.5,35.0,251.0,27.0,259.0" stroke="black" stroke-width="2" fill="none" />
<polyline points="19.5,257.0,27.5,249.5,34.5,242.5,42.0,235.5,50.0,228.5" stroke="black" stroke-width="2" fill="none" />
<polyline points="42.5,228.0,34.5,235.5,26.0,243.0,18.0,250.0,11.0,257.5" stroke="black" stroke-width="2" fill="none" />
<polyline points="17.5,257.0,25.5,256.5,33.0,255.5,41.0,256.0,49.0,255.0,56.5,254.5,64.5,255.0,72.5,255.0,80.5,255.0,89.0,255.0,97.0,255.0,105.0,255.0,113.0,254.5,120.5,254.5,129.0,254.5,137.0,254.5,145.0,254.5,153.0,254.0,161.0,254.5,169.0,254.5,177.5,255.0,185.0,255.0,193.5,255.5,201.5,255.5,209.0,256.0,217.0,255.0,225.5,255.5,233.5,255.5,241.5,257.0,249.5,257.0" stroke="black" stroke-width="2" fill="none" />
<polyline points="188.5,212.5,180.5,213.5,172.5,214.5" stroke="black" stroke-width="2" fill="none" />
<polyline points="145.0,188.0,137.0,188.0,129.0,188.0,121.0,188.5,113.0,189.0" stroke="black" stroke-width="2" fill="none" />
<polyline points="115.5,186.0,123.5,178.5,131.5,170.5,139.5,163.0" stroke="black" stroke-width="2" fill="none" />
<polyline points="140.0,161.5,132.0,162.0,124.0,162.0" stroke="black" stroke-width="2" fill="none" />
<polyline points="115.5,162.5,124.0,155.5,132.0,148.0,140.5,140.5" stroke="black" stroke-width="2" fill="none" />
<polyline points="139.5,148.0,131.5,155.5,123.0,163.5,114.5,171.0" stroke="black" stroke-width="2" fill="none" />
<polyline points="116.0,170.5,123.5,173.5,132.0,173.5" stroke="black" stroke-width="2" fill="none" />
<polyline points="138.0,175.0,130.0,176.0,122.0,177.0,114.0,175.0" stroke="black" stroke-width="2" fill="none" />
<polyline points="117.0,173.0,125.5,172.5,134.0,172.0,142.0,171.5" stroke="black" stroke-width="2" fill="none" />
<polyline points="147.0,179.5,139.5,180.5,131.5,181.0,123.5,181.0,115.5,181.5" stroke="black" stroke-width="2" fill="none" />
<polyline points="106.0,181.5,98.0,182.0,90.0,182.5,82.0,183.0,74.5,183.5" stroke="black" stroke-width="2" fill="none" />
<polyline points="58.5,177.5,50.5,178.0,43.0,178.0,35.0,179.0,27.0,180.0,19.5,181.0,12.0,182.0,4.0,183.0" stroke="black" stroke-width="2" fill="none" />
<polyline points="5.0,188.5,13.0,188.5,21.0,188.0,29.0,187.5,36.0,187.0,43.5,186.5,51.5,186.0,59.5,185.0,67.0,184.5,75.0,183.5,83.5,183.0,91.0,182.5,99.0,181.5,107.0,181.0" stroke="black" stroke-width="2" fill="none" />
<polyline points="114.0,165.5,122.5,165.0,131.0,164.5,139.5,163.5" stroke="black" stroke-width="2" fill="none" />
<polyline points="141.5,161.5,149.5,161.5,157.5,161.5,165.5,161.0,173.5,161.0,182.0,161.0,190.0,161.0,198.0,161.5,206.0,161.5,214.0,161.5,222.0,161.5,230.0,161.5,238.0,161.5,246.0,162.0,253.5,162.0" stroke="black" stroke-width="2" fill="none" />
<polyline points="189.0,102.5,180.5,102.5" stroke="black" stroke-width="2" fill="none" />
<polyline points="140.5,109.0,148.0,108.5,155.5,108.5,164.0,108.0,173.0,108.0,181.0,107.5,189.0,106.5,196.5,105.5,204.0,104.5,211.5,104.0,219.5,103.5,227.5,103.0,235.5,102.5,243.5,102.0,251.5,101.5" stroke="black" stroke-width="2" fill="none" />
<polyline points="140.5,131.5,132.5,139.0,124.5,146.5,116.5,154.5" stroke="black" stroke-width="2" fill="none" />
<polyline points="114.0,152.5,122.0,152.0,130.5,151.0,138.0,150.5" stroke="black" stroke-width="2" fill="none" />
<polyline points="141.5,135.5,133.5,136.0,125.5,136.5" stroke="black" stroke-width="2" fill="none" />
<polyline points="122.5,131.0,114.5,138.5" stroke="black" stroke-width="2" fill="none" />
<polyline points="112.0,136.5,120.5,129.5,126.5,129.5,134.0,129.5" stroke="black" stroke-width="2" fill="none" />
<polyline points="130.5,131.5,123.0,139.0,115.0,146.5" stroke="black" stroke-width="2" fill="none" />
<polyline points="114.0,144.5,121.5,144.5,130.0,144.5,138.0,144.0" stroke="black" stroke-width="2" fill="none" />
<polyline points="125.0,123.5,133.5,115.5" stroke="black" stroke-width="2" fill="none" />
<polyline points="134.5,115.0,134.5,123.5" stroke="black" stroke-width="2" fill="none" />
<polyline points="128.5,112.5,131.5,120.5,138.0,131.5,141.0,139.5,140.5,148.0,140.5,155.5,139.5,163.5,137.5,171.5,140.0,181.0,139.0,188.5,139.0,196.5,139.0,204.5,138.5,212.5,138.0,220.5" stroke="black" stroke-width="2" fill="none" />
<polyline points="148.0,195.5,140.0,196.0,132.5,197.0,125.0,197.5,116.5,198.5,108.5,199.5,100.5,200.5,92.0,201.0,83.0,201.5,75.5,202.0,68.0,202.0,60.0,202.5,51.5,203.5,43.0,203.5,34.5,204.5,26.0,205.0,17.5,206.0,10.0,207.0,2.0,207.0" stroke="black" stroke-width="2" fill="none" />
<polyline points="3.5,198.5,12.0,197.5,20.0,197.0,27.0,196.5,34.5,196.5,41.5,196.0,50.0,195.5,58.5,195.0,67.0,193.5,75.5,192.5,83.5,191.5,92.0,191.5,100.0,191.0,107.5,190.5" stroke="black" stroke-width="2" fill="none" />
<polyline points="125.0,179.0,124.5,187.0,123.0,194.5,123.5,202.5,124.0,210.5,123.0,218.5,125.0,224.5,131.0,227.0" stroke="black" stroke-width="2" fill="none" />
<polyline points="109.0,223.5,101.0,224.5" stroke="black" stroke-width="2" fill="none" />
<polyline points="122.0,227.0,114.0,228.0,106.0,228.5,98.0,228.0,90.0,228.5,82.0,228.5,74.0,228.5,66.0,228.5,58.0,228.5,50.0,228.0,42.0,228.0,33.5,228.0,25.5,228.5,17.5,229.0,9.5,229.5,1.5,229.5" stroke="black" stroke-width="2" fill="none" />
<polyline points="2.5,230.0,10.5,229.5,18.5,229.0,26.5,228.0,35.0,227.0,43.0,226.5,51.0,226.5,59.5,226.5,67.5,226.0,75.0,225.5,83.5,225.0,91.5,224.5,99.0,224.5,107.0,224.0,115.0,224.0,123.0,223.5,131.0,222.5,139.5,221.5,148.0,220.5,156.0,220.0,165.0,219.5,172.5,219.0,180.5,218.0,188.5,218.0,196.0,218.0,204.0,218.0,212.5,217.0,220.5,216.5,228.0,216.0,235.5,215.5,243.5,215.0,251.0,215.0,259.0,214.0" stroke="black" stroke-width="2" fill="none" />
<polyline points="131.0,109.5,123.0,109.0,115.0,109.5" stroke="black" stroke-width="2" fill="none" />
<polyline points="122.0,115.5,130.0,111.5,122.5,115.5,124.5,123.5,113.0,132.5,111.5,140.5,111.5,149.0,112.5,157.0,102.0,159.0,98.0,158.5,106.0,157.5,109.0,160.5,114.5,164.0,118.0,172.0,115.0,179.5,116.5,187.5,116.5,195.5,116.5,203.5,117.5,211.5,117.5,219.5,117.5,224.5,121.0,225.5,130.0,227.5,138.0,228.0,146.0,228.0,154.0,228.0,162.0,228.0,170.0,228.5,177.5,229.0,185.0,229.0,193.0,229.5,201.0,229.5,209.5,229.5,217.5,229.0,225.5,228.5,233.0,228.5,241.0,228.0,249.0,227.5" stroke="black" stroke-width="2" fill="none" />
<polyline points="259.0,237.5,251.5,238.5,243.5,239.0,235.5,239.0,227.5,239.0,219.5,239.5,211.5,240.0,203.0,240.5,195.0,241.0,187.0,242.0,179.5,242.5,171.0,243.0,163.0,244.0,154.5,244.5,146.5,245.0,138.5,245.0,131.0,245.0,123.5,245.0,116.0,245.0,109.0,245.5,102.0,246.0,94.0,247.0,86.5,247.5,78.0,248.0,69.0,249.0,61.0,249.5,53.0,250.0,45.5,250.5,37.5,251.5,29.0,252.5,21.0,253.0,12.5,253.5,4.5,254.0" stroke="black" stroke-width="2" fill="none" />
<polyline points="4.0,250.0,12.0,242.5,19.5,234.5" stroke="black" stroke-width="2" fill="none" />
<polyline points="27.0,236.5,20.0,244.0,12.5,251.5,4.5,258.5" stroke="black" stroke-width="2" fill="none" />
<polyline points="4.5,258.5,12.0,257.5,20.0,257.5,27.5,257.0" stroke="black" stroke-width="2" fill="none" />
<polyline points="4.5,249.5,12.5,249.0,19.5,248.5,27.5,247.5,35.5,247.0,43.5,246.0,51.5,245.0,59.5,244.0,67.5,243.5,76.5,243.5,85.0,243.0,92.0,243.0,99.5,242.5,107.5,242.0,115.5,241.5,123.0,241.0,131.0,241.0,138.5,241.0,146.5,241.0,155.5,240.5,163.5,240.5,171.0,240.0,178.5,239.5,186.0,239.0,193.5,238.0,202.0,237.5,210.0,237.0,218.0,236.0,226.0,235.5,234.0,234.5,242.0,234.0,250.0,233.5,258.5,232.5" stroke="black" stroke-width="2" fill="none" />
<polyline points="259.0,228.5,251.0,229.0,243.0,229.5,235.0,230.0,226.5,230.5,218.5,231.0,210.0,232.0,201.5,233.0,193.0,233.5,185.0,234.0,177.0,234.5,169.0,235.0,161.0,235.5,153.0,236.5,145.5,237.0,138.0,237.0,131.0,237.0,123.0,237.5,115.0,238.5,107.5,239.0,99.0,239.5,90.5,240.0,82.5,240.0,74.5,241.0,67.0,241.5,59.5,241.5,51.0,242.0,43.5,242.5,35.5,243.5,27.5,244.0,19.5,244.5,12.0,245.0,4.0,245.5" stroke="black" stroke-width="2" fill="none" />
<polyline points="3.0,241.5,11.5,234.0" stroke="black" stroke-width="2" fill="none" />
<polyline points="11.5,227.5,3.0,234.5" stroke="black" stroke-width="2" fill="none" />
<polyline points="3.0,239.5,11.0,238.0,19.5,237.0,27.5,236.5,35.5,236.0,43.5,236.0,51.5,235.5,60.0,235.0,68.0,234.5,76.0,234.0,84.5,233.5,92.0,233.0,100.0,232.5,107.5,232.0,115.0,231.5,123.0,231.0,131.0,230.0,139.5,229.5,147.5,229.5,155.5,229.5,163.5,229.0,171.5,228.0,179.5,227.0,188.0,226.5,196.0,226.5,204.0,225.5,212.0,225.0,219.5,224.0,227.5,223.5,235.0,222.5,242.5,221.5,251.0,221.0,258.5,220.5" stroke="black" stroke-width="2" fill="none" />
<polyline points="259.5,225.5,251.0,226.0,243.0,226.5,235.0,227.0,227.0,227.0,219.0,227.5,211.0,227.5,203.5,228.0,195.0,229.0,186.5,229.0,178.5,229.5,170.5,230.5,163.0,230.5,154.5,232.0,146.5,233.0,139.0,234.0,131.0,234.5,123.5,234.5,115.5,235.5,107.5,236.0,99.0,236.5,90.5,236.5,82.5,237.0,74.0,237.5,66.5,238.5,58.5,239.0,50.5,239.5,42.5,239.5,34.5,240.0,27.0,240.0,19.0,240.5,11.0,241.0,2.5,241.5" stroke="black" stroke-width="2" fill="none" />
<polyline points="2.5,222.5,10.5,222.5,18.5,222.5,26.5,222.0,34.5,222.0,42.5,221.0,48.5,224.0,57.0,223.0,64.0,225.5,72.0,222.5,80.0,223.0,88.0,222.5,96.0,222.5,104.0,222.5,111.5,222.0" stroke="black" stroke-width="2" fill="none" />
<polyline points="94.0,157.0,85.5,157.0,77.5,157.5,73.5,162.5,79.0,162.0,86.0,159.0" stroke="black" stroke-width="2" fill="none" />
<polyline points="51.0,170.0,43.0,170.5,35.0,171.5,26.5,173.0,18.5,174.0,10.5,175.0,3.0,175.5" stroke="black" stroke-width="2" fill="none" />
<polyline points="4.5,166.0,12.0,165.5" stroke="black" stroke-width="2" fill="none" />
<polyline points="2.5,162.0,10.5,161.5,18.5,161.5,26.5,161.5,35.0,162.0,43.5,162.0,51.0,160.5,59.0,160.5,67.0,161.0,75.0,158.0" stroke="black" stroke-width="2" fill="none" />
<polyline points="5.5,148.5,13.5,148.5,21.5,148.0,29.0,147.5,37.0,147.5,45.5,146.5,53.0,146.0,61.0,146.0,68.5,145.5,76.5,145.5,84.5,145.5,92.5,144.5,100.5,143.5,108.5,143.0,116.5,142.0,124.0,141.5,132.5,141.0,141.0,140.0,149.0,139.5,157.0,139.0,164.5,138.5,173.0,138.0,181.0,137.5,188.5,137.0,196.0,137.0,203.5,136.5,211.5,136.0,219.5,135.5,227.5,135.0,235.0,135.0,242.5,134.5,251.0,134.0,259.0,134.0" stroke="black" stroke-width="2" fill="none" />
<polyline points="187.5,147.0,180.0,147.0,172.0,147.5,164.0,148.0,156.0,148.5,149.0,149.0,141.5,149.5,134.0,149.5,126.0,150.0,118.0,150.5,109.5,151.5,101.0,152.5,93.0,153.5,84.5,153.5,77.0,154.5,69.0,154.5,61.0,155.0,53.0,155.0,45.5,155.0,37.0,155.0,28.5,155.5,20.5,155.5,12.0,156.0,4.0,157.0" stroke="black" stroke-width="2" fill="none" />
<polyline points="4.5,141.0,12.5,140.0,20.5,140.0,28.5,140.0,36.0,140.0,44.0,139.0,51.5,138.5,60.0,138.0,68.0,137.5,76.0,136.5,84.5,136.0,92.0,135.5,99.5,135.5,108.0,135.0,117.0,135.0,125.0,134.5,133.0,133.5,140.5,132.5,148.0,131.5,155.5,131.0,163.5,130.5,171.5,130.0,179.5,129.5,187.5,129.0,195.5,128.5,204.0,127.5,212.0,127.0,220.0,126.5,228.0,125.5,236.0,125.0,243.5,125.0,252.0,124.5,260.5,124.0" stroke="black" stroke-width="2" fill="none" />
<polyline points="258.5,118.0,250.5,119.0,242.5,119.0,234.5,119.5,226.5,120.0,219.0,120.5,211.5,121.0,204.5,121.5,196.0,122.0,187.5,122.0,179.5,122.5,171.5,122.5,163.5,123.0,155.5,123.5,147.5,124.5,139.5,125.5,132.0,126.0,124.5,126.5,116.5,127.0,107.5,127.0,99.5,127.0,91.5,128.0,83.5,128.5,75.0,129.5,67.0,129.5,59.0,130.0,51.5,130.5,44.0,131.0,36.0,131.5,27.5,132.0,19.5,132.0,12.0,133.0,4.5,133.5" stroke="black" stroke-width="2" fill="none" />
<polyline points="1.5,126.5,9.5,126.0,17.5,125.0,26.5,124.5,35.0,124.0,43.5,123.5,51.5,123.5,59.5,123.0,67.5,123.0,76.0,122.5,84.0,122.0,92.0,121.5,100.5,121.5,108.0,121.0,115.5,120.5,123.0,120.0,131.5,119.5,140.0,119.0,148.0,118.0,156.0,117.0,163.5,116.0,171.5,115.5,179.0,115.5,186.5,115.0,194.0,114.5,202.0,114.0,210.0,113.5,218.0,113.0,226.0,112.5,233.5,112.5,242.0,112.0,250.0,111.0,258.5,110.0" stroke="black" stroke-width="2" fill="none" />
<polyline points="259.0,102.0,250.5,102.0,243.0,102.5,235.0,103.0,226.5,103.0,218.5,103.5,211.0,104.0,203.5,104.0,195.0,105.5,187.5,106.5,180.0,107.5,172.0,108.0,164.5,108.5,156.5,109.0,148.5,109.5,140.0,110.0,131.5,110.0,123.5,110.5,115.5,111.5,107.5,112.0,100.0,112.5,92.0,113.0,84.0,113.0,76.0,113.5,68.5,113.5,60.0,114.0,51.5,114.5,43.0,115.0,34.5,115.5,26.5,116.5,18.5,117.5,9.5,118.5,1.5,119.0" stroke="black" stroke-width="2" fill="none" />
<polyline points="3.0,111.0,10.5,111.0,18.5,110.0,27.0,109.5,36.0,108.5,44.5,108.0,53.0,106.5,61.5,105.5,70.0,104.5,78.0,104.0,85.5,103.5,93.5,103.0" stroke="black" stroke-width="2" fill="none" />
<polyline points="51.0,99.0,43.0,100.0,35.0,100.5,27.5,101.0,19.5,101.0,12.0,101.5,4.0,102.0" stroke="black" stroke-width="2" fill="none" />
<polyline points="5.5,96.0,13.5,95.5" stroke="black" stroke-width="2" fill="none" />
<polyline points="3.5,87.5,11.5,92.0,19.0,91.0,27.0,92.0,35.0,92.0,43.0,95.0,51.0,98.0,59.0,101.0,66.5,103.0,74.5,102.5,82.5,100.5,90.5,99.5,98.5,100.0,107.0,102.0,120.0,104.0,109.5,112.0,100.0,120.0,106.0,115.5,114.0,107.5,122.0,103.5,130.0,105.5,138.0,104.5,146.0,104.5,153.5,102.5,161.5,99.5,169.0,100.0,177.0,97.0,185.0,96.0,193.0,98.0,201.0,98.0,208.5,99.0,217.0,102.0,225.0,99.5,232.5,101.5,240.5,103.0,248.5,104.0" stroke="black" stroke-width="2" fill="none" />
<polyline points="115.0,86.5,106.5,86.0,98.0,85.0,90.5,84.0,82.5,81.5,74.5,81.0,66.5,81.0,58.5,80.0,50.0,80.0,42.5,80.0,34.5,79.5,26.5,80.0,18.5,80.0,11.0,79.5,2.5,79.0" stroke="black" stroke-width="2" fill="none" />
</svg>