<svg xmlns="http://www.w3.org/2000/svg" version="1.1"><polyline points="118.0,56.0,100.5,64.0,90.0,72.0,83.0,80.5,73.5,92.0,70.0,100.0,63.0,108.5,62.0,109.0,62.0,119.0,57.5,118.5,58.5,113.5,69.5,97.5" stroke="black" stroke-width="2" fill="none" />
<polyline points="68.5,107.5,60.5,108.5,52.5,108.5" stroke="black" stroke-width="2" fill="none" />
<polyline points="52.0,101.5,60.0,101.0,68.0,100.5" stroke="black" stroke-width="2" fill="none" />
<polyline points="68.0,107.5,63.0,116.0" stroke="black" stroke-width="2" fill="none" />
<polyline points="79.5,105.0,87.5,95.0" stroke="black" stroke-width="2" fill="none" />
<polyline points="89.0,92.0,97.5,92.0,105.0,91.5,113.0,91.0,121.0,90.5,129.5,90.5,137.5,90.0,145.5,89.5,153.5,88.5,162.0,88.0,170.0,87.5,178.0,87.0,186.5,87.0,195.5,86.5" stroke="black" stroke-width="2" fill="none" />
<polyline points="194.5,90.0,186.5,98.0,178.5,106.0,170.5,114.0,162.5,122.0,154.0,129.5,146.0,137.5,138.0,144.5,130.5,152.0,123.0,159.5,115.5,167.0,107.0,174.0" stroke="black" stroke-width="2" fill="none" />
<polyline points="99.5,175.0,107.0,174.0,114.5,173.5,122.0,172.5,130.0,171.5,138.0,171.0,145.5,170.5,153.0,170.0,161.0,169.5,169.0,169.0,176.5,169.0,185.0,168.0,193.0,167.0" stroke="black" stroke-width="2" fill="none" />
<polyline points="205.0,155.0,197.0,162.0,188.5,170.0,180.5,178.0,172.0,186.0" stroke="black" stroke-width="2" fill="none" />
<polyline points="170.0,186.5,162.0,186.5,153.5,187.0,146.0,188.0,138.0,188.5,130.0,188.5,122.0,188.5,114.5,189.0" stroke="black" stroke-width="2" fill="none" />
<polyline points="116.5,184.0,124.5,176.0,132.0,168.0,140.0,160.5,147.5,152.5,155.5,145.0,163.0,137.0,171.0,129.5,178.5,121.5,186.5,113.5,194.5,106.0" stroke="black" stroke-width="2" fill="none" />
<polyline points="195.0,98.5,187.0,106.0,179.0,113.0,171.0,120.5,163.0,129.0,155.5,136.5,147.0,144.5,138.5,152.5,130.0,160.5,121.5,168.0,113.0,175.5,105.5,183.0" stroke="black" stroke-width="2" fill="none" />
<polyline points="108.5,185.0,116.5,184.0,124.0,183.5,131.5,183.0,139.0,183.0,146.5,183.0,154.5,182.5,162.0,182.5" stroke="black" stroke-width="2" fill="none" />
<polyline points="163.0,185.5,171.5,178.0,179.5,170.0,187.5,162.5,195.5,155.0,203.0,147.0" stroke="black" stroke-width="2" fill="none" />
<polyline points="204.0,139.0,196.0,146.5,188.0,154.5,180.0,162.5,171.5,170.5,163.0,178.0,155.5,186.5" stroke="black" stroke-width="2" fill="none" />
<polyline points="140.5,192.0,148.5,184.0,156.5,176.5,165.0,169.0,173.0,161.0,180.5,153.5,188.5,146.0,196.5,138.5,204.5,131.0" stroke="black" stroke-width="2" fill="none" />
<polyline points="204.5,123.0,197.0,130.5,188.5,138.0,180.5,146.0,172.0,154.0,163.5,161.5,156.0,169.0,149.0,176.5,141.5,183.5,133.5,191.0" stroke="black" stroke-width="2" fill="none" />
<polyline points="130.5,190.0,138.0,192.0,146.5,192.0,154.5,192.0,162.5,190.0,170.5,186.5,168.0,184.5" stroke="black" stroke-width="2" fill="none" />
<polyline points="175.0,181.0,160.0,189.0" stroke="black" stroke-width="2" fill="none" />
<polyline points="171.0,206.0,179.0,205.5,187.0,205.0,195.5,204.5,204.0,204.0,212.0,203.5,220.5,203.0,228.5,202.5" stroke="black" stroke-width="2" fill="none" />
<polyline points="225.5,205.0,217.5,205.5,209.5,205.5,202.0,205.0,194.0,205.5,186.0,206.5,178.0,207.0,169.5,208.0,162.0,209.0,154.5,210.5,147.0,211.0,139.5,211.5,131.5,212.0,123.5,212.5,116.0,213.0,108.5,213.5,101.0,213.5" stroke="black" stroke-width="2" fill="none" />
<polyline points="99.0,207.5,99.0,205.0,99.5,208.5,100.5,216.0,101.5,223.5,103.0,228.5,106.0,236.5,116.0,235.5,114.5,232.5,110.5,244.5,110.0,252.5" stroke="black" stroke-width="2" fill="none" />
<polyline points="116.0,244.5,124.0,244.0,132.0,243.5,140.0,243.0,148.0,243.0,155.5,242.0,163.5,242.0,171.0,241.5,179.0,241.5,187.5,241.5,195.5,241.0,203.5,240.5" stroke="black" stroke-width="2" fill="none" />
<polyline points="208.0,248.5,206.0,251.0,210.0,254.0,208.0,252.0,216.5,240.5" stroke="black" stroke-width="2" fill="none" />
<polyline points="223.0,233.5,218.0,241.5,215.0,246.5,216.5,254.0" stroke="black" stroke-width="2" fill="none" />
<polyline points="195.0,248.5,187.0,249.0,179.0,249.5,171.5,250.0,164.0,250.5,156.0,252.0,148.0,253.0,139.5,253.0,131.0,254.0" stroke="black" stroke-width="2" fill="none" />
<polyline points="147.0,244.5,155.0,237.0,163.0,229.0,170.5,221.5,178.0,214.0,185.5,207.0,193.0,199.5,201.0,192.5,209.5,185.0,218.0,177.5,226.5,170.0,234.5,162.5" stroke="black" stroke-width="2" fill="none" />
<polyline points="227.0,163.0,219.0,170.5,211.0,178.0" stroke="black" stroke-width="2" fill="none" />
<polyline points="208.5,174.0,217.0,173.0,225.0,172.0,233.5,171.0,242.0,170.0,250.5,169.5,259.0,169.0" stroke="black" stroke-width="2" fill="none" />
<polyline points="259.0,154.5,251.0,155.0,243.0,156.0,234.5,157.0,226.5,157.5,218.5,158.5" stroke="black" stroke-width="2" fill="none" />
<polyline points="221.5,163.0,229.5,155.5" stroke="black" stroke-width="2" fill="none" />
<polyline points="227.0,168.5,218.5,169.5" stroke="black" stroke-width="2" fill="none" />
<polyline points="218.0,177.5,226.0,177.0" stroke="black" stroke-width="2" fill="none" />
<polyline points="227.0,175.5,235.5,173.0" stroke="black" stroke-width="2" fill="none" />
<polyline points="235.0,171.0,227.0,178.5,219.0,185.5,211.0,193.0,203.0,200.5" stroke="black" stroke-width="2" fill="none" />
<polyline points="210.5,200.5,219.0,192.5,227.0,185.0,234.5,177.5" stroke="black" stroke-width="2" fill="none" />
<polyline points="228.0,183.5,220.0,184.0,212.0,184.5" stroke="black" stroke-width="2" fill="none" />
<polyline points="204.5,181.0,212.0,180.0,220.0,179.0,228.5,178.5,236.5,177.5,245.0,176.5,253.0,176.0,260.5,176.5" stroke="black" stroke-width="2" fill="none" />
<polyline points="259.5,160.5,251.0,161.0,243.0,161.5,234.5,162.0,226.5,162.5,218.5,163.5,210.5,164.0" stroke="black" stroke-width="2" fill="none" />
<polyline points="217.0,151.0,225.5,150.5,233.5,150.0,242.0,150.0,250.0,149.5,258.5,149.0" stroke="black" stroke-width="2" fill="none" />
<polyline points="254.0,152.0,253.5,160.0,253.0,174.0" stroke="black" stroke-width="2" fill="none" />
<polyline points="251.5,140.5,244.0,141.0,236.0,141.5,228.5,141.5,220.0,142.0" stroke="black" stroke-width="2" fill="none" />
<polyline points="224.5,141.0,232.5,140.0,236.5,135.0,244.5,133.0,253.0,135.0" stroke="black" stroke-width="2" fill="none" />
<polyline points="251.0,131.5,242.5,131.5" stroke="black" stroke-width="2" fill="none" />
<polyline points="239.0,128.5,247.0,132.0,251.0,136.0,253.0,144.5,236.0,152.5,238.0,157.0,232.0,166.5,240.0,166.5,244.0,171.5,250.0,165.0" stroke="black" stroke-width="2" fill="none" />
<polyline points="235.5,187.5,227.0,187.5,219.0,188.5,211.0,189.0,202.5,189.0,194.5,189.5" stroke="black" stroke-width="2" fill="none" />
<polyline points="202.0,185.5,210.0,185.5,218.5,185.5,227.0,185.5,235.5,185.5,244.0,185.5,252.0,186.5,254.0,189.5" stroke="black" stroke-width="2" fill="none" />
<polyline points="234.5,195.5,226.5,196.0,219.0,196.0,210.5,196.5,203.0,196.5,195.0,196.5,187.0,197.0" stroke="black" stroke-width="2" fill="none" />
<polyline points="193.5,209.0,185.5,217.0,177.5,224.5,170.0,232.5,162.5,240.0,155.0,247.0" stroke="black" stroke-width="2" fill="none" />
<polyline points="178.5,247.5,186.0,240.5,193.5,233.0,201.0,225.5,208.5,218.0" stroke="black" stroke-width="2" fill="none" />
<polyline points="211.0,223.0,202.5,224.0,194.5,224.5,186.5,225.5,178.5,226.0,170.5,226.5,163.0,227.0,155.0,227.5,147.0,228.5,138.5,228.0,130.0,228.5,122.0,229.0,114.5,229.0,106.5,229.5" stroke="black" stroke-width="2" fill="none" />
<polyline points="100.0,222.0,108.0,221.5,116.0,221.0,123.5,220.5,131.5,219.5,139.5,218.5,147.5,218.0,155.0,217.5,163.5,217.0,171.5,216.5,179.5,216.0,187.5,215.5,195.0,215.5,203.0,215.5,211.0,215.0,219.0,214.0" stroke="black" stroke-width="2" fill="none" />
<polyline points="211.0,212.0,203.0,219.5,195.5,227.0,187.5,234.0,180.0,241.5,172.0,249.0" stroke="black" stroke-width="2" fill="none" />
<polyline points="164.0,250.5,172.0,242.5,179.5,235.0,187.0,227.5,195.0,220.5,202.5,213.0" stroke="black" stroke-width="2" fill="none" />
<polyline points="210.5,224.0,218.5,219.0,215.0,222.5,210.0,230.5,206.0,238.0,201.0,242.5,192.5,255.5" stroke="black" stroke-width="2" fill="none" />
<polyline points="179.5,209.5,171.0,217.0,162.5,224.5,154.5,231.5,146.0,239.0,138.5,246.5" stroke="black" stroke-width="2" fill="none" />
<polyline points="138.5,243.0,146.5,235.5,154.5,228.5,162.0,221.0,170.0,213.0" stroke="black" stroke-width="2" fill="none" />
<polyline points="155.0,220.0,147.0,227.5,138.5,235.0,130.5,243.0" stroke="black" stroke-width="2" fill="none" />
<polyline points="124.0,242.0,132.0,234.0,140.0,225.5,147.5,217.5" stroke="black" stroke-width="2" fill="none" />
<polyline points="142.0,218.5,133.5,226.0,124.5,233.0" stroke="black" stroke-width="2" fill="none" />
<polyline points="125.0,225.5,133.0,218.0" stroke="black" stroke-width="2" fill="none" />
<polyline points="124.0,219.0,116.5,226.5" stroke="black" stroke-width="2" fill="none" />
<polyline points="115.5,234.0,124.0,234.0,132.5,233.5,140.5,233.5,148.0,234.0,156.0,234.0,163.0,233.5,171.0,233.0,178.5,232.5,186.0,231.5,194.5,230.5,202.0,230.5,210.0,231.0" stroke="black" stroke-width="2" fill="none" />
<polyline points="232.5,205.5,240.5,203.5" stroke="black" stroke-width="2" fill="none" />
<polyline points="256.5,227.0,251.5,232.0" stroke="black" stroke-width="2" fill="none" />
<polyline points="190.0,176.5,182.0,177.0,174.0,177.5,165.5,178.0,157.0,178.5,149.0,179.0,141.0,179.0,132.5,180.0,125.0,180.5,117.0,180.5,109.0,180.5,101.0,180.5" stroke="black" stroke-width="2" fill="none" />
<polyline points="99.5,179.0,108.0,178.0,117.0,177.5,125.0,176.5,132.5,176.5,140.0,175.5,148.5,175.0,156.5,174.5,164.5,173.5,172.5,172.0,180.0,171.5,188.0,171.0" stroke="black" stroke-width="2" fill="none" />
<polyline points="194.5,161.5,186.5,162.5,178.5,163.0,170.5,163.5,162.5,164.0,155.0,164.5,147.5,165.0,139.5,165.5,131.5,166.0,123.5,166.5,116.0,167.5,108.0,168.5,99.5,169.0" stroke="black" stroke-width="2" fill="none" />
<polyline points="98.5,174.5,106.5,167.0,114.5,160.0,123.0,152.5,131.0,145.0,139.0,137.5,147.0,130.5,155.5,122.5,164.0,114.5,172.5,107.0,181.0,99.0,189.0,91.5" stroke="black" stroke-width="2" fill="none" />
<polyline points="187.0,83.0,178.5,90.5,170.5,98.0,163.0,105.5,155.0,113.0,147.0,120.5,138.5,128.0,130.0,135.5,121.5,143.0,114.0,150.5,106.0,158.0,98.0,165.5" stroke="black" stroke-width="2" fill="none" />
<polyline points="92.0,165.0,100.0,158.0,108.0,150.0,116.5,142.5,124.5,135.5,132.0,128.0,140.0,121.0,147.5,113.5,155.0,105.5,162.5,97.5,170.5,89.5,178.5,82.0" stroke="black" stroke-width="2" fill="none" />
<polyline points="178.5,85.5,170.5,86.0,162.5,86.5,154.0,87.5,145.5,88.5,137.5,89.0,129.5,90.0,121.0,90.5,113.0,91.0" stroke="black" stroke-width="2" fill="none" />
<polyline points="116.0,84.5,108.0,91.5,100.0,99.5,91.5,106.5" stroke="black" stroke-width="2" fill="none" />
<polyline points="85.0,108.5,93.0,107.5,101.0,107.0,109.0,106.5,117.0,106.0,125.0,105.5,133.0,105.0,140.5,103.5,148.0,102.5,155.5,102.0,163.5,101.0,172.0,101.0,180.5,100.5,188.5,100.5,196.0,101.0,204.0,101.0" stroke="black" stroke-width="2" fill="none" />
<polyline points="202.5,105.5,194.5,113.0,187.5,121.0,179.5,128.5,172.0,136.0,164.5,144.0,156.5,152.0,148.5,160.5,141.0,168.5,133.0,176.0,125.5,183.0" stroke="black" stroke-width="2" fill="none" />
<polyline points="125.5,190.5,133.0,182.5,140.5,174.5,148.5,167.0,156.5,160.0,164.5,152.5,172.5,145.0,180.0,137.5,188.0,130.0,196.0,122.5,204.0,115.5" stroke="black" stroke-width="2" fill="none" />
<polyline points="221.0,108.5,229.0,108.0,237.0,107.5,244.5,107.0,252.0,107.0" stroke="black" stroke-width="2" fill="none" />
<polyline points="251.0,91.0,244.0,91.5,236.0,91.5" stroke="black" stroke-width="2" fill="none" />
<polyline points="237.0,88.0,245.0,88.0,247.0,91.0" stroke="black" stroke-width="2" fill="none" />
<polyline points="243.0,100.5,235.0,100.5,227.5,100.5,219.5,101.0" stroke="black" stroke-width="2" fill="none" />
<polyline points="218.0,92.0,226.0,91.5" stroke="black" stroke-width="2" fill="none" />
<polyline points="217.5,89.5,225.5,89.5,233.5,90.5,231.5,101.0,246.0,102.0,246.0,106.5,250.0,111.5,240.0,116.0,235.5,121.5,238.5,112.5,242.5,108.5,252.0,102.5" stroke="black" stroke-width="2" fill="none" />
<polyline points="258.0,116.5,249.5,116.5,242.0,116.0,234.0,115.5,226.5,115.5" stroke="black" stroke-width="2" fill="none" />
<polyline points="223.0,119.0,230.5,120.0,240.5,119.0,249.0,118.5,254.5,125.0" stroke="black" stroke-width="2" fill="none" />
<polyline points="259.0,124.0,251.0,124.0,243.5,124.5,235.5,125.5,227.5,126.0" stroke="black" stroke-width="2" fill="none" />
<polyline points="228.5,132.5,236.5,132.5" stroke="black" stroke-width="2" fill="none" />
<polyline points="236.5,138.5,246.5,139.5,238.5,143.5,235.5,147.0,243.5,144.0,247.0,137.5,251.5,145.5" stroke="black" stroke-width="2" fill="none" />
<polyline points="254.5,129.5,246.5,128.5" stroke="black" stroke-width="2" fill="none" />
<polyline points="245.0,122.5,253.0,119.5" stroke="black" stroke-width="2" fill="none" />
<polyline points="253.0,112.0,245.0,109.0,234.5,105.5,227.5,96.5,219.5,100.0,216.5,106.0,208.5,90.0" stroke="black" stroke-width="2" fill="none" />
<polyline points="208.0,88.5,216.0,88.5,224.0,87.5,232.0,87.5,240.0,87.5,248.0,88.0,256.0,88.0" stroke="black" stroke-width="2" fill="none" />
<polyline points="260.0,80.5,251.5,81.0,243.0,82.0,234.5,83.5,226.5,84.5,218.0,85.5,210.0,86.0" stroke="black" stroke-width="2" fill="none" />
<polyline points="205.0,83.0,213.0,83.0,214.0,85.0,222.5,85.0,230.5,85.5,238.5,82.0,247.0,81.5" stroke="black" stroke-width="2" fill="none" />
<polyline points="251.5,85.5,243.5,85.5,235.5,85.5" stroke="black" stroke-width="2" fill="none" />
<polyline points="219.0,74.5,227.5,67.0" stroke="black" stroke-width="2" fill="none" />
<polyline points="211.0,77.0,219.0,77.0,227.0,76.0,235.5,75.5,244.0,75.0,252.5,74.5,260.5,74.0" stroke="black" stroke-width="2" fill="none" />
<polyline points="251.0,67.0,259.5,59.5" stroke="black" stroke-width="2" fill="none" />
<polyline points="260.5,19.5,252.0,19.5,244.0,19.5,236.0,20.0,228.0,20.0,220.0,20.5" stroke="black" stroke-width="2" fill="none" />
<polyline points="222.0,6.0,230.0,5.5,238.0,5.0,245.5,4.5,253.5,3.5,261.0,3.0" stroke="black" stroke-width="2" fill="none" />
<polyline points="260.5,66.5,252.0,67.0,243.5,67.5,235.0,68.0,227.0,68.5,218.5,68.5,211.0,68.5,203.0,68.5,194.5,69.5" stroke="black" stroke-width="2" fill="none" />
<polyline points="197.0,75.5,205.0,81.5,212.0,74.5" stroke="black" stroke-width="2" fill="none" />
<polyline points="221.5,76.0,214.0,72.0,206.0,65.0" stroke="black" stroke-width="2" fill="none" />
<polyline points="187.5,61.0,195.5,60.5,203.5,60.5,212.0,60.0,220.5,60.0,228.5,59.0,237.0,59.0,245.0,59.0,252.5,58.5,260.5,58.0" stroke="black" stroke-width="2" fill="none" />
<polyline points="260.0,10.5,251.5,11.0,243.5,11.5,235.5,12.0,227.0,12.5,219.0,12.5,211.5,13.0,203.5,13.5,195.5,14.5" stroke="black" stroke-width="2" fill="none" />
<polyline points="203.5,19.5,194.5,20.0,186.0,20.0,178.0,20.5" stroke="black" stroke-width="2" fill="none" />
<polyline points="171.0,30.0,179.5,29.0,187.5,28.0,195.5,27.5,203.5,27.0,212.0,27.0,219.5,26.0,227.5,26.0,235.5,26.0,244.0,25.5,252.5,25.5,260.0,25.0" stroke="black" stroke-width="2" fill="none" />
<polyline points="260.0,48.0,251.5,48.5,244.0,48.5,236.0,48.5,228.0,49.5,220.0,50.5,212.0,51.5,203.5,52.5,196.0,53.5,188.0,55.0,180.0,55.5,172.0,55.5" stroke="black" stroke-width="2" fill="none" />
<polyline points="165.5,57.0,183.0,65.0,195.0,73.0,202.0,81.0,209.0,90.5,213.0,98.5,217.0,106.5,219.0,114.5,219.5,122.5,220.5,130.5,220.5,138.0,219.5,146.0,217.5,154.5,215.0,162.5,211.0,170.5,206.5,178.5,199.5,186.5,191.0,194.0,179.0,202.0" stroke="black" stroke-width="2" fill="none" />
<polyline points="125.5,212.0,117.5,219.0" stroke="black" stroke-width="2" fill="none" />
<polyline points="117.0,212.0,108.5,219.5" stroke="black" stroke-width="2" fill="none" />
<polyline points="108.0,206.0,100.0,207.0" stroke="black" stroke-width="2" fill="none" />
<polyline points="88.5,213.5,92.0,215.5,92.0,223.5,99.0,232.0,101.0,241.5,102.0,250.0,104.5,249.5,113.5,252.0,121.5,253.0,128.5,255.5,136.0,255.5,143.5,254.5,148.5,249.5,156.5,251.5,164.5,251.5,172.0,251.5,180.0,247.5,188.0,247.0,197.0,244.0,204.0,246.5,204.5,253.5,216.0,252.5" stroke="black" stroke-width="2" fill="none" />
<polyline points="203.0,158.5,195.0,159.5,187.0,160.0,178.5,160.0,170.5,160.5,162.5,161.0,154.5,161.5,146.5,161.5,138.5,161.5,131.0,162.0,122.5,162.0,115.0,162.5,107.0,163.0,99.0,163.5,91.5,164.0" stroke="black" stroke-width="2" fill="none" />
<polyline points="90.5,161.0,98.0,160.0,105.5,159.5,113.5,159.0,121.5,159.0,130.0,159.0,138.0,158.5,146.5,158.0,155.0,157.5,162.5,157.0,170.5,156.5,179.0,155.5,187.0,155.5,194.5,155.5" stroke="black" stroke-width="2" fill="none" />
<polyline points="203.0,147.5,195.0,147.5,187.5,148.0,179.5,148.5,171.5,149.5,163.0,149.5,154.5,149.5,146.5,150.0,139.0,150.5,131.0,151.0,122.5,151.5,114.0,152.0,106.0,152.5,98.0,153.0,90.5,153.5" stroke="black" stroke-width="2" fill="none" />
<polyline points="92.5,150.0,100.5,142.5,109.0,135.0,116.5,127.5,124.0,120.0,131.5,112.5,140.0,105.5,148.5,98.0,157.0,90.0,165.5,82.5,174.0,75.0" stroke="black" stroke-width="2" fill="none" />
<polyline points="180.5,74.0,172.0,74.0,164.0,74.0,156.0,74.5,148.5,74.5,140.5,75.0,132.5,75.5,124.5,76.5,116.5,77.0,109.0,77.5" stroke="black" stroke-width="2" fill="none" />
<polyline points="101.0,85.0,109.5,84.5,117.0,83.0,124.5,82.0,132.0,81.5,139.0,81.0,147.5,80.5,156.0,80.5,164.5,80.0,172.5,80.0,180.5,80.0,188.0,79.0" stroke="black" stroke-width="2" fill="none" />
<polyline points="188.5,82.5,196.5,92.5,204.5,107.5" stroke="black" stroke-width="2" fill="none" />
<polyline points="194.5,99.5,186.0,100.5,178.0,101.0,170.0,101.0,162.0,101.0,154.0,101.0,146.0,101.0,138.0,101.5,130.0,102.0,122.0,103.0,114.5,103.5,106.0,104.0,98.0,104.5" stroke="black" stroke-width="2" fill="none" />
<polyline points="99.0,95.0,107.0,95.0,115.0,94.5,123.5,95.0,131.5,95.0,139.5,95.5,147.5,95.0,155.5,94.5,163.5,93.5,171.0,93.0,179.0,92.0,187.0,92.0" stroke="black" stroke-width="2" fill="none" />
<polyline points="182.0,79.5,189.0,84.0,196.0,92.0,201.0,100.0,204.0,108.0,207.5,116.0,209.0,124.0,210.0,132.0,209.0,140.5,208.5,148.5,205.5,157.0" stroke="black" stroke-width="2" fill="none" />
<polyline points="204.0,150.5,196.0,151.0,187.5,151.5,179.0,152.0,171.0,152.5,163.0,153.0,154.5,153.5,146.5,154.0,139.0,154.5,130.5,154.5,122.5,154.5,114.0,154.5,106.0,155.0,98.5,155.0,91.0,155.5,83.0,156.0" stroke="black" stroke-width="2" fill="none" />
<polyline points="80.5,157.5,88.5,169.5,96.0,180.0" stroke="black" stroke-width="2" fill="none" />
<polyline points="75.5,173.5,67.5,181.0" stroke="black" stroke-width="2" fill="none" />
<polyline points="67.5,185.0,75.5,185.0" stroke="black" stroke-width="2" fill="none" />
<polyline points="68.0,188.5,60.0,196.0" stroke="black" stroke-width="2" fill="none" />
<polyline points="52.0,190.0,59.5,189.5,68.0,188.5,76.0,187.5,84.0,187.0" stroke="black" stroke-width="2" fill="none" />
<polyline points="69.0,171.0,61.0,178.5" stroke="black" stroke-width="2" fill="none" />
<polyline points="52.5,179.0,60.5,171.5,68.5,164.0" stroke="black" stroke-width="2" fill="none" />
<polyline points="66.5,166.0,58.5,166.0,50.0,166.5,42.0,166.5,33.5,166.5" stroke="black" stroke-width="2" fill="none" />
<polyline points="31.0,161.5,39.0,160.0" stroke="black" stroke-width="2" fill="none" />
<polyline points="35.0,159.0,43.0,159.0,50.5,158.0,58.5,157.0,66.5,155.5" stroke="black" stroke-width="2" fill="none" />
<polyline points="67.5,155.5,60.0,163.0,52.0,170.5,44.5,178.0" stroke="black" stroke-width="2" fill="none" />
<polyline points="45.5,183.0,53.0,182.5,60.5,183.0,68.0,182.5,76.5,182.0" stroke="black" stroke-width="2" fill="none" />
<polyline points="73.5,172.0,65.5,172.5,57.5,172.5,49.5,172.5,41.5,172.5,33.5,173.0" stroke="black" stroke-width="2" fill="none" />
<polyline points="42.0,170.5,50.5,163.5,58.0,156.0" stroke="black" stroke-width="2" fill="none" />
<polyline points="67.5,156.5,75.5,174.5,83.5,184.5,91.0,192.5,98.5,199.0,106.5,203.0,114.5,207.0,122.0,210.5,130.0,212.0,138.0,213.0,145.5,212.0,153.5,211.0,162.0,210.0,170.0,207.0,178.5,203.5,186.5,198.0,194.5,191.0,202.5,183.5,210.5,171.5" stroke="black" stroke-width="2" fill="none" />
<polyline points="204.0,142.5,195.5,143.5,188.0,144.5,180.0,146.0,172.0,146.5,164.0,146.5,156.0,147.0,147.5,146.5,139.5,146.5,131.5,146.0,123.5,145.5,115.5,146.0,107.0,146.5,98.5,147.0,90.5,147.5,82.5,148.5" stroke="black" stroke-width="2" fill="none" />
<polyline points="84.0,151.5,92.0,144.0,100.0,136.0,108.0,128.5,116.0,121.0,123.5,113.0,131.5,105.5,139.5,97.5,147.5,90.0,155.0,82.5,162.5,75.5" stroke="black" stroke-width="2" fill="none" />
<polyline points="166.0,76.5,180.5,84.0,190.5,92.0,196.0,100.0,199.5,108.0,202.5,116.5,203.5,124.0,204.0,132.0,203.0,140.0,202.0,147.5,200.5,155.5,196.0,163.5,191.0,171.5,184.0,179.5,173.0,188.0" stroke="black" stroke-width="2" fill="none" />
<polyline points="204.0,138.0,195.5,138.0,187.5,138.5,179.5,139.0,171.5,140.0,163.0,141.0,155.5,141.5,147.5,142.0,139.5,143.0,131.5,143.5,123.0,144.0,115.0,144.0,107.5,144.0,100.0,144.5,92.0,144.5,83.5,145.0" stroke="black" stroke-width="2" fill="none" />
<polyline points="82.5,145.0,91.0,137.0,99.5,129.5,107.5,121.5,115.5,114.0,123.5,106.0,131.5,98.0,139.5,90.0,147.5,82.5,155.0,75.0" stroke="black" stroke-width="2" fill="none" />
<polyline points="148.5,75.0,140.0,82.0,132.0,89.0,124.0,96.5,115.5,104.0,107.0,111.5,99.0,119.5,91.0,127.5,83.0,135.5" stroke="black" stroke-width="2" fill="none" />
<polyline points="86.0,136.0,94.0,135.5,101.5,135.0,109.0,134.0,116.0,133.0,124.0,132.5,131.0,131.0,138.0,130.5,145.5,129.5,153.5,128.5,161.5,128.0,169.0,128.0,177.0,128.0,185.5,127.5,193.5,126.5,201.5,126.0,210.0,125.0" stroke="black" stroke-width="2" fill="none" />
<polyline points="203.0,115.0,194.5,115.5,187.0,115.5,179.0,115.5,171.0,116.0,163.0,116.5,155.5,117.0,148.0,118.0,140.0,119.0,132.0,120.0,124.0,120.5,116.0,121.0,108.0,121.5,99.5,121.5,91.5,122.0" stroke="black" stroke-width="2" fill="none" />
<polyline points="85.0,117.5,93.0,116.5,101.0,116.0,109.0,115.0,116.0,114.0,123.5,113.0,131.0,112.5,139.5,112.0,147.5,111.5,156.0,112.0,164.0,111.5,172.0,111.0,180.0,110.5,188.0,110.0,196.0,110.0,203.5,109.0" stroke="black" stroke-width="2" fill="none" />
<polyline points="196.0,107.0,187.5,107.5,179.5,107.5,171.5,108.0,163.5,108.5,155.5,109.5,147.5,110.0,140.0,111.0,132.0,111.5,123.5,112.0,115.0,112.5,107.0,113.0,98.5,113.0,90.5,113.5" stroke="black" stroke-width="2" fill="none" />
<polyline points="83.5,118.5,91.5,110.5,100.0,103.5,107.5,96.5,115.5,89.5,124.5,82.5,132.5,75.0" stroke="black" stroke-width="2" fill="none" />
<polyline points="126.5,74.5,109.5,82.5,100.5,90.5,93.5,99.0,88.0,107.0,85.0,115.0,82.5,123.5,81.0,131.0,81.0,139.0,82.0,147.0,85.5,155.0,88.0,163.0,93.0,171.0,99.0,179.0,109.5,187.0,128.5,189.0,131.5,188.0,139.5,190.0,147.5,190.0,156.0,189.5,164.0,186.5,172.0,182.5" stroke="black" stroke-width="2" fill="none" />
<polyline points="211.5,134.0,204.0,134.5,196.0,134.5,188.0,135.0,180.0,135.5,171.5,136.0,164.0,136.0,155.5,137.0,148.0,137.5,140.0,138.0,132.5,138.0,124.5,138.5,117.0,139.5,109.0,141.0,101.0,142.0,92.0,142.5,84.0,143.5" stroke="black" stroke-width="2" fill="none" />
<polyline points="83.5,139.5,92.0,139.0,100.5,138.5,108.5,138.0,116.0,137.0,123.5,136.5,132.0,135.5,140.0,134.5,148.0,134.0,155.5,133.5,163.0,133.0,171.5,132.0,180.0,132.0,188.0,131.0,196.0,129.5,203.5,129.0" stroke="black" stroke-width="2" fill="none" />
<polyline points="203.5,120.0,195.5,120.5,187.5,121.0,179.5,121.5,171.5,121.5,163.5,122.0,155.5,123.0,148.0,123.5,140.0,124.5,132.5,126.0,124.5,127.0,116.5,128.0,108.5,128.5,100.5,129.5,92.5,130.5,84.5,131.0" stroke="black" stroke-width="2" fill="none" />
<polyline points="84.5,128.0,92.5,127.0,100.0,126.0,108.0,125.5,115.5,124.5,123.5,123.5,131.0,122.0,139.0,121.0,147.0,120.0,155.0,119.0,162.5,118.0,171.0,117.5,179.0,117.5,187.5,117.5,195.5,117.5,203.5,118.0,212.0,118.0" stroke="black" stroke-width="2" fill="none" />
<polyline points="222.0,120.0,224.0,128.0,225.0,134.5,225.5,142.5,227.5,150.5,225.0,152.5,232.0,159.5,228.0,163.5,228.0,177.0,229.0,184.0,237.0,184.0,238.5,177.0,240.5,183.5,248.5,179.5,248.0,170.0,255.0,166.0" stroke="black" stroke-width="2" fill="none" />
<polyline points="255.5,177.5,252.5,182.5,244.5,182.5,231.5,177.5,236.5,172.5,247.0,171.5,247.0,163.5,253.5,157.5,248.0,158.5,256.0,150.5,251.0,153.0,249.0,147.5,246.0,150.0,241.0,147.0,237.5,155.0,234.5,150.0,231.0,146.0,234.0,139.0,239.5,131.5,234.5,130.0,226.0,133.5,224.0,136.5" stroke="black" stroke-width="2" fill="none" />
<polyline points="172.5,84.5,164.5,92.0,156.5,98.5,149.0,106.0,141.0,113.0,133.5,120.5,125.0,127.5,117.0,135.0,109.0,142.5,100.5,150.5,92.5,158.0" stroke="black" stroke-width="2" fill="none" />
<polyline points="86.5,154.5,94.5,169.5,102.5,179.5,110.5,185.5,118.5,190.5,126.0,193.5,134.0,195.0,142.0,196.0,150.0,196.0,158.0,195.5,166.0,192.5,174.0,188.5,182.0,183.0,190.0,175.0,197.5,162.5" stroke="black" stroke-width="2" fill="none" />
<polyline points="140.5,74.5,132.5,82.5,124.5,90.0,116.0,97.5,108.0,104.5,99.5,112.0,91.5,119.5,83.0,127.5" stroke="black" stroke-width="2" fill="none" />
<polyline points="83.0,119.0,91.5,100.0,99.5,90.5,107.5,83.5,115.5,79.0,123.5,75.5,131.0,73.5,138.5,72.5,146.5,72.5,154.5,72.5,162.5,74.0,170.5,77.0,178.0,82.0,186.0,88.5,194.0,98.5,202.0,116.0" stroke="black" stroke-width="2" fill="none" />
<polyline points="161.5,79.5,153.5,80.5,145.0,81.0,137.0,81.0,129.5,81.0" stroke="black" stroke-width="2" fill="none" />
<polyline points="122.5,67.0,131.0,66.5,139.0,66.5,147.5,66.5,155.5,66.5,163.5,67.0" stroke="black" stroke-width="2" fill="none" />
<polyline points="148.0,45.0,155.5,45.0,164.0,44.5,172.0,44.0,180.0,43.5,188.0,43.5,195.5,43.0,203.0,42.5,210.5,42.5,218.5,41.5,226.0,41.0,234.5,40.5,242.0,39.5,250.0,38.5,258.0,37.5" stroke="black" stroke-width="2" fill="none" />
<polyline points="258.5,29.0,251.0,29.5,243.0,29.5,235.0,30.0,227.0,30.0,220.0,30.5,212.0,30.5,204.0,31.0,196.0,31.5,188.0,32.0,180.0,33.0,171.5,33.0,163.5,33.5,155.5,34.0,147.5,34.5,139.5,34.5,131.5,35.0" stroke="black" stroke-width="2" fill="none" />
<polyline points="123.0,36.5,115.5,37.0,107.0,37.5" stroke="black" stroke-width="2" fill="none" />
<polyline points="99.5,35.5,92.0,36.0,84.5,36.5,76.5,37.0" stroke="black" stroke-width="2" fill="none" />
<polyline points="83.5,75.5,75.5,76.5,68.0,77.0,60.0,77.0" stroke="black" stroke-width="2" fill="none" />
<polyline points="50.0,79.0,58.0,79.0,66.0,79.0,74.0,79.0" stroke="black" stroke-width="2" fill="none" />
<polyline points="68.5,84.5,60.0,92.0" stroke="black" stroke-width="2" fill="none" />
<polyline points="67.0,90.0,59.5,90.5,51.5,91.0,43.0,92.0,35.5,92.0,27.5,92.0,19.5,92.5,11.5,93.0,4.0,93.5" stroke="black" stroke-width="2" fill="none" />
<polyline points="2.5,91.0,10.5,91.0,19.5,97.0,27.0,101.0,35.0,99.0,43.0,100.0,42.5,94.0,55.0,90.0,62.5,93.5" stroke="black" stroke-width="2" fill="none" />
<polyline points="59.0,98.0,54.0,104.5,47.0,110.5,46.5,106.5,45.5,106.5,54.0,105.5,54.5,97.5" stroke="black" stroke-width="2" fill="none" />
<polyline points="46.0,101.5,38.0,102.0,29.5,102.5" stroke="black" stroke-width="2" fill="none" />
<polyline points="26.0,98.0,34.0,91.0" stroke="black" stroke-width="2" fill="none" />
<polyline points="43.0,89.5,34.0,89.0,25.5,89.0,18.0,88.5" stroke="black" stroke-width="2" fill="none" />
<polyline points="17.5,92.5,25.0,95.5,14.5,98.5,17.5,106.5,11.5,114.0,12.0,122.0,2.0,128.0,8.0,129.5,10.0,135.0,18.0,134.0,26.0,135.5,34.0,135.5,42.5,137.0,50.5,138.5,56.0,134.0,63.0,133.0,63.5,138.0,64.5,146.0,67.0,154.0,70.0,162.0,73.0,170.5,77.0,177.0,84.0,185.5,81.0,192.5" stroke="black" stroke-width="2" fill="none" />
<polyline points="71.0,175.5,63.0,177.5,56.0,175.5,48.0,176.0,40.0,176.0,31.5,176.5,28.5,172.5,22.5,171.5,14.5,171.5,6.5,173.5" stroke="black" stroke-width="2" fill="none" />
<polyline points="3.0,177.0,8.5,175.0,7.5,178.5" stroke="black" stroke-width="2" fill="none" />
<polyline points="3.5,186.5,11.5,187.0" stroke="black" stroke-width="2" fill="none" />
<polyline points="2.0,188.0,10.5,188.5,18.5,187.5,26.5,185.5,34.5,185.0,42.0,185.0,50.5,185.5,58.5,185.5,66.5,185.5,74.0,180.5" stroke="black" stroke-width="2" fill="none" />
<polyline points="56.5,183.5,48.5,182.5,40.5,181.0,32.5,182.0" stroke="black" stroke-width="2" fill="none" />
<polyline points="48.0,189.5,49.5,197.0,49.5,194.5" stroke="black" stroke-width="2" fill="none" />
<polyline points="42.5,221.5,50.5,222.5" stroke="black" stroke-width="2" fill="none" />
<polyline points="61.0,229.0,63.0,243.0,63.5,245.0,61.5,253.0,54.5,254.0,64.5,255.0,72.5,255.0,80.5,255.0" stroke="black" stroke-width="2" fill="none" />
<polyline points="97.0,236.0,104.5,234.0" stroke="black" stroke-width="2" fill="none" />
<polyline points="108.0,223.5,101.0,221.5,93.0,225.5" stroke="black" stroke-width="2" fill="none" />
<polyline points="76.5,241.5,69.5,241.5,71.5,233.5,67.5,230.5,69.0,223.0,71.0,215.0" stroke="black" stroke-width="2" fill="none" />
<polyline points="43.0,245.5,35.5,246.0,27.5,246.5" stroke="black" stroke-width="2" fill="none" />
<polyline points="23.0,231.0,34.5,233.0,41.5,240.5,45.5,244.5,44.0,254.0,47.0,251.0,55.0,249.0,62.5,249.0" stroke="black" stroke-width="2" fill="none" />
<polyline points="52.5,250.0,45.0,250.0,37.0,251.5,29.5,252.5,21.5,253.5,13.5,253.5,5.0,253.5" stroke="black" stroke-width="2" fill="none" />
<polyline points="1.5,248.5,5.5,242.5,17.5,238.0,18.0,246.0" stroke="black" stroke-width="2" fill="none" />
<polyline points="14.5,249.0,10.5,246.0,2.0,246.0" stroke="black" stroke-width="2" fill="none" />
<polyline points="2.5,232.5,10.5,230.0,14.0,230.0,19.0,231.5,16.0,239.0,16.5,247.0,8.5,248.0,8.5,253.0,16.5,255.0,19.0,256.0" stroke="black" stroke-width="2" fill="none" />
<polyline points="10.0,232.0,18.0,233.0,23.5,235.0,25.5,239.5,24.5,247.5,26.5,247.5,25.5,239.5,33.5,231.0,41.5,235.0,43.5,240.0,50.5,242.0,58.5,242.0,68.0,244.5" stroke="black" stroke-width="2" fill="none" />
<polyline points="107.0,203.0,94.0,195.0,80.0,189.0,71.5,191.0,63.5,194.0,55.5,194.0,52.5,186.0,44.5,186.0,36.5,186.0,29.0,185.0,23.0,175.0,15.0,175.0,18.0,175.0,25.0,170.0,28.5,162.5,20.5,157.5,19.0,159.5" stroke="black" stroke-width="2" fill="none" />
<polyline points="27.0,163.0,35.5,157.5,38.0,147.5,46.0,146.5" stroke="black" stroke-width="2" fill="none" />
<polyline points="44.5,151.5,52.5,150.5,60.0,149.5,68.0,148.5" stroke="black" stroke-width="2" fill="none" />
<polyline points="61.0,141.0,53.0,142.0" stroke="black" stroke-width="2" fill="none" />
<polyline points="20.0,140.5,12.5,141.0,4.5,142.0" stroke="black" stroke-width="2" fill="none" />
<polyline points="2.5,143.5,10.5,142.5,18.5,143.0,30.5,139.0" stroke="black" stroke-width="2" fill="none" />
<polyline points="12.5,132.0,4.0,132.5" stroke="black" stroke-width="2" fill="none" />
<polyline points="3.0,134.0,11.0,138.0,19.0,138.5,27.0,141.5,29.5,145.0,24.0,147.0" stroke="black" stroke-width="2" fill="none" />
<polyline points="21.0,145.5,13.5,147.0,6.0,144.0,8.0,150.0" stroke="black" stroke-width="2" fill="none" />
<polyline points="9.5,114.0,17.0,112.0,24.0,109.0,35.0,112.0,34.5,106.0,34.5,104.0,42.5,107.0,47.5,97.0" stroke="black" stroke-width="2" fill="none" />
<polyline points="39.5,106.5,44.5,115.0,55.5,115.5,57.5,108.5,65.0,108.0" stroke="black" stroke-width="2" fill="none" />
<polyline points="86.0,99.5,93.5,99.5,101.0,99.0,108.5,98.5,116.5,98.0,124.0,97.5,131.5,97.0,139.0,96.5,146.5,96.5,154.0,96.0,162.5,96.0,170.0,95.5,178.0,95.5,186.0,95.5,194.0,95.0,201.5,94.0" stroke="black" stroke-width="2" fill="none" />
<polyline points="248.5,73.5,247.5,69.5,239.5,72.0,231.5,71.5,223.5,71.0,218.0,75.0,207.0,66.5,202.0,71.0,194.0,72.0,185.5,66.0,177.5,62.5,169.5,58.5,161.5,56.5,153.5,54.5,145.5,54.5,137.5,54.5,130.0,56.0,121.5,58.0,113.5,59.5,105.0,63.5,97.0,67.5,89.5,73.0,81.5,82.0,73.5,88.0,65.0,88.0,57.0,88.0,49.5,88.0,42.0,88.0,34.0,88.0,26.0,88.0,18.0,88.0,10.5,88.0,2.5,88.0" stroke="black" stroke-width="2" fill="none" />
<polyline points="2.5,85.5,10.0,85.5,18.5,85.0,26.5,85.0,34.5,85.0,39.5,84.5,47.5,84.5,55.5,84.5,64.0,84.5,71.5,84.5" stroke="black" stroke-width="2" fill="none" />
<polyline points="81.0,79.0,73.0,80.0,65.5,81.0,57.5,82.0,49.5,83.0,42.0,83.0,34.5,83.5,27.0,83.0,19.0,83.0,10.5,83.0,2.0,83.5" stroke="black" stroke-width="2" fill="none" />
<polyline points="4.5,102.0,12.0,101.5" stroke="black" stroke-width="2" fill="none" />
<polyline points="3.5,104.0,11.5,105.0,18.0,108.0,20.0,101.0,27.5,109.0,27.5,114.0,35.0,115.0,42.5,116.0,50.5,114.5" stroke="black" stroke-width="2" fill="none" />
<polyline points="26.0,106.0,19.0,115.0,14.0,122.0,11.0,110.0,3.0,109.5" stroke="black" stroke-width="2" fill="none" />
<polyline points="3.0,111.0,7.5,119.0,11.5,129.0,16.5,136.5,11.5,143.0,22.5,151.0,26.5,144.0,33.5,142.5,40.0,146.5,45.0,149.5,51.0,150.5,57.5,145.5" stroke="black" stroke-width="2" fill="none" />
<polyline points="32.5,211.5,28.5,216.0,27.5,210.5,17.0,208.5,9.0,211.5" stroke="black" stroke-width="2" fill="none" />
<polyline points="9.5,204.5,17.0,204.5" stroke="black" stroke-width="2" fill="none" />
<polyline points="8.5,202.0,16.5,202.0,25.5,203.5,27.0,206.5,37.0,199.5,37.5,212.5,44.5,218.5,44.0,214.0" stroke="black" stroke-width="2" fill="none" />
<polyline points="97.5,181.0,91.0,173.0,86.0,165.0,81.0,157.5,79.0,149.5,77.5,141.5,77.5,133.5,78.0,125.5,79.0,118.0,81.5,110.5,83.5,102.5,90.5,94.5,96.0,86.0" stroke="black" stroke-width="2" fill="none" />
<polyline points="117.5,65.5,102.5,73.5,92.5,81.0,86.5,89.0,80.0,97.5,77.0,105.5,78.0,102.5,86.0,89.5,94.0,79.5,102.0,73.5,110.0,69.5,118.0,65.5,126.5,62.5,134.5,62.0,142.5,60.5,150.5,61.5,158.5,62.5" stroke="black" stroke-width="2" fill="none" />
<polyline points="59.0,59.5,51.0,59.0,43.5,59.5" stroke="black" stroke-width="2" fill="none" />
<polyline points="53.0,43.5,45.5,44.0,37.5,44.5,29.5,45.0,21.0,45.5,12.5,46.0" stroke="black" stroke-width="2" fill="none" />
<polyline points="17.0,23.5,25.0,23.5,33.0,22.5,41.0,23.0" stroke="black" stroke-width="2" fill="none" />
<polyline points="45.0,37.5,37.0,39.0" stroke="black" stroke-width="2" fill="none" />
</svg>