<svg xmlns="http://www.w3.org/2000/svg" version="1.1"><polyline points="118.5,57.0,100.5,65.5,90.0,73.0,83.0,81.0,74.0,92.0,71.0,100.0,64.5,108.0,64.0,108.5,64.5,118.5,60.5,118.5,62.0,113.0,73.0,97.0" stroke="black" stroke-width="2" fill="none" />
<polyline points="68.5,101.5,60.5,102.5,52.5,103.0" stroke="black" stroke-width="2" fill="none" />
<polyline points="51.0,108.5,59.5,108.0,68.0,107.5" stroke="black" stroke-width="2" fill="none" />
<polyline points="68.0,106.5,63.0,114.5" stroke="black" stroke-width="2" fill="none" />
<polyline points="50.5,114.5,42.5,116.5,34.5,115.5,27.0,115.0,27.0,110.0,19.0,102.5,17.0,109.5,10.0,106.0,2.0,105.0" stroke="black" stroke-width="2" fill="none" />
<polyline points="5.0,102.5,13.0,102.0" stroke="black" stroke-width="2" fill="none" />
<polyline points="19.0,94.5,26.5,97.5,15.5,100.5,18.5,108.0,12.5,116.0,13.5,124.0,4.0,129.5,10.0,130.5,12.0,135.0,20.0,134.0,28.0,135.0,36.0,135.0,44.0,137.0,52.0,139.0,57.0,135.5,63.5,134.5,63.5,140.0,64.0,148.0,66.0,156.0,68.5,164.5,71.5,172.5,75.5,179.0,82.0,186.5,79.0,193.5" stroke="black" stroke-width="2" fill="none" />
<polyline points="85.0,188.0,77.5,188.5,70.0,189.0,62.0,189.0,54.0,190.0" stroke="black" stroke-width="2" fill="none" />
<polyline points="57.5,194.0,65.0,186.5" stroke="black" stroke-width="2" fill="none" />
<polyline points="68.5,185.5,76.5,185.5" stroke="black" stroke-width="2" fill="none" />
<polyline points="66.5,177.5,74.5,170.0" stroke="black" stroke-width="2" fill="none" />
<polyline points="67.0,172.5,58.5,180.0" stroke="black" stroke-width="2" fill="none" />
<polyline points="51.5,179.5,59.0,172.0,67.0,164.5" stroke="black" stroke-width="2" fill="none" />
<polyline points="67.5,165.5,59.5,166.0,51.5,166.5,43.5,167.0,35.5,167.5" stroke="black" stroke-width="2" fill="none" />
<polyline points="35.0,173.5,43.5,173.0,51.5,173.0,59.0,172.5,67.0,172.0,75.0,171.5" stroke="black" stroke-width="2" fill="none" />
<polyline points="75.5,182.0,68.0,182.5,60.5,183.0,52.5,183.5,44.5,184.0" stroke="black" stroke-width="2" fill="none" />
<polyline points="44.0,178.0,52.0,170.0,59.5,162.0,67.0,154.5" stroke="black" stroke-width="2" fill="none" />
<polyline points="68.5,155.5,60.0,155.5,52.0,156.5,44.0,157.5,35.5,158.0" stroke="black" stroke-width="2" fill="none" />
<polyline points="38.5,160.5,30.5,162.5" stroke="black" stroke-width="2" fill="none" />
<polyline points="27.0,162.0,35.0,157.0,37.0,147.0,45.0,146.0" stroke="black" stroke-width="2" fill="none" />
<polyline points="45.0,151.5,52.5,150.5,60.0,149.5,68.0,148.5" stroke="black" stroke-width="2" fill="none" />
<polyline points="67.0,158.5,75.0,176.5,83.0,186.0,90.5,194.0,98.0,199.5,106.0,203.5,114.0,207.0,122.0,210.0,130.0,210.5,138.0,211.5,146.0,210.5,154.5,209.5,162.5,209.0,171.0,206.0,179.5,202.0,188.0,197.0,196.0,190.0,204.0,182.0,212.0,170.0" stroke="black" stroke-width="2" fill="none" />
<polyline points="212.5,174.0,220.5,173.0,228.5,172.0,237.0,171.5,245.0,171.0,253.5,170.5,261.5,170.0" stroke="black" stroke-width="2" fill="none" />
<polyline points="261.0,154.0,253.0,154.5,245.0,155.0,236.5,155.5,228.0,156.0,219.5,156.5" stroke="black" stroke-width="2" fill="none" />
<polyline points="218.0,148.5,226.5,148.0,234.5,148.0,243.0,148.0,252.0,147.0,260.5,146.5" stroke="black" stroke-width="2" fill="none" />
<polyline points="255.0,152.0,255.0,160.0,254.0,174.5" stroke="black" stroke-width="2" fill="none" />
<polyline points="235.0,171.5,227.0,179.0,219.0,186.0,210.5,193.0,202.0,200.5" stroke="black" stroke-width="2" fill="none" />
<polyline points="210.0,202.5,218.5,194.5,226.5,186.5,235.0,179.0" stroke="black" stroke-width="2" fill="none" />
<polyline points="230.0,175.5,238.0,173.0" stroke="black" stroke-width="2" fill="none" />
<polyline points="235.5,163.0,227.0,170.0,219.0,177.0,210.5,184.0,202.0,191.5,194.0,199.0,186.0,207.0,178.5,215.0,171.0,223.0,164.0,230.5,156.0,238.5,148.0,245.5" stroke="black" stroke-width="2" fill="none" />
<polyline points="164.0,250.5,172.0,243.0,180.0,235.5,188.0,228.0,196.0,220.5,204.5,213.0" stroke="black" stroke-width="2" fill="none" />
<polyline points="196.5,211.0,188.5,218.5,181.0,226.0,172.5,234.0,164.0,241.5,156.0,250.0" stroke="black" stroke-width="2" fill="none" />
<polyline points="179.5,248.0,187.5,240.0,195.5,232.5,204.0,224.5,212.0,216.5" stroke="black" stroke-width="2" fill="none" />
<polyline points="212.5,210.0,204.5,218.0,195.5,226.5,187.0,234.0,179.5,241.5,171.5,249.0" stroke="black" stroke-width="2" fill="none" />
<polyline points="140.0,247.0,148.5,239.5,156.5,232.5,165.0,225.0,173.0,217.5,181.0,210.0" stroke="black" stroke-width="2" fill="none" />
<polyline points="173.0,211.5,165.0,219.0,156.5,226.5,148.5,233.5,141.0,241.0" stroke="black" stroke-width="2" fill="none" />
<polyline points="133.0,243.0,141.0,235.5,149.5,227.5,157.0,220.0" stroke="black" stroke-width="2" fill="none" />
<polyline points="149.5,221.0,141.5,227.5,133.5,234.5,125.5,242.0" stroke="black" stroke-width="2" fill="none" />
<polyline points="125.0,234.5,133.0,227.0,140.5,219.0" stroke="black" stroke-width="2" fill="none" />
<polyline points="130.5,221.5,122.5,228.5" stroke="black" stroke-width="2" fill="none" />
<polyline points="123.0,221.5,114.5,228.5" stroke="black" stroke-width="2" fill="none" />
<polyline points="108.5,230.0,116.0,229.5,124.0,228.5,132.0,228.5,140.0,228.5,148.0,227.5,156.0,226.5,164.0,225.5,171.5,224.5,179.5,224.0,187.5,223.5,196.0,223.0,204.5,222.5,213.0,222.0" stroke="black" stroke-width="2" fill="none" />
<polyline points="211.0,224.5,219.0,220.0,215.0,222.5,210.5,230.5,206.5,238.5,201.0,242.5,192.0,255.5" stroke="black" stroke-width="2" fill="none" />
<polyline points="195.5,250.0,187.5,250.5,180.0,251.0,172.5,251.0,164.0,251.5,155.5,252.5,147.0,252.5,138.5,253.0,130.5,253.0" stroke="black" stroke-width="2" fill="none" />
<polyline points="115.0,245.0,123.5,244.5,131.5,244.0,139.5,244.0,148.0,243.5,156.5,243.5,165.0,243.0,173.0,243.0,180.5,242.5,188.5,241.5,197.0,241.5,205.0,241.0" stroke="black" stroke-width="2" fill="none" />
<polyline points="208.0,247.5,206.0,250.5,210.0,253.5,207.5,252.0,216.5,241.5" stroke="black" stroke-width="2" fill="none" />
<polyline points="222.0,233.5,217.0,241.5,214.5,246.5,217.0,254.5" stroke="black" stroke-width="2" fill="none" />
<polyline points="213.5,230.5,206.0,231.0,198.5,231.0,190.5,231.5,181.5,232.5,173.0,233.5,165.0,234.0,157.0,234.5,148.0,234.5,139.5,235.0,131.0,235.5,122.5,235.5,115.0,236.0" stroke="black" stroke-width="2" fill="none" />
<polyline points="116.0,220.0,124.0,212.5" stroke="black" stroke-width="2" fill="none" />
<polyline points="116.0,212.0,108.0,219.5" stroke="black" stroke-width="2" fill="none" />
<polyline points="98.5,221.5,107.0,221.5,115.5,220.5,124.0,219.5,132.0,218.5,140.0,218.0,148.5,217.0,156.5,217.0,164.5,217.0,172.5,217.0,180.5,216.5,188.0,216.0,196.5,215.5,204.5,215.0,212.5,214.5,220.5,214.5" stroke="black" stroke-width="2" fill="none" />
<polyline points="227.0,203.0,219.0,203.5,210.5,204.5,203.0,205.0,195.0,205.0,187.0,205.5,179.0,205.5,171.0,206.0" stroke="black" stroke-width="2" fill="none" />
<polyline points="188.0,197.0,196.0,196.5,204.0,196.5,212.0,196.0,219.5,195.0,227.0,194.5,234.5,194.0" stroke="black" stroke-width="2" fill="none" />
<polyline points="228.5,185.0,221.0,185.5,213.0,186.0" stroke="black" stroke-width="2" fill="none" />
<polyline points="212.5,179.0,220.0,172.0,228.5,164.5" stroke="black" stroke-width="2" fill="none" />
<polyline points="221.0,164.5,229.0,156.5" stroke="black" stroke-width="2" fill="none" />
<polyline points="227.5,169.0,220.0,169.0" stroke="black" stroke-width="2" fill="none" />
<polyline points="213.0,166.0,221.0,165.0,229.0,164.5,237.0,164.0,245.0,164.0,252.5,163.5,260.5,163.5" stroke="black" stroke-width="2" fill="none" />
<polyline points="251.5,133.5,243.5,134.0" stroke="black" stroke-width="2" fill="none" />
<polyline points="239.5,129.0,247.5,132.0,251.5,136.0,253.5,144.0,236.5,152.0,238.5,157.5,232.5,166.5,241.0,166.5,245.0,171.5,251.0,165.0" stroke="black" stroke-width="2" fill="none" />
<polyline points="229.0,176.5,221.0,177.0" stroke="black" stroke-width="2" fill="none" />
<polyline points="203.0,182.5,210.5,182.5,218.5,182.0,226.5,181.0,235.0,180.0,243.0,179.5,250.5,179.5,258.5,179.0" stroke="black" stroke-width="2" fill="none" />
<polyline points="235.5,187.5,228.0,188.0,220.0,188.5,211.5,189.0,203.5,190.0,195.0,190.5" stroke="black" stroke-width="2" fill="none" />
<polyline points="202.5,187.5,210.5,187.5,218.0,187.5,226.0,187.5,233.5,187.5,241.5,187.5,250.0,188.5,252.0,191.0" stroke="black" stroke-width="2" fill="none" />
<polyline points="241.0,204.5,233.0,206.5" stroke="black" stroke-width="2" fill="none" />
<polyline points="228.0,205.0,219.5,204.5,211.5,205.0,203.5,205.0,195.5,205.5,187.0,205.5,179.0,206.0,171.0,207.0,163.5,207.5,155.0,208.5,146.5,209.5,138.5,211.0,130.0,212.0,122.5,213.0,114.5,213.5,106.0,214.5,97.5,215.0" stroke="black" stroke-width="2" fill="none" />
<polyline points="98.5,206.5,98.5,205.0,99.0,208.0,100.0,216.5,101.5,224.0,103.5,229.0,106.5,237.5,116.0,236.5,115.0,233.5,111.0,245.0,111.5,253.0" stroke="black" stroke-width="2" fill="none" />
<polyline points="106.0,234.5,98.0,236.5" stroke="black" stroke-width="2" fill="none" />
<polyline points="93.5,228.0,101.0,224.0,108.0,226.0" stroke="black" stroke-width="2" fill="none" />
<polyline points="107.0,205.0,99.0,205.5" stroke="black" stroke-width="2" fill="none" />
<polyline points="88.5,216.0,92.0,218.0,92.0,226.0,99.0,234.0,101.0,243.0,102.0,251.0,104.0,250.0,113.5,253.0,121.5,254.0,129.0,257.0,136.0,257.0,144.0,256.0,149.0,251.0,157.0,253.0,165.0,253.0,172.5,253.0,180.5,248.5,188.0,248.5,196.5,245.5,203.0,247.5,204.0,254.5,215.0,253.5" stroke="black" stroke-width="2" fill="none" />
<polyline points="251.5,233.0,257.0,228.0" stroke="black" stroke-width="2" fill="none" />
<polyline points="203.5,156.0,195.5,164.0,188.0,171.5,180.0,179.0,172.0,186.5" stroke="black" stroke-width="2" fill="none" />
<polyline points="172.5,185.5,164.0,186.5,155.5,187.0,147.5,187.5,139.0,188.0,131.0,188.5,123.0,189.0,115.0,189.0" stroke="black" stroke-width="2" fill="none" />
<polyline points="113.5,182.5,121.5,175.5,130.5,168.0,138.5,160.5,147.0,153.5,155.0,146.0,163.0,138.5,171.0,130.0,179.0,122.0,187.0,114.5,195.0,107.0" stroke="black" stroke-width="2" fill="none" />
<polyline points="193.5,100.5,185.5,107.5,178.5,115.0,171.0,122.5,163.0,130.0,155.0,138.0,146.5,144.5,138.0,151.0,129.5,158.0,121.0,165.0,113.0,172.5,105.0,180.5" stroke="black" stroke-width="2" fill="none" />
<polyline points="100.0,182.0,108.5,182.0,116.5,181.5,124.5,180.5,132.0,180.0,140.5,179.5,148.5,179.0,156.5,178.5,164.5,177.5,171.5,176.5,179.5,176.0,187.5,176.0" stroke="black" stroke-width="2" fill="none" />
<polyline points="189.0,172.5,181.0,173.0,173.0,173.5,164.5,174.0,156.0,174.5,147.5,175.0,139.5,175.0,131.5,175.5,123.5,176.0,115.5,176.5,107.0,176.5,99.5,177.0" stroke="black" stroke-width="2" fill="none" />
<polyline points="98.0,175.0,106.0,167.5,114.0,159.5,122.5,152.0,130.5,144.0,139.0,136.0,147.0,128.0,155.0,120.0,163.0,112.0,171.0,104.5,179.0,97.5,187.0,90.0" stroke="black" stroke-width="2" fill="none" />
<polyline points="194.5,91.0,186.5,98.5,178.5,106.0,170.5,114.0,163.0,122.0,155.0,130.0,146.5,137.0,139.0,144.0,131.0,151.0,123.0,158.0,114.5,165.0,106.5,173.0" stroke="black" stroke-width="2" fill="none" />
<polyline points="100.0,174.0,108.0,173.5,116.5,173.0,124.5,172.5,132.0,172.0,140.0,171.5,148.0,171.5,156.0,171.0,164.0,170.0,172.5,169.5,180.5,169.0,188.5,168.0,196.5,167.0" stroke="black" stroke-width="2" fill="none" />
<polyline points="204.5,148.5,196.0,156.0,188.0,163.5,179.5,171.0,171.0,178.0,163.0,184.5" stroke="black" stroke-width="2" fill="none" />
<polyline points="157.0,184.5,165.5,178.0,173.0,171.0,181.0,163.5,189.0,156.0,196.5,148.0,204.5,140.5" stroke="black" stroke-width="2" fill="none" />
<polyline points="205.0,132.5,196.5,140.0,188.0,147.5,179.5,155.0,171.0,162.5,163.0,169.5,155.0,177.0,147.5,184.5,140.0,192.0" stroke="black" stroke-width="2" fill="none" />
<polyline points="132.0,191.0,140.0,183.5,148.0,176.0,156.0,169.0,164.0,161.5,172.0,154.0,180.5,146.5,188.0,139.0,196.0,131.0,204.0,123.5" stroke="black" stroke-width="2" fill="none" />
<polyline points="204.5,115.5,196.5,123.0,189.0,130.5,181.0,138.5,172.5,146.5,163.5,154.5,156.0,161.5,148.0,168.5,140.5,175.5,132.5,183.0,124.5,190.5" stroke="black" stroke-width="2" fill="none" />
<polyline points="130.0,189.5,138.0,191.5,146.0,192.0,154.0,191.5,161.5,189.5,170.0,185.5,168.0,183.5" stroke="black" stroke-width="2" fill="none" />
<polyline points="162.0,181.5,153.5,182.5,145.5,183.5,138.0,184.5,130.5,185.5,123.0,186.0,115.5,187.0,107.5,187.5" stroke="black" stroke-width="2" fill="none" />
<polyline points="123.5,184.0,131.5,176.0,140.0,168.5,147.5,160.5,155.0,153.0,162.5,145.5,171.0,137.5,179.5,129.5,187.5,122.5,195.5,115.5,203.5,108.5" stroke="black" stroke-width="2" fill="none" />
<polyline points="220.5,111.0,228.5,110.5,237.0,110.0,245.0,109.0,253.0,108.0" stroke="black" stroke-width="2" fill="none" />
<polyline points="251.5,93.5,244.0,94.5,236.0,95.0" stroke="black" stroke-width="2" fill="none" />
<polyline points="237.5,87.5,246.0,87.5,248.0,90.5" stroke="black" stroke-width="2" fill="none" />
<polyline points="244.5,100.0,236.5,100.5,228.0,101.0,220.5,101.5" stroke="black" stroke-width="2" fill="none" />
<polyline points="219.0,91.0,227.0,90.5" stroke="black" stroke-width="2" fill="none" />
<polyline points="234.0,85.0,242.0,85.0,250.5,85.5" stroke="black" stroke-width="2" fill="none" />
<polyline points="251.5,67.0,258.5,59.5" stroke="black" stroke-width="2" fill="none" />
<polyline points="228.5,67.0,220.0,74.5" stroke="black" stroke-width="2" fill="none" />
<polyline points="212.5,78.0,220.0,78.0,228.0,77.5,235.5,77.0,243.0,77.0,251.0,77.0,258.5,76.5" stroke="black" stroke-width="2" fill="none" />
<polyline points="261.0,114.5,253.0,115.0,245.5,115.5,238.0,116.0,230.5,116.0" stroke="black" stroke-width="2" fill="none" />
<polyline points="223.5,119.5,231.5,120.5,241.5,120.0,249.0,120.0,253.5,126.0" stroke="black" stroke-width="2" fill="none" />
<polyline points="254.5,128.5,246.5,127.5" stroke="black" stroke-width="2" fill="none" />
<polyline points="244.5,124.0,253.0,121.0" stroke="black" stroke-width="2" fill="none" />
<polyline points="237.0,134.5,229.0,134.5" stroke="black" stroke-width="2" fill="none" />
<polyline points="226.0,136.0,228.0,133.0,236.0,130.0,241.0,132.0,235.0,140.5,231.5,147.5,234.5,152.0,237.0,157.0,240.0,149.0,244.5,152.5,247.5,149.5,249.5,155.0,254.0,151.5,246.0,159.5,251.5,158.5,245.5,164.5,245.5,172.0,236.5,172.5,231.5,177.5,245.0,182.5,253.0,182.5,256.0,177.5" stroke="black" stroke-width="2" fill="none" />
<polyline points="251.5,138.5,243.5,139.0,236.0,139.5,228.0,140.0,220.5,140.5" stroke="black" stroke-width="2" fill="none" />
<polyline points="226.0,142.5,234.0,141.0,238.0,136.0,246.0,134.0,254.0,136.5" stroke="black" stroke-width="2" fill="none" />
<polyline points="260.5,123.5,252.5,124.0,245.0,125.0,237.0,126.0,229.0,126.5" stroke="black" stroke-width="2" fill="none" />
<polyline points="223.0,120.5,225.0,128.5,226.0,134.5,226.0,142.5,228.0,150.5,225.5,152.5,232.5,159.0,228.0,162.5,228.5,176.5,229.0,183.5,237.5,183.5,239.5,176.5,241.5,183.5,249.5,179.5,249.5,170.5,256.5,166.5" stroke="black" stroke-width="2" fill="none" />
<polyline points="251.5,145.5,246.5,137.0,243.0,144.0,235.5,146.5,238.5,143.5,247.0,139.0,237.0,138.0" stroke="black" stroke-width="2" fill="none" />
<polyline points="197.0,163.5,189.0,164.0,181.0,165.0,172.5,165.5,164.5,166.0,156.5,167.0,148.5,167.5,140.5,168.0,132.5,168.5,124.0,169.0,116.0,169.5,108.0,170.5,99.5,171.0" stroke="black" stroke-width="2" fill="none" />
<polyline points="98.5,167.0,106.5,160.0,114.5,152.0,122.0,144.0,130.0,136.0,139.0,128.0,147.5,120.0,156.0,112.0,164.0,104.0,172.5,96.5,180.0,89.5,188.5,82.0" stroke="black" stroke-width="2" fill="none" />
<polyline points="187.5,82.0,196.0,91.5,204.0,106.5" stroke="black" stroke-width="2" fill="none" />
<polyline points="197.0,99.5,189.0,99.5,180.5,100.0,173.0,101.0,164.5,101.5,156.5,102.5,148.5,103.5,140.0,104.0,132.0,105.0,124.0,106.0,116.0,106.5,108.5,107.5,100.5,108.0" stroke="black" stroke-width="2" fill="none" />
<polyline points="91.5,105.0,100.0,97.5,108.0,89.5,116.0,82.5" stroke="black" stroke-width="2" fill="none" />
<polyline points="116.5,89.5,124.0,89.0,132.0,88.5,139.5,87.5,147.0,87.0,155.5,86.5,163.0,85.5,171.0,85.0,179.0,84.5" stroke="black" stroke-width="2" fill="none" />
<polyline points="181.0,83.0,173.5,90.0,165.0,97.5,157.0,104.5,149.0,112.0,141.0,119.0,132.5,127.0,123.5,135.0,115.0,143.0,107.0,150.5,99.0,158.0,90.5,165.0" stroke="black" stroke-width="2" fill="none" />
<polyline points="92.5,165.5,100.5,165.5,108.0,165.0,116.0,164.5,124.0,164.5,132.0,164.0,139.5,164.0,147.5,163.5,155.5,163.0,163.0,162.0,171.0,161.5,179.5,161.0,187.5,160.0,196.0,159.5,204.0,159.0" stroke="black" stroke-width="2" fill="none" />
<polyline points="196.0,154.0,187.5,154.5,180.0,155.5,172.0,156.5,164.0,157.0,156.5,158.0,149.0,158.5,141.0,159.5,133.5,160.5,125.5,161.0,117.0,161.0,109.0,161.5,100.5,162.0,92.5,163.0" stroke="black" stroke-width="2" fill="none" />
<polyline points="91.0,157.0,99.0,150.0,107.0,142.5,115.0,135.0,123.0,127.5,131.0,119.5,139.0,112.5,147.5,105.0,156.0,97.5,164.0,90.0,172.0,82.5" stroke="black" stroke-width="2" fill="none" />
<polyline points="171.5,74.5,163.0,82.5,155.0,90.0,146.5,97.5,138.5,104.5,131.0,112.5,122.5,119.5,114.0,127.5,106.0,135.0,97.5,142.5,89.5,149.5" stroke="black" stroke-width="2" fill="none" />
<polyline points="85.0,150.5,93.0,150.0,100.5,149.5,108.5,148.5,116.5,148.5,124.0,148.0,131.5,147.0,140.0,147.0,147.5,146.5,155.0,146.0,163.0,146.0,171.0,145.0,179.5,144.0,187.5,143.0,195.0,142.5,203.0,142.0" stroke="black" stroke-width="2" fill="none" />
<polyline points="204.5,145.5,197.0,146.0,189.5,147.0,181.5,148.5,173.5,149.0,165.5,149.5,157.5,149.5,149.5,150.0,141.0,150.5,133.0,151.5,124.5,151.5,116.0,152.0,108.0,153.0,100.0,153.5,92.0,154.0" stroke="black" stroke-width="2" fill="none" />
<polyline points="86.0,155.0,94.0,170.0,102.0,180.0,110.0,186.0,118.5,191.0,126.5,194.5,135.0,195.5,143.0,196.5,151.0,196.5,159.0,195.5,167.0,192.5,175.0,188.5,183.0,183.5,191.0,175.0,199.0,162.0" stroke="black" stroke-width="2" fill="none" />
<polyline points="202.5,151.5,195.0,152.0,187.0,152.0,179.0,152.5,171.0,152.5,163.0,153.0,155.0,153.5,147.0,154.0,139.0,155.0,131.0,155.5,123.0,155.5,116.0,156.0,108.5,156.0,101.0,156.5,93.5,156.5,86.0,156.5" stroke="black" stroke-width="2" fill="none" />
<polyline points="83.5,151.5,91.0,144.0,99.5,136.5,107.5,129.0,115.5,121.0,123.5,113.0,132.0,105.5,140.5,98.5,148.5,91.0,156.5,83.0,165.0,75.0" stroke="black" stroke-width="2" fill="none" />
<polyline points="164.0,77.0,179.0,85.0,189.5,93.0,196.0,101.0,200.5,108.5,204.0,116.5,205.0,124.5,206.0,132.5,205.0,140.5,204.0,149.0,201.5,157.0,197.5,165.0,193.0,172.5,186.0,181.0,175.5,189.0" stroke="black" stroke-width="2" fill="none" />
<polyline points="175.0,181.5,160.0,189.5" stroke="black" stroke-width="2" fill="none" />
<polyline points="205.0,137.0,196.5,138.0,188.0,139.0,179.5,139.5,171.0,140.5,162.5,141.0,155.0,141.5,147.0,141.5,139.5,141.5,131.5,142.0,124.0,142.0,116.5,142.5,108.5,143.5,101.0,144.0,93.0,144.5,85.5,145.5" stroke="black" stroke-width="2" fill="none" />
<polyline points="83.5,144.0,92.0,136.5,100.0,129.0,108.5,121.0,116.5,113.5,124.5,106.0,132.5,99.0,141.0,91.5,149.0,84.0,157.0,77.0" stroke="black" stroke-width="2" fill="none" />
<polyline points="148.0,75.5,140.0,83.0,132.0,91.0,124.5,98.5,116.5,106.5,108.0,114.5,99.5,121.5,91.5,128.5,83.5,135.5" stroke="black" stroke-width="2" fill="none" />
<polyline points="82.0,136.0,90.0,135.0,98.0,134.0,106.5,133.5,114.5,133.0,123.0,132.5,131.5,131.5,140.0,131.0,148.0,130.0,156.0,129.5,163.5,129.0,171.5,129.0,179.0,128.0,187.0,127.5,195.5,127.0,203.5,126.5,211.5,125.5" stroke="black" stroke-width="2" fill="none" />
<polyline points="203.5,114.0,196.0,115.0,188.0,115.5,180.0,115.5,172.0,116.0,164.5,117.0,156.5,117.0,148.5,118.0,140.5,118.5,132.0,119.0,123.5,120.0,114.5,120.5,106.0,121.0,98.0,121.0,90.0,121.5" stroke="black" stroke-width="2" fill="none" />
<polyline points="83.0,121.0,90.5,113.5,98.0,106.5,106.0,98.5,114.5,91.0,122.5,84.0,130.5,76.5" stroke="black" stroke-width="2" fill="none" />
<polyline points="126.0,75.5,108.5,83.5,99.5,91.5,93.0,99.5,88.0,107.5,85.0,116.0,83.0,123.5,82.0,132.0,82.0,140.0,83.5,147.5,86.5,155.5,89.5,163.5,94.5,171.5,100.5,179.0,111.0,187.0,130.0,189.5,133.0,188.0,141.0,190.0,149.5,190.0,157.5,189.5,165.5,186.5,173.5,182.5" stroke="black" stroke-width="2" fill="none" />
<polyline points="188.0,93.0,180.5,93.0,172.0,93.0,164.0,93.5,156.0,94.0,148.0,94.5,140.0,95.0,132.0,96.0,123.5,96.5,115.5,97.0,107.0,97.5,99.0,98.0" stroke="black" stroke-width="2" fill="none" />
<polyline points="94.0,91.5,102.0,91.5,110.0,91.5,117.5,91.5,124.5,91.5,132.0,91.5,139.5,92.0,147.0,91.5,154.5,91.0,162.5,90.5,170.0,90.5,178.0,90.0,186.0,89.5,193.5,89.0" stroke="black" stroke-width="2" fill="none" />
<polyline points="186.5,81.5,179.0,81.5,171.0,82.0,162.5,82.5,154.5,82.5,147.0,83.0,140.0,83.5,132.0,84.0,124.0,84.5,116.0,85.5,108.5,85.5,100.5,86.0" stroke="black" stroke-width="2" fill="none" />
<polyline points="96.0,86.5,89.5,95.0,83.0,103.0,81.0,110.5,78.5,118.0,77.5,126.0,78.0,133.5,78.0,142.0,80.0,150.5,82.0,158.5,87.0,166.0,91.5,174.5,98.5,182.5" stroke="black" stroke-width="2" fill="none" />
<polyline points="97.0,180.0,89.0,170.0,80.5,158.0" stroke="black" stroke-width="2" fill="none" />
<polyline points="85.5,141.5,93.5,141.0,101.5,141.0,109.0,140.5,117.0,139.5,124.5,139.0,132.0,138.5,140.0,138.0,147.5,137.0,155.5,136.5,163.5,136.0,171.5,135.5,179.5,135.0,187.5,134.5,195.0,133.5,203.0,133.0,211.5,133.0" stroke="black" stroke-width="2" fill="none" />
<polyline points="196.0,107.5,188.0,108.0,180.0,108.5,172.5,109.0,164.5,109.5,156.0,110.0,147.5,110.5,139.0,110.5,131.0,111.0,123.5,111.5,115.5,112.0,107.5,112.5,99.5,113.0,91.5,114.0" stroke="black" stroke-width="2" fill="none" />
<polyline points="83.0,118.0,91.0,117.5,98.5,116.5,106.0,115.5,113.5,115.5,121.5,115.0,129.5,114.5,138.0,113.5,146.5,113.5,155.0,113.0,163.0,112.0,171.5,111.5,179.5,111.0,187.5,111.0,196.0,110.5,204.5,110.5" stroke="black" stroke-width="2" fill="none" />
<polyline points="204.5,130.0,196.0,130.5,187.5,131.5,179.0,131.5,170.5,132.0,162.5,132.0,154.5,132.5,147.0,133.5,139.0,134.0,131.0,134.0,123.0,134.5,115.0,135.0,107.0,136.0,99.0,136.5,91.0,137.5,83.0,138.5" stroke="black" stroke-width="2" fill="none" />
<polyline points="83.0,129.5,91.0,129.5,98.5,129.0,106.5,129.0,114.5,128.5,122.5,128.5,131.0,127.5,139.0,127.0,147.5,126.5,155.5,126.0,164.0,126.0,171.5,125.5,179.5,125.0,187.5,124.5,195.0,124.0,203.5,123.5" stroke="black" stroke-width="2" fill="none" />
<polyline points="211.5,118.5,203.5,119.0,195.5,120.0,187.0,120.5,179.0,121.0,171.0,121.5,163.0,122.0,155.0,123.0,147.5,123.0,139.5,123.5,131.5,124.0,123.5,124.5,115.0,125.0,106.5,124.5,98.0,125.0,89.5,126.0,81.5,126.0" stroke="black" stroke-width="2" fill="none" />
<polyline points="82.5,127.0,90.5,119.5,99.0,112.0,107.0,105.0,115.0,97.5,123.0,90.5,130.5,83.0,138.5,75.0" stroke="black" stroke-width="2" fill="none" />
<polyline points="131.5,82.0,139.5,82.0,147.0,81.0,155.0,80.5,163.5,80.0" stroke="black" stroke-width="2" fill="none" />
<polyline points="163.5,68.0,155.5,69.0,147.0,69.5,139.0,70.0,131.0,70.5,123.0,71.0" stroke="black" stroke-width="2" fill="none" />
<polyline points="118.0,66.0,103.0,73.5,93.0,81.5,86.5,90.0,80.5,98.0,77.5,105.5,78.0,102.5,86.0,89.5,94.0,79.5,101.5,73.0,109.5,69.0,117.0,65.0,125.5,62.5,133.5,61.5,142.0,60.5,150.5,61.0,158.5,62.0" stroke="black" stroke-width="2" fill="none" />
<polyline points="165.5,57.0,183.5,65.0,195.5,73.5,202.5,81.5,209.5,90.0,213.0,98.0,217.5,106.0,219.5,114.0,220.5,122.0,221.0,130.5,221.0,138.5,220.0,146.0,218.0,154.0,215.0,162.0,211.0,170.0,205.5,178.0,199.0,186.0,191.0,194.5,179.5,202.5" stroke="black" stroke-width="2" fill="none" />
<polyline points="205.0,101.5,196.0,101.5,187.5,102.0,179.0,102.5,170.5,102.5,163.0,103.0,155.0,103.5,146.5,104.5,138.5,105.5,130.5,106.5,122.5,107.0,114.5,107.5,106.5,108.5,99.0,109.0,91.0,109.5,83.0,109.5" stroke="black" stroke-width="2" fill="none" />
<polyline points="81.5,104.0,89.5,94.0" stroke="black" stroke-width="2" fill="none" />
<polyline points="83.0,101.5,91.0,101.0,99.0,101.0,107.5,100.5,115.0,99.5,123.0,98.5,131.0,98.0,139.0,97.0,146.5,97.0,154.5,96.5,163.0,96.0,171.0,96.0,179.0,95.5,187.0,95.0,195.5,94.5,203.5,94.0" stroke="black" stroke-width="2" fill="none" />
<polyline points="209.5,90.0,217.5,105.5,220.0,99.5,228.5,95.5,235.5,104.5,246.0,107.5,253.5,111.0" stroke="black" stroke-width="2" fill="none" />
<polyline points="260.0,84.0,252.5,84.0,245.0,84.0,237.0,84.0,229.0,84.5,221.0,84.5,212.5,85.0" stroke="black" stroke-width="2" fill="none" />
<polyline points="209.5,88.5,217.5,88.5,225.5,87.0,233.0,86.5,240.5,86.5,248.5,86.5,256.5,86.5" stroke="black" stroke-width="2" fill="none" />
<polyline points="260.0,65.5,252.0,66.0,244.5,66.0,236.5,66.5,228.5,67.0,220.0,67.0,211.5,67.5,204.0,68.5,196.0,69.5" stroke="black" stroke-width="2" fill="none" />
<polyline points="196.5,75.5,204.5,81.5,211.5,74.5" stroke="black" stroke-width="2" fill="none" />
<polyline points="206.5,65.0,214.5,72.0,222.5,76.0" stroke="black" stroke-width="2" fill="none" />
<polyline points="217.0,91.0,224.5,91.0,232.5,92.0,230.5,102.5,245.0,103.5,245.0,108.5,248.5,113.5,238.5,118.0,234.5,123.0,237.5,114.0,242.0,110.0,250.5,104.0" stroke="black" stroke-width="2" fill="none" />
<polyline points="257.5,56.0,250.0,56.5,242.0,57.0,234.5,58.0,227.0,58.5,219.5,59.0,212.0,60.5,204.0,61.0,196.0,61.5,188.5,62.0" stroke="black" stroke-width="2" fill="none" />
<polyline points="180.5,72.0,172.5,73.0,164.5,74.0,156.5,74.0,149.0,75.0,141.0,75.5,132.5,76.0,124.0,76.5,115.5,77.0,107.5,77.5" stroke="black" stroke-width="2" fill="none" />
<polyline points="67.5,83.5,59.5,91.0" stroke="black" stroke-width="2" fill="none" />
<polyline points="64.5,93.0,56.0,90.0,43.0,94.0,43.0,100.5,35.0,99.5,27.0,101.5,19.5,97.5,10.5,91.0,2.5,91.5" stroke="black" stroke-width="2" fill="none" />
<polyline points="4.0,93.5,12.0,93.0,20.0,93.0,28.0,92.5,36.0,91.5,43.5,90.5,52.0,90.0,60.0,89.5,68.0,89.5" stroke="black" stroke-width="2" fill="none" />
<polyline points="60.5,78.0,68.5,77.5,76.5,77.0,84.5,77.0" stroke="black" stroke-width="2" fill="none" />
<polyline points="59.5,59.5,51.5,59.5,43.5,60.0" stroke="black" stroke-width="2" fill="none" />
<polyline points="51.5,78.5,59.5,78.5,67.0,78.5,75.0,78.5" stroke="black" stroke-width="2" fill="none" />
<polyline points="86.0,78.5,78.0,79.5,69.5,80.5,61.0,81.5,52.0,82.0,43.0,83.0,35.0,83.5,27.0,84.0,19.0,84.5,11.0,85.5,3.0,85.5" stroke="black" stroke-width="2" fill="none" />
<polyline points="4.0,85.5,11.5,85.0,19.5,85.5,27.5,85.5,35.0,85.5,39.5,85.5,47.0,86.0,55.0,86.0,63.0,86.0,71.0,86.5" stroke="black" stroke-width="2" fill="none" />
<polyline points="59.0,97.5,54.0,103.5,47.5,109.5,46.0,105.5,45.0,105.5,54.0,105.0,54.5,97.0" stroke="black" stroke-width="2" fill="none" />
<polyline points="46.0,100.0,37.5,100.5,29.5,101.0" stroke="black" stroke-width="2" fill="none" />
<polyline points="28.0,99.0,36.0,91.0" stroke="black" stroke-width="2" fill="none" />
<polyline points="43.0,90.5,34.0,90.5,26.0,90.5,18.0,90.5" stroke="black" stroke-width="2" fill="none" />
<polyline points="2.5,88.5,11.0,88.5,18.5,88.5,26.5,88.5,34.5,88.5,42.5,88.5,50.5,88.5,58.5,88.5,66.5,88.0,74.5,88.5,82.5,82.5,90.5,73.5,98.5,67.0,106.5,63.5,114.5,59.5,122.5,57.5,130.5,55.0,138.5,53.5,146.0,53.5,154.0,53.5,162.0,55.5,170.5,57.5,178.5,61.5,187.0,65.5,195.0,71.5,203.0,70.5,208.0,66.5,219.0,74.5,225.0,70.5,233.0,71.5,241.0,72.5,249.5,69.5,250.0,73.5" stroke="black" stroke-width="2" fill="none" />
<polyline points="259.5,47.0,251.0,47.5,243.5,48.0,236.0,48.5,228.0,49.5,219.5,50.0,211.0,51.0,203.0,51.5,195.5,52.0,187.5,53.0,179.0,54.0,171.0,55.0" stroke="black" stroke-width="2" fill="none" />
<polyline points="170.5,30.0,179.0,29.5,187.5,28.5,196.0,28.0,204.5,27.0,213.0,26.0,221.0,25.5,228.5,25.5,236.0,25.0,243.5,24.5,251.5,24.5,259.5,24.0" stroke="black" stroke-width="2" fill="none" />
<polyline points="260.0,19.0,251.5,19.0,244.0,19.5,236.5,19.5,229.0,19.5,221.0,19.5" stroke="black" stroke-width="2" fill="none" />
<polyline points="219.5,5.0,227.5,5.0,236.0,5.0,243.5,4.0,251.5,3.5,259.5,3.0" stroke="black" stroke-width="2" fill="none" />
<polyline points="260.5,8.5,253.0,8.5,244.5,9.5,236.0,10.0,228.5,10.5,221.0,11.0,213.5,12.0,205.5,13.5,197.5,14.0" stroke="black" stroke-width="2" fill="none" />
<polyline points="201.5,22.0,194.0,22.5,186.0,23.0,178.0,23.5" stroke="black" stroke-width="2" fill="none" />
<polyline points="147.5,45.0,155.5,44.5,163.5,44.0,171.5,43.5,179.0,42.5,187.0,42.0,195.5,42.0,204.0,41.5,212.0,41.0,219.5,40.5,227.5,40.0,235.5,39.5,244.0,39.5,252.0,39.5,260.5,39.5" stroke="black" stroke-width="2" fill="none" />
<polyline points="258.5,29.0,250.5,29.5,243.0,30.5,235.0,31.5,227.5,32.5,220.0,33.5,212.0,34.0,204.0,34.0,196.0,34.5,188.0,34.5,179.5,35.5,171.5,36.5,163.0,37.0,155.5,37.5,147.5,38.0,139.5,38.5,132.0,39.0" stroke="black" stroke-width="2" fill="none" />
<polyline points="125.5,36.0,117.5,36.0,109.5,36.5" stroke="black" stroke-width="2" fill="none" />
<polyline points="99.5,36.5,92.0,37.0,84.0,37.0,76.5,38.0" stroke="black" stroke-width="2" fill="none" />
<polyline points="53.5,42.0,45.5,42.5,37.5,43.0,29.0,43.5,20.5,44.5,12.5,45.5" stroke="black" stroke-width="2" fill="none" />
<polyline points="16.5,24.5,24.5,24.5,32.5,23.5,40.5,24.5" stroke="black" stroke-width="2" fill="none" />
<polyline points="43.0,38.0,35.0,40.0" stroke="black" stroke-width="2" fill="none" />
<polyline points="49.0,97.0,44.0,107.0,36.0,104.5,36.0,106.0,36.5,112.0,25.5,109.5,18.5,112.5,10.5,114.5" stroke="black" stroke-width="2" fill="none" />
<polyline points="3.0,110.5,8.5,118.5,12.5,128.0,17.5,136.0,13.0,143.0,24.0,151.0,28.0,144.5,34.5,143.5,40.5,147.5,45.0,151.0,51.0,152.0,57.5,147.0" stroke="black" stroke-width="2" fill="none" />
<polyline points="60.5,140.0,52.5,140.5" stroke="black" stroke-width="2" fill="none" />
<polyline points="59.5,155.0,51.5,162.5,44.0,170.5" stroke="black" stroke-width="2" fill="none" />
<polyline points="31.5,181.0,39.5,180.0,48.0,182.0,55.5,183.5" stroke="black" stroke-width="2" fill="none" />
<polyline points="48.0,189.5,49.5,197.0,49.5,194.5" stroke="black" stroke-width="2" fill="none" />
<polyline points="41.5,221.0,50.0,222.5" stroke="black" stroke-width="2" fill="none" />
<polyline points="60.0,229.0,62.0,243.0,63.5,245.0,61.5,253.0,55.0,254.0,65.0,255.0,73.0,255.0,81.0,255.0" stroke="black" stroke-width="2" fill="none" />
<polyline points="43.0,243.5,35.5,244.0,27.5,244.0" stroke="black" stroke-width="2" fill="none" />
<polyline points="23.5,230.5,35.5,232.5,42.5,240.5,46.5,244.5,45.5,254.5,48.5,251.5,56.5,249.5,64.5,249.5" stroke="black" stroke-width="2" fill="none" />
<polyline points="52.5,250.0,44.5,250.5,36.0,251.5,28.5,252.5,21.0,253.5,12.5,254.0,4.5,254.0" stroke="black" stroke-width="2" fill="none" />
<polyline points="3.0,249.5,7.0,243.5,19.0,239.5,18.5,247.5" stroke="black" stroke-width="2" fill="none" />
<polyline points="15.0,248.5,11.0,246.0,3.0,246.0" stroke="black" stroke-width="2" fill="none" />
<polyline points="3.5,231.0,11.5,229.0,14.5,229.5,19.0,231.5,16.0,239.0,16.5,247.0,8.5,248.0,8.5,253.0,16.0,255.0,19.0,255.5" stroke="black" stroke-width="2" fill="none" />
<polyline points="11.0,233.0,18.5,234.5,24.5,236.5,26.5,240.5,25.5,249.0,27.5,249.0,26.0,241.0,34.0,232.0,42.0,236.0,44.0,241.0,51.0,242.5,59.0,243.0,68.0,244.5" stroke="black" stroke-width="2" fill="none" />
<polyline points="75.5,241.5,69.0,241.5,71.5,233.5,67.5,230.5,69.0,223.5,70.5,215.5" stroke="black" stroke-width="2" fill="none" />
<polyline points="107.5,204.5,95.0,196.5,81.0,190.5,73.0,192.0,65.0,195.0,57.0,195.0,54.0,187.5,45.5,187.5,37.5,187.5,30.0,186.5,24.0,176.5,16.0,177.0,18.5,176.5,25.5,171.5,28.5,164.0,20.5,159.0,19.0,161.0" stroke="black" stroke-width="2" fill="none" />
<polyline points="9.5,150.5,7.5,145.0,15.0,148.0,22.5,146.0" stroke="black" stroke-width="2" fill="none" />
<polyline points="18.5,142.0,10.0,142.0,1.5,142.5" stroke="black" stroke-width="2" fill="none" />
<polyline points="1.0,142.5,9.0,141.5,17.0,142.5,29.5,138.5" stroke="black" stroke-width="2" fill="none" />
<polyline points="11.0,134.0,3.5,134.0" stroke="black" stroke-width="2" fill="none" />
<polyline points="2.0,134.5,9.5,138.5,17.5,139.0,25.0,142.0,27.5,146.0,23.0,148.0" stroke="black" stroke-width="2" fill="none" />
<polyline points="10.0,173.0,18.0,171.0,25.5,171.5,31.5,173.0,34.0,177.0,41.5,176.5,49.0,177.0,56.5,177.0,63.5,179.0,71.5,177.0" stroke="black" stroke-width="2" fill="none" />
<polyline points="83.0,120.5,90.5,101.0,98.5,91.5,107.0,84.5,115.5,79.5,124.0,75.5,132.0,74.0,140.0,73.0,148.5,72.5,157.0,72.5,165.0,74.0,172.5,77.5,180.5,81.5,188.0,87.5,196.0,97.5,204.0,114.5" stroke="black" stroke-width="2" fill="none" />
<polyline points="205.5,83.5,213.5,83.5,214.5,85.5,222.5,85.5,230.0,85.0,238.0,81.5,245.5,80.5" stroke="black" stroke-width="2" fill="none" />
<polyline points="181.5,79.5,188.5,84.5,196.0,92.0,201.5,100.0,204.5,108.0,208.0,115.5,210.0,123.5,210.5,131.5,209.5,140.0,208.0,148.0,205.0,156.0" stroke="black" stroke-width="2" fill="none" />
<polyline points="44.0,214.5,44.0,218.0,36.5,212.0,37.0,199.0,27.0,206.0,26.0,203.0,17.0,202.0,9.0,202.5" stroke="black" stroke-width="2" fill="none" />
<polyline points="10.5,206.0,18.5,206.0" stroke="black" stroke-width="2" fill="none" />
<polyline points="8.5,211.0,16.0,208.0,26.5,210.5,27.5,215.5,32.0,211.5" stroke="black" stroke-width="2" fill="none" />
<polyline points="1.5,187.5,9.5,187.5,18.0,186.0,26.0,184.0,34.0,184.0,41.5,183.5,49.5,184.5,58.0,185.0,66.0,185.0,73.5,179.5" stroke="black" stroke-width="2" fill="none" />
<polyline points="9.5,186.5,1.5,186.5" stroke="black" stroke-width="2" fill="none" />
<polyline points="6.5,178.5,8.0,174.5,2.0,176.0" stroke="black" stroke-width="2" fill="none" />
<polyline points="2.0,110.0,9.5,111.5,12.5,123.5,17.5,116.5,24.5,107.0" stroke="black" stroke-width="2" fill="none" />
<polyline points="39.5,105.5,44.5,114.0,55.5,115.0,57.5,108.0,65.0,108.0" stroke="black" stroke-width="2" fill="none" />
</svg>