<svg xmlns="http://www.w3.org/2000/svg" version="1.1"><polyline points="54.0,1.5,49.5,3.5,38.5,6.0,29.5,11.5,36.0,13.0,33.0,18.0,42.0,17.0,53.5,15.5,53.5,16.5" stroke="black" stroke-width="2" fill="none" />
<polyline points="57.5,13.0,65.5,12.5" stroke="black" stroke-width="2" fill="none" />
<polyline points="67.0,5.0,75.0,4.0" stroke="black" stroke-width="2" fill="none" />
<polyline points="75.5,6.0,83.5,4.0,90.5,17.0,90.5,25.0,100.5,33.0,92.5,40.5,99.0,48.5,101.0,55.5,99.0,60.0,107.0,60.5,115.5,56.5,127.0,57.5,126.5,66.0,135.5,64.0,143.0,59.5,156.0,54.5,164.0,59.5,172.0,50.0,181.0,50.0,187.0,47.5,195.5,38.0,197.0,34.0,199.0,28.5,207.5,19.5,210.5,24.0" stroke="black" stroke-width="2" fill="none" />
<polyline points="206.0,28.0,209.0,24.0,207.5,32.0,209.5,38.5,213.0,40.5,222.5,42.0,235.0,36.0,244.0,28.0,245.5,30.5,255.0,29.5,258.0,33.5,251.5,43.5" stroke="black" stroke-width="2" fill="none" />
<polyline points="249.5,54.0,245.5,48.5,237.5,59.5,241.0,52.5,245.0,48.5,250.5,40.5,255.5,28.5,246.5,26.0" stroke="black" stroke-width="2" fill="none" />
<polyline points="246.5,26.5,242.5,27.5,238.5,35.0,239.5,42.0,240.0,52.5,234.0,50.0,229.5,61.0,229.5,69.5,231.5,82.5,227.5,84.0,234.5,87.0,236.5,95.5" stroke="black" stroke-width="2" fill="none" />
<polyline points="235.5,83.0,238.5,79.0,246.0,70.0,252.5,69.0,252.5,77.0,254.0,84.0,251.0,82.5,254.5,87.5,254.5,91.5,256.0,92.0,250.0,87.0,254.0,76.0,256.0,67.0" stroke="black" stroke-width="2" fill="none" />
<polyline points="247.5,84.5,247.5,80.0,239.5,80.0" stroke="black" stroke-width="2" fill="none" />
<polyline points="230.5,50.5,222.0,49.5" stroke="black" stroke-width="2" fill="none" />
<polyline points="213.0,44.0,205.0,44.0" stroke="black" stroke-width="2" fill="none" />
<polyline points="196.5,50.5,198.5,42.5,206.5,36.5,211.5,33.0" stroke="black" stroke-width="2" fill="none" />
<polyline points="223.5,36.5,225.5,45.0,218.5,43.0,218.5,48.5,210.0,52.5,215.0,54.0,218.0,46.0,226.0,43.0,231.0,54.0" stroke="black" stroke-width="2" fill="none" />
<polyline points="238.0,76.0,229.5,80.0,221.5,80.5,214.0,78.5,206.5,80.5,198.5,81.5,198.0,74.5,199.5,69.5,198.5,61.5" stroke="black" stroke-width="2" fill="none" />
<polyline points="189.5,78.0,181.5,78.5" stroke="black" stroke-width="2" fill="none" />
<polyline points="173.0,78.0,165.0,78.5" stroke="black" stroke-width="2" fill="none" />
<polyline points="164.0,70.5,172.0,70.0,179.5,69.0" stroke="black" stroke-width="2" fill="none" />
<polyline points="181.0,71.0,173.0,64.0" stroke="black" stroke-width="2" fill="none" />
<polyline points="171.5,59.5,163.0,59.5,154.5,59.0,146.0,59.0,137.5,58.5,129.5,59.0" stroke="black" stroke-width="2" fill="none" />
<polyline points="123.5,54.5,132.0,54.0,140.0,53.5" stroke="black" stroke-width="2" fill="none" />
<polyline points="148.0,56.0,155.5,55.0" stroke="black" stroke-width="2" fill="none" />
<polyline points="154.5,61.0,149.0,62.0,144.0,70.5,139.0,81.5,147.5,80.5,141.0,89.0,139.0,97.0,128.0,103.0,129.5,111.5,134.5,111.5,142.5,104.5,150.5,103.0,161.0,102.0,174.0,107.0,188.5,109.5,196.5,105.5,198.0,99.5,196.0,107.0,203.0,109.0,206.0,113.0,206.5,117.0,214.5,120.0,224.0,126.0,225.0,134.0,226.5,140.0,219.5,154.0,217.5,163.0,218.5,171.0,217.5,180.0,215.0,188.0,215.0,194.0,218.0,202.0,226.0,208.5,239.0,216.5,249.0,224.5,254.0,235.5,254.0,249.5,255.0,256.0,255.5,252.0" stroke="black" stroke-width="2" fill="none" />
<polyline points="253.5,246.0,246.0,246.5" stroke="black" stroke-width="2" fill="none" />
<polyline points="243.0,237.5,235.0,238.0" stroke="black" stroke-width="2" fill="none" />
<polyline points="237.0,238.0,229.0,231.5,221.0,224.5,213.5,217.5" stroke="black" stroke-width="2" fill="none" />
<polyline points="213.0,215.0,221.0,218.0,229.0,224.0,237.0,231.0,245.0,232.0,249.0,228.5,252.0,233.5" stroke="black" stroke-width="2" fill="none" />
<polyline points="259.5,220.0,251.0,220.0,242.5,220.0" stroke="black" stroke-width="2" fill="none" />
<polyline points="235.0,214.0,242.5,213.0,251.0,212.5" stroke="black" stroke-width="2" fill="none" />
<polyline points="234.5,230.0,226.5,231.0" stroke="black" stroke-width="2" fill="none" />
<polyline points="228.0,221.5,220.0,222.0" stroke="black" stroke-width="2" fill="none" />
<polyline points="213.0,221.5,205.0,222.0" stroke="black" stroke-width="2" fill="none" />
<polyline points="209.5,216.5,219.0,211.5,228.0,216.5" stroke="black" stroke-width="2" fill="none" />
<polyline points="222.5,212.0,213.5,212.0,205.5,212.5" stroke="black" stroke-width="2" fill="none" />
<polyline points="211.0,205.5,219.0,205.0,227.5,205.0,235.5,204.5" stroke="black" stroke-width="2" fill="none" />
<polyline points="221.0,197.5,213.0,198.0" stroke="black" stroke-width="2" fill="none" />
<polyline points="215.0,196.0,223.0,196.0,224.5,201.0,232.5,206.0,240.5,205.0,253.0,207.5" stroke="black" stroke-width="2" fill="none" />
<polyline points="256.0,186.5,255.5,180.5,251.0,172.0,247.0,164.5,252.5,157.0,249.0,154.0,255.0,149.0,250.0,153.5,242.0,147.5,239.0,149.5,234.0,157.0,228.0,150.0,218.5,150.0,214.0,152.0,207.0,146.0,199.5,148.0,206.0,144.0,213.0,139.0,212.0,129.5,217.0,126.0,217.0,118.5,225.0,120.0,229.0,112.0,237.0,107.0,233.0,104.0,232.0,102.0,230.0,93.5,225.0,87.5,228.0,81.5,238.0,74.5,233.5,68.5,235.5,62.5,237.5,54.0,239.0,46.0,236.0,41.0,228.5,41.0,227.5,33.0,233.5,23.0,236.5,14.0,243.5,13.5,243.5,8.5,249.0,2.5,241.0,3.0" stroke="black" stroke-width="2" fill="none" />
<polyline points="234.0,3.5,234.0,12.5,230.5,20.5,232.5,25.0,237.0,28.5,241.5,20.5,247.5,27.0,255.5,24.0,255.5,16.5" stroke="black" stroke-width="2" fill="none" />
<polyline points="253.5,7.0,245.5,6.0,239.5,17.0,234.5,13.5,232.5,11.0,226.5,17.5,220.5,19.5,224.0,17.0,228.0,14.5,221.0,10.5" stroke="black" stroke-width="2" fill="none" />
<polyline points="190.0,12.5,204.0,13.5,204.5,21.5,195.5,27.5,190.5,32.5,194.5,36.0,197.5,42.0,201.0,48.0,204.0,56.0,215.5,58.5,225.5,60.0,224.0,68.0,225.0,75.5,219.5,83.0,217.5,90.5,222.5,92.5,219.0,95.0,222.5,98.0,220.5,104.0,225.0,110.0,222.0,120.5,230.0,112.0,235.0,109.0,236.0,103.5" stroke="black" stroke-width="2" fill="none" />
<polyline points="227.5,116.5,235.5,118.5,236.5,126.5,246.0,131.0,244.5,136.0,242.0,147.5,237.0,156.0,237.5,157.0,238.0,165.5,233.0,172.5,244.0,174.5,244.5,180.5,240.5,184.0,238.5,192.0,245.5,191.5,248.0,197.5,244.5,205.5,246.5,209.5,250.5,215.0,257.0,225.0" stroke="black" stroke-width="2" fill="none" />
<polyline points="243.5,249.0,235.0,250.0,226.5,250.5,218.0,252.0,210.0,253.0" stroke="black" stroke-width="2" fill="none" />
<polyline points="213.5,250.0,215.5,241.5,217.5,240.5" stroke="black" stroke-width="2" fill="none" />
<polyline points="212.5,228.0,204.5,228.5,196.0,229.5" stroke="black" stroke-width="2" fill="none" />
<polyline points="187.0,235.5,179.0,243.0" stroke="black" stroke-width="2" fill="none" />
<polyline points="179.5,244.0,171.0,244.0,163.0,244.5,155.0,244.5,147.0,245.0" stroke="black" stroke-width="2" fill="none" />
<polyline points="147.5,252.0,155.5,252.0,163.0,251.5,171.0,251.5" stroke="black" stroke-width="2" fill="none" />
<polyline points="173.5,243.0,165.5,250.5,157.0,258.0" stroke="black" stroke-width="2" fill="none" />
<polyline points="155.5,251.0,163.5,243.5" stroke="black" stroke-width="2" fill="none" />
<polyline points="172.5,240.0,181.0,239.5,189.5,239.0,197.5,238.0" stroke="black" stroke-width="2" fill="none" />
<polyline points="189.5,240.0,184.5,237.0,170.5,245.0" stroke="black" stroke-width="2" fill="none" />
<polyline points="183.5,244.0,188.0,243.5,183.0,251.5,183.5,251.5,191.5,251.5,193.5,245.5,198.0,240.5,206.0,239.5,215.5,242.5,218.5,253.5,226.5,252.5,234.5,250.5,242.5,246.0" stroke="black" stroke-width="2" fill="none" />
<polyline points="241.5,245.5,236.5,237.5,228.0,229.5,222.0,224.5,214.0,216.5,216.0,208.5" stroke="black" stroke-width="2" fill="none" />
<polyline points="216.0,206.0,226.0,203.0,239.5,211.0,250.5,219.5" stroke="black" stroke-width="2" fill="none" />
<polyline points="255.5,216.0,247.5,217.5,239.5,211.5,234.5,201.5,227.5,198.0,225.5,190.5,223.5,186.5,224.5,180.5,221.0,166.5,226.0,165.5,226.0,157.5,225.5,150.0,232.5,142.0,236.0,141.0,234.0,144.0" stroke="black" stroke-width="2" fill="none" />
<polyline points="228.0,159.5,220.0,159.5" stroke="black" stroke-width="2" fill="none" />
<polyline points="212.5,166.5,204.5,167.0" stroke="black" stroke-width="2" fill="none" />
<polyline points="197.5,162.5,195.0,170.5,199.0,174.5,202.0,181.5" stroke="black" stroke-width="2" fill="none" />
<polyline points="205.0,182.0,212.5,181.0" stroke="black" stroke-width="2" fill="none" />
<polyline points="213.0,176.0,205.0,176.5" stroke="black" stroke-width="2" fill="none" />
<polyline points="218.5,177.0,214.5,177.5,215.5,176.0,212.0,168.0,212.0,151.0,209.0,149.0,209.0,140.0,208.0,132.0,195.5,126.0" stroke="black" stroke-width="2" fill="none" />
<polyline points="197.0,128.5,204.5,127.5,212.5,128.5,215.0,123.0" stroke="black" stroke-width="2" fill="none" />
<polyline points="214.0,134.0,222.0,126.0,229.5,125.0,231.5,133.0,242.0,139.0" stroke="black" stroke-width="2" fill="none" />
<polyline points="237.5,119.5,245.5,118.5,253.5,119.0" stroke="black" stroke-width="2" fill="none" />
<polyline points="212.5,108.5,211.0,100.5,214.0,98.0,205.5,103.0" stroke="black" stroke-width="2" fill="none" />
<polyline points="205.0,108.0,213.0,109.5" stroke="black" stroke-width="2" fill="none" />
<polyline points="189.0,116.0,180.5,116.5" stroke="black" stroke-width="2" fill="none" />
<polyline points="180.0,124.0,187.5,123.5" stroke="black" stroke-width="2" fill="none" />
<polyline points="190.5,125.5,199.0,131.5,200.0,140.0" stroke="black" stroke-width="2" fill="none" />
<polyline points="204.0,149.0,196.0,149.5" stroke="black" stroke-width="2" fill="none" />
<polyline points="193.5,143.5,185.5,144.0" stroke="black" stroke-width="2" fill="none" />
<polyline points="186.5,133.5,194.5,132.5" stroke="black" stroke-width="2" fill="none" />
<polyline points="180.0,143.0,172.0,143.5" stroke="black" stroke-width="2" fill="none" />
<polyline points="174.0,137.0,174.0,145.0,173.0,153.0,170.0,161.0,176.0,172.0,171.5,173.5,170.5,182.0,168.5,190.0,165.0,198.0,162.0,206.5,160.5,214.5,158.5,222.5,157.0,230.5,158.0,238.5,159.0,246.5,165.0,257.0,170.0,255.0,177.5,255.0,185.5,256.0,194.0,256.0" stroke="black" stroke-width="2" fill="none" />
<polyline points="173.5,224.5,163.0,217.5,168.0,213.5,167.0,212.5,168.0,219.0,168.0,222.0" stroke="black" stroke-width="2" fill="none" />
<polyline points="162.0,223.0,154.5,223.5" stroke="black" stroke-width="2" fill="none" />
<polyline points="148.5,228.0,136.5,236.5,138.5,232.5,146.5,228.5" stroke="black" stroke-width="2" fill="none" />
<polyline points="145.5,235.0,154.0,235.0,162.5,234.5" stroke="black" stroke-width="2" fill="none" />
<polyline points="162.5,213.0,155.0,213.5" stroke="black" stroke-width="2" fill="none" />
<polyline points="155.5,204.0,163.0,203.5" stroke="black" stroke-width="2" fill="none" />
<polyline points="164.0,195.5,156.0,196.0" stroke="black" stroke-width="2" fill="none" />
<polyline points="163.0,189.5,170.5,189.5" stroke="black" stroke-width="2" fill="none" />
<polyline points="175.5,186.0,178.0,194.0,187.0,189.0,186.0,197.0,180.5,201.5,183.0,199.5,187.0,200.0,195.0,204.5,203.5,204.5" stroke="black" stroke-width="2" fill="none" />
<polyline points="189.0,208.0,193.0,209.0,183.0,208.5,179.0,217.0,169.0,216.0,163.0,223.5,168.0,227.0,161.5,236.5,162.5,234.5" stroke="black" stroke-width="2" fill="none" />
<polyline points="144.0,246.0,142.5,238.0,143.5,252.5,141.5,248.5,134.5,253.5,141.5,248.5,143.5,239.5,140.0,236.0,137.0,228.0,137.0,224.0,140.5,222.0,136.5,214.0,140.5,214.0,141.5,206.5,131.0,208.5" stroke="black" stroke-width="2" fill="none" />
<polyline points="135.0,207.0,134.0,215.0,132.5,222.5,131.0,230.5,130.0,238.5,129.0,246.5" stroke="black" stroke-width="2" fill="none" />
<polyline points="131.0,243.5,123.0,244.0" stroke="black" stroke-width="2" fill="none" />
<polyline points="122.5,237.5,130.5,237.0" stroke="black" stroke-width="2" fill="none" />
<polyline points="131.0,222.0,139.0,222.0" stroke="black" stroke-width="2" fill="none" />
<polyline points="139.5,215.0,140.5,210.5,148.0,208.0" stroke="black" stroke-width="2" fill="none" />
<polyline points="138.5,214.5,130.5,215.0" stroke="black" stroke-width="2" fill="none" />
<polyline points="115.0,209.0,122.0,206.0,130.0,198.0,122.0,196.0,120.0,190.0,115.5,187.0,124.0,179.0,124.0,164.5,128.0,161.5,131.0,153.5,127.5,153.5,125.5,145.5,130.5,138.0,133.5,130.0,137.5,129.0,130.5,129.5" stroke="black" stroke-width="2" fill="none" />
<polyline points="130.5,109.5,138.5,109.0" stroke="black" stroke-width="2" fill="none" />
<polyline points="140.5,103.5,131.5,111.0" stroke="black" stroke-width="2" fill="none" />
<polyline points="138.5,99.0,146.5,98.5,155.0,99.0" stroke="black" stroke-width="2" fill="none" />
<polyline points="155.5,91.5,148.0,92.0,140.0,92.5" stroke="black" stroke-width="2" fill="none" />
<polyline points="140.5,91.5,149.0,95.0,160.5,95.5" stroke="black" stroke-width="2" fill="none" />
<polyline points="155.5,90.5,147.5,92.0" stroke="black" stroke-width="2" fill="none" />
<polyline points="146.5,90.5,154.5,88.5" stroke="black" stroke-width="2" fill="none" />
<polyline points="147.0,85.5,155.0,85.0,163.0,84.5,171.5,84.0" stroke="black" stroke-width="2" fill="none" />
<polyline points="173.0,82.5,176.5,90.5,179.5,98.5,180.5,88.5,188.5,81.5,190.5,75.5,196.5,65.5" stroke="black" stroke-width="2" fill="none" />
<polyline points="193.0,81.0,203.0,87.0,211.0,93.0" stroke="black" stroke-width="2" fill="none" />
<polyline points="180.0,109.0,171.5,109.5" stroke="black" stroke-width="2" fill="none" />
<polyline points="173.5,107.5,176.5,115.5,177.5,124.0,183.0,132.0,189.0,140.5,194.5,148.5,199.5,156.0,201.5,163.5,204.0,171.5,204.5,179.5,206.5,187.5,208.5,195.5,208.5,203.5,206.0,211.5,205.5,219.5,202.5,228.0,185.0,234.0,173.0,237.0,160.0,246.0,166.0,241.0,175.0,235.0,183.5,233.0,191.5,231.5,199.5,229.5" stroke="black" stroke-width="2" fill="none" />
<polyline points="203.0,221.5,198.0,219.5,191.5,215.5,187.0,222.5,190.0,223.5,195.5,221.0,190.5,218.5,197.5,213.0,201.5,209.0,198.5,207.0,204.5,202.0,194.5,197.0,190.5,191.5,179.5,189.0,174.5,195.5,170.5,203.5,156.0,196.0,151.0,194.5,154.0,191.5,154.0,186.5,158.0,174.0,156.0,172.0,162.0,171.5,155.0,164.0,152.0,161.5,155.0,148.5,156.0,134.0,160.0,134.5,163.5,122.5" stroke="black" stroke-width="2" fill="none" />
<polyline points="166.0,132.0,162.0,130.0,159.5,130.0,151.5,130.0,148.5,141.0,140.5,146.0,142.5,139.5,135.5,137.0,130.5,144.0,129.0,140.0,125.0,137.0,118.5,134.5,110.5,132.5" stroke="black" stroke-width="2" fill="none" />
<polyline points="111.0,148.5,111.0,151.5,120.5,146.5,112.5,148.0,109.5,154.0,124.5,157.0,119.5,165.0,113.5,168.0,116.0,171.0" stroke="black" stroke-width="2" fill="none" />
<polyline points="130.5,171.0,131.5,163.0,125.0,157.0,117.0,158.0,109.0,152.5" stroke="black" stroke-width="2" fill="none" />
<polyline points="134.5,154.5,143.0,156.5,148.0,148.0,152.0,144.5,159.5,151.5" stroke="black" stroke-width="2" fill="none" />
<polyline points="164.0,150.5,172.0,150.5,180.0,150.0" stroke="black" stroke-width="2" fill="none" />
<polyline points="173.0,156.0,164.5,156.5" stroke="black" stroke-width="2" fill="none" />
<polyline points="167.0,171.0,175.0,165.5,185.5,159.5,192.5,160.0,196.5,163.5" stroke="black" stroke-width="2" fill="none" />
<polyline points="196.0,170.0,185.0,175.0" stroke="black" stroke-width="2" fill="none" />
<polyline points="184.5,181.0,192.0,187.0,193.0,181.0,196.5,179.0" stroke="black" stroke-width="2" fill="none" />
<polyline points="179.0,192.5,173.0,196.5,172.0,206.0" stroke="black" stroke-width="2" fill="none" />
<polyline points="182.0,212.0,178.0,220.0,173.0,220.0,181.0,215.0,186.0,207.5,186.5,205.5" stroke="black" stroke-width="2" fill="none" />
<polyline points="184.0,219.5,175.0,221.5,175.5,223.5,182.5,222.0" stroke="black" stroke-width="2" fill="none" />
<polyline points="215.0,214.5,226.0,222.5,235.5,231.0,243.5,239.0,247.0,246.5" stroke="black" stroke-width="2" fill="none" />
<polyline points="255.0,247.5,253.0,239.5,245.0,237.5,233.0,237.5,228.0,240.5,224.0,243.5,215.5,252.5,207.0,255.5,209.0,243.5,207.5,240.0,206.5,237.0,209.5,228.5,211.5,220.5,212.0,212.5,213.0,204.5,212.5,196.5,211.5,188.5,209.5,181.0,207.5,173.0,206.5,165.5,204.5,157.5,200.0,150.0,194.5,141.5,189.5,133.5,184.5,125.0,181.5,117.0,178.5,108.5,176.0,100.5,172.5,93.0,169.5,85.5,166.0,77.5,163.0,69.5,165.0,57.5,164.0,48.5,163.0,42.0,162.0,39.0,167.5,35.0,167.0,26.5,170.5,17.0,176.0,8.0,173.5,12.5,174.5,19.5" stroke="black" stroke-width="2" fill="none" />
<polyline points="163.5,11.0,155.0,11.5,147.0,12.0,139.0,12.0" stroke="black" stroke-width="2" fill="none" />
<polyline points="143.0,11.0,151.0,7.5,148.5,9.5,148.5,21.0,149.0,26.5,138.0,33.5,145.0,42.0,141.0,44.0,138.0,51.5,141.0,50.0,138.0,51.0,146.0,49.0" stroke="black" stroke-width="2" fill="none" />
<polyline points="147.5,46.0,155.5,46.0" stroke="black" stroke-width="2" fill="none" />
<polyline points="156.0,38.5,148.0,39.0" stroke="black" stroke-width="2" fill="none" />
<polyline points="147.5,43.0,139.0,39.0" stroke="black" stroke-width="2" fill="none" />
<polyline points="147.5,30.0,155.0,29.5" stroke="black" stroke-width="2" fill="none" />
<polyline points="154.0,19.5,146.0,20.0" stroke="black" stroke-width="2" fill="none" />
<polyline points="146.0,17.0,154.0,9.5,162.0,2.0" stroke="black" stroke-width="2" fill="none" />
<polyline points="160.5,3.0,158.0,11.0,154.5,18.5,153.5,26.0,153.5,33.5,154.0,41.0,154.0,49.0,159.0,57.0,173.5,65.5,181.5,73.0,187.5,80.0,184.5,88.5,186.5,99.5,182.5,107.5,183.0,113.0,181.0,127.0,189.0,139.0,197.0,152.0,202.5,166.0,211.5,161.0,219.5,164.0,221.5,174.0,226.0,163.0,232.0,163.0,243.5,163.0,251.5,163.0,255.5,165.0,256.0,168.5" stroke="black" stroke-width="2" fill="none" />
<polyline points="245.0,178.0,236.5,179.0,228.5,178.0" stroke="black" stroke-width="2" fill="none" />
<polyline points="229.5,178.0,235.5,186.0,247.0,183.5,249.0,179.5,253.5,177.0" stroke="black" stroke-width="2" fill="none" />
<polyline points="243.5,173.0,234.5,171.0,226.5,177.0" stroke="black" stroke-width="2" fill="none" />
<polyline points="219.0,200.5,227.0,206.5,234.5,211.5,242.5,217.5,250.0,223.5" stroke="black" stroke-width="2" fill="none" />
<polyline points="256.0,244.5,245.5,248.5,237.5,253.5,230.0,254.5,222.0,255.5,218.5,250.0,226.5,242.0,232.0,240.0" stroke="black" stroke-width="2" fill="none" />
<polyline points="171.5,180.5,163.5,180.5" stroke="black" stroke-width="2" fill="none" />
<polyline points="147.0,142.5,155.0,146.0,161.5,139.0" stroke="black" stroke-width="2" fill="none" />
<polyline points="172.0,135.5,169.5,143.5,165.5,151.5,165.0,160.0,167.0,174.5,166.0,182.5,162.0,190.5,159.5,198.5,158.0,206.0,156.0,214.0,154.0,222.0,153.0,229.5,151.5,237.5,150.5,245.5,143.5,253.5,149.0,256.5,159.0,255.5,167.0,257.0,168.0,249.0,176.5,243.5,184.5,238.5,192.5,236.5,200.0,235.5,208.0,229.0,218.5,232.5,226.0,234.5" stroke="black" stroke-width="2" fill="none" />
<polyline points="241.0,155.0,244.5,147.5,251.5,133.5,255.5,131.0,253.5,129.5,251.5,124.5,250.5,120.5,251.5,112.5,241.0,105.5,237.0,101.5,237.0,93.0,242.0,84.5,249.0,72.5,245.5,68.5,234.5,67.0,231.5,62.5,225.0,67.5,223.5,71.5,214.0,67.0,208.0,65.5,194.5,63.0,191.0,63.0,179.0,60.5,188.0,57.5,181.5,53.5,173.5,62.5,165.5,60.5" stroke="black" stroke-width="2" fill="none" />
<polyline points="162.0,60.5,153.5,68.0" stroke="black" stroke-width="2" fill="none" />
<polyline points="157.0,67.0,162.0,75.0,165.5,83.0,167.5,90.5,162.0,95.5,161.0,100.0,160.0,108.5,154.0,116.5,148.5,119.0,143.0,119.0,143.5,124.0,149.5,132.0,142.0,134.0,146.0,142.5,153.0,148.0,150.5,155.0,145.5,163.5,140.0,172.0,132.5,175.0,129.0,182.5,126.0,183.5,135.0,185.5,129.5,192.0,134.0,198.0,132.0,206.0,130.0,214.0,128.0,222.0,127.0,230.0,122.5,238.0,124.0,243.5,125.0,251.5" stroke="black" stroke-width="2" fill="none" />
<polyline points="108.0,237.5,99.5,238.0" stroke="black" stroke-width="2" fill="none" />
<polyline points="97.0,231.0,105.0,230.5" stroke="black" stroke-width="2" fill="none" />
<polyline points="101.5,223.0,93.5,224.0" stroke="black" stroke-width="2" fill="none" />
<polyline points="93.0,215.0,101.0,214.0" stroke="black" stroke-width="2" fill="none" />
<polyline points="91.5,211.0,99.0,203.0" stroke="black" stroke-width="2" fill="none" />
<polyline points="98.0,205.5,90.5,205.5,83.0,205.5" stroke="black" stroke-width="2" fill="none" />
<polyline points="87.5,210.5,95.0,220.0" stroke="black" stroke-width="2" fill="none" />
<polyline points="84.0,237.0,76.0,238.0,68.0,239.0" stroke="black" stroke-width="2" fill="none" />
<polyline points="67.5,228.5,75.0,228.5" stroke="black" stroke-width="2" fill="none" />
<polyline points="75.5,229.0,83.5,232.5,89.0,224.0" stroke="black" stroke-width="2" fill="none" />
<polyline points="75.0,226.5,88.0,222.5,94.0,234.0,90.0,244.0" stroke="black" stroke-width="2" fill="none" />
<polyline points="85.0,254.0,77.0,255.0" stroke="black" stroke-width="2" fill="none" />
<polyline points="76.0,247.0,84.0,246.5" stroke="black" stroke-width="2" fill="none" />
<polyline points="75.0,221.5,67.0,221.5,59.0,221.5" stroke="black" stroke-width="2" fill="none" />
<polyline points="60.5,212.0,69.0,212.0" stroke="black" stroke-width="2" fill="none" />
<polyline points="69.0,210.5,81.0,219.0,80.0,227.0,82.0,242.0,84.5,246.0,92.5,243.5,106.5,239.5,107.0,249.5" stroke="black" stroke-width="2" fill="none" />
<polyline points="100.0,195.5,92.0,196.0,84.0,196.5" stroke="black" stroke-width="2" fill="none" />
<polyline points="83.5,193.0,87.5,201.5,85.5,209.5,88.5,217.5,97.0,227.0,98.0,235.0,108.0,239.0,115.0,241.0,113.5,244.0" stroke="black" stroke-width="2" fill="none" />
<polyline points="65.5,253.5,58.0,254.0,50.0,255.0" stroke="black" stroke-width="2" fill="none" />
<polyline points="53.0,245.0,45.0,245.0,37.5,245.5" stroke="black" stroke-width="2" fill="none" />
<polyline points="42.5,234.5,34.5,234.5,26.5,234.5" stroke="black" stroke-width="2" fill="none" />
<polyline points="27.5,227.5,35.0,227.0" stroke="black" stroke-width="2" fill="none" />
<polyline points="39.5,231.5,44.0,229.5,51.0,224.5,43.0,227.5" stroke="black" stroke-width="2" fill="none" />
<polyline points="50.5,230.5,58.5,224.5,53.0,226.5,50.5,226.5,49.5,232.5,54.0,240.5,57.0,243.5,58.5,256.0,65.5,254.0,73.5,256.0" stroke="black" stroke-width="2" fill="none" />
<polyline points="72.0,236.5,58.5,230.0,59.0,227.0,51.0,231.0" stroke="black" stroke-width="2" fill="none" />
<polyline points="51.5,232.0,58.5,234.0,65.5,242.5,63.5,244.5" stroke="black" stroke-width="2" fill="none" />
<polyline points="60.5,203.0,68.0,203.0" stroke="black" stroke-width="2" fill="none" />
<polyline points="66.0,200.5,74.0,196.0,77.5,196.0,79.5,204.0,93.0,207.5,94.0,212.5,102.0,216.5,103.5,208.5,107.5,200.5,112.5,199.5,101.5,200.5,104.5,205.5,102.5,209.0,110.0,211.5,110.5,217.5,108.5,223.0,105.5,232.5,109.5,236.0,117.5,239.0,119.5,236.0,121.5,244.0" stroke="black" stroke-width="2" fill="none" />
<polyline points="118.0,193.5,120.5,190.5,128.5,194.0,132.5,189.5" stroke="black" stroke-width="2" fill="none" />
<polyline points="138.5,183.5,133.0,175.5,130.0,180.5,120.5,178.0,117.5,181.0,111.0,180.5,103.0,177.5,93.5,180.5,93.0,185.5,94.5,176.5,99.5,164.5,89.5,163.0,80.0,165.0" stroke="black" stroke-width="2" fill="none" />
<polyline points="83.5,163.5,91.5,169.0" stroke="black" stroke-width="2" fill="none" />
<polyline points="98.0,159.5,92.0,154.5,87.0,151.5,79.0,154.0" stroke="black" stroke-width="2" fill="none" />
<polyline points="79.0,155.0,83.5,162.5,96.5,170.5,89.5,178.5,86.5,181.5,81.5,194.5,78.5,202.0,86.5,195.0,94.5,195.0,102.5,195.0,110.0,189.5,115.0,195.0,120.5,201.0,132.0,201.0,138.0,196.0,139.5,192.0,147.5,184.0" stroke="black" stroke-width="2" fill="none" />
<polyline points="143.0,162.0,135.0,159.0,129.0,158.0,122.0,165.0,112.5,159.0,113.5,161.0,105.5,157.0,95.0,157.0,98.0,156.0,93.0,146.5,95.0,138.5,96.5,143.0,88.5,148.0,80.5,147.0,74.5,153.0,67.5,161.0,60.0,166.0,61.0,154.5,69.5,148.5,79.0,138.0,83.0,137.5,86.0,129.5,77.0,119.5,69.0,124.0" stroke="black" stroke-width="2" fill="none" />
<polyline points="60.5,125.5,52.0,126.0" stroke="black" stroke-width="2" fill="none" />
<polyline points="45.0,124.5,46.5,131.5,48.5,135.5,43.5,144.5,50.5,148.0,45.5,156.5,48.0,166.5,42.0,179.0,51.0,192.5,53.0,199.5,57.5,207.5,60.0,215.5,58.0,223.5,63.5,225.0,66.5,233.0,67.0,241.0,73.0,246.5,77.0,254.0" stroke="black" stroke-width="2" fill="none" />
<polyline points="67.0,197.0,59.0,198.0,51.0,198.5" stroke="black" stroke-width="2" fill="none" />
<polyline points="51.0,195.5,59.0,187.5" stroke="black" stroke-width="2" fill="none" />
<polyline points="60.0,187.5,52.0,187.5" stroke="black" stroke-width="2" fill="none" />
<polyline points="51.0,187.0,59.0,180.0" stroke="black" stroke-width="2" fill="none" />
<polyline points="58.5,180.0,50.0,180.0" stroke="black" stroke-width="2" fill="none" />
<polyline points="51.5,179.5,60.0,172.0" stroke="black" stroke-width="2" fill="none" />
<polyline points="66.0,171.0,57.5,172.0,49.5,172.5" stroke="black" stroke-width="2" fill="none" />
<polyline points="51.0,165.5,59.0,165.0" stroke="black" stroke-width="2" fill="none" />
<polyline points="59.0,156.0,51.0,156.5" stroke="black" stroke-width="2" fill="none" />
<polyline points="52.5,149.0,60.0,148.5" stroke="black" stroke-width="2" fill="none" />
<polyline points="63.5,144.0,74.5,137.0,69.0,139.0,64.0,147.0,61.5,151.0,68.5,145.0,76.5,141.0,82.5,140.0" stroke="black" stroke-width="2" fill="none" />
<polyline points="85.0,129.0,88.0,123.5,89.5,128.5" stroke="black" stroke-width="2" fill="none" />
<polyline points="84.0,116.0,92.0,115.5,100.5,115.0" stroke="black" stroke-width="2" fill="none" />
<polyline points="90.5,102.0,98.0,107.0,106.0,99.0,114.0,99.5,123.0,110.0,124.0,124.0,126.5,126.0,124.5,131.0,127.0,143.0,137.0,144.0,141.5,155.5,143.5,165.5,154.5,162.5,168.0,162.5,181.0,155.5,187.0,151.0" stroke="black" stroke-width="2" fill="none" />
<polyline points="202.0,137.5,203.0,131.5,200.0,126.5,208.0,117.5,210.5,110.0,208.5,103.0,206.0,96.5,209.0,92.5,210.0,84.5,207.0,83.5,203.0,78.5,202.0,70.5,208.0,56.5,204.0,56.5,195.5,54.5,188.0,54.5,182.5,62.5,176.0,53.5,172.0,48.0,171.0,36.0,162.5,40.0" stroke="black" stroke-width="2" fill="none" />
<polyline points="171.0,38.0,179.0,37.0,183.0,27.5,189.0,30.5,195.5,25.5" stroke="black" stroke-width="2" fill="none" />
<polyline points="184.0,44.5,176.0,43.5" stroke="black" stroke-width="2" fill="none" />
<polyline points="161.5,64.0,168.5,66.0,178.5,74.0" stroke="black" stroke-width="2" fill="none" />
<polyline points="179.5,94.0,171.0,94.5" stroke="black" stroke-width="2" fill="none" />
<polyline points="169.0,93.5,172.0,101.5,163.5,105.5,164.5,111.0,160.5,112.5,159.0,118.5,150.0,118.5,152.0,118.5,155.0,123.5,157.0,121.0,166.0,116.0" stroke="black" stroke-width="2" fill="none" />
<polyline points="171.5,101.5,180.0,100.5" stroke="black" stroke-width="2" fill="none" />
<polyline points="156.0,80.5,148.0,82.0,140.0,89.0" stroke="black" stroke-width="2" fill="none" />
<polyline points="141.5,74.0,150.0,66.5" stroke="black" stroke-width="2" fill="none" />
<polyline points="140.5,66.0,132.5,73.5" stroke="black" stroke-width="2" fill="none" />
<polyline points="129.5,71.0,137.5,75.0,145.5,65.0,154.0,61.5,162.0,73.5" stroke="black" stroke-width="2" fill="none" />
<polyline points="160.0,63.0,168.0,66.0,176.0,72.5,184.5,79.5,196.5,87.0,200.5,97.0,207.5,91.0,215.5,95.0,215.5,98.0,223.0,94.0,230.0,93.5" stroke="black" stroke-width="2" fill="none" />
<polyline points="175.0,97.0,175.0,84.5,167.0,75.5,158.0,73.0,152.0,66.5,145.5,70.5,144.0,78.5,136.0,77.5,128.0,75.5,125.0,68.5,116.0,74.0,107.5,65.5,102.5,64.5,94.5,69.5,97.0,60.5,89.0,59.5" stroke="black" stroke-width="2" fill="none" />
<polyline points="100.0,54.5,107.5,54.0,115.0,52.5" stroke="black" stroke-width="2" fill="none" />
<polyline points="115.5,52.0,123.5,45.0" stroke="black" stroke-width="2" fill="none" />
<polyline points="115.0,42.5,107.0,49.5" stroke="black" stroke-width="2" fill="none" />
<polyline points="108.5,50.0,116.5,49.5,124.5,49.5" stroke="black" stroke-width="2" fill="none" />
<polyline points="116.5,54.5,115.5,62.0,115.5,68.0,115.5,73.0,119.5,79.5,121.5,85.5,130.0,83.5" stroke="black" stroke-width="2" fill="none" />
<polyline points="129.5,68.5,137.0,68.0,145.5,67.5" stroke="black" stroke-width="2" fill="none" />
<polyline points="131.0,41.5,123.0,41.5,115.0,42.0,107.0,42.5,99.0,42.5,91.5,42.5,84.0,43.0,76.0,43.5,68.0,44.5,60.0,45.5" stroke="black" stroke-width="2" fill="none" />
<polyline points="60.0,51.5,68.5,44.0,76.5,36.5" stroke="black" stroke-width="2" fill="none" />
<polyline points="75.5,42.5,83.5,35.0" stroke="black" stroke-width="2" fill="none" />
<polyline points="77.5,29.5,78.5,37.5,81.5,42.5,93.5,36.0,102.0,37.5,110.0,32.5,117.5,31.5,119.5,40.5,128.0,44.5,136.0,52.5" stroke="black" stroke-width="2" fill="none" />
<polyline points="144.0,34.5,135.5,26.0,133.5,23.5,125.5,29.5" stroke="black" stroke-width="2" fill="none" />
<polyline points="122.0,20.5,114.5,28.0" stroke="black" stroke-width="2" fill="none" />
<polyline points="116.5,33.5,108.5,41.5" stroke="black" stroke-width="2" fill="none" />
<polyline points="108.5,25.5,116.0,18.0" stroke="black" stroke-width="2" fill="none" />
<polyline points="113.0,12.5,121.0,12.5" stroke="black" stroke-width="2" fill="none" />
<polyline points="125.5,21.5,118.5,21.5,110.5,22.0" stroke="black" stroke-width="2" fill="none" />
<polyline points="109.0,16.0,109.0,18.0,103.0,25.5,107.5,35.5,101.0,42.0,106.5,55.0,105.5,60.5,108.0,66.5,112.0,76.5,109.0,82.0,113.0,90.5,117.0,94.5,114.0,98.5,110.5,100.5,114.5,106.5,112.0,112.5,107.5,121.0,115.5,123.0,117.5,125.0,125.5,127.0,131.5,128.0,139.5,127.0,143.0,128.0,148.5,120.0,150.5,118.0,156.0,120.0,159.0,108.5,164.5,108.5,170.5,109.5,169.0,114.0,165.0,122.0,167.0,127.0,166.0,133.0,159.5,139.0,158.5,148.0,159.5,146.0,162.0,138.5,174.0,134.5,179.5,135.5,187.0,145.5" stroke="black" stroke-width="2" fill="none" />
<polyline points="175.0,132.5,177.0,140.5,184.5,146.0,182.5,153.0,179.0,154.0,181.0,157.0,182.0,163.0,184.5,172.5,186.5,174.5,182.5,179.0,185.0,189.0,193.5,189.5,196.5,197.5,202.5,202.0" stroke="black" stroke-width="2" fill="none" />
<polyline points="125.5,233.5,120.5,240.5,114.5,247.5,109.0,246.0,95.5,251.5,87.0,254.5,83.0,251.5,77.5,243.5,75.5,235.5,71.5,227.5,67.0,219.5,65.0,211.0,62.0,203.0,60.0,195.0,58.5,187.0,59.0,179.5,63.5,171.5,60.0,163.0,58.5,155.5,59.5,147.0,60.0,139.5,60.0,132.0,59.5,124.5,58.5,117.0,57.5,109.0,60.5,101.0,54.0,99.0,58.5,91.0,58.0,83.5,59.5,75.5,60.5,67.5,60.5,59.5,61.5,51.0,71.5,51.0" stroke="black" stroke-width="2" fill="none" />
<polyline points="60.5,45.5,68.5,38.0" stroke="black" stroke-width="2" fill="none" />
<polyline points="67.5,20.0,59.0,20.5" stroke="black" stroke-width="2" fill="none" />
<polyline points="68.0,28.5,59.5,29.5,51.0,30.5" stroke="black" stroke-width="2" fill="none" />
<polyline points="49.0,38.0,57.0,37.0,65.5,36.5,74.0,35.5,83.0,34.5,92.0,34.0,100.5,33.5,108.5,33.0,116.0,32.5" stroke="black" stroke-width="2" fill="none" />
<polyline points="104.5,25.0,112.5,28.0,120.5,25.5,124.5,22.5,116.5,31.5,116.0,38.5,127.5,46.5,123.0,48.0,134.5,53.5,128.5,53.5,126.0,55.0,134.0,58.0" stroke="black" stroke-width="2" fill="none" />
<polyline points="121.5,67.5,113.5,69.0,105.5,76.0,103.5,80.0" stroke="black" stroke-width="2" fill="none" />
<polyline points="91.5,91.5,100.0,87.5,101.0,96.5,110.5,90.0,118.5,94.0" stroke="black" stroke-width="2" fill="none" />
<polyline points="112.0,103.0,120.0,100.0,129.0,102.5,137.0,102.5,145.0,97.5" stroke="black" stroke-width="2" fill="none" />
<polyline points="77.0,107.0,68.5,108.0" stroke="black" stroke-width="2" fill="none" />
<polyline points="65.0,108.5,73.0,113.5,81.5,116.0,90.0,117.0,98.0,118.0" stroke="black" stroke-width="2" fill="none" />
<polyline points="76.0,92.5,84.0,92.5,88.5,86.5,94.5,81.0,101.0,83.5,109.0,83.5,111.5,85.5,118.5,89.5,126.0,93.5" stroke="black" stroke-width="2" fill="none" />
<polyline points="100.5,48.0,92.5,42.0" stroke="black" stroke-width="2" fill="none" />
<polyline points="85.5,27.0,93.0,27.0,100.5,26.5" stroke="black" stroke-width="2" fill="none" />
<polyline points="91.0,20.5,83.0,21.0" stroke="black" stroke-width="2" fill="none" />
<polyline points="83.5,20.0,91.5,12.5" stroke="black" stroke-width="2" fill="none" />
<polyline points="91.5,14.0,84.0,14.5,76.5,15.5" stroke="black" stroke-width="2" fill="none" />
<polyline points="75.0,15.0,83.0,20.5" stroke="black" stroke-width="2" fill="none" />
<polyline points="97.0,22.0,106.5,14.0,99.5,15.0" stroke="black" stroke-width="2" fill="none" />
<polyline points="74.5,8.5,74.5,16.5,82.0,20.0,86.0,28.5,88.5,37.0,85.5,44.0,95.5,56.5,98.0,64.5,93.5,70.0,97.0,71.0,96.0,78.5,96.0,86.5,99.5,87.0,98.5,90.0,97.0,92.5,102.5,100.5,96.0,103.5" stroke="black" stroke-width="2" fill="none" />
<polyline points="93.0,109.0,90.5,101.0,94.0,94.0,91.0,88.5,76.5,89.5,89.0,83.0,89.0,82.5,81.5,86.5,73.5,93.5" stroke="black" stroke-width="2" fill="none" />
<polyline points="70.0,92.0,72.5,79.0" stroke="black" stroke-width="2" fill="none" />
<polyline points="68.0,68.5,59.5,69.0" stroke="black" stroke-width="2" fill="none" />
<polyline points="58.5,59.5,66.5,59.5" stroke="black" stroke-width="2" fill="none" />
<polyline points="66.5,76.0,59.0,76.5,51.0,76.5" stroke="black" stroke-width="2" fill="none" />
<polyline points="49.0,74.5,49.0,80.5,50.0,78.5,49.0,70.5" stroke="black" stroke-width="2" fill="none" />
<polyline points="51.0,86.5,59.0,86.0" stroke="black" stroke-width="2" fill="none" />
<polyline points="59.5,91.5,52.0,99.0" stroke="black" stroke-width="2" fill="none" />
<polyline points="53.0,101.5,52.0,109.5,53.5,117.0,54.0,124.5,54.5,132.5,54.5,140.0,54.0,148.0,53.0,156.0,55.5,164.0,51.0,172.0,48.0,179.5,52.0,187.0,42.5,188.5,43.5,196.0,50.5,199.0,54.5,209.5" stroke="black" stroke-width="2" fill="none" />
<polyline points="57.0,189.5,65.0,187.5,65.0,191.0,66.0,191.0,76.0,185.0,85.0,177.0,92.0,177.0,97.5,184.5,103.5,182.5" stroke="black" stroke-width="2" fill="none" />
<polyline points="99.5,179.5,103.0,181.5,99.0,190.0,100.0,196.0,96.5,201.5" stroke="black" stroke-width="2" fill="none" />
<polyline points="98.0,191.5,85.5,191.5,83.5,185.5,75.5,184.5,71.0,186.5,63.5,183.5" stroke="black" stroke-width="2" fill="none" />
<polyline points="62.0,180.5,69.0,177.5,73.5,179.0,81.5,175.0" stroke="black" stroke-width="2" fill="none" />
<polyline points="64.0,168.5,51.0,169.5,43.5,171.0,43.0,169.0,40.0,166.0,32.0,170.0" stroke="black" stroke-width="2" fill="none" />
<polyline points="28.5,164.0,36.5,164.0" stroke="black" stroke-width="2" fill="none" />
<polyline points="36.5,162.5,33.5,170.5,41.0,175.0,38.0,176.0,31.5,183.0,34.0,185.5,30.0,198.0,27.5,207.5,30.5,218.0,28.0,228.0,35.5,239.0,43.5,243.0,52.0,242.0,60.0,241.5,68.0,239.0,75.5,250.0" stroke="black" stroke-width="2" fill="none" />
<polyline points="28.0,221.0,20.0,221.0" stroke="black" stroke-width="2" fill="none" />
<polyline points="22.0,225.5,30.5,236.5,38.5,246.0,46.0,251.0,54.0,255.0" stroke="black" stroke-width="2" fill="none" />
<polyline points="67.0,254.5,48.0,246.5,41.5,245.5,31.5,237.0,25.5,228.5,21.0,220.5,19.5,212.5,20.0,205.0,21.0,197.5,20.5,190.0,21.0,182.0,24.0,174.5,26.0,166.5,28.5,158.5,30.5,150.5,34.5,142.5,37.0,135.0,38.0,127.0,40.5,119.0,41.5,111.0,45.0,103.0,51.0,94.0,54.0,85.5,55.0,77.0,57.0,69.0,58.5,61.0,51.0,63.0,43.0,68.0,38.0,74.0,34.0,77.0,28.0,85.0,19.5,83.5,25.5,75.5,35.5,68.0,46.5,60.0,42.5,51.0" stroke="black" stroke-width="2" fill="none" />
<polyline points="36.5,47.0,28.5,45.0,14.5,53.0,16.0,49.0,24.0,44.0,32.5,41.0,40.5,37.5,49.0,36.5,57.0,34.5,69.0,30.5,77.0,29.5,88.0,33.5,96.5,29.5,104.5,20.5,112.5,16.5,120.0,17.0,133.0,15.5" stroke="black" stroke-width="2" fill="none" />
<polyline points="139.5,17.5,147.5,10.0" stroke="black" stroke-width="2" fill="none" />
<polyline points="141.5,5.5,142.0,6.5,148.5,14.0,137.5,21.0,145.0,15.5,153.0,17.5,161.0,2.5,164.0,2.0,169.0,5.0,179.0,6.5,181.5,15.0,182.0,20.0" stroke="black" stroke-width="2" fill="none" />
<polyline points="187.5,2.0,181.5,9.5,179.5,11.5,178.5,17.0,174.5,25.0,177.5,33.0,183.5,41.0,191.0,39.5,192.0,49.5,183.5,54.0,185.5,57.0,175.5,60.0,181.0,65.0,188.5,73.5,193.0,77.5,199.0,84.5,197.0,95.5,198.5,102.5,203.0,108.5,194.0,112.0,202.0,113.0,192.0,123.0,188.0,129.0,195.5,142.0,199.0,133.5,203.0,136.5,208.5,135.0,212.0,140.5,217.5,140.0,219.5,135.0,231.5,145.5,238.5,133.0,246.0,132.0,248.0,135.0,255.5,136.5" stroke="black" stroke-width="2" fill="none" />
<polyline points="211.5,8.5,205.5,16.5,202.5,11.5,197.5,4.0,192.0,3.0,184.0,9.0,177.0,18.0,176.0,23.0,168.5,31.0,165.0,30.0,157.0,30.0,157.0,32.0,158.5,24.0,165.5,19.5,158.0,24.5,157.0,19.5" stroke="black" stroke-width="2" fill="none" />
<polyline points="162.5,4.5,154.5,5.0,146.5,6.0,138.0,6.0" stroke="black" stroke-width="2" fill="none" />
<polyline points="136.0,3.0,134.0,11.0,131.0,18.5,134.5,20.0,141.5,25.5,144.0,33.5,148.0,37.0,150.0,45.0,149.0,52.5,142.0,60.5,128.0,68.5,130.0,76.5,125.0,80.0,117.5,82.0,109.0,90.5,106.5,96.0,104.5,102.0,102.0,109.5,101.5,116.0,103.5,128.5,99.0,130.5,91.5,133.5,86.5,141.0,95.0,146.0,82.0,155.0,77.0,160.0,67.0,161.0,77.5,162.0,85.0,168.0,80.0,176.0,68.0,174.0,73.5,178.5,78.5,184.5,73.5,192.5,73.5,197.5,73.5,204.5,74.5,212.0,73.5,218.0,73.5,226.0,78.5,228.0,83.0,234.5,85.0,243.0,95.5,245.0,93.0,253.0" stroke="black" stroke-width="2" fill="none" />
<polyline points="121.5,226.0,111.5,224.0,110.5,226.0,105.0,234.0,92.0,237.5,84.0,237.5,80.0,241.5,71.5,229.0,59.5,206.5,51.5,189.5" stroke="black" stroke-width="2" fill="none" />
<polyline points="47.0,188.5,45.5,185.5,38.0,186.5,37.5,181.5,31.5,179.5" stroke="black" stroke-width="2" fill="none" />
<polyline points="26.5,188.0,18.5,189.0" stroke="black" stroke-width="2" fill="none" />
<polyline points="19.0,183.5,27.0,182.5" stroke="black" stroke-width="2" fill="none" />
<polyline points="28.0,196.5,20.5,197.5" stroke="black" stroke-width="2" fill="none" />
<polyline points="20.5,205.0,28.5,204.5" stroke="black" stroke-width="2" fill="none" />
<polyline points="28.5,212.5,20.0,212.5" stroke="black" stroke-width="2" fill="none" />
<polyline points="2.0,193.0,4.0,195.0,6.5,202.5,3.5,208.5,2.5,216.5,10.5,211.0,13.5,213.5,7.5,218.5,10.0,226.5,17.0,230.5,10.0,238.0,3.0,249.5,6.0,251.5,15.0,254.5,21.0,247.0,24.5,249.5" stroke="black" stroke-width="2" fill="none" />
<polyline points="28.5,246.5,20.0,243.5" stroke="black" stroke-width="2" fill="none" />
<polyline points="18.0,240.0,24.0,243.5,14.5,249.5,18.5,251.5" stroke="black" stroke-width="2" fill="none" />
<polyline points="25.5,252.0,24.5,241.0,16.5,240.5,17.5,226.5,10.0,238.0" stroke="black" stroke-width="2" fill="none" />
<polyline points="11.5,245.5,11.0,243.0,3.0,248.5" stroke="black" stroke-width="2" fill="none" />
<polyline points="44.0,253.5,36.0,252.5,34.0,249.5,30.5,257.0,28.0,252.0,39.0,242.0,32.5,233.5,25.5,225.5,24.0,217.0,22.5,209.5,23.5,201.0,25.0,193.5,25.5,185.5,27.5,177.5,30.0,169.5,33.0,161.5,36.5,153.0,39.5,144.5,42.0,136.5,43.0,128.5,45.0,120.5,47.0,112.5,48.5,104.5,51.0,99.5,36.5,110.0,38.0,106.0,41.0,103.5,38.0,96.0,26.5,97.0,18.5,101.0" stroke="black" stroke-width="2" fill="none" />
<polyline points="23.0,94.5,31.0,93.5,35.5,96.5,40.5,100.5" stroke="black" stroke-width="2" fill="none" />
<polyline points="43.5,102.5,51.5,102.0,60.0,101.5" stroke="black" stroke-width="2" fill="none" />
<polyline points="59.0,98.0,51.0,105.5" stroke="black" stroke-width="2" fill="none" />
<polyline points="43.5,110.0,52.0,109.5,60.0,109.5" stroke="black" stroke-width="2" fill="none" />
<polyline points="59.5,113.0,62.5,106.0,65.5,100.0,62.5,108.0,66.5,112.5,69.5,108.0,77.5,112.5,86.0,113.5,94.5,114.0,102.5,115.5,108.5,120.5,115.5,113.5,124.0,111.0,131.0,114.0,142.5,117.0,144.5,121.0,145.5,111.5,146.5,113.0,154.5,114.0" stroke="black" stroke-width="2" fill="none" />
<polyline points="102.0,165.5,94.0,169.5,90.0,163.0,82.5,159.0,76.5,160.0,75.5,151.0,69.5,146.0" stroke="black" stroke-width="2" fill="none" />
<polyline points="61.5,139.5,54.0,140.5" stroke="black" stroke-width="2" fill="none" />
<polyline points="44.5,151.0,36.5,151.5" stroke="black" stroke-width="2" fill="none" />
<polyline points="37.5,157.5,29.5,158.0" stroke="black" stroke-width="2" fill="none" />
<polyline points="31.5,155.5,40.0,144.5,45.0,137.0" stroke="black" stroke-width="2" fill="none" />
<polyline points="44.0,140.5,36.0,141.0" stroke="black" stroke-width="2" fill="none" />
<polyline points="35.5,131.0,43.5,130.5" stroke="black" stroke-width="2" fill="none" />
<polyline points="43.5,118.0,51.5,117.5,60.0,117.0" stroke="black" stroke-width="2" fill="none" />
<polyline points="59.0,94.5,51.0,95.0" stroke="black" stroke-width="2" fill="none" />
<polyline points="27.5,105.0,27.5,105.0,22.0,106.0,15.0,111.0,18.5,122.0" stroke="black" stroke-width="2" fill="none" />
<polyline points="21.5,108.5,29.5,109.5,29.5,114.5,23.5,122.5,29.5,125.5,34.0,129.0,27.0,132.0,16.0,136.0,21.0,141.0,27.0,144.5,24.0,150.0" stroke="black" stroke-width="2" fill="none" />
<polyline points="15.5,162.5,7.5,163.5" stroke="black" stroke-width="2" fill="none" />
<polyline points="2.5,165.0,6.5,163.0,9.0,159.0,4.0,164.5,4.0,173.0,15.5,174.0,16.5,182.5,17.0,190.0" stroke="black" stroke-width="2" fill="none" />
<polyline points="3.0,184.0,11.0,178.0,19.0,174.5,27.5,163.0,35.0,140.5" stroke="black" stroke-width="2" fill="none" />
<polyline points="31.5,132.5,24.0,137.0,16.0,137.0,6.5,136.0,2.5,139.5" stroke="black" stroke-width="2" fill="none" />
<polyline points="19.5,116.5,13.5,113.5,2.5,107.0" stroke="black" stroke-width="2" fill="none" />
<polyline points="2.0,101.5,4.0,98.5,11.0,103.0,9.0,111.0,3.5,115.0,11.0,129.0,16.0,124.0,24.5,118.5,29.0,121.5" stroke="black" stroke-width="2" fill="none" />
<polyline points="27.0,78.0,19.0,78.5" stroke="black" stroke-width="2" fill="none" />
<polyline points="30.0,70.0,38.0,69.5" stroke="black" stroke-width="2" fill="none" />
<polyline points="34.5,60.0,42.0,59.5,50.0,59.5" stroke="black" stroke-width="2" fill="none" />
<polyline points="51.0,52.5,58.5,52.0,66.5,52.0" stroke="black" stroke-width="2" fill="none" />
<polyline points="54.0,31.0,46.0,29.5,38.0,26.5,30.0,26.5,22.5,26.5,20.5,32.5" stroke="black" stroke-width="2" fill="none" />
<polyline points="19.5,22.5,27.0,21.5" stroke="black" stroke-width="2" fill="none" />
<polyline points="35.0,19.0,42.5,19.0" stroke="black" stroke-width="2" fill="none" />
<polyline points="38.5,26.0,40.5,35.0,31.0,41.0,16.0,43.0,11.0,52.0,6.0,56.0,6.5,65.5,7.5,74.5,6.5,75.5,9.5,67.5,18.0,62.5,25.0,65.5,32.5,59.5" stroke="black" stroke-width="2" fill="none" />
<polyline points="19.5,55.0,19.0,57.5,22.0,56.0,18.0,68.0,18.0,74.0,17.0,86.0,25.0,76.5,33.5,70.0,41.5,63.5,49.5,59.0,57.5,58.0,69.5,62.0,75.5,70.0,76.5,68.0,69.5,73.0,72.5,80.5,68.0,88.5,65.0,88.5,73.0,93.0,70.0,102.5,74.5,106.5,73.0,111.5,76.5,123.0,81.5,131.0,85.0,133.5,87.0,140.5,93.0,131.5,98.0,132.0,103.0,123.0,117.0,121.5" stroke="black" stroke-width="2" fill="none" />
<polyline points="52.5,91.0,44.5,104.5,36.5,105.5,33.0,101.5,26.0,100.5,18.0,104.0,14.0,97.0,11.0,94.0,11.0,91.0,2.5,86.0" stroke="black" stroke-width="2" fill="none" />
<polyline points="9.5,52.5,17.0,51.5" stroke="black" stroke-width="2" fill="none" />
<polyline points="16.0,42.5,10.0,48.5,1.5,46.5" stroke="black" stroke-width="2" fill="none" />
<polyline points="3.0,45.5,3.0,53.5,11.5,54.5,19.5,48.5,27.5,44.5,35.5,41.5,44.0,39.5,52.0,38.5,63.0,39.0,65.0,42.0" stroke="black" stroke-width="2" fill="none" />
<polyline points="52.5,25.5,45.0,23.0,37.5,21.5,29.5,20.5,21.5,21.5,13.0,27.5,11.0,30.5,3.0,25.0" stroke="black" stroke-width="2" fill="none" />
<polyline points="4.5,27.5,9.5,35.5,13.0,39.5,24.0,32.0,31.0,34.5,37.0,35.5,45.0,33.5" stroke="black" stroke-width="2" fill="none" />
<polyline points="43.5,43.0,44.5,51.5,34.5,57.5,15.5,66.5,11.0,74.5,11.5,81.5,20.5,76.5,28.0,68.5,36.0,62.5,43.5,56.5,51.5,51.5,63.0,49.5,71.0,45.5,79.0,46.5,87.0,46.5,95.0,49.5,103.0,51.5,111.0,54.0,119.0,50.0,127.0,53.0" stroke="black" stroke-width="2" fill="none" />
<polyline points="116.0,5.0,104.5,6.0,99.5,12.0,99.5,18.5,89.0,14.5,81.0,8.5,73.0,8.5,63.5,17.5,60.5,25.5,64.0,18.0,67.0,10.5,70.0,3.0" stroke="black" stroke-width="2" fill="none" />
<polyline points="40.5,3.0,32.5,2.0,25.0,6.0,12.0,3.0,8.5,12.5,3.5,16.5,11.5,10.5,16.5,9.5,18.5,13.0,24.0,3.5,32.0,7.0,36.0,4.0,42.5,6.5,49.0,6.5,52.0,9.5,56.0,12.5,56.0,4.0,60.0,8.0,65.5,2.5,60.0,10.0,56.5,17.5,51.0,25.5,57.0,41.0,52.5,49.5,41.5,58.0,32.0,66.5,23.5,75.0,14.0,83.5,9.5,86.5,4.0,91.5,8.0,95.0,4.0,101.5,7.5,115.5,7.5,123.5,17.5,125.0,15.0,132.5,7.0,136.5,8.0,140.0,20.0,145.5,19.0,153.0,21.5,157.0" stroke="black" stroke-width="2" fill="none" />
<polyline points="87.5,193.0,96.5,201.0,90.0,207.0,96.5,215.5,99.0,223.5,101.0,231.5,103.0,239.5,103.5,250.5" stroke="black" stroke-width="2" fill="none" />
<polyline points="30.0,36.0,33.0,28.0" stroke="black" stroke-width="2" fill="none" />
<polyline points="28.5,16.5,28.5,16.0,33.5,13.5,34.5,5.5" stroke="black" stroke-width="2" fill="none" />
<polyline points="14.5,2.0,6.5,3.0" stroke="black" stroke-width="2" fill="none" />
<polyline points="10.0,33.5,2.0,34.0" stroke="black" stroke-width="2" fill="none" />
</svg>