<svg xmlns="http://www.w3.org/2000/svg" version="1.1"><polyline points="120.5,58.5,102.0,66.5,91.0,74.5,83.5,82.0,74.0,93.0,70.5,100.0,64.0,108.0,63.0,108.5,63.0,118.5,59.0,118.0,59.5,112.5,71.0,96.5" stroke="black" stroke-width="2" fill="none" />
<polyline points="67.5,100.5,59.5,100.0,51.0,100.5" stroke="black" stroke-width="2" fill="none" />
<polyline points="54.0,99.0,53.0,107.0,44.0,107.5,45.0,107.5,46.0,111.5,53.0,105.5,58.0,99.0" stroke="black" stroke-width="2" fill="none" />
<polyline points="58.5,91.5,66.5,83.5" stroke="black" stroke-width="2" fill="none" />
<polyline points="59.5,78.0,67.5,77.5,75.5,77.0,83.0,76.5" stroke="black" stroke-width="2" fill="none" />
<polyline points="82.5,78.0,75.0,79.0,67.5,80.0,59.5,81.5,51.0,82.5,42.5,83.0,35.5,84.5,28.0,85.5,21.0,86.5,13.5,87.5,5.5,87.5" stroke="black" stroke-width="2" fill="none" />
<polyline points="3.0,86.0,11.0,86.0,18.5,86.0,26.5,86.0,34.0,85.5,39.0,85.5,46.5,85.5,54.0,85.5,61.5,86.0,69.5,86.0" stroke="black" stroke-width="2" fill="none" />
<polyline points="83.5,100.0,91.0,100.0,99.0,99.5,106.5,99.0,114.0,98.5,122.0,98.5,130.0,98.5,139.0,98.0,147.0,98.0,155.5,98.0,163.5,98.0,171.5,97.5,179.5,96.5,187.5,95.5,195.0,95.0,203.0,94.5" stroke="black" stroke-width="2" fill="none" />
<polyline points="208.0,90.5,216.5,106.0,219.5,100.0,227.5,95.5,234.0,104.0,244.0,107.0,252.5,109.5" stroke="black" stroke-width="2" fill="none" />
<polyline points="250.5,93.5,243.0,93.5,235.0,94.5" stroke="black" stroke-width="2" fill="none" />
<polyline points="237.5,88.5,245.5,88.5,248.0,91.0" stroke="black" stroke-width="2" fill="none" />
<polyline points="244.0,100.0,235.5,100.5,228.0,101.5,220.0,101.5" stroke="black" stroke-width="2" fill="none" />
<polyline points="218.5,93.0,227.0,92.0" stroke="black" stroke-width="2" fill="none" />
<polyline points="218.0,89.0,225.5,89.5,233.5,91.0,231.5,102.0,245.5,103.0,245.0,108.0,249.0,113.0,239.5,117.0,235.5,122.0,238.5,113.0,242.5,109.0,251.5,103.0" stroke="black" stroke-width="2" fill="none" />
<polyline points="259.0,116.5,250.5,117.0,242.5,118.0,234.0,118.0,226.0,118.5" stroke="black" stroke-width="2" fill="none" />
<polyline points="223.5,119.5,225.5,127.5,226.5,133.5,227.0,141.5,229.0,150.0,225.5,152.0,232.5,159.0,228.5,162.5,228.0,176.5,228.5,183.5,236.0,183.5,238.5,176.5,240.5,183.0,248.5,179.0,248.5,170.0,255.5,165.5" stroke="black" stroke-width="2" fill="none" />
<polyline points="260.0,155.5,251.5,155.5,243.0,155.5,235.0,155.5,227.0,156.5,219.5,157.0" stroke="black" stroke-width="2" fill="none" />
<polyline points="218.0,162.0,225.5,154.5" stroke="black" stroke-width="2" fill="none" />
<polyline points="219.5,148.0,227.0,147.5,235.0,146.5,243.0,146.0,251.0,145.0,260.0,144.5" stroke="black" stroke-width="2" fill="none" />
<polyline points="254.5,151.5,254.5,159.5,253.5,173.5" stroke="black" stroke-width="2" fill="none" />
<polyline points="234.5,172.0,227.0,179.5,218.5,186.5,210.5,193.5,202.0,200.5" stroke="black" stroke-width="2" fill="none" />
<polyline points="209.5,203.0,217.5,196.0,225.0,189.0,233.0,181.5" stroke="black" stroke-width="2" fill="none" />
<polyline points="226.0,178.0,218.0,178.5" stroke="black" stroke-width="2" fill="none" />
<polyline points="211.0,178.0,219.0,171.0,226.5,163.5" stroke="black" stroke-width="2" fill="none" />
<polyline points="236.5,162.5,228.5,170.0,220.5,177.5,212.0,185.5,203.5,193.0,195.5,200.0,187.0,207.5,178.5,215.0,170.0,222.0,162.0,229.0,154.0,236.5,146.0,244.0" stroke="black" stroke-width="2" fill="none" />
<polyline points="162.0,247.0,171.0,240.0,179.5,232.5,188.0,225.0,196.0,217.0,204.5,209.0" stroke="black" stroke-width="2" fill="none" />
<polyline points="213.0,209.5,204.5,217.0,196.0,224.5,188.0,232.0,179.5,239.5,171.0,247.0" stroke="black" stroke-width="2" fill="none" />
<polyline points="180.0,247.5,188.0,240.5,195.5,233.0,203.5,226.0,211.5,218.5" stroke="black" stroke-width="2" fill="none" />
<polyline points="211.0,222.5,203.0,222.5,195.0,223.5,187.5,224.0,179.0,224.5,170.5,225.0,162.5,226.0,154.0,226.5,146.0,227.0,138.5,228.0,130.0,229.5,122.0,230.5,114.0,231.0,106.0,231.0" stroke="black" stroke-width="2" fill="none" />
<polyline points="106.5,232.5,98.5,234.5" stroke="black" stroke-width="2" fill="none" />
<polyline points="93.0,226.0,101.0,221.5,108.0,224.0" stroke="black" stroke-width="2" fill="none" />
<polyline points="107.0,217.5,115.5,210.0" stroke="black" stroke-width="2" fill="none" />
<polyline points="115.5,217.0,123.5,210.0" stroke="black" stroke-width="2" fill="none" />
<polyline points="124.0,219.5,116.0,227.0" stroke="black" stroke-width="2" fill="none" />
<polyline points="122.5,228.0,130.0,220.5" stroke="black" stroke-width="2" fill="none" />
<polyline points="141.5,221.5,133.5,229.0,125.0,236.5" stroke="black" stroke-width="2" fill="none" />
<polyline points="133.0,242.0,141.5,234.0,149.5,226.5,158.0,219.0" stroke="black" stroke-width="2" fill="none" />
<polyline points="147.5,217.5,140.0,225.0,132.0,233.0,124.0,241.0" stroke="black" stroke-width="2" fill="none" />
<polyline points="115.5,245.5,123.0,244.5,131.5,244.0,139.5,244.0,147.0,244.0,155.0,244.0,163.0,243.0,170.5,242.0,178.0,242.0,185.0,241.5,193.0,241.0,201.0,240.5" stroke="black" stroke-width="2" fill="none" />
<polyline points="207.0,248.0,205.0,251.0,209.5,254.0,207.5,252.0,216.0,241.5" stroke="black" stroke-width="2" fill="none" />
<polyline points="221.0,233.0,216.5,241.0,214.0,246.5,216.0,254.5" stroke="black" stroke-width="2" fill="none" />
<polyline points="196.0,250.0,188.0,250.0,179.5,250.0,171.0,250.0,163.0,250.5,155.0,250.5,147.5,251.0,139.5,252.0,131.0,252.5" stroke="black" stroke-width="2" fill="none" />
<polyline points="153.0,250.0,161.5,242.0,170.0,234.0,179.0,226.5,187.5,220.0,196.0,212.5" stroke="black" stroke-width="2" fill="none" />
<polyline points="181.5,212.5,173.5,220.0,165.5,228.0,157.5,236.0,149.0,244.0,141.5,251.0" stroke="black" stroke-width="2" fill="none" />
<polyline points="140.0,240.0,147.5,232.5,155.5,225.0,163.0,217.0,170.5,209.0" stroke="black" stroke-width="2" fill="none" />
<polyline points="172.0,204.5,179.5,204.5,187.5,204.5,195.0,204.0,203.0,202.5,210.5,202.0,218.5,202.0,226.5,201.0" stroke="black" stroke-width="2" fill="none" />
<polyline points="229.5,205.0,221.0,205.5,213.0,205.5,204.0,205.5,195.5,206.0,187.0,207.0,178.5,208.0,170.5,208.0,163.5,208.5,156.0,208.5,149.0,209.5,141.0,210.5,133.0,210.5,125.0,210.5,117.0,211.0,109.0,211.5,101.0,212.0" stroke="black" stroke-width="2" fill="none" />
<polyline points="99.0,206.5,99.0,204.5,99.0,207.0,100.0,215.0,101.0,223.5,103.0,228.5,106.0,237.0,116.5,236.0,115.5,233.5,111.0,245.5,111.0,253.5" stroke="black" stroke-width="2" fill="none" />
<polyline points="113.0,238.0,121.0,238.0,130.0,238.0,138.5,237.5,147.0,236.0,155.0,235.0,162.5,235.0,170.5,235.0,178.5,235.0,186.0,234.0,194.0,233.5,202.0,233.0,210.5,233.0" stroke="black" stroke-width="2" fill="none" />
<polyline points="211.5,223.0,219.5,218.0,215.0,221.0,210.0,229.5,206.0,237.5,201.0,241.5,192.0,255.0" stroke="black" stroke-width="2" fill="none" />
<polyline points="186.0,197.0,194.0,197.0,202.0,196.5,210.0,196.0,218.5,196.0,227.0,196.0,235.0,195.5" stroke="black" stroke-width="2" fill="none" />
<polyline points="235.0,186.5,227.0,187.0,219.0,187.0,211.5,187.0,204.0,187.0,196.0,188.0" stroke="black" stroke-width="2" fill="none" />
<polyline points="203.0,185.0,211.0,185.0,219.0,185.5,227.0,185.5,234.5,185.5,242.5,185.0,251.0,186.0,253.0,189.0" stroke="black" stroke-width="2" fill="none" />
<polyline points="226.5,184.0,218.5,184.0,210.0,184.0" stroke="black" stroke-width="2" fill="none" />
<polyline points="205.0,180.0,212.5,180.0,220.0,180.0,228.0,180.0,236.0,179.5,243.5,179.0,251.5,178.5,260.0,178.0" stroke="black" stroke-width="2" fill="none" />
<polyline points="260.0,172.0,251.5,172.0,243.0,172.0,235.0,172.0,227.0,172.0,218.5,172.0,210.5,172.0" stroke="black" stroke-width="2" fill="none" />
<polyline points="217.0,169.5,225.5,169.0" stroke="black" stroke-width="2" fill="none" />
<polyline points="228.5,174.0,236.5,172.5" stroke="black" stroke-width="2" fill="none" />
<polyline points="259.5,163.5,251.0,164.0,242.5,163.5,234.0,164.0,226.0,164.5,217.5,164.5,209.5,165.0" stroke="black" stroke-width="2" fill="none" />
<polyline points="204.0,154.5,196.0,162.0,187.5,169.0,179.5,176.5,171.0,184.5" stroke="black" stroke-width="2" fill="none" />
<polyline points="170.5,186.0,163.0,186.5,155.0,187.5,147.0,188.0,139.5,188.5,131.5,189.5,123.5,190.5,115.5,191.0" stroke="black" stroke-width="2" fill="none" />
<polyline points="121.5,188.5,129.5,180.5,138.0,173.0,146.5,166.0,155.0,159.5,163.0,152.5,171.5,145.5,180.0,138.5,188.0,131.5,196.0,125.0,204.0,117.0" stroke="black" stroke-width="2" fill="none" />
<polyline points="204.0,109.0,196.0,116.0,188.0,123.0,179.5,130.0,170.5,137.0,162.5,145.0,154.0,152.5,145.5,160.0,137.5,167.0,129.5,174.5,121.0,182.0" stroke="black" stroke-width="2" fill="none" />
<polyline points="114.5,183.0,122.5,175.0,130.5,168.0,139.0,161.0,147.0,153.5,155.0,146.0,163.0,139.0,171.0,132.0,179.0,124.5,187.0,117.0,195.0,109.5" stroke="black" stroke-width="2" fill="none" />
<polyline points="195.5,101.5,188.0,109.0,180.5,116.5,173.0,123.5,165.0,130.5,157.0,137.5,149.0,145.0,141.0,153.0,133.0,160.5,125.0,168.0,117.5,175.5,109.0,183.0" stroke="black" stroke-width="2" fill="none" />
<polyline points="105.0,186.5,113.0,186.5,121.0,185.5,129.0,185.0,138.0,184.0,146.5,182.5,154.5,182.0,162.5,181.0" stroke="black" stroke-width="2" fill="none" />
<polyline points="163.0,184.0,170.5,176.5,178.5,169.0,186.5,162.0,195.0,154.5,203.0,147.5" stroke="black" stroke-width="2" fill="none" />
<polyline points="203.5,140.0,195.5,147.5,187.0,154.5,179.0,162.0,171.0,169.0,163.5,176.0,155.5,183.5" stroke="black" stroke-width="2" fill="none" />
<polyline points="140.0,191.0,147.5,183.5,156.0,176.5,164.0,169.5,172.0,162.5,179.0,155.0,186.5,147.5,195.0,140.5,203.0,133.5" stroke="black" stroke-width="2" fill="none" />
<polyline points="203.0,125.0,195.0,132.5,187.5,139.5,179.5,146.5,171.0,153.5,163.0,161.0,155.0,168.0,147.0,175.0,138.5,182.5,130.0,190.5" stroke="black" stroke-width="2" fill="none" />
<polyline points="130.5,189.5,138.5,191.5,146.5,191.5,154.5,191.5,162.5,189.5,171.0,185.5,169.0,183.5" stroke="black" stroke-width="2" fill="none" />
<polyline points="174.0,181.0,159.0,189.0" stroke="black" stroke-width="2" fill="none" />
<polyline points="108.0,174.5,116.0,167.0,124.5,159.5,132.5,152.0,140.5,144.5,148.0,137.5,155.5,130.0,164.0,122.5,172.0,115.0,179.5,107.0,187.0,99.5,195.0,92.0" stroke="black" stroke-width="2" fill="none" />
<polyline points="186.0,91.0,178.0,98.5,170.0,106.5,162.5,114.0,154.5,121.0,146.5,128.5,139.0,136.0,131.5,143.0,123.0,150.5,114.5,157.5,106.0,165.0,98.5,172.5" stroke="black" stroke-width="2" fill="none" />
<polyline points="98.5,171.0,106.5,170.0,114.0,169.0,121.5,168.0,129.5,167.5,137.5,167.0,145.5,166.0,153.0,165.5,161.5,165.0,169.5,164.5,177.5,164.0,185.5,163.5,194.0,163.5" stroke="black" stroke-width="2" fill="none" />
<polyline points="220.0,141.5,228.0,140.5,236.5,140.5,244.5,140.0,252.5,139.5" stroke="black" stroke-width="2" fill="none" />
<polyline points="252.0,134.0,244.0,134.0" stroke="black" stroke-width="2" fill="none" />
<polyline points="246.5,128.0,254.5,129.0" stroke="black" stroke-width="2" fill="none" />
<polyline points="258.5,125.0,250.0,125.0,241.5,125.5,233.0,125.5,225.0,126.0" stroke="black" stroke-width="2" fill="none" />
<polyline points="223.0,119.5,231.0,120.0,240.5,118.5,248.5,119.0,253.0,125.0" stroke="black" stroke-width="2" fill="none" />
<polyline points="252.5,121.0,244.0,124.0" stroke="black" stroke-width="2" fill="none" />
<polyline points="239.5,129.0,247.5,132.5,251.0,136.0,253.5,144.0,237.0,152.0,239.0,157.0,233.0,166.5,241.0,166.5,244.5,171.5,250.0,166.0" stroke="black" stroke-width="2" fill="none" />
<polyline points="251.0,144.5,246.0,136.0,243.0,143.5,235.0,146.5,238.5,143.5,246.5,139.5,236.5,138.5" stroke="black" stroke-width="2" fill="none" />
<polyline points="233.5,133.5,226.0,134.0" stroke="black" stroke-width="2" fill="none" />
<polyline points="223.5,136.0,225.5,133.0,233.5,130.0,238.5,132.0,233.0,140.0,230.5,147.0,233.5,151.5,236.5,156.5,239.5,148.5,244.0,151.5,247.0,148.5,249.5,155.0,255.0,152.0,247.0,160.5,253.0,159.0,246.5,165.0,247.0,172.5,237.5,173.5,233.0,178.0,246.0,182.5,254.0,182.5,256.5,177.5" stroke="black" stroke-width="2" fill="none" />
<polyline points="239.5,203.5,231.5,205.5" stroke="black" stroke-width="2" fill="none" />
<polyline points="221.0,214.0,213.0,214.5,204.0,215.0,195.5,215.5,188.0,216.5,180.0,216.5,172.0,217.0,164.5,218.5,156.5,219.0,149.0,219.0,141.5,219.0,133.0,220.0,125.0,220.5,117.0,221.0,109.5,221.0,101.5,221.5" stroke="black" stroke-width="2" fill="none" />
<polyline points="90.5,214.5,93.5,216.5,93.0,224.5,99.5,232.0,101.0,241.5,101.5,250.0,103.0,249.0,112.0,252.0,120.0,253.0,127.0,256.5,134.0,256.5,142.0,255.5,147.0,250.5,155.0,252.5,163.0,252.5,171.0,252.5,179.5,249.0,188.0,249.5,197.5,246.5,204.0,248.5,205.0,255.5,216.5,254.5" stroke="black" stroke-width="2" fill="none" />
<polyline points="251.0,231.5,256.0,226.5" stroke="black" stroke-width="2" fill="none" />
<polyline points="188.5,174.0,180.5,174.5,172.5,175.5,164.5,176.5,156.5,177.5,149.0,178.5,141.5,179.0,133.5,179.5,125.5,180.0,117.0,180.5,109.0,181.0,101.0,181.5" stroke="black" stroke-width="2" fill="none" />
<polyline points="100.0,179.0,108.0,178.5,116.0,177.0,123.5,176.5,131.0,176.0,139.0,175.5,147.0,174.5,154.5,173.0,162.5,172.5,170.5,172.0,178.0,171.0,186.5,171.0" stroke="black" stroke-width="2" fill="none" />
<polyline points="195.0,167.0,186.5,167.0,178.5,167.0,171.0,167.5,163.0,168.0,155.0,169.0,146.5,170.0,138.0,170.5,130.0,171.0,122.5,171.5,114.5,172.5,106.0,173.5,98.0,174.5" stroke="black" stroke-width="2" fill="none" />
<polyline points="100.0,166.5,108.0,159.0,116.5,151.5,124.5,144.5,132.5,137.0,140.5,129.5,149.0,122.0,157.0,114.0,164.5,106.5,171.5,98.5,179.5,90.5,187.0,83.0" stroke="black" stroke-width="2" fill="none" />
<polyline points="188.0,81.5,196.0,91.0,203.5,106.0" stroke="black" stroke-width="2" fill="none" />
<polyline points="219.5,111.0,228.0,110.5,236.0,110.0,244.0,109.0,252.0,108.5" stroke="black" stroke-width="2" fill="none" />
<polyline points="258.5,83.0,250.5,83.0,242.0,83.5,233.0,83.5,225.0,84.0,216.5,85.0,208.5,85.5" stroke="black" stroke-width="2" fill="none" />
<polyline points="207.0,87.5,215.0,87.5,223.0,86.5,231.5,86.5,240.0,87.0,248.0,87.0,256.0,87.0" stroke="black" stroke-width="2" fill="none" />
<polyline points="251.0,68.5,259.0,61.0" stroke="black" stroke-width="2" fill="none" />
<polyline points="227.5,66.5,219.0,74.0" stroke="black" stroke-width="2" fill="none" />
<polyline points="211.0,78.0,219.0,77.0,227.0,76.0,234.5,75.5,242.0,75.0,250.0,74.5,258.5,74.5" stroke="black" stroke-width="2" fill="none" />
<polyline points="259.0,64.0,250.5,64.5,242.0,64.5,234.0,65.0,226.0,65.5,218.0,67.0,210.5,68.0,202.0,69.0,194.0,70.0" stroke="black" stroke-width="2" fill="none" />
<polyline points="197.5,74.5,205.0,80.5,212.0,74.0" stroke="black" stroke-width="2" fill="none" />
<polyline points="221.0,76.0,213.0,72.0,205.5,65.0" stroke="black" stroke-width="2" fill="none" />
<polyline points="204.0,82.5,212.5,82.5,213.5,84.5,221.5,84.5,229.5,84.5,238.0,81.5,246.0,80.5" stroke="black" stroke-width="2" fill="none" />
<polyline points="250.5,83.5,242.5,83.5,235.0,84.0" stroke="black" stroke-width="2" fill="none" />
<polyline points="261.0,57.0,252.5,57.5,244.0,57.5,235.5,57.5,227.0,58.5,219.0,58.5,210.5,59.0,202.5,59.5,194.5,60.0,186.0,60.5" stroke="black" stroke-width="2" fill="none" />
<polyline points="171.0,54.0,179.0,53.0,186.5,52.0,194.0,51.5,201.0,51.5,209.0,51.5,217.5,51.0,225.5,50.0,234.0,49.5,243.0,49.5,251.0,49.5,259.0,49.0" stroke="black" stroke-width="2" fill="none" />
<polyline points="259.0,17.5,251.0,18.5,243.5,18.5,236.0,19.0,228.0,20.0,220.5,20.0" stroke="black" stroke-width="2" fill="none" />
<polyline points="220.5,3.5,228.5,3.0,236.0,2.0,243.5,2.0,251.0,1.5,259.0,1.5" stroke="black" stroke-width="2" fill="none" />
<polyline points="259.5,9.5,251.5,9.5,243.5,10.0,235.5,11.0,227.0,11.0,218.5,11.5,210.0,12.0,202.0,12.0,194.0,12.0" stroke="black" stroke-width="2" fill="none" />
<polyline points="203.0,19.0,195.5,19.0,187.5,19.0,179.5,19.5" stroke="black" stroke-width="2" fill="none" />
<polyline points="171.5,28.5,179.0,28.5,187.0,28.0,195.5,27.5,203.5,27.0,211.5,27.0,219.5,26.5,227.5,26.0,235.0,26.0,242.5,25.5,250.5,24.5,258.5,24.5" stroke="black" stroke-width="2" fill="none" />
<polyline points="260.5,39.0,252.5,39.5,244.5,40.0,236.5,40.5,228.0,41.0,220.0,41.0,212.0,41.0,204.5,41.0,196.5,41.5,188.5,42.0,180.5,42.5,172.0,43.0,164.0,43.5,156.0,44.0,148.5,45.0" stroke="black" stroke-width="2" fill="none" />
<polyline points="131.0,35.5,139.5,34.5,147.5,34.5,155.5,34.5,164.0,34.5,171.5,34.0,179.0,34.0,187.0,34.0,195.0,34.0,203.0,33.5,211.0,33.5,219.0,32.5,226.5,32.5,234.0,32.0,242.0,31.5,250.0,30.5,258.0,30.0" stroke="black" stroke-width="2" fill="none" />
<polyline points="179.5,72.5,171.5,73.0,163.5,74.0,155.0,75.0,146.5,75.5,139.0,76.0,131.0,77.5,123.5,78.0,115.5,78.5,107.5,79.0" stroke="black" stroke-width="2" fill="none" />
<polyline points="116.5,84.5,108.5,91.5,100.0,99.0,92.0,106.0" stroke="black" stroke-width="2" fill="none" />
<polyline points="91.0,113.0,99.0,112.5,107.5,112.0,115.5,111.5,123.5,111.0,131.5,110.5,139.5,110.0,147.0,110.0,155.0,109.0,162.5,108.0,170.0,107.5,178.5,107.0,186.5,106.5,194.5,106.0" stroke="black" stroke-width="2" fill="none" />
<polyline points="181.0,82.5,173.0,90.0,164.5,98.5,156.5,106.5,149.0,114.0,141.0,121.0,133.0,128.5,125.0,136.5,117.0,144.0,108.5,151.5,100.0,159.0,92.5,166.0" stroke="black" stroke-width="2" fill="none" />
<polyline points="90.0,165.5,98.0,165.0,107.0,164.5,115.5,163.5,124.0,163.5,132.0,162.5,140.0,162.0,148.0,161.0,156.0,160.0,164.0,159.5,172.0,159.0,180.0,158.0,187.5,158.0,195.0,158.0,203.0,158.0" stroke="black" stroke-width="2" fill="none" />
<polyline points="194.0,154.0,186.5,155.0,178.0,156.0,170.0,157.0,162.5,157.5,155.0,158.0,147.0,158.0,139.5,158.0,131.0,159.0,123.0,159.5,114.5,160.5,106.5,161.0,98.0,161.5,90.5,162.0" stroke="black" stroke-width="2" fill="none" />
<polyline points="92.0,157.5,100.5,150.5,108.5,142.5,116.5,135.0,124.5,128.0,132.5,120.5,140.5,113.0,148.5,105.5,156.5,98.0,164.0,90.5,171.5,83.0" stroke="black" stroke-width="2" fill="none" />
<polyline points="173.0,76.5,165.0,84.0,156.5,91.0,148.5,98.5,141.0,106.0,133.0,113.5,125.0,120.0,116.5,127.0,108.5,134.0,100.5,141.0,92.5,148.5" stroke="black" stroke-width="2" fill="none" />
<polyline points="89.5,153.0,98.0,152.5,106.5,152.5,114.5,152.5,122.5,152.0,130.5,151.0,138.5,150.5,146.0,150.5,154.5,149.5,162.5,148.0,170.0,147.0,178.0,147.0,186.0,147.0,194.5,146.5,203.0,146.0" stroke="black" stroke-width="2" fill="none" />
<polyline points="202.5,149.0,195.0,149.5,187.0,151.0,179.5,151.5,171.5,151.5,164.0,151.5,155.5,152.5,147.5,153.0,139.5,153.5,132.0,154.0,124.0,154.5,116.0,155.0,108.0,155.5,100.0,156.5,91.5,157.5,84.0,158.0" stroke="black" stroke-width="2" fill="none" />
<polyline points="81.0,159.0,89.0,171.0,97.0,180.5" stroke="black" stroke-width="2" fill="none" />
<polyline points="77.0,172.5,69.0,180.0" stroke="black" stroke-width="2" fill="none" />
<polyline points="75.0,179.5,66.5,181.0,58.5,182.0,50.5,182.0,42.5,183.0" stroke="black" stroke-width="2" fill="none" />
<polyline points="42.5,178.5,50.5,171.5,59.0,164.0,67.0,156.5" stroke="black" stroke-width="2" fill="none" />
<polyline points="65.5,158.0,73.5,176.0,81.5,186.0,89.5,193.5,98.0,199.5,106.5,203.0,114.5,206.5,122.5,209.5,130.5,210.5,139.0,211.0,147.0,210.0,155.0,209.0,163.0,208.0,171.0,204.5,179.0,200.5,187.5,195.5,195.0,188.5,203.0,180.5,211.0,168.5" stroke="black" stroke-width="2" fill="none" />
<polyline points="201.0,142.5,193.0,142.5,186.0,142.5,178.5,143.0,171.0,144.0,163.0,145.0,155.0,145.0,146.5,145.0,139.0,145.5,131.5,146.0,123.5,147.5,115.5,148.0,107.5,148.5,99.5,149.0,92.0,149.0,84.0,149.5" stroke="black" stroke-width="2" fill="none" />
<polyline points="84.0,149.5,91.5,142.0,99.5,135.0,108.0,127.5,117.0,120.0,125.0,113.0,133.0,106.0,140.5,99.0,148.0,92.0,155.5,84.5,163.5,77.5" stroke="black" stroke-width="2" fill="none" />
<polyline points="164.5,77.5,157.0,77.5,149.0,78.0,140.5,78.5,132.0,79.0" stroke="black" stroke-width="2" fill="none" />
<polyline points="131.5,76.5,123.0,84.0,114.5,91.5,106.5,98.5,98.5,105.5,90.5,112.5,83.0,120.0" stroke="black" stroke-width="2" fill="none" />
<polyline points="81.5,121.5,89.5,102.5,98.0,93.0,106.5,86.0,115.0,80.5,123.0,76.0,130.5,74.5,138.5,73.5,146.5,74.0,154.0,74.0,162.0,75.5,170.0,78.5,178.5,83.0,186.5,89.0,195.0,98.5,202.5,115.5" stroke="black" stroke-width="2" fill="none" />
<polyline points="193.0,99.0,184.5,100.0,176.5,100.5,169.0,101.0,161.5,101.5,154.5,102.5,147.0,103.5,139.5,104.0,131.5,104.5,124.5,105.5,117.0,106.0,109.5,106.5,101.5,106.5" stroke="black" stroke-width="2" fill="none" />
<polyline points="99.5,98.0,107.0,97.5,115.0,97.0,123.5,96.5,131.5,95.5,139.0,95.0,146.5,94.5,155.0,93.5,163.0,93.0,171.0,93.0,179.0,93.0,187.0,92.0" stroke="black" stroke-width="2" fill="none" />
<polyline points="177.5,86.5,170.0,88.0,162.0,89.0,154.0,89.5,146.5,90.5,139.0,91.0,131.5,91.0,123.5,91.0,115.0,91.5" stroke="black" stroke-width="2" fill="none" />
<polyline points="98.0,85.5,106.0,85.0,114.0,84.5,122.0,84.0,130.5,83.0,138.5,82.5,146.5,82.0,155.5,81.5,164.5,81.0,173.0,79.5,181.0,79.0,188.5,79.0" stroke="black" stroke-width="2" fill="none" />
<polyline points="182.0,78.5,189.0,83.5,196.0,91.5,201.0,99.5,204.0,107.5,207.0,116.0,209.0,124.0,210.0,132.0,209.0,140.5,207.5,148.5,204.5,156.0" stroke="black" stroke-width="2" fill="none" />
<polyline points="203.5,138.0,195.5,138.0,187.5,138.5,179.0,139.0,171.0,139.5,163.5,139.5,155.0,140.5,147.0,141.0,139.5,142.0,132.0,142.5,124.5,143.0,116.0,144.0,108.0,144.5,99.5,144.5,91.5,145.5,83.5,146.0" stroke="black" stroke-width="2" fill="none" />
<polyline points="83.0,144.0,91.0,136.5,99.5,129.0,107.5,121.5,115.0,113.5,123.5,106.0,132.0,98.0,140.5,90.0,148.5,82.5,157.0,74.5" stroke="black" stroke-width="2" fill="none" />
<polyline points="164.5,75.5,179.0,83.5,189.0,91.5,195.0,99.5,199.0,108.0,202.5,116.0,203.5,124.0,204.5,132.0,203.5,140.5,202.5,148.5,200.5,156.5,196.5,164.5,191.5,172.5,184.5,180.5,173.5,188.0" stroke="black" stroke-width="2" fill="none" />
<polyline points="109.0,205.0,101.5,205.5" stroke="black" stroke-width="2" fill="none" />
<polyline points="83.5,188.0,76.0,189.0,68.0,190.0,60.5,191.0,53.0,191.0" stroke="black" stroke-width="2" fill="none" />
<polyline points="48.5,194.0,49.0,196.0,47.0,188.5" stroke="black" stroke-width="2" fill="none" />
<polyline points="60.5,195.5,68.5,188.0" stroke="black" stroke-width="2" fill="none" />
<polyline points="67.5,186.0,75.0,186.5" stroke="black" stroke-width="2" fill="none" />
<polyline points="59.0,176.5,67.5,169.0" stroke="black" stroke-width="2" fill="none" />
<polyline points="67.5,162.5,59.5,170.5,51.0,178.0" stroke="black" stroke-width="2" fill="none" />
<polyline points="44.5,171.0,52.5,163.5,60.0,156.0" stroke="black" stroke-width="2" fill="none" />
<polyline points="59.5,140.5,51.0,141.0" stroke="black" stroke-width="2" fill="none" />
<polyline points="43.5,150.0,51.0,149.0,59.0,148.5,66.5,148.0" stroke="black" stroke-width="2" fill="none" />
<polyline points="85.0,140.0,92.5,139.5,101.0,139.0,109.0,138.5,117.0,138.0,124.5,137.5,132.5,137.0,140.0,136.5,148.0,136.0,156.5,136.0,164.5,136.0,172.0,135.0,180.0,134.5,188.0,134.0,196.5,133.5,204.5,133.0,212.5,132.5" stroke="black" stroke-width="2" fill="none" />
<polyline points="203.0,129.0,195.0,129.5,187.0,129.5,179.5,130.0,171.5,131.0,163.0,131.5,155.5,132.0,148.0,132.0,140.5,133.0,133.0,134.0,125.0,135.0,117.5,135.5,109.0,135.5,101.5,135.5,94.0,136.0,86.0,137.0" stroke="black" stroke-width="2" fill="none" />
<polyline points="86.5,135.0,94.5,134.5,102.5,133.5,110.0,132.0,117.5,131.0,124.5,130.5,132.5,129.5,140.5,128.0,148.5,127.0,156.0,126.5,164.0,126.0,172.5,125.5,181.0,125.0,189.0,124.5,196.5,124.5,204.5,124.5,212.5,124.5" stroke="black" stroke-width="2" fill="none" />
<polyline points="202.5,115.0,194.0,115.0,186.0,115.5,178.0,116.0,170.0,116.0,162.0,117.0,153.5,117.5,145.5,118.5,137.5,118.5,130.0,119.0,121.5,120.0,113.5,120.0,105.5,120.0,98.5,120.0,90.5,120.5" stroke="black" stroke-width="2" fill="none" />
<polyline points="84.5,125.0,92.5,124.0,100.0,123.5,108.5,123.0,117.0,123.0,125.0,122.5,133.5,122.0,141.0,121.5,149.5,121.0,157.0,120.0,165.5,119.5,173.5,119.0,181.0,118.0,188.5,117.5,195.5,117.5,202.5,117.5,210.0,117.5" stroke="black" stroke-width="2" fill="none" />
<polyline points="203.5,121.0,196.0,121.5,187.5,121.5,179.5,121.5,171.5,121.5,163.0,122.5,155.0,123.0,147.0,123.5,139.5,124.5,131.5,125.5,123.5,127.0,115.5,127.5,108.0,128.0,100.5,128.5,93.0,129.0,85.0,129.0" stroke="black" stroke-width="2" fill="none" />
<polyline points="83.5,136.5,92.0,129.5,100.0,122.0,108.0,114.5,116.5,106.5,124.0,98.0,131.5,90.5,139.0,83.0,146.5,75.5" stroke="black" stroke-width="2" fill="none" />
<polyline points="138.5,77.0,130.5,84.5,122.5,92.5,114.5,100.0,107.0,107.5,99.0,115.5,91.0,122.5,83.0,130.0" stroke="black" stroke-width="2" fill="none" />
<polyline points="82.5,117.0,90.5,116.5,99.0,116.0,107.0,115.0,114.5,114.5,123.0,114.0,131.0,114.0,139.0,113.5,147.5,113.0,155.5,112.5,163.5,112.5,171.0,111.5,179.5,111.0,187.5,111.0,195.0,111.0,203.0,111.0" stroke="black" stroke-width="2" fill="none" />
<polyline points="195.0,86.0,187.5,86.0,179.5,86.0,171.5,86.5,163.5,87.5,155.0,88.0,146.5,89.0,138.5,90.0,130.5,91.0,122.5,91.0,115.0,91.0,107.0,91.0,99.0,91.0,90.5,91.0" stroke="black" stroke-width="2" fill="none" />
<polyline points="89.0,95.5,81.0,105.5" stroke="black" stroke-width="2" fill="none" />
<polyline points="83.0,108.5,91.0,107.5,99.0,106.5,107.0,106.0,114.0,106.0,121.5,105.5,129.5,106.0,137.5,106.0,145.0,106.0,153.0,105.5,161.0,105.0,169.0,105.0,178.0,105.0,186.5,104.5,195.0,103.0,203.0,102.0" stroke="black" stroke-width="2" fill="none" />
<polyline points="224.0,141.5,232.0,141.0,236.0,136.0,244.0,134.0,252.5,136.0" stroke="black" stroke-width="2" fill="none" />
<polyline points="162.5,66.5,155.5,66.5,148.5,66.5,141.0,67.0,133.5,68.0,125.5,68.5" stroke="black" stroke-width="2" fill="none" />
<polyline points="127.0,74.5,110.0,83.0,100.5,91.0,93.5,99.0,88.0,107.5,84.5,115.5,82.5,123.5,81.5,131.5,81.5,139.0,82.0,147.0,85.0,154.5,88.5,163.0,93.5,171.0,99.5,179.5,109.5,187.5,128.5,189.0,131.5,188.0,139.5,190.5,147.5,190.0,155.5,188.5,163.0,185.5,171.0,181.5" stroke="black" stroke-width="2" fill="none" />
<polyline points="197.5,163.0,189.0,176.0,181.0,183.5,172.5,188.5,164.5,192.5,156.5,195.5,149.0,196.5,141.5,196.0,133.5,195.5,126.0,194.5,118.0,191.5,110.0,186.0,102.0,180.0,94.0,170.0,86.0,155.0" stroke="black" stroke-width="2" fill="none" />
<polyline points="76.0,170.5,67.5,170.5,59.0,171.0,50.5,171.5,42.5,172.0,35.0,172.5" stroke="black" stroke-width="2" fill="none" />
<polyline points="36.0,166.0,44.0,166.0,52.5,165.0,60.5,165.0,68.5,165.0" stroke="black" stroke-width="2" fill="none" />
<polyline points="69.0,155.5,61.0,155.5,53.0,156.0,46.0,156.5,38.0,156.5" stroke="black" stroke-width="2" fill="none" />
<polyline points="39.0,160.0,31.0,162.0" stroke="black" stroke-width="2" fill="none" />
<polyline points="27.5,163.0,35.5,158.0,37.5,147.5,45.0,146.5" stroke="black" stroke-width="2" fill="none" />
<polyline points="18.0,140.0,10.0,140.5,2.0,140.5" stroke="black" stroke-width="2" fill="none" />
<polyline points="3.0,141.5,10.5,140.5,18.5,141.5,30.5,137.5" stroke="black" stroke-width="2" fill="none" />
<polyline points="12.5,132.5,5.0,133.0" stroke="black" stroke-width="2" fill="none" />
<polyline points="1.5,134.0,9.5,138.0,17.5,138.5,25.5,141.5,28.5,145.5,24.0,147.5" stroke="black" stroke-width="2" fill="none" />
<polyline points="18.5,161.0,19.5,158.5,27.0,163.5,24.0,171.0,17.0,176.0,13.5,176.0,22.0,176.0,27.5,186.0,36.0,187.0,44.0,187.0,52.0,186.5,55.0,195.0,63.0,195.0,71.0,192.0,79.5,190.0,94.0,196.5,107.0,204.5" stroke="black" stroke-width="2" fill="none" />
<polyline points="80.0,194.5,83.0,187.0,75.5,179.0,71.0,171.5,68.0,163.5,65.5,155.5,63.5,147.5,62.5,139.5,62.5,134.0,55.0,135.0,49.5,139.0,41.5,137.0,33.5,135.0,25.5,135.0,17.5,134.0,10.0,135.0,8.5,130.5,2.5,129.5,13.0,123.5,12.0,116.0,18.5,108.0,16.0,100.0,27.0,97.0,19.5,93.5" stroke="black" stroke-width="2" fill="none" />
<polyline points="18.0,90.5,26.0,90.5,34.0,90.5,43.0,90.5" stroke="black" stroke-width="2" fill="none" />
<polyline points="35.0,92.0,27.0,99.5" stroke="black" stroke-width="2" fill="none" />
<polyline points="29.5,101.5,37.0,101.0,44.5,101.0" stroke="black" stroke-width="2" fill="none" />
<polyline points="47.5,97.5,42.5,107.0,34.5,104.0,34.5,106.5,35.5,112.5,24.5,109.0,17.5,112.0,9.0,113.5" stroke="black" stroke-width="2" fill="none" />
<polyline points="4.5,109.5,9.5,117.5,13.0,128.0,18.0,136.0,13.0,143.0,24.0,151.0,27.5,144.0,34.0,143.5,40.0,147.5,44.5,151.0,50.5,152.0,56.5,146.5" stroke="black" stroke-width="2" fill="none" />
<polyline points="50.0,108.0,58.5,107.5,67.0,107.5" stroke="black" stroke-width="2" fill="none" />
<polyline points="69.0,107.5,64.0,115.5" stroke="black" stroke-width="2" fill="none" />
<polyline points="51.0,115.5,42.5,117.0,34.5,116.0,26.0,115.0,26.0,109.5,18.5,101.5,16.5,108.5,10.0,105.5,2.0,104.0" stroke="black" stroke-width="2" fill="none" />
<polyline points="5.0,100.5,13.0,100.0" stroke="black" stroke-width="2" fill="none" />
<polyline points="4.5,94.0,12.5,93.0,20.5,92.0,28.0,91.5,36.0,91.5,43.5,90.5,51.5,90.0,59.5,89.0,67.5,88.5" stroke="black" stroke-width="2" fill="none" />
<polyline points="74.5,80.0,66.0,80.0,58.0,80.5,50.0,81.0" stroke="black" stroke-width="2" fill="none" />
<polyline points="42.0,60.0,50.0,59.5,58.5,59.0" stroke="black" stroke-width="2" fill="none" />
<polyline points="75.5,36.0,83.5,35.5,91.5,35.0,99.5,35.0" stroke="black" stroke-width="2" fill="none" />
<polyline points="107.5,40.0,115.5,39.0,123.5,38.0" stroke="black" stroke-width="2" fill="none" />
<polyline points="118.0,64.5,103.0,72.5,93.0,80.5,87.0,88.5,80.5,97.0,77.5,105.0,78.0,102.0,86.0,89.0,93.5,78.5,101.5,72.5,109.5,68.5,117.5,64.5,125.0,62.0,133.0,61.0,141.0,60.5,149.0,61.0,157.0,62.0" stroke="black" stroke-width="2" fill="none" />
<polyline points="165.5,57.5,183.5,65.0,195.5,73.0,202.5,81.0,209.5,90.0,213.0,98.0,217.0,105.5,219.0,113.5,220.0,121.5,221.0,129.5,220.5,137.5,220.0,146.0,218.0,154.0,215.0,162.0,211.0,169.5,206.0,178.0,199.0,186.0,191.0,194.0,178.5,202.0" stroke="black" stroke-width="2" fill="none" />
<polyline points="74.0,179.5,66.5,184.5,58.5,184.5,51.0,185.0,43.0,184.0,35.0,184.0,27.0,183.5,19.5,185.5,11.5,186.5,3.5,186.5" stroke="black" stroke-width="2" fill="none" />
<polyline points="4.0,186.0,12.0,186.0" stroke="black" stroke-width="2" fill="none" />
<polyline points="7.5,178.0,9.0,174.0,3.0,176.0" stroke="black" stroke-width="2" fill="none" />
<polyline points="7.5,172.5,16.0,170.5,24.0,171.0,29.5,172.5,32.5,177.0,40.5,176.0,48.5,176.0,56.5,175.5,63.5,177.0,72.0,175.0" stroke="black" stroke-width="2" fill="none" />
<polyline points="57.0,183.0,49.0,182.0,41.0,180.0,33.5,181.0" stroke="black" stroke-width="2" fill="none" />
<polyline points="17.5,205.5,9.5,205.5" stroke="black" stroke-width="2" fill="none" />
<polyline points="8.5,201.5,17.0,202.0,26.0,203.0,27.0,206.0,37.0,198.5,37.0,212.0,44.0,218.0,44.0,214.0" stroke="black" stroke-width="2" fill="none" />
<polyline points="43.0,221.0,51.0,222.0" stroke="black" stroke-width="2" fill="none" />
<polyline points="60.0,230.0,62.0,244.0,63.0,246.0,61.0,254.0,53.5,254.5,63.5,255.5,72.0,255.5,80.0,255.0" stroke="black" stroke-width="2" fill="none" />
<polyline points="44.5,245.0,36.5,246.0,28.5,246.5" stroke="black" stroke-width="2" fill="none" />
<polyline points="22.0,230.5,34.5,232.5,41.5,240.0,45.5,244.0,44.5,254.0,47.5,250.5,55.5,248.5,63.5,248.5" stroke="black" stroke-width="2" fill="none" />
<polyline points="50.5,251.5,43.0,252.0,35.0,252.5,27.5,253.0,19.5,253.5,11.0,253.5,3.0,254.0" stroke="black" stroke-width="2" fill="none" />
<polyline points="2.5,249.0,6.5,243.0,18.0,239.5,18.0,247.5" stroke="black" stroke-width="2" fill="none" />
<polyline points="14.0,249.0,10.0,246.5,2.0,246.5" stroke="black" stroke-width="2" fill="none" />
<polyline points="9.0,233.0,17.5,234.0,24.0,236.0,26.0,240.0,25.5,248.0,27.5,248.0,26.5,239.5,34.5,230.5,42.5,234.0,44.5,239.0,51.5,241.0,59.5,241.0,68.0,243.0" stroke="black" stroke-width="2" fill="none" />
<polyline points="76.0,239.5,69.0,240.0,70.5,232.5,66.5,230.0,67.5,223.0,69.5,215.0" stroke="black" stroke-width="2" fill="none" />
<polyline points="31.0,211.5,27.0,215.0,26.0,210.0,16.5,207.5,8.5,210.5" stroke="black" stroke-width="2" fill="none" />
<polyline points="3.0,230.0,11.0,228.0,14.0,228.0,19.0,230.0,16.0,238.0,17.0,246.0,8.5,247.0,8.5,252.0,16.5,254.0,19.5,255.5" stroke="black" stroke-width="2" fill="none" />
<polyline points="8.5,151.5,6.0,145.5,14.5,148.0,22.5,146.0" stroke="black" stroke-width="2" fill="none" />
<polyline points="24.5,106.0,17.5,115.0,13.0,122.0,10.0,110.0,2.0,109.5" stroke="black" stroke-width="2" fill="none" />
<polyline points="2.0,90.0,10.0,90.0,19.0,96.0,27.0,100.5,34.5,99.0,42.5,100.5,42.5,94.5,55.5,91.0,64.0,94.5" stroke="black" stroke-width="2" fill="none" />
<polyline points="64.0,109.0,56.5,108.5,54.5,115.5,44.0,114.0,39.5,106.0" stroke="black" stroke-width="2" fill="none" />
<polyline points="2.0,88.5,10.0,88.5,18.0,88.5,26.0,88.5,33.5,88.0,41.5,88.0,49.5,88.5,57.5,89.0,65.5,89.0,73.5,89.0,81.5,83.0,89.0,74.5,97.0,68.5,105.0,64.0,113.5,59.5,121.0,57.0,129.0,55.0,137.5,54.0,145.5,54.0,154.0,54.0,162.0,56.0,170.0,57.5,178.0,61.5,186.0,65.5,194.0,72.0,202.5,71.5,207.5,67.0,218.5,75.0,224.5,71.0,233.0,71.5,241.0,72.5,249.0,69.5,249.5,74.0" stroke="black" stroke-width="2" fill="none" />
<polyline points="95.0,86.5,89.0,94.5,82.0,102.5,80.0,111.0,78.0,118.5,77.0,127.0,76.5,135.0,76.5,143.0,78.5,150.5,80.0,158.5,85.0,166.0,90.5,174.0,98.0,182.0" stroke="black" stroke-width="2" fill="none" />
<polyline points="51.0,45.0,43.0,45.5,35.0,46.0,27.0,47.0,19.0,48.0,11.0,48.5" stroke="black" stroke-width="2" fill="none" />
<polyline points="15.0,24.0,23.0,24.0,31.0,23.0,39.5,24.0" stroke="black" stroke-width="2" fill="none" />
<polyline points="45.0,36.0,37.0,38.5" stroke="black" stroke-width="2" fill="none" />
</svg>